%TF.GenerationSoftware,KiCad,Pcbnew,(5.1.8-0-10_14)*%
%TF.CreationDate,2021-03-24T11:52:58+01:00*%
%TF.ProjectId,KLST_TINY,4b4c5354-5f54-4494-9e59-2e6b69636164,0.1*%
%TF.SameCoordinates,Original*%
%TF.FileFunction,Legend,Top*%
%TF.FilePolarity,Positive*%
%FSLAX46Y46*%
G04 Gerber Fmt 4.6, Leading zero omitted, Abs format (unit mm)*
G04 Created by KiCad (PCBNEW (5.1.8-0-10_14)) date 2021-03-24 11:52:58*
%MOMM*%
%LPD*%
G01*
G04 APERTURE LIST*
%ADD10C,0.100000*%
%ADD11C,0.200000*%
%ADD12C,0.120000*%
%ADD13C,0.127000*%
%ADD14C,0.150000*%
G04 APERTURE END LIST*
D10*
X153193571Y-129446428D02*
X153300714Y-129482142D01*
X153336428Y-129517857D01*
X153372142Y-129589285D01*
X153372142Y-129696428D01*
X153336428Y-129767857D01*
X153300714Y-129803571D01*
X153229285Y-129839285D01*
X152943571Y-129839285D01*
X152943571Y-129089285D01*
X153193571Y-129089285D01*
X153265000Y-129125000D01*
X153300714Y-129160714D01*
X153336428Y-129232142D01*
X153336428Y-129303571D01*
X153300714Y-129375000D01*
X153265000Y-129410714D01*
X153193571Y-129446428D01*
X152943571Y-129446428D01*
X153836428Y-129089285D02*
X153979285Y-129089285D01*
X154050714Y-129125000D01*
X154122142Y-129196428D01*
X154157857Y-129339285D01*
X154157857Y-129589285D01*
X154122142Y-129732142D01*
X154050714Y-129803571D01*
X153979285Y-129839285D01*
X153836428Y-129839285D01*
X153765000Y-129803571D01*
X153693571Y-129732142D01*
X153657857Y-129589285D01*
X153657857Y-129339285D01*
X153693571Y-129196428D01*
X153765000Y-129125000D01*
X153836428Y-129089285D01*
X154622142Y-129089285D02*
X154765000Y-129089285D01*
X154836428Y-129125000D01*
X154907857Y-129196428D01*
X154943571Y-129339285D01*
X154943571Y-129589285D01*
X154907857Y-129732142D01*
X154836428Y-129803571D01*
X154765000Y-129839285D01*
X154622142Y-129839285D01*
X154550714Y-129803571D01*
X154479285Y-129732142D01*
X154443571Y-129589285D01*
X154443571Y-129339285D01*
X154479285Y-129196428D01*
X154550714Y-129125000D01*
X154622142Y-129089285D01*
X155157857Y-129089285D02*
X155586428Y-129089285D01*
X155372142Y-129839285D02*
X155372142Y-129089285D01*
X152943571Y-136839285D02*
X152943571Y-136089285D01*
X153229285Y-136089285D01*
X153300714Y-136125000D01*
X153336428Y-136160714D01*
X153372142Y-136232142D01*
X153372142Y-136339285D01*
X153336428Y-136410714D01*
X153300714Y-136446428D01*
X153229285Y-136482142D01*
X152943571Y-136482142D01*
X154122142Y-136839285D02*
X153872142Y-136482142D01*
X153693571Y-136839285D02*
X153693571Y-136089285D01*
X153979285Y-136089285D01*
X154050714Y-136125000D01*
X154086428Y-136160714D01*
X154122142Y-136232142D01*
X154122142Y-136339285D01*
X154086428Y-136410714D01*
X154050714Y-136446428D01*
X153979285Y-136482142D01*
X153693571Y-136482142D01*
X154836428Y-136125000D02*
X154765000Y-136089285D01*
X154657857Y-136089285D01*
X154550714Y-136125000D01*
X154479285Y-136196428D01*
X154443571Y-136267857D01*
X154407857Y-136410714D01*
X154407857Y-136517857D01*
X154443571Y-136660714D01*
X154479285Y-136732142D01*
X154550714Y-136803571D01*
X154657857Y-136839285D01*
X154729285Y-136839285D01*
X154836428Y-136803571D01*
X154872142Y-136767857D01*
X154872142Y-136517857D01*
X154729285Y-136517857D01*
X116535714Y-115989285D02*
X116535714Y-116525000D01*
X116500000Y-116632142D01*
X116428571Y-116703571D01*
X116321428Y-116739285D01*
X116250000Y-116739285D01*
X117250000Y-116739285D02*
X116892857Y-116739285D01*
X116892857Y-115989285D01*
X117928571Y-116667857D02*
X117892857Y-116703571D01*
X117785714Y-116739285D01*
X117714285Y-116739285D01*
X117607142Y-116703571D01*
X117535714Y-116632142D01*
X117500000Y-116560714D01*
X117464285Y-116417857D01*
X117464285Y-116310714D01*
X117500000Y-116167857D01*
X117535714Y-116096428D01*
X117607142Y-116025000D01*
X117714285Y-115989285D01*
X117785714Y-115989285D01*
X117892857Y-116025000D01*
X117928571Y-116060714D01*
X118464285Y-115989285D02*
X118464285Y-116525000D01*
X118428571Y-116632142D01*
X118357142Y-116703571D01*
X118250000Y-116739285D01*
X118178571Y-116739285D01*
X119178571Y-116739285D02*
X118821428Y-116739285D01*
X118821428Y-115989285D01*
X119857142Y-116667857D02*
X119821428Y-116703571D01*
X119714285Y-116739285D01*
X119642857Y-116739285D01*
X119535714Y-116703571D01*
X119464285Y-116632142D01*
X119428571Y-116560714D01*
X119392857Y-116417857D01*
X119392857Y-116310714D01*
X119428571Y-116167857D01*
X119464285Y-116096428D01*
X119535714Y-116025000D01*
X119642857Y-115989285D01*
X119714285Y-115989285D01*
X119821428Y-116025000D01*
X119857142Y-116060714D01*
X120392857Y-115989285D02*
X120392857Y-116525000D01*
X120357142Y-116632142D01*
X120285714Y-116703571D01*
X120178571Y-116739285D01*
X120107142Y-116739285D01*
X121107142Y-116739285D02*
X120750000Y-116739285D01*
X120750000Y-115989285D01*
X121785714Y-116667857D02*
X121750000Y-116703571D01*
X121642857Y-116739285D01*
X121571428Y-116739285D01*
X121464285Y-116703571D01*
X121392857Y-116632142D01*
X121357142Y-116560714D01*
X121321428Y-116417857D01*
X121321428Y-116310714D01*
X121357142Y-116167857D01*
X121392857Y-116096428D01*
X121464285Y-116025000D01*
X121571428Y-115989285D01*
X121642857Y-115989285D01*
X121750000Y-116025000D01*
X121785714Y-116060714D01*
X122321428Y-115989285D02*
X122321428Y-116525000D01*
X122285714Y-116632142D01*
X122214285Y-116703571D01*
X122107142Y-116739285D01*
X122035714Y-116739285D01*
X123035714Y-116739285D02*
X122678571Y-116739285D01*
X122678571Y-115989285D01*
X123714285Y-116667857D02*
X123678571Y-116703571D01*
X123571428Y-116739285D01*
X123500000Y-116739285D01*
X123392857Y-116703571D01*
X123321428Y-116632142D01*
X123285714Y-116560714D01*
X123250000Y-116417857D01*
X123250000Y-116310714D01*
X123285714Y-116167857D01*
X123321428Y-116096428D01*
X123392857Y-116025000D01*
X123500000Y-115989285D01*
X123571428Y-115989285D01*
X123678571Y-116025000D01*
X123714285Y-116060714D01*
D11*
X115600000Y-121800000D02*
G75*
G03*
X115600000Y-121800000I-100000J0D01*
G01*
X136600000Y-110000000D02*
G75*
G03*
X136600000Y-110000000I-100000J0D01*
G01*
D10*
X139907857Y-133403571D02*
X140015000Y-133439285D01*
X140193571Y-133439285D01*
X140265000Y-133403571D01*
X140300714Y-133367857D01*
X140336428Y-133296428D01*
X140336428Y-133225000D01*
X140300714Y-133153571D01*
X140265000Y-133117857D01*
X140193571Y-133082142D01*
X140050714Y-133046428D01*
X139979285Y-133010714D01*
X139943571Y-132975000D01*
X139907857Y-132903571D01*
X139907857Y-132832142D01*
X139943571Y-132760714D01*
X139979285Y-132725000D01*
X140050714Y-132689285D01*
X140229285Y-132689285D01*
X140336428Y-132725000D01*
X140586428Y-132689285D02*
X140765000Y-133439285D01*
X140907857Y-132903571D01*
X141050714Y-133439285D01*
X141229285Y-132689285D01*
X141515000Y-133439285D02*
X141515000Y-132689285D01*
X141693571Y-132689285D01*
X141800714Y-132725000D01*
X141872142Y-132796428D01*
X141907857Y-132867857D01*
X141943571Y-133010714D01*
X141943571Y-133117857D01*
X141907857Y-133260714D01*
X141872142Y-133332142D01*
X141800714Y-133403571D01*
X141693571Y-133439285D01*
X141515000Y-133439285D01*
X153372142Y-133339285D02*
X153122142Y-132982142D01*
X152943571Y-133339285D02*
X152943571Y-132589285D01*
X153229285Y-132589285D01*
X153300714Y-132625000D01*
X153336428Y-132660714D01*
X153372142Y-132732142D01*
X153372142Y-132839285D01*
X153336428Y-132910714D01*
X153300714Y-132946428D01*
X153229285Y-132982142D01*
X152943571Y-132982142D01*
X153693571Y-132946428D02*
X153943571Y-132946428D01*
X154050714Y-133339285D02*
X153693571Y-133339285D01*
X153693571Y-132589285D01*
X154050714Y-132589285D01*
X154336428Y-133303571D02*
X154443571Y-133339285D01*
X154622142Y-133339285D01*
X154693571Y-133303571D01*
X154729285Y-133267857D01*
X154765000Y-133196428D01*
X154765000Y-133125000D01*
X154729285Y-133053571D01*
X154693571Y-133017857D01*
X154622142Y-132982142D01*
X154479285Y-132946428D01*
X154407857Y-132910714D01*
X154372142Y-132875000D01*
X154336428Y-132803571D01*
X154336428Y-132732142D01*
X154372142Y-132660714D01*
X154407857Y-132625000D01*
X154479285Y-132589285D01*
X154657857Y-132589285D01*
X154765000Y-132625000D01*
X155086428Y-132946428D02*
X155336428Y-132946428D01*
X155443571Y-133339285D02*
X155086428Y-133339285D01*
X155086428Y-132589285D01*
X155443571Y-132589285D01*
X155657857Y-132589285D02*
X156086428Y-132589285D01*
X155872142Y-133339285D02*
X155872142Y-132589285D01*
D12*
%TO.C,J8*%
X144500000Y-51000000D02*
X144500000Y-53000000D01*
X139500000Y-51000000D02*
X139500000Y-53000000D01*
X139500000Y-51000000D02*
X142000000Y-51000000D01*
X142000000Y-51000000D02*
X144500000Y-51000000D01*
X138800000Y-65100000D02*
X138800000Y-64600000D01*
X144700000Y-65100000D02*
X138800000Y-65100000D01*
X145200000Y-53000000D02*
X145200000Y-54800000D01*
X138800000Y-53000000D02*
X138800000Y-54800000D01*
X140400000Y-54100000D02*
X140400000Y-53000000D01*
X143600000Y-54100000D02*
X143600000Y-53000000D01*
X138800000Y-53000000D02*
X145200000Y-53000000D01*
X140400000Y-54100000D02*
X143600000Y-54100000D01*
%TO.C,J7*%
X132000000Y-51000000D02*
X132000000Y-53000000D01*
X127000000Y-51000000D02*
X127000000Y-53000000D01*
X127000000Y-51000000D02*
X129500000Y-51000000D01*
X129500000Y-51000000D02*
X132000000Y-51000000D01*
X126300000Y-65100000D02*
X126300000Y-64600000D01*
X132200000Y-65100000D02*
X126300000Y-65100000D01*
X132700000Y-53000000D02*
X132700000Y-54800000D01*
X126300000Y-53000000D02*
X126300000Y-54800000D01*
X127900000Y-54100000D02*
X127900000Y-53000000D01*
X131100000Y-54100000D02*
X131100000Y-53000000D01*
X126300000Y-53000000D02*
X132700000Y-53000000D01*
X127900000Y-54100000D02*
X131100000Y-54100000D01*
%TO.C,J6*%
X119500000Y-51000000D02*
X119500000Y-53000000D01*
X114500000Y-51000000D02*
X114500000Y-53000000D01*
X114500000Y-51000000D02*
X117000000Y-51000000D01*
X117000000Y-51000000D02*
X119500000Y-51000000D01*
X113800000Y-65100000D02*
X113800000Y-64600000D01*
X119700000Y-65100000D02*
X113800000Y-65100000D01*
X120200000Y-53000000D02*
X120200000Y-54800000D01*
X113800000Y-53000000D02*
X113800000Y-54800000D01*
X115400000Y-54100000D02*
X115400000Y-53000000D01*
X118600000Y-54100000D02*
X118600000Y-53000000D01*
X113800000Y-53000000D02*
X120200000Y-53000000D01*
X115400000Y-54100000D02*
X118600000Y-54100000D01*
%TO.C,J5*%
X139170000Y-131435000D02*
X139235000Y-131435000D01*
X139170000Y-134965000D02*
X139235000Y-134965000D01*
X132765000Y-131435000D02*
X132830000Y-131435000D01*
X132765000Y-134965000D02*
X132830000Y-134965000D01*
X132830000Y-136290000D02*
X132830000Y-134965000D01*
X139235000Y-134965000D02*
X139235000Y-131435000D01*
X132765000Y-134965000D02*
X132765000Y-131435000D01*
%TO.C,J13*%
X106330000Y-127210000D02*
X105000000Y-127210000D01*
X106330000Y-125880000D02*
X106330000Y-127210000D01*
X103730000Y-127210000D02*
X101130000Y-127210000D01*
X103730000Y-124610000D02*
X103730000Y-127210000D01*
X106330000Y-124610000D02*
X103730000Y-124610000D01*
X101130000Y-127210000D02*
X101130000Y-122010000D01*
X106330000Y-124610000D02*
X106330000Y-122010000D01*
X106330000Y-122010000D02*
X101130000Y-122010000D01*
%TO.C,J11*%
X151670000Y-121990000D02*
X153000000Y-121990000D01*
X151670000Y-123320000D02*
X151670000Y-121990000D01*
X154270000Y-121990000D02*
X156870000Y-121990000D01*
X154270000Y-124590000D02*
X154270000Y-121990000D01*
X151670000Y-124590000D02*
X154270000Y-124590000D01*
X156870000Y-121990000D02*
X156870000Y-127190000D01*
X151670000Y-124590000D02*
X151670000Y-127190000D01*
X151670000Y-127190000D02*
X156870000Y-127190000D01*
%TO.C,U1*%
X115840000Y-121410000D02*
X115840000Y-122750000D01*
X114890000Y-121410000D02*
X115840000Y-121410000D01*
X114890000Y-120460000D02*
X114890000Y-121410000D01*
X114890000Y-111190000D02*
X115840000Y-111190000D01*
X114890000Y-112140000D02*
X114890000Y-111190000D01*
X125110000Y-121410000D02*
X124160000Y-121410000D01*
X125110000Y-120460000D02*
X125110000Y-121410000D01*
X125110000Y-111190000D02*
X124160000Y-111190000D01*
X125110000Y-112140000D02*
X125110000Y-111190000D01*
%TO.C,C8*%
X122007836Y-123540000D02*
X121792164Y-123540000D01*
X122007836Y-124260000D02*
X121792164Y-124260000D01*
%TO.C,C7*%
X122007836Y-124540000D02*
X121792164Y-124540000D01*
X122007836Y-125260000D02*
X121792164Y-125260000D01*
%TO.C,J12*%
X108130000Y-72410000D02*
X99010000Y-72410000D01*
X108130000Y-68310000D02*
X99010000Y-68310000D01*
X108130000Y-78110000D02*
X99010000Y-78110000D01*
X99010000Y-78110000D02*
X99010000Y-62610000D01*
X99010000Y-62610000D02*
X108130000Y-62610000D01*
X108130000Y-62610000D02*
X108130000Y-78110000D01*
%TO.C,J9*%
X106330000Y-122110000D02*
X105000000Y-122110000D01*
X106330000Y-120780000D02*
X106330000Y-122110000D01*
X103730000Y-122110000D02*
X101130000Y-122110000D01*
X103730000Y-119510000D02*
X103730000Y-122110000D01*
X106330000Y-119510000D02*
X103730000Y-119510000D01*
X101130000Y-122110000D02*
X101130000Y-101670000D01*
X106330000Y-119510000D02*
X106330000Y-101670000D01*
X106330000Y-101670000D02*
X101130000Y-101670000D01*
%TO.C,J4*%
X151670000Y-101670000D02*
X153000000Y-101670000D01*
X151670000Y-103000000D02*
X151670000Y-101670000D01*
X154270000Y-101670000D02*
X156870000Y-101670000D01*
X154270000Y-104270000D02*
X154270000Y-101670000D01*
X151670000Y-104270000D02*
X154270000Y-104270000D01*
X156870000Y-101670000D02*
X156870000Y-122110000D01*
X151670000Y-104270000D02*
X151670000Y-122110000D01*
X151670000Y-122110000D02*
X156870000Y-122110000D01*
D11*
%TO.C,J3*%
X118600000Y-147500000D02*
G75*
G03*
X118600000Y-147500000I-100000J0D01*
G01*
D13*
X123400000Y-149960000D02*
X123400000Y-148440000D01*
X123400000Y-148440000D02*
X123195000Y-148440000D01*
X116200000Y-149960000D02*
X116200000Y-148440000D01*
X116200000Y-148440000D02*
X116405000Y-148440000D01*
X123400000Y-152740000D02*
X123400000Y-153100000D01*
X123400000Y-153100000D02*
X116200000Y-153100000D01*
X116200000Y-153100000D02*
X116200000Y-152740000D01*
D12*
%TO.C,J1*%
X99000000Y-128650000D02*
X99000000Y-143350000D01*
X99000000Y-143350000D02*
X111000000Y-143350000D01*
X99000000Y-128650000D02*
X101000000Y-128650000D01*
%TO.C,SW6*%
X147630000Y-134930000D02*
X151770000Y-134930000D01*
X151770000Y-137770000D02*
X151770000Y-138070000D01*
X151770000Y-138070000D02*
X147630000Y-138070000D01*
X147630000Y-135230000D02*
X147630000Y-134930000D01*
X147630000Y-138070000D02*
X147630000Y-137770000D01*
X151770000Y-134930000D02*
X151770000Y-135230000D01*
%TO.C,R46*%
X144920000Y-136346359D02*
X144920000Y-136653641D01*
X145680000Y-136346359D02*
X145680000Y-136653641D01*
%TO.C,R45*%
X146780000Y-136653641D02*
X146780000Y-136346359D01*
X146020000Y-136653641D02*
X146020000Y-136346359D01*
%TO.C,C3*%
X143840000Y-136392164D02*
X143840000Y-136607836D01*
X144560000Y-136392164D02*
X144560000Y-136607836D01*
%TO.C,SW2*%
X151770000Y-134570000D02*
X147630000Y-134570000D01*
X147630000Y-131730000D02*
X147630000Y-131430000D01*
X147630000Y-131430000D02*
X151770000Y-131430000D01*
X151770000Y-134270000D02*
X151770000Y-134570000D01*
X151770000Y-131430000D02*
X151770000Y-131730000D01*
X147630000Y-134570000D02*
X147630000Y-134270000D01*
%TO.C,SW1*%
X147630000Y-127930000D02*
X151770000Y-127930000D01*
X151770000Y-130770000D02*
X151770000Y-131070000D01*
X151770000Y-131070000D02*
X147630000Y-131070000D01*
X147630000Y-128230000D02*
X147630000Y-127930000D01*
X147630000Y-131070000D02*
X147630000Y-130770000D01*
X151770000Y-127930000D02*
X151770000Y-128230000D01*
%TO.C,Y1*%
X116500000Y-127750000D02*
X120500000Y-127750000D01*
X116500000Y-124450000D02*
X116500000Y-127750000D01*
%TO.C,R24*%
X142377064Y-97465000D02*
X141922936Y-97465000D01*
X142377064Y-98935000D02*
X141922936Y-98935000D01*
%TO.C,R23*%
X142377064Y-95465000D02*
X141922936Y-95465000D01*
X142377064Y-96935000D02*
X141922936Y-96935000D01*
%TO.C,R22*%
X145422936Y-98935000D02*
X145877064Y-98935000D01*
X145422936Y-97465000D02*
X145877064Y-97465000D01*
%TO.C,R21*%
X145422936Y-96935000D02*
X145877064Y-96935000D01*
X145422936Y-95465000D02*
X145877064Y-95465000D01*
%TO.C,R20*%
X132327064Y-97415000D02*
X131872936Y-97415000D01*
X132327064Y-98885000D02*
X131872936Y-98885000D01*
%TO.C,R19*%
X132327064Y-95315000D02*
X131872936Y-95315000D01*
X132327064Y-96785000D02*
X131872936Y-96785000D01*
%TO.C,R18*%
X135472936Y-98885000D02*
X135927064Y-98885000D01*
X135472936Y-97415000D02*
X135927064Y-97415000D01*
%TO.C,R17*%
X135472936Y-96785000D02*
X135927064Y-96785000D01*
X135472936Y-95315000D02*
X135927064Y-95315000D01*
%TO.C,R16*%
X119065000Y-67772936D02*
X119065000Y-68227064D01*
X120535000Y-67772936D02*
X120535000Y-68227064D01*
%TO.C,R11*%
X120535000Y-71727064D02*
X120535000Y-71272936D01*
X119065000Y-71727064D02*
X119065000Y-71272936D01*
%TO.C,R10*%
X122635000Y-71727064D02*
X122635000Y-71272936D01*
X121165000Y-71727064D02*
X121165000Y-71272936D01*
%TO.C,R12*%
X121165000Y-67772936D02*
X121165000Y-68227064D01*
X122635000Y-67772936D02*
X122635000Y-68227064D01*
%TO.C,D5*%
X143800000Y-66400000D02*
X143800000Y-70300000D01*
X141800000Y-66400000D02*
X141800000Y-70300000D01*
X143800000Y-66400000D02*
X141800000Y-66400000D01*
%TO.C,D6*%
X114400000Y-75700000D02*
X114400000Y-71800000D01*
X116400000Y-75700000D02*
X116400000Y-71800000D01*
X114400000Y-75700000D02*
X116400000Y-75700000D01*
%TO.C,R44*%
X109780000Y-115053641D02*
X109780000Y-114746359D01*
X109020000Y-115053641D02*
X109020000Y-114746359D01*
%TO.C,R43*%
X109020000Y-112746359D02*
X109020000Y-113053641D01*
X109780000Y-112746359D02*
X109780000Y-113053641D01*
%TO.C,J10*%
X149870000Y-68290000D02*
X158990000Y-68290000D01*
X149870000Y-72390000D02*
X158990000Y-72390000D01*
X149870000Y-62590000D02*
X158990000Y-62590000D01*
X158990000Y-62590000D02*
X158990000Y-78090000D01*
X158990000Y-78090000D02*
X149870000Y-78090000D01*
X149870000Y-78090000D02*
X149870000Y-62590000D01*
%TO.C,R42*%
X113220000Y-89446359D02*
X113220000Y-89753641D01*
X113980000Y-89446359D02*
X113980000Y-89753641D01*
%TO.C,R36*%
X128120000Y-89446359D02*
X128120000Y-89753641D01*
X128880000Y-89446359D02*
X128880000Y-89753641D01*
%TO.C,R30*%
X143020000Y-89446359D02*
X143020000Y-89753641D01*
X143780000Y-89446359D02*
X143780000Y-89753641D01*
%TO.C,R14*%
X119820000Y-108346359D02*
X119820000Y-108653641D01*
X120580000Y-108346359D02*
X120580000Y-108653641D01*
%TO.C,R7*%
X116965000Y-141372936D02*
X116965000Y-141827064D01*
X118435000Y-141372936D02*
X118435000Y-141827064D01*
%TO.C,R3*%
X119246359Y-124080000D02*
X119553641Y-124080000D01*
X119246359Y-123320000D02*
X119553641Y-123320000D01*
%TO.C,R1*%
X127320000Y-124246359D02*
X127320000Y-124553641D01*
X128080000Y-124246359D02*
X128080000Y-124553641D01*
%TO.C,C44*%
X111960000Y-89707836D02*
X111960000Y-89492164D01*
X111240000Y-89707836D02*
X111240000Y-89492164D01*
%TO.C,C43*%
X115960000Y-89707836D02*
X115960000Y-89492164D01*
X115240000Y-89707836D02*
X115240000Y-89492164D01*
%TO.C,C41*%
X126860000Y-89707836D02*
X126860000Y-89492164D01*
X126140000Y-89707836D02*
X126140000Y-89492164D01*
%TO.C,C40*%
X130860000Y-89707836D02*
X130860000Y-89492164D01*
X130140000Y-89707836D02*
X130140000Y-89492164D01*
%TO.C,C38*%
X141760000Y-89707836D02*
X141760000Y-89492164D01*
X141040000Y-89707836D02*
X141040000Y-89492164D01*
%TO.C,C37*%
X145760000Y-89707836D02*
X145760000Y-89492164D01*
X145040000Y-89707836D02*
X145040000Y-89492164D01*
%TO.C,C35*%
X134735000Y-112110000D02*
X134735000Y-108200000D01*
X132865000Y-112110000D02*
X134735000Y-112110000D01*
X132865000Y-108200000D02*
X132865000Y-112110000D01*
%TO.C,C32*%
X147040000Y-111092164D02*
X147040000Y-111307836D01*
X147760000Y-111092164D02*
X147760000Y-111307836D01*
%TO.C,C31*%
X132865000Y-118340000D02*
X132865000Y-122250000D01*
X134735000Y-118340000D02*
X132865000Y-118340000D01*
X134735000Y-122250000D02*
X134735000Y-118340000D01*
%TO.C,C30*%
X132460000Y-119357836D02*
X132460000Y-119142164D01*
X131740000Y-119357836D02*
X131740000Y-119142164D01*
%TO.C,C29*%
X132865000Y-113590000D02*
X132865000Y-117500000D01*
X134735000Y-113590000D02*
X132865000Y-113590000D01*
X134735000Y-117500000D02*
X134735000Y-113590000D01*
%TO.C,C28*%
X132460000Y-116007836D02*
X132460000Y-115792164D01*
X131740000Y-116007836D02*
X131740000Y-115792164D01*
%TO.C,C27*%
X139240000Y-101235000D02*
X143150000Y-101235000D01*
X139240000Y-99365000D02*
X139240000Y-101235000D01*
X143150000Y-99365000D02*
X139240000Y-99365000D01*
%TO.C,C25*%
X131838748Y-103235000D02*
X132361252Y-103235000D01*
X131838748Y-101765000D02*
X132361252Y-101765000D01*
%TO.C,C20*%
X144765000Y-117640000D02*
X144765000Y-121550000D01*
X146635000Y-117640000D02*
X144765000Y-117640000D01*
X146635000Y-121550000D02*
X146635000Y-117640000D01*
%TO.C,C19*%
X118435000Y-68261252D02*
X118435000Y-67738748D01*
X116965000Y-68261252D02*
X116965000Y-67738748D01*
%TO.C,C18*%
X116435000Y-70910000D02*
X116435000Y-67000000D01*
X114565000Y-70910000D02*
X116435000Y-70910000D01*
X114565000Y-67000000D02*
X114565000Y-70910000D01*
%TO.C,C5*%
X121165000Y-141338748D02*
X121165000Y-141861252D01*
X122635000Y-141338748D02*
X122635000Y-141861252D01*
%TO.C,C4*%
X123365000Y-141338748D02*
X123365000Y-141861252D01*
X124835000Y-141338748D02*
X124835000Y-141861252D01*
%TO.C,C2*%
X120840000Y-126292164D02*
X120840000Y-126507836D01*
X121560000Y-126292164D02*
X121560000Y-126507836D01*
%TO.C,R4*%
X131935000Y-74527064D02*
X131935000Y-74072936D01*
X130465000Y-74527064D02*
X130465000Y-74072936D01*
%TO.C,R6*%
X127735000Y-74527064D02*
X127735000Y-74072936D01*
X126265000Y-74527064D02*
X126265000Y-74072936D01*
%TO.C,R5*%
X129835000Y-74527064D02*
X129835000Y-74072936D01*
X128365000Y-74527064D02*
X128365000Y-74072936D01*
%TO.C,D4*%
X120760000Y-143460000D02*
X120760000Y-140600000D01*
X118840000Y-143460000D02*
X120760000Y-143460000D01*
X118840000Y-140600000D02*
X118840000Y-143460000D01*
%TO.C,J2*%
X132740000Y-153380000D02*
X132740000Y-145270000D01*
X132740000Y-153380000D02*
X132090000Y-153380000D01*
X132740000Y-138420000D02*
X146060000Y-138420000D01*
X132740000Y-138420000D02*
X132740000Y-141750000D01*
X146060000Y-138420000D02*
X146060000Y-141750000D01*
X146710000Y-153900000D02*
X146710000Y-153380000D01*
X132090000Y-153900000D02*
X146710000Y-153900000D01*
X146060000Y-145270000D02*
X146060000Y-153380000D01*
X132090000Y-153380000D02*
X132090000Y-153900000D01*
X146710000Y-153380000D02*
X146060000Y-153380000D01*
X135000000Y-138200000D02*
X136800000Y-138200000D01*
D14*
%TO.C,U3*%
X136875000Y-110350000D02*
X135275000Y-110350000D01*
X136875000Y-120425000D02*
X142625000Y-120425000D01*
X136875000Y-109775000D02*
X142625000Y-109775000D01*
X136875000Y-120425000D02*
X136875000Y-119775000D01*
X142625000Y-120425000D02*
X142625000Y-119775000D01*
X142625000Y-109775000D02*
X142625000Y-110425000D01*
X136875000Y-109775000D02*
X136875000Y-110350000D01*
D12*
%TO.C,U2*%
X118090000Y-139300000D02*
X118090000Y-133290000D01*
X124910000Y-137050000D02*
X124910000Y-133290000D01*
X118090000Y-133290000D02*
X119350000Y-133290000D01*
X124910000Y-133290000D02*
X123650000Y-133290000D01*
%TO.C,R41*%
X114980000Y-89753641D02*
X114980000Y-89446359D01*
X114220000Y-89753641D02*
X114220000Y-89446359D01*
%TO.C,R40*%
X116220000Y-89446359D02*
X116220000Y-89753641D01*
X116980000Y-89446359D02*
X116980000Y-89753641D01*
%TO.C,R39*%
X112220000Y-89436359D02*
X112220000Y-89743641D01*
X112980000Y-89436359D02*
X112980000Y-89743641D01*
%TO.C,R38*%
X116980000Y-80153641D02*
X116980000Y-79846359D01*
X116220000Y-80153641D02*
X116220000Y-79846359D01*
%TO.C,R37*%
X117220000Y-79846359D02*
X117220000Y-80153641D01*
X117980000Y-79846359D02*
X117980000Y-80153641D01*
%TO.C,R35*%
X129880000Y-89753641D02*
X129880000Y-89446359D01*
X129120000Y-89753641D02*
X129120000Y-89446359D01*
%TO.C,R34*%
X131120000Y-89446359D02*
X131120000Y-89753641D01*
X131880000Y-89446359D02*
X131880000Y-89753641D01*
%TO.C,R33*%
X127120000Y-89446359D02*
X127120000Y-89753641D01*
X127880000Y-89446359D02*
X127880000Y-89753641D01*
%TO.C,R32*%
X131880000Y-80153641D02*
X131880000Y-79846359D01*
X131120000Y-80153641D02*
X131120000Y-79846359D01*
%TO.C,R31*%
X132120000Y-79846359D02*
X132120000Y-80153641D01*
X132880000Y-79846359D02*
X132880000Y-80153641D01*
%TO.C,R29*%
X144780000Y-89753641D02*
X144780000Y-89446359D01*
X144020000Y-89753641D02*
X144020000Y-89446359D01*
%TO.C,R28*%
X146020000Y-89446359D02*
X146020000Y-89753641D01*
X146780000Y-89446359D02*
X146780000Y-89753641D01*
%TO.C,R27*%
X142020000Y-89446359D02*
X142020000Y-89753641D01*
X142780000Y-89446359D02*
X142780000Y-89753641D01*
%TO.C,R26*%
X146780000Y-80153641D02*
X146780000Y-79846359D01*
X146020000Y-80153641D02*
X146020000Y-79846359D01*
%TO.C,R25*%
X147020000Y-79846359D02*
X147020000Y-80153641D01*
X147780000Y-79846359D02*
X147780000Y-80153641D01*
%TO.C,R13*%
X118820000Y-108346359D02*
X118820000Y-108653641D01*
X119580000Y-108346359D02*
X119580000Y-108653641D01*
%TO.C,R9*%
X146780000Y-129653641D02*
X146780000Y-129346359D01*
X146020000Y-129653641D02*
X146020000Y-129346359D01*
%TO.C,R8*%
X146780000Y-133153641D02*
X146780000Y-132846359D01*
X146020000Y-133153641D02*
X146020000Y-132846359D01*
%TO.C,R2*%
X126320000Y-124246359D02*
X126320000Y-124553641D01*
X127080000Y-124246359D02*
X127080000Y-124553641D01*
%TO.C,R15*%
X116965000Y-71472936D02*
X116965000Y-71927064D01*
X118435000Y-71472936D02*
X118435000Y-71927064D01*
%TO.C,Q1*%
X126840000Y-142720000D02*
X128300000Y-142720000D01*
X126840000Y-145880000D02*
X129000000Y-145880000D01*
X126840000Y-145880000D02*
X126840000Y-144950000D01*
X126840000Y-142720000D02*
X126840000Y-143650000D01*
%TO.C,FB1*%
X126864758Y-142010000D02*
X128535242Y-142010000D01*
X126864758Y-140190000D02*
X128535242Y-140190000D01*
%TO.C,C42*%
X115960000Y-80087836D02*
X115960000Y-79872164D01*
X115240000Y-80087836D02*
X115240000Y-79872164D01*
%TO.C,C39*%
X130860000Y-80107836D02*
X130860000Y-79892164D01*
X130140000Y-80107836D02*
X130140000Y-79892164D01*
%TO.C,C36*%
X145760000Y-80107836D02*
X145760000Y-79892164D01*
X145040000Y-80107836D02*
X145040000Y-79892164D01*
%TO.C,C34*%
X131740000Y-111092164D02*
X131740000Y-111307836D01*
X132460000Y-111092164D02*
X132460000Y-111307836D01*
%TO.C,C33*%
X146635000Y-112110000D02*
X146635000Y-108200000D01*
X144765000Y-112110000D02*
X146635000Y-112110000D01*
X144765000Y-108200000D02*
X144765000Y-112110000D01*
%TO.C,C26*%
X148560000Y-99365000D02*
X144650000Y-99365000D01*
X148560000Y-101235000D02*
X148560000Y-99365000D01*
X144650000Y-101235000D02*
X148560000Y-101235000D01*
%TO.C,C24*%
X129190000Y-101235000D02*
X133100000Y-101235000D01*
X129190000Y-99365000D02*
X129190000Y-101235000D01*
X133100000Y-99365000D02*
X129190000Y-99365000D01*
%TO.C,C21*%
X147040000Y-118442164D02*
X147040000Y-118657836D01*
X147760000Y-118442164D02*
X147760000Y-118657836D01*
%TO.C,C23*%
X135961252Y-101765000D02*
X135438748Y-101765000D01*
X135961252Y-103235000D02*
X135438748Y-103235000D01*
%TO.C,C22*%
X138610000Y-99365000D02*
X134700000Y-99365000D01*
X138610000Y-101235000D02*
X138610000Y-99365000D01*
X134700000Y-101235000D02*
X138610000Y-101235000D01*
%TO.C,C17*%
X120610000Y-96590000D02*
X118260000Y-96590000D01*
X113790000Y-96590000D02*
X116140000Y-96590000D01*
X113790000Y-102345563D02*
X113790000Y-96590000D01*
X120610000Y-102345563D02*
X120610000Y-96590000D01*
X119545563Y-103410000D02*
X118260000Y-103410000D01*
X114854437Y-103410000D02*
X116140000Y-103410000D01*
X114854437Y-103410000D02*
X113790000Y-102345563D01*
X119545563Y-103410000D02*
X120610000Y-102345563D01*
X115352500Y-103167500D02*
X115352500Y-102380000D01*
X114958750Y-102773750D02*
X115746250Y-102773750D01*
%TO.C,C16*%
X127810000Y-96590000D02*
X125460000Y-96590000D01*
X120990000Y-96590000D02*
X123340000Y-96590000D01*
X120990000Y-102345563D02*
X120990000Y-96590000D01*
X127810000Y-102345563D02*
X127810000Y-96590000D01*
X126745563Y-103410000D02*
X125460000Y-103410000D01*
X122054437Y-103410000D02*
X123340000Y-103410000D01*
X122054437Y-103410000D02*
X120990000Y-102345563D01*
X126745563Y-103410000D02*
X127810000Y-102345563D01*
X122552500Y-103167500D02*
X122552500Y-102380000D01*
X122158750Y-102773750D02*
X122946250Y-102773750D01*
%TO.C,C15*%
X116392164Y-109360000D02*
X116607836Y-109360000D01*
X116392164Y-108640000D02*
X116607836Y-108640000D01*
%TO.C,C14*%
X126940000Y-112192164D02*
X126940000Y-112407836D01*
X127660000Y-112192164D02*
X127660000Y-112407836D01*
%TO.C,C13*%
X113060000Y-119907836D02*
X113060000Y-119692164D01*
X112340000Y-119907836D02*
X112340000Y-119692164D01*
%TO.C,C12*%
X126940000Y-119392164D02*
X126940000Y-119607836D01*
X127660000Y-119392164D02*
X127660000Y-119607836D01*
%TO.C,C11*%
X115440000Y-123992164D02*
X115440000Y-124207836D01*
X116160000Y-123992164D02*
X116160000Y-124207836D01*
%TO.C,C10*%
X125240000Y-124292164D02*
X125240000Y-124507836D01*
X125960000Y-124292164D02*
X125960000Y-124507836D01*
%TO.C,C9*%
X124140000Y-124292164D02*
X124140000Y-124507836D01*
X124860000Y-124292164D02*
X124860000Y-124507836D01*
%TO.C,C6*%
X128159420Y-114610000D02*
X128440580Y-114610000D01*
X128159420Y-113590000D02*
X128440580Y-113590000D01*
%TO.C,C1*%
X115440000Y-126292164D02*
X115440000Y-126507836D01*
X116160000Y-126292164D02*
X116160000Y-126507836D01*
%TD*%
M02*
