M48
; DRILL file {KiCad (5.1.8-0-10_14)} date Wednesday, March 24, 2021 at 11:51:28 AM
; FORMAT={3:3/ absolute / metric / suppress leading zeros}
; #@! TF.CreationDate,2021-03-24T11:51:28+01:00
; #@! TF.GenerationSoftware,Kicad,Pcbnew,(5.1.8-0-10_14)
FMAT,2
METRIC,TZ
T1C0.400
T2C0.500
T3C0.700
T4C0.900
T5C0.950
T6C1.000
T7C2.000
T8C2.300
T9C3.200
T10C0.762
%
G90
G05
T1
X102900Y-129500
X102900Y-142600
X104300Y-76300
X105894Y-76233
X107443Y-118558
X107500Y-88100
X107572Y-110511
X107601Y-111511
X107725Y-120600
X107777Y-133131
X107947Y-132145
X108000Y-113900
X108300Y-87300
X108450Y-119855
X108997Y-107362
X109000Y-59200
X109100Y-131100
X109175Y-120690
X109279Y-116471
X109300Y-132900
X109400Y-111500
X109744Y-108030
X109975Y-119932
X110000Y-59700
X110478Y-108709
X110717Y-120721
X111225Y-128469
X111263Y-112866
X111300Y-116486
X111600Y-134900
X111718Y-88465
X111722Y-113755
X111730Y-115041
X111800Y-119800
X112244Y-106438
X112496Y-114398
X112500Y-141500
X112593Y-87982
X112700Y-121200
X113305Y-110504
X113754Y-107807
X113871Y-120810
X113889Y-106811
X114100Y-111800
X114500Y-132800
X114600Y-109800
X114700Y-55800
X114700Y-79500
X114900Y-123600
X114900Y-124600
X114900Y-125900
X115400Y-76200
X115500Y-68595
X115580Y-88545
X115600Y-81800
X115675Y-118100
X115807Y-113500
X116003Y-108075
X116342Y-87897
X116400Y-140600
X116400Y-116300
X116433Y-112720
X117003Y-108075
X117200Y-114376
X117700Y-74000
X117901Y-65925
X118235Y-116690
X118279Y-119651
X118500Y-80500
X118685Y-120566
X118966Y-117425
X119000Y-132000
X119200Y-107100
X119200Y-136800
X119221Y-73575
X119800Y-65925
X120100Y-113875
X120200Y-107100
X120400Y-82400
X120606Y-120075
X120800Y-73500
X120921Y-112166
X121000Y-59000
X121000Y-114600
X121500Y-136800
X121537Y-120562
X121543Y-133575
X121584Y-108027
X121900Y-143700
X121978Y-126898
X122175Y-125900
X122278Y-117099
X122375Y-107200
X122566Y-119493
X122575Y-112175
X122576Y-120613
X122700Y-75000
X123300Y-107800
X123400Y-82400
X123401Y-116124
X123500Y-87200
X123528Y-108941
X123556Y-114570
X123625Y-125739
X123850Y-117050
X123998Y-132003
X124000Y-126900
X124100Y-143700
X124200Y-115399
X124303Y-129375
X125013Y-123315
X125079Y-59975
X125138Y-127072
X125298Y-129566
X125975Y-125625
X126300Y-60700
X126300Y-66400
X126500Y-88300
X126588Y-126831
X126600Y-120650
X126600Y-123000
X126600Y-145700
X127000Y-129175
X127100Y-55900
X127248Y-127690
X127300Y-117000
X127400Y-58100
X127450Y-110975
X127500Y-88300
X127700Y-123000
X127900Y-148100
X127903Y-120611
X128063Y-119035
X128683Y-119820
X129062Y-86772
X129225Y-113001
X129400Y-88100
X129443Y-124375
X129600Y-79500
X129600Y-145300
X129650Y-139005
X129683Y-119813
X129800Y-123400
X129903Y-116175
X130000Y-98600
X130000Y-102500
X130115Y-117725
X130500Y-81500
X130500Y-88100
X130675Y-118600
X130948Y-124180
X130988Y-123181
X131200Y-111700
X131300Y-139025
X131700Y-120600
X132100Y-109800
X132300Y-108400
X132400Y-89100
X132500Y-117300
X132700Y-60000
X133215Y-124306
X133390Y-80510
X133400Y-133200
X133500Y-137000
X133800Y-109800
X134279Y-124483
X134400Y-115900
X134450Y-133044
X134700Y-82100
X134700Y-87200
X134700Y-137000
X135097Y-122025
X136000Y-133300
X136000Y-137000
X136107Y-120125
X136700Y-103900
X137100Y-108300
X137300Y-133200
X137537Y-118773
X137600Y-73200
X137602Y-116568
X137625Y-114893
X137800Y-98100
X138006Y-117889
X138059Y-109466
X138500Y-133100
X138538Y-116031
X138600Y-137000
X138800Y-103900
X139200Y-113000
X139334Y-110005
X139500Y-56000
X139666Y-106832
X140000Y-98200
X140099Y-127775
X140162Y-117322
X140392Y-110082
X140425Y-116100
X140527Y-107341
X140625Y-89100
X141047Y-110843
X141338Y-115691
X141663Y-88058
X141736Y-114774
X141800Y-111600
X142000Y-103900
X142600Y-87500
X142800Y-65800
X143400Y-88207
X144200Y-108500
X144200Y-137900
X144400Y-88200
X144500Y-79500
X144751Y-114851
X145300Y-135100
X145500Y-130000
X145700Y-112500
X145900Y-87900
X146400Y-131600
X146400Y-135100
X146963Y-121433
X147233Y-123333
X147300Y-89100
X147400Y-109800
X147400Y-112600
X147400Y-119900
X147800Y-98200
X148390Y-80510
X150800Y-129500
X150800Y-133000
X150800Y-136500
X151200Y-123900
X153000Y-127700
X155600Y-127700
T2
X151600Y-58000
X152303Y-56303
X152303Y-59697
X154000Y-55600
X154000Y-60400
X155697Y-56303
X155697Y-59697
X156400Y-58000
X151600Y-148000
X152303Y-146303
X152303Y-149697
X154000Y-145600
X154000Y-150400
X155697Y-146303
X155697Y-149697
X156400Y-148000
X101600Y-58000
X102303Y-56303
X102303Y-59697
X104000Y-55600
X104000Y-60400
X105697Y-56303
X105697Y-59697
X106400Y-58000
X101600Y-148000
X102303Y-146303
X102303Y-149697
X104000Y-145600
X104000Y-150400
X105697Y-146303
X105697Y-149697
X106400Y-148000
T3
X117375Y-148700
X122225Y-148700
T4
X133800Y-68700
X133800Y-71240
X129000Y-68700
X129000Y-71240
X124200Y-68700
X124200Y-71240
T5
X135900Y-140800
X138400Y-140800
X140400Y-140800
X142900Y-140800
T6
X153000Y-123320
X153000Y-125860
X155540Y-123320
X155540Y-125860
X153000Y-103000
X153000Y-105540
X153000Y-108080
X153000Y-110620
X153000Y-113160
X153000Y-115700
X153000Y-118240
X153000Y-120780
X155540Y-103000
X155540Y-105540
X155540Y-108080
X155540Y-110620
X155540Y-113160
X155540Y-115700
X155540Y-118240
X155540Y-120780
X145600Y-67800
X145600Y-70340
X145600Y-72880
X148140Y-67800
X148140Y-70340
X148140Y-72880
X109860Y-67820
X109860Y-70360
X109860Y-72900
X112400Y-67820
X112400Y-70360
X112400Y-72900
X102460Y-103000
X102460Y-105540
X102460Y-108080
X102460Y-110620
X102460Y-113160
X102460Y-115700
X102460Y-118240
X102460Y-120780
X105000Y-103000
X105000Y-105540
X105000Y-108080
X105000Y-110620
X105000Y-113160
X105000Y-115700
X105000Y-118240
X105000Y-120780
X126500Y-77700
X126500Y-92200
X129000Y-92200
X131500Y-77700
X131500Y-92200
X111600Y-77700
X111600Y-92200
X114100Y-92200
X116600Y-77700
X116600Y-92200
X102460Y-123340
X102460Y-125880
X105000Y-123340
X105000Y-125880
X141400Y-77700
X141400Y-92200
X143900Y-92200
X146400Y-77700
X146400Y-92200
T8
X132830Y-143510
X145970Y-143510
T9
X154000Y-58000
X154000Y-148000
X104000Y-58000
X104000Y-148000
T10
X101000Y-131050
X101000Y-139050
X117000Y-63600
X129500Y-63600
X142000Y-63600
T2
G00X116200Y-151750
M15
G01X116200Y-150950
M16
G05
G00X123400Y-151750
M15
G01X123400Y-150950
M16
G05
T7
G00X123400Y-84950
M15
G01X123400Y-84450
M16
G05
G00X134600Y-84950
M15
G01X134600Y-84450
M16
G05
G00X108500Y-84950
M15
G01X108500Y-84450
M16
G05
G00X119700Y-84950
M15
G01X119700Y-84450
M16
G05
G00X138300Y-84950
M15
G01X138300Y-84450
M16
G05
G00X149500Y-84950
M15
G01X149500Y-84450
M16
G05
T0
M30
