%TF.GenerationSoftware,KiCad,Pcbnew,(5.1.8-0-10_14)*%
%TF.CreationDate,2021-03-24T11:52:58+01:00*%
%TF.ProjectId,KLST_TINY,4b4c5354-5f54-4494-9e59-2e6b69636164,0.1*%
%TF.SameCoordinates,Original*%
%TF.FileFunction,Legend,Bot*%
%TF.FilePolarity,Positive*%
%FSLAX46Y46*%
G04 Gerber Fmt 4.6, Leading zero omitted, Abs format (unit mm)*
G04 Created by KiCad (PCBNEW (5.1.8-0-10_14)) date 2021-03-24 11:52:58*
%MOMM*%
%LPD*%
G01*
G04 APERTURE LIST*
%ADD10C,0.120000*%
%ADD11C,0.100000*%
%ADD12C,0.010000*%
G04 APERTURE END LIST*
D10*
X149700000Y-122200000D02*
X150000000Y-122200000D01*
X149700000Y-126900000D02*
X150000000Y-126900000D01*
X149700000Y-126900000D02*
X149700000Y-122200000D01*
D11*
X149156428Y-123639285D02*
X149156428Y-122889285D01*
X148870714Y-122889285D01*
X148799285Y-122925000D01*
X148763571Y-122960714D01*
X148727857Y-123032142D01*
X148727857Y-123139285D01*
X148763571Y-123210714D01*
X148799285Y-123246428D01*
X148870714Y-123282142D01*
X149156428Y-123282142D01*
X148477857Y-122889285D02*
X148299285Y-123639285D01*
X148156428Y-123103571D01*
X148013571Y-123639285D01*
X147835000Y-122889285D01*
X147120714Y-123639285D02*
X147370714Y-123282142D01*
X147549285Y-123639285D02*
X147549285Y-122889285D01*
X147263571Y-122889285D01*
X147192142Y-122925000D01*
X147156428Y-122960714D01*
X147120714Y-123032142D01*
X147120714Y-123139285D01*
X147156428Y-123210714D01*
X147192142Y-123246428D01*
X147263571Y-123282142D01*
X147549285Y-123282142D01*
X157412619Y-123026190D02*
X157650714Y-123026190D01*
X157674523Y-123264285D01*
X157650714Y-123240476D01*
X157603095Y-123216666D01*
X157484047Y-123216666D01*
X157436428Y-123240476D01*
X157412619Y-123264285D01*
X157388809Y-123311904D01*
X157388809Y-123430952D01*
X157412619Y-123478571D01*
X157436428Y-123502380D01*
X157484047Y-123526190D01*
X157603095Y-123526190D01*
X157650714Y-123502380D01*
X157674523Y-123478571D01*
X157245952Y-123026190D02*
X157079285Y-123526190D01*
X156912619Y-123026190D01*
X151254047Y-123050000D02*
X151301666Y-123026190D01*
X151373095Y-123026190D01*
X151444523Y-123050000D01*
X151492142Y-123097619D01*
X151515952Y-123145238D01*
X151539761Y-123240476D01*
X151539761Y-123311904D01*
X151515952Y-123407142D01*
X151492142Y-123454761D01*
X151444523Y-123502380D01*
X151373095Y-123526190D01*
X151325476Y-123526190D01*
X151254047Y-123502380D01*
X151230238Y-123478571D01*
X151230238Y-123311904D01*
X151325476Y-123311904D01*
X151015952Y-123526190D02*
X151015952Y-123026190D01*
X150730238Y-123526190D01*
X150730238Y-123026190D01*
X150492142Y-123526190D02*
X150492142Y-123026190D01*
X150373095Y-123026190D01*
X150301666Y-123050000D01*
X150254047Y-123097619D01*
X150230238Y-123145238D01*
X150206428Y-123240476D01*
X150206428Y-123311904D01*
X150230238Y-123407142D01*
X150254047Y-123454761D01*
X150301666Y-123502380D01*
X150373095Y-123526190D01*
X150492142Y-123526190D01*
X158174523Y-125526190D02*
X157865000Y-125526190D01*
X158031666Y-125716666D01*
X157960238Y-125716666D01*
X157912619Y-125740476D01*
X157888809Y-125764285D01*
X157865000Y-125811904D01*
X157865000Y-125930952D01*
X157888809Y-125978571D01*
X157912619Y-126002380D01*
X157960238Y-126026190D01*
X158103095Y-126026190D01*
X158150714Y-126002380D01*
X158174523Y-125978571D01*
X157722142Y-125526190D02*
X157555476Y-126026190D01*
X157388809Y-125526190D01*
X157269761Y-125526190D02*
X156960238Y-125526190D01*
X157126904Y-125716666D01*
X157055476Y-125716666D01*
X157007857Y-125740476D01*
X156984047Y-125764285D01*
X156960238Y-125811904D01*
X156960238Y-125930952D01*
X156984047Y-125978571D01*
X157007857Y-126002380D01*
X157055476Y-126026190D01*
X157198333Y-126026190D01*
X157245952Y-126002380D01*
X157269761Y-125978571D01*
X151254047Y-125550000D02*
X151301666Y-125526190D01*
X151373095Y-125526190D01*
X151444523Y-125550000D01*
X151492142Y-125597619D01*
X151515952Y-125645238D01*
X151539761Y-125740476D01*
X151539761Y-125811904D01*
X151515952Y-125907142D01*
X151492142Y-125954761D01*
X151444523Y-126002380D01*
X151373095Y-126026190D01*
X151325476Y-126026190D01*
X151254047Y-126002380D01*
X151230238Y-125978571D01*
X151230238Y-125811904D01*
X151325476Y-125811904D01*
X151015952Y-126026190D02*
X151015952Y-125526190D01*
X150730238Y-126026190D01*
X150730238Y-125526190D01*
X150492142Y-126026190D02*
X150492142Y-125526190D01*
X150373095Y-125526190D01*
X150301666Y-125550000D01*
X150254047Y-125597619D01*
X150230238Y-125645238D01*
X150206428Y-125740476D01*
X150206428Y-125811904D01*
X150230238Y-125907142D01*
X150254047Y-125954761D01*
X150301666Y-126002380D01*
X150373095Y-126026190D01*
X150492142Y-126026190D01*
D10*
X108300000Y-124400000D02*
X108000000Y-124400000D01*
X108300000Y-124800000D02*
X108000000Y-124800000D01*
D11*
X112022142Y-125389285D02*
X111879285Y-125389285D01*
X111807857Y-125425000D01*
X111736428Y-125496428D01*
X111700714Y-125639285D01*
X111700714Y-125889285D01*
X111736428Y-126032142D01*
X111807857Y-126103571D01*
X111879285Y-126139285D01*
X112022142Y-126139285D01*
X112093571Y-126103571D01*
X112165000Y-126032142D01*
X112200714Y-125889285D01*
X112200714Y-125639285D01*
X112165000Y-125496428D01*
X112093571Y-125425000D01*
X112022142Y-125389285D01*
X111379285Y-125389285D02*
X111379285Y-125996428D01*
X111343571Y-126067857D01*
X111307857Y-126103571D01*
X111236428Y-126139285D01*
X111093571Y-126139285D01*
X111022142Y-126103571D01*
X110986428Y-126067857D01*
X110950714Y-125996428D01*
X110950714Y-125389285D01*
X110593571Y-126139285D02*
X110593571Y-125389285D01*
X110307857Y-125389285D01*
X110236428Y-125425000D01*
X110200714Y-125460714D01*
X110165000Y-125532142D01*
X110165000Y-125639285D01*
X110200714Y-125710714D01*
X110236428Y-125746428D01*
X110307857Y-125782142D01*
X110593571Y-125782142D01*
X109843571Y-125389285D02*
X109843571Y-125996428D01*
X109807857Y-126067857D01*
X109772142Y-126103571D01*
X109700714Y-126139285D01*
X109557857Y-126139285D01*
X109486428Y-126103571D01*
X109450714Y-126067857D01*
X109415000Y-125996428D01*
X109415000Y-125389285D01*
X109165000Y-125389285D02*
X108736428Y-125389285D01*
X108950714Y-126139285D02*
X108950714Y-125389285D01*
X100730238Y-123526190D02*
X100896904Y-123288095D01*
X101015952Y-123526190D02*
X101015952Y-123026190D01*
X100825476Y-123026190D01*
X100777857Y-123050000D01*
X100754047Y-123073809D01*
X100730238Y-123121428D01*
X100730238Y-123192857D01*
X100754047Y-123240476D01*
X100777857Y-123264285D01*
X100825476Y-123288095D01*
X101015952Y-123288095D01*
X100730238Y-126126190D02*
X100896904Y-125888095D01*
X101015952Y-126126190D02*
X101015952Y-125626190D01*
X100825476Y-125626190D01*
X100777857Y-125650000D01*
X100754047Y-125673809D01*
X100730238Y-125721428D01*
X100730238Y-125792857D01*
X100754047Y-125840476D01*
X100777857Y-125864285D01*
X100825476Y-125888095D01*
X101015952Y-125888095D01*
X111736428Y-123639285D02*
X111736428Y-122889285D01*
X111379285Y-123639285D02*
X111379285Y-122889285D01*
X110950714Y-123639285D01*
X110950714Y-122889285D01*
X110593571Y-123639285D02*
X110593571Y-122889285D01*
X110307857Y-122889285D01*
X110236428Y-122925000D01*
X110200714Y-122960714D01*
X110165000Y-123032142D01*
X110165000Y-123139285D01*
X110200714Y-123210714D01*
X110236428Y-123246428D01*
X110307857Y-123282142D01*
X110593571Y-123282142D01*
X109843571Y-122889285D02*
X109843571Y-123496428D01*
X109807857Y-123567857D01*
X109772142Y-123603571D01*
X109700714Y-123639285D01*
X109557857Y-123639285D01*
X109486428Y-123603571D01*
X109450714Y-123567857D01*
X109415000Y-123496428D01*
X109415000Y-122889285D01*
X109165000Y-122889285D02*
X108736428Y-122889285D01*
X108950714Y-123639285D02*
X108950714Y-122889285D01*
X106412619Y-126126190D02*
X106650714Y-126126190D01*
X106650714Y-125626190D01*
X106412619Y-123626190D02*
X106650714Y-123626190D01*
X106650714Y-123126190D01*
D10*
X108300000Y-126900000D02*
X108000000Y-126900000D01*
X108300000Y-124800000D02*
X108300000Y-126900000D01*
X108300000Y-122300000D02*
X108000000Y-122300000D01*
X108300000Y-122300000D02*
X108300000Y-124400000D01*
D11*
X110061904Y-65826190D02*
X110014285Y-65826190D01*
X109966666Y-65850000D01*
X109942857Y-65873809D01*
X109919047Y-65921428D01*
X109895238Y-66016666D01*
X109895238Y-66135714D01*
X109919047Y-66230952D01*
X109942857Y-66278571D01*
X109966666Y-66302380D01*
X110014285Y-66326190D01*
X110061904Y-66326190D01*
X110109523Y-66302380D01*
X110133333Y-66278571D01*
X110157142Y-66230952D01*
X110180952Y-66135714D01*
X110180952Y-66016666D01*
X110157142Y-65921428D01*
X110133333Y-65873809D01*
X110109523Y-65850000D01*
X110061904Y-65826190D01*
X109419047Y-66326190D02*
X109704761Y-66326190D01*
X109561904Y-66326190D02*
X109561904Y-65826190D01*
X109609523Y-65897619D01*
X109657142Y-65945238D01*
X109704761Y-65969047D01*
X148361904Y-65826190D02*
X148314285Y-65826190D01*
X148266666Y-65850000D01*
X148242857Y-65873809D01*
X148219047Y-65921428D01*
X148195238Y-66016666D01*
X148195238Y-66135714D01*
X148219047Y-66230952D01*
X148242857Y-66278571D01*
X148266666Y-66302380D01*
X148314285Y-66326190D01*
X148361904Y-66326190D01*
X148409523Y-66302380D01*
X148433333Y-66278571D01*
X148457142Y-66230952D01*
X148480952Y-66135714D01*
X148480952Y-66016666D01*
X148457142Y-65921428D01*
X148433333Y-65873809D01*
X148409523Y-65850000D01*
X148361904Y-65826190D01*
X147885714Y-65826190D02*
X147838095Y-65826190D01*
X147790476Y-65850000D01*
X147766666Y-65873809D01*
X147742857Y-65921428D01*
X147719047Y-66016666D01*
X147719047Y-66135714D01*
X147742857Y-66230952D01*
X147766666Y-66278571D01*
X147790476Y-66302380D01*
X147838095Y-66326190D01*
X147885714Y-66326190D01*
X147933333Y-66302380D01*
X147957142Y-66278571D01*
X147980952Y-66230952D01*
X148004761Y-66135714D01*
X148004761Y-66016666D01*
X147980952Y-65921428D01*
X147957142Y-65873809D01*
X147933333Y-65850000D01*
X147885714Y-65826190D01*
X108354047Y-70150000D02*
X108401666Y-70126190D01*
X108473095Y-70126190D01*
X108544523Y-70150000D01*
X108592142Y-70197619D01*
X108615952Y-70245238D01*
X108639761Y-70340476D01*
X108639761Y-70411904D01*
X108615952Y-70507142D01*
X108592142Y-70554761D01*
X108544523Y-70602380D01*
X108473095Y-70626190D01*
X108425476Y-70626190D01*
X108354047Y-70602380D01*
X108330238Y-70578571D01*
X108330238Y-70411904D01*
X108425476Y-70411904D01*
X108115952Y-70626190D02*
X108115952Y-70126190D01*
X107830238Y-70626190D01*
X107830238Y-70126190D01*
X107592142Y-70626190D02*
X107592142Y-70126190D01*
X107473095Y-70126190D01*
X107401666Y-70150000D01*
X107354047Y-70197619D01*
X107330238Y-70245238D01*
X107306428Y-70340476D01*
X107306428Y-70411904D01*
X107330238Y-70507142D01*
X107354047Y-70554761D01*
X107401666Y-70602380D01*
X107473095Y-70626190D01*
X107592142Y-70626190D01*
X150407857Y-70150000D02*
X150455476Y-70126190D01*
X150526904Y-70126190D01*
X150598333Y-70150000D01*
X150645952Y-70197619D01*
X150669761Y-70245238D01*
X150693571Y-70340476D01*
X150693571Y-70411904D01*
X150669761Y-70507142D01*
X150645952Y-70554761D01*
X150598333Y-70602380D01*
X150526904Y-70626190D01*
X150479285Y-70626190D01*
X150407857Y-70602380D01*
X150384047Y-70578571D01*
X150384047Y-70411904D01*
X150479285Y-70411904D01*
X150169761Y-70626190D02*
X150169761Y-70126190D01*
X149884047Y-70626190D01*
X149884047Y-70126190D01*
X149645952Y-70626190D02*
X149645952Y-70126190D01*
X149526904Y-70126190D01*
X149455476Y-70150000D01*
X149407857Y-70197619D01*
X149384047Y-70245238D01*
X149360238Y-70340476D01*
X149360238Y-70411904D01*
X149384047Y-70507142D01*
X149407857Y-70554761D01*
X149455476Y-70602380D01*
X149526904Y-70626190D01*
X149645952Y-70626190D01*
X102761904Y-101026190D02*
X102714285Y-101026190D01*
X102666666Y-101050000D01*
X102642857Y-101073809D01*
X102619047Y-101121428D01*
X102595238Y-101216666D01*
X102595238Y-101335714D01*
X102619047Y-101430952D01*
X102642857Y-101478571D01*
X102666666Y-101502380D01*
X102714285Y-101526190D01*
X102761904Y-101526190D01*
X102809523Y-101502380D01*
X102833333Y-101478571D01*
X102857142Y-101430952D01*
X102880952Y-101335714D01*
X102880952Y-101216666D01*
X102857142Y-101121428D01*
X102833333Y-101073809D01*
X102809523Y-101050000D01*
X102761904Y-101026190D01*
X102119047Y-101526190D02*
X102404761Y-101526190D01*
X102261904Y-101526190D02*
X102261904Y-101026190D01*
X102309523Y-101097619D01*
X102357142Y-101145238D01*
X102404761Y-101169047D01*
X112172142Y-103303571D02*
X112065000Y-103339285D01*
X111886428Y-103339285D01*
X111815000Y-103303571D01*
X111779285Y-103267857D01*
X111743571Y-103196428D01*
X111743571Y-103125000D01*
X111779285Y-103053571D01*
X111815000Y-103017857D01*
X111886428Y-102982142D01*
X112029285Y-102946428D01*
X112100714Y-102910714D01*
X112136428Y-102875000D01*
X112172142Y-102803571D01*
X112172142Y-102732142D01*
X112136428Y-102660714D01*
X112100714Y-102625000D01*
X112029285Y-102589285D01*
X111850714Y-102589285D01*
X111743571Y-102625000D01*
X111422142Y-102946428D02*
X111172142Y-102946428D01*
X111065000Y-103339285D02*
X111422142Y-103339285D01*
X111422142Y-102589285D01*
X111065000Y-102589285D01*
X110315000Y-103339285D02*
X110565000Y-102982142D01*
X110743571Y-103339285D02*
X110743571Y-102589285D01*
X110457857Y-102589285D01*
X110386428Y-102625000D01*
X110350714Y-102660714D01*
X110315000Y-102732142D01*
X110315000Y-102839285D01*
X110350714Y-102910714D01*
X110386428Y-102946428D01*
X110457857Y-102982142D01*
X110743571Y-102982142D01*
X109993571Y-103339285D02*
X109993571Y-102589285D01*
X109672142Y-103125000D02*
X109315000Y-103125000D01*
X109743571Y-103339285D02*
X109493571Y-102589285D01*
X109243571Y-103339285D01*
X108636428Y-103339285D02*
X108993571Y-103339285D01*
X108993571Y-102589285D01*
D10*
X108300000Y-109200000D02*
X108000000Y-109200000D01*
X108300000Y-101900000D02*
X108300000Y-109200000D01*
X108300000Y-101900000D02*
X108000000Y-101900000D01*
D11*
X105261904Y-101026190D02*
X105214285Y-101026190D01*
X105166666Y-101050000D01*
X105142857Y-101073809D01*
X105119047Y-101121428D01*
X105095238Y-101216666D01*
X105095238Y-101335714D01*
X105119047Y-101430952D01*
X105142857Y-101478571D01*
X105166666Y-101502380D01*
X105214285Y-101526190D01*
X105261904Y-101526190D01*
X105309523Y-101502380D01*
X105333333Y-101478571D01*
X105357142Y-101430952D01*
X105380952Y-101335714D01*
X105380952Y-101216666D01*
X105357142Y-101121428D01*
X105333333Y-101073809D01*
X105309523Y-101050000D01*
X105261904Y-101026190D01*
X104785714Y-101026190D02*
X104738095Y-101026190D01*
X104690476Y-101050000D01*
X104666666Y-101073809D01*
X104642857Y-101121428D01*
X104619047Y-101216666D01*
X104619047Y-101335714D01*
X104642857Y-101430952D01*
X104666666Y-101478571D01*
X104690476Y-101502380D01*
X104738095Y-101526190D01*
X104785714Y-101526190D01*
X104833333Y-101502380D01*
X104857142Y-101478571D01*
X104880952Y-101430952D01*
X104904761Y-101335714D01*
X104904761Y-101216666D01*
X104880952Y-101121428D01*
X104857142Y-101073809D01*
X104833333Y-101050000D01*
X104785714Y-101026190D01*
X107507857Y-105250000D02*
X107555476Y-105226190D01*
X107626904Y-105226190D01*
X107698333Y-105250000D01*
X107745952Y-105297619D01*
X107769761Y-105345238D01*
X107793571Y-105440476D01*
X107793571Y-105511904D01*
X107769761Y-105607142D01*
X107745952Y-105654761D01*
X107698333Y-105702380D01*
X107626904Y-105726190D01*
X107579285Y-105726190D01*
X107507857Y-105702380D01*
X107484047Y-105678571D01*
X107484047Y-105511904D01*
X107579285Y-105511904D01*
X107269761Y-105726190D02*
X107269761Y-105226190D01*
X106984047Y-105726190D01*
X106984047Y-105226190D01*
X106745952Y-105726190D02*
X106745952Y-105226190D01*
X106626904Y-105226190D01*
X106555476Y-105250000D01*
X106507857Y-105297619D01*
X106484047Y-105345238D01*
X106460238Y-105440476D01*
X106460238Y-105511904D01*
X106484047Y-105607142D01*
X106507857Y-105654761D01*
X106555476Y-105702380D01*
X106626904Y-105726190D01*
X106745952Y-105726190D01*
X106936428Y-103226190D02*
X107103095Y-102988095D01*
X107222142Y-103226190D02*
X107222142Y-102726190D01*
X107031666Y-102726190D01*
X106984047Y-102750000D01*
X106960238Y-102773809D01*
X106936428Y-102821428D01*
X106936428Y-102892857D01*
X106960238Y-102940476D01*
X106984047Y-102964285D01*
X107031666Y-102988095D01*
X107222142Y-102988095D01*
X106769761Y-102726190D02*
X106436428Y-103226190D01*
X106436428Y-102726190D02*
X106769761Y-103226190D01*
X100754047Y-105250000D02*
X100801666Y-105226190D01*
X100873095Y-105226190D01*
X100944523Y-105250000D01*
X100992142Y-105297619D01*
X101015952Y-105345238D01*
X101039761Y-105440476D01*
X101039761Y-105511904D01*
X101015952Y-105607142D01*
X100992142Y-105654761D01*
X100944523Y-105702380D01*
X100873095Y-105726190D01*
X100825476Y-105726190D01*
X100754047Y-105702380D01*
X100730238Y-105678571D01*
X100730238Y-105511904D01*
X100825476Y-105511904D01*
X100515952Y-105726190D02*
X100515952Y-105226190D01*
X100230238Y-105726190D01*
X100230238Y-105226190D01*
X99992142Y-105726190D02*
X99992142Y-105226190D01*
X99873095Y-105226190D01*
X99801666Y-105250000D01*
X99754047Y-105297619D01*
X99730238Y-105345238D01*
X99706428Y-105440476D01*
X99706428Y-105511904D01*
X99730238Y-105607142D01*
X99754047Y-105654761D01*
X99801666Y-105702380D01*
X99873095Y-105726190D01*
X99992142Y-105726190D01*
X100730238Y-103226190D02*
X100896904Y-102988095D01*
X101015952Y-103226190D02*
X101015952Y-102726190D01*
X100825476Y-102726190D01*
X100777857Y-102750000D01*
X100754047Y-102773809D01*
X100730238Y-102821428D01*
X100730238Y-102892857D01*
X100754047Y-102940476D01*
X100777857Y-102964285D01*
X100825476Y-102988095D01*
X101015952Y-102988095D01*
X100563571Y-102726190D02*
X100230238Y-103226190D01*
X100230238Y-102726190D02*
X100563571Y-103226190D01*
X107174523Y-107826190D02*
X106888809Y-107826190D01*
X107031666Y-108326190D02*
X107031666Y-107826190D01*
X106769761Y-107826190D02*
X106436428Y-108326190D01*
X106436428Y-107826190D02*
X106769761Y-108326190D01*
X101087380Y-107826190D02*
X100801666Y-107826190D01*
X100944523Y-108326190D02*
X100944523Y-107826190D01*
X100682619Y-107826190D02*
X100349285Y-108326190D01*
X100349285Y-107826190D02*
X100682619Y-108326190D01*
X144363571Y-70126190D02*
X144054047Y-70126190D01*
X144220714Y-70316666D01*
X144149285Y-70316666D01*
X144101666Y-70340476D01*
X144077857Y-70364285D01*
X144054047Y-70411904D01*
X144054047Y-70530952D01*
X144077857Y-70578571D01*
X144101666Y-70602380D01*
X144149285Y-70626190D01*
X144292142Y-70626190D01*
X144339761Y-70602380D01*
X144363571Y-70578571D01*
X143911190Y-70126190D02*
X143744523Y-70626190D01*
X143577857Y-70126190D01*
X143458809Y-70126190D02*
X143149285Y-70126190D01*
X143315952Y-70316666D01*
X143244523Y-70316666D01*
X143196904Y-70340476D01*
X143173095Y-70364285D01*
X143149285Y-70411904D01*
X143149285Y-70530952D01*
X143173095Y-70578571D01*
X143196904Y-70602380D01*
X143244523Y-70626190D01*
X143387380Y-70626190D01*
X143435000Y-70602380D01*
X143458809Y-70578571D01*
X144054047Y-72650000D02*
X144101666Y-72626190D01*
X144173095Y-72626190D01*
X144244523Y-72650000D01*
X144292142Y-72697619D01*
X144315952Y-72745238D01*
X144339761Y-72840476D01*
X144339761Y-72911904D01*
X144315952Y-73007142D01*
X144292142Y-73054761D01*
X144244523Y-73102380D01*
X144173095Y-73126190D01*
X144125476Y-73126190D01*
X144054047Y-73102380D01*
X144030238Y-73078571D01*
X144030238Y-72911904D01*
X144125476Y-72911904D01*
X143815952Y-73126190D02*
X143815952Y-72626190D01*
X143530238Y-73126190D01*
X143530238Y-72626190D01*
X143292142Y-73126190D02*
X143292142Y-72626190D01*
X143173095Y-72626190D01*
X143101666Y-72650000D01*
X143054047Y-72697619D01*
X143030238Y-72745238D01*
X143006428Y-72840476D01*
X143006428Y-72911904D01*
X143030238Y-73007142D01*
X143054047Y-73054761D01*
X143101666Y-73102380D01*
X143173095Y-73126190D01*
X143292142Y-73126190D01*
X144054047Y-67550000D02*
X144101666Y-67526190D01*
X144173095Y-67526190D01*
X144244523Y-67550000D01*
X144292142Y-67597619D01*
X144315952Y-67645238D01*
X144339761Y-67740476D01*
X144339761Y-67811904D01*
X144315952Y-67907142D01*
X144292142Y-67954761D01*
X144244523Y-68002380D01*
X144173095Y-68026190D01*
X144125476Y-68026190D01*
X144054047Y-68002380D01*
X144030238Y-67978571D01*
X144030238Y-67811904D01*
X144125476Y-67811904D01*
X143815952Y-68026190D02*
X143815952Y-67526190D01*
X143530238Y-68026190D01*
X143530238Y-67526190D01*
X143292142Y-68026190D02*
X143292142Y-67526190D01*
X143173095Y-67526190D01*
X143101666Y-67550000D01*
X143054047Y-67597619D01*
X143030238Y-67645238D01*
X143006428Y-67740476D01*
X143006428Y-67811904D01*
X143030238Y-67907142D01*
X143054047Y-67954761D01*
X143101666Y-68002380D01*
X143173095Y-68026190D01*
X143292142Y-68026190D01*
X108330238Y-68026190D02*
X108496904Y-67788095D01*
X108615952Y-68026190D02*
X108615952Y-67526190D01*
X108425476Y-67526190D01*
X108377857Y-67550000D01*
X108354047Y-67573809D01*
X108330238Y-67621428D01*
X108330238Y-67692857D01*
X108354047Y-67740476D01*
X108377857Y-67764285D01*
X108425476Y-67788095D01*
X108615952Y-67788095D01*
X108163571Y-67526190D02*
X107830238Y-68026190D01*
X107830238Y-67526190D02*
X108163571Y-68026190D01*
X108687380Y-72626190D02*
X108401666Y-72626190D01*
X108544523Y-73126190D02*
X108544523Y-72626190D01*
X108282619Y-72626190D02*
X107949285Y-73126190D01*
X107949285Y-72626190D02*
X108282619Y-73126190D01*
D10*
X106600000Y-66800000D02*
X106900000Y-66800000D01*
X106600000Y-74000000D02*
X106600000Y-66800000D01*
X106600000Y-74000000D02*
X106900000Y-74000000D01*
D11*
X106092142Y-68203571D02*
X105985000Y-68239285D01*
X105806428Y-68239285D01*
X105735000Y-68203571D01*
X105699285Y-68167857D01*
X105663571Y-68096428D01*
X105663571Y-68025000D01*
X105699285Y-67953571D01*
X105735000Y-67917857D01*
X105806428Y-67882142D01*
X105949285Y-67846428D01*
X106020714Y-67810714D01*
X106056428Y-67775000D01*
X106092142Y-67703571D01*
X106092142Y-67632142D01*
X106056428Y-67560714D01*
X106020714Y-67525000D01*
X105949285Y-67489285D01*
X105770714Y-67489285D01*
X105663571Y-67525000D01*
X105342142Y-67846428D02*
X105092142Y-67846428D01*
X104985000Y-68239285D02*
X105342142Y-68239285D01*
X105342142Y-67489285D01*
X104985000Y-67489285D01*
X104235000Y-68239285D02*
X104485000Y-67882142D01*
X104663571Y-68239285D02*
X104663571Y-67489285D01*
X104377857Y-67489285D01*
X104306428Y-67525000D01*
X104270714Y-67560714D01*
X104235000Y-67632142D01*
X104235000Y-67739285D01*
X104270714Y-67810714D01*
X104306428Y-67846428D01*
X104377857Y-67882142D01*
X104663571Y-67882142D01*
X103913571Y-68239285D02*
X103913571Y-67489285D01*
X103592142Y-68025000D02*
X103235000Y-68025000D01*
X103663571Y-68239285D02*
X103413571Y-67489285D01*
X103163571Y-68239285D01*
X102556428Y-68239285D02*
X102913571Y-68239285D01*
X102913571Y-67489285D01*
X150074523Y-67526190D02*
X149788809Y-67526190D01*
X149931666Y-68026190D02*
X149931666Y-67526190D01*
X149669761Y-67526190D02*
X149336428Y-68026190D01*
X149336428Y-67526190D02*
X149669761Y-68026190D01*
X149836428Y-73126190D02*
X150003095Y-72888095D01*
X150122142Y-73126190D02*
X150122142Y-72626190D01*
X149931666Y-72626190D01*
X149884047Y-72650000D01*
X149860238Y-72673809D01*
X149836428Y-72721428D01*
X149836428Y-72792857D01*
X149860238Y-72840476D01*
X149884047Y-72864285D01*
X149931666Y-72888095D01*
X150122142Y-72888095D01*
X149669761Y-72626190D02*
X149336428Y-73126190D01*
X149336428Y-72626190D02*
X149669761Y-73126190D01*
D10*
X151400000Y-74000000D02*
X151100000Y-74000000D01*
X151400000Y-66800000D02*
X151400000Y-74000000D01*
X151400000Y-66800000D02*
X151100000Y-66800000D01*
D11*
X114707857Y-67550000D02*
X114755476Y-67526190D01*
X114826904Y-67526190D01*
X114898333Y-67550000D01*
X114945952Y-67597619D01*
X114969761Y-67645238D01*
X114993571Y-67740476D01*
X114993571Y-67811904D01*
X114969761Y-67907142D01*
X114945952Y-67954761D01*
X114898333Y-68002380D01*
X114826904Y-68026190D01*
X114779285Y-68026190D01*
X114707857Y-68002380D01*
X114684047Y-67978571D01*
X114684047Y-67811904D01*
X114779285Y-67811904D01*
X114469761Y-68026190D02*
X114469761Y-67526190D01*
X114184047Y-68026190D01*
X114184047Y-67526190D01*
X113945952Y-68026190D02*
X113945952Y-67526190D01*
X113826904Y-67526190D01*
X113755476Y-67550000D01*
X113707857Y-67597619D01*
X113684047Y-67645238D01*
X113660238Y-67740476D01*
X113660238Y-67811904D01*
X113684047Y-67907142D01*
X113707857Y-67954761D01*
X113755476Y-68002380D01*
X113826904Y-68026190D01*
X113945952Y-68026190D01*
X114707857Y-72650000D02*
X114755476Y-72626190D01*
X114826904Y-72626190D01*
X114898333Y-72650000D01*
X114945952Y-72697619D01*
X114969761Y-72745238D01*
X114993571Y-72840476D01*
X114993571Y-72911904D01*
X114969761Y-73007142D01*
X114945952Y-73054761D01*
X114898333Y-73102380D01*
X114826904Y-73126190D01*
X114779285Y-73126190D01*
X114707857Y-73102380D01*
X114684047Y-73078571D01*
X114684047Y-72911904D01*
X114779285Y-72911904D01*
X114469761Y-73126190D02*
X114469761Y-72626190D01*
X114184047Y-73126190D01*
X114184047Y-72626190D01*
X113945952Y-73126190D02*
X113945952Y-72626190D01*
X113826904Y-72626190D01*
X113755476Y-72650000D01*
X113707857Y-72697619D01*
X113684047Y-72745238D01*
X113660238Y-72840476D01*
X113660238Y-72911904D01*
X113684047Y-73007142D01*
X113707857Y-73054761D01*
X113755476Y-73102380D01*
X113826904Y-73126190D01*
X113945952Y-73126190D01*
X114874523Y-70126190D02*
X114565000Y-70126190D01*
X114731666Y-70316666D01*
X114660238Y-70316666D01*
X114612619Y-70340476D01*
X114588809Y-70364285D01*
X114565000Y-70411904D01*
X114565000Y-70530952D01*
X114588809Y-70578571D01*
X114612619Y-70602380D01*
X114660238Y-70626190D01*
X114803095Y-70626190D01*
X114850714Y-70602380D01*
X114874523Y-70578571D01*
X114422142Y-70126190D02*
X114255476Y-70626190D01*
X114088809Y-70126190D01*
X113969761Y-70126190D02*
X113660238Y-70126190D01*
X113826904Y-70316666D01*
X113755476Y-70316666D01*
X113707857Y-70340476D01*
X113684047Y-70364285D01*
X113660238Y-70411904D01*
X113660238Y-70530952D01*
X113684047Y-70578571D01*
X113707857Y-70602380D01*
X113755476Y-70626190D01*
X113898333Y-70626190D01*
X113945952Y-70602380D01*
X113969761Y-70578571D01*
X155372142Y-68203571D02*
X155265000Y-68239285D01*
X155086428Y-68239285D01*
X155015000Y-68203571D01*
X154979285Y-68167857D01*
X154943571Y-68096428D01*
X154943571Y-68025000D01*
X154979285Y-67953571D01*
X155015000Y-67917857D01*
X155086428Y-67882142D01*
X155229285Y-67846428D01*
X155300714Y-67810714D01*
X155336428Y-67775000D01*
X155372142Y-67703571D01*
X155372142Y-67632142D01*
X155336428Y-67560714D01*
X155300714Y-67525000D01*
X155229285Y-67489285D01*
X155050714Y-67489285D01*
X154943571Y-67525000D01*
X154622142Y-67846428D02*
X154372142Y-67846428D01*
X154265000Y-68239285D02*
X154622142Y-68239285D01*
X154622142Y-67489285D01*
X154265000Y-67489285D01*
X153515000Y-68239285D02*
X153765000Y-67882142D01*
X153943571Y-68239285D02*
X153943571Y-67489285D01*
X153657857Y-67489285D01*
X153586428Y-67525000D01*
X153550714Y-67560714D01*
X153515000Y-67632142D01*
X153515000Y-67739285D01*
X153550714Y-67810714D01*
X153586428Y-67846428D01*
X153657857Y-67882142D01*
X153943571Y-67882142D01*
X153193571Y-68239285D02*
X153193571Y-67489285D01*
X152872142Y-68025000D02*
X152515000Y-68025000D01*
X152943571Y-68239285D02*
X152693571Y-67489285D01*
X152443571Y-68239285D01*
X151836428Y-68239285D02*
X152193571Y-68239285D01*
X152193571Y-67489285D01*
D10*
X149700000Y-106700000D02*
X149700000Y-102000000D01*
X149700000Y-106700000D02*
X150000000Y-106700000D01*
X149700000Y-102000000D02*
X150000000Y-102000000D01*
D11*
X149156428Y-103439285D02*
X149156428Y-102689285D01*
X148870714Y-102689285D01*
X148799285Y-102725000D01*
X148763571Y-102760714D01*
X148727857Y-102832142D01*
X148727857Y-102939285D01*
X148763571Y-103010714D01*
X148799285Y-103046428D01*
X148870714Y-103082142D01*
X149156428Y-103082142D01*
X148477857Y-102689285D02*
X148299285Y-103439285D01*
X148156428Y-102903571D01*
X148013571Y-103439285D01*
X147835000Y-102689285D01*
X147120714Y-103439285D02*
X147370714Y-103082142D01*
X147549285Y-103439285D02*
X147549285Y-102689285D01*
X147263571Y-102689285D01*
X147192142Y-102725000D01*
X147156428Y-102760714D01*
X147120714Y-102832142D01*
X147120714Y-102939285D01*
X147156428Y-103010714D01*
X147192142Y-103046428D01*
X147263571Y-103082142D01*
X147549285Y-103082142D01*
X148763571Y-107825000D02*
X148835000Y-107789285D01*
X148942142Y-107789285D01*
X149049285Y-107825000D01*
X149120714Y-107896428D01*
X149156428Y-107967857D01*
X149192142Y-108110714D01*
X149192142Y-108217857D01*
X149156428Y-108360714D01*
X149120714Y-108432142D01*
X149049285Y-108503571D01*
X148942142Y-108539285D01*
X148870714Y-108539285D01*
X148763571Y-108503571D01*
X148727857Y-108467857D01*
X148727857Y-108217857D01*
X148870714Y-108217857D01*
X148406428Y-108539285D02*
X148406428Y-107789285D01*
X148120714Y-107789285D01*
X148049285Y-107825000D01*
X148013571Y-107860714D01*
X147977857Y-107932142D01*
X147977857Y-108039285D01*
X148013571Y-108110714D01*
X148049285Y-108146428D01*
X148120714Y-108182142D01*
X148406428Y-108182142D01*
X147656428Y-108539285D02*
X147656428Y-107789285D01*
X147156428Y-107789285D02*
X147013571Y-107789285D01*
X146942142Y-107825000D01*
X146870714Y-107896428D01*
X146835000Y-108039285D01*
X146835000Y-108289285D01*
X146870714Y-108432142D01*
X146942142Y-108503571D01*
X147013571Y-108539285D01*
X147156428Y-108539285D01*
X147227857Y-108503571D01*
X147299285Y-108432142D01*
X147335000Y-108289285D01*
X147335000Y-108039285D01*
X147299285Y-107896428D01*
X147227857Y-107825000D01*
X147156428Y-107789285D01*
X149192142Y-118425000D02*
X148835000Y-118425000D01*
X149263571Y-118639285D02*
X149013571Y-117889285D01*
X148763571Y-118639285D01*
X148513571Y-118639285D02*
X148513571Y-117889285D01*
X148335000Y-117889285D01*
X148227857Y-117925000D01*
X148156428Y-117996428D01*
X148120714Y-118067857D01*
X148085000Y-118210714D01*
X148085000Y-118317857D01*
X148120714Y-118460714D01*
X148156428Y-118532142D01*
X148227857Y-118603571D01*
X148335000Y-118639285D01*
X148513571Y-118639285D01*
X147335000Y-118567857D02*
X147370714Y-118603571D01*
X147477857Y-118639285D01*
X147549285Y-118639285D01*
X147656428Y-118603571D01*
X147727857Y-118532142D01*
X147763571Y-118460714D01*
X147799285Y-118317857D01*
X147799285Y-118210714D01*
X147763571Y-118067857D01*
X147727857Y-117996428D01*
X147656428Y-117925000D01*
X147549285Y-117889285D01*
X147477857Y-117889285D01*
X147370714Y-117925000D01*
X147335000Y-117960714D01*
X149156428Y-121139285D02*
X149156428Y-120389285D01*
X148977857Y-120389285D01*
X148870714Y-120425000D01*
X148799285Y-120496428D01*
X148763571Y-120567857D01*
X148727857Y-120710714D01*
X148727857Y-120817857D01*
X148763571Y-120960714D01*
X148799285Y-121032142D01*
X148870714Y-121103571D01*
X148977857Y-121139285D01*
X149156428Y-121139285D01*
X148442142Y-120925000D02*
X148085000Y-120925000D01*
X148513571Y-121139285D02*
X148263571Y-120389285D01*
X148013571Y-121139285D01*
X147335000Y-121067857D02*
X147370714Y-121103571D01*
X147477857Y-121139285D01*
X147549285Y-121139285D01*
X147656428Y-121103571D01*
X147727857Y-121032142D01*
X147763571Y-120960714D01*
X147799285Y-120817857D01*
X147799285Y-120710714D01*
X147763571Y-120567857D01*
X147727857Y-120496428D01*
X147656428Y-120425000D01*
X147549285Y-120389285D01*
X147477857Y-120389285D01*
X147370714Y-120425000D01*
X147335000Y-120460714D01*
D10*
X149700000Y-119300000D02*
X150000000Y-119300000D01*
X149700000Y-119300000D02*
X149700000Y-117200000D01*
X149700000Y-117200000D02*
X150000000Y-117200000D01*
X149700000Y-119700000D02*
X150000000Y-119700000D01*
X149700000Y-121800000D02*
X149700000Y-119700000D01*
X149700000Y-121800000D02*
X150000000Y-121800000D01*
X150000000Y-116800000D02*
X149700000Y-116800000D01*
X149700000Y-116800000D02*
X149700000Y-107100000D01*
X149700000Y-107100000D02*
X150000000Y-107100000D01*
D11*
X110343571Y-116103571D02*
X110236428Y-116139285D01*
X110057857Y-116139285D01*
X109986428Y-116103571D01*
X109950714Y-116067857D01*
X109915000Y-115996428D01*
X109915000Y-115925000D01*
X109950714Y-115853571D01*
X109986428Y-115817857D01*
X110057857Y-115782142D01*
X110200714Y-115746428D01*
X110272142Y-115710714D01*
X110307857Y-115675000D01*
X110343571Y-115603571D01*
X110343571Y-115532142D01*
X110307857Y-115460714D01*
X110272142Y-115425000D01*
X110200714Y-115389285D01*
X110022142Y-115389285D01*
X109915000Y-115425000D01*
X109593571Y-116139285D02*
X109593571Y-115389285D01*
X109307857Y-115389285D01*
X109236428Y-115425000D01*
X109200714Y-115460714D01*
X109165000Y-115532142D01*
X109165000Y-115639285D01*
X109200714Y-115710714D01*
X109236428Y-115746428D01*
X109307857Y-115782142D01*
X109593571Y-115782142D01*
X108843571Y-116139285D02*
X108843571Y-115389285D01*
X110207857Y-111039285D02*
X110207857Y-110289285D01*
X109886428Y-110360714D02*
X109850714Y-110325000D01*
X109779285Y-110289285D01*
X109600714Y-110289285D01*
X109529285Y-110325000D01*
X109493571Y-110360714D01*
X109457857Y-110432142D01*
X109457857Y-110503571D01*
X109493571Y-110610714D01*
X109922142Y-111039285D01*
X109457857Y-111039285D01*
X108707857Y-110967857D02*
X108743571Y-111003571D01*
X108850714Y-111039285D01*
X108922142Y-111039285D01*
X109029285Y-111003571D01*
X109100714Y-110932142D01*
X109136428Y-110860714D01*
X109172142Y-110717857D01*
X109172142Y-110610714D01*
X109136428Y-110467857D01*
X109100714Y-110396428D01*
X109029285Y-110325000D01*
X108922142Y-110289285D01*
X108850714Y-110289285D01*
X108743571Y-110325000D01*
X108707857Y-110360714D01*
D10*
X108300000Y-114700000D02*
X108000000Y-114700000D01*
X108300000Y-121900000D02*
X108000000Y-121900000D01*
X108300000Y-114700000D02*
X108300000Y-121900000D01*
X108300000Y-114300000D02*
X108000000Y-114300000D01*
X108300000Y-109600000D02*
X108300000Y-114300000D01*
X108300000Y-109600000D02*
X108000000Y-109600000D01*
D11*
X107507857Y-118050000D02*
X107555476Y-118026190D01*
X107626904Y-118026190D01*
X107698333Y-118050000D01*
X107745952Y-118097619D01*
X107769761Y-118145238D01*
X107793571Y-118240476D01*
X107793571Y-118311904D01*
X107769761Y-118407142D01*
X107745952Y-118454761D01*
X107698333Y-118502380D01*
X107626904Y-118526190D01*
X107579285Y-118526190D01*
X107507857Y-118502380D01*
X107484047Y-118478571D01*
X107484047Y-118311904D01*
X107579285Y-118311904D01*
X107269761Y-118526190D02*
X107269761Y-118026190D01*
X106984047Y-118526190D01*
X106984047Y-118026190D01*
X106745952Y-118526190D02*
X106745952Y-118026190D01*
X106626904Y-118026190D01*
X106555476Y-118050000D01*
X106507857Y-118097619D01*
X106484047Y-118145238D01*
X106460238Y-118240476D01*
X106460238Y-118311904D01*
X106484047Y-118407142D01*
X106507857Y-118454761D01*
X106555476Y-118502380D01*
X106626904Y-118526190D01*
X106745952Y-118526190D01*
X107507857Y-120550000D02*
X107555476Y-120526190D01*
X107626904Y-120526190D01*
X107698333Y-120550000D01*
X107745952Y-120597619D01*
X107769761Y-120645238D01*
X107793571Y-120740476D01*
X107793571Y-120811904D01*
X107769761Y-120907142D01*
X107745952Y-120954761D01*
X107698333Y-121002380D01*
X107626904Y-121026190D01*
X107579285Y-121026190D01*
X107507857Y-121002380D01*
X107484047Y-120978571D01*
X107484047Y-120811904D01*
X107579285Y-120811904D01*
X107269761Y-121026190D02*
X107269761Y-120526190D01*
X106984047Y-121026190D01*
X106984047Y-120526190D01*
X106745952Y-121026190D02*
X106745952Y-120526190D01*
X106626904Y-120526190D01*
X106555476Y-120550000D01*
X106507857Y-120597619D01*
X106484047Y-120645238D01*
X106460238Y-120740476D01*
X106460238Y-120811904D01*
X106484047Y-120907142D01*
X106507857Y-120954761D01*
X106555476Y-121002380D01*
X106626904Y-121026190D01*
X106745952Y-121026190D01*
X107507857Y-112950000D02*
X107555476Y-112926190D01*
X107626904Y-112926190D01*
X107698333Y-112950000D01*
X107745952Y-112997619D01*
X107769761Y-113045238D01*
X107793571Y-113140476D01*
X107793571Y-113211904D01*
X107769761Y-113307142D01*
X107745952Y-113354761D01*
X107698333Y-113402380D01*
X107626904Y-113426190D01*
X107579285Y-113426190D01*
X107507857Y-113402380D01*
X107484047Y-113378571D01*
X107484047Y-113211904D01*
X107579285Y-113211904D01*
X107269761Y-113426190D02*
X107269761Y-112926190D01*
X106984047Y-113426190D01*
X106984047Y-112926190D01*
X106745952Y-113426190D02*
X106745952Y-112926190D01*
X106626904Y-112926190D01*
X106555476Y-112950000D01*
X106507857Y-112997619D01*
X106484047Y-113045238D01*
X106460238Y-113140476D01*
X106460238Y-113211904D01*
X106484047Y-113307142D01*
X106507857Y-113354761D01*
X106555476Y-113402380D01*
X106626904Y-113426190D01*
X106745952Y-113426190D01*
X108055476Y-116026190D02*
X108055476Y-115526190D01*
X107888809Y-115883333D01*
X107722142Y-115526190D01*
X107722142Y-116026190D01*
X107484047Y-116026190D02*
X107484047Y-115526190D01*
X107269761Y-116002380D02*
X107198333Y-116026190D01*
X107079285Y-116026190D01*
X107031666Y-116002380D01*
X107007857Y-115978571D01*
X106984047Y-115930952D01*
X106984047Y-115883333D01*
X107007857Y-115835714D01*
X107031666Y-115811904D01*
X107079285Y-115788095D01*
X107174523Y-115764285D01*
X107222142Y-115740476D01*
X107245952Y-115716666D01*
X107269761Y-115669047D01*
X107269761Y-115621428D01*
X107245952Y-115573809D01*
X107222142Y-115550000D01*
X107174523Y-115526190D01*
X107055476Y-115526190D01*
X106984047Y-115550000D01*
X106674523Y-115526190D02*
X106579285Y-115526190D01*
X106531666Y-115550000D01*
X106484047Y-115597619D01*
X106460238Y-115692857D01*
X106460238Y-115859523D01*
X106484047Y-115954761D01*
X106531666Y-116002380D01*
X106579285Y-116026190D01*
X106674523Y-116026190D01*
X106722142Y-116002380D01*
X106769761Y-115954761D01*
X106793571Y-115859523D01*
X106793571Y-115692857D01*
X106769761Y-115597619D01*
X106722142Y-115550000D01*
X106674523Y-115526190D01*
X107650714Y-110902380D02*
X107579285Y-110926190D01*
X107460238Y-110926190D01*
X107412619Y-110902380D01*
X107388809Y-110878571D01*
X107365000Y-110830952D01*
X107365000Y-110783333D01*
X107388809Y-110735714D01*
X107412619Y-110711904D01*
X107460238Y-110688095D01*
X107555476Y-110664285D01*
X107603095Y-110640476D01*
X107626904Y-110616666D01*
X107650714Y-110569047D01*
X107650714Y-110521428D01*
X107626904Y-110473809D01*
X107603095Y-110450000D01*
X107555476Y-110426190D01*
X107436428Y-110426190D01*
X107365000Y-110450000D01*
X106865000Y-110878571D02*
X106888809Y-110902380D01*
X106960238Y-110926190D01*
X107007857Y-110926190D01*
X107079285Y-110902380D01*
X107126904Y-110854761D01*
X107150714Y-110807142D01*
X107174523Y-110711904D01*
X107174523Y-110640476D01*
X107150714Y-110545238D01*
X107126904Y-110497619D01*
X107079285Y-110450000D01*
X107007857Y-110426190D01*
X106960238Y-110426190D01*
X106888809Y-110450000D01*
X106865000Y-110473809D01*
X106412619Y-110926190D02*
X106650714Y-110926190D01*
X106650714Y-110426190D01*
X101063571Y-120526190D02*
X100754047Y-120526190D01*
X100920714Y-120716666D01*
X100849285Y-120716666D01*
X100801666Y-120740476D01*
X100777857Y-120764285D01*
X100754047Y-120811904D01*
X100754047Y-120930952D01*
X100777857Y-120978571D01*
X100801666Y-121002380D01*
X100849285Y-121026190D01*
X100992142Y-121026190D01*
X101039761Y-121002380D01*
X101063571Y-120978571D01*
X100611190Y-120526190D02*
X100444523Y-121026190D01*
X100277857Y-120526190D01*
X100158809Y-120526190D02*
X99849285Y-120526190D01*
X100015952Y-120716666D01*
X99944523Y-120716666D01*
X99896904Y-120740476D01*
X99873095Y-120764285D01*
X99849285Y-120811904D01*
X99849285Y-120930952D01*
X99873095Y-120978571D01*
X99896904Y-121002380D01*
X99944523Y-121026190D01*
X100087380Y-121026190D01*
X100135000Y-121002380D01*
X100158809Y-120978571D01*
X101039761Y-118502380D02*
X100968333Y-118526190D01*
X100849285Y-118526190D01*
X100801666Y-118502380D01*
X100777857Y-118478571D01*
X100754047Y-118430952D01*
X100754047Y-118383333D01*
X100777857Y-118335714D01*
X100801666Y-118311904D01*
X100849285Y-118288095D01*
X100944523Y-118264285D01*
X100992142Y-118240476D01*
X101015952Y-118216666D01*
X101039761Y-118169047D01*
X101039761Y-118121428D01*
X101015952Y-118073809D01*
X100992142Y-118050000D01*
X100944523Y-118026190D01*
X100825476Y-118026190D01*
X100754047Y-118050000D01*
X100254047Y-118478571D02*
X100277857Y-118502380D01*
X100349285Y-118526190D01*
X100396904Y-118526190D01*
X100468333Y-118502380D01*
X100515952Y-118454761D01*
X100539761Y-118407142D01*
X100563571Y-118311904D01*
X100563571Y-118240476D01*
X100539761Y-118145238D01*
X100515952Y-118097619D01*
X100468333Y-118050000D01*
X100396904Y-118026190D01*
X100349285Y-118026190D01*
X100277857Y-118050000D01*
X100254047Y-118073809D01*
X100039761Y-118526190D02*
X100039761Y-118026190D01*
X99754047Y-118526190D02*
X99968333Y-118240476D01*
X99754047Y-118026190D02*
X100039761Y-118311904D01*
X101015952Y-116026190D02*
X101015952Y-115526190D01*
X100849285Y-115883333D01*
X100682619Y-115526190D01*
X100682619Y-116026190D01*
X100349285Y-115526190D02*
X100254047Y-115526190D01*
X100206428Y-115550000D01*
X100158809Y-115597619D01*
X100135000Y-115692857D01*
X100135000Y-115859523D01*
X100158809Y-115954761D01*
X100206428Y-116002380D01*
X100254047Y-116026190D01*
X100349285Y-116026190D01*
X100396904Y-116002380D01*
X100444523Y-115954761D01*
X100468333Y-115859523D01*
X100468333Y-115692857D01*
X100444523Y-115597619D01*
X100396904Y-115550000D01*
X100349285Y-115526190D01*
X99944523Y-116002380D02*
X99873095Y-116026190D01*
X99754047Y-116026190D01*
X99706428Y-116002380D01*
X99682619Y-115978571D01*
X99658809Y-115930952D01*
X99658809Y-115883333D01*
X99682619Y-115835714D01*
X99706428Y-115811904D01*
X99754047Y-115788095D01*
X99849285Y-115764285D01*
X99896904Y-115740476D01*
X99920714Y-115716666D01*
X99944523Y-115669047D01*
X99944523Y-115621428D01*
X99920714Y-115573809D01*
X99896904Y-115550000D01*
X99849285Y-115526190D01*
X99730238Y-115526190D01*
X99658809Y-115550000D01*
X99444523Y-116026190D02*
X99444523Y-115526190D01*
X101063571Y-112926190D02*
X100754047Y-112926190D01*
X100920714Y-113116666D01*
X100849285Y-113116666D01*
X100801666Y-113140476D01*
X100777857Y-113164285D01*
X100754047Y-113211904D01*
X100754047Y-113330952D01*
X100777857Y-113378571D01*
X100801666Y-113402380D01*
X100849285Y-113426190D01*
X100992142Y-113426190D01*
X101039761Y-113402380D01*
X101063571Y-113378571D01*
X100611190Y-112926190D02*
X100444523Y-113426190D01*
X100277857Y-112926190D01*
X100158809Y-112926190D02*
X99849285Y-112926190D01*
X100015952Y-113116666D01*
X99944523Y-113116666D01*
X99896904Y-113140476D01*
X99873095Y-113164285D01*
X99849285Y-113211904D01*
X99849285Y-113330952D01*
X99873095Y-113378571D01*
X99896904Y-113402380D01*
X99944523Y-113426190D01*
X100087380Y-113426190D01*
X100135000Y-113402380D01*
X100158809Y-113378571D01*
X101039761Y-110902380D02*
X100968333Y-110926190D01*
X100849285Y-110926190D01*
X100801666Y-110902380D01*
X100777857Y-110878571D01*
X100754047Y-110830952D01*
X100754047Y-110783333D01*
X100777857Y-110735714D01*
X100801666Y-110711904D01*
X100849285Y-110688095D01*
X100944523Y-110664285D01*
X100992142Y-110640476D01*
X101015952Y-110616666D01*
X101039761Y-110569047D01*
X101039761Y-110521428D01*
X101015952Y-110473809D01*
X100992142Y-110450000D01*
X100944523Y-110426190D01*
X100825476Y-110426190D01*
X100754047Y-110450000D01*
X100539761Y-110926190D02*
X100539761Y-110426190D01*
X100420714Y-110426190D01*
X100349285Y-110450000D01*
X100301666Y-110497619D01*
X100277857Y-110545238D01*
X100254047Y-110640476D01*
X100254047Y-110711904D01*
X100277857Y-110807142D01*
X100301666Y-110854761D01*
X100349285Y-110902380D01*
X100420714Y-110926190D01*
X100539761Y-110926190D01*
X100063571Y-110783333D02*
X99825476Y-110783333D01*
X100111190Y-110926190D02*
X99944523Y-110426190D01*
X99777857Y-110926190D01*
X151420714Y-115526190D02*
X151373095Y-115526190D01*
X151325476Y-115550000D01*
X151301666Y-115573809D01*
X151277857Y-115621428D01*
X151254047Y-115716666D01*
X151254047Y-115835714D01*
X151277857Y-115930952D01*
X151301666Y-115978571D01*
X151325476Y-116002380D01*
X151373095Y-116026190D01*
X151420714Y-116026190D01*
X151468333Y-116002380D01*
X151492142Y-115978571D01*
X151515952Y-115930952D01*
X151539761Y-115835714D01*
X151539761Y-115716666D01*
X151515952Y-115621428D01*
X151492142Y-115573809D01*
X151468333Y-115550000D01*
X151420714Y-115526190D01*
X151087380Y-115526190D02*
X150754047Y-115526190D01*
X150968333Y-116026190D01*
X151420714Y-112926190D02*
X151373095Y-112926190D01*
X151325476Y-112950000D01*
X151301666Y-112973809D01*
X151277857Y-113021428D01*
X151254047Y-113116666D01*
X151254047Y-113235714D01*
X151277857Y-113330952D01*
X151301666Y-113378571D01*
X151325476Y-113402380D01*
X151373095Y-113426190D01*
X151420714Y-113426190D01*
X151468333Y-113402380D01*
X151492142Y-113378571D01*
X151515952Y-113330952D01*
X151539761Y-113235714D01*
X151539761Y-113116666D01*
X151515952Y-113021428D01*
X151492142Y-112973809D01*
X151468333Y-112950000D01*
X151420714Y-112926190D01*
X150801666Y-112926190D02*
X151039761Y-112926190D01*
X151063571Y-113164285D01*
X151039761Y-113140476D01*
X150992142Y-113116666D01*
X150873095Y-113116666D01*
X150825476Y-113140476D01*
X150801666Y-113164285D01*
X150777857Y-113211904D01*
X150777857Y-113330952D01*
X150801666Y-113378571D01*
X150825476Y-113402380D01*
X150873095Y-113426190D01*
X150992142Y-113426190D01*
X151039761Y-113402380D01*
X151063571Y-113378571D01*
X151420714Y-110426190D02*
X151373095Y-110426190D01*
X151325476Y-110450000D01*
X151301666Y-110473809D01*
X151277857Y-110521428D01*
X151254047Y-110616666D01*
X151254047Y-110735714D01*
X151277857Y-110830952D01*
X151301666Y-110878571D01*
X151325476Y-110902380D01*
X151373095Y-110926190D01*
X151420714Y-110926190D01*
X151468333Y-110902380D01*
X151492142Y-110878571D01*
X151515952Y-110830952D01*
X151539761Y-110735714D01*
X151539761Y-110616666D01*
X151515952Y-110521428D01*
X151492142Y-110473809D01*
X151468333Y-110450000D01*
X151420714Y-110426190D01*
X151087380Y-110426190D02*
X150777857Y-110426190D01*
X150944523Y-110616666D01*
X150873095Y-110616666D01*
X150825476Y-110640476D01*
X150801666Y-110664285D01*
X150777857Y-110711904D01*
X150777857Y-110830952D01*
X150801666Y-110878571D01*
X150825476Y-110902380D01*
X150873095Y-110926190D01*
X151015952Y-110926190D01*
X151063571Y-110902380D01*
X151087380Y-110878571D01*
X157603095Y-120526190D02*
X157555476Y-120526190D01*
X157507857Y-120550000D01*
X157484047Y-120573809D01*
X157460238Y-120621428D01*
X157436428Y-120716666D01*
X157436428Y-120835714D01*
X157460238Y-120930952D01*
X157484047Y-120978571D01*
X157507857Y-121002380D01*
X157555476Y-121026190D01*
X157603095Y-121026190D01*
X157650714Y-121002380D01*
X157674523Y-120978571D01*
X157698333Y-120930952D01*
X157722142Y-120835714D01*
X157722142Y-120716666D01*
X157698333Y-120621428D01*
X157674523Y-120573809D01*
X157650714Y-120550000D01*
X157603095Y-120526190D01*
X157126904Y-120526190D02*
X157079285Y-120526190D01*
X157031666Y-120550000D01*
X157007857Y-120573809D01*
X156984047Y-120621428D01*
X156960238Y-120716666D01*
X156960238Y-120835714D01*
X156984047Y-120930952D01*
X157007857Y-120978571D01*
X157031666Y-121002380D01*
X157079285Y-121026190D01*
X157126904Y-121026190D01*
X157174523Y-121002380D01*
X157198333Y-120978571D01*
X157222142Y-120930952D01*
X157245952Y-120835714D01*
X157245952Y-120716666D01*
X157222142Y-120621428D01*
X157198333Y-120573809D01*
X157174523Y-120550000D01*
X157126904Y-120526190D01*
X157603095Y-118026190D02*
X157555476Y-118026190D01*
X157507857Y-118050000D01*
X157484047Y-118073809D01*
X157460238Y-118121428D01*
X157436428Y-118216666D01*
X157436428Y-118335714D01*
X157460238Y-118430952D01*
X157484047Y-118478571D01*
X157507857Y-118502380D01*
X157555476Y-118526190D01*
X157603095Y-118526190D01*
X157650714Y-118502380D01*
X157674523Y-118478571D01*
X157698333Y-118430952D01*
X157722142Y-118335714D01*
X157722142Y-118216666D01*
X157698333Y-118121428D01*
X157674523Y-118073809D01*
X157650714Y-118050000D01*
X157603095Y-118026190D01*
X157126904Y-118026190D02*
X157079285Y-118026190D01*
X157031666Y-118050000D01*
X157007857Y-118073809D01*
X156984047Y-118121428D01*
X156960238Y-118216666D01*
X156960238Y-118335714D01*
X156984047Y-118430952D01*
X157007857Y-118478571D01*
X157031666Y-118502380D01*
X157079285Y-118526190D01*
X157126904Y-118526190D01*
X157174523Y-118502380D01*
X157198333Y-118478571D01*
X157222142Y-118430952D01*
X157245952Y-118335714D01*
X157245952Y-118216666D01*
X157222142Y-118121428D01*
X157198333Y-118073809D01*
X157174523Y-118050000D01*
X157126904Y-118026190D01*
X157412619Y-102826190D02*
X157650714Y-102826190D01*
X157674523Y-103064285D01*
X157650714Y-103040476D01*
X157603095Y-103016666D01*
X157484047Y-103016666D01*
X157436428Y-103040476D01*
X157412619Y-103064285D01*
X157388809Y-103111904D01*
X157388809Y-103230952D01*
X157412619Y-103278571D01*
X157436428Y-103302380D01*
X157484047Y-103326190D01*
X157603095Y-103326190D01*
X157650714Y-103302380D01*
X157674523Y-103278571D01*
X157245952Y-102826190D02*
X157079285Y-103326190D01*
X156912619Y-102826190D01*
X151254047Y-102850000D02*
X151301666Y-102826190D01*
X151373095Y-102826190D01*
X151444523Y-102850000D01*
X151492142Y-102897619D01*
X151515952Y-102945238D01*
X151539761Y-103040476D01*
X151539761Y-103111904D01*
X151515952Y-103207142D01*
X151492142Y-103254761D01*
X151444523Y-103302380D01*
X151373095Y-103326190D01*
X151325476Y-103326190D01*
X151254047Y-103302380D01*
X151230238Y-103278571D01*
X151230238Y-103111904D01*
X151325476Y-103111904D01*
X151015952Y-103326190D02*
X151015952Y-102826190D01*
X150730238Y-103326190D01*
X150730238Y-102826190D01*
X150492142Y-103326190D02*
X150492142Y-102826190D01*
X150373095Y-102826190D01*
X150301666Y-102850000D01*
X150254047Y-102897619D01*
X150230238Y-102945238D01*
X150206428Y-103040476D01*
X150206428Y-103111904D01*
X150230238Y-103207142D01*
X150254047Y-103254761D01*
X150301666Y-103302380D01*
X150373095Y-103326190D01*
X150492142Y-103326190D01*
X158174523Y-105326190D02*
X157865000Y-105326190D01*
X158031666Y-105516666D01*
X157960238Y-105516666D01*
X157912619Y-105540476D01*
X157888809Y-105564285D01*
X157865000Y-105611904D01*
X157865000Y-105730952D01*
X157888809Y-105778571D01*
X157912619Y-105802380D01*
X157960238Y-105826190D01*
X158103095Y-105826190D01*
X158150714Y-105802380D01*
X158174523Y-105778571D01*
X157722142Y-105326190D02*
X157555476Y-105826190D01*
X157388809Y-105326190D01*
X157269761Y-105326190D02*
X156960238Y-105326190D01*
X157126904Y-105516666D01*
X157055476Y-105516666D01*
X157007857Y-105540476D01*
X156984047Y-105564285D01*
X156960238Y-105611904D01*
X156960238Y-105730952D01*
X156984047Y-105778571D01*
X157007857Y-105802380D01*
X157055476Y-105826190D01*
X157198333Y-105826190D01*
X157245952Y-105802380D01*
X157269761Y-105778571D01*
X151254047Y-105350000D02*
X151301666Y-105326190D01*
X151373095Y-105326190D01*
X151444523Y-105350000D01*
X151492142Y-105397619D01*
X151515952Y-105445238D01*
X151539761Y-105540476D01*
X151539761Y-105611904D01*
X151515952Y-105707142D01*
X151492142Y-105754761D01*
X151444523Y-105802380D01*
X151373095Y-105826190D01*
X151325476Y-105826190D01*
X151254047Y-105802380D01*
X151230238Y-105778571D01*
X151230238Y-105611904D01*
X151325476Y-105611904D01*
X151015952Y-105826190D02*
X151015952Y-105326190D01*
X150730238Y-105826190D01*
X150730238Y-105326190D01*
X150492142Y-105826190D02*
X150492142Y-105326190D01*
X150373095Y-105326190D01*
X150301666Y-105350000D01*
X150254047Y-105397619D01*
X150230238Y-105445238D01*
X150206428Y-105540476D01*
X150206428Y-105611904D01*
X150230238Y-105707142D01*
X150254047Y-105754761D01*
X150301666Y-105802380D01*
X150373095Y-105826190D01*
X150492142Y-105826190D01*
X157603095Y-110426190D02*
X157555476Y-110426190D01*
X157507857Y-110450000D01*
X157484047Y-110473809D01*
X157460238Y-110521428D01*
X157436428Y-110616666D01*
X157436428Y-110735714D01*
X157460238Y-110830952D01*
X157484047Y-110878571D01*
X157507857Y-110902380D01*
X157555476Y-110926190D01*
X157603095Y-110926190D01*
X157650714Y-110902380D01*
X157674523Y-110878571D01*
X157698333Y-110830952D01*
X157722142Y-110735714D01*
X157722142Y-110616666D01*
X157698333Y-110521428D01*
X157674523Y-110473809D01*
X157650714Y-110450000D01*
X157603095Y-110426190D01*
X157245952Y-110473809D02*
X157222142Y-110450000D01*
X157174523Y-110426190D01*
X157055476Y-110426190D01*
X157007857Y-110450000D01*
X156984047Y-110473809D01*
X156960238Y-110521428D01*
X156960238Y-110569047D01*
X156984047Y-110640476D01*
X157269761Y-110926190D01*
X156960238Y-110926190D01*
X157603095Y-112926190D02*
X157555476Y-112926190D01*
X157507857Y-112950000D01*
X157484047Y-112973809D01*
X157460238Y-113021428D01*
X157436428Y-113116666D01*
X157436428Y-113235714D01*
X157460238Y-113330952D01*
X157484047Y-113378571D01*
X157507857Y-113402380D01*
X157555476Y-113426190D01*
X157603095Y-113426190D01*
X157650714Y-113402380D01*
X157674523Y-113378571D01*
X157698333Y-113330952D01*
X157722142Y-113235714D01*
X157722142Y-113116666D01*
X157698333Y-113021428D01*
X157674523Y-112973809D01*
X157650714Y-112950000D01*
X157603095Y-112926190D01*
X157007857Y-113092857D02*
X157007857Y-113426190D01*
X157126904Y-112902380D02*
X157245952Y-113259523D01*
X156936428Y-113259523D01*
X157603095Y-115526190D02*
X157555476Y-115526190D01*
X157507857Y-115550000D01*
X157484047Y-115573809D01*
X157460238Y-115621428D01*
X157436428Y-115716666D01*
X157436428Y-115835714D01*
X157460238Y-115930952D01*
X157484047Y-115978571D01*
X157507857Y-116002380D01*
X157555476Y-116026190D01*
X157603095Y-116026190D01*
X157650714Y-116002380D01*
X157674523Y-115978571D01*
X157698333Y-115930952D01*
X157722142Y-115835714D01*
X157722142Y-115716666D01*
X157698333Y-115621428D01*
X157674523Y-115573809D01*
X157650714Y-115550000D01*
X157603095Y-115526190D01*
X157007857Y-115526190D02*
X157103095Y-115526190D01*
X157150714Y-115550000D01*
X157174523Y-115573809D01*
X157222142Y-115645238D01*
X157245952Y-115740476D01*
X157245952Y-115930952D01*
X157222142Y-115978571D01*
X157198333Y-116002380D01*
X157150714Y-116026190D01*
X157055476Y-116026190D01*
X157007857Y-116002380D01*
X156984047Y-115978571D01*
X156960238Y-115930952D01*
X156960238Y-115811904D01*
X156984047Y-115764285D01*
X157007857Y-115740476D01*
X157055476Y-115716666D01*
X157150714Y-115716666D01*
X157198333Y-115740476D01*
X157222142Y-115764285D01*
X157245952Y-115811904D01*
X151420714Y-107926190D02*
X151373095Y-107926190D01*
X151325476Y-107950000D01*
X151301666Y-107973809D01*
X151277857Y-108021428D01*
X151254047Y-108116666D01*
X151254047Y-108235714D01*
X151277857Y-108330952D01*
X151301666Y-108378571D01*
X151325476Y-108402380D01*
X151373095Y-108426190D01*
X151420714Y-108426190D01*
X151468333Y-108402380D01*
X151492142Y-108378571D01*
X151515952Y-108330952D01*
X151539761Y-108235714D01*
X151539761Y-108116666D01*
X151515952Y-108021428D01*
X151492142Y-107973809D01*
X151468333Y-107950000D01*
X151420714Y-107926190D01*
X150777857Y-108426190D02*
X151063571Y-108426190D01*
X150920714Y-108426190D02*
X150920714Y-107926190D01*
X150968333Y-107997619D01*
X151015952Y-108045238D01*
X151063571Y-108069047D01*
X157603095Y-107926190D02*
X157555476Y-107926190D01*
X157507857Y-107950000D01*
X157484047Y-107973809D01*
X157460238Y-108021428D01*
X157436428Y-108116666D01*
X157436428Y-108235714D01*
X157460238Y-108330952D01*
X157484047Y-108378571D01*
X157507857Y-108402380D01*
X157555476Y-108426190D01*
X157603095Y-108426190D01*
X157650714Y-108402380D01*
X157674523Y-108378571D01*
X157698333Y-108330952D01*
X157722142Y-108235714D01*
X157722142Y-108116666D01*
X157698333Y-108021428D01*
X157674523Y-107973809D01*
X157650714Y-107950000D01*
X157603095Y-107926190D01*
X157126904Y-107926190D02*
X157079285Y-107926190D01*
X157031666Y-107950000D01*
X157007857Y-107973809D01*
X156984047Y-108021428D01*
X156960238Y-108116666D01*
X156960238Y-108235714D01*
X156984047Y-108330952D01*
X157007857Y-108378571D01*
X157031666Y-108402380D01*
X157079285Y-108426190D01*
X157126904Y-108426190D01*
X157174523Y-108402380D01*
X157198333Y-108378571D01*
X157222142Y-108330952D01*
X157245952Y-108235714D01*
X157245952Y-108116666D01*
X157222142Y-108021428D01*
X157198333Y-107973809D01*
X157174523Y-107950000D01*
X157126904Y-107926190D01*
X119492857Y-75189285D02*
X119421428Y-75189285D01*
X119350000Y-75225000D01*
X119314285Y-75260714D01*
X119278571Y-75332142D01*
X119242857Y-75475000D01*
X119242857Y-75653571D01*
X119278571Y-75796428D01*
X119314285Y-75867857D01*
X119350000Y-75903571D01*
X119421428Y-75939285D01*
X119492857Y-75939285D01*
X119564285Y-75903571D01*
X119600000Y-75867857D01*
X119635714Y-75796428D01*
X119671428Y-75653571D01*
X119671428Y-75475000D01*
X119635714Y-75332142D01*
X119600000Y-75260714D01*
X119564285Y-75225000D01*
X119492857Y-75189285D01*
X118957142Y-75260714D02*
X118921428Y-75225000D01*
X118850000Y-75189285D01*
X118671428Y-75189285D01*
X118600000Y-75225000D01*
X118564285Y-75260714D01*
X118528571Y-75332142D01*
X118528571Y-75403571D01*
X118564285Y-75510714D01*
X118992857Y-75939285D01*
X118528571Y-75939285D01*
X139292857Y-75189285D02*
X139221428Y-75189285D01*
X139150000Y-75225000D01*
X139114285Y-75260714D01*
X139078571Y-75332142D01*
X139042857Y-75475000D01*
X139042857Y-75653571D01*
X139078571Y-75796428D01*
X139114285Y-75867857D01*
X139150000Y-75903571D01*
X139221428Y-75939285D01*
X139292857Y-75939285D01*
X139364285Y-75903571D01*
X139400000Y-75867857D01*
X139435714Y-75796428D01*
X139471428Y-75653571D01*
X139471428Y-75475000D01*
X139435714Y-75332142D01*
X139400000Y-75260714D01*
X139364285Y-75225000D01*
X139292857Y-75189285D01*
X138578571Y-75189285D02*
X138507142Y-75189285D01*
X138435714Y-75225000D01*
X138400000Y-75260714D01*
X138364285Y-75332142D01*
X138328571Y-75475000D01*
X138328571Y-75653571D01*
X138364285Y-75796428D01*
X138400000Y-75867857D01*
X138435714Y-75903571D01*
X138507142Y-75939285D01*
X138578571Y-75939285D01*
X138650000Y-75903571D01*
X138685714Y-75867857D01*
X138721428Y-75796428D01*
X138757142Y-75653571D01*
X138757142Y-75475000D01*
X138721428Y-75332142D01*
X138685714Y-75260714D01*
X138650000Y-75225000D01*
X138578571Y-75189285D01*
X129392857Y-75189285D02*
X129321428Y-75189285D01*
X129250000Y-75225000D01*
X129214285Y-75260714D01*
X129178571Y-75332142D01*
X129142857Y-75475000D01*
X129142857Y-75653571D01*
X129178571Y-75796428D01*
X129214285Y-75867857D01*
X129250000Y-75903571D01*
X129321428Y-75939285D01*
X129392857Y-75939285D01*
X129464285Y-75903571D01*
X129500000Y-75867857D01*
X129535714Y-75796428D01*
X129571428Y-75653571D01*
X129571428Y-75475000D01*
X129535714Y-75332142D01*
X129500000Y-75260714D01*
X129464285Y-75225000D01*
X129392857Y-75189285D01*
X128428571Y-75939285D02*
X128857142Y-75939285D01*
X128642857Y-75939285D02*
X128642857Y-75189285D01*
X128714285Y-75296428D01*
X128785714Y-75367857D01*
X128857142Y-75403571D01*
X122046428Y-60539285D02*
X122046428Y-59789285D01*
X122046428Y-60146428D02*
X121617857Y-60146428D01*
X121617857Y-60539285D02*
X121617857Y-59789285D01*
X121260714Y-60146428D02*
X121010714Y-60146428D01*
X120903571Y-60539285D02*
X121260714Y-60539285D01*
X121260714Y-59789285D01*
X120903571Y-59789285D01*
X120617857Y-60325000D02*
X120260714Y-60325000D01*
X120689285Y-60539285D02*
X120439285Y-59789285D01*
X120189285Y-60539285D01*
X119939285Y-60539285D02*
X119939285Y-59789285D01*
X119760714Y-59789285D01*
X119653571Y-59825000D01*
X119582142Y-59896428D01*
X119546428Y-59967857D01*
X119510714Y-60110714D01*
X119510714Y-60217857D01*
X119546428Y-60360714D01*
X119582142Y-60432142D01*
X119653571Y-60503571D01*
X119760714Y-60539285D01*
X119939285Y-60539285D01*
X119189285Y-60539285D02*
X119189285Y-59789285D01*
X118903571Y-59789285D01*
X118832142Y-59825000D01*
X118796428Y-59860714D01*
X118760714Y-59932142D01*
X118760714Y-60039285D01*
X118796428Y-60110714D01*
X118832142Y-60146428D01*
X118903571Y-60182142D01*
X119189285Y-60182142D01*
X118439285Y-60539285D02*
X118439285Y-59789285D01*
X118439285Y-60146428D02*
X118010714Y-60146428D01*
X118010714Y-60539285D02*
X118010714Y-59789285D01*
X117510714Y-59789285D02*
X117367857Y-59789285D01*
X117296428Y-59825000D01*
X117225000Y-59896428D01*
X117189285Y-60039285D01*
X117189285Y-60289285D01*
X117225000Y-60432142D01*
X117296428Y-60503571D01*
X117367857Y-60539285D01*
X117510714Y-60539285D01*
X117582142Y-60503571D01*
X117653571Y-60432142D01*
X117689285Y-60289285D01*
X117689285Y-60039285D01*
X117653571Y-59896428D01*
X117582142Y-59825000D01*
X117510714Y-59789285D01*
X116867857Y-60539285D02*
X116867857Y-59789285D01*
X116439285Y-60539285D01*
X116439285Y-59789285D01*
X116082142Y-60146428D02*
X115832142Y-60146428D01*
X115725000Y-60539285D02*
X116082142Y-60539285D01*
X116082142Y-59789285D01*
X115725000Y-59789285D01*
X115439285Y-60503571D02*
X115332142Y-60539285D01*
X115153571Y-60539285D01*
X115082142Y-60503571D01*
X115046428Y-60467857D01*
X115010714Y-60396428D01*
X115010714Y-60325000D01*
X115046428Y-60253571D01*
X115082142Y-60217857D01*
X115153571Y-60182142D01*
X115296428Y-60146428D01*
X115367857Y-60110714D01*
X115403571Y-60075000D01*
X115439285Y-60003571D01*
X115439285Y-59932142D01*
X115403571Y-59860714D01*
X115367857Y-59825000D01*
X115296428Y-59789285D01*
X115117857Y-59789285D01*
X115010714Y-59825000D01*
X114689285Y-60253571D02*
X114117857Y-60253571D01*
X114403571Y-60539285D02*
X114403571Y-59967857D01*
X113760714Y-60539285D02*
X113760714Y-59789285D01*
X113510714Y-60325000D01*
X113260714Y-59789285D01*
X113260714Y-60539285D01*
X112903571Y-60539285D02*
X112903571Y-59789285D01*
X112117857Y-60467857D02*
X112153571Y-60503571D01*
X112260714Y-60539285D01*
X112332142Y-60539285D01*
X112439285Y-60503571D01*
X112510714Y-60432142D01*
X112546428Y-60360714D01*
X112582142Y-60217857D01*
X112582142Y-60110714D01*
X112546428Y-59967857D01*
X112510714Y-59896428D01*
X112439285Y-59825000D01*
X112332142Y-59789285D01*
X112260714Y-59789285D01*
X112153571Y-59825000D01*
X112117857Y-59860714D01*
X130946428Y-60539285D02*
X130946428Y-59789285D01*
X130589285Y-60539285D02*
X130589285Y-59789285D01*
X130160714Y-60539285D01*
X130160714Y-59789285D01*
X129803571Y-60539285D02*
X129803571Y-59789285D01*
X129517857Y-59789285D01*
X129446428Y-59825000D01*
X129410714Y-59860714D01*
X129375000Y-59932142D01*
X129375000Y-60039285D01*
X129410714Y-60110714D01*
X129446428Y-60146428D01*
X129517857Y-60182142D01*
X129803571Y-60182142D01*
X129053571Y-59789285D02*
X129053571Y-60396428D01*
X129017857Y-60467857D01*
X128982142Y-60503571D01*
X128910714Y-60539285D01*
X128767857Y-60539285D01*
X128696428Y-60503571D01*
X128660714Y-60467857D01*
X128625000Y-60396428D01*
X128625000Y-59789285D01*
X128375000Y-59789285D02*
X127946428Y-59789285D01*
X128160714Y-60539285D02*
X128160714Y-59789285D01*
X143703571Y-59889285D02*
X143560714Y-59889285D01*
X143489285Y-59925000D01*
X143417857Y-59996428D01*
X143382142Y-60139285D01*
X143382142Y-60389285D01*
X143417857Y-60532142D01*
X143489285Y-60603571D01*
X143560714Y-60639285D01*
X143703571Y-60639285D01*
X143775000Y-60603571D01*
X143846428Y-60532142D01*
X143882142Y-60389285D01*
X143882142Y-60139285D01*
X143846428Y-59996428D01*
X143775000Y-59925000D01*
X143703571Y-59889285D01*
X143060714Y-59889285D02*
X143060714Y-60496428D01*
X143025000Y-60567857D01*
X142989285Y-60603571D01*
X142917857Y-60639285D01*
X142775000Y-60639285D01*
X142703571Y-60603571D01*
X142667857Y-60567857D01*
X142632142Y-60496428D01*
X142632142Y-59889285D01*
X142382142Y-59889285D02*
X141953571Y-59889285D01*
X142167857Y-60639285D02*
X142167857Y-59889285D01*
X141703571Y-60639285D02*
X141703571Y-59889285D01*
X141417857Y-59889285D01*
X141346428Y-59925000D01*
X141310714Y-59960714D01*
X141275000Y-60032142D01*
X141275000Y-60139285D01*
X141310714Y-60210714D01*
X141346428Y-60246428D01*
X141417857Y-60282142D01*
X141703571Y-60282142D01*
X140953571Y-59889285D02*
X140953571Y-60496428D01*
X140917857Y-60567857D01*
X140882142Y-60603571D01*
X140810714Y-60639285D01*
X140667857Y-60639285D01*
X140596428Y-60603571D01*
X140560714Y-60567857D01*
X140525000Y-60496428D01*
X140525000Y-59889285D01*
X140275000Y-59889285D02*
X139846428Y-59889285D01*
X140060714Y-60639285D02*
X140060714Y-59889285D01*
X140650000Y-146339285D02*
X140650000Y-145589285D01*
X140650000Y-145946428D02*
X140221428Y-145946428D01*
X140221428Y-146339285D02*
X140221428Y-145589285D01*
X139721428Y-145589285D02*
X139578571Y-145589285D01*
X139507142Y-145625000D01*
X139435714Y-145696428D01*
X139400000Y-145839285D01*
X139400000Y-146089285D01*
X139435714Y-146232142D01*
X139507142Y-146303571D01*
X139578571Y-146339285D01*
X139721428Y-146339285D01*
X139792857Y-146303571D01*
X139864285Y-146232142D01*
X139900000Y-146089285D01*
X139900000Y-145839285D01*
X139864285Y-145696428D01*
X139792857Y-145625000D01*
X139721428Y-145589285D01*
X139114285Y-146303571D02*
X139007142Y-146339285D01*
X138828571Y-146339285D01*
X138757142Y-146303571D01*
X138721428Y-146267857D01*
X138685714Y-146196428D01*
X138685714Y-146125000D01*
X138721428Y-146053571D01*
X138757142Y-146017857D01*
X138828571Y-145982142D01*
X138971428Y-145946428D01*
X139042857Y-145910714D01*
X139078571Y-145875000D01*
X139114285Y-145803571D01*
X139114285Y-145732142D01*
X139078571Y-145660714D01*
X139042857Y-145625000D01*
X138971428Y-145589285D01*
X138792857Y-145589285D01*
X138685714Y-145625000D01*
X138471428Y-145589285D02*
X138042857Y-145589285D01*
X138257142Y-146339285D02*
X138257142Y-145589285D01*
X123192857Y-146339285D02*
X123192857Y-145589285D01*
X123014285Y-145589285D01*
X122907142Y-145625000D01*
X122835714Y-145696428D01*
X122800000Y-145767857D01*
X122764285Y-145910714D01*
X122764285Y-146017857D01*
X122800000Y-146160714D01*
X122835714Y-146232142D01*
X122907142Y-146303571D01*
X123014285Y-146339285D01*
X123192857Y-146339285D01*
X122442857Y-145946428D02*
X122192857Y-145946428D01*
X122085714Y-146339285D02*
X122442857Y-146339285D01*
X122442857Y-145589285D01*
X122085714Y-145589285D01*
X121871428Y-145589285D02*
X121621428Y-146339285D01*
X121371428Y-145589285D01*
X121121428Y-146339285D02*
X121121428Y-145589285D01*
X120335714Y-146267857D02*
X120371428Y-146303571D01*
X120478571Y-146339285D01*
X120550000Y-146339285D01*
X120657142Y-146303571D01*
X120728571Y-146232142D01*
X120764285Y-146160714D01*
X120800000Y-146017857D01*
X120800000Y-145910714D01*
X120764285Y-145767857D01*
X120728571Y-145696428D01*
X120657142Y-145625000D01*
X120550000Y-145589285D01*
X120478571Y-145589285D01*
X120371428Y-145625000D01*
X120335714Y-145660714D01*
X120014285Y-145946428D02*
X119764285Y-145946428D01*
X119657142Y-146339285D02*
X120014285Y-146339285D01*
X120014285Y-145589285D01*
X119657142Y-145589285D01*
X119335714Y-146053571D02*
X118764285Y-146053571D01*
X119050000Y-146339285D02*
X119050000Y-145767857D01*
X118407142Y-146339285D02*
X118407142Y-145589285D01*
X118121428Y-145589285D01*
X118050000Y-145625000D01*
X118014285Y-145660714D01*
X117978571Y-145732142D01*
X117978571Y-145839285D01*
X118014285Y-145910714D01*
X118050000Y-145946428D01*
X118121428Y-145982142D01*
X118407142Y-145982142D01*
X117728571Y-145589285D02*
X117550000Y-146339285D01*
X117407142Y-145803571D01*
X117264285Y-146339285D01*
X117085714Y-145589285D01*
X116371428Y-146339285D02*
X116621428Y-145982142D01*
X116800000Y-146339285D02*
X116800000Y-145589285D01*
X116514285Y-145589285D01*
X116442857Y-145625000D01*
X116407142Y-145660714D01*
X116371428Y-145732142D01*
X116371428Y-145839285D01*
X116407142Y-145910714D01*
X116442857Y-145946428D01*
X116514285Y-145982142D01*
X116800000Y-145982142D01*
X151420714Y-118026190D02*
X151373095Y-118026190D01*
X151325476Y-118050000D01*
X151301666Y-118073809D01*
X151277857Y-118121428D01*
X151254047Y-118216666D01*
X151254047Y-118335714D01*
X151277857Y-118430952D01*
X151301666Y-118478571D01*
X151325476Y-118502380D01*
X151373095Y-118526190D01*
X151420714Y-118526190D01*
X151468333Y-118502380D01*
X151492142Y-118478571D01*
X151515952Y-118430952D01*
X151539761Y-118335714D01*
X151539761Y-118216666D01*
X151515952Y-118121428D01*
X151492142Y-118073809D01*
X151468333Y-118050000D01*
X151420714Y-118026190D01*
X150777857Y-118526190D02*
X151063571Y-118526190D01*
X150920714Y-118526190D02*
X150920714Y-118026190D01*
X150968333Y-118097619D01*
X151015952Y-118145238D01*
X151063571Y-118169047D01*
X151420714Y-120526190D02*
X151373095Y-120526190D01*
X151325476Y-120550000D01*
X151301666Y-120573809D01*
X151277857Y-120621428D01*
X151254047Y-120716666D01*
X151254047Y-120835714D01*
X151277857Y-120930952D01*
X151301666Y-120978571D01*
X151325476Y-121002380D01*
X151373095Y-121026190D01*
X151420714Y-121026190D01*
X151468333Y-121002380D01*
X151492142Y-120978571D01*
X151515952Y-120930952D01*
X151539761Y-120835714D01*
X151539761Y-120716666D01*
X151515952Y-120621428D01*
X151492142Y-120573809D01*
X151468333Y-120550000D01*
X151420714Y-120526190D01*
X150777857Y-121026190D02*
X151063571Y-121026190D01*
X150920714Y-121026190D02*
X150920714Y-120526190D01*
X150968333Y-120597619D01*
X151015952Y-120645238D01*
X151063571Y-120669047D01*
D10*
%TO.C,D3*%
X125280000Y-68410000D02*
X125436000Y-68410000D01*
X122964000Y-68410000D02*
X123120000Y-68410000D01*
X125279837Y-71011130D02*
G75*
G03*
X125280000Y-68929039I-1079837J1041130D01*
G01*
X123120163Y-71011130D02*
G75*
G02*
X123120000Y-68929039I1079837J1041130D01*
G01*
X125278608Y-71642335D02*
G75*
G03*
X125435516Y-68410000I-1078608J1672335D01*
G01*
X123121392Y-71642335D02*
G75*
G02*
X122964484Y-68410000I1078608J1672335D01*
G01*
%TO.C,D2*%
X130080000Y-68410000D02*
X130236000Y-68410000D01*
X127764000Y-68410000D02*
X127920000Y-68410000D01*
X130079837Y-71011130D02*
G75*
G03*
X130080000Y-68929039I-1079837J1041130D01*
G01*
X127920163Y-71011130D02*
G75*
G02*
X127920000Y-68929039I1079837J1041130D01*
G01*
X130078608Y-71642335D02*
G75*
G03*
X130235516Y-68410000I-1078608J1672335D01*
G01*
X127921392Y-71642335D02*
G75*
G02*
X127764484Y-68410000I1078608J1672335D01*
G01*
%TO.C,D1*%
X134880000Y-68410000D02*
X135036000Y-68410000D01*
X132564000Y-68410000D02*
X132720000Y-68410000D01*
X134879837Y-71011130D02*
G75*
G03*
X134880000Y-68929039I-1079837J1041130D01*
G01*
X132720163Y-71011130D02*
G75*
G02*
X132720000Y-68929039I1079837J1041130D01*
G01*
X134878608Y-71642335D02*
G75*
G03*
X135035516Y-68410000I-1078608J1672335D01*
G01*
X132721392Y-71642335D02*
G75*
G02*
X132564484Y-68410000I1078608J1672335D01*
G01*
D12*
%TO.C,X1*%
G36*
X127906706Y-105422322D02*
G01*
X130220420Y-105422322D01*
X130220420Y-105244345D01*
X127906706Y-105244345D01*
X127906706Y-105422322D01*
G37*
X127906706Y-105422322D02*
X130220420Y-105422322D01*
X130220420Y-105244345D01*
X127906706Y-105244345D01*
X127906706Y-105422322D01*
G36*
X131796796Y-105574875D02*
G01*
X134263063Y-105574875D01*
X134263063Y-105091792D01*
X131796796Y-105091792D01*
X131796796Y-105574875D01*
G37*
X131796796Y-105574875D02*
X134263063Y-105574875D01*
X134263063Y-105091792D01*
X131796796Y-105091792D01*
X131796796Y-105574875D01*
G36*
X135973600Y-103897514D02*
G01*
X135850904Y-103899922D01*
X135768353Y-103904410D01*
X135720603Y-103911363D01*
X135702309Y-103921171D01*
X135703245Y-103928579D01*
X135723375Y-103955397D01*
X135771587Y-104016866D01*
X135843981Y-104108097D01*
X135936661Y-104224205D01*
X136045729Y-104360301D01*
X136167286Y-104511500D01*
X136253497Y-104618472D01*
X136380976Y-104777002D01*
X136498218Y-104923769D01*
X136601379Y-105053884D01*
X136686613Y-105162459D01*
X136750076Y-105244605D01*
X136787923Y-105295433D01*
X136797036Y-105309539D01*
X136784127Y-105334614D01*
X136743414Y-105393939D01*
X136679031Y-105482192D01*
X136595112Y-105594053D01*
X136495791Y-105724201D01*
X136385201Y-105867315D01*
X136267477Y-106018074D01*
X136146752Y-106171157D01*
X136027159Y-106321244D01*
X135912833Y-106463013D01*
X135807908Y-106591144D01*
X135716828Y-106699950D01*
X135706148Y-106715593D01*
X135708767Y-106727039D01*
X135730896Y-106734913D01*
X135778751Y-106739838D01*
X135858544Y-106742439D01*
X135976490Y-106743339D01*
X136138800Y-106743163D01*
X136146960Y-106743140D01*
X136614915Y-106741836D01*
X137182667Y-106032752D01*
X137750419Y-105323669D01*
X137175053Y-104610233D01*
X136599686Y-103896797D01*
X136141786Y-103896797D01*
X135973600Y-103897514D01*
G37*
X135973600Y-103897514D02*
X135850904Y-103899922D01*
X135768353Y-103904410D01*
X135720603Y-103911363D01*
X135702309Y-103921171D01*
X135703245Y-103928579D01*
X135723375Y-103955397D01*
X135771587Y-104016866D01*
X135843981Y-104108097D01*
X135936661Y-104224205D01*
X136045729Y-104360301D01*
X136167286Y-104511500D01*
X136253497Y-104618472D01*
X136380976Y-104777002D01*
X136498218Y-104923769D01*
X136601379Y-105053884D01*
X136686613Y-105162459D01*
X136750076Y-105244605D01*
X136787923Y-105295433D01*
X136797036Y-105309539D01*
X136784127Y-105334614D01*
X136743414Y-105393939D01*
X136679031Y-105482192D01*
X136595112Y-105594053D01*
X136495791Y-105724201D01*
X136385201Y-105867315D01*
X136267477Y-106018074D01*
X136146752Y-106171157D01*
X136027159Y-106321244D01*
X135912833Y-106463013D01*
X135807908Y-106591144D01*
X135716828Y-106699950D01*
X135706148Y-106715593D01*
X135708767Y-106727039D01*
X135730896Y-106734913D01*
X135778751Y-106739838D01*
X135858544Y-106742439D01*
X135976490Y-106743339D01*
X136138800Y-106743163D01*
X136146960Y-106743140D01*
X136614915Y-106741836D01*
X137182667Y-106032752D01*
X137750419Y-105323669D01*
X137175053Y-104610233D01*
X136599686Y-103896797D01*
X136141786Y-103896797D01*
X135973600Y-103897514D01*
G36*
X126311602Y-109317699D02*
G01*
X126114896Y-109325125D01*
X125059400Y-111262387D01*
X124901069Y-111552800D01*
X124749505Y-111830438D01*
X124606494Y-112092048D01*
X124473822Y-112334380D01*
X124353277Y-112554181D01*
X124246646Y-112748200D01*
X124155714Y-112913184D01*
X124082269Y-113045883D01*
X124028098Y-113143043D01*
X123994987Y-113201415D01*
X123984834Y-113218026D01*
X123981816Y-113196206D01*
X123978945Y-113127362D01*
X123976258Y-113015321D01*
X123973794Y-112863910D01*
X123971589Y-112676954D01*
X123969682Y-112458282D01*
X123968109Y-112211719D01*
X123966909Y-111941093D01*
X123966119Y-111650230D01*
X123965777Y-111342957D01*
X123965765Y-111274408D01*
X123965765Y-109312413D01*
X123584384Y-109312413D01*
X123584384Y-114018255D01*
X123778602Y-114010829D01*
X123972821Y-114003404D01*
X125030805Y-112052879D01*
X125188936Y-111761728D01*
X125340340Y-111483709D01*
X125483247Y-111222031D01*
X125615883Y-110979903D01*
X125736480Y-110760534D01*
X125843264Y-110567133D01*
X125934466Y-110402909D01*
X126008314Y-110271072D01*
X126063036Y-110174830D01*
X126096861Y-110117392D01*
X126107857Y-110101478D01*
X126110882Y-110126115D01*
X126113759Y-110197726D01*
X126116450Y-110312434D01*
X126118918Y-110466363D01*
X126121124Y-110655634D01*
X126123032Y-110876372D01*
X126124603Y-111124700D01*
X126125799Y-111396740D01*
X126126583Y-111688616D01*
X126126917Y-111996451D01*
X126126927Y-112058359D01*
X126126927Y-114016116D01*
X126508308Y-114016116D01*
X126508308Y-109310274D01*
X126311602Y-109317699D01*
G37*
X126311602Y-109317699D02*
X126114896Y-109325125D01*
X125059400Y-111262387D01*
X124901069Y-111552800D01*
X124749505Y-111830438D01*
X124606494Y-112092048D01*
X124473822Y-112334380D01*
X124353277Y-112554181D01*
X124246646Y-112748200D01*
X124155714Y-112913184D01*
X124082269Y-113045883D01*
X124028098Y-113143043D01*
X123994987Y-113201415D01*
X123984834Y-113218026D01*
X123981816Y-113196206D01*
X123978945Y-113127362D01*
X123976258Y-113015321D01*
X123973794Y-112863910D01*
X123971589Y-112676954D01*
X123969682Y-112458282D01*
X123968109Y-112211719D01*
X123966909Y-111941093D01*
X123966119Y-111650230D01*
X123965777Y-111342957D01*
X123965765Y-111274408D01*
X123965765Y-109312413D01*
X123584384Y-109312413D01*
X123584384Y-114018255D01*
X123778602Y-114010829D01*
X123972821Y-114003404D01*
X125030805Y-112052879D01*
X125188936Y-111761728D01*
X125340340Y-111483709D01*
X125483247Y-111222031D01*
X125615883Y-110979903D01*
X125736480Y-110760534D01*
X125843264Y-110567133D01*
X125934466Y-110402909D01*
X126008314Y-110271072D01*
X126063036Y-110174830D01*
X126096861Y-110117392D01*
X126107857Y-110101478D01*
X126110882Y-110126115D01*
X126113759Y-110197726D01*
X126116450Y-110312434D01*
X126118918Y-110466363D01*
X126121124Y-110655634D01*
X126123032Y-110876372D01*
X126124603Y-111124700D01*
X126125799Y-111396740D01*
X126126583Y-111688616D01*
X126126917Y-111996451D01*
X126126927Y-112058359D01*
X126126927Y-114016116D01*
X126508308Y-114016116D01*
X126508308Y-109310274D01*
X126311602Y-109317699D01*
G36*
X128822431Y-109321805D02*
G01*
X128793519Y-109330746D01*
X128783732Y-109356481D01*
X128759592Y-109426722D01*
X128722364Y-109537582D01*
X128673314Y-109685175D01*
X128613707Y-109865615D01*
X128544811Y-110075013D01*
X128467891Y-110309485D01*
X128384212Y-110565143D01*
X128295042Y-110838101D01*
X128201647Y-111124473D01*
X128105291Y-111420371D01*
X128007242Y-111721910D01*
X127908765Y-112025202D01*
X127811126Y-112326361D01*
X127715592Y-112621501D01*
X127623428Y-112906735D01*
X127535901Y-113178176D01*
X127454276Y-113431938D01*
X127379820Y-113664135D01*
X127313799Y-113870879D01*
X127282155Y-113970396D01*
X127278305Y-113994312D01*
X127291995Y-114007932D01*
X127332745Y-114013373D01*
X127410074Y-114012749D01*
X127464283Y-114010867D01*
X127661625Y-114003404D01*
X127867161Y-113355055D01*
X128072696Y-112706707D01*
X128947901Y-112700011D01*
X129154132Y-112698982D01*
X129344155Y-112699089D01*
X129511996Y-112700245D01*
X129651685Y-112702367D01*
X129757250Y-112705369D01*
X129822720Y-112709167D01*
X129842219Y-112712724D01*
X129854786Y-112741283D01*
X129880357Y-112811750D01*
X129916697Y-112917522D01*
X129961570Y-113051992D01*
X130012742Y-113208558D01*
X130063886Y-113367768D01*
X130266440Y-114003404D01*
X130459546Y-114010829D01*
X130551230Y-114011924D01*
X130619283Y-114008104D01*
X130651407Y-114000180D01*
X130652438Y-113998117D01*
X130644703Y-113971582D01*
X130622280Y-113900040D01*
X130586244Y-113786827D01*
X130537674Y-113635280D01*
X130477647Y-113448735D01*
X130407239Y-113230531D01*
X130327528Y-112984004D01*
X130239592Y-112712490D01*
X130144507Y-112419327D01*
X130122122Y-112350400D01*
X129737337Y-112350400D01*
X129712939Y-112353646D01*
X129643854Y-112356599D01*
X129536246Y-112359153D01*
X129396278Y-112361206D01*
X129230113Y-112362653D01*
X129043917Y-112363390D01*
X128961861Y-112363464D01*
X128769135Y-112363095D01*
X128593872Y-112362051D01*
X128442236Y-112360426D01*
X128320391Y-112358311D01*
X128234501Y-112355800D01*
X128190728Y-112352987D01*
X128186386Y-112351748D01*
X128193903Y-112325068D01*
X128215674Y-112253649D01*
X128250531Y-112141207D01*
X128297305Y-111991459D01*
X128354827Y-111808119D01*
X128421929Y-111594905D01*
X128497441Y-111355533D01*
X128580195Y-111093719D01*
X128669022Y-110813180D01*
X128762753Y-110517630D01*
X128813129Y-110358978D01*
X128858045Y-110219509D01*
X128897971Y-110099181D01*
X128930347Y-110005415D01*
X128952613Y-109945633D01*
X128962109Y-109927108D01*
X128971218Y-109952130D01*
X128993895Y-110019992D01*
X129028339Y-110125062D01*
X129072748Y-110261709D01*
X129125320Y-110424300D01*
X129184254Y-110607204D01*
X129247747Y-110804789D01*
X129313999Y-111011423D01*
X129381208Y-111221473D01*
X129447571Y-111429308D01*
X129511287Y-111629296D01*
X129570555Y-111815805D01*
X129623572Y-111983203D01*
X129668538Y-112125858D01*
X129703649Y-112238138D01*
X129727106Y-112314411D01*
X129737105Y-112349046D01*
X129737337Y-112350400D01*
X130122122Y-112350400D01*
X130043350Y-112107853D01*
X129937200Y-111781403D01*
X129894941Y-111651552D01*
X129137658Y-109325125D01*
X128976066Y-109317458D01*
X128888902Y-109316549D01*
X128822431Y-109321805D01*
G37*
X128822431Y-109321805D02*
X128793519Y-109330746D01*
X128783732Y-109356481D01*
X128759592Y-109426722D01*
X128722364Y-109537582D01*
X128673314Y-109685175D01*
X128613707Y-109865615D01*
X128544811Y-110075013D01*
X128467891Y-110309485D01*
X128384212Y-110565143D01*
X128295042Y-110838101D01*
X128201647Y-111124473D01*
X128105291Y-111420371D01*
X128007242Y-111721910D01*
X127908765Y-112025202D01*
X127811126Y-112326361D01*
X127715592Y-112621501D01*
X127623428Y-112906735D01*
X127535901Y-113178176D01*
X127454276Y-113431938D01*
X127379820Y-113664135D01*
X127313799Y-113870879D01*
X127282155Y-113970396D01*
X127278305Y-113994312D01*
X127291995Y-114007932D01*
X127332745Y-114013373D01*
X127410074Y-114012749D01*
X127464283Y-114010867D01*
X127661625Y-114003404D01*
X127867161Y-113355055D01*
X128072696Y-112706707D01*
X128947901Y-112700011D01*
X129154132Y-112698982D01*
X129344155Y-112699089D01*
X129511996Y-112700245D01*
X129651685Y-112702367D01*
X129757250Y-112705369D01*
X129822720Y-112709167D01*
X129842219Y-112712724D01*
X129854786Y-112741283D01*
X129880357Y-112811750D01*
X129916697Y-112917522D01*
X129961570Y-113051992D01*
X130012742Y-113208558D01*
X130063886Y-113367768D01*
X130266440Y-114003404D01*
X130459546Y-114010829D01*
X130551230Y-114011924D01*
X130619283Y-114008104D01*
X130651407Y-114000180D01*
X130652438Y-113998117D01*
X130644703Y-113971582D01*
X130622280Y-113900040D01*
X130586244Y-113786827D01*
X130537674Y-113635280D01*
X130477647Y-113448735D01*
X130407239Y-113230531D01*
X130327528Y-112984004D01*
X130239592Y-112712490D01*
X130144507Y-112419327D01*
X130122122Y-112350400D01*
X129737337Y-112350400D01*
X129712939Y-112353646D01*
X129643854Y-112356599D01*
X129536246Y-112359153D01*
X129396278Y-112361206D01*
X129230113Y-112362653D01*
X129043917Y-112363390D01*
X128961861Y-112363464D01*
X128769135Y-112363095D01*
X128593872Y-112362051D01*
X128442236Y-112360426D01*
X128320391Y-112358311D01*
X128234501Y-112355800D01*
X128190728Y-112352987D01*
X128186386Y-112351748D01*
X128193903Y-112325068D01*
X128215674Y-112253649D01*
X128250531Y-112141207D01*
X128297305Y-111991459D01*
X128354827Y-111808119D01*
X128421929Y-111594905D01*
X128497441Y-111355533D01*
X128580195Y-111093719D01*
X128669022Y-110813180D01*
X128762753Y-110517630D01*
X128813129Y-110358978D01*
X128858045Y-110219509D01*
X128897971Y-110099181D01*
X128930347Y-110005415D01*
X128952613Y-109945633D01*
X128962109Y-109927108D01*
X128971218Y-109952130D01*
X128993895Y-110019992D01*
X129028339Y-110125062D01*
X129072748Y-110261709D01*
X129125320Y-110424300D01*
X129184254Y-110607204D01*
X129247747Y-110804789D01*
X129313999Y-111011423D01*
X129381208Y-111221473D01*
X129447571Y-111429308D01*
X129511287Y-111629296D01*
X129570555Y-111815805D01*
X129623572Y-111983203D01*
X129668538Y-112125858D01*
X129703649Y-112238138D01*
X129727106Y-112314411D01*
X129737105Y-112349046D01*
X129737337Y-112350400D01*
X130122122Y-112350400D01*
X130043350Y-112107853D01*
X129937200Y-111781403D01*
X129894941Y-111651552D01*
X129137658Y-109325125D01*
X128976066Y-109317458D01*
X128888902Y-109316549D01*
X128822431Y-109321805D01*
G36*
X133856256Y-113685586D02*
G01*
X131466266Y-113685586D01*
X131466266Y-114016116D01*
X134237637Y-114016116D01*
X134237637Y-109312413D01*
X133856256Y-109312413D01*
X133856256Y-113685586D01*
G37*
X133856256Y-113685586D02*
X131466266Y-113685586D01*
X131466266Y-114016116D01*
X134237637Y-114016116D01*
X134237637Y-109312413D01*
X133856256Y-109312413D01*
X133856256Y-113685586D01*
G36*
X135307941Y-109319540D02*
G01*
X135262109Y-109325908D01*
X135255288Y-109330528D01*
X135271457Y-109353129D01*
X135317683Y-109410691D01*
X135390918Y-109499579D01*
X135488113Y-109616156D01*
X135606220Y-109756786D01*
X135742189Y-109917832D01*
X135892973Y-110095658D01*
X136055523Y-110286628D01*
X136132310Y-110376603D01*
X136317000Y-110593753D01*
X136484079Y-110792040D01*
X136631304Y-110968707D01*
X136756434Y-111121000D01*
X136857225Y-111246163D01*
X136931437Y-111341441D01*
X136976826Y-111404079D01*
X136991151Y-111431321D01*
X136990981Y-111431758D01*
X136971453Y-111459759D01*
X136925039Y-111524363D01*
X136854948Y-111621182D01*
X136764390Y-111745830D01*
X136656575Y-111893920D01*
X136534710Y-112061065D01*
X136402006Y-112242879D01*
X136261672Y-112434974D01*
X136116917Y-112632965D01*
X135970951Y-112832463D01*
X135826982Y-113029084D01*
X135688220Y-113218439D01*
X135557874Y-113396142D01*
X135439154Y-113557807D01*
X135335269Y-113699046D01*
X135249428Y-113815473D01*
X135184840Y-113902702D01*
X135144715Y-113956344D01*
X135132849Y-113971622D01*
X135118210Y-113992124D01*
X135122591Y-114005128D01*
X135153807Y-114012331D01*
X135219670Y-114015427D01*
X135327995Y-114016115D01*
X135337816Y-114016116D01*
X135581411Y-114016116D01*
X136428694Y-112856403D01*
X137275976Y-111696689D01*
X137871974Y-112325325D01*
X137872724Y-113170721D01*
X137873473Y-114016116D01*
X138280545Y-114016116D01*
X138274056Y-111670621D01*
X138267567Y-109325125D01*
X137886186Y-109325125D01*
X137873473Y-110566036D01*
X137860760Y-111806946D01*
X137207830Y-111049119D01*
X137041501Y-110856035D01*
X136866461Y-110652782D01*
X136689996Y-110447823D01*
X136519392Y-110249621D01*
X136361932Y-110066640D01*
X136224905Y-109907344D01*
X136139668Y-109808208D01*
X135724435Y-109325125D01*
X135489545Y-109317815D01*
X135387466Y-109316641D01*
X135307941Y-109319540D01*
G37*
X135307941Y-109319540D02*
X135262109Y-109325908D01*
X135255288Y-109330528D01*
X135271457Y-109353129D01*
X135317683Y-109410691D01*
X135390918Y-109499579D01*
X135488113Y-109616156D01*
X135606220Y-109756786D01*
X135742189Y-109917832D01*
X135892973Y-110095658D01*
X136055523Y-110286628D01*
X136132310Y-110376603D01*
X136317000Y-110593753D01*
X136484079Y-110792040D01*
X136631304Y-110968707D01*
X136756434Y-111121000D01*
X136857225Y-111246163D01*
X136931437Y-111341441D01*
X136976826Y-111404079D01*
X136991151Y-111431321D01*
X136990981Y-111431758D01*
X136971453Y-111459759D01*
X136925039Y-111524363D01*
X136854948Y-111621182D01*
X136764390Y-111745830D01*
X136656575Y-111893920D01*
X136534710Y-112061065D01*
X136402006Y-112242879D01*
X136261672Y-112434974D01*
X136116917Y-112632965D01*
X135970951Y-112832463D01*
X135826982Y-113029084D01*
X135688220Y-113218439D01*
X135557874Y-113396142D01*
X135439154Y-113557807D01*
X135335269Y-113699046D01*
X135249428Y-113815473D01*
X135184840Y-113902702D01*
X135144715Y-113956344D01*
X135132849Y-113971622D01*
X135118210Y-113992124D01*
X135122591Y-114005128D01*
X135153807Y-114012331D01*
X135219670Y-114015427D01*
X135327995Y-114016115D01*
X135337816Y-114016116D01*
X135581411Y-114016116D01*
X136428694Y-112856403D01*
X137275976Y-111696689D01*
X137871974Y-112325325D01*
X137872724Y-113170721D01*
X137873473Y-114016116D01*
X138280545Y-114016116D01*
X138274056Y-111670621D01*
X138267567Y-109325125D01*
X137886186Y-109325125D01*
X137873473Y-110566036D01*
X137860760Y-111806946D01*
X137207830Y-111049119D01*
X137041501Y-110856035D01*
X136866461Y-110652782D01*
X136689996Y-110447823D01*
X136519392Y-110249621D01*
X136361932Y-110066640D01*
X136224905Y-109907344D01*
X136139668Y-109808208D01*
X135724435Y-109325125D01*
X135489545Y-109317815D01*
X135387466Y-109316641D01*
X135307941Y-109319540D01*
G36*
X120966040Y-109267302D02*
G01*
X120679510Y-109301595D01*
X120421323Y-109378072D01*
X120191178Y-109496897D01*
X119988775Y-109658235D01*
X119813815Y-109862253D01*
X119768860Y-109928353D01*
X119709278Y-110035146D01*
X119651497Y-110163900D01*
X119600957Y-110299495D01*
X119563099Y-110426811D01*
X119543362Y-110530726D01*
X119541741Y-110559571D01*
X119541741Y-110634535D01*
X119913509Y-110634535D01*
X119945262Y-110510644D01*
X120027468Y-110278045D01*
X120145788Y-110071786D01*
X120295517Y-109896623D01*
X120471952Y-109757309D01*
X120670390Y-109658601D01*
X120832343Y-109613792D01*
X121067384Y-109593595D01*
X121290651Y-109621565D01*
X121499077Y-109695771D01*
X121689598Y-109814280D01*
X121859151Y-109975161D01*
X122004669Y-110176482D01*
X122123088Y-110416311D01*
X122128970Y-110431131D01*
X122169975Y-110539307D01*
X122202255Y-110636031D01*
X122227003Y-110729867D01*
X122245413Y-110829382D01*
X122258679Y-110943142D01*
X122267995Y-111079712D01*
X122274554Y-111247658D01*
X122279551Y-111455546D01*
X122280804Y-111520503D01*
X122284217Y-111775322D01*
X122283526Y-111987669D01*
X122277940Y-112165815D01*
X122266664Y-112318032D01*
X122248908Y-112452591D01*
X122223879Y-112577762D01*
X122190785Y-112701817D01*
X122157566Y-112807030D01*
X122061908Y-113047310D01*
X121946992Y-113246754D01*
X121808164Y-113413233D01*
X121787133Y-113433806D01*
X121619711Y-113571421D01*
X121447684Y-113664683D01*
X121260673Y-113717305D01*
X121048297Y-113733001D01*
X120959069Y-113730072D01*
X120724849Y-113694031D01*
X120516460Y-113614282D01*
X120334275Y-113491136D01*
X120178666Y-113324904D01*
X120050005Y-113115896D01*
X119958586Y-112894520D01*
X119929568Y-112798674D01*
X119911226Y-112707323D01*
X119901379Y-112603666D01*
X119897850Y-112470900D01*
X119897697Y-112425088D01*
X119897697Y-112135627D01*
X120450700Y-112128774D01*
X121003703Y-112121922D01*
X121003703Y-111791392D01*
X119529029Y-111791392D01*
X119521803Y-112249049D01*
X119520958Y-112474109D01*
X119527471Y-112659095D01*
X119543146Y-112814479D01*
X119569784Y-112950734D01*
X119609187Y-113078332D01*
X119663158Y-113207746D01*
X119699869Y-113283819D01*
X119837793Y-113504499D01*
X120012095Y-113693483D01*
X120217375Y-113848059D01*
X120448227Y-113965517D01*
X120699249Y-114043145D01*
X120965038Y-114078230D01*
X121240192Y-114068061D01*
X121257958Y-114065810D01*
X121517712Y-114006884D01*
X121756393Y-113902246D01*
X121972336Y-113753183D01*
X122163879Y-113560983D01*
X122329361Y-113326935D01*
X122413617Y-113170725D01*
X122482034Y-113023317D01*
X122536304Y-112887597D01*
X122578342Y-112754052D01*
X122610061Y-112613170D01*
X122633376Y-112455439D01*
X122650201Y-112271345D01*
X122662449Y-112051377D01*
X122668134Y-111905806D01*
X122675782Y-111591814D01*
X122674363Y-111320389D01*
X122662754Y-111083875D01*
X122639835Y-110874613D01*
X122604484Y-110684944D01*
X122555579Y-110507211D01*
X122492000Y-110333755D01*
X122412626Y-110156919D01*
X122411834Y-110155285D01*
X122342533Y-110019701D01*
X122277655Y-109913576D01*
X122204313Y-109818555D01*
X122109624Y-109716282D01*
X122088957Y-109695321D01*
X121899445Y-109526465D01*
X121706916Y-109402466D01*
X121502400Y-109319908D01*
X121276928Y-109275371D01*
X121021531Y-109265436D01*
X120966040Y-109267302D01*
G37*
X120966040Y-109267302D02*
X120679510Y-109301595D01*
X120421323Y-109378072D01*
X120191178Y-109496897D01*
X119988775Y-109658235D01*
X119813815Y-109862253D01*
X119768860Y-109928353D01*
X119709278Y-110035146D01*
X119651497Y-110163900D01*
X119600957Y-110299495D01*
X119563099Y-110426811D01*
X119543362Y-110530726D01*
X119541741Y-110559571D01*
X119541741Y-110634535D01*
X119913509Y-110634535D01*
X119945262Y-110510644D01*
X120027468Y-110278045D01*
X120145788Y-110071786D01*
X120295517Y-109896623D01*
X120471952Y-109757309D01*
X120670390Y-109658601D01*
X120832343Y-109613792D01*
X121067384Y-109593595D01*
X121290651Y-109621565D01*
X121499077Y-109695771D01*
X121689598Y-109814280D01*
X121859151Y-109975161D01*
X122004669Y-110176482D01*
X122123088Y-110416311D01*
X122128970Y-110431131D01*
X122169975Y-110539307D01*
X122202255Y-110636031D01*
X122227003Y-110729867D01*
X122245413Y-110829382D01*
X122258679Y-110943142D01*
X122267995Y-111079712D01*
X122274554Y-111247658D01*
X122279551Y-111455546D01*
X122280804Y-111520503D01*
X122284217Y-111775322D01*
X122283526Y-111987669D01*
X122277940Y-112165815D01*
X122266664Y-112318032D01*
X122248908Y-112452591D01*
X122223879Y-112577762D01*
X122190785Y-112701817D01*
X122157566Y-112807030D01*
X122061908Y-113047310D01*
X121946992Y-113246754D01*
X121808164Y-113413233D01*
X121787133Y-113433806D01*
X121619711Y-113571421D01*
X121447684Y-113664683D01*
X121260673Y-113717305D01*
X121048297Y-113733001D01*
X120959069Y-113730072D01*
X120724849Y-113694031D01*
X120516460Y-113614282D01*
X120334275Y-113491136D01*
X120178666Y-113324904D01*
X120050005Y-113115896D01*
X119958586Y-112894520D01*
X119929568Y-112798674D01*
X119911226Y-112707323D01*
X119901379Y-112603666D01*
X119897850Y-112470900D01*
X119897697Y-112425088D01*
X119897697Y-112135627D01*
X120450700Y-112128774D01*
X121003703Y-112121922D01*
X121003703Y-111791392D01*
X119529029Y-111791392D01*
X119521803Y-112249049D01*
X119520958Y-112474109D01*
X119527471Y-112659095D01*
X119543146Y-112814479D01*
X119569784Y-112950734D01*
X119609187Y-113078332D01*
X119663158Y-113207746D01*
X119699869Y-113283819D01*
X119837793Y-113504499D01*
X120012095Y-113693483D01*
X120217375Y-113848059D01*
X120448227Y-113965517D01*
X120699249Y-114043145D01*
X120965038Y-114078230D01*
X121240192Y-114068061D01*
X121257958Y-114065810D01*
X121517712Y-114006884D01*
X121756393Y-113902246D01*
X121972336Y-113753183D01*
X122163879Y-113560983D01*
X122329361Y-113326935D01*
X122413617Y-113170725D01*
X122482034Y-113023317D01*
X122536304Y-112887597D01*
X122578342Y-112754052D01*
X122610061Y-112613170D01*
X122633376Y-112455439D01*
X122650201Y-112271345D01*
X122662449Y-112051377D01*
X122668134Y-111905806D01*
X122675782Y-111591814D01*
X122674363Y-111320389D01*
X122662754Y-111083875D01*
X122639835Y-110874613D01*
X122604484Y-110684944D01*
X122555579Y-110507211D01*
X122492000Y-110333755D01*
X122412626Y-110156919D01*
X122411834Y-110155285D01*
X122342533Y-110019701D01*
X122277655Y-109913576D01*
X122204313Y-109818555D01*
X122109624Y-109716282D01*
X122088957Y-109695321D01*
X121899445Y-109526465D01*
X121706916Y-109402466D01*
X121502400Y-109319908D01*
X121276928Y-109275371D01*
X121021531Y-109265436D01*
X120966040Y-109267302D01*
G36*
X119567167Y-119635135D02*
G01*
X119956905Y-119635135D01*
X119940915Y-117569319D01*
X119924924Y-115503504D01*
X119982405Y-115643344D01*
X120002579Y-115694463D01*
X120038631Y-115788025D01*
X120088599Y-115918854D01*
X120150520Y-116081775D01*
X120222430Y-116271613D01*
X120302367Y-116483191D01*
X120388369Y-116711335D01*
X120478471Y-116950868D01*
X120495895Y-116997247D01*
X120951903Y-118211311D01*
X121085861Y-118211311D01*
X121160613Y-118209719D01*
X121209239Y-118205629D01*
X121219819Y-118202019D01*
X121228158Y-118174513D01*
X121251899Y-118104536D01*
X121289127Y-117997432D01*
X121337928Y-117858541D01*
X121396386Y-117693207D01*
X121462588Y-117506769D01*
X121534619Y-117304572D01*
X121610564Y-117091955D01*
X121688509Y-116874262D01*
X121766539Y-116656834D01*
X121842739Y-116445013D01*
X121915195Y-116244141D01*
X121981993Y-116059559D01*
X122041217Y-115896609D01*
X122090954Y-115760634D01*
X122129288Y-115656975D01*
X122154305Y-115590975D01*
X122163775Y-115568300D01*
X122178416Y-115556383D01*
X122180526Y-115588400D01*
X122176000Y-115630631D01*
X122173661Y-115671944D01*
X122170991Y-115759946D01*
X122168055Y-115890478D01*
X122164914Y-116059380D01*
X122161631Y-116262492D01*
X122158271Y-116495653D01*
X122154894Y-116754705D01*
X122151565Y-117035486D01*
X122148347Y-117333838D01*
X122145301Y-117645601D01*
X122144950Y-117683734D01*
X122127107Y-119635135D01*
X122516516Y-119635135D01*
X122516516Y-114931432D01*
X122268618Y-114931722D01*
X122020720Y-114932013D01*
X121552312Y-116253688D01*
X121464783Y-116500160D01*
X121382309Y-116731427D01*
X121306443Y-116943196D01*
X121238740Y-117131177D01*
X121180753Y-117291078D01*
X121134037Y-117418609D01*
X121100146Y-117509477D01*
X121080632Y-117559392D01*
X121076419Y-117567877D01*
X121066283Y-117543376D01*
X121039844Y-117475626D01*
X120998756Y-117368956D01*
X120944670Y-117227692D01*
X120879237Y-117056162D01*
X120804109Y-116858694D01*
X120720938Y-116639615D01*
X120631376Y-116403252D01*
X120574249Y-116252268D01*
X120079564Y-114944144D01*
X119823366Y-114936898D01*
X119567167Y-114929653D01*
X119567167Y-119635135D01*
G37*
X119567167Y-119635135D02*
X119956905Y-119635135D01*
X119940915Y-117569319D01*
X119924924Y-115503504D01*
X119982405Y-115643344D01*
X120002579Y-115694463D01*
X120038631Y-115788025D01*
X120088599Y-115918854D01*
X120150520Y-116081775D01*
X120222430Y-116271613D01*
X120302367Y-116483191D01*
X120388369Y-116711335D01*
X120478471Y-116950868D01*
X120495895Y-116997247D01*
X120951903Y-118211311D01*
X121085861Y-118211311D01*
X121160613Y-118209719D01*
X121209239Y-118205629D01*
X121219819Y-118202019D01*
X121228158Y-118174513D01*
X121251899Y-118104536D01*
X121289127Y-117997432D01*
X121337928Y-117858541D01*
X121396386Y-117693207D01*
X121462588Y-117506769D01*
X121534619Y-117304572D01*
X121610564Y-117091955D01*
X121688509Y-116874262D01*
X121766539Y-116656834D01*
X121842739Y-116445013D01*
X121915195Y-116244141D01*
X121981993Y-116059559D01*
X122041217Y-115896609D01*
X122090954Y-115760634D01*
X122129288Y-115656975D01*
X122154305Y-115590975D01*
X122163775Y-115568300D01*
X122178416Y-115556383D01*
X122180526Y-115588400D01*
X122176000Y-115630631D01*
X122173661Y-115671944D01*
X122170991Y-115759946D01*
X122168055Y-115890478D01*
X122164914Y-116059380D01*
X122161631Y-116262492D01*
X122158271Y-116495653D01*
X122154894Y-116754705D01*
X122151565Y-117035486D01*
X122148347Y-117333838D01*
X122145301Y-117645601D01*
X122144950Y-117683734D01*
X122127107Y-119635135D01*
X122516516Y-119635135D01*
X122516516Y-114931432D01*
X122268618Y-114931722D01*
X122020720Y-114932013D01*
X121552312Y-116253688D01*
X121464783Y-116500160D01*
X121382309Y-116731427D01*
X121306443Y-116943196D01*
X121238740Y-117131177D01*
X121180753Y-117291078D01*
X121134037Y-117418609D01*
X121100146Y-117509477D01*
X121080632Y-117559392D01*
X121076419Y-117567877D01*
X121066283Y-117543376D01*
X121039844Y-117475626D01*
X120998756Y-117368956D01*
X120944670Y-117227692D01*
X120879237Y-117056162D01*
X120804109Y-116858694D01*
X120720938Y-116639615D01*
X120631376Y-116403252D01*
X120574249Y-116252268D01*
X120079564Y-114944144D01*
X119823366Y-114936898D01*
X119567167Y-114929653D01*
X119567167Y-119635135D01*
G36*
X129514864Y-114937730D02*
G01*
X129268116Y-114941376D01*
X129065374Y-114945848D01*
X128899797Y-114952130D01*
X128764542Y-114961209D01*
X128652765Y-114974069D01*
X128557624Y-114991697D01*
X128472275Y-115015076D01*
X128389876Y-115045193D01*
X128303583Y-115083032D01*
X128216609Y-115124664D01*
X128007459Y-115254180D01*
X127828120Y-115421120D01*
X127683928Y-115618666D01*
X127580224Y-115839997D01*
X127537257Y-115992440D01*
X127503546Y-116262728D01*
X127518225Y-116520080D01*
X127579759Y-116761233D01*
X127686617Y-116982925D01*
X127837264Y-117181897D01*
X128030168Y-117354885D01*
X128239270Y-117485992D01*
X128321988Y-117530392D01*
X128383818Y-117565356D01*
X128413917Y-117584700D01*
X128415215Y-117586340D01*
X128403653Y-117609706D01*
X128370590Y-117673337D01*
X128318455Y-117772629D01*
X128249681Y-117902979D01*
X128166698Y-118059785D01*
X128071938Y-118238444D01*
X127967831Y-118434354D01*
X127895544Y-118570188D01*
X127785811Y-118776554D01*
X127683192Y-118970082D01*
X127590230Y-119145941D01*
X127509466Y-119299299D01*
X127443441Y-119425322D01*
X127394696Y-119519178D01*
X127365774Y-119576035D01*
X127358890Y-119590641D01*
X127355221Y-119612374D01*
X127370599Y-119625563D01*
X127414048Y-119632227D01*
X127494591Y-119634387D01*
X127554386Y-119634399D01*
X127766866Y-119633662D01*
X128275375Y-118655642D01*
X128783883Y-117677621D01*
X129362312Y-117677499D01*
X129940740Y-117677378D01*
X129940740Y-119635135D01*
X130322122Y-119635135D01*
X130322122Y-117346847D01*
X129940740Y-117346847D01*
X129400450Y-117346471D01*
X129182293Y-117344921D01*
X129008366Y-117340365D01*
X128872120Y-117332444D01*
X128767003Y-117320795D01*
X128697097Y-117307659D01*
X128489977Y-117239034D01*
X128311358Y-117134552D01*
X128148508Y-116986765D01*
X128148383Y-116986630D01*
X128020284Y-116813439D01*
X127935733Y-116623163D01*
X127893451Y-116422724D01*
X127892159Y-116219044D01*
X127930577Y-116019044D01*
X128007426Y-115829646D01*
X128121427Y-115657771D01*
X128271301Y-115510341D01*
X128441370Y-115401432D01*
X128540318Y-115356760D01*
X128644644Y-115322269D01*
X128762425Y-115296817D01*
X128901740Y-115279263D01*
X129070664Y-115268468D01*
X129277275Y-115263291D01*
X129425875Y-115262404D01*
X129940740Y-115261962D01*
X129940740Y-117346847D01*
X130322122Y-117346847D01*
X130322122Y-114927122D01*
X129514864Y-114937730D01*
G37*
X129514864Y-114937730D02*
X129268116Y-114941376D01*
X129065374Y-114945848D01*
X128899797Y-114952130D01*
X128764542Y-114961209D01*
X128652765Y-114974069D01*
X128557624Y-114991697D01*
X128472275Y-115015076D01*
X128389876Y-115045193D01*
X128303583Y-115083032D01*
X128216609Y-115124664D01*
X128007459Y-115254180D01*
X127828120Y-115421120D01*
X127683928Y-115618666D01*
X127580224Y-115839997D01*
X127537257Y-115992440D01*
X127503546Y-116262728D01*
X127518225Y-116520080D01*
X127579759Y-116761233D01*
X127686617Y-116982925D01*
X127837264Y-117181897D01*
X128030168Y-117354885D01*
X128239270Y-117485992D01*
X128321988Y-117530392D01*
X128383818Y-117565356D01*
X128413917Y-117584700D01*
X128415215Y-117586340D01*
X128403653Y-117609706D01*
X128370590Y-117673337D01*
X128318455Y-117772629D01*
X128249681Y-117902979D01*
X128166698Y-118059785D01*
X128071938Y-118238444D01*
X127967831Y-118434354D01*
X127895544Y-118570188D01*
X127785811Y-118776554D01*
X127683192Y-118970082D01*
X127590230Y-119145941D01*
X127509466Y-119299299D01*
X127443441Y-119425322D01*
X127394696Y-119519178D01*
X127365774Y-119576035D01*
X127358890Y-119590641D01*
X127355221Y-119612374D01*
X127370599Y-119625563D01*
X127414048Y-119632227D01*
X127494591Y-119634387D01*
X127554386Y-119634399D01*
X127766866Y-119633662D01*
X128275375Y-118655642D01*
X128783883Y-117677621D01*
X129362312Y-117677499D01*
X129940740Y-117677378D01*
X129940740Y-119635135D01*
X130322122Y-119635135D01*
X130322122Y-117346847D01*
X129940740Y-117346847D01*
X129400450Y-117346471D01*
X129182293Y-117344921D01*
X129008366Y-117340365D01*
X128872120Y-117332444D01*
X128767003Y-117320795D01*
X128697097Y-117307659D01*
X128489977Y-117239034D01*
X128311358Y-117134552D01*
X128148508Y-116986765D01*
X128148383Y-116986630D01*
X128020284Y-116813439D01*
X127935733Y-116623163D01*
X127893451Y-116422724D01*
X127892159Y-116219044D01*
X127930577Y-116019044D01*
X128007426Y-115829646D01*
X128121427Y-115657771D01*
X128271301Y-115510341D01*
X128441370Y-115401432D01*
X128540318Y-115356760D01*
X128644644Y-115322269D01*
X128762425Y-115296817D01*
X128901740Y-115279263D01*
X129070664Y-115268468D01*
X129277275Y-115263291D01*
X129425875Y-115262404D01*
X129940740Y-115261962D01*
X129940740Y-117346847D01*
X130322122Y-117346847D01*
X130322122Y-114927122D01*
X129514864Y-114937730D01*
G36*
X131288288Y-115261962D02*
G01*
X132762963Y-115261962D01*
X132762963Y-119635135D01*
X133144060Y-119635135D01*
X133150558Y-117454905D01*
X133157057Y-115274675D01*
X133900750Y-115267934D01*
X134644444Y-115261194D01*
X134644444Y-114931432D01*
X131288288Y-114931432D01*
X131288288Y-115261962D01*
G37*
X131288288Y-115261962D02*
X132762963Y-115261962D01*
X132762963Y-119635135D01*
X133144060Y-119635135D01*
X133150558Y-117454905D01*
X133157057Y-115274675D01*
X133900750Y-115267934D01*
X134644444Y-115261194D01*
X134644444Y-114931432D01*
X131288288Y-114931432D01*
X131288288Y-115261962D01*
G36*
X124942377Y-114884187D02*
G01*
X124778551Y-114898068D01*
X124669531Y-114918598D01*
X124431977Y-115006280D01*
X124216156Y-115139203D01*
X124023863Y-115315827D01*
X123856891Y-115534616D01*
X123765103Y-115694194D01*
X123676243Y-115882325D01*
X123606093Y-116068675D01*
X123552488Y-116263198D01*
X123513266Y-116475846D01*
X123486261Y-116716570D01*
X123469310Y-116995324D01*
X123466560Y-117067167D01*
X123461541Y-117433814D01*
X123474214Y-117759133D01*
X123505579Y-118049830D01*
X123556638Y-118312611D01*
X123628392Y-118554181D01*
X123721844Y-118781248D01*
X123722852Y-118783384D01*
X123865480Y-119043210D01*
X124026964Y-119256979D01*
X124209466Y-119426663D01*
X124415149Y-119554237D01*
X124646174Y-119641675D01*
X124669879Y-119648060D01*
X124790790Y-119669205D01*
X124941392Y-119680576D01*
X125103345Y-119682180D01*
X125258305Y-119674023D01*
X125387931Y-119656111D01*
X125422954Y-119647805D01*
X125658701Y-119557134D01*
X125873358Y-119421796D01*
X126065041Y-119244206D01*
X126231863Y-119026784D01*
X126371938Y-118771946D01*
X126483382Y-118482109D01*
X126557689Y-118193101D01*
X126596450Y-117946306D01*
X126620631Y-117667439D01*
X126630465Y-117369685D01*
X126629041Y-117268630D01*
X126254032Y-117268630D01*
X126240521Y-117661224D01*
X126200270Y-118014950D01*
X126133604Y-118328941D01*
X126040849Y-118602331D01*
X125922332Y-118834251D01*
X125778378Y-119023836D01*
X125609313Y-119170217D01*
X125518764Y-119225186D01*
X125420601Y-119272161D01*
X125321679Y-119311009D01*
X125256562Y-119330077D01*
X125106528Y-119345616D01*
X124935701Y-119337737D01*
X124767308Y-119308470D01*
X124669585Y-119278724D01*
X124492168Y-119185838D01*
X124330287Y-119047650D01*
X124187042Y-118868164D01*
X124065531Y-118651384D01*
X123968850Y-118401314D01*
X123954873Y-118354975D01*
X123904869Y-118136060D01*
X123868758Y-117880143D01*
X123846619Y-117599163D01*
X123838532Y-117305056D01*
X123844576Y-117009758D01*
X123864829Y-116725208D01*
X123899372Y-116463343D01*
X123941010Y-116263646D01*
X124026722Y-116003743D01*
X124140436Y-115777062D01*
X124278635Y-115585721D01*
X124437802Y-115431837D01*
X124614423Y-115317530D01*
X124804981Y-115244918D01*
X125005960Y-115216118D01*
X125213843Y-115233249D01*
X125425116Y-115298429D01*
X125491932Y-115329314D01*
X125678866Y-115451105D01*
X125840142Y-115616161D01*
X125975436Y-115823657D01*
X126084424Y-116072765D01*
X126166780Y-116362659D01*
X126222180Y-116692514D01*
X126250300Y-117061503D01*
X126254032Y-117268630D01*
X126629041Y-117268630D01*
X126626186Y-117066230D01*
X126608029Y-116770262D01*
X126576226Y-116494968D01*
X126531012Y-116253534D01*
X126522684Y-116219458D01*
X126427049Y-115919359D01*
X126301698Y-115651453D01*
X126149070Y-115418632D01*
X125971599Y-115223786D01*
X125771722Y-115069803D01*
X125551876Y-114959576D01*
X125426838Y-114919556D01*
X125286895Y-114894956D01*
X125118616Y-114883158D01*
X124942377Y-114884187D01*
G37*
X124942377Y-114884187D02*
X124778551Y-114898068D01*
X124669531Y-114918598D01*
X124431977Y-115006280D01*
X124216156Y-115139203D01*
X124023863Y-115315827D01*
X123856891Y-115534616D01*
X123765103Y-115694194D01*
X123676243Y-115882325D01*
X123606093Y-116068675D01*
X123552488Y-116263198D01*
X123513266Y-116475846D01*
X123486261Y-116716570D01*
X123469310Y-116995324D01*
X123466560Y-117067167D01*
X123461541Y-117433814D01*
X123474214Y-117759133D01*
X123505579Y-118049830D01*
X123556638Y-118312611D01*
X123628392Y-118554181D01*
X123721844Y-118781248D01*
X123722852Y-118783384D01*
X123865480Y-119043210D01*
X124026964Y-119256979D01*
X124209466Y-119426663D01*
X124415149Y-119554237D01*
X124646174Y-119641675D01*
X124669879Y-119648060D01*
X124790790Y-119669205D01*
X124941392Y-119680576D01*
X125103345Y-119682180D01*
X125258305Y-119674023D01*
X125387931Y-119656111D01*
X125422954Y-119647805D01*
X125658701Y-119557134D01*
X125873358Y-119421796D01*
X126065041Y-119244206D01*
X126231863Y-119026784D01*
X126371938Y-118771946D01*
X126483382Y-118482109D01*
X126557689Y-118193101D01*
X126596450Y-117946306D01*
X126620631Y-117667439D01*
X126630465Y-117369685D01*
X126629041Y-117268630D01*
X126254032Y-117268630D01*
X126240521Y-117661224D01*
X126200270Y-118014950D01*
X126133604Y-118328941D01*
X126040849Y-118602331D01*
X125922332Y-118834251D01*
X125778378Y-119023836D01*
X125609313Y-119170217D01*
X125518764Y-119225186D01*
X125420601Y-119272161D01*
X125321679Y-119311009D01*
X125256562Y-119330077D01*
X125106528Y-119345616D01*
X124935701Y-119337737D01*
X124767308Y-119308470D01*
X124669585Y-119278724D01*
X124492168Y-119185838D01*
X124330287Y-119047650D01*
X124187042Y-118868164D01*
X124065531Y-118651384D01*
X123968850Y-118401314D01*
X123954873Y-118354975D01*
X123904869Y-118136060D01*
X123868758Y-117880143D01*
X123846619Y-117599163D01*
X123838532Y-117305056D01*
X123844576Y-117009758D01*
X123864829Y-116725208D01*
X123899372Y-116463343D01*
X123941010Y-116263646D01*
X124026722Y-116003743D01*
X124140436Y-115777062D01*
X124278635Y-115585721D01*
X124437802Y-115431837D01*
X124614423Y-115317530D01*
X124804981Y-115244918D01*
X125005960Y-115216118D01*
X125213843Y-115233249D01*
X125425116Y-115298429D01*
X125491932Y-115329314D01*
X125678866Y-115451105D01*
X125840142Y-115616161D01*
X125975436Y-115823657D01*
X126084424Y-116072765D01*
X126166780Y-116362659D01*
X126222180Y-116692514D01*
X126250300Y-117061503D01*
X126254032Y-117268630D01*
X126629041Y-117268630D01*
X126626186Y-117066230D01*
X126608029Y-116770262D01*
X126576226Y-116494968D01*
X126531012Y-116253534D01*
X126522684Y-116219458D01*
X126427049Y-115919359D01*
X126301698Y-115651453D01*
X126149070Y-115418632D01*
X125971599Y-115223786D01*
X125771722Y-115069803D01*
X125551876Y-114959576D01*
X125426838Y-114919556D01*
X125286895Y-114894956D01*
X125118616Y-114883158D01*
X124942377Y-114884187D01*
G36*
X136574084Y-114901638D02*
G01*
X136306284Y-114963338D01*
X136066442Y-115066912D01*
X135852941Y-115213215D01*
X135664167Y-115403104D01*
X135525469Y-115593853D01*
X135477664Y-115689094D01*
X135431430Y-115815540D01*
X135392966Y-115953756D01*
X135368471Y-116084308D01*
X135368090Y-116087313D01*
X135350216Y-116230378D01*
X135548396Y-116222897D01*
X135746577Y-116215416D01*
X135779575Y-116069796D01*
X135854369Y-115845479D01*
X135967728Y-115650737D01*
X136115054Y-115488260D01*
X136291748Y-115360742D01*
X136493209Y-115270873D01*
X136714841Y-115221345D01*
X136952043Y-115214850D01*
X137181117Y-115249444D01*
X137394503Y-115320046D01*
X137577625Y-115421659D01*
X137726985Y-115549794D01*
X137839081Y-115699967D01*
X137910416Y-115867691D01*
X137937488Y-116048479D01*
X137924408Y-116202262D01*
X137877428Y-116364533D01*
X137798342Y-116504408D01*
X137678269Y-116637512D01*
X137675693Y-116639928D01*
X137592434Y-116710651D01*
X137498029Y-116775330D01*
X137385300Y-116837440D01*
X137247070Y-116900456D01*
X137076161Y-116967852D01*
X136865396Y-117043104D01*
X136789142Y-117069147D01*
X136496053Y-117174121D01*
X136248306Y-117276068D01*
X136040758Y-117378060D01*
X135868267Y-117483169D01*
X135725690Y-117594465D01*
X135607884Y-117715020D01*
X135525564Y-117823825D01*
X135431276Y-117983087D01*
X135370813Y-118137502D01*
X135339989Y-118303020D01*
X135334620Y-118495592D01*
X135336505Y-118544543D01*
X135355293Y-118729522D01*
X135396264Y-118884516D01*
X135465906Y-119023816D01*
X135570706Y-119161711D01*
X135659605Y-119256207D01*
X135861446Y-119422960D01*
X136095091Y-119550470D01*
X136359102Y-119637969D01*
X136391105Y-119645378D01*
X136537715Y-119668073D01*
X136714592Y-119680527D01*
X136903033Y-119682670D01*
X137084338Y-119674432D01*
X137239806Y-119655745D01*
X137275976Y-119648670D01*
X137536590Y-119570419D01*
X137774009Y-119456626D01*
X137983748Y-119311599D01*
X138161328Y-119139642D01*
X138302265Y-118945060D01*
X138402079Y-118732160D01*
X138454817Y-118516226D01*
X138464986Y-118428881D01*
X138469078Y-118362248D01*
X138466518Y-118332082D01*
X138437399Y-118322767D01*
X138371140Y-118315975D01*
X138281437Y-118313043D01*
X138271154Y-118313013D01*
X138087051Y-118313013D01*
X138056597Y-118460456D01*
X137986180Y-118684042D01*
X137874996Y-118880095D01*
X137726620Y-119045975D01*
X137544625Y-119179045D01*
X137332584Y-119276667D01*
X137094070Y-119336203D01*
X136844758Y-119355080D01*
X136593427Y-119336691D01*
X136365730Y-119283983D01*
X136166423Y-119199199D01*
X136000267Y-119084585D01*
X135872018Y-118942384D01*
X135831857Y-118877290D01*
X135754877Y-118686481D01*
X135726184Y-118491589D01*
X135744628Y-118299413D01*
X135809058Y-118116755D01*
X135918326Y-117950412D01*
X136003479Y-117862569D01*
X136095714Y-117787950D01*
X136202981Y-117718396D01*
X136332391Y-117650464D01*
X136491054Y-117580707D01*
X136686080Y-117505681D01*
X136885204Y-117435383D01*
X137182048Y-117327815D01*
X137433189Y-117223557D01*
X137643401Y-117119772D01*
X137817460Y-117013627D01*
X137960141Y-116902288D01*
X138076218Y-116782920D01*
X138149825Y-116684722D01*
X138250972Y-116503890D01*
X138309482Y-116321676D01*
X138330803Y-116120155D01*
X138331131Y-116088288D01*
X138307423Y-115855630D01*
X138238636Y-115640885D01*
X138128272Y-115446952D01*
X137979835Y-115276729D01*
X137796829Y-115133113D01*
X137582756Y-115019002D01*
X137341121Y-114937294D01*
X137075426Y-114890886D01*
X136871458Y-114880957D01*
X136574084Y-114901638D01*
G37*
X136574084Y-114901638D02*
X136306284Y-114963338D01*
X136066442Y-115066912D01*
X135852941Y-115213215D01*
X135664167Y-115403104D01*
X135525469Y-115593853D01*
X135477664Y-115689094D01*
X135431430Y-115815540D01*
X135392966Y-115953756D01*
X135368471Y-116084308D01*
X135368090Y-116087313D01*
X135350216Y-116230378D01*
X135548396Y-116222897D01*
X135746577Y-116215416D01*
X135779575Y-116069796D01*
X135854369Y-115845479D01*
X135967728Y-115650737D01*
X136115054Y-115488260D01*
X136291748Y-115360742D01*
X136493209Y-115270873D01*
X136714841Y-115221345D01*
X136952043Y-115214850D01*
X137181117Y-115249444D01*
X137394503Y-115320046D01*
X137577625Y-115421659D01*
X137726985Y-115549794D01*
X137839081Y-115699967D01*
X137910416Y-115867691D01*
X137937488Y-116048479D01*
X137924408Y-116202262D01*
X137877428Y-116364533D01*
X137798342Y-116504408D01*
X137678269Y-116637512D01*
X137675693Y-116639928D01*
X137592434Y-116710651D01*
X137498029Y-116775330D01*
X137385300Y-116837440D01*
X137247070Y-116900456D01*
X137076161Y-116967852D01*
X136865396Y-117043104D01*
X136789142Y-117069147D01*
X136496053Y-117174121D01*
X136248306Y-117276068D01*
X136040758Y-117378060D01*
X135868267Y-117483169D01*
X135725690Y-117594465D01*
X135607884Y-117715020D01*
X135525564Y-117823825D01*
X135431276Y-117983087D01*
X135370813Y-118137502D01*
X135339989Y-118303020D01*
X135334620Y-118495592D01*
X135336505Y-118544543D01*
X135355293Y-118729522D01*
X135396264Y-118884516D01*
X135465906Y-119023816D01*
X135570706Y-119161711D01*
X135659605Y-119256207D01*
X135861446Y-119422960D01*
X136095091Y-119550470D01*
X136359102Y-119637969D01*
X136391105Y-119645378D01*
X136537715Y-119668073D01*
X136714592Y-119680527D01*
X136903033Y-119682670D01*
X137084338Y-119674432D01*
X137239806Y-119655745D01*
X137275976Y-119648670D01*
X137536590Y-119570419D01*
X137774009Y-119456626D01*
X137983748Y-119311599D01*
X138161328Y-119139642D01*
X138302265Y-118945060D01*
X138402079Y-118732160D01*
X138454817Y-118516226D01*
X138464986Y-118428881D01*
X138469078Y-118362248D01*
X138466518Y-118332082D01*
X138437399Y-118322767D01*
X138371140Y-118315975D01*
X138281437Y-118313043D01*
X138271154Y-118313013D01*
X138087051Y-118313013D01*
X138056597Y-118460456D01*
X137986180Y-118684042D01*
X137874996Y-118880095D01*
X137726620Y-119045975D01*
X137544625Y-119179045D01*
X137332584Y-119276667D01*
X137094070Y-119336203D01*
X136844758Y-119355080D01*
X136593427Y-119336691D01*
X136365730Y-119283983D01*
X136166423Y-119199199D01*
X136000267Y-119084585D01*
X135872018Y-118942384D01*
X135831857Y-118877290D01*
X135754877Y-118686481D01*
X135726184Y-118491589D01*
X135744628Y-118299413D01*
X135809058Y-118116755D01*
X135918326Y-117950412D01*
X136003479Y-117862569D01*
X136095714Y-117787950D01*
X136202981Y-117718396D01*
X136332391Y-117650464D01*
X136491054Y-117580707D01*
X136686080Y-117505681D01*
X136885204Y-117435383D01*
X137182048Y-117327815D01*
X137433189Y-117223557D01*
X137643401Y-117119772D01*
X137817460Y-117013627D01*
X137960141Y-116902288D01*
X138076218Y-116782920D01*
X138149825Y-116684722D01*
X138250972Y-116503890D01*
X138309482Y-116321676D01*
X138330803Y-116120155D01*
X138331131Y-116088288D01*
X138307423Y-115855630D01*
X138238636Y-115640885D01*
X138128272Y-115446952D01*
X137979835Y-115276729D01*
X137796829Y-115133113D01*
X137582756Y-115019002D01*
X137341121Y-114937294D01*
X137075426Y-114890886D01*
X136871458Y-114880957D01*
X136574084Y-114901638D01*
G36*
X127728728Y-123576076D02*
G01*
X130042442Y-123576076D01*
X130042442Y-123398098D01*
X127728728Y-123398098D01*
X127728728Y-123576076D01*
G37*
X127728728Y-123576076D02*
X130042442Y-123576076D01*
X130042442Y-123398098D01*
X127728728Y-123398098D01*
X127728728Y-123576076D01*
G36*
X123762362Y-123728629D02*
G01*
X126228628Y-123728629D01*
X126228628Y-123245546D01*
X123762362Y-123245546D01*
X123762362Y-123728629D01*
G37*
X123762362Y-123728629D02*
X126228628Y-123728629D01*
X126228628Y-123245546D01*
X123762362Y-123245546D01*
X123762362Y-123728629D01*
G36*
X121775936Y-122077390D02*
G01*
X121308808Y-122078804D01*
X120752453Y-122773892D01*
X120622743Y-122936326D01*
X120503584Y-123086276D01*
X120398613Y-123219112D01*
X120311463Y-123330202D01*
X120245771Y-123414916D01*
X120205171Y-123468622D01*
X120193093Y-123486488D01*
X120207780Y-123509652D01*
X120250895Y-123567785D01*
X120318878Y-123656322D01*
X120408170Y-123770704D01*
X120515209Y-123906367D01*
X120636437Y-124058751D01*
X120760669Y-124213810D01*
X121331249Y-124923624D01*
X121784043Y-124923624D01*
X121929417Y-124922874D01*
X122055426Y-124920792D01*
X122154003Y-124917629D01*
X122217082Y-124913635D01*
X122236836Y-124909524D01*
X122221451Y-124887134D01*
X122177706Y-124829794D01*
X122109221Y-124742088D01*
X122019615Y-124628604D01*
X121912508Y-124493927D01*
X121791518Y-124342643D01*
X121677477Y-124200709D01*
X121547308Y-124038595D01*
X121427870Y-123888987D01*
X121322783Y-123756486D01*
X121235670Y-123645695D01*
X121170152Y-123561218D01*
X121129850Y-123507657D01*
X121118118Y-123489785D01*
X121133503Y-123466837D01*
X121177195Y-123409074D01*
X121245495Y-123321197D01*
X121334707Y-123207907D01*
X121441134Y-123073906D01*
X121561078Y-122923896D01*
X121655389Y-122806558D01*
X121784065Y-122646793D01*
X121903176Y-122498877D01*
X122008809Y-122367671D01*
X122097051Y-122258037D01*
X122163988Y-122174837D01*
X122205707Y-122122932D01*
X122217861Y-122107758D01*
X122217255Y-122096243D01*
X122190993Y-122087810D01*
X122133760Y-122082094D01*
X122040239Y-122078728D01*
X121905116Y-122077349D01*
X121775936Y-122077390D01*
G37*
X121775936Y-122077390D02*
X121308808Y-122078804D01*
X120752453Y-122773892D01*
X120622743Y-122936326D01*
X120503584Y-123086276D01*
X120398613Y-123219112D01*
X120311463Y-123330202D01*
X120245771Y-123414916D01*
X120205171Y-123468622D01*
X120193093Y-123486488D01*
X120207780Y-123509652D01*
X120250895Y-123567785D01*
X120318878Y-123656322D01*
X120408170Y-123770704D01*
X120515209Y-123906367D01*
X120636437Y-124058751D01*
X120760669Y-124213810D01*
X121331249Y-124923624D01*
X121784043Y-124923624D01*
X121929417Y-124922874D01*
X122055426Y-124920792D01*
X122154003Y-124917629D01*
X122217082Y-124913635D01*
X122236836Y-124909524D01*
X122221451Y-124887134D01*
X122177706Y-124829794D01*
X122109221Y-124742088D01*
X122019615Y-124628604D01*
X121912508Y-124493927D01*
X121791518Y-124342643D01*
X121677477Y-124200709D01*
X121547308Y-124038595D01*
X121427870Y-123888987D01*
X121322783Y-123756486D01*
X121235670Y-123645695D01*
X121170152Y-123561218D01*
X121129850Y-123507657D01*
X121118118Y-123489785D01*
X121133503Y-123466837D01*
X121177195Y-123409074D01*
X121245495Y-123321197D01*
X121334707Y-123207907D01*
X121441134Y-123073906D01*
X121561078Y-122923896D01*
X121655389Y-122806558D01*
X121784065Y-122646793D01*
X121903176Y-122498877D01*
X122008809Y-122367671D01*
X122097051Y-122258037D01*
X122163988Y-122174837D01*
X122205707Y-122122932D01*
X122217861Y-122107758D01*
X122217255Y-122096243D01*
X122190993Y-122087810D01*
X122133760Y-122082094D01*
X122040239Y-122078728D01*
X121905116Y-122077349D01*
X121775936Y-122077390D01*
D10*
%TO.C,SW5*%
X117100000Y-84700000D02*
G75*
G03*
X117100000Y-84700000I-3000000J0D01*
G01*
X120400000Y-82900000D02*
X120400000Y-78000000D01*
X107800000Y-78000000D02*
X107800000Y-82900000D01*
X107800000Y-86500000D02*
X107800000Y-91400000D01*
X107800000Y-91400000D02*
X110600000Y-91400000D01*
X120400000Y-86600000D02*
X120400000Y-91400000D01*
X120400000Y-91400000D02*
X117900000Y-91400000D01*
X120400000Y-78000000D02*
X117800000Y-78000000D01*
X115400000Y-78000000D02*
X112800000Y-78000000D01*
X110400000Y-78000000D02*
X107800000Y-78000000D01*
X114600000Y-84700000D02*
X113600000Y-84700000D01*
X114100000Y-85200000D02*
X114100000Y-84200000D01*
%TO.C,SW4*%
X132000000Y-84700000D02*
G75*
G03*
X132000000Y-84700000I-3000000J0D01*
G01*
X135300000Y-82900000D02*
X135300000Y-78000000D01*
X122700000Y-78000000D02*
X122700000Y-82900000D01*
X122700000Y-86500000D02*
X122700000Y-91400000D01*
X122700000Y-91400000D02*
X125500000Y-91400000D01*
X135300000Y-86600000D02*
X135300000Y-91400000D01*
X135300000Y-91400000D02*
X132800000Y-91400000D01*
X135300000Y-78000000D02*
X132700000Y-78000000D01*
X130300000Y-78000000D02*
X127700000Y-78000000D01*
X125300000Y-78000000D02*
X122700000Y-78000000D01*
X129500000Y-84700000D02*
X128500000Y-84700000D01*
X129000000Y-85200000D02*
X129000000Y-84200000D01*
%TO.C,SW3*%
X146900000Y-84700000D02*
G75*
G03*
X146900000Y-84700000I-3000000J0D01*
G01*
X150200000Y-82900000D02*
X150200000Y-78000000D01*
X137600000Y-78000000D02*
X137600000Y-82900000D01*
X137600000Y-86500000D02*
X137600000Y-91400000D01*
X137600000Y-91400000D02*
X140400000Y-91400000D01*
X150200000Y-86600000D02*
X150200000Y-91400000D01*
X150200000Y-91400000D02*
X147700000Y-91400000D01*
X150200000Y-78000000D02*
X147600000Y-78000000D01*
X145200000Y-78000000D02*
X142600000Y-78000000D01*
X140200000Y-78000000D02*
X137600000Y-78000000D01*
X144400000Y-84700000D02*
X143400000Y-84700000D01*
X143900000Y-85200000D02*
X143900000Y-84200000D01*
%TD*%
M02*
