%TF.GenerationSoftware,KiCad,Pcbnew,7.0.1-0*%
%TF.CreationDate,2023-05-08T09:26:49+02:00*%
%TF.ProjectId,KLST_SOIL,4b4c5354-5f53-44f4-994c-2e6b69636164,rev?*%
%TF.SameCoordinates,Original*%
%TF.FileFunction,Legend,Bot*%
%TF.FilePolarity,Positive*%
%FSLAX46Y46*%
G04 Gerber Fmt 4.6, Leading zero omitted, Abs format (unit mm)*
G04 Created by KiCad (PCBNEW 7.0.1-0) date 2023-05-08 09:26:49*
%MOMM*%
%LPD*%
G01*
G04 APERTURE LIST*
%ADD10C,0.150000*%
%ADD11R,1.700000X1.700000*%
%ADD12O,1.700000X1.700000*%
G04 APERTURE END LIST*
D10*
G36*
X131989519Y-102978654D02*
G01*
X132012908Y-102979649D01*
X132036727Y-102981002D01*
X132060974Y-102982712D01*
X132080682Y-102984337D01*
X132100664Y-102986192D01*
X132120921Y-102988276D01*
X132141162Y-102990657D01*
X132161343Y-102993405D01*
X132181462Y-102996519D01*
X132201521Y-103000000D01*
X132221518Y-103003846D01*
X132241454Y-103008060D01*
X132261330Y-103012639D01*
X132281144Y-103017585D01*
X132300828Y-103023019D01*
X132320314Y-103028820D01*
X132339602Y-103034987D01*
X132358691Y-103041521D01*
X132377582Y-103048421D01*
X132396274Y-103055687D01*
X132414768Y-103063319D01*
X132433063Y-103071318D01*
X132450984Y-103079875D01*
X132468356Y-103088934D01*
X132489298Y-103100968D01*
X132509381Y-103113788D01*
X132528606Y-103127396D01*
X132546972Y-103141790D01*
X132561046Y-103153872D01*
X132577607Y-103169732D01*
X132593094Y-103186473D01*
X132607507Y-103204097D01*
X132620848Y-103222604D01*
X132633115Y-103241993D01*
X132644308Y-103262265D01*
X132648485Y-103270621D01*
X132657914Y-103292223D01*
X132665744Y-103314899D01*
X132670858Y-103333813D01*
X132674949Y-103353413D01*
X132678018Y-103373701D01*
X132680063Y-103394675D01*
X132681086Y-103416336D01*
X132681214Y-103427424D01*
X132680702Y-103449437D01*
X132679168Y-103470778D01*
X132676611Y-103491447D01*
X132673032Y-103511444D01*
X132668429Y-103530770D01*
X132661238Y-103553982D01*
X132652448Y-103576145D01*
X132648485Y-103584717D01*
X132637721Y-103605470D01*
X132625883Y-103625294D01*
X132612972Y-103644187D01*
X132598988Y-103662149D01*
X132583930Y-103679182D01*
X132567799Y-103695284D01*
X132561046Y-103701465D01*
X132543391Y-103716325D01*
X132524925Y-103730373D01*
X132505648Y-103743611D01*
X132485560Y-103756038D01*
X132464661Y-103767654D01*
X132442951Y-103778459D01*
X132434040Y-103782554D01*
X132415859Y-103790415D01*
X132397465Y-103797880D01*
X132378856Y-103804948D01*
X132360034Y-103811618D01*
X132340999Y-103817892D01*
X132321749Y-103823770D01*
X132302286Y-103829250D01*
X132282609Y-103834333D01*
X132262795Y-103839142D01*
X132242920Y-103843553D01*
X132222984Y-103847568D01*
X132202986Y-103851186D01*
X132182928Y-103854407D01*
X132162808Y-103857231D01*
X132142628Y-103859658D01*
X132122386Y-103861688D01*
X132102106Y-103863543D01*
X132082056Y-103865199D01*
X132062234Y-103866657D01*
X132042641Y-103867916D01*
X132018472Y-103869212D01*
X131994660Y-103870197D01*
X131971207Y-103870872D01*
X131966559Y-103870969D01*
X131727201Y-103870969D01*
X131703843Y-103870345D01*
X131680175Y-103869386D01*
X131656197Y-103868093D01*
X131631908Y-103866466D01*
X131612254Y-103864924D01*
X131592402Y-103863169D01*
X131572351Y-103861200D01*
X131552224Y-103859055D01*
X131532143Y-103856529D01*
X131512107Y-103853621D01*
X131492117Y-103850331D01*
X131472173Y-103846660D01*
X131452275Y-103842607D01*
X131432423Y-103838172D01*
X131412616Y-103833356D01*
X131392947Y-103828143D01*
X131373507Y-103822518D01*
X131354296Y-103816480D01*
X131335314Y-103810031D01*
X131316560Y-103803169D01*
X131298036Y-103795895D01*
X131279741Y-103788209D01*
X131261674Y-103780111D01*
X131243875Y-103771670D01*
X131222399Y-103760388D01*
X131201781Y-103748295D01*
X131182023Y-103735391D01*
X131163122Y-103721676D01*
X131145081Y-103707150D01*
X131134668Y-103698046D01*
X131117991Y-103682186D01*
X131102459Y-103665445D01*
X131088071Y-103647821D01*
X131074829Y-103629314D01*
X131062731Y-103609925D01*
X131051778Y-103589653D01*
X131047718Y-103581297D01*
X131038430Y-103559695D01*
X131030716Y-103537019D01*
X131025678Y-103518105D01*
X131021648Y-103498505D01*
X131018626Y-103478217D01*
X131016611Y-103457243D01*
X131015603Y-103435582D01*
X131015478Y-103424494D01*
X131015989Y-103402832D01*
X131017523Y-103381812D01*
X131020080Y-103361433D01*
X131023660Y-103341695D01*
X131028262Y-103322599D01*
X131035453Y-103299629D01*
X131044243Y-103277662D01*
X131048206Y-103269155D01*
X131058982Y-103248530D01*
X131070856Y-103228788D01*
X131083826Y-103209929D01*
X131097894Y-103191951D01*
X131113059Y-103174857D01*
X131129321Y-103158645D01*
X131136133Y-103152407D01*
X131153660Y-103137383D01*
X131172045Y-103123146D01*
X131191288Y-103109696D01*
X131211391Y-103097033D01*
X131232352Y-103085157D01*
X131249739Y-103076223D01*
X131263140Y-103069853D01*
X131281206Y-103061869D01*
X131299501Y-103054282D01*
X131318026Y-103047093D01*
X131336779Y-103040300D01*
X131355761Y-103033903D01*
X131374972Y-103027904D01*
X131394413Y-103022302D01*
X131414082Y-103017096D01*
X131433888Y-103012265D01*
X131453741Y-103007785D01*
X131473639Y-103003656D01*
X131493583Y-102999877D01*
X131513573Y-102996450D01*
X131533608Y-102993374D01*
X131553690Y-102990650D01*
X131573817Y-102988276D01*
X131593845Y-102986192D01*
X131613628Y-102984337D01*
X131633168Y-102982712D01*
X131657248Y-102981002D01*
X131680948Y-102979649D01*
X131704265Y-102978654D01*
X131727201Y-102978018D01*
X131966559Y-102978018D01*
X131989519Y-102978654D01*
G37*
G36*
X135949136Y-107958377D02*
G01*
X127997660Y-107958377D01*
X127997660Y-106242568D01*
X128508374Y-106242568D01*
X128508374Y-107293789D01*
X128718422Y-107293789D01*
X128718422Y-106242568D01*
X128508374Y-106242568D01*
X127997660Y-106242568D01*
X127997660Y-106215212D01*
X130827899Y-106215212D01*
X130827899Y-106469225D01*
X132649951Y-106469225D01*
X132649951Y-107447662D01*
X132860000Y-107447662D01*
X132860000Y-106242568D01*
X135228374Y-106242568D01*
X135228374Y-107293789D01*
X135438422Y-107293789D01*
X135438422Y-106242568D01*
X135228374Y-106242568D01*
X132860000Y-106242568D01*
X132860000Y-106215212D01*
X130827899Y-106215212D01*
X127997660Y-106215212D01*
X127997660Y-104562177D01*
X128508374Y-104562177D01*
X128508374Y-105613398D01*
X128718422Y-105613398D01*
X128718422Y-104562177D01*
X128508374Y-104562177D01*
X127997660Y-104562177D01*
X127997660Y-104501605D01*
X130827899Y-104501605D01*
X130827899Y-105710607D01*
X131037948Y-105710607D01*
X131037948Y-105231402D01*
X132649951Y-105231402D01*
X132649951Y-105710607D01*
X132860000Y-105710607D01*
X132860000Y-104562177D01*
X135228374Y-104562177D01*
X135228374Y-105613398D01*
X135438422Y-105613398D01*
X135438422Y-104562177D01*
X135228374Y-104562177D01*
X132860000Y-104562177D01*
X132860000Y-104501605D01*
X132649951Y-104501605D01*
X132649951Y-104970062D01*
X131037948Y-104970062D01*
X131037948Y-104501605D01*
X130827899Y-104501605D01*
X127997660Y-104501605D01*
X127997660Y-102881786D01*
X128508374Y-102881786D01*
X128508374Y-103933007D01*
X128718422Y-103933007D01*
X128718422Y-103424494D01*
X130796636Y-103424494D01*
X130796975Y-103447460D01*
X130797993Y-103470014D01*
X130799688Y-103492156D01*
X130802063Y-103513886D01*
X130805115Y-103535204D01*
X130808846Y-103556110D01*
X130813255Y-103576603D01*
X130818343Y-103596685D01*
X130824109Y-103616354D01*
X130830553Y-103635611D01*
X130835226Y-103648220D01*
X130842715Y-103666877D01*
X130850711Y-103685114D01*
X130859213Y-103702930D01*
X130868222Y-103720325D01*
X130881022Y-103742864D01*
X130894722Y-103764655D01*
X130909323Y-103785698D01*
X130924825Y-103805993D01*
X130941228Y-103825540D01*
X130958325Y-103844500D01*
X130976154Y-103862787D01*
X130994717Y-103880403D01*
X131014012Y-103897348D01*
X131034040Y-103913620D01*
X131054801Y-103929221D01*
X131070852Y-103940481D01*
X131087315Y-103951364D01*
X131098520Y-103958408D01*
X131115580Y-103968678D01*
X131132872Y-103978604D01*
X131150396Y-103988187D01*
X131168152Y-103997426D01*
X131186140Y-104006322D01*
X131204359Y-104014874D01*
X131222811Y-104023083D01*
X131241494Y-104030949D01*
X131260409Y-104038470D01*
X131279556Y-104045649D01*
X131292449Y-104050244D01*
X131311939Y-104056941D01*
X131331575Y-104063295D01*
X131351358Y-104069306D01*
X131371286Y-104074973D01*
X131391360Y-104080297D01*
X131411580Y-104085277D01*
X131431946Y-104089914D01*
X131452459Y-104094207D01*
X131473117Y-104098157D01*
X131493921Y-104101764D01*
X131507871Y-104103977D01*
X131528824Y-104107045D01*
X131549734Y-104109839D01*
X131570601Y-104112358D01*
X131591425Y-104114602D01*
X131612206Y-104116571D01*
X131632944Y-104118265D01*
X131653640Y-104119685D01*
X131674292Y-104120830D01*
X131694901Y-104121700D01*
X131715468Y-104122295D01*
X131729155Y-104122540D01*
X131961674Y-104122540D01*
X131982121Y-104122127D01*
X132002610Y-104121441D01*
X132023142Y-104120479D01*
X132043717Y-104119242D01*
X132064335Y-104117731D01*
X132084996Y-104115945D01*
X132105700Y-104113884D01*
X132126447Y-104111549D01*
X132147236Y-104108938D01*
X132168069Y-104106053D01*
X132181981Y-104103977D01*
X132202795Y-104100604D01*
X132223472Y-104096896D01*
X132244011Y-104092853D01*
X132264413Y-104088475D01*
X132284678Y-104083763D01*
X132304805Y-104078715D01*
X132324795Y-104073333D01*
X132344647Y-104067616D01*
X132364362Y-104061563D01*
X132383940Y-104055176D01*
X132396915Y-104050732D01*
X132416212Y-104043870D01*
X132435269Y-104036656D01*
X132454085Y-104029090D01*
X132472661Y-104021171D01*
X132490996Y-104012901D01*
X132509091Y-104004278D01*
X132526946Y-103995304D01*
X132544560Y-103985977D01*
X132561934Y-103976299D01*
X132579067Y-103966268D01*
X132590355Y-103959385D01*
X132606923Y-103948842D01*
X132628413Y-103934184D01*
X132649216Y-103918839D01*
X132669331Y-103902806D01*
X132688760Y-103886087D01*
X132707502Y-103868681D01*
X132725557Y-103850588D01*
X132742925Y-103831808D01*
X132747159Y-103827006D01*
X132763447Y-103807474D01*
X132778850Y-103787225D01*
X132793367Y-103766258D01*
X132806999Y-103744574D01*
X132819745Y-103722172D01*
X132831606Y-103699053D01*
X132839921Y-103681243D01*
X132847738Y-103663029D01*
X132852672Y-103650662D01*
X132859569Y-103631767D01*
X132865787Y-103612452D01*
X132871327Y-103592715D01*
X132876188Y-103572558D01*
X132880371Y-103551980D01*
X132883876Y-103530982D01*
X132886703Y-103509562D01*
X132888851Y-103487722D01*
X132890320Y-103465461D01*
X132891112Y-103442779D01*
X132891263Y-103427424D01*
X132890923Y-103404462D01*
X132889906Y-103381921D01*
X132888210Y-103359800D01*
X132885836Y-103338100D01*
X132882783Y-103316821D01*
X132879052Y-103295963D01*
X132874643Y-103275525D01*
X132869556Y-103255508D01*
X132863790Y-103235912D01*
X132857345Y-103216736D01*
X132852672Y-103204187D01*
X132845188Y-103185699D01*
X132837205Y-103167607D01*
X132828724Y-103149910D01*
X132816642Y-103126929D01*
X132803674Y-103104649D01*
X132789821Y-103083072D01*
X132775082Y-103062197D01*
X132759458Y-103042024D01*
X132747159Y-103027355D01*
X132729948Y-103008495D01*
X132712019Y-102990260D01*
X132693372Y-102972652D01*
X132674009Y-102955669D01*
X132653927Y-102939313D01*
X132638395Y-102927456D01*
X132622460Y-102915951D01*
X132606121Y-102904799D01*
X132589378Y-102893998D01*
X132572318Y-102883637D01*
X132569123Y-102881786D01*
X135228374Y-102881786D01*
X135228374Y-103933007D01*
X135438422Y-103933007D01*
X135438422Y-102881786D01*
X135228374Y-102881786D01*
X132569123Y-102881786D01*
X132555026Y-102873619D01*
X132537502Y-102863945D01*
X132519746Y-102854614D01*
X132501759Y-102845627D01*
X132483539Y-102836983D01*
X132465088Y-102828682D01*
X132446405Y-102820725D01*
X132427490Y-102813112D01*
X132408343Y-102805842D01*
X132395450Y-102801186D01*
X132375972Y-102794567D01*
X132356375Y-102788266D01*
X132336657Y-102782282D01*
X132316819Y-102776617D01*
X132296860Y-102771268D01*
X132276782Y-102766238D01*
X132256583Y-102761525D01*
X132236264Y-102757131D01*
X132215825Y-102753053D01*
X132195266Y-102749294D01*
X132181493Y-102746964D01*
X132160719Y-102743808D01*
X132139979Y-102740936D01*
X132119274Y-102738347D01*
X132098603Y-102736042D01*
X132077966Y-102734020D01*
X132057364Y-102732281D01*
X132036796Y-102730825D01*
X132016263Y-102729653D01*
X131995763Y-102728764D01*
X131975298Y-102728159D01*
X131961674Y-102727913D01*
X131729155Y-102727913D01*
X131708626Y-102728325D01*
X131688071Y-102729012D01*
X131667490Y-102729974D01*
X131646883Y-102731210D01*
X131626251Y-102732721D01*
X131605593Y-102734508D01*
X131584909Y-102736568D01*
X131564200Y-102738904D01*
X131543464Y-102741514D01*
X131522703Y-102744399D01*
X131508848Y-102746475D01*
X131488034Y-102749849D01*
X131467357Y-102753557D01*
X131446818Y-102757599D01*
X131426416Y-102761977D01*
X131406152Y-102766690D01*
X131386024Y-102771737D01*
X131366035Y-102777120D01*
X131346182Y-102782837D01*
X131326467Y-102788889D01*
X131306890Y-102795276D01*
X131293914Y-102799720D01*
X131274530Y-102806757D01*
X131255395Y-102814129D01*
X131236508Y-102821835D01*
X131217871Y-102829877D01*
X131199483Y-102838253D01*
X131181343Y-102846964D01*
X131163453Y-102856010D01*
X131145812Y-102865391D01*
X131128419Y-102875107D01*
X131111276Y-102885158D01*
X131099986Y-102892044D01*
X131083239Y-102902670D01*
X131066887Y-102913665D01*
X131050930Y-102925030D01*
X131030269Y-102940757D01*
X131010309Y-102957140D01*
X130991052Y-102974180D01*
X130972497Y-102991876D01*
X130954645Y-103010229D01*
X130941716Y-103024424D01*
X130925199Y-103044070D01*
X130909598Y-103064419D01*
X130894913Y-103085469D01*
X130881144Y-103107222D01*
X130868291Y-103129677D01*
X130856353Y-103152834D01*
X130848001Y-103170663D01*
X130840165Y-103188887D01*
X130835226Y-103201256D01*
X130828330Y-103220151D01*
X130822112Y-103239466D01*
X130816572Y-103259203D01*
X130811710Y-103279360D01*
X130807527Y-103299938D01*
X130804022Y-103320937D01*
X130801196Y-103342356D01*
X130799048Y-103364196D01*
X130797578Y-103386457D01*
X130796787Y-103409139D01*
X130796636Y-103424494D01*
X128718422Y-103424494D01*
X128718422Y-102881786D01*
X128508374Y-102881786D01*
X127997660Y-102881786D01*
X127997660Y-101201395D01*
X128508374Y-101201395D01*
X128508374Y-102252616D01*
X128718422Y-102252616D01*
X128718422Y-101772923D01*
X130796636Y-101772923D01*
X130797022Y-101797292D01*
X130798182Y-101821490D01*
X130800114Y-101845515D01*
X130802818Y-101869369D01*
X130806296Y-101893051D01*
X130810546Y-101916561D01*
X130815570Y-101939900D01*
X130821366Y-101963066D01*
X130827934Y-101986062D01*
X130835276Y-102008885D01*
X130840600Y-102024005D01*
X130849065Y-102046475D01*
X130858157Y-102068455D01*
X130867875Y-102089946D01*
X130878221Y-102110948D01*
X130889193Y-102131460D01*
X130900792Y-102151483D01*
X130913018Y-102171016D01*
X130925871Y-102190060D01*
X130939351Y-102208614D01*
X130953457Y-102226679D01*
X130963210Y-102238450D01*
X130978252Y-102255705D01*
X130993887Y-102272299D01*
X131010114Y-102288231D01*
X131026934Y-102303503D01*
X131044346Y-102318113D01*
X131062351Y-102332062D01*
X131080948Y-102345350D01*
X131100138Y-102357977D01*
X131119920Y-102369942D01*
X131140295Y-102381247D01*
X131154207Y-102388415D01*
X131175505Y-102398480D01*
X131197267Y-102407609D01*
X131219492Y-102415803D01*
X131242181Y-102423060D01*
X131265333Y-102429381D01*
X131288949Y-102434766D01*
X131313029Y-102439216D01*
X131337573Y-102442729D01*
X131362580Y-102445306D01*
X131388051Y-102446948D01*
X131405289Y-102447522D01*
X131405289Y-102186671D01*
X131383200Y-102183541D01*
X131361631Y-102179771D01*
X131340580Y-102175359D01*
X131320048Y-102170307D01*
X131300036Y-102164613D01*
X131280542Y-102158278D01*
X131261567Y-102151301D01*
X131243112Y-102143684D01*
X131225122Y-102135540D01*
X131203557Y-102124437D01*
X131183019Y-102112308D01*
X131163505Y-102099154D01*
X131145018Y-102084974D01*
X131127556Y-102069769D01*
X131117571Y-102060153D01*
X131101669Y-102043330D01*
X131086936Y-102025530D01*
X131073371Y-102006751D01*
X131060975Y-101986995D01*
X131049748Y-101966260D01*
X131039690Y-101944548D01*
X131035994Y-101935589D01*
X131027550Y-101912684D01*
X131021826Y-101893691D01*
X131017017Y-101874102D01*
X131013125Y-101853917D01*
X131010148Y-101833137D01*
X131008087Y-101811762D01*
X131006942Y-101789792D01*
X131006685Y-101772923D01*
X131007210Y-101750262D01*
X131008784Y-101727767D01*
X131011407Y-101705439D01*
X131015081Y-101683279D01*
X131019803Y-101661285D01*
X131025575Y-101639458D01*
X131028178Y-101630774D01*
X131035267Y-101609467D01*
X131043405Y-101588900D01*
X131052593Y-101569072D01*
X131062830Y-101549983D01*
X131074117Y-101531634D01*
X131086453Y-101514024D01*
X131091681Y-101507187D01*
X131105298Y-101490780D01*
X131119893Y-101475445D01*
X131135466Y-101461184D01*
X131152017Y-101447996D01*
X131169546Y-101435882D01*
X131188052Y-101424841D01*
X131195729Y-101420725D01*
X131215452Y-101411437D01*
X131236153Y-101403724D01*
X131257832Y-101397584D01*
X131280489Y-101393019D01*
X131304123Y-101390028D01*
X131323735Y-101388769D01*
X131338855Y-101388485D01*
X131360654Y-101389378D01*
X131381598Y-101391569D01*
X131401687Y-101395057D01*
X131420921Y-101399842D01*
X131443761Y-101407649D01*
X131465266Y-101417483D01*
X131485435Y-101429345D01*
X131489309Y-101431960D01*
X131507937Y-101445930D01*
X131525659Y-101460974D01*
X131542474Y-101477090D01*
X131558384Y-101494281D01*
X131573386Y-101512544D01*
X131587483Y-101531881D01*
X131592868Y-101539916D01*
X131605662Y-101560633D01*
X131615416Y-101577585D01*
X131624743Y-101594873D01*
X131633643Y-101612497D01*
X131642115Y-101630456D01*
X131650160Y-101648752D01*
X131657777Y-101667383D01*
X131663210Y-101681577D01*
X131670071Y-101700490D01*
X131676734Y-101719129D01*
X131684784Y-101742041D01*
X131692524Y-101764524D01*
X131699954Y-101786577D01*
X131707074Y-101808201D01*
X131712547Y-101825191D01*
X131718630Y-101843769D01*
X131724911Y-101862377D01*
X131731391Y-101881016D01*
X131738070Y-101899685D01*
X131744947Y-101918385D01*
X131752022Y-101937116D01*
X131759296Y-101955877D01*
X131766769Y-101974668D01*
X131774485Y-101993505D01*
X131782492Y-102012159D01*
X131790788Y-102030630D01*
X131799375Y-102048918D01*
X131808252Y-102067022D01*
X131817418Y-102084944D01*
X131826875Y-102102682D01*
X131836622Y-102120237D01*
X131846552Y-102137670D01*
X131856803Y-102154797D01*
X131867374Y-102171619D01*
X131878265Y-102188136D01*
X131889478Y-102204348D01*
X131901010Y-102220254D01*
X131912864Y-102235855D01*
X131925038Y-102251151D01*
X131940790Y-102269698D01*
X131957209Y-102287482D01*
X131974297Y-102304503D01*
X131992052Y-102320760D01*
X132010475Y-102336254D01*
X132029566Y-102350985D01*
X132037390Y-102356664D01*
X132057239Y-102370371D01*
X132077709Y-102383101D01*
X132098799Y-102394853D01*
X132120508Y-102405627D01*
X132142839Y-102415423D01*
X132161149Y-102422556D01*
X132175143Y-102427494D01*
X132194201Y-102433448D01*
X132213763Y-102438607D01*
X132233830Y-102442973D01*
X132254399Y-102446545D01*
X132275473Y-102449323D01*
X132297050Y-102451308D01*
X132319131Y-102452499D01*
X132341716Y-102452896D01*
X132367327Y-102452372D01*
X132392320Y-102450800D01*
X132416695Y-102448181D01*
X132440451Y-102444515D01*
X132463590Y-102439801D01*
X132486109Y-102434039D01*
X132508011Y-102427230D01*
X132529295Y-102419373D01*
X132549960Y-102410469D01*
X132570007Y-102400517D01*
X132583028Y-102393300D01*
X132601962Y-102381817D01*
X132620294Y-102369716D01*
X132638026Y-102356996D01*
X132655156Y-102343658D01*
X132671685Y-102329702D01*
X132687614Y-102315127D01*
X132702941Y-102299935D01*
X132717667Y-102284124D01*
X132731792Y-102267695D01*
X132745316Y-102250647D01*
X132753998Y-102238939D01*
X132766525Y-102220951D01*
X132778459Y-102202526D01*
X132789800Y-102183662D01*
X132800549Y-102164361D01*
X132810706Y-102144621D01*
X132820270Y-102124444D01*
X132829242Y-102103829D01*
X132837621Y-102082776D01*
X132845407Y-102061285D01*
X132852602Y-102039356D01*
X132857069Y-102024494D01*
X132863179Y-102002054D01*
X132868689Y-101979614D01*
X132873598Y-101957174D01*
X132877906Y-101934734D01*
X132881612Y-101912295D01*
X132884718Y-101889855D01*
X132887222Y-101867415D01*
X132889125Y-101844975D01*
X132890428Y-101822535D01*
X132891129Y-101800095D01*
X132891263Y-101785136D01*
X132890898Y-101760266D01*
X132889803Y-101735482D01*
X132887978Y-101710784D01*
X132885424Y-101686171D01*
X132882139Y-101661645D01*
X132878125Y-101637205D01*
X132873381Y-101612850D01*
X132867907Y-101588581D01*
X132861703Y-101564398D01*
X132854769Y-101540301D01*
X132849741Y-101524284D01*
X132841547Y-101500611D01*
X132832717Y-101477401D01*
X132823251Y-101454655D01*
X132813151Y-101432373D01*
X132802414Y-101410554D01*
X132791043Y-101389199D01*
X132779036Y-101368307D01*
X132766393Y-101347880D01*
X132753116Y-101327916D01*
X132739202Y-101308416D01*
X132729574Y-101295673D01*
X132714527Y-101277044D01*
X132698879Y-101259077D01*
X132682631Y-101241770D01*
X132665781Y-101225125D01*
X132648330Y-101209141D01*
X132639204Y-101201395D01*
X135228374Y-101201395D01*
X135228374Y-102252616D01*
X135438422Y-102252616D01*
X135438422Y-101201395D01*
X135228374Y-101201395D01*
X132639204Y-101201395D01*
X132630278Y-101193818D01*
X132611625Y-101179156D01*
X132592370Y-101165156D01*
X132572515Y-101151816D01*
X132552059Y-101139138D01*
X132538087Y-101131053D01*
X132516564Y-101119757D01*
X132494490Y-101109501D01*
X132471867Y-101100283D01*
X132448695Y-101092104D01*
X132424972Y-101084964D01*
X132400701Y-101078863D01*
X132375880Y-101073802D01*
X132350509Y-101069779D01*
X132324589Y-101066795D01*
X132298119Y-101064850D01*
X132280167Y-101064131D01*
X132280167Y-101323517D01*
X132303889Y-101327089D01*
X132326939Y-101331454D01*
X132349318Y-101336614D01*
X132371025Y-101342568D01*
X132392061Y-101349315D01*
X132412424Y-101356856D01*
X132432117Y-101365191D01*
X132451137Y-101374319D01*
X132469348Y-101384310D01*
X132486857Y-101394988D01*
X132503664Y-101406353D01*
X132519769Y-101418405D01*
X132535172Y-101431144D01*
X132549872Y-101444569D01*
X132563870Y-101458682D01*
X132577166Y-101473482D01*
X132589714Y-101488907D01*
X132601468Y-101504897D01*
X132612429Y-101521453D01*
X132622595Y-101538572D01*
X132631968Y-101556257D01*
X132640547Y-101574507D01*
X132648333Y-101593321D01*
X132655324Y-101612700D01*
X132661392Y-101632705D01*
X132666651Y-101653153D01*
X132671101Y-101674043D01*
X132674741Y-101695376D01*
X132677573Y-101717152D01*
X132679596Y-101739371D01*
X132680809Y-101762032D01*
X132681214Y-101785136D01*
X132680749Y-101808291D01*
X132679353Y-101831351D01*
X132677028Y-101854315D01*
X132673772Y-101877185D01*
X132669586Y-101899958D01*
X132664470Y-101922637D01*
X132662163Y-101931681D01*
X132655697Y-101953880D01*
X132648205Y-101975292D01*
X132639687Y-101995917D01*
X132630144Y-102015754D01*
X132619575Y-102034805D01*
X132607981Y-102053068D01*
X132603056Y-102060153D01*
X132590026Y-102077207D01*
X132575970Y-102093259D01*
X132560888Y-102108310D01*
X132544781Y-102122359D01*
X132527648Y-102135406D01*
X132509490Y-102147451D01*
X132501939Y-102151988D01*
X132482145Y-102162402D01*
X132461229Y-102171051D01*
X132439192Y-102177934D01*
X132416035Y-102183053D01*
X132391756Y-102186407D01*
X132371526Y-102187819D01*
X132355882Y-102188136D01*
X132332778Y-102187480D01*
X132310606Y-102185511D01*
X132289364Y-102182229D01*
X132269054Y-102177634D01*
X132249675Y-102171726D01*
X132231227Y-102164506D01*
X132209476Y-102153634D01*
X132197124Y-102146127D01*
X132177335Y-102132414D01*
X132158570Y-102117533D01*
X132140832Y-102101483D01*
X132124119Y-102084264D01*
X132108431Y-102065877D01*
X132093770Y-102046321D01*
X132088192Y-102038171D01*
X132077316Y-102021479D01*
X132066912Y-102004374D01*
X132056982Y-101986857D01*
X132047526Y-101968928D01*
X132038542Y-101950587D01*
X132030032Y-101931834D01*
X132021995Y-101912669D01*
X132014431Y-101893091D01*
X132007073Y-101873513D01*
X131999898Y-101854104D01*
X131992907Y-101834862D01*
X131986099Y-101815788D01*
X131979474Y-101796882D01*
X131973032Y-101778144D01*
X131966773Y-101759574D01*
X131960697Y-101741172D01*
X131953978Y-101721354D01*
X131947010Y-101701467D01*
X131939793Y-101681512D01*
X131932327Y-101661488D01*
X131924612Y-101641395D01*
X131916648Y-101621233D01*
X131908435Y-101601003D01*
X131899972Y-101580704D01*
X131891261Y-101560337D01*
X131882301Y-101539900D01*
X131876189Y-101526238D01*
X131866741Y-101505976D01*
X131856898Y-101486041D01*
X131846660Y-101466432D01*
X131836027Y-101447149D01*
X131824998Y-101428193D01*
X131813575Y-101409563D01*
X131801757Y-101391259D01*
X131789544Y-101373281D01*
X131776936Y-101355630D01*
X131763933Y-101338305D01*
X131755045Y-101326936D01*
X131741353Y-101310371D01*
X131727207Y-101294381D01*
X131712605Y-101278967D01*
X131697549Y-101264127D01*
X131682037Y-101249864D01*
X131666070Y-101236175D01*
X131649648Y-101223062D01*
X131632771Y-101210524D01*
X131615439Y-101198561D01*
X131597651Y-101187174D01*
X131585540Y-101179902D01*
X131566917Y-101169775D01*
X131547685Y-101160645D01*
X131527842Y-101152510D01*
X131507390Y-101145372D01*
X131486329Y-101139230D01*
X131464657Y-101134083D01*
X131442376Y-101129933D01*
X131419486Y-101126779D01*
X131395985Y-101124621D01*
X131371876Y-101123459D01*
X131355464Y-101123237D01*
X131330891Y-101123735D01*
X131306817Y-101125230D01*
X131283241Y-101127720D01*
X131260163Y-101131206D01*
X131237583Y-101135688D01*
X131215501Y-101141166D01*
X131193917Y-101147641D01*
X131172831Y-101155111D01*
X131152243Y-101163578D01*
X131132153Y-101173040D01*
X131119036Y-101179902D01*
X131099811Y-101190923D01*
X131081152Y-101202553D01*
X131063060Y-101214794D01*
X131045535Y-101227644D01*
X131028576Y-101241103D01*
X131012184Y-101255172D01*
X130996359Y-101269851D01*
X130981100Y-101285140D01*
X130966409Y-101301038D01*
X130952283Y-101317546D01*
X130943182Y-101328890D01*
X130930023Y-101346415D01*
X130917473Y-101364370D01*
X130905533Y-101382754D01*
X130894203Y-101401567D01*
X130883483Y-101420810D01*
X130873372Y-101440482D01*
X130863871Y-101460584D01*
X130854979Y-101481114D01*
X130846698Y-101502074D01*
X130839025Y-101523464D01*
X130834249Y-101537962D01*
X130827527Y-101559865D01*
X130821467Y-101581794D01*
X130816067Y-101603749D01*
X130811329Y-101625729D01*
X130807251Y-101647735D01*
X130803835Y-101669767D01*
X130801080Y-101691825D01*
X130798987Y-101713908D01*
X130797554Y-101736017D01*
X130796783Y-101758152D01*
X130796636Y-101772923D01*
X128718422Y-101772923D01*
X128718422Y-101201395D01*
X128508374Y-101201395D01*
X127997660Y-101201395D01*
X127997660Y-99521004D01*
X128508374Y-99521004D01*
X128508374Y-100572226D01*
X128718422Y-100572226D01*
X128718422Y-99521004D01*
X128508374Y-99521004D01*
X127997660Y-99521004D01*
X127997660Y-99434542D01*
X132868792Y-99434542D01*
X132868792Y-100694347D01*
X133078841Y-100694347D01*
X133078841Y-99521004D01*
X135228374Y-99521004D01*
X135228374Y-100572226D01*
X135438422Y-100572226D01*
X135438422Y-99521004D01*
X135228374Y-99521004D01*
X133078841Y-99521004D01*
X133078841Y-99434542D01*
X132868792Y-99434542D01*
X127997660Y-99434542D01*
X127997660Y-97840614D01*
X128508374Y-97840614D01*
X128508374Y-98891835D01*
X128718422Y-98891835D01*
X128718422Y-97840614D01*
X128508374Y-97840614D01*
X127997660Y-97840614D01*
X127997660Y-97645708D01*
X130827899Y-97645708D01*
X130827899Y-99129239D01*
X131037948Y-99129239D01*
X131037948Y-98511304D01*
X132860000Y-98511304D01*
X132860000Y-98263642D01*
X131037948Y-98263642D01*
X131037948Y-97840614D01*
X135228374Y-97840614D01*
X135228374Y-98891835D01*
X135438422Y-98891835D01*
X135438422Y-97840614D01*
X135228374Y-97840614D01*
X131037948Y-97840614D01*
X131037948Y-97645708D01*
X130827899Y-97645708D01*
X127997660Y-97645708D01*
X127997660Y-96160223D01*
X128508374Y-96160223D01*
X128508374Y-97211444D01*
X128718422Y-97211444D01*
X128718422Y-96731751D01*
X130796636Y-96731751D01*
X130797022Y-96756120D01*
X130798182Y-96780317D01*
X130800114Y-96804343D01*
X130802818Y-96828196D01*
X130806296Y-96851878D01*
X130810546Y-96875389D01*
X130815570Y-96898727D01*
X130821366Y-96921894D01*
X130827934Y-96944889D01*
X130835276Y-96967713D01*
X130840600Y-96982833D01*
X130849065Y-97005303D01*
X130858157Y-97027283D01*
X130867875Y-97048774D01*
X130878221Y-97069776D01*
X130889193Y-97090288D01*
X130900792Y-97110310D01*
X130913018Y-97129844D01*
X130925871Y-97148887D01*
X130939351Y-97167442D01*
X130953457Y-97185507D01*
X130963210Y-97197278D01*
X130978252Y-97214533D01*
X130993887Y-97231127D01*
X131010114Y-97247059D01*
X131026934Y-97262330D01*
X131044346Y-97276941D01*
X131062351Y-97290890D01*
X131080948Y-97304178D01*
X131100138Y-97316804D01*
X131119920Y-97328770D01*
X131140295Y-97340074D01*
X131154207Y-97347243D01*
X131175505Y-97357308D01*
X131197267Y-97366437D01*
X131219492Y-97374630D01*
X131242181Y-97381887D01*
X131265333Y-97388209D01*
X131288949Y-97393594D01*
X131313029Y-97398043D01*
X131337573Y-97401557D01*
X131362580Y-97404134D01*
X131388051Y-97405775D01*
X131405289Y-97406350D01*
X131405289Y-97145498D01*
X131383200Y-97142369D01*
X131361631Y-97138599D01*
X131340580Y-97134187D01*
X131320048Y-97129134D01*
X131300036Y-97123440D01*
X131280542Y-97117105D01*
X131261567Y-97110129D01*
X131243112Y-97102512D01*
X131225122Y-97094368D01*
X131203557Y-97083265D01*
X131183019Y-97071136D01*
X131163505Y-97057982D01*
X131145018Y-97043802D01*
X131127556Y-97028596D01*
X131117571Y-97018981D01*
X131101669Y-97002158D01*
X131086936Y-96984357D01*
X131073371Y-96965579D01*
X131060975Y-96945822D01*
X131049748Y-96925088D01*
X131039690Y-96903376D01*
X131035994Y-96894417D01*
X131027550Y-96871512D01*
X131021826Y-96852518D01*
X131017017Y-96832929D01*
X131013125Y-96812745D01*
X131010148Y-96791965D01*
X131008087Y-96770590D01*
X131006942Y-96748620D01*
X131006685Y-96731751D01*
X131007210Y-96709089D01*
X131008784Y-96686595D01*
X131011407Y-96664267D01*
X131015081Y-96642106D01*
X131019803Y-96620113D01*
X131025575Y-96598286D01*
X131028178Y-96589602D01*
X131035267Y-96568295D01*
X131043405Y-96547727D01*
X131052593Y-96527899D01*
X131062830Y-96508811D01*
X131074117Y-96490462D01*
X131086453Y-96472852D01*
X131091681Y-96466015D01*
X131105298Y-96449607D01*
X131119893Y-96434273D01*
X131135466Y-96420012D01*
X131152017Y-96406824D01*
X131169546Y-96394710D01*
X131188052Y-96383669D01*
X131195729Y-96379553D01*
X131215452Y-96370265D01*
X131236153Y-96362551D01*
X131257832Y-96356412D01*
X131280489Y-96351847D01*
X131304123Y-96348856D01*
X131323735Y-96347596D01*
X131338855Y-96347313D01*
X131360654Y-96348206D01*
X131381598Y-96350396D01*
X131401687Y-96353884D01*
X131420921Y-96358670D01*
X131443761Y-96366477D01*
X131465266Y-96376311D01*
X131485435Y-96388172D01*
X131489309Y-96390788D01*
X131507937Y-96404758D01*
X131525659Y-96419801D01*
X131542474Y-96435918D01*
X131558384Y-96453108D01*
X131573386Y-96471371D01*
X131587483Y-96490708D01*
X131592868Y-96498743D01*
X131605662Y-96519461D01*
X131615416Y-96536413D01*
X131624743Y-96553701D01*
X131633643Y-96571325D01*
X131642115Y-96589284D01*
X131650160Y-96607579D01*
X131657777Y-96626210D01*
X131663210Y-96640404D01*
X131670071Y-96659318D01*
X131676734Y-96677957D01*
X131684784Y-96700869D01*
X131692524Y-96723351D01*
X131699954Y-96745405D01*
X131707074Y-96767029D01*
X131712547Y-96784019D01*
X131718630Y-96802597D01*
X131724911Y-96821205D01*
X131731391Y-96839844D01*
X131738070Y-96858513D01*
X131744947Y-96877213D01*
X131752022Y-96895943D01*
X131759296Y-96914704D01*
X131766769Y-96933496D01*
X131774485Y-96952333D01*
X131782492Y-96970987D01*
X131790788Y-96989458D01*
X131799375Y-97007745D01*
X131808252Y-97025850D01*
X131817418Y-97043771D01*
X131826875Y-97061509D01*
X131836622Y-97079064D01*
X131846552Y-97096497D01*
X131856803Y-97113625D01*
X131867374Y-97130447D01*
X131878265Y-97146964D01*
X131889478Y-97163176D01*
X131901010Y-97179082D01*
X131912864Y-97194683D01*
X131925038Y-97209979D01*
X131940790Y-97228526D01*
X131957209Y-97246310D01*
X131974297Y-97263330D01*
X131992052Y-97279588D01*
X132010475Y-97295082D01*
X132029566Y-97309813D01*
X132037390Y-97315491D01*
X132057239Y-97329199D01*
X132077709Y-97341929D01*
X132098799Y-97353681D01*
X132120508Y-97364455D01*
X132142839Y-97374250D01*
X132161149Y-97381383D01*
X132175143Y-97386322D01*
X132194201Y-97392275D01*
X132213763Y-97397435D01*
X132233830Y-97401801D01*
X132254399Y-97405373D01*
X132275473Y-97408151D01*
X132297050Y-97410136D01*
X132319131Y-97411326D01*
X132341716Y-97411723D01*
X132367327Y-97411199D01*
X132392320Y-97409628D01*
X132416695Y-97407009D01*
X132440451Y-97403343D01*
X132463590Y-97398628D01*
X132486109Y-97392867D01*
X132508011Y-97386058D01*
X132529295Y-97378201D01*
X132549960Y-97369296D01*
X132570007Y-97359345D01*
X132583028Y-97352128D01*
X132601962Y-97340645D01*
X132620294Y-97328543D01*
X132638026Y-97315823D01*
X132655156Y-97302486D01*
X132671685Y-97288529D01*
X132687614Y-97273955D01*
X132702941Y-97258762D01*
X132717667Y-97242951D01*
X132731792Y-97226522D01*
X132745316Y-97209475D01*
X132753998Y-97197766D01*
X132766525Y-97179779D01*
X132778459Y-97161353D01*
X132789800Y-97142490D01*
X132800549Y-97123188D01*
X132810706Y-97103449D01*
X132820270Y-97083272D01*
X132829242Y-97062657D01*
X132837621Y-97041604D01*
X132845407Y-97020113D01*
X132852602Y-96998184D01*
X132857069Y-96983321D01*
X132863179Y-96960881D01*
X132868689Y-96938442D01*
X132873598Y-96916002D01*
X132877906Y-96893562D01*
X132881612Y-96871122D01*
X132884718Y-96848682D01*
X132887222Y-96826243D01*
X132889125Y-96803803D01*
X132890428Y-96781363D01*
X132891129Y-96758923D01*
X132891263Y-96743963D01*
X132890898Y-96719093D01*
X132889803Y-96694309D01*
X132887978Y-96669611D01*
X132885424Y-96644999D01*
X132882139Y-96620473D01*
X132878125Y-96596032D01*
X132873381Y-96571678D01*
X132867907Y-96547409D01*
X132861703Y-96523226D01*
X132854769Y-96499129D01*
X132849741Y-96483112D01*
X132841547Y-96459438D01*
X132832717Y-96436229D01*
X132823251Y-96413483D01*
X132813151Y-96391200D01*
X132802414Y-96369382D01*
X132791043Y-96348026D01*
X132779036Y-96327135D01*
X132766393Y-96306707D01*
X132753116Y-96286743D01*
X132739202Y-96267243D01*
X132729574Y-96254501D01*
X132714527Y-96235872D01*
X132698879Y-96217904D01*
X132682631Y-96200598D01*
X132665781Y-96183953D01*
X132648330Y-96167968D01*
X132639205Y-96160223D01*
X135228374Y-96160223D01*
X135228374Y-97211444D01*
X135438422Y-97211444D01*
X135438422Y-96160223D01*
X135228374Y-96160223D01*
X132639205Y-96160223D01*
X132630278Y-96152646D01*
X132611625Y-96137984D01*
X132592370Y-96123983D01*
X132572515Y-96110644D01*
X132552059Y-96097966D01*
X132538087Y-96089881D01*
X132516564Y-96078585D01*
X132494490Y-96068328D01*
X132471867Y-96059111D01*
X132448695Y-96050932D01*
X132424972Y-96043792D01*
X132400701Y-96037691D01*
X132375880Y-96032629D01*
X132350509Y-96028606D01*
X132324589Y-96025623D01*
X132298119Y-96023678D01*
X132280167Y-96022958D01*
X132280167Y-96282344D01*
X132303889Y-96285916D01*
X132326939Y-96290282D01*
X132349318Y-96295442D01*
X132371025Y-96301395D01*
X132392061Y-96308142D01*
X132412424Y-96315683D01*
X132432117Y-96324018D01*
X132451137Y-96333147D01*
X132469348Y-96343138D01*
X132486857Y-96353816D01*
X132503664Y-96365181D01*
X132519769Y-96377233D01*
X132535172Y-96389971D01*
X132549872Y-96403397D01*
X132563870Y-96417510D01*
X132577166Y-96432309D01*
X132589714Y-96447735D01*
X132601468Y-96463725D01*
X132612429Y-96480280D01*
X132622595Y-96497400D01*
X132631968Y-96515085D01*
X132640547Y-96533334D01*
X132648333Y-96552149D01*
X132655324Y-96571528D01*
X132661392Y-96591533D01*
X132666651Y-96611980D01*
X132671101Y-96632871D01*
X132674741Y-96654204D01*
X132677573Y-96675980D01*
X132679596Y-96698198D01*
X132680809Y-96720859D01*
X132681214Y-96743963D01*
X132680749Y-96767119D01*
X132679353Y-96790179D01*
X132677028Y-96813143D01*
X132673772Y-96836012D01*
X132669586Y-96858786D01*
X132664470Y-96881464D01*
X132662163Y-96890509D01*
X132655697Y-96912708D01*
X132648205Y-96934120D01*
X132639687Y-96954744D01*
X132630144Y-96974582D01*
X132619575Y-96993632D01*
X132607981Y-97011896D01*
X132603056Y-97018981D01*
X132590026Y-97036035D01*
X132575970Y-97052087D01*
X132560888Y-97067138D01*
X132544781Y-97081186D01*
X132527648Y-97094233D01*
X132509490Y-97106278D01*
X132501939Y-97110816D01*
X132482145Y-97121230D01*
X132461229Y-97129878D01*
X132439192Y-97136762D01*
X132416035Y-97141881D01*
X132391756Y-97145234D01*
X132371526Y-97146646D01*
X132355882Y-97146964D01*
X132332778Y-97146308D01*
X132310606Y-97144338D01*
X132289364Y-97141056D01*
X132269054Y-97136461D01*
X132249675Y-97130554D01*
X132231227Y-97123333D01*
X132209476Y-97112462D01*
X132197124Y-97104954D01*
X132177335Y-97091242D01*
X132158570Y-97076361D01*
X132140832Y-97060311D01*
X132124119Y-97043092D01*
X132108431Y-97024705D01*
X132093770Y-97005148D01*
X132088192Y-96996999D01*
X132077316Y-96980306D01*
X132066912Y-96963202D01*
X132056982Y-96945685D01*
X132047526Y-96927756D01*
X132038542Y-96909415D01*
X132030032Y-96890662D01*
X132021995Y-96871496D01*
X132014431Y-96851919D01*
X132007073Y-96832341D01*
X131999898Y-96812931D01*
X131992907Y-96793690D01*
X131986099Y-96774616D01*
X131979474Y-96755710D01*
X131973032Y-96736972D01*
X131966773Y-96718402D01*
X131960697Y-96700000D01*
X131953978Y-96680181D01*
X131947010Y-96660295D01*
X131939793Y-96640339D01*
X131932327Y-96620315D01*
X131924612Y-96600222D01*
X131916648Y-96580061D01*
X131908435Y-96559831D01*
X131899972Y-96539532D01*
X131891261Y-96519164D01*
X131882301Y-96498728D01*
X131876189Y-96485066D01*
X131866741Y-96464804D01*
X131856898Y-96444869D01*
X131846660Y-96425260D01*
X131836027Y-96405977D01*
X131824998Y-96387020D01*
X131813575Y-96368390D01*
X131801757Y-96350086D01*
X131789544Y-96332109D01*
X131776936Y-96314457D01*
X131763933Y-96297132D01*
X131755045Y-96285764D01*
X131741353Y-96269199D01*
X131727207Y-96253209D01*
X131712605Y-96237794D01*
X131697549Y-96222955D01*
X131682037Y-96208691D01*
X131666070Y-96195003D01*
X131649648Y-96181889D01*
X131632771Y-96169351D01*
X131615439Y-96157389D01*
X131597651Y-96146001D01*
X131585540Y-96138729D01*
X131566917Y-96128603D01*
X131547685Y-96119472D01*
X131527842Y-96111338D01*
X131507390Y-96104200D01*
X131486329Y-96098057D01*
X131464657Y-96092911D01*
X131442376Y-96088761D01*
X131419486Y-96085607D01*
X131395985Y-96083449D01*
X131371876Y-96082286D01*
X131355464Y-96082065D01*
X131330891Y-96082563D01*
X131306817Y-96084057D01*
X131283241Y-96086547D01*
X131260163Y-96090034D01*
X131237583Y-96094516D01*
X131215501Y-96099994D01*
X131193917Y-96106468D01*
X131172831Y-96113939D01*
X131152243Y-96122405D01*
X131132153Y-96131868D01*
X131119036Y-96138729D01*
X131099811Y-96149750D01*
X131081152Y-96161381D01*
X131063060Y-96173621D01*
X131045535Y-96186471D01*
X131028576Y-96199931D01*
X131012184Y-96214000D01*
X130996359Y-96228679D01*
X130981100Y-96243968D01*
X130966409Y-96259866D01*
X130952283Y-96276374D01*
X130943182Y-96287718D01*
X130930023Y-96305243D01*
X130917473Y-96323198D01*
X130905533Y-96341582D01*
X130894203Y-96360395D01*
X130883483Y-96379638D01*
X130873372Y-96399310D01*
X130863871Y-96419411D01*
X130854979Y-96439942D01*
X130846698Y-96460902D01*
X130839025Y-96482291D01*
X130834249Y-96496789D01*
X130827527Y-96518693D01*
X130821467Y-96540622D01*
X130816067Y-96562576D01*
X130811329Y-96584557D01*
X130807251Y-96606563D01*
X130803835Y-96628595D01*
X130801080Y-96650652D01*
X130798987Y-96672736D01*
X130797554Y-96694845D01*
X130796783Y-96716980D01*
X130796636Y-96731751D01*
X128718422Y-96731751D01*
X128718422Y-96160223D01*
X128508374Y-96160223D01*
X127997660Y-96160223D01*
X127997660Y-94479832D01*
X128508374Y-94479832D01*
X128508374Y-95531053D01*
X128718422Y-95531053D01*
X128718422Y-94479832D01*
X128508374Y-94479832D01*
X127997660Y-94479832D01*
X127997660Y-94452477D01*
X130827899Y-94452477D01*
X130827899Y-94706489D01*
X132649951Y-94706489D01*
X132649951Y-95684926D01*
X132860000Y-95684926D01*
X132860000Y-94479832D01*
X135228374Y-94479832D01*
X135228374Y-95531053D01*
X135438422Y-95531053D01*
X135438422Y-94479832D01*
X135228374Y-94479832D01*
X132860000Y-94479832D01*
X132860000Y-94452477D01*
X130827899Y-94452477D01*
X127997660Y-94452477D01*
X127997660Y-92799441D01*
X128508374Y-92799441D01*
X128508374Y-93850662D01*
X128718422Y-93850662D01*
X128718422Y-92799441D01*
X128508374Y-92799441D01*
X127997660Y-92799441D01*
X127997660Y-92736427D01*
X130827899Y-92736427D01*
X130827899Y-92995812D01*
X131824898Y-92995812D01*
X131578213Y-93189741D01*
X130827899Y-93776413D01*
X130827899Y-94085624D01*
X131721828Y-93386113D01*
X132860000Y-94132030D01*
X132860000Y-93822819D01*
X131923572Y-93218562D01*
X132176120Y-92995812D01*
X132860000Y-92995812D01*
X132860000Y-92799441D01*
X135228374Y-92799441D01*
X135228374Y-93850662D01*
X135438422Y-93850662D01*
X135438422Y-92799441D01*
X135228374Y-92799441D01*
X132860000Y-92799441D01*
X132860000Y-92736427D01*
X130827899Y-92736427D01*
X127997660Y-92736427D01*
X127997660Y-92225714D01*
X135949136Y-92225714D01*
X135949136Y-107958377D01*
G37*
%LPC*%
D11*
%TO.C,J1*%
X142000000Y-91100000D03*
D12*
X139460000Y-91100000D03*
X142000000Y-93640000D03*
X139460000Y-93640000D03*
X142000000Y-96180000D03*
X139460000Y-96180000D03*
X142000000Y-98720000D03*
X139460000Y-98720000D03*
X142000000Y-101260000D03*
X139460000Y-101260000D03*
X142000000Y-103800000D03*
X139460000Y-103800000D03*
X142000000Y-106340000D03*
X139460000Y-106340000D03*
X142000000Y-108880000D03*
X139460000Y-108880000D03*
%TD*%
M02*
