M48
; DRILL file {KiCad 7.0.1-0} date 2023 May 08, Monday 09:26:49
; FORMAT={-:-/ absolute / inch / decimal}
; #@! TF.CreationDate,2023-05-08T09:26:49+02:00
; #@! TF.GenerationSoftware,Kicad,Pcbnew,7.0.1-0
; #@! TF.FileFunction,Plated,1,2,PTH
FMAT,2
INCH
; #@! TA.AperFunction,Plated,PTH,ViaDrill
T1C0.0157
; #@! TA.AperFunction,Plated,PTH,ComponentDrill
T2C0.0394
%
G90
G05
T1
X5.0236Y-3.9016
X5.0827Y-3.8307
X5.1516Y-3.8209
X5.1535Y-4.1142
X5.1693Y-3.7165
X5.1905Y-3.7819
X5.1947Y-4.0612
X5.1969Y-4.1024
X5.2349Y-4.0626
X5.252Y-3.7914
X5.279Y-4.1654
X5.3103Y-3.9419
X5.3111Y-3.8386
X5.3122Y-4.0906
X5.3189Y-4.1457
X5.3189Y-3.9803
X5.371Y-4.041
X5.3858Y-4.1339
X5.3976Y-3.9449
X5.43Y-3.8346
X5.43Y-4.03
X5.4325Y-3.7425
T2
X5.4906Y-3.5866
X5.4906Y-3.6866
X5.4906Y-3.7866
X5.4906Y-3.8866
X5.4906Y-3.9866
X5.4906Y-4.0866
X5.4906Y-4.1866
X5.4906Y-4.2866
X5.5906Y-3.5866
X5.5906Y-3.6866
X5.5906Y-3.7866
X5.5906Y-3.8866
X5.5906Y-3.9866
X5.5906Y-4.0866
X5.5906Y-4.1866
X5.5906Y-4.2866
T0
M30
