%TF.GenerationSoftware,KiCad,Pcbnew,(5.1.8-0-10_14)*%
%TF.CreationDate,2021-03-24T11:52:58+01:00*%
%TF.ProjectId,KLST_TINY,4b4c5354-5f54-4494-9e59-2e6b69636164,0.1*%
%TF.SameCoordinates,Original*%
%TF.FileFunction,Soldermask,Top*%
%TF.FilePolarity,Negative*%
%FSLAX46Y46*%
G04 Gerber Fmt 4.6, Leading zero omitted, Abs format (unit mm)*
G04 Created by KiCad (PCBNEW (5.1.8-0-10_14)) date 2021-03-24 11:52:58*
%MOMM*%
%LPD*%
G01*
G04 APERTURE LIST*
%ADD10R,2.500000X1.600000*%
%ADD11C,1.400000*%
%ADD12R,0.740000X2.400000*%
%ADD13O,1.700000X1.700000*%
%ADD14R,1.700000X1.700000*%
%ADD15C,1.700000*%
%ADD16R,0.600000X1.350000*%
%ADD17O,1.070000X2.140000*%
%ADD18C,1.300000*%
%ADD19R,0.400000X1.250000*%
%ADD20R,1.400000X1.200000*%
%ADD21R,1.400000X1.600000*%
%ADD22R,2.200000X1.200000*%
%ADD23C,1.000000*%
%ADD24R,1.600000X0.700000*%
%ADD25R,1.200000X0.900000*%
%ADD26C,1.800000*%
%ADD27R,1.800000X1.800000*%
%ADD28C,1.600000*%
%ADD29R,1.600000X1.500000*%
%ADD30C,3.000000*%
%ADD31R,1.750000X0.450000*%
%ADD32R,1.500000X2.000000*%
%ADD33R,3.800000X2.000000*%
%ADD34R,2.000000X2.000000*%
%ADD35C,2.000000*%
%ADD36R,2.500000X3.000000*%
%ADD37R,0.900000X0.800000*%
%ADD38C,0.800000*%
%ADD39C,6.400000*%
G04 APERTURE END LIST*
D10*
%TO.C,J8*%
X146200000Y-62500000D03*
X146200000Y-64500000D03*
X137800000Y-63500000D03*
X137800000Y-58500000D03*
X137800000Y-55900000D03*
X146200000Y-55900000D03*
D11*
X142000000Y-63600000D03*
%TD*%
D10*
%TO.C,J7*%
X133700000Y-62500000D03*
X133700000Y-64500000D03*
X125300000Y-63500000D03*
X125300000Y-58500000D03*
X125300000Y-55900000D03*
X133700000Y-55900000D03*
D11*
X129500000Y-63600000D03*
%TD*%
D10*
%TO.C,J6*%
X121200000Y-62500000D03*
X121200000Y-64500000D03*
X112800000Y-63500000D03*
X112800000Y-58500000D03*
X112800000Y-55900000D03*
X121200000Y-55900000D03*
D11*
X117000000Y-63600000D03*
%TD*%
D12*
%TO.C,J5*%
X138540000Y-131250000D03*
X138540000Y-135150000D03*
X137270000Y-131250000D03*
X137270000Y-135150000D03*
X136000000Y-131250000D03*
X136000000Y-135150000D03*
X134730000Y-131250000D03*
X134730000Y-135150000D03*
X133460000Y-131250000D03*
X133460000Y-135150000D03*
%TD*%
D13*
%TO.C,J13*%
X102460000Y-123340000D03*
X105000000Y-123340000D03*
X102460000Y-125880000D03*
D14*
X105000000Y-125880000D03*
%TD*%
D13*
%TO.C,J11*%
X155540000Y-125860000D03*
X153000000Y-125860000D03*
X155540000Y-123320000D03*
D14*
X153000000Y-123320000D03*
%TD*%
%TO.C,U1*%
G36*
G01*
X115025000Y-120200000D02*
X113625000Y-120200000D01*
G75*
G02*
X113550000Y-120125000I0J75000D01*
G01*
X113550000Y-119975000D01*
G75*
G02*
X113625000Y-119900000I75000J0D01*
G01*
X115025000Y-119900000D01*
G75*
G02*
X115100000Y-119975000I0J-75000D01*
G01*
X115100000Y-120125000D01*
G75*
G02*
X115025000Y-120200000I-75000J0D01*
G01*
G37*
G36*
G01*
X115025000Y-119700000D02*
X113625000Y-119700000D01*
G75*
G02*
X113550000Y-119625000I0J75000D01*
G01*
X113550000Y-119475000D01*
G75*
G02*
X113625000Y-119400000I75000J0D01*
G01*
X115025000Y-119400000D01*
G75*
G02*
X115100000Y-119475000I0J-75000D01*
G01*
X115100000Y-119625000D01*
G75*
G02*
X115025000Y-119700000I-75000J0D01*
G01*
G37*
G36*
G01*
X115025000Y-119200000D02*
X113625000Y-119200000D01*
G75*
G02*
X113550000Y-119125000I0J75000D01*
G01*
X113550000Y-118975000D01*
G75*
G02*
X113625000Y-118900000I75000J0D01*
G01*
X115025000Y-118900000D01*
G75*
G02*
X115100000Y-118975000I0J-75000D01*
G01*
X115100000Y-119125000D01*
G75*
G02*
X115025000Y-119200000I-75000J0D01*
G01*
G37*
G36*
G01*
X115025000Y-118700000D02*
X113625000Y-118700000D01*
G75*
G02*
X113550000Y-118625000I0J75000D01*
G01*
X113550000Y-118475000D01*
G75*
G02*
X113625000Y-118400000I75000J0D01*
G01*
X115025000Y-118400000D01*
G75*
G02*
X115100000Y-118475000I0J-75000D01*
G01*
X115100000Y-118625000D01*
G75*
G02*
X115025000Y-118700000I-75000J0D01*
G01*
G37*
G36*
G01*
X115025000Y-118200000D02*
X113625000Y-118200000D01*
G75*
G02*
X113550000Y-118125000I0J75000D01*
G01*
X113550000Y-117975000D01*
G75*
G02*
X113625000Y-117900000I75000J0D01*
G01*
X115025000Y-117900000D01*
G75*
G02*
X115100000Y-117975000I0J-75000D01*
G01*
X115100000Y-118125000D01*
G75*
G02*
X115025000Y-118200000I-75000J0D01*
G01*
G37*
G36*
G01*
X115025000Y-117700000D02*
X113625000Y-117700000D01*
G75*
G02*
X113550000Y-117625000I0J75000D01*
G01*
X113550000Y-117475000D01*
G75*
G02*
X113625000Y-117400000I75000J0D01*
G01*
X115025000Y-117400000D01*
G75*
G02*
X115100000Y-117475000I0J-75000D01*
G01*
X115100000Y-117625000D01*
G75*
G02*
X115025000Y-117700000I-75000J0D01*
G01*
G37*
G36*
G01*
X115025000Y-117200000D02*
X113625000Y-117200000D01*
G75*
G02*
X113550000Y-117125000I0J75000D01*
G01*
X113550000Y-116975000D01*
G75*
G02*
X113625000Y-116900000I75000J0D01*
G01*
X115025000Y-116900000D01*
G75*
G02*
X115100000Y-116975000I0J-75000D01*
G01*
X115100000Y-117125000D01*
G75*
G02*
X115025000Y-117200000I-75000J0D01*
G01*
G37*
G36*
G01*
X115025000Y-116700000D02*
X113625000Y-116700000D01*
G75*
G02*
X113550000Y-116625000I0J75000D01*
G01*
X113550000Y-116475000D01*
G75*
G02*
X113625000Y-116400000I75000J0D01*
G01*
X115025000Y-116400000D01*
G75*
G02*
X115100000Y-116475000I0J-75000D01*
G01*
X115100000Y-116625000D01*
G75*
G02*
X115025000Y-116700000I-75000J0D01*
G01*
G37*
G36*
G01*
X115025000Y-116200000D02*
X113625000Y-116200000D01*
G75*
G02*
X113550000Y-116125000I0J75000D01*
G01*
X113550000Y-115975000D01*
G75*
G02*
X113625000Y-115900000I75000J0D01*
G01*
X115025000Y-115900000D01*
G75*
G02*
X115100000Y-115975000I0J-75000D01*
G01*
X115100000Y-116125000D01*
G75*
G02*
X115025000Y-116200000I-75000J0D01*
G01*
G37*
G36*
G01*
X115025000Y-115700000D02*
X113625000Y-115700000D01*
G75*
G02*
X113550000Y-115625000I0J75000D01*
G01*
X113550000Y-115475000D01*
G75*
G02*
X113625000Y-115400000I75000J0D01*
G01*
X115025000Y-115400000D01*
G75*
G02*
X115100000Y-115475000I0J-75000D01*
G01*
X115100000Y-115625000D01*
G75*
G02*
X115025000Y-115700000I-75000J0D01*
G01*
G37*
G36*
G01*
X115025000Y-115200000D02*
X113625000Y-115200000D01*
G75*
G02*
X113550000Y-115125000I0J75000D01*
G01*
X113550000Y-114975000D01*
G75*
G02*
X113625000Y-114900000I75000J0D01*
G01*
X115025000Y-114900000D01*
G75*
G02*
X115100000Y-114975000I0J-75000D01*
G01*
X115100000Y-115125000D01*
G75*
G02*
X115025000Y-115200000I-75000J0D01*
G01*
G37*
G36*
G01*
X115025000Y-114700000D02*
X113625000Y-114700000D01*
G75*
G02*
X113550000Y-114625000I0J75000D01*
G01*
X113550000Y-114475000D01*
G75*
G02*
X113625000Y-114400000I75000J0D01*
G01*
X115025000Y-114400000D01*
G75*
G02*
X115100000Y-114475000I0J-75000D01*
G01*
X115100000Y-114625000D01*
G75*
G02*
X115025000Y-114700000I-75000J0D01*
G01*
G37*
G36*
G01*
X115025000Y-114200000D02*
X113625000Y-114200000D01*
G75*
G02*
X113550000Y-114125000I0J75000D01*
G01*
X113550000Y-113975000D01*
G75*
G02*
X113625000Y-113900000I75000J0D01*
G01*
X115025000Y-113900000D01*
G75*
G02*
X115100000Y-113975000I0J-75000D01*
G01*
X115100000Y-114125000D01*
G75*
G02*
X115025000Y-114200000I-75000J0D01*
G01*
G37*
G36*
G01*
X115025000Y-113700000D02*
X113625000Y-113700000D01*
G75*
G02*
X113550000Y-113625000I0J75000D01*
G01*
X113550000Y-113475000D01*
G75*
G02*
X113625000Y-113400000I75000J0D01*
G01*
X115025000Y-113400000D01*
G75*
G02*
X115100000Y-113475000I0J-75000D01*
G01*
X115100000Y-113625000D01*
G75*
G02*
X115025000Y-113700000I-75000J0D01*
G01*
G37*
G36*
G01*
X115025000Y-113200000D02*
X113625000Y-113200000D01*
G75*
G02*
X113550000Y-113125000I0J75000D01*
G01*
X113550000Y-112975000D01*
G75*
G02*
X113625000Y-112900000I75000J0D01*
G01*
X115025000Y-112900000D01*
G75*
G02*
X115100000Y-112975000I0J-75000D01*
G01*
X115100000Y-113125000D01*
G75*
G02*
X115025000Y-113200000I-75000J0D01*
G01*
G37*
G36*
G01*
X115025000Y-112700000D02*
X113625000Y-112700000D01*
G75*
G02*
X113550000Y-112625000I0J75000D01*
G01*
X113550000Y-112475000D01*
G75*
G02*
X113625000Y-112400000I75000J0D01*
G01*
X115025000Y-112400000D01*
G75*
G02*
X115100000Y-112475000I0J-75000D01*
G01*
X115100000Y-112625000D01*
G75*
G02*
X115025000Y-112700000I-75000J0D01*
G01*
G37*
G36*
G01*
X116325000Y-111400000D02*
X116175000Y-111400000D01*
G75*
G02*
X116100000Y-111325000I0J75000D01*
G01*
X116100000Y-109925000D01*
G75*
G02*
X116175000Y-109850000I75000J0D01*
G01*
X116325000Y-109850000D01*
G75*
G02*
X116400000Y-109925000I0J-75000D01*
G01*
X116400000Y-111325000D01*
G75*
G02*
X116325000Y-111400000I-75000J0D01*
G01*
G37*
G36*
G01*
X116825000Y-111400000D02*
X116675000Y-111400000D01*
G75*
G02*
X116600000Y-111325000I0J75000D01*
G01*
X116600000Y-109925000D01*
G75*
G02*
X116675000Y-109850000I75000J0D01*
G01*
X116825000Y-109850000D01*
G75*
G02*
X116900000Y-109925000I0J-75000D01*
G01*
X116900000Y-111325000D01*
G75*
G02*
X116825000Y-111400000I-75000J0D01*
G01*
G37*
G36*
G01*
X117325000Y-111400000D02*
X117175000Y-111400000D01*
G75*
G02*
X117100000Y-111325000I0J75000D01*
G01*
X117100000Y-109925000D01*
G75*
G02*
X117175000Y-109850000I75000J0D01*
G01*
X117325000Y-109850000D01*
G75*
G02*
X117400000Y-109925000I0J-75000D01*
G01*
X117400000Y-111325000D01*
G75*
G02*
X117325000Y-111400000I-75000J0D01*
G01*
G37*
G36*
G01*
X117825000Y-111400000D02*
X117675000Y-111400000D01*
G75*
G02*
X117600000Y-111325000I0J75000D01*
G01*
X117600000Y-109925000D01*
G75*
G02*
X117675000Y-109850000I75000J0D01*
G01*
X117825000Y-109850000D01*
G75*
G02*
X117900000Y-109925000I0J-75000D01*
G01*
X117900000Y-111325000D01*
G75*
G02*
X117825000Y-111400000I-75000J0D01*
G01*
G37*
G36*
G01*
X118325000Y-111400000D02*
X118175000Y-111400000D01*
G75*
G02*
X118100000Y-111325000I0J75000D01*
G01*
X118100000Y-109925000D01*
G75*
G02*
X118175000Y-109850000I75000J0D01*
G01*
X118325000Y-109850000D01*
G75*
G02*
X118400000Y-109925000I0J-75000D01*
G01*
X118400000Y-111325000D01*
G75*
G02*
X118325000Y-111400000I-75000J0D01*
G01*
G37*
G36*
G01*
X118825000Y-111400000D02*
X118675000Y-111400000D01*
G75*
G02*
X118600000Y-111325000I0J75000D01*
G01*
X118600000Y-109925000D01*
G75*
G02*
X118675000Y-109850000I75000J0D01*
G01*
X118825000Y-109850000D01*
G75*
G02*
X118900000Y-109925000I0J-75000D01*
G01*
X118900000Y-111325000D01*
G75*
G02*
X118825000Y-111400000I-75000J0D01*
G01*
G37*
G36*
G01*
X119325000Y-111400000D02*
X119175000Y-111400000D01*
G75*
G02*
X119100000Y-111325000I0J75000D01*
G01*
X119100000Y-109925000D01*
G75*
G02*
X119175000Y-109850000I75000J0D01*
G01*
X119325000Y-109850000D01*
G75*
G02*
X119400000Y-109925000I0J-75000D01*
G01*
X119400000Y-111325000D01*
G75*
G02*
X119325000Y-111400000I-75000J0D01*
G01*
G37*
G36*
G01*
X119825000Y-111400000D02*
X119675000Y-111400000D01*
G75*
G02*
X119600000Y-111325000I0J75000D01*
G01*
X119600000Y-109925000D01*
G75*
G02*
X119675000Y-109850000I75000J0D01*
G01*
X119825000Y-109850000D01*
G75*
G02*
X119900000Y-109925000I0J-75000D01*
G01*
X119900000Y-111325000D01*
G75*
G02*
X119825000Y-111400000I-75000J0D01*
G01*
G37*
G36*
G01*
X120325000Y-111400000D02*
X120175000Y-111400000D01*
G75*
G02*
X120100000Y-111325000I0J75000D01*
G01*
X120100000Y-109925000D01*
G75*
G02*
X120175000Y-109850000I75000J0D01*
G01*
X120325000Y-109850000D01*
G75*
G02*
X120400000Y-109925000I0J-75000D01*
G01*
X120400000Y-111325000D01*
G75*
G02*
X120325000Y-111400000I-75000J0D01*
G01*
G37*
G36*
G01*
X120825000Y-111400000D02*
X120675000Y-111400000D01*
G75*
G02*
X120600000Y-111325000I0J75000D01*
G01*
X120600000Y-109925000D01*
G75*
G02*
X120675000Y-109850000I75000J0D01*
G01*
X120825000Y-109850000D01*
G75*
G02*
X120900000Y-109925000I0J-75000D01*
G01*
X120900000Y-111325000D01*
G75*
G02*
X120825000Y-111400000I-75000J0D01*
G01*
G37*
G36*
G01*
X121325000Y-111400000D02*
X121175000Y-111400000D01*
G75*
G02*
X121100000Y-111325000I0J75000D01*
G01*
X121100000Y-109925000D01*
G75*
G02*
X121175000Y-109850000I75000J0D01*
G01*
X121325000Y-109850000D01*
G75*
G02*
X121400000Y-109925000I0J-75000D01*
G01*
X121400000Y-111325000D01*
G75*
G02*
X121325000Y-111400000I-75000J0D01*
G01*
G37*
G36*
G01*
X121825000Y-111400000D02*
X121675000Y-111400000D01*
G75*
G02*
X121600000Y-111325000I0J75000D01*
G01*
X121600000Y-109925000D01*
G75*
G02*
X121675000Y-109850000I75000J0D01*
G01*
X121825000Y-109850000D01*
G75*
G02*
X121900000Y-109925000I0J-75000D01*
G01*
X121900000Y-111325000D01*
G75*
G02*
X121825000Y-111400000I-75000J0D01*
G01*
G37*
G36*
G01*
X122325000Y-111400000D02*
X122175000Y-111400000D01*
G75*
G02*
X122100000Y-111325000I0J75000D01*
G01*
X122100000Y-109925000D01*
G75*
G02*
X122175000Y-109850000I75000J0D01*
G01*
X122325000Y-109850000D01*
G75*
G02*
X122400000Y-109925000I0J-75000D01*
G01*
X122400000Y-111325000D01*
G75*
G02*
X122325000Y-111400000I-75000J0D01*
G01*
G37*
G36*
G01*
X122825000Y-111400000D02*
X122675000Y-111400000D01*
G75*
G02*
X122600000Y-111325000I0J75000D01*
G01*
X122600000Y-109925000D01*
G75*
G02*
X122675000Y-109850000I75000J0D01*
G01*
X122825000Y-109850000D01*
G75*
G02*
X122900000Y-109925000I0J-75000D01*
G01*
X122900000Y-111325000D01*
G75*
G02*
X122825000Y-111400000I-75000J0D01*
G01*
G37*
G36*
G01*
X123325000Y-111400000D02*
X123175000Y-111400000D01*
G75*
G02*
X123100000Y-111325000I0J75000D01*
G01*
X123100000Y-109925000D01*
G75*
G02*
X123175000Y-109850000I75000J0D01*
G01*
X123325000Y-109850000D01*
G75*
G02*
X123400000Y-109925000I0J-75000D01*
G01*
X123400000Y-111325000D01*
G75*
G02*
X123325000Y-111400000I-75000J0D01*
G01*
G37*
G36*
G01*
X123825000Y-111400000D02*
X123675000Y-111400000D01*
G75*
G02*
X123600000Y-111325000I0J75000D01*
G01*
X123600000Y-109925000D01*
G75*
G02*
X123675000Y-109850000I75000J0D01*
G01*
X123825000Y-109850000D01*
G75*
G02*
X123900000Y-109925000I0J-75000D01*
G01*
X123900000Y-111325000D01*
G75*
G02*
X123825000Y-111400000I-75000J0D01*
G01*
G37*
G36*
G01*
X126375000Y-112700000D02*
X124975000Y-112700000D01*
G75*
G02*
X124900000Y-112625000I0J75000D01*
G01*
X124900000Y-112475000D01*
G75*
G02*
X124975000Y-112400000I75000J0D01*
G01*
X126375000Y-112400000D01*
G75*
G02*
X126450000Y-112475000I0J-75000D01*
G01*
X126450000Y-112625000D01*
G75*
G02*
X126375000Y-112700000I-75000J0D01*
G01*
G37*
G36*
G01*
X126375000Y-113200000D02*
X124975000Y-113200000D01*
G75*
G02*
X124900000Y-113125000I0J75000D01*
G01*
X124900000Y-112975000D01*
G75*
G02*
X124975000Y-112900000I75000J0D01*
G01*
X126375000Y-112900000D01*
G75*
G02*
X126450000Y-112975000I0J-75000D01*
G01*
X126450000Y-113125000D01*
G75*
G02*
X126375000Y-113200000I-75000J0D01*
G01*
G37*
G36*
G01*
X126375000Y-113700000D02*
X124975000Y-113700000D01*
G75*
G02*
X124900000Y-113625000I0J75000D01*
G01*
X124900000Y-113475000D01*
G75*
G02*
X124975000Y-113400000I75000J0D01*
G01*
X126375000Y-113400000D01*
G75*
G02*
X126450000Y-113475000I0J-75000D01*
G01*
X126450000Y-113625000D01*
G75*
G02*
X126375000Y-113700000I-75000J0D01*
G01*
G37*
G36*
G01*
X126375000Y-114200000D02*
X124975000Y-114200000D01*
G75*
G02*
X124900000Y-114125000I0J75000D01*
G01*
X124900000Y-113975000D01*
G75*
G02*
X124975000Y-113900000I75000J0D01*
G01*
X126375000Y-113900000D01*
G75*
G02*
X126450000Y-113975000I0J-75000D01*
G01*
X126450000Y-114125000D01*
G75*
G02*
X126375000Y-114200000I-75000J0D01*
G01*
G37*
G36*
G01*
X126375000Y-114700000D02*
X124975000Y-114700000D01*
G75*
G02*
X124900000Y-114625000I0J75000D01*
G01*
X124900000Y-114475000D01*
G75*
G02*
X124975000Y-114400000I75000J0D01*
G01*
X126375000Y-114400000D01*
G75*
G02*
X126450000Y-114475000I0J-75000D01*
G01*
X126450000Y-114625000D01*
G75*
G02*
X126375000Y-114700000I-75000J0D01*
G01*
G37*
G36*
G01*
X126375000Y-115200000D02*
X124975000Y-115200000D01*
G75*
G02*
X124900000Y-115125000I0J75000D01*
G01*
X124900000Y-114975000D01*
G75*
G02*
X124975000Y-114900000I75000J0D01*
G01*
X126375000Y-114900000D01*
G75*
G02*
X126450000Y-114975000I0J-75000D01*
G01*
X126450000Y-115125000D01*
G75*
G02*
X126375000Y-115200000I-75000J0D01*
G01*
G37*
G36*
G01*
X126375000Y-115700000D02*
X124975000Y-115700000D01*
G75*
G02*
X124900000Y-115625000I0J75000D01*
G01*
X124900000Y-115475000D01*
G75*
G02*
X124975000Y-115400000I75000J0D01*
G01*
X126375000Y-115400000D01*
G75*
G02*
X126450000Y-115475000I0J-75000D01*
G01*
X126450000Y-115625000D01*
G75*
G02*
X126375000Y-115700000I-75000J0D01*
G01*
G37*
G36*
G01*
X126375000Y-116200000D02*
X124975000Y-116200000D01*
G75*
G02*
X124900000Y-116125000I0J75000D01*
G01*
X124900000Y-115975000D01*
G75*
G02*
X124975000Y-115900000I75000J0D01*
G01*
X126375000Y-115900000D01*
G75*
G02*
X126450000Y-115975000I0J-75000D01*
G01*
X126450000Y-116125000D01*
G75*
G02*
X126375000Y-116200000I-75000J0D01*
G01*
G37*
G36*
G01*
X126375000Y-116700000D02*
X124975000Y-116700000D01*
G75*
G02*
X124900000Y-116625000I0J75000D01*
G01*
X124900000Y-116475000D01*
G75*
G02*
X124975000Y-116400000I75000J0D01*
G01*
X126375000Y-116400000D01*
G75*
G02*
X126450000Y-116475000I0J-75000D01*
G01*
X126450000Y-116625000D01*
G75*
G02*
X126375000Y-116700000I-75000J0D01*
G01*
G37*
G36*
G01*
X126375000Y-117200000D02*
X124975000Y-117200000D01*
G75*
G02*
X124900000Y-117125000I0J75000D01*
G01*
X124900000Y-116975000D01*
G75*
G02*
X124975000Y-116900000I75000J0D01*
G01*
X126375000Y-116900000D01*
G75*
G02*
X126450000Y-116975000I0J-75000D01*
G01*
X126450000Y-117125000D01*
G75*
G02*
X126375000Y-117200000I-75000J0D01*
G01*
G37*
G36*
G01*
X126375000Y-117700000D02*
X124975000Y-117700000D01*
G75*
G02*
X124900000Y-117625000I0J75000D01*
G01*
X124900000Y-117475000D01*
G75*
G02*
X124975000Y-117400000I75000J0D01*
G01*
X126375000Y-117400000D01*
G75*
G02*
X126450000Y-117475000I0J-75000D01*
G01*
X126450000Y-117625000D01*
G75*
G02*
X126375000Y-117700000I-75000J0D01*
G01*
G37*
G36*
G01*
X126375000Y-118200000D02*
X124975000Y-118200000D01*
G75*
G02*
X124900000Y-118125000I0J75000D01*
G01*
X124900000Y-117975000D01*
G75*
G02*
X124975000Y-117900000I75000J0D01*
G01*
X126375000Y-117900000D01*
G75*
G02*
X126450000Y-117975000I0J-75000D01*
G01*
X126450000Y-118125000D01*
G75*
G02*
X126375000Y-118200000I-75000J0D01*
G01*
G37*
G36*
G01*
X126375000Y-118700000D02*
X124975000Y-118700000D01*
G75*
G02*
X124900000Y-118625000I0J75000D01*
G01*
X124900000Y-118475000D01*
G75*
G02*
X124975000Y-118400000I75000J0D01*
G01*
X126375000Y-118400000D01*
G75*
G02*
X126450000Y-118475000I0J-75000D01*
G01*
X126450000Y-118625000D01*
G75*
G02*
X126375000Y-118700000I-75000J0D01*
G01*
G37*
G36*
G01*
X126375000Y-119200000D02*
X124975000Y-119200000D01*
G75*
G02*
X124900000Y-119125000I0J75000D01*
G01*
X124900000Y-118975000D01*
G75*
G02*
X124975000Y-118900000I75000J0D01*
G01*
X126375000Y-118900000D01*
G75*
G02*
X126450000Y-118975000I0J-75000D01*
G01*
X126450000Y-119125000D01*
G75*
G02*
X126375000Y-119200000I-75000J0D01*
G01*
G37*
G36*
G01*
X126375000Y-119700000D02*
X124975000Y-119700000D01*
G75*
G02*
X124900000Y-119625000I0J75000D01*
G01*
X124900000Y-119475000D01*
G75*
G02*
X124975000Y-119400000I75000J0D01*
G01*
X126375000Y-119400000D01*
G75*
G02*
X126450000Y-119475000I0J-75000D01*
G01*
X126450000Y-119625000D01*
G75*
G02*
X126375000Y-119700000I-75000J0D01*
G01*
G37*
G36*
G01*
X126375000Y-120200000D02*
X124975000Y-120200000D01*
G75*
G02*
X124900000Y-120125000I0J75000D01*
G01*
X124900000Y-119975000D01*
G75*
G02*
X124975000Y-119900000I75000J0D01*
G01*
X126375000Y-119900000D01*
G75*
G02*
X126450000Y-119975000I0J-75000D01*
G01*
X126450000Y-120125000D01*
G75*
G02*
X126375000Y-120200000I-75000J0D01*
G01*
G37*
G36*
G01*
X123825000Y-122750000D02*
X123675000Y-122750000D01*
G75*
G02*
X123600000Y-122675000I0J75000D01*
G01*
X123600000Y-121275000D01*
G75*
G02*
X123675000Y-121200000I75000J0D01*
G01*
X123825000Y-121200000D01*
G75*
G02*
X123900000Y-121275000I0J-75000D01*
G01*
X123900000Y-122675000D01*
G75*
G02*
X123825000Y-122750000I-75000J0D01*
G01*
G37*
G36*
G01*
X123325000Y-122750000D02*
X123175000Y-122750000D01*
G75*
G02*
X123100000Y-122675000I0J75000D01*
G01*
X123100000Y-121275000D01*
G75*
G02*
X123175000Y-121200000I75000J0D01*
G01*
X123325000Y-121200000D01*
G75*
G02*
X123400000Y-121275000I0J-75000D01*
G01*
X123400000Y-122675000D01*
G75*
G02*
X123325000Y-122750000I-75000J0D01*
G01*
G37*
G36*
G01*
X122825000Y-122750000D02*
X122675000Y-122750000D01*
G75*
G02*
X122600000Y-122675000I0J75000D01*
G01*
X122600000Y-121275000D01*
G75*
G02*
X122675000Y-121200000I75000J0D01*
G01*
X122825000Y-121200000D01*
G75*
G02*
X122900000Y-121275000I0J-75000D01*
G01*
X122900000Y-122675000D01*
G75*
G02*
X122825000Y-122750000I-75000J0D01*
G01*
G37*
G36*
G01*
X122325000Y-122750000D02*
X122175000Y-122750000D01*
G75*
G02*
X122100000Y-122675000I0J75000D01*
G01*
X122100000Y-121275000D01*
G75*
G02*
X122175000Y-121200000I75000J0D01*
G01*
X122325000Y-121200000D01*
G75*
G02*
X122400000Y-121275000I0J-75000D01*
G01*
X122400000Y-122675000D01*
G75*
G02*
X122325000Y-122750000I-75000J0D01*
G01*
G37*
G36*
G01*
X121825000Y-122750000D02*
X121675000Y-122750000D01*
G75*
G02*
X121600000Y-122675000I0J75000D01*
G01*
X121600000Y-121275000D01*
G75*
G02*
X121675000Y-121200000I75000J0D01*
G01*
X121825000Y-121200000D01*
G75*
G02*
X121900000Y-121275000I0J-75000D01*
G01*
X121900000Y-122675000D01*
G75*
G02*
X121825000Y-122750000I-75000J0D01*
G01*
G37*
G36*
G01*
X121325000Y-122750000D02*
X121175000Y-122750000D01*
G75*
G02*
X121100000Y-122675000I0J75000D01*
G01*
X121100000Y-121275000D01*
G75*
G02*
X121175000Y-121200000I75000J0D01*
G01*
X121325000Y-121200000D01*
G75*
G02*
X121400000Y-121275000I0J-75000D01*
G01*
X121400000Y-122675000D01*
G75*
G02*
X121325000Y-122750000I-75000J0D01*
G01*
G37*
G36*
G01*
X120825000Y-122750000D02*
X120675000Y-122750000D01*
G75*
G02*
X120600000Y-122675000I0J75000D01*
G01*
X120600000Y-121275000D01*
G75*
G02*
X120675000Y-121200000I75000J0D01*
G01*
X120825000Y-121200000D01*
G75*
G02*
X120900000Y-121275000I0J-75000D01*
G01*
X120900000Y-122675000D01*
G75*
G02*
X120825000Y-122750000I-75000J0D01*
G01*
G37*
G36*
G01*
X120325000Y-122750000D02*
X120175000Y-122750000D01*
G75*
G02*
X120100000Y-122675000I0J75000D01*
G01*
X120100000Y-121275000D01*
G75*
G02*
X120175000Y-121200000I75000J0D01*
G01*
X120325000Y-121200000D01*
G75*
G02*
X120400000Y-121275000I0J-75000D01*
G01*
X120400000Y-122675000D01*
G75*
G02*
X120325000Y-122750000I-75000J0D01*
G01*
G37*
G36*
G01*
X119825000Y-122750000D02*
X119675000Y-122750000D01*
G75*
G02*
X119600000Y-122675000I0J75000D01*
G01*
X119600000Y-121275000D01*
G75*
G02*
X119675000Y-121200000I75000J0D01*
G01*
X119825000Y-121200000D01*
G75*
G02*
X119900000Y-121275000I0J-75000D01*
G01*
X119900000Y-122675000D01*
G75*
G02*
X119825000Y-122750000I-75000J0D01*
G01*
G37*
G36*
G01*
X119325000Y-122750000D02*
X119175000Y-122750000D01*
G75*
G02*
X119100000Y-122675000I0J75000D01*
G01*
X119100000Y-121275000D01*
G75*
G02*
X119175000Y-121200000I75000J0D01*
G01*
X119325000Y-121200000D01*
G75*
G02*
X119400000Y-121275000I0J-75000D01*
G01*
X119400000Y-122675000D01*
G75*
G02*
X119325000Y-122750000I-75000J0D01*
G01*
G37*
G36*
G01*
X118825000Y-122750000D02*
X118675000Y-122750000D01*
G75*
G02*
X118600000Y-122675000I0J75000D01*
G01*
X118600000Y-121275000D01*
G75*
G02*
X118675000Y-121200000I75000J0D01*
G01*
X118825000Y-121200000D01*
G75*
G02*
X118900000Y-121275000I0J-75000D01*
G01*
X118900000Y-122675000D01*
G75*
G02*
X118825000Y-122750000I-75000J0D01*
G01*
G37*
G36*
G01*
X118325000Y-122750000D02*
X118175000Y-122750000D01*
G75*
G02*
X118100000Y-122675000I0J75000D01*
G01*
X118100000Y-121275000D01*
G75*
G02*
X118175000Y-121200000I75000J0D01*
G01*
X118325000Y-121200000D01*
G75*
G02*
X118400000Y-121275000I0J-75000D01*
G01*
X118400000Y-122675000D01*
G75*
G02*
X118325000Y-122750000I-75000J0D01*
G01*
G37*
G36*
G01*
X117825000Y-122750000D02*
X117675000Y-122750000D01*
G75*
G02*
X117600000Y-122675000I0J75000D01*
G01*
X117600000Y-121275000D01*
G75*
G02*
X117675000Y-121200000I75000J0D01*
G01*
X117825000Y-121200000D01*
G75*
G02*
X117900000Y-121275000I0J-75000D01*
G01*
X117900000Y-122675000D01*
G75*
G02*
X117825000Y-122750000I-75000J0D01*
G01*
G37*
G36*
G01*
X117325000Y-122750000D02*
X117175000Y-122750000D01*
G75*
G02*
X117100000Y-122675000I0J75000D01*
G01*
X117100000Y-121275000D01*
G75*
G02*
X117175000Y-121200000I75000J0D01*
G01*
X117325000Y-121200000D01*
G75*
G02*
X117400000Y-121275000I0J-75000D01*
G01*
X117400000Y-122675000D01*
G75*
G02*
X117325000Y-122750000I-75000J0D01*
G01*
G37*
G36*
G01*
X116825000Y-122750000D02*
X116675000Y-122750000D01*
G75*
G02*
X116600000Y-122675000I0J75000D01*
G01*
X116600000Y-121275000D01*
G75*
G02*
X116675000Y-121200000I75000J0D01*
G01*
X116825000Y-121200000D01*
G75*
G02*
X116900000Y-121275000I0J-75000D01*
G01*
X116900000Y-122675000D01*
G75*
G02*
X116825000Y-122750000I-75000J0D01*
G01*
G37*
G36*
G01*
X116325000Y-122750000D02*
X116175000Y-122750000D01*
G75*
G02*
X116100000Y-122675000I0J75000D01*
G01*
X116100000Y-121275000D01*
G75*
G02*
X116175000Y-121200000I75000J0D01*
G01*
X116325000Y-121200000D01*
G75*
G02*
X116400000Y-121275000I0J-75000D01*
G01*
X116400000Y-122675000D01*
G75*
G02*
X116325000Y-122750000I-75000J0D01*
G01*
G37*
%TD*%
%TO.C,C8*%
G36*
G01*
X121700000Y-123730000D02*
X121700000Y-124070000D01*
G75*
G02*
X121560000Y-124210000I-140000J0D01*
G01*
X121280000Y-124210000D01*
G75*
G02*
X121140000Y-124070000I0J140000D01*
G01*
X121140000Y-123730000D01*
G75*
G02*
X121280000Y-123590000I140000J0D01*
G01*
X121560000Y-123590000D01*
G75*
G02*
X121700000Y-123730000I0J-140000D01*
G01*
G37*
G36*
G01*
X122660000Y-123730000D02*
X122660000Y-124070000D01*
G75*
G02*
X122520000Y-124210000I-140000J0D01*
G01*
X122240000Y-124210000D01*
G75*
G02*
X122100000Y-124070000I0J140000D01*
G01*
X122100000Y-123730000D01*
G75*
G02*
X122240000Y-123590000I140000J0D01*
G01*
X122520000Y-123590000D01*
G75*
G02*
X122660000Y-123730000I0J-140000D01*
G01*
G37*
%TD*%
%TO.C,C7*%
G36*
G01*
X121700000Y-124730000D02*
X121700000Y-125070000D01*
G75*
G02*
X121560000Y-125210000I-140000J0D01*
G01*
X121280000Y-125210000D01*
G75*
G02*
X121140000Y-125070000I0J140000D01*
G01*
X121140000Y-124730000D01*
G75*
G02*
X121280000Y-124590000I140000J0D01*
G01*
X121560000Y-124590000D01*
G75*
G02*
X121700000Y-124730000I0J-140000D01*
G01*
G37*
G36*
G01*
X122660000Y-124730000D02*
X122660000Y-125070000D01*
G75*
G02*
X122520000Y-125210000I-140000J0D01*
G01*
X122240000Y-125210000D01*
G75*
G02*
X122100000Y-125070000I0J140000D01*
G01*
X122100000Y-124730000D01*
G75*
G02*
X122240000Y-124590000I140000J0D01*
G01*
X122520000Y-124590000D01*
G75*
G02*
X122660000Y-124730000I0J-140000D01*
G01*
G37*
%TD*%
D15*
%TO.C,J12*%
X109860000Y-67820000D03*
X109860000Y-70360000D03*
X109860000Y-72900000D03*
X112400000Y-67820000D03*
X112400000Y-70360000D03*
G36*
G01*
X113250000Y-72300000D02*
X113250000Y-73500000D01*
G75*
G02*
X113000000Y-73750000I-250000J0D01*
G01*
X111800000Y-73750000D01*
G75*
G02*
X111550000Y-73500000I0J250000D01*
G01*
X111550000Y-72300000D01*
G75*
G02*
X111800000Y-72050000I250000J0D01*
G01*
X113000000Y-72050000D01*
G75*
G02*
X113250000Y-72300000I0J-250000D01*
G01*
G37*
%TD*%
D13*
%TO.C,J9*%
X102460000Y-103000000D03*
X105000000Y-103000000D03*
X102460000Y-105540000D03*
X105000000Y-105540000D03*
X102460000Y-108080000D03*
X105000000Y-108080000D03*
X102460000Y-110620000D03*
X105000000Y-110620000D03*
X102460000Y-113160000D03*
X105000000Y-113160000D03*
X102460000Y-115700000D03*
X105000000Y-115700000D03*
X102460000Y-118240000D03*
X105000000Y-118240000D03*
X102460000Y-120780000D03*
D14*
X105000000Y-120780000D03*
%TD*%
D13*
%TO.C,J4*%
X155540000Y-120780000D03*
X153000000Y-120780000D03*
X155540000Y-118240000D03*
X153000000Y-118240000D03*
X155540000Y-115700000D03*
X153000000Y-115700000D03*
X155540000Y-113160000D03*
X153000000Y-113160000D03*
X155540000Y-110620000D03*
X153000000Y-110620000D03*
X155540000Y-108080000D03*
X153000000Y-108080000D03*
X155540000Y-105540000D03*
X153000000Y-105540000D03*
X155540000Y-103000000D03*
D14*
X153000000Y-103000000D03*
%TD*%
D16*
%TO.C,J3*%
X120600000Y-151375000D03*
X119000000Y-151375000D03*
D17*
X123400000Y-151350000D03*
X116200000Y-151350000D03*
D18*
X122225000Y-148700000D03*
X117375000Y-148700000D03*
D19*
X121100000Y-148725000D03*
X120450000Y-148725000D03*
X119800000Y-148725000D03*
X119150000Y-148725000D03*
X118500000Y-148725000D03*
%TD*%
D20*
%TO.C,J1*%
X112500000Y-128250000D03*
D21*
X112500000Y-142850000D03*
D22*
X102900000Y-128250000D03*
X102900000Y-143750000D03*
D23*
X101000000Y-131050000D03*
X101000000Y-139050000D03*
D24*
X113000000Y-138250000D03*
X113000000Y-137150000D03*
X113000000Y-136050000D03*
X113000000Y-134950000D03*
X113000000Y-133850000D03*
X113000000Y-132750000D03*
X113000000Y-131650000D03*
X113000000Y-130550000D03*
X113000000Y-129450000D03*
%TD*%
%TO.C,SW6*%
G36*
G01*
X147200000Y-137300000D02*
X147200000Y-135700000D01*
G75*
G02*
X147400000Y-135500000I200000J0D01*
G01*
X147800000Y-135500000D01*
G75*
G02*
X148000000Y-135700000I0J-200000D01*
G01*
X148000000Y-137300000D01*
G75*
G02*
X147800000Y-137500000I-200000J0D01*
G01*
X147400000Y-137500000D01*
G75*
G02*
X147200000Y-137300000I0J200000D01*
G01*
G37*
G36*
G01*
X151400000Y-137300000D02*
X151400000Y-135700000D01*
G75*
G02*
X151600000Y-135500000I200000J0D01*
G01*
X152000000Y-135500000D01*
G75*
G02*
X152200000Y-135700000I0J-200000D01*
G01*
X152200000Y-137300000D01*
G75*
G02*
X152000000Y-137500000I-200000J0D01*
G01*
X151600000Y-137500000D01*
G75*
G02*
X151400000Y-137300000I0J200000D01*
G01*
G37*
%TD*%
%TO.C,R46*%
G36*
G01*
X145115000Y-136740000D02*
X145485000Y-136740000D01*
G75*
G02*
X145620000Y-136875000I0J-135000D01*
G01*
X145620000Y-137145000D01*
G75*
G02*
X145485000Y-137280000I-135000J0D01*
G01*
X145115000Y-137280000D01*
G75*
G02*
X144980000Y-137145000I0J135000D01*
G01*
X144980000Y-136875000D01*
G75*
G02*
X145115000Y-136740000I135000J0D01*
G01*
G37*
G36*
G01*
X145115000Y-135720000D02*
X145485000Y-135720000D01*
G75*
G02*
X145620000Y-135855000I0J-135000D01*
G01*
X145620000Y-136125000D01*
G75*
G02*
X145485000Y-136260000I-135000J0D01*
G01*
X145115000Y-136260000D01*
G75*
G02*
X144980000Y-136125000I0J135000D01*
G01*
X144980000Y-135855000D01*
G75*
G02*
X145115000Y-135720000I135000J0D01*
G01*
G37*
%TD*%
%TO.C,R45*%
G36*
G01*
X146585000Y-136260000D02*
X146215000Y-136260000D01*
G75*
G02*
X146080000Y-136125000I0J135000D01*
G01*
X146080000Y-135855000D01*
G75*
G02*
X146215000Y-135720000I135000J0D01*
G01*
X146585000Y-135720000D01*
G75*
G02*
X146720000Y-135855000I0J-135000D01*
G01*
X146720000Y-136125000D01*
G75*
G02*
X146585000Y-136260000I-135000J0D01*
G01*
G37*
G36*
G01*
X146585000Y-137280000D02*
X146215000Y-137280000D01*
G75*
G02*
X146080000Y-137145000I0J135000D01*
G01*
X146080000Y-136875000D01*
G75*
G02*
X146215000Y-136740000I135000J0D01*
G01*
X146585000Y-136740000D01*
G75*
G02*
X146720000Y-136875000I0J-135000D01*
G01*
X146720000Y-137145000D01*
G75*
G02*
X146585000Y-137280000I-135000J0D01*
G01*
G37*
%TD*%
%TO.C,C3*%
G36*
G01*
X144030000Y-136700000D02*
X144370000Y-136700000D01*
G75*
G02*
X144510000Y-136840000I0J-140000D01*
G01*
X144510000Y-137120000D01*
G75*
G02*
X144370000Y-137260000I-140000J0D01*
G01*
X144030000Y-137260000D01*
G75*
G02*
X143890000Y-137120000I0J140000D01*
G01*
X143890000Y-136840000D01*
G75*
G02*
X144030000Y-136700000I140000J0D01*
G01*
G37*
G36*
G01*
X144030000Y-135740000D02*
X144370000Y-135740000D01*
G75*
G02*
X144510000Y-135880000I0J-140000D01*
G01*
X144510000Y-136160000D01*
G75*
G02*
X144370000Y-136300000I-140000J0D01*
G01*
X144030000Y-136300000D01*
G75*
G02*
X143890000Y-136160000I0J140000D01*
G01*
X143890000Y-135880000D01*
G75*
G02*
X144030000Y-135740000I140000J0D01*
G01*
G37*
%TD*%
%TO.C,SW2*%
G36*
G01*
X152200000Y-132200000D02*
X152200000Y-133800000D01*
G75*
G02*
X152000000Y-134000000I-200000J0D01*
G01*
X151600000Y-134000000D01*
G75*
G02*
X151400000Y-133800000I0J200000D01*
G01*
X151400000Y-132200000D01*
G75*
G02*
X151600000Y-132000000I200000J0D01*
G01*
X152000000Y-132000000D01*
G75*
G02*
X152200000Y-132200000I0J-200000D01*
G01*
G37*
G36*
G01*
X148000000Y-132200000D02*
X148000000Y-133800000D01*
G75*
G02*
X147800000Y-134000000I-200000J0D01*
G01*
X147400000Y-134000000D01*
G75*
G02*
X147200000Y-133800000I0J200000D01*
G01*
X147200000Y-132200000D01*
G75*
G02*
X147400000Y-132000000I200000J0D01*
G01*
X147800000Y-132000000D01*
G75*
G02*
X148000000Y-132200000I0J-200000D01*
G01*
G37*
%TD*%
%TO.C,SW1*%
G36*
G01*
X147200000Y-130300000D02*
X147200000Y-128700000D01*
G75*
G02*
X147400000Y-128500000I200000J0D01*
G01*
X147800000Y-128500000D01*
G75*
G02*
X148000000Y-128700000I0J-200000D01*
G01*
X148000000Y-130300000D01*
G75*
G02*
X147800000Y-130500000I-200000J0D01*
G01*
X147400000Y-130500000D01*
G75*
G02*
X147200000Y-130300000I0J200000D01*
G01*
G37*
G36*
G01*
X151400000Y-130300000D02*
X151400000Y-128700000D01*
G75*
G02*
X151600000Y-128500000I200000J0D01*
G01*
X152000000Y-128500000D01*
G75*
G02*
X152200000Y-128700000I0J-200000D01*
G01*
X152200000Y-130300000D01*
G75*
G02*
X152000000Y-130500000I-200000J0D01*
G01*
X151600000Y-130500000D01*
G75*
G02*
X151400000Y-130300000I0J200000D01*
G01*
G37*
%TD*%
D20*
%TO.C,Y1*%
X117400000Y-125250000D03*
X119600000Y-125250000D03*
X119600000Y-126950000D03*
X117400000Y-126950000D03*
%TD*%
%TO.C,R24*%
G36*
G01*
X141750000Y-97749999D02*
X141750000Y-98650001D01*
G75*
G02*
X141500001Y-98900000I-249999J0D01*
G01*
X140974999Y-98900000D01*
G75*
G02*
X140725000Y-98650001I0J249999D01*
G01*
X140725000Y-97749999D01*
G75*
G02*
X140974999Y-97500000I249999J0D01*
G01*
X141500001Y-97500000D01*
G75*
G02*
X141750000Y-97749999I0J-249999D01*
G01*
G37*
G36*
G01*
X143575000Y-97749999D02*
X143575000Y-98650001D01*
G75*
G02*
X143325001Y-98900000I-249999J0D01*
G01*
X142799999Y-98900000D01*
G75*
G02*
X142550000Y-98650001I0J249999D01*
G01*
X142550000Y-97749999D01*
G75*
G02*
X142799999Y-97500000I249999J0D01*
G01*
X143325001Y-97500000D01*
G75*
G02*
X143575000Y-97749999I0J-249999D01*
G01*
G37*
%TD*%
%TO.C,R23*%
G36*
G01*
X141750000Y-95749999D02*
X141750000Y-96650001D01*
G75*
G02*
X141500001Y-96900000I-249999J0D01*
G01*
X140974999Y-96900000D01*
G75*
G02*
X140725000Y-96650001I0J249999D01*
G01*
X140725000Y-95749999D01*
G75*
G02*
X140974999Y-95500000I249999J0D01*
G01*
X141500001Y-95500000D01*
G75*
G02*
X141750000Y-95749999I0J-249999D01*
G01*
G37*
G36*
G01*
X143575000Y-95749999D02*
X143575000Y-96650001D01*
G75*
G02*
X143325001Y-96900000I-249999J0D01*
G01*
X142799999Y-96900000D01*
G75*
G02*
X142550000Y-96650001I0J249999D01*
G01*
X142550000Y-95749999D01*
G75*
G02*
X142799999Y-95500000I249999J0D01*
G01*
X143325001Y-95500000D01*
G75*
G02*
X143575000Y-95749999I0J-249999D01*
G01*
G37*
%TD*%
%TO.C,R22*%
G36*
G01*
X146050000Y-98650001D02*
X146050000Y-97749999D01*
G75*
G02*
X146299999Y-97500000I249999J0D01*
G01*
X146825001Y-97500000D01*
G75*
G02*
X147075000Y-97749999I0J-249999D01*
G01*
X147075000Y-98650001D01*
G75*
G02*
X146825001Y-98900000I-249999J0D01*
G01*
X146299999Y-98900000D01*
G75*
G02*
X146050000Y-98650001I0J249999D01*
G01*
G37*
G36*
G01*
X144225000Y-98650001D02*
X144225000Y-97749999D01*
G75*
G02*
X144474999Y-97500000I249999J0D01*
G01*
X145000001Y-97500000D01*
G75*
G02*
X145250000Y-97749999I0J-249999D01*
G01*
X145250000Y-98650001D01*
G75*
G02*
X145000001Y-98900000I-249999J0D01*
G01*
X144474999Y-98900000D01*
G75*
G02*
X144225000Y-98650001I0J249999D01*
G01*
G37*
%TD*%
%TO.C,R21*%
G36*
G01*
X146050000Y-96650001D02*
X146050000Y-95749999D01*
G75*
G02*
X146299999Y-95500000I249999J0D01*
G01*
X146825001Y-95500000D01*
G75*
G02*
X147075000Y-95749999I0J-249999D01*
G01*
X147075000Y-96650001D01*
G75*
G02*
X146825001Y-96900000I-249999J0D01*
G01*
X146299999Y-96900000D01*
G75*
G02*
X146050000Y-96650001I0J249999D01*
G01*
G37*
G36*
G01*
X144225000Y-96650001D02*
X144225000Y-95749999D01*
G75*
G02*
X144474999Y-95500000I249999J0D01*
G01*
X145000001Y-95500000D01*
G75*
G02*
X145250000Y-95749999I0J-249999D01*
G01*
X145250000Y-96650001D01*
G75*
G02*
X145000001Y-96900000I-249999J0D01*
G01*
X144474999Y-96900000D01*
G75*
G02*
X144225000Y-96650001I0J249999D01*
G01*
G37*
%TD*%
%TO.C,R20*%
G36*
G01*
X131700000Y-97699999D02*
X131700000Y-98600001D01*
G75*
G02*
X131450001Y-98850000I-249999J0D01*
G01*
X130924999Y-98850000D01*
G75*
G02*
X130675000Y-98600001I0J249999D01*
G01*
X130675000Y-97699999D01*
G75*
G02*
X130924999Y-97450000I249999J0D01*
G01*
X131450001Y-97450000D01*
G75*
G02*
X131700000Y-97699999I0J-249999D01*
G01*
G37*
G36*
G01*
X133525000Y-97699999D02*
X133525000Y-98600001D01*
G75*
G02*
X133275001Y-98850000I-249999J0D01*
G01*
X132749999Y-98850000D01*
G75*
G02*
X132500000Y-98600001I0J249999D01*
G01*
X132500000Y-97699999D01*
G75*
G02*
X132749999Y-97450000I249999J0D01*
G01*
X133275001Y-97450000D01*
G75*
G02*
X133525000Y-97699999I0J-249999D01*
G01*
G37*
%TD*%
%TO.C,R19*%
G36*
G01*
X131700000Y-95599999D02*
X131700000Y-96500001D01*
G75*
G02*
X131450001Y-96750000I-249999J0D01*
G01*
X130924999Y-96750000D01*
G75*
G02*
X130675000Y-96500001I0J249999D01*
G01*
X130675000Y-95599999D01*
G75*
G02*
X130924999Y-95350000I249999J0D01*
G01*
X131450001Y-95350000D01*
G75*
G02*
X131700000Y-95599999I0J-249999D01*
G01*
G37*
G36*
G01*
X133525000Y-95599999D02*
X133525000Y-96500001D01*
G75*
G02*
X133275001Y-96750000I-249999J0D01*
G01*
X132749999Y-96750000D01*
G75*
G02*
X132500000Y-96500001I0J249999D01*
G01*
X132500000Y-95599999D01*
G75*
G02*
X132749999Y-95350000I249999J0D01*
G01*
X133275001Y-95350000D01*
G75*
G02*
X133525000Y-95599999I0J-249999D01*
G01*
G37*
%TD*%
%TO.C,R18*%
G36*
G01*
X136100000Y-98600001D02*
X136100000Y-97699999D01*
G75*
G02*
X136349999Y-97450000I249999J0D01*
G01*
X136875001Y-97450000D01*
G75*
G02*
X137125000Y-97699999I0J-249999D01*
G01*
X137125000Y-98600001D01*
G75*
G02*
X136875001Y-98850000I-249999J0D01*
G01*
X136349999Y-98850000D01*
G75*
G02*
X136100000Y-98600001I0J249999D01*
G01*
G37*
G36*
G01*
X134275000Y-98600001D02*
X134275000Y-97699999D01*
G75*
G02*
X134524999Y-97450000I249999J0D01*
G01*
X135050001Y-97450000D01*
G75*
G02*
X135300000Y-97699999I0J-249999D01*
G01*
X135300000Y-98600001D01*
G75*
G02*
X135050001Y-98850000I-249999J0D01*
G01*
X134524999Y-98850000D01*
G75*
G02*
X134275000Y-98600001I0J249999D01*
G01*
G37*
%TD*%
%TO.C,R17*%
G36*
G01*
X136100000Y-96500001D02*
X136100000Y-95599999D01*
G75*
G02*
X136349999Y-95350000I249999J0D01*
G01*
X136875001Y-95350000D01*
G75*
G02*
X137125000Y-95599999I0J-249999D01*
G01*
X137125000Y-96500001D01*
G75*
G02*
X136875001Y-96750000I-249999J0D01*
G01*
X136349999Y-96750000D01*
G75*
G02*
X136100000Y-96500001I0J249999D01*
G01*
G37*
G36*
G01*
X134275000Y-96500001D02*
X134275000Y-95599999D01*
G75*
G02*
X134524999Y-95350000I249999J0D01*
G01*
X135050001Y-95350000D01*
G75*
G02*
X135300000Y-95599999I0J-249999D01*
G01*
X135300000Y-96500001D01*
G75*
G02*
X135050001Y-96750000I-249999J0D01*
G01*
X134524999Y-96750000D01*
G75*
G02*
X134275000Y-96500001I0J249999D01*
G01*
G37*
%TD*%
%TO.C,R16*%
G36*
G01*
X119349999Y-68400000D02*
X120250001Y-68400000D01*
G75*
G02*
X120500000Y-68649999I0J-249999D01*
G01*
X120500000Y-69175001D01*
G75*
G02*
X120250001Y-69425000I-249999J0D01*
G01*
X119349999Y-69425000D01*
G75*
G02*
X119100000Y-69175001I0J249999D01*
G01*
X119100000Y-68649999D01*
G75*
G02*
X119349999Y-68400000I249999J0D01*
G01*
G37*
G36*
G01*
X119349999Y-66575000D02*
X120250001Y-66575000D01*
G75*
G02*
X120500000Y-66824999I0J-249999D01*
G01*
X120500000Y-67350001D01*
G75*
G02*
X120250001Y-67600000I-249999J0D01*
G01*
X119349999Y-67600000D01*
G75*
G02*
X119100000Y-67350001I0J249999D01*
G01*
X119100000Y-66824999D01*
G75*
G02*
X119349999Y-66575000I249999J0D01*
G01*
G37*
%TD*%
%TO.C,R11*%
G36*
G01*
X120250001Y-71100000D02*
X119349999Y-71100000D01*
G75*
G02*
X119100000Y-70850001I0J249999D01*
G01*
X119100000Y-70324999D01*
G75*
G02*
X119349999Y-70075000I249999J0D01*
G01*
X120250001Y-70075000D01*
G75*
G02*
X120500000Y-70324999I0J-249999D01*
G01*
X120500000Y-70850001D01*
G75*
G02*
X120250001Y-71100000I-249999J0D01*
G01*
G37*
G36*
G01*
X120250001Y-72925000D02*
X119349999Y-72925000D01*
G75*
G02*
X119100000Y-72675001I0J249999D01*
G01*
X119100000Y-72149999D01*
G75*
G02*
X119349999Y-71900000I249999J0D01*
G01*
X120250001Y-71900000D01*
G75*
G02*
X120500000Y-72149999I0J-249999D01*
G01*
X120500000Y-72675001D01*
G75*
G02*
X120250001Y-72925000I-249999J0D01*
G01*
G37*
%TD*%
%TO.C,R10*%
G36*
G01*
X122350001Y-71100000D02*
X121449999Y-71100000D01*
G75*
G02*
X121200000Y-70850001I0J249999D01*
G01*
X121200000Y-70324999D01*
G75*
G02*
X121449999Y-70075000I249999J0D01*
G01*
X122350001Y-70075000D01*
G75*
G02*
X122600000Y-70324999I0J-249999D01*
G01*
X122600000Y-70850001D01*
G75*
G02*
X122350001Y-71100000I-249999J0D01*
G01*
G37*
G36*
G01*
X122350001Y-72925000D02*
X121449999Y-72925000D01*
G75*
G02*
X121200000Y-72675001I0J249999D01*
G01*
X121200000Y-72149999D01*
G75*
G02*
X121449999Y-71900000I249999J0D01*
G01*
X122350001Y-71900000D01*
G75*
G02*
X122600000Y-72149999I0J-249999D01*
G01*
X122600000Y-72675001D01*
G75*
G02*
X122350001Y-72925000I-249999J0D01*
G01*
G37*
%TD*%
%TO.C,R12*%
G36*
G01*
X121449999Y-68400000D02*
X122350001Y-68400000D01*
G75*
G02*
X122600000Y-68649999I0J-249999D01*
G01*
X122600000Y-69175001D01*
G75*
G02*
X122350001Y-69425000I-249999J0D01*
G01*
X121449999Y-69425000D01*
G75*
G02*
X121200000Y-69175001I0J249999D01*
G01*
X121200000Y-68649999D01*
G75*
G02*
X121449999Y-68400000I249999J0D01*
G01*
G37*
G36*
G01*
X121449999Y-66575000D02*
X122350001Y-66575000D01*
G75*
G02*
X122600000Y-66824999I0J-249999D01*
G01*
X122600000Y-67350001D01*
G75*
G02*
X122350001Y-67600000I-249999J0D01*
G01*
X121449999Y-67600000D01*
G75*
G02*
X121200000Y-67350001I0J249999D01*
G01*
X121200000Y-66824999D01*
G75*
G02*
X121449999Y-66575000I249999J0D01*
G01*
G37*
%TD*%
D25*
%TO.C,D5*%
X142800000Y-70300000D03*
X142800000Y-67000000D03*
%TD*%
%TO.C,D6*%
X115400000Y-71800000D03*
X115400000Y-75100000D03*
%TD*%
%TO.C,R44*%
G36*
G01*
X109585000Y-114660000D02*
X109215000Y-114660000D01*
G75*
G02*
X109080000Y-114525000I0J135000D01*
G01*
X109080000Y-114255000D01*
G75*
G02*
X109215000Y-114120000I135000J0D01*
G01*
X109585000Y-114120000D01*
G75*
G02*
X109720000Y-114255000I0J-135000D01*
G01*
X109720000Y-114525000D01*
G75*
G02*
X109585000Y-114660000I-135000J0D01*
G01*
G37*
G36*
G01*
X109585000Y-115680000D02*
X109215000Y-115680000D01*
G75*
G02*
X109080000Y-115545000I0J135000D01*
G01*
X109080000Y-115275000D01*
G75*
G02*
X109215000Y-115140000I135000J0D01*
G01*
X109585000Y-115140000D01*
G75*
G02*
X109720000Y-115275000I0J-135000D01*
G01*
X109720000Y-115545000D01*
G75*
G02*
X109585000Y-115680000I-135000J0D01*
G01*
G37*
%TD*%
%TO.C,R43*%
G36*
G01*
X109215000Y-113140000D02*
X109585000Y-113140000D01*
G75*
G02*
X109720000Y-113275000I0J-135000D01*
G01*
X109720000Y-113545000D01*
G75*
G02*
X109585000Y-113680000I-135000J0D01*
G01*
X109215000Y-113680000D01*
G75*
G02*
X109080000Y-113545000I0J135000D01*
G01*
X109080000Y-113275000D01*
G75*
G02*
X109215000Y-113140000I135000J0D01*
G01*
G37*
G36*
G01*
X109215000Y-112120000D02*
X109585000Y-112120000D01*
G75*
G02*
X109720000Y-112255000I0J-135000D01*
G01*
X109720000Y-112525000D01*
G75*
G02*
X109585000Y-112660000I-135000J0D01*
G01*
X109215000Y-112660000D01*
G75*
G02*
X109080000Y-112525000I0J135000D01*
G01*
X109080000Y-112255000D01*
G75*
G02*
X109215000Y-112120000I135000J0D01*
G01*
G37*
%TD*%
D15*
%TO.C,J10*%
X148140000Y-72880000D03*
X148140000Y-70340000D03*
X148140000Y-67800000D03*
X145600000Y-72880000D03*
X145600000Y-70340000D03*
G36*
G01*
X144750000Y-68400000D02*
X144750000Y-67200000D01*
G75*
G02*
X145000000Y-66950000I250000J0D01*
G01*
X146200000Y-66950000D01*
G75*
G02*
X146450000Y-67200000I0J-250000D01*
G01*
X146450000Y-68400000D01*
G75*
G02*
X146200000Y-68650000I-250000J0D01*
G01*
X145000000Y-68650000D01*
G75*
G02*
X144750000Y-68400000I0J250000D01*
G01*
G37*
%TD*%
%TO.C,R42*%
G36*
G01*
X113415000Y-89840000D02*
X113785000Y-89840000D01*
G75*
G02*
X113920000Y-89975000I0J-135000D01*
G01*
X113920000Y-90245000D01*
G75*
G02*
X113785000Y-90380000I-135000J0D01*
G01*
X113415000Y-90380000D01*
G75*
G02*
X113280000Y-90245000I0J135000D01*
G01*
X113280000Y-89975000D01*
G75*
G02*
X113415000Y-89840000I135000J0D01*
G01*
G37*
G36*
G01*
X113415000Y-88820000D02*
X113785000Y-88820000D01*
G75*
G02*
X113920000Y-88955000I0J-135000D01*
G01*
X113920000Y-89225000D01*
G75*
G02*
X113785000Y-89360000I-135000J0D01*
G01*
X113415000Y-89360000D01*
G75*
G02*
X113280000Y-89225000I0J135000D01*
G01*
X113280000Y-88955000D01*
G75*
G02*
X113415000Y-88820000I135000J0D01*
G01*
G37*
%TD*%
%TO.C,R36*%
G36*
G01*
X128315000Y-89840000D02*
X128685000Y-89840000D01*
G75*
G02*
X128820000Y-89975000I0J-135000D01*
G01*
X128820000Y-90245000D01*
G75*
G02*
X128685000Y-90380000I-135000J0D01*
G01*
X128315000Y-90380000D01*
G75*
G02*
X128180000Y-90245000I0J135000D01*
G01*
X128180000Y-89975000D01*
G75*
G02*
X128315000Y-89840000I135000J0D01*
G01*
G37*
G36*
G01*
X128315000Y-88820000D02*
X128685000Y-88820000D01*
G75*
G02*
X128820000Y-88955000I0J-135000D01*
G01*
X128820000Y-89225000D01*
G75*
G02*
X128685000Y-89360000I-135000J0D01*
G01*
X128315000Y-89360000D01*
G75*
G02*
X128180000Y-89225000I0J135000D01*
G01*
X128180000Y-88955000D01*
G75*
G02*
X128315000Y-88820000I135000J0D01*
G01*
G37*
%TD*%
%TO.C,R30*%
G36*
G01*
X143215000Y-89840000D02*
X143585000Y-89840000D01*
G75*
G02*
X143720000Y-89975000I0J-135000D01*
G01*
X143720000Y-90245000D01*
G75*
G02*
X143585000Y-90380000I-135000J0D01*
G01*
X143215000Y-90380000D01*
G75*
G02*
X143080000Y-90245000I0J135000D01*
G01*
X143080000Y-89975000D01*
G75*
G02*
X143215000Y-89840000I135000J0D01*
G01*
G37*
G36*
G01*
X143215000Y-88820000D02*
X143585000Y-88820000D01*
G75*
G02*
X143720000Y-88955000I0J-135000D01*
G01*
X143720000Y-89225000D01*
G75*
G02*
X143585000Y-89360000I-135000J0D01*
G01*
X143215000Y-89360000D01*
G75*
G02*
X143080000Y-89225000I0J135000D01*
G01*
X143080000Y-88955000D01*
G75*
G02*
X143215000Y-88820000I135000J0D01*
G01*
G37*
%TD*%
%TO.C,R14*%
G36*
G01*
X120015000Y-108740000D02*
X120385000Y-108740000D01*
G75*
G02*
X120520000Y-108875000I0J-135000D01*
G01*
X120520000Y-109145000D01*
G75*
G02*
X120385000Y-109280000I-135000J0D01*
G01*
X120015000Y-109280000D01*
G75*
G02*
X119880000Y-109145000I0J135000D01*
G01*
X119880000Y-108875000D01*
G75*
G02*
X120015000Y-108740000I135000J0D01*
G01*
G37*
G36*
G01*
X120015000Y-107720000D02*
X120385000Y-107720000D01*
G75*
G02*
X120520000Y-107855000I0J-135000D01*
G01*
X120520000Y-108125000D01*
G75*
G02*
X120385000Y-108260000I-135000J0D01*
G01*
X120015000Y-108260000D01*
G75*
G02*
X119880000Y-108125000I0J135000D01*
G01*
X119880000Y-107855000D01*
G75*
G02*
X120015000Y-107720000I135000J0D01*
G01*
G37*
%TD*%
%TO.C,R7*%
G36*
G01*
X117249999Y-142000000D02*
X118150001Y-142000000D01*
G75*
G02*
X118400000Y-142249999I0J-249999D01*
G01*
X118400000Y-142950001D01*
G75*
G02*
X118150001Y-143200000I-249999J0D01*
G01*
X117249999Y-143200000D01*
G75*
G02*
X117000000Y-142950001I0J249999D01*
G01*
X117000000Y-142249999D01*
G75*
G02*
X117249999Y-142000000I249999J0D01*
G01*
G37*
G36*
G01*
X117249999Y-140000000D02*
X118150001Y-140000000D01*
G75*
G02*
X118400000Y-140249999I0J-249999D01*
G01*
X118400000Y-140950001D01*
G75*
G02*
X118150001Y-141200000I-249999J0D01*
G01*
X117249999Y-141200000D01*
G75*
G02*
X117000000Y-140950001I0J249999D01*
G01*
X117000000Y-140249999D01*
G75*
G02*
X117249999Y-140000000I249999J0D01*
G01*
G37*
%TD*%
%TO.C,R3*%
G36*
G01*
X119640000Y-123885000D02*
X119640000Y-123515000D01*
G75*
G02*
X119775000Y-123380000I135000J0D01*
G01*
X120045000Y-123380000D01*
G75*
G02*
X120180000Y-123515000I0J-135000D01*
G01*
X120180000Y-123885000D01*
G75*
G02*
X120045000Y-124020000I-135000J0D01*
G01*
X119775000Y-124020000D01*
G75*
G02*
X119640000Y-123885000I0J135000D01*
G01*
G37*
G36*
G01*
X118620000Y-123885000D02*
X118620000Y-123515000D01*
G75*
G02*
X118755000Y-123380000I135000J0D01*
G01*
X119025000Y-123380000D01*
G75*
G02*
X119160000Y-123515000I0J-135000D01*
G01*
X119160000Y-123885000D01*
G75*
G02*
X119025000Y-124020000I-135000J0D01*
G01*
X118755000Y-124020000D01*
G75*
G02*
X118620000Y-123885000I0J135000D01*
G01*
G37*
%TD*%
%TO.C,R1*%
G36*
G01*
X127515000Y-124640000D02*
X127885000Y-124640000D01*
G75*
G02*
X128020000Y-124775000I0J-135000D01*
G01*
X128020000Y-125045000D01*
G75*
G02*
X127885000Y-125180000I-135000J0D01*
G01*
X127515000Y-125180000D01*
G75*
G02*
X127380000Y-125045000I0J135000D01*
G01*
X127380000Y-124775000D01*
G75*
G02*
X127515000Y-124640000I135000J0D01*
G01*
G37*
G36*
G01*
X127515000Y-123620000D02*
X127885000Y-123620000D01*
G75*
G02*
X128020000Y-123755000I0J-135000D01*
G01*
X128020000Y-124025000D01*
G75*
G02*
X127885000Y-124160000I-135000J0D01*
G01*
X127515000Y-124160000D01*
G75*
G02*
X127380000Y-124025000I0J135000D01*
G01*
X127380000Y-123755000D01*
G75*
G02*
X127515000Y-123620000I135000J0D01*
G01*
G37*
%TD*%
%TO.C,C44*%
G36*
G01*
X111770000Y-89400000D02*
X111430000Y-89400000D01*
G75*
G02*
X111290000Y-89260000I0J140000D01*
G01*
X111290000Y-88980000D01*
G75*
G02*
X111430000Y-88840000I140000J0D01*
G01*
X111770000Y-88840000D01*
G75*
G02*
X111910000Y-88980000I0J-140000D01*
G01*
X111910000Y-89260000D01*
G75*
G02*
X111770000Y-89400000I-140000J0D01*
G01*
G37*
G36*
G01*
X111770000Y-90360000D02*
X111430000Y-90360000D01*
G75*
G02*
X111290000Y-90220000I0J140000D01*
G01*
X111290000Y-89940000D01*
G75*
G02*
X111430000Y-89800000I140000J0D01*
G01*
X111770000Y-89800000D01*
G75*
G02*
X111910000Y-89940000I0J-140000D01*
G01*
X111910000Y-90220000D01*
G75*
G02*
X111770000Y-90360000I-140000J0D01*
G01*
G37*
%TD*%
%TO.C,C43*%
G36*
G01*
X115770000Y-89400000D02*
X115430000Y-89400000D01*
G75*
G02*
X115290000Y-89260000I0J140000D01*
G01*
X115290000Y-88980000D01*
G75*
G02*
X115430000Y-88840000I140000J0D01*
G01*
X115770000Y-88840000D01*
G75*
G02*
X115910000Y-88980000I0J-140000D01*
G01*
X115910000Y-89260000D01*
G75*
G02*
X115770000Y-89400000I-140000J0D01*
G01*
G37*
G36*
G01*
X115770000Y-90360000D02*
X115430000Y-90360000D01*
G75*
G02*
X115290000Y-90220000I0J140000D01*
G01*
X115290000Y-89940000D01*
G75*
G02*
X115430000Y-89800000I140000J0D01*
G01*
X115770000Y-89800000D01*
G75*
G02*
X115910000Y-89940000I0J-140000D01*
G01*
X115910000Y-90220000D01*
G75*
G02*
X115770000Y-90360000I-140000J0D01*
G01*
G37*
%TD*%
%TO.C,C41*%
G36*
G01*
X126670000Y-89400000D02*
X126330000Y-89400000D01*
G75*
G02*
X126190000Y-89260000I0J140000D01*
G01*
X126190000Y-88980000D01*
G75*
G02*
X126330000Y-88840000I140000J0D01*
G01*
X126670000Y-88840000D01*
G75*
G02*
X126810000Y-88980000I0J-140000D01*
G01*
X126810000Y-89260000D01*
G75*
G02*
X126670000Y-89400000I-140000J0D01*
G01*
G37*
G36*
G01*
X126670000Y-90360000D02*
X126330000Y-90360000D01*
G75*
G02*
X126190000Y-90220000I0J140000D01*
G01*
X126190000Y-89940000D01*
G75*
G02*
X126330000Y-89800000I140000J0D01*
G01*
X126670000Y-89800000D01*
G75*
G02*
X126810000Y-89940000I0J-140000D01*
G01*
X126810000Y-90220000D01*
G75*
G02*
X126670000Y-90360000I-140000J0D01*
G01*
G37*
%TD*%
%TO.C,C40*%
G36*
G01*
X130670000Y-89400000D02*
X130330000Y-89400000D01*
G75*
G02*
X130190000Y-89260000I0J140000D01*
G01*
X130190000Y-88980000D01*
G75*
G02*
X130330000Y-88840000I140000J0D01*
G01*
X130670000Y-88840000D01*
G75*
G02*
X130810000Y-88980000I0J-140000D01*
G01*
X130810000Y-89260000D01*
G75*
G02*
X130670000Y-89400000I-140000J0D01*
G01*
G37*
G36*
G01*
X130670000Y-90360000D02*
X130330000Y-90360000D01*
G75*
G02*
X130190000Y-90220000I0J140000D01*
G01*
X130190000Y-89940000D01*
G75*
G02*
X130330000Y-89800000I140000J0D01*
G01*
X130670000Y-89800000D01*
G75*
G02*
X130810000Y-89940000I0J-140000D01*
G01*
X130810000Y-90220000D01*
G75*
G02*
X130670000Y-90360000I-140000J0D01*
G01*
G37*
%TD*%
%TO.C,C38*%
G36*
G01*
X141570000Y-89400000D02*
X141230000Y-89400000D01*
G75*
G02*
X141090000Y-89260000I0J140000D01*
G01*
X141090000Y-88980000D01*
G75*
G02*
X141230000Y-88840000I140000J0D01*
G01*
X141570000Y-88840000D01*
G75*
G02*
X141710000Y-88980000I0J-140000D01*
G01*
X141710000Y-89260000D01*
G75*
G02*
X141570000Y-89400000I-140000J0D01*
G01*
G37*
G36*
G01*
X141570000Y-90360000D02*
X141230000Y-90360000D01*
G75*
G02*
X141090000Y-90220000I0J140000D01*
G01*
X141090000Y-89940000D01*
G75*
G02*
X141230000Y-89800000I140000J0D01*
G01*
X141570000Y-89800000D01*
G75*
G02*
X141710000Y-89940000I0J-140000D01*
G01*
X141710000Y-90220000D01*
G75*
G02*
X141570000Y-90360000I-140000J0D01*
G01*
G37*
%TD*%
%TO.C,C37*%
G36*
G01*
X145570000Y-89400000D02*
X145230000Y-89400000D01*
G75*
G02*
X145090000Y-89260000I0J140000D01*
G01*
X145090000Y-88980000D01*
G75*
G02*
X145230000Y-88840000I140000J0D01*
G01*
X145570000Y-88840000D01*
G75*
G02*
X145710000Y-88980000I0J-140000D01*
G01*
X145710000Y-89260000D01*
G75*
G02*
X145570000Y-89400000I-140000J0D01*
G01*
G37*
G36*
G01*
X145570000Y-90360000D02*
X145230000Y-90360000D01*
G75*
G02*
X145090000Y-90220000I0J140000D01*
G01*
X145090000Y-89940000D01*
G75*
G02*
X145230000Y-89800000I140000J0D01*
G01*
X145570000Y-89800000D01*
G75*
G02*
X145710000Y-89940000I0J-140000D01*
G01*
X145710000Y-90220000D01*
G75*
G02*
X145570000Y-90360000I-140000J0D01*
G01*
G37*
%TD*%
%TO.C,C35*%
G36*
G01*
X134225001Y-109150000D02*
X133374999Y-109150000D01*
G75*
G02*
X133125000Y-108900001I0J249999D01*
G01*
X133125000Y-107999999D01*
G75*
G02*
X133374999Y-107750000I249999J0D01*
G01*
X134225001Y-107750000D01*
G75*
G02*
X134475000Y-107999999I0J-249999D01*
G01*
X134475000Y-108900001D01*
G75*
G02*
X134225001Y-109150000I-249999J0D01*
G01*
G37*
G36*
G01*
X134225001Y-111850000D02*
X133374999Y-111850000D01*
G75*
G02*
X133125000Y-111600001I0J249999D01*
G01*
X133125000Y-110699999D01*
G75*
G02*
X133374999Y-110450000I249999J0D01*
G01*
X134225001Y-110450000D01*
G75*
G02*
X134475000Y-110699999I0J-249999D01*
G01*
X134475000Y-111600001D01*
G75*
G02*
X134225001Y-111850000I-249999J0D01*
G01*
G37*
%TD*%
%TO.C,C32*%
G36*
G01*
X147230000Y-111400000D02*
X147570000Y-111400000D01*
G75*
G02*
X147710000Y-111540000I0J-140000D01*
G01*
X147710000Y-111820000D01*
G75*
G02*
X147570000Y-111960000I-140000J0D01*
G01*
X147230000Y-111960000D01*
G75*
G02*
X147090000Y-111820000I0J140000D01*
G01*
X147090000Y-111540000D01*
G75*
G02*
X147230000Y-111400000I140000J0D01*
G01*
G37*
G36*
G01*
X147230000Y-110440000D02*
X147570000Y-110440000D01*
G75*
G02*
X147710000Y-110580000I0J-140000D01*
G01*
X147710000Y-110860000D01*
G75*
G02*
X147570000Y-111000000I-140000J0D01*
G01*
X147230000Y-111000000D01*
G75*
G02*
X147090000Y-110860000I0J140000D01*
G01*
X147090000Y-110580000D01*
G75*
G02*
X147230000Y-110440000I140000J0D01*
G01*
G37*
%TD*%
%TO.C,C31*%
G36*
G01*
X133374999Y-121300000D02*
X134225001Y-121300000D01*
G75*
G02*
X134475000Y-121549999I0J-249999D01*
G01*
X134475000Y-122450001D01*
G75*
G02*
X134225001Y-122700000I-249999J0D01*
G01*
X133374999Y-122700000D01*
G75*
G02*
X133125000Y-122450001I0J249999D01*
G01*
X133125000Y-121549999D01*
G75*
G02*
X133374999Y-121300000I249999J0D01*
G01*
G37*
G36*
G01*
X133374999Y-118600000D02*
X134225001Y-118600000D01*
G75*
G02*
X134475000Y-118849999I0J-249999D01*
G01*
X134475000Y-119750001D01*
G75*
G02*
X134225001Y-120000000I-249999J0D01*
G01*
X133374999Y-120000000D01*
G75*
G02*
X133125000Y-119750001I0J249999D01*
G01*
X133125000Y-118849999D01*
G75*
G02*
X133374999Y-118600000I249999J0D01*
G01*
G37*
%TD*%
%TO.C,C30*%
G36*
G01*
X132270000Y-119050000D02*
X131930000Y-119050000D01*
G75*
G02*
X131790000Y-118910000I0J140000D01*
G01*
X131790000Y-118630000D01*
G75*
G02*
X131930000Y-118490000I140000J0D01*
G01*
X132270000Y-118490000D01*
G75*
G02*
X132410000Y-118630000I0J-140000D01*
G01*
X132410000Y-118910000D01*
G75*
G02*
X132270000Y-119050000I-140000J0D01*
G01*
G37*
G36*
G01*
X132270000Y-120010000D02*
X131930000Y-120010000D01*
G75*
G02*
X131790000Y-119870000I0J140000D01*
G01*
X131790000Y-119590000D01*
G75*
G02*
X131930000Y-119450000I140000J0D01*
G01*
X132270000Y-119450000D01*
G75*
G02*
X132410000Y-119590000I0J-140000D01*
G01*
X132410000Y-119870000D01*
G75*
G02*
X132270000Y-120010000I-140000J0D01*
G01*
G37*
%TD*%
%TO.C,C29*%
G36*
G01*
X133374999Y-116550000D02*
X134225001Y-116550000D01*
G75*
G02*
X134475000Y-116799999I0J-249999D01*
G01*
X134475000Y-117700001D01*
G75*
G02*
X134225001Y-117950000I-249999J0D01*
G01*
X133374999Y-117950000D01*
G75*
G02*
X133125000Y-117700001I0J249999D01*
G01*
X133125000Y-116799999D01*
G75*
G02*
X133374999Y-116550000I249999J0D01*
G01*
G37*
G36*
G01*
X133374999Y-113850000D02*
X134225001Y-113850000D01*
G75*
G02*
X134475000Y-114099999I0J-249999D01*
G01*
X134475000Y-115000001D01*
G75*
G02*
X134225001Y-115250000I-249999J0D01*
G01*
X133374999Y-115250000D01*
G75*
G02*
X133125000Y-115000001I0J249999D01*
G01*
X133125000Y-114099999D01*
G75*
G02*
X133374999Y-113850000I249999J0D01*
G01*
G37*
%TD*%
%TO.C,C28*%
G36*
G01*
X132270000Y-115700000D02*
X131930000Y-115700000D01*
G75*
G02*
X131790000Y-115560000I0J140000D01*
G01*
X131790000Y-115280000D01*
G75*
G02*
X131930000Y-115140000I140000J0D01*
G01*
X132270000Y-115140000D01*
G75*
G02*
X132410000Y-115280000I0J-140000D01*
G01*
X132410000Y-115560000D01*
G75*
G02*
X132270000Y-115700000I-140000J0D01*
G01*
G37*
G36*
G01*
X132270000Y-116660000D02*
X131930000Y-116660000D01*
G75*
G02*
X131790000Y-116520000I0J140000D01*
G01*
X131790000Y-116240000D01*
G75*
G02*
X131930000Y-116100000I140000J0D01*
G01*
X132270000Y-116100000D01*
G75*
G02*
X132410000Y-116240000I0J-140000D01*
G01*
X132410000Y-116520000D01*
G75*
G02*
X132270000Y-116660000I-140000J0D01*
G01*
G37*
%TD*%
%TO.C,C27*%
G36*
G01*
X142200000Y-100725001D02*
X142200000Y-99874999D01*
G75*
G02*
X142449999Y-99625000I249999J0D01*
G01*
X143350001Y-99625000D01*
G75*
G02*
X143600000Y-99874999I0J-249999D01*
G01*
X143600000Y-100725001D01*
G75*
G02*
X143350001Y-100975000I-249999J0D01*
G01*
X142449999Y-100975000D01*
G75*
G02*
X142200000Y-100725001I0J249999D01*
G01*
G37*
G36*
G01*
X139500000Y-100725001D02*
X139500000Y-99874999D01*
G75*
G02*
X139749999Y-99625000I249999J0D01*
G01*
X140650001Y-99625000D01*
G75*
G02*
X140900000Y-99874999I0J-249999D01*
G01*
X140900000Y-100725001D01*
G75*
G02*
X140650001Y-100975000I-249999J0D01*
G01*
X139749999Y-100975000D01*
G75*
G02*
X139500000Y-100725001I0J249999D01*
G01*
G37*
%TD*%
%TO.C,C25*%
G36*
G01*
X132550000Y-102975000D02*
X132550000Y-102025000D01*
G75*
G02*
X132800000Y-101775000I250000J0D01*
G01*
X133300000Y-101775000D01*
G75*
G02*
X133550000Y-102025000I0J-250000D01*
G01*
X133550000Y-102975000D01*
G75*
G02*
X133300000Y-103225000I-250000J0D01*
G01*
X132800000Y-103225000D01*
G75*
G02*
X132550000Y-102975000I0J250000D01*
G01*
G37*
G36*
G01*
X130650000Y-102975000D02*
X130650000Y-102025000D01*
G75*
G02*
X130900000Y-101775000I250000J0D01*
G01*
X131400000Y-101775000D01*
G75*
G02*
X131650000Y-102025000I0J-250000D01*
G01*
X131650000Y-102975000D01*
G75*
G02*
X131400000Y-103225000I-250000J0D01*
G01*
X130900000Y-103225000D01*
G75*
G02*
X130650000Y-102975000I0J250000D01*
G01*
G37*
%TD*%
%TO.C,C20*%
G36*
G01*
X145274999Y-120600000D02*
X146125001Y-120600000D01*
G75*
G02*
X146375000Y-120849999I0J-249999D01*
G01*
X146375000Y-121750001D01*
G75*
G02*
X146125001Y-122000000I-249999J0D01*
G01*
X145274999Y-122000000D01*
G75*
G02*
X145025000Y-121750001I0J249999D01*
G01*
X145025000Y-120849999D01*
G75*
G02*
X145274999Y-120600000I249999J0D01*
G01*
G37*
G36*
G01*
X145274999Y-117900000D02*
X146125001Y-117900000D01*
G75*
G02*
X146375000Y-118149999I0J-249999D01*
G01*
X146375000Y-119050001D01*
G75*
G02*
X146125001Y-119300000I-249999J0D01*
G01*
X145274999Y-119300000D01*
G75*
G02*
X145025000Y-119050001I0J249999D01*
G01*
X145025000Y-118149999D01*
G75*
G02*
X145274999Y-117900000I249999J0D01*
G01*
G37*
%TD*%
%TO.C,C19*%
G36*
G01*
X118175000Y-67550000D02*
X117225000Y-67550000D01*
G75*
G02*
X116975000Y-67300000I0J250000D01*
G01*
X116975000Y-66800000D01*
G75*
G02*
X117225000Y-66550000I250000J0D01*
G01*
X118175000Y-66550000D01*
G75*
G02*
X118425000Y-66800000I0J-250000D01*
G01*
X118425000Y-67300000D01*
G75*
G02*
X118175000Y-67550000I-250000J0D01*
G01*
G37*
G36*
G01*
X118175000Y-69450000D02*
X117225000Y-69450000D01*
G75*
G02*
X116975000Y-69200000I0J250000D01*
G01*
X116975000Y-68700000D01*
G75*
G02*
X117225000Y-68450000I250000J0D01*
G01*
X118175000Y-68450000D01*
G75*
G02*
X118425000Y-68700000I0J-250000D01*
G01*
X118425000Y-69200000D01*
G75*
G02*
X118175000Y-69450000I-250000J0D01*
G01*
G37*
%TD*%
%TO.C,C18*%
G36*
G01*
X115925001Y-67950000D02*
X115074999Y-67950000D01*
G75*
G02*
X114825000Y-67700001I0J249999D01*
G01*
X114825000Y-66799999D01*
G75*
G02*
X115074999Y-66550000I249999J0D01*
G01*
X115925001Y-66550000D01*
G75*
G02*
X116175000Y-66799999I0J-249999D01*
G01*
X116175000Y-67700001D01*
G75*
G02*
X115925001Y-67950000I-249999J0D01*
G01*
G37*
G36*
G01*
X115925001Y-70650000D02*
X115074999Y-70650000D01*
G75*
G02*
X114825000Y-70400001I0J249999D01*
G01*
X114825000Y-69499999D01*
G75*
G02*
X115074999Y-69250000I249999J0D01*
G01*
X115925001Y-69250000D01*
G75*
G02*
X116175000Y-69499999I0J-249999D01*
G01*
X116175000Y-70400001D01*
G75*
G02*
X115925001Y-70650000I-249999J0D01*
G01*
G37*
%TD*%
%TO.C,C5*%
G36*
G01*
X121425000Y-142050000D02*
X122375000Y-142050000D01*
G75*
G02*
X122625000Y-142300000I0J-250000D01*
G01*
X122625000Y-142800000D01*
G75*
G02*
X122375000Y-143050000I-250000J0D01*
G01*
X121425000Y-143050000D01*
G75*
G02*
X121175000Y-142800000I0J250000D01*
G01*
X121175000Y-142300000D01*
G75*
G02*
X121425000Y-142050000I250000J0D01*
G01*
G37*
G36*
G01*
X121425000Y-140150000D02*
X122375000Y-140150000D01*
G75*
G02*
X122625000Y-140400000I0J-250000D01*
G01*
X122625000Y-140900000D01*
G75*
G02*
X122375000Y-141150000I-250000J0D01*
G01*
X121425000Y-141150000D01*
G75*
G02*
X121175000Y-140900000I0J250000D01*
G01*
X121175000Y-140400000D01*
G75*
G02*
X121425000Y-140150000I250000J0D01*
G01*
G37*
%TD*%
%TO.C,C4*%
G36*
G01*
X123625000Y-142050000D02*
X124575000Y-142050000D01*
G75*
G02*
X124825000Y-142300000I0J-250000D01*
G01*
X124825000Y-142800000D01*
G75*
G02*
X124575000Y-143050000I-250000J0D01*
G01*
X123625000Y-143050000D01*
G75*
G02*
X123375000Y-142800000I0J250000D01*
G01*
X123375000Y-142300000D01*
G75*
G02*
X123625000Y-142050000I250000J0D01*
G01*
G37*
G36*
G01*
X123625000Y-140150000D02*
X124575000Y-140150000D01*
G75*
G02*
X124825000Y-140400000I0J-250000D01*
G01*
X124825000Y-140900000D01*
G75*
G02*
X124575000Y-141150000I-250000J0D01*
G01*
X123625000Y-141150000D01*
G75*
G02*
X123375000Y-140900000I0J250000D01*
G01*
X123375000Y-140400000D01*
G75*
G02*
X123625000Y-140150000I250000J0D01*
G01*
G37*
%TD*%
%TO.C,C2*%
G36*
G01*
X121030000Y-126600000D02*
X121370000Y-126600000D01*
G75*
G02*
X121510000Y-126740000I0J-140000D01*
G01*
X121510000Y-127020000D01*
G75*
G02*
X121370000Y-127160000I-140000J0D01*
G01*
X121030000Y-127160000D01*
G75*
G02*
X120890000Y-127020000I0J140000D01*
G01*
X120890000Y-126740000D01*
G75*
G02*
X121030000Y-126600000I140000J0D01*
G01*
G37*
G36*
G01*
X121030000Y-125640000D02*
X121370000Y-125640000D01*
G75*
G02*
X121510000Y-125780000I0J-140000D01*
G01*
X121510000Y-126060000D01*
G75*
G02*
X121370000Y-126200000I-140000J0D01*
G01*
X121030000Y-126200000D01*
G75*
G02*
X120890000Y-126060000I0J140000D01*
G01*
X120890000Y-125780000D01*
G75*
G02*
X121030000Y-125640000I140000J0D01*
G01*
G37*
%TD*%
%TO.C,R4*%
G36*
G01*
X131650001Y-73900000D02*
X130749999Y-73900000D01*
G75*
G02*
X130500000Y-73650001I0J249999D01*
G01*
X130500000Y-72949999D01*
G75*
G02*
X130749999Y-72700000I249999J0D01*
G01*
X131650001Y-72700000D01*
G75*
G02*
X131900000Y-72949999I0J-249999D01*
G01*
X131900000Y-73650001D01*
G75*
G02*
X131650001Y-73900000I-249999J0D01*
G01*
G37*
G36*
G01*
X131650001Y-75900000D02*
X130749999Y-75900000D01*
G75*
G02*
X130500000Y-75650001I0J249999D01*
G01*
X130500000Y-74949999D01*
G75*
G02*
X130749999Y-74700000I249999J0D01*
G01*
X131650001Y-74700000D01*
G75*
G02*
X131900000Y-74949999I0J-249999D01*
G01*
X131900000Y-75650001D01*
G75*
G02*
X131650001Y-75900000I-249999J0D01*
G01*
G37*
%TD*%
D26*
%TO.C,D3*%
X124200000Y-71240000D03*
D27*
X124200000Y-68700000D03*
%TD*%
D26*
%TO.C,D2*%
X129000000Y-71240000D03*
D27*
X129000000Y-68700000D03*
%TD*%
D26*
%TO.C,D1*%
X133800000Y-71240000D03*
D27*
X133800000Y-68700000D03*
%TD*%
%TO.C,R6*%
G36*
G01*
X127450001Y-73900000D02*
X126549999Y-73900000D01*
G75*
G02*
X126300000Y-73650001I0J249999D01*
G01*
X126300000Y-72949999D01*
G75*
G02*
X126549999Y-72700000I249999J0D01*
G01*
X127450001Y-72700000D01*
G75*
G02*
X127700000Y-72949999I0J-249999D01*
G01*
X127700000Y-73650001D01*
G75*
G02*
X127450001Y-73900000I-249999J0D01*
G01*
G37*
G36*
G01*
X127450001Y-75900000D02*
X126549999Y-75900000D01*
G75*
G02*
X126300000Y-75650001I0J249999D01*
G01*
X126300000Y-74949999D01*
G75*
G02*
X126549999Y-74700000I249999J0D01*
G01*
X127450001Y-74700000D01*
G75*
G02*
X127700000Y-74949999I0J-249999D01*
G01*
X127700000Y-75650001D01*
G75*
G02*
X127450001Y-75900000I-249999J0D01*
G01*
G37*
%TD*%
%TO.C,R5*%
G36*
G01*
X129550001Y-73900000D02*
X128649999Y-73900000D01*
G75*
G02*
X128400000Y-73650001I0J249999D01*
G01*
X128400000Y-72949999D01*
G75*
G02*
X128649999Y-72700000I249999J0D01*
G01*
X129550001Y-72700000D01*
G75*
G02*
X129800000Y-72949999I0J-249999D01*
G01*
X129800000Y-73650001D01*
G75*
G02*
X129550001Y-73900000I-249999J0D01*
G01*
G37*
G36*
G01*
X129550001Y-75900000D02*
X128649999Y-75900000D01*
G75*
G02*
X128400000Y-75650001I0J249999D01*
G01*
X128400000Y-74949999D01*
G75*
G02*
X128649999Y-74700000I249999J0D01*
G01*
X129550001Y-74700000D01*
G75*
G02*
X129800000Y-74949999I0J-249999D01*
G01*
X129800000Y-75650001D01*
G75*
G02*
X129550001Y-75900000I-249999J0D01*
G01*
G37*
%TD*%
%TO.C,D4*%
G36*
G01*
X120250001Y-141150000D02*
X119349999Y-141150000D01*
G75*
G02*
X119100000Y-140900001I0J249999D01*
G01*
X119100000Y-140249999D01*
G75*
G02*
X119349999Y-140000000I249999J0D01*
G01*
X120250001Y-140000000D01*
G75*
G02*
X120500000Y-140249999I0J-249999D01*
G01*
X120500000Y-140900001D01*
G75*
G02*
X120250001Y-141150000I-249999J0D01*
G01*
G37*
G36*
G01*
X120250001Y-143200000D02*
X119349999Y-143200000D01*
G75*
G02*
X119100000Y-142950001I0J249999D01*
G01*
X119100000Y-142299999D01*
G75*
G02*
X119349999Y-142050000I249999J0D01*
G01*
X120250001Y-142050000D01*
G75*
G02*
X120500000Y-142299999I0J-249999D01*
G01*
X120500000Y-142950001D01*
G75*
G02*
X120250001Y-143200000I-249999J0D01*
G01*
G37*
%TD*%
D28*
%TO.C,J2*%
X142900000Y-140800000D03*
X140400000Y-140800000D03*
X138400000Y-140800000D03*
D29*
X135900000Y-140800000D03*
D30*
X145970000Y-143510000D03*
X132830000Y-143510000D03*
%TD*%
D31*
%TO.C,U3*%
X143350000Y-110875000D03*
X143350000Y-111525000D03*
X143350000Y-112175000D03*
X143350000Y-112825000D03*
X143350000Y-113475000D03*
X143350000Y-114125000D03*
X143350000Y-114775000D03*
X143350000Y-115425000D03*
X143350000Y-116075000D03*
X143350000Y-116725000D03*
X143350000Y-117375000D03*
X143350000Y-118025000D03*
X143350000Y-118675000D03*
X143350000Y-119325000D03*
X136150000Y-119325000D03*
X136150000Y-118675000D03*
X136150000Y-118025000D03*
X136150000Y-117375000D03*
X136150000Y-116725000D03*
X136150000Y-116075000D03*
X136150000Y-115425000D03*
X136150000Y-114775000D03*
X136150000Y-114125000D03*
X136150000Y-113475000D03*
X136150000Y-112825000D03*
X136150000Y-112175000D03*
X136150000Y-111525000D03*
X136150000Y-110875000D03*
%TD*%
D32*
%TO.C,U2*%
X119200000Y-138350000D03*
X123800000Y-138350000D03*
X121500000Y-138350000D03*
D33*
X121500000Y-132050000D03*
%TD*%
D34*
%TO.C,SW5*%
X116600000Y-92200000D03*
D35*
X114100000Y-92200000D03*
X111600000Y-92200000D03*
D36*
X119700000Y-84700000D03*
X108500000Y-84700000D03*
D35*
X116600000Y-77700000D03*
X111600000Y-77700000D03*
%TD*%
D34*
%TO.C,SW4*%
X131500000Y-92200000D03*
D35*
X129000000Y-92200000D03*
X126500000Y-92200000D03*
D36*
X134600000Y-84700000D03*
X123400000Y-84700000D03*
D35*
X131500000Y-77700000D03*
X126500000Y-77700000D03*
%TD*%
D34*
%TO.C,SW3*%
X146400000Y-92200000D03*
D35*
X143900000Y-92200000D03*
X141400000Y-92200000D03*
D36*
X149500000Y-84700000D03*
X138300000Y-84700000D03*
D35*
X146400000Y-77700000D03*
X141400000Y-77700000D03*
%TD*%
%TO.C,R41*%
G36*
G01*
X114785000Y-89360000D02*
X114415000Y-89360000D01*
G75*
G02*
X114280000Y-89225000I0J135000D01*
G01*
X114280000Y-88955000D01*
G75*
G02*
X114415000Y-88820000I135000J0D01*
G01*
X114785000Y-88820000D01*
G75*
G02*
X114920000Y-88955000I0J-135000D01*
G01*
X114920000Y-89225000D01*
G75*
G02*
X114785000Y-89360000I-135000J0D01*
G01*
G37*
G36*
G01*
X114785000Y-90380000D02*
X114415000Y-90380000D01*
G75*
G02*
X114280000Y-90245000I0J135000D01*
G01*
X114280000Y-89975000D01*
G75*
G02*
X114415000Y-89840000I135000J0D01*
G01*
X114785000Y-89840000D01*
G75*
G02*
X114920000Y-89975000I0J-135000D01*
G01*
X114920000Y-90245000D01*
G75*
G02*
X114785000Y-90380000I-135000J0D01*
G01*
G37*
%TD*%
%TO.C,R40*%
G36*
G01*
X116415000Y-89840000D02*
X116785000Y-89840000D01*
G75*
G02*
X116920000Y-89975000I0J-135000D01*
G01*
X116920000Y-90245000D01*
G75*
G02*
X116785000Y-90380000I-135000J0D01*
G01*
X116415000Y-90380000D01*
G75*
G02*
X116280000Y-90245000I0J135000D01*
G01*
X116280000Y-89975000D01*
G75*
G02*
X116415000Y-89840000I135000J0D01*
G01*
G37*
G36*
G01*
X116415000Y-88820000D02*
X116785000Y-88820000D01*
G75*
G02*
X116920000Y-88955000I0J-135000D01*
G01*
X116920000Y-89225000D01*
G75*
G02*
X116785000Y-89360000I-135000J0D01*
G01*
X116415000Y-89360000D01*
G75*
G02*
X116280000Y-89225000I0J135000D01*
G01*
X116280000Y-88955000D01*
G75*
G02*
X116415000Y-88820000I135000J0D01*
G01*
G37*
%TD*%
%TO.C,R39*%
G36*
G01*
X112415000Y-89830000D02*
X112785000Y-89830000D01*
G75*
G02*
X112920000Y-89965000I0J-135000D01*
G01*
X112920000Y-90235000D01*
G75*
G02*
X112785000Y-90370000I-135000J0D01*
G01*
X112415000Y-90370000D01*
G75*
G02*
X112280000Y-90235000I0J135000D01*
G01*
X112280000Y-89965000D01*
G75*
G02*
X112415000Y-89830000I135000J0D01*
G01*
G37*
G36*
G01*
X112415000Y-88810000D02*
X112785000Y-88810000D01*
G75*
G02*
X112920000Y-88945000I0J-135000D01*
G01*
X112920000Y-89215000D01*
G75*
G02*
X112785000Y-89350000I-135000J0D01*
G01*
X112415000Y-89350000D01*
G75*
G02*
X112280000Y-89215000I0J135000D01*
G01*
X112280000Y-88945000D01*
G75*
G02*
X112415000Y-88810000I135000J0D01*
G01*
G37*
%TD*%
%TO.C,R38*%
G36*
G01*
X116785000Y-79760000D02*
X116415000Y-79760000D01*
G75*
G02*
X116280000Y-79625000I0J135000D01*
G01*
X116280000Y-79355000D01*
G75*
G02*
X116415000Y-79220000I135000J0D01*
G01*
X116785000Y-79220000D01*
G75*
G02*
X116920000Y-79355000I0J-135000D01*
G01*
X116920000Y-79625000D01*
G75*
G02*
X116785000Y-79760000I-135000J0D01*
G01*
G37*
G36*
G01*
X116785000Y-80780000D02*
X116415000Y-80780000D01*
G75*
G02*
X116280000Y-80645000I0J135000D01*
G01*
X116280000Y-80375000D01*
G75*
G02*
X116415000Y-80240000I135000J0D01*
G01*
X116785000Y-80240000D01*
G75*
G02*
X116920000Y-80375000I0J-135000D01*
G01*
X116920000Y-80645000D01*
G75*
G02*
X116785000Y-80780000I-135000J0D01*
G01*
G37*
%TD*%
%TO.C,R37*%
G36*
G01*
X117415000Y-80240000D02*
X117785000Y-80240000D01*
G75*
G02*
X117920000Y-80375000I0J-135000D01*
G01*
X117920000Y-80645000D01*
G75*
G02*
X117785000Y-80780000I-135000J0D01*
G01*
X117415000Y-80780000D01*
G75*
G02*
X117280000Y-80645000I0J135000D01*
G01*
X117280000Y-80375000D01*
G75*
G02*
X117415000Y-80240000I135000J0D01*
G01*
G37*
G36*
G01*
X117415000Y-79220000D02*
X117785000Y-79220000D01*
G75*
G02*
X117920000Y-79355000I0J-135000D01*
G01*
X117920000Y-79625000D01*
G75*
G02*
X117785000Y-79760000I-135000J0D01*
G01*
X117415000Y-79760000D01*
G75*
G02*
X117280000Y-79625000I0J135000D01*
G01*
X117280000Y-79355000D01*
G75*
G02*
X117415000Y-79220000I135000J0D01*
G01*
G37*
%TD*%
%TO.C,R35*%
G36*
G01*
X129685000Y-89360000D02*
X129315000Y-89360000D01*
G75*
G02*
X129180000Y-89225000I0J135000D01*
G01*
X129180000Y-88955000D01*
G75*
G02*
X129315000Y-88820000I135000J0D01*
G01*
X129685000Y-88820000D01*
G75*
G02*
X129820000Y-88955000I0J-135000D01*
G01*
X129820000Y-89225000D01*
G75*
G02*
X129685000Y-89360000I-135000J0D01*
G01*
G37*
G36*
G01*
X129685000Y-90380000D02*
X129315000Y-90380000D01*
G75*
G02*
X129180000Y-90245000I0J135000D01*
G01*
X129180000Y-89975000D01*
G75*
G02*
X129315000Y-89840000I135000J0D01*
G01*
X129685000Y-89840000D01*
G75*
G02*
X129820000Y-89975000I0J-135000D01*
G01*
X129820000Y-90245000D01*
G75*
G02*
X129685000Y-90380000I-135000J0D01*
G01*
G37*
%TD*%
%TO.C,R34*%
G36*
G01*
X131315000Y-89840000D02*
X131685000Y-89840000D01*
G75*
G02*
X131820000Y-89975000I0J-135000D01*
G01*
X131820000Y-90245000D01*
G75*
G02*
X131685000Y-90380000I-135000J0D01*
G01*
X131315000Y-90380000D01*
G75*
G02*
X131180000Y-90245000I0J135000D01*
G01*
X131180000Y-89975000D01*
G75*
G02*
X131315000Y-89840000I135000J0D01*
G01*
G37*
G36*
G01*
X131315000Y-88820000D02*
X131685000Y-88820000D01*
G75*
G02*
X131820000Y-88955000I0J-135000D01*
G01*
X131820000Y-89225000D01*
G75*
G02*
X131685000Y-89360000I-135000J0D01*
G01*
X131315000Y-89360000D01*
G75*
G02*
X131180000Y-89225000I0J135000D01*
G01*
X131180000Y-88955000D01*
G75*
G02*
X131315000Y-88820000I135000J0D01*
G01*
G37*
%TD*%
%TO.C,R33*%
G36*
G01*
X127315000Y-89840000D02*
X127685000Y-89840000D01*
G75*
G02*
X127820000Y-89975000I0J-135000D01*
G01*
X127820000Y-90245000D01*
G75*
G02*
X127685000Y-90380000I-135000J0D01*
G01*
X127315000Y-90380000D01*
G75*
G02*
X127180000Y-90245000I0J135000D01*
G01*
X127180000Y-89975000D01*
G75*
G02*
X127315000Y-89840000I135000J0D01*
G01*
G37*
G36*
G01*
X127315000Y-88820000D02*
X127685000Y-88820000D01*
G75*
G02*
X127820000Y-88955000I0J-135000D01*
G01*
X127820000Y-89225000D01*
G75*
G02*
X127685000Y-89360000I-135000J0D01*
G01*
X127315000Y-89360000D01*
G75*
G02*
X127180000Y-89225000I0J135000D01*
G01*
X127180000Y-88955000D01*
G75*
G02*
X127315000Y-88820000I135000J0D01*
G01*
G37*
%TD*%
%TO.C,R32*%
G36*
G01*
X131685000Y-79760000D02*
X131315000Y-79760000D01*
G75*
G02*
X131180000Y-79625000I0J135000D01*
G01*
X131180000Y-79355000D01*
G75*
G02*
X131315000Y-79220000I135000J0D01*
G01*
X131685000Y-79220000D01*
G75*
G02*
X131820000Y-79355000I0J-135000D01*
G01*
X131820000Y-79625000D01*
G75*
G02*
X131685000Y-79760000I-135000J0D01*
G01*
G37*
G36*
G01*
X131685000Y-80780000D02*
X131315000Y-80780000D01*
G75*
G02*
X131180000Y-80645000I0J135000D01*
G01*
X131180000Y-80375000D01*
G75*
G02*
X131315000Y-80240000I135000J0D01*
G01*
X131685000Y-80240000D01*
G75*
G02*
X131820000Y-80375000I0J-135000D01*
G01*
X131820000Y-80645000D01*
G75*
G02*
X131685000Y-80780000I-135000J0D01*
G01*
G37*
%TD*%
%TO.C,R31*%
G36*
G01*
X132315000Y-80240000D02*
X132685000Y-80240000D01*
G75*
G02*
X132820000Y-80375000I0J-135000D01*
G01*
X132820000Y-80645000D01*
G75*
G02*
X132685000Y-80780000I-135000J0D01*
G01*
X132315000Y-80780000D01*
G75*
G02*
X132180000Y-80645000I0J135000D01*
G01*
X132180000Y-80375000D01*
G75*
G02*
X132315000Y-80240000I135000J0D01*
G01*
G37*
G36*
G01*
X132315000Y-79220000D02*
X132685000Y-79220000D01*
G75*
G02*
X132820000Y-79355000I0J-135000D01*
G01*
X132820000Y-79625000D01*
G75*
G02*
X132685000Y-79760000I-135000J0D01*
G01*
X132315000Y-79760000D01*
G75*
G02*
X132180000Y-79625000I0J135000D01*
G01*
X132180000Y-79355000D01*
G75*
G02*
X132315000Y-79220000I135000J0D01*
G01*
G37*
%TD*%
%TO.C,R29*%
G36*
G01*
X144585000Y-89360000D02*
X144215000Y-89360000D01*
G75*
G02*
X144080000Y-89225000I0J135000D01*
G01*
X144080000Y-88955000D01*
G75*
G02*
X144215000Y-88820000I135000J0D01*
G01*
X144585000Y-88820000D01*
G75*
G02*
X144720000Y-88955000I0J-135000D01*
G01*
X144720000Y-89225000D01*
G75*
G02*
X144585000Y-89360000I-135000J0D01*
G01*
G37*
G36*
G01*
X144585000Y-90380000D02*
X144215000Y-90380000D01*
G75*
G02*
X144080000Y-90245000I0J135000D01*
G01*
X144080000Y-89975000D01*
G75*
G02*
X144215000Y-89840000I135000J0D01*
G01*
X144585000Y-89840000D01*
G75*
G02*
X144720000Y-89975000I0J-135000D01*
G01*
X144720000Y-90245000D01*
G75*
G02*
X144585000Y-90380000I-135000J0D01*
G01*
G37*
%TD*%
%TO.C,R28*%
G36*
G01*
X146215000Y-89840000D02*
X146585000Y-89840000D01*
G75*
G02*
X146720000Y-89975000I0J-135000D01*
G01*
X146720000Y-90245000D01*
G75*
G02*
X146585000Y-90380000I-135000J0D01*
G01*
X146215000Y-90380000D01*
G75*
G02*
X146080000Y-90245000I0J135000D01*
G01*
X146080000Y-89975000D01*
G75*
G02*
X146215000Y-89840000I135000J0D01*
G01*
G37*
G36*
G01*
X146215000Y-88820000D02*
X146585000Y-88820000D01*
G75*
G02*
X146720000Y-88955000I0J-135000D01*
G01*
X146720000Y-89225000D01*
G75*
G02*
X146585000Y-89360000I-135000J0D01*
G01*
X146215000Y-89360000D01*
G75*
G02*
X146080000Y-89225000I0J135000D01*
G01*
X146080000Y-88955000D01*
G75*
G02*
X146215000Y-88820000I135000J0D01*
G01*
G37*
%TD*%
%TO.C,R27*%
G36*
G01*
X142215000Y-89840000D02*
X142585000Y-89840000D01*
G75*
G02*
X142720000Y-89975000I0J-135000D01*
G01*
X142720000Y-90245000D01*
G75*
G02*
X142585000Y-90380000I-135000J0D01*
G01*
X142215000Y-90380000D01*
G75*
G02*
X142080000Y-90245000I0J135000D01*
G01*
X142080000Y-89975000D01*
G75*
G02*
X142215000Y-89840000I135000J0D01*
G01*
G37*
G36*
G01*
X142215000Y-88820000D02*
X142585000Y-88820000D01*
G75*
G02*
X142720000Y-88955000I0J-135000D01*
G01*
X142720000Y-89225000D01*
G75*
G02*
X142585000Y-89360000I-135000J0D01*
G01*
X142215000Y-89360000D01*
G75*
G02*
X142080000Y-89225000I0J135000D01*
G01*
X142080000Y-88955000D01*
G75*
G02*
X142215000Y-88820000I135000J0D01*
G01*
G37*
%TD*%
%TO.C,R26*%
G36*
G01*
X146585000Y-79760000D02*
X146215000Y-79760000D01*
G75*
G02*
X146080000Y-79625000I0J135000D01*
G01*
X146080000Y-79355000D01*
G75*
G02*
X146215000Y-79220000I135000J0D01*
G01*
X146585000Y-79220000D01*
G75*
G02*
X146720000Y-79355000I0J-135000D01*
G01*
X146720000Y-79625000D01*
G75*
G02*
X146585000Y-79760000I-135000J0D01*
G01*
G37*
G36*
G01*
X146585000Y-80780000D02*
X146215000Y-80780000D01*
G75*
G02*
X146080000Y-80645000I0J135000D01*
G01*
X146080000Y-80375000D01*
G75*
G02*
X146215000Y-80240000I135000J0D01*
G01*
X146585000Y-80240000D01*
G75*
G02*
X146720000Y-80375000I0J-135000D01*
G01*
X146720000Y-80645000D01*
G75*
G02*
X146585000Y-80780000I-135000J0D01*
G01*
G37*
%TD*%
%TO.C,R25*%
G36*
G01*
X147215000Y-80240000D02*
X147585000Y-80240000D01*
G75*
G02*
X147720000Y-80375000I0J-135000D01*
G01*
X147720000Y-80645000D01*
G75*
G02*
X147585000Y-80780000I-135000J0D01*
G01*
X147215000Y-80780000D01*
G75*
G02*
X147080000Y-80645000I0J135000D01*
G01*
X147080000Y-80375000D01*
G75*
G02*
X147215000Y-80240000I135000J0D01*
G01*
G37*
G36*
G01*
X147215000Y-79220000D02*
X147585000Y-79220000D01*
G75*
G02*
X147720000Y-79355000I0J-135000D01*
G01*
X147720000Y-79625000D01*
G75*
G02*
X147585000Y-79760000I-135000J0D01*
G01*
X147215000Y-79760000D01*
G75*
G02*
X147080000Y-79625000I0J135000D01*
G01*
X147080000Y-79355000D01*
G75*
G02*
X147215000Y-79220000I135000J0D01*
G01*
G37*
%TD*%
%TO.C,R13*%
G36*
G01*
X119015000Y-108740000D02*
X119385000Y-108740000D01*
G75*
G02*
X119520000Y-108875000I0J-135000D01*
G01*
X119520000Y-109145000D01*
G75*
G02*
X119385000Y-109280000I-135000J0D01*
G01*
X119015000Y-109280000D01*
G75*
G02*
X118880000Y-109145000I0J135000D01*
G01*
X118880000Y-108875000D01*
G75*
G02*
X119015000Y-108740000I135000J0D01*
G01*
G37*
G36*
G01*
X119015000Y-107720000D02*
X119385000Y-107720000D01*
G75*
G02*
X119520000Y-107855000I0J-135000D01*
G01*
X119520000Y-108125000D01*
G75*
G02*
X119385000Y-108260000I-135000J0D01*
G01*
X119015000Y-108260000D01*
G75*
G02*
X118880000Y-108125000I0J135000D01*
G01*
X118880000Y-107855000D01*
G75*
G02*
X119015000Y-107720000I135000J0D01*
G01*
G37*
%TD*%
%TO.C,R9*%
G36*
G01*
X146585000Y-129260000D02*
X146215000Y-129260000D01*
G75*
G02*
X146080000Y-129125000I0J135000D01*
G01*
X146080000Y-128855000D01*
G75*
G02*
X146215000Y-128720000I135000J0D01*
G01*
X146585000Y-128720000D01*
G75*
G02*
X146720000Y-128855000I0J-135000D01*
G01*
X146720000Y-129125000D01*
G75*
G02*
X146585000Y-129260000I-135000J0D01*
G01*
G37*
G36*
G01*
X146585000Y-130280000D02*
X146215000Y-130280000D01*
G75*
G02*
X146080000Y-130145000I0J135000D01*
G01*
X146080000Y-129875000D01*
G75*
G02*
X146215000Y-129740000I135000J0D01*
G01*
X146585000Y-129740000D01*
G75*
G02*
X146720000Y-129875000I0J-135000D01*
G01*
X146720000Y-130145000D01*
G75*
G02*
X146585000Y-130280000I-135000J0D01*
G01*
G37*
%TD*%
%TO.C,R8*%
G36*
G01*
X146585000Y-132760000D02*
X146215000Y-132760000D01*
G75*
G02*
X146080000Y-132625000I0J135000D01*
G01*
X146080000Y-132355000D01*
G75*
G02*
X146215000Y-132220000I135000J0D01*
G01*
X146585000Y-132220000D01*
G75*
G02*
X146720000Y-132355000I0J-135000D01*
G01*
X146720000Y-132625000D01*
G75*
G02*
X146585000Y-132760000I-135000J0D01*
G01*
G37*
G36*
G01*
X146585000Y-133780000D02*
X146215000Y-133780000D01*
G75*
G02*
X146080000Y-133645000I0J135000D01*
G01*
X146080000Y-133375000D01*
G75*
G02*
X146215000Y-133240000I135000J0D01*
G01*
X146585000Y-133240000D01*
G75*
G02*
X146720000Y-133375000I0J-135000D01*
G01*
X146720000Y-133645000D01*
G75*
G02*
X146585000Y-133780000I-135000J0D01*
G01*
G37*
%TD*%
%TO.C,R2*%
G36*
G01*
X126515000Y-124640000D02*
X126885000Y-124640000D01*
G75*
G02*
X127020000Y-124775000I0J-135000D01*
G01*
X127020000Y-125045000D01*
G75*
G02*
X126885000Y-125180000I-135000J0D01*
G01*
X126515000Y-125180000D01*
G75*
G02*
X126380000Y-125045000I0J135000D01*
G01*
X126380000Y-124775000D01*
G75*
G02*
X126515000Y-124640000I135000J0D01*
G01*
G37*
G36*
G01*
X126515000Y-123620000D02*
X126885000Y-123620000D01*
G75*
G02*
X127020000Y-123755000I0J-135000D01*
G01*
X127020000Y-124025000D01*
G75*
G02*
X126885000Y-124160000I-135000J0D01*
G01*
X126515000Y-124160000D01*
G75*
G02*
X126380000Y-124025000I0J135000D01*
G01*
X126380000Y-123755000D01*
G75*
G02*
X126515000Y-123620000I135000J0D01*
G01*
G37*
%TD*%
%TO.C,R15*%
G36*
G01*
X117249999Y-72100000D02*
X118150001Y-72100000D01*
G75*
G02*
X118400000Y-72349999I0J-249999D01*
G01*
X118400000Y-73050001D01*
G75*
G02*
X118150001Y-73300000I-249999J0D01*
G01*
X117249999Y-73300000D01*
G75*
G02*
X117000000Y-73050001I0J249999D01*
G01*
X117000000Y-72349999D01*
G75*
G02*
X117249999Y-72100000I249999J0D01*
G01*
G37*
G36*
G01*
X117249999Y-70100000D02*
X118150001Y-70100000D01*
G75*
G02*
X118400000Y-70349999I0J-249999D01*
G01*
X118400000Y-71050001D01*
G75*
G02*
X118150001Y-71300000I-249999J0D01*
G01*
X117249999Y-71300000D01*
G75*
G02*
X117000000Y-71050001I0J249999D01*
G01*
X117000000Y-70349999D01*
G75*
G02*
X117249999Y-70100000I249999J0D01*
G01*
G37*
%TD*%
D37*
%TO.C,Q1*%
X126600000Y-144300000D03*
X128600000Y-143350000D03*
X128600000Y-145250000D03*
%TD*%
%TO.C,L1*%
G36*
G01*
X123572500Y-124210000D02*
X123227500Y-124210000D01*
G75*
G02*
X123080000Y-124062500I0J147500D01*
G01*
X123080000Y-123767500D01*
G75*
G02*
X123227500Y-123620000I147500J0D01*
G01*
X123572500Y-123620000D01*
G75*
G02*
X123720000Y-123767500I0J-147500D01*
G01*
X123720000Y-124062500D01*
G75*
G02*
X123572500Y-124210000I-147500J0D01*
G01*
G37*
G36*
G01*
X123572500Y-125180000D02*
X123227500Y-125180000D01*
G75*
G02*
X123080000Y-125032500I0J147500D01*
G01*
X123080000Y-124737500D01*
G75*
G02*
X123227500Y-124590000I147500J0D01*
G01*
X123572500Y-124590000D01*
G75*
G02*
X123720000Y-124737500I0J-147500D01*
G01*
X123720000Y-125032500D01*
G75*
G02*
X123572500Y-125180000I-147500J0D01*
G01*
G37*
%TD*%
D38*
%TO.C,H4*%
X155697056Y-146302944D03*
X154000000Y-145600000D03*
X152302944Y-146302944D03*
X151600000Y-148000000D03*
X152302944Y-149697056D03*
X154000000Y-150400000D03*
X155697056Y-149697056D03*
X156400000Y-148000000D03*
D39*
X154000000Y-148000000D03*
%TD*%
D38*
%TO.C,H3*%
X105697056Y-146302944D03*
X104000000Y-145600000D03*
X102302944Y-146302944D03*
X101600000Y-148000000D03*
X102302944Y-149697056D03*
X104000000Y-150400000D03*
X105697056Y-149697056D03*
X106400000Y-148000000D03*
D39*
X104000000Y-148000000D03*
%TD*%
D38*
%TO.C,H2*%
X155697056Y-56302944D03*
X154000000Y-55600000D03*
X152302944Y-56302944D03*
X151600000Y-58000000D03*
X152302944Y-59697056D03*
X154000000Y-60400000D03*
X155697056Y-59697056D03*
X156400000Y-58000000D03*
D39*
X154000000Y-58000000D03*
%TD*%
D38*
%TO.C,H1*%
X105697056Y-56302944D03*
X104000000Y-55600000D03*
X102302944Y-56302944D03*
X101600000Y-58000000D03*
X102302944Y-59697056D03*
X104000000Y-60400000D03*
X105697056Y-59697056D03*
X106400000Y-58000000D03*
D39*
X104000000Y-58000000D03*
%TD*%
%TO.C,FB1*%
G36*
G01*
X128750000Y-141800001D02*
X128750000Y-140399999D01*
G75*
G02*
X128999999Y-140150000I249999J0D01*
G01*
X129550001Y-140150000D01*
G75*
G02*
X129800000Y-140399999I0J-249999D01*
G01*
X129800000Y-141800001D01*
G75*
G02*
X129550001Y-142050000I-249999J0D01*
G01*
X128999999Y-142050000D01*
G75*
G02*
X128750000Y-141800001I0J249999D01*
G01*
G37*
G36*
G01*
X125600000Y-141800001D02*
X125600000Y-140399999D01*
G75*
G02*
X125849999Y-140150000I249999J0D01*
G01*
X126400001Y-140150000D01*
G75*
G02*
X126650000Y-140399999I0J-249999D01*
G01*
X126650000Y-141800001D01*
G75*
G02*
X126400001Y-142050000I-249999J0D01*
G01*
X125849999Y-142050000D01*
G75*
G02*
X125600000Y-141800001I0J249999D01*
G01*
G37*
%TD*%
%TO.C,C42*%
G36*
G01*
X115770000Y-79780000D02*
X115430000Y-79780000D01*
G75*
G02*
X115290000Y-79640000I0J140000D01*
G01*
X115290000Y-79360000D01*
G75*
G02*
X115430000Y-79220000I140000J0D01*
G01*
X115770000Y-79220000D01*
G75*
G02*
X115910000Y-79360000I0J-140000D01*
G01*
X115910000Y-79640000D01*
G75*
G02*
X115770000Y-79780000I-140000J0D01*
G01*
G37*
G36*
G01*
X115770000Y-80740000D02*
X115430000Y-80740000D01*
G75*
G02*
X115290000Y-80600000I0J140000D01*
G01*
X115290000Y-80320000D01*
G75*
G02*
X115430000Y-80180000I140000J0D01*
G01*
X115770000Y-80180000D01*
G75*
G02*
X115910000Y-80320000I0J-140000D01*
G01*
X115910000Y-80600000D01*
G75*
G02*
X115770000Y-80740000I-140000J0D01*
G01*
G37*
%TD*%
%TO.C,C39*%
G36*
G01*
X130670000Y-79800000D02*
X130330000Y-79800000D01*
G75*
G02*
X130190000Y-79660000I0J140000D01*
G01*
X130190000Y-79380000D01*
G75*
G02*
X130330000Y-79240000I140000J0D01*
G01*
X130670000Y-79240000D01*
G75*
G02*
X130810000Y-79380000I0J-140000D01*
G01*
X130810000Y-79660000D01*
G75*
G02*
X130670000Y-79800000I-140000J0D01*
G01*
G37*
G36*
G01*
X130670000Y-80760000D02*
X130330000Y-80760000D01*
G75*
G02*
X130190000Y-80620000I0J140000D01*
G01*
X130190000Y-80340000D01*
G75*
G02*
X130330000Y-80200000I140000J0D01*
G01*
X130670000Y-80200000D01*
G75*
G02*
X130810000Y-80340000I0J-140000D01*
G01*
X130810000Y-80620000D01*
G75*
G02*
X130670000Y-80760000I-140000J0D01*
G01*
G37*
%TD*%
%TO.C,C36*%
G36*
G01*
X145570000Y-79800000D02*
X145230000Y-79800000D01*
G75*
G02*
X145090000Y-79660000I0J140000D01*
G01*
X145090000Y-79380000D01*
G75*
G02*
X145230000Y-79240000I140000J0D01*
G01*
X145570000Y-79240000D01*
G75*
G02*
X145710000Y-79380000I0J-140000D01*
G01*
X145710000Y-79660000D01*
G75*
G02*
X145570000Y-79800000I-140000J0D01*
G01*
G37*
G36*
G01*
X145570000Y-80760000D02*
X145230000Y-80760000D01*
G75*
G02*
X145090000Y-80620000I0J140000D01*
G01*
X145090000Y-80340000D01*
G75*
G02*
X145230000Y-80200000I140000J0D01*
G01*
X145570000Y-80200000D01*
G75*
G02*
X145710000Y-80340000I0J-140000D01*
G01*
X145710000Y-80620000D01*
G75*
G02*
X145570000Y-80760000I-140000J0D01*
G01*
G37*
%TD*%
%TO.C,C34*%
G36*
G01*
X131930000Y-111400000D02*
X132270000Y-111400000D01*
G75*
G02*
X132410000Y-111540000I0J-140000D01*
G01*
X132410000Y-111820000D01*
G75*
G02*
X132270000Y-111960000I-140000J0D01*
G01*
X131930000Y-111960000D01*
G75*
G02*
X131790000Y-111820000I0J140000D01*
G01*
X131790000Y-111540000D01*
G75*
G02*
X131930000Y-111400000I140000J0D01*
G01*
G37*
G36*
G01*
X131930000Y-110440000D02*
X132270000Y-110440000D01*
G75*
G02*
X132410000Y-110580000I0J-140000D01*
G01*
X132410000Y-110860000D01*
G75*
G02*
X132270000Y-111000000I-140000J0D01*
G01*
X131930000Y-111000000D01*
G75*
G02*
X131790000Y-110860000I0J140000D01*
G01*
X131790000Y-110580000D01*
G75*
G02*
X131930000Y-110440000I140000J0D01*
G01*
G37*
%TD*%
%TO.C,C33*%
G36*
G01*
X146125001Y-109150000D02*
X145274999Y-109150000D01*
G75*
G02*
X145025000Y-108900001I0J249999D01*
G01*
X145025000Y-107999999D01*
G75*
G02*
X145274999Y-107750000I249999J0D01*
G01*
X146125001Y-107750000D01*
G75*
G02*
X146375000Y-107999999I0J-249999D01*
G01*
X146375000Y-108900001D01*
G75*
G02*
X146125001Y-109150000I-249999J0D01*
G01*
G37*
G36*
G01*
X146125001Y-111850000D02*
X145274999Y-111850000D01*
G75*
G02*
X145025000Y-111600001I0J249999D01*
G01*
X145025000Y-110699999D01*
G75*
G02*
X145274999Y-110450000I249999J0D01*
G01*
X146125001Y-110450000D01*
G75*
G02*
X146375000Y-110699999I0J-249999D01*
G01*
X146375000Y-111600001D01*
G75*
G02*
X146125001Y-111850000I-249999J0D01*
G01*
G37*
%TD*%
%TO.C,C26*%
G36*
G01*
X145600000Y-99874999D02*
X145600000Y-100725001D01*
G75*
G02*
X145350001Y-100975000I-249999J0D01*
G01*
X144449999Y-100975000D01*
G75*
G02*
X144200000Y-100725001I0J249999D01*
G01*
X144200000Y-99874999D01*
G75*
G02*
X144449999Y-99625000I249999J0D01*
G01*
X145350001Y-99625000D01*
G75*
G02*
X145600000Y-99874999I0J-249999D01*
G01*
G37*
G36*
G01*
X148300000Y-99874999D02*
X148300000Y-100725001D01*
G75*
G02*
X148050001Y-100975000I-249999J0D01*
G01*
X147149999Y-100975000D01*
G75*
G02*
X146900000Y-100725001I0J249999D01*
G01*
X146900000Y-99874999D01*
G75*
G02*
X147149999Y-99625000I249999J0D01*
G01*
X148050001Y-99625000D01*
G75*
G02*
X148300000Y-99874999I0J-249999D01*
G01*
G37*
%TD*%
%TO.C,C24*%
G36*
G01*
X132150000Y-100725001D02*
X132150000Y-99874999D01*
G75*
G02*
X132399999Y-99625000I249999J0D01*
G01*
X133300001Y-99625000D01*
G75*
G02*
X133550000Y-99874999I0J-249999D01*
G01*
X133550000Y-100725001D01*
G75*
G02*
X133300001Y-100975000I-249999J0D01*
G01*
X132399999Y-100975000D01*
G75*
G02*
X132150000Y-100725001I0J249999D01*
G01*
G37*
G36*
G01*
X129450000Y-100725001D02*
X129450000Y-99874999D01*
G75*
G02*
X129699999Y-99625000I249999J0D01*
G01*
X130600001Y-99625000D01*
G75*
G02*
X130850000Y-99874999I0J-249999D01*
G01*
X130850000Y-100725001D01*
G75*
G02*
X130600001Y-100975000I-249999J0D01*
G01*
X129699999Y-100975000D01*
G75*
G02*
X129450000Y-100725001I0J249999D01*
G01*
G37*
%TD*%
%TO.C,C21*%
G36*
G01*
X147230000Y-118750000D02*
X147570000Y-118750000D01*
G75*
G02*
X147710000Y-118890000I0J-140000D01*
G01*
X147710000Y-119170000D01*
G75*
G02*
X147570000Y-119310000I-140000J0D01*
G01*
X147230000Y-119310000D01*
G75*
G02*
X147090000Y-119170000I0J140000D01*
G01*
X147090000Y-118890000D01*
G75*
G02*
X147230000Y-118750000I140000J0D01*
G01*
G37*
G36*
G01*
X147230000Y-117790000D02*
X147570000Y-117790000D01*
G75*
G02*
X147710000Y-117930000I0J-140000D01*
G01*
X147710000Y-118210000D01*
G75*
G02*
X147570000Y-118350000I-140000J0D01*
G01*
X147230000Y-118350000D01*
G75*
G02*
X147090000Y-118210000I0J140000D01*
G01*
X147090000Y-117930000D01*
G75*
G02*
X147230000Y-117790000I140000J0D01*
G01*
G37*
%TD*%
%TO.C,C23*%
G36*
G01*
X135250000Y-102025000D02*
X135250000Y-102975000D01*
G75*
G02*
X135000000Y-103225000I-250000J0D01*
G01*
X134500000Y-103225000D01*
G75*
G02*
X134250000Y-102975000I0J250000D01*
G01*
X134250000Y-102025000D01*
G75*
G02*
X134500000Y-101775000I250000J0D01*
G01*
X135000000Y-101775000D01*
G75*
G02*
X135250000Y-102025000I0J-250000D01*
G01*
G37*
G36*
G01*
X137150000Y-102025000D02*
X137150000Y-102975000D01*
G75*
G02*
X136900000Y-103225000I-250000J0D01*
G01*
X136400000Y-103225000D01*
G75*
G02*
X136150000Y-102975000I0J250000D01*
G01*
X136150000Y-102025000D01*
G75*
G02*
X136400000Y-101775000I250000J0D01*
G01*
X136900000Y-101775000D01*
G75*
G02*
X137150000Y-102025000I0J-250000D01*
G01*
G37*
%TD*%
%TO.C,C22*%
G36*
G01*
X135650000Y-99874999D02*
X135650000Y-100725001D01*
G75*
G02*
X135400001Y-100975000I-249999J0D01*
G01*
X134499999Y-100975000D01*
G75*
G02*
X134250000Y-100725001I0J249999D01*
G01*
X134250000Y-99874999D01*
G75*
G02*
X134499999Y-99625000I249999J0D01*
G01*
X135400001Y-99625000D01*
G75*
G02*
X135650000Y-99874999I0J-249999D01*
G01*
G37*
G36*
G01*
X138350000Y-99874999D02*
X138350000Y-100725001D01*
G75*
G02*
X138100001Y-100975000I-249999J0D01*
G01*
X137199999Y-100975000D01*
G75*
G02*
X136950000Y-100725001I0J249999D01*
G01*
X136950000Y-99874999D01*
G75*
G02*
X137199999Y-99625000I249999J0D01*
G01*
X138100001Y-99625000D01*
G75*
G02*
X138350000Y-99874999I0J-249999D01*
G01*
G37*
%TD*%
%TO.C,C17*%
G36*
G01*
X117750000Y-98950000D02*
X116650000Y-98950000D01*
G75*
G02*
X116400000Y-98700000I0J250000D01*
G01*
X116400000Y-95700000D01*
G75*
G02*
X116650000Y-95450000I250000J0D01*
G01*
X117750000Y-95450000D01*
G75*
G02*
X118000000Y-95700000I0J-250000D01*
G01*
X118000000Y-98700000D01*
G75*
G02*
X117750000Y-98950000I-250000J0D01*
G01*
G37*
G36*
G01*
X117750000Y-104550000D02*
X116650000Y-104550000D01*
G75*
G02*
X116400000Y-104300000I0J250000D01*
G01*
X116400000Y-101300000D01*
G75*
G02*
X116650000Y-101050000I250000J0D01*
G01*
X117750000Y-101050000D01*
G75*
G02*
X118000000Y-101300000I0J-250000D01*
G01*
X118000000Y-104300000D01*
G75*
G02*
X117750000Y-104550000I-250000J0D01*
G01*
G37*
%TD*%
%TO.C,C16*%
G36*
G01*
X124950000Y-98950000D02*
X123850000Y-98950000D01*
G75*
G02*
X123600000Y-98700000I0J250000D01*
G01*
X123600000Y-95700000D01*
G75*
G02*
X123850000Y-95450000I250000J0D01*
G01*
X124950000Y-95450000D01*
G75*
G02*
X125200000Y-95700000I0J-250000D01*
G01*
X125200000Y-98700000D01*
G75*
G02*
X124950000Y-98950000I-250000J0D01*
G01*
G37*
G36*
G01*
X124950000Y-104550000D02*
X123850000Y-104550000D01*
G75*
G02*
X123600000Y-104300000I0J250000D01*
G01*
X123600000Y-101300000D01*
G75*
G02*
X123850000Y-101050000I250000J0D01*
G01*
X124950000Y-101050000D01*
G75*
G02*
X125200000Y-101300000I0J-250000D01*
G01*
X125200000Y-104300000D01*
G75*
G02*
X124950000Y-104550000I-250000J0D01*
G01*
G37*
%TD*%
%TO.C,C15*%
G36*
G01*
X116700000Y-109170000D02*
X116700000Y-108830000D01*
G75*
G02*
X116840000Y-108690000I140000J0D01*
G01*
X117120000Y-108690000D01*
G75*
G02*
X117260000Y-108830000I0J-140000D01*
G01*
X117260000Y-109170000D01*
G75*
G02*
X117120000Y-109310000I-140000J0D01*
G01*
X116840000Y-109310000D01*
G75*
G02*
X116700000Y-109170000I0J140000D01*
G01*
G37*
G36*
G01*
X115740000Y-109170000D02*
X115740000Y-108830000D01*
G75*
G02*
X115880000Y-108690000I140000J0D01*
G01*
X116160000Y-108690000D01*
G75*
G02*
X116300000Y-108830000I0J-140000D01*
G01*
X116300000Y-109170000D01*
G75*
G02*
X116160000Y-109310000I-140000J0D01*
G01*
X115880000Y-109310000D01*
G75*
G02*
X115740000Y-109170000I0J140000D01*
G01*
G37*
%TD*%
%TO.C,C14*%
G36*
G01*
X127130000Y-112500000D02*
X127470000Y-112500000D01*
G75*
G02*
X127610000Y-112640000I0J-140000D01*
G01*
X127610000Y-112920000D01*
G75*
G02*
X127470000Y-113060000I-140000J0D01*
G01*
X127130000Y-113060000D01*
G75*
G02*
X126990000Y-112920000I0J140000D01*
G01*
X126990000Y-112640000D01*
G75*
G02*
X127130000Y-112500000I140000J0D01*
G01*
G37*
G36*
G01*
X127130000Y-111540000D02*
X127470000Y-111540000D01*
G75*
G02*
X127610000Y-111680000I0J-140000D01*
G01*
X127610000Y-111960000D01*
G75*
G02*
X127470000Y-112100000I-140000J0D01*
G01*
X127130000Y-112100000D01*
G75*
G02*
X126990000Y-111960000I0J140000D01*
G01*
X126990000Y-111680000D01*
G75*
G02*
X127130000Y-111540000I140000J0D01*
G01*
G37*
%TD*%
%TO.C,C13*%
G36*
G01*
X112870000Y-119600000D02*
X112530000Y-119600000D01*
G75*
G02*
X112390000Y-119460000I0J140000D01*
G01*
X112390000Y-119180000D01*
G75*
G02*
X112530000Y-119040000I140000J0D01*
G01*
X112870000Y-119040000D01*
G75*
G02*
X113010000Y-119180000I0J-140000D01*
G01*
X113010000Y-119460000D01*
G75*
G02*
X112870000Y-119600000I-140000J0D01*
G01*
G37*
G36*
G01*
X112870000Y-120560000D02*
X112530000Y-120560000D01*
G75*
G02*
X112390000Y-120420000I0J140000D01*
G01*
X112390000Y-120140000D01*
G75*
G02*
X112530000Y-120000000I140000J0D01*
G01*
X112870000Y-120000000D01*
G75*
G02*
X113010000Y-120140000I0J-140000D01*
G01*
X113010000Y-120420000D01*
G75*
G02*
X112870000Y-120560000I-140000J0D01*
G01*
G37*
%TD*%
%TO.C,C12*%
G36*
G01*
X127130000Y-119700000D02*
X127470000Y-119700000D01*
G75*
G02*
X127610000Y-119840000I0J-140000D01*
G01*
X127610000Y-120120000D01*
G75*
G02*
X127470000Y-120260000I-140000J0D01*
G01*
X127130000Y-120260000D01*
G75*
G02*
X126990000Y-120120000I0J140000D01*
G01*
X126990000Y-119840000D01*
G75*
G02*
X127130000Y-119700000I140000J0D01*
G01*
G37*
G36*
G01*
X127130000Y-118740000D02*
X127470000Y-118740000D01*
G75*
G02*
X127610000Y-118880000I0J-140000D01*
G01*
X127610000Y-119160000D01*
G75*
G02*
X127470000Y-119300000I-140000J0D01*
G01*
X127130000Y-119300000D01*
G75*
G02*
X126990000Y-119160000I0J140000D01*
G01*
X126990000Y-118880000D01*
G75*
G02*
X127130000Y-118740000I140000J0D01*
G01*
G37*
%TD*%
%TO.C,C11*%
G36*
G01*
X115630000Y-124300000D02*
X115970000Y-124300000D01*
G75*
G02*
X116110000Y-124440000I0J-140000D01*
G01*
X116110000Y-124720000D01*
G75*
G02*
X115970000Y-124860000I-140000J0D01*
G01*
X115630000Y-124860000D01*
G75*
G02*
X115490000Y-124720000I0J140000D01*
G01*
X115490000Y-124440000D01*
G75*
G02*
X115630000Y-124300000I140000J0D01*
G01*
G37*
G36*
G01*
X115630000Y-123340000D02*
X115970000Y-123340000D01*
G75*
G02*
X116110000Y-123480000I0J-140000D01*
G01*
X116110000Y-123760000D01*
G75*
G02*
X115970000Y-123900000I-140000J0D01*
G01*
X115630000Y-123900000D01*
G75*
G02*
X115490000Y-123760000I0J140000D01*
G01*
X115490000Y-123480000D01*
G75*
G02*
X115630000Y-123340000I140000J0D01*
G01*
G37*
%TD*%
%TO.C,C10*%
G36*
G01*
X125430000Y-124600000D02*
X125770000Y-124600000D01*
G75*
G02*
X125910000Y-124740000I0J-140000D01*
G01*
X125910000Y-125020000D01*
G75*
G02*
X125770000Y-125160000I-140000J0D01*
G01*
X125430000Y-125160000D01*
G75*
G02*
X125290000Y-125020000I0J140000D01*
G01*
X125290000Y-124740000D01*
G75*
G02*
X125430000Y-124600000I140000J0D01*
G01*
G37*
G36*
G01*
X125430000Y-123640000D02*
X125770000Y-123640000D01*
G75*
G02*
X125910000Y-123780000I0J-140000D01*
G01*
X125910000Y-124060000D01*
G75*
G02*
X125770000Y-124200000I-140000J0D01*
G01*
X125430000Y-124200000D01*
G75*
G02*
X125290000Y-124060000I0J140000D01*
G01*
X125290000Y-123780000D01*
G75*
G02*
X125430000Y-123640000I140000J0D01*
G01*
G37*
%TD*%
%TO.C,C9*%
G36*
G01*
X124330000Y-124600000D02*
X124670000Y-124600000D01*
G75*
G02*
X124810000Y-124740000I0J-140000D01*
G01*
X124810000Y-125020000D01*
G75*
G02*
X124670000Y-125160000I-140000J0D01*
G01*
X124330000Y-125160000D01*
G75*
G02*
X124190000Y-125020000I0J140000D01*
G01*
X124190000Y-124740000D01*
G75*
G02*
X124330000Y-124600000I140000J0D01*
G01*
G37*
G36*
G01*
X124330000Y-123640000D02*
X124670000Y-123640000D01*
G75*
G02*
X124810000Y-123780000I0J-140000D01*
G01*
X124810000Y-124060000D01*
G75*
G02*
X124670000Y-124200000I-140000J0D01*
G01*
X124330000Y-124200000D01*
G75*
G02*
X124190000Y-124060000I0J140000D01*
G01*
X124190000Y-123780000D01*
G75*
G02*
X124330000Y-123640000I140000J0D01*
G01*
G37*
%TD*%
%TO.C,C6*%
G36*
G01*
X128625000Y-114350000D02*
X128625000Y-113850000D01*
G75*
G02*
X128850000Y-113625000I225000J0D01*
G01*
X129300000Y-113625000D01*
G75*
G02*
X129525000Y-113850000I0J-225000D01*
G01*
X129525000Y-114350000D01*
G75*
G02*
X129300000Y-114575000I-225000J0D01*
G01*
X128850000Y-114575000D01*
G75*
G02*
X128625000Y-114350000I0J225000D01*
G01*
G37*
G36*
G01*
X127075000Y-114350000D02*
X127075000Y-113850000D01*
G75*
G02*
X127300000Y-113625000I225000J0D01*
G01*
X127750000Y-113625000D01*
G75*
G02*
X127975000Y-113850000I0J-225000D01*
G01*
X127975000Y-114350000D01*
G75*
G02*
X127750000Y-114575000I-225000J0D01*
G01*
X127300000Y-114575000D01*
G75*
G02*
X127075000Y-114350000I0J225000D01*
G01*
G37*
%TD*%
%TO.C,C1*%
G36*
G01*
X115630000Y-126600000D02*
X115970000Y-126600000D01*
G75*
G02*
X116110000Y-126740000I0J-140000D01*
G01*
X116110000Y-127020000D01*
G75*
G02*
X115970000Y-127160000I-140000J0D01*
G01*
X115630000Y-127160000D01*
G75*
G02*
X115490000Y-127020000I0J140000D01*
G01*
X115490000Y-126740000D01*
G75*
G02*
X115630000Y-126600000I140000J0D01*
G01*
G37*
G36*
G01*
X115630000Y-125640000D02*
X115970000Y-125640000D01*
G75*
G02*
X116110000Y-125780000I0J-140000D01*
G01*
X116110000Y-126060000D01*
G75*
G02*
X115970000Y-126200000I-140000J0D01*
G01*
X115630000Y-126200000D01*
G75*
G02*
X115490000Y-126060000I0J140000D01*
G01*
X115490000Y-125780000D01*
G75*
G02*
X115630000Y-125640000I140000J0D01*
G01*
G37*
%TD*%
M02*
