%TF.GenerationSoftware,KiCad,Pcbnew,8.0.1*%
%TF.CreationDate,2024-03-17T12:11:07+01:00*%
%TF.ProjectId,KLST_CATERPILLAR,4b4c5354-5f43-4415-9445-5250494c4c41,rev?*%
%TF.SameCoordinates,Original*%
%TF.FileFunction,Paste,Bot*%
%TF.FilePolarity,Positive*%
%FSLAX46Y46*%
G04 Gerber Fmt 4.6, Leading zero omitted, Abs format (unit mm)*
G04 Created by KiCad (PCBNEW 8.0.1) date 2024-03-17 12:11:07*
%MOMM*%
%LPD*%
G01*
G04 APERTURE LIST*
%ADD10R,3.500000X1.020000*%
%ADD11C,0.787000*%
G04 APERTURE END LIST*
D10*
%TO.C,J13*%
X59000000Y-85600000D03*
X53000000Y-85600000D03*
X59000000Y-88140000D03*
X53000000Y-88140000D03*
X59000000Y-90680000D03*
X53000000Y-90680000D03*
X59000000Y-93220000D03*
X53000000Y-93220000D03*
X59000000Y-95760000D03*
X53000000Y-95760000D03*
X59000000Y-98300000D03*
X53000000Y-98300000D03*
X59000000Y-100840000D03*
X53000000Y-100840000D03*
X59000000Y-103380000D03*
X53000000Y-103380000D03*
X59000000Y-105920000D03*
X53000000Y-105920000D03*
X59000000Y-108460000D03*
X53000000Y-108460000D03*
X59000000Y-111000000D03*
X53000000Y-111000000D03*
X59000000Y-113540000D03*
X53000000Y-113540000D03*
X59000000Y-116080000D03*
X53000000Y-116080000D03*
X59000000Y-118620000D03*
X53000000Y-118620000D03*
X59000000Y-121160000D03*
X53000000Y-121160000D03*
X59000000Y-123700000D03*
X53000000Y-123700000D03*
X59000000Y-126240000D03*
X53000000Y-126240000D03*
%TD*%
D11*
%TO.C,J15*%
X73810000Y-134115676D03*
X72540000Y-134115676D03*
X71270000Y-134115676D03*
X70000000Y-134115676D03*
X68730000Y-134115676D03*
X67460000Y-134115676D03*
X66190000Y-134115676D03*
X66190000Y-132845676D03*
X67460000Y-132845676D03*
X68730000Y-132845676D03*
X70000000Y-132845676D03*
X71270000Y-132845676D03*
X72540000Y-132845676D03*
X73810000Y-132845676D03*
%TD*%
M02*
