%TF.GenerationSoftware,KiCad,Pcbnew,8.0.1*%
%TF.CreationDate,2024-03-17T21:51:42+01:00*%
%TF.ProjectId,KLST_CATERPILLAR,4b4c5354-5f43-4415-9445-5250494c4c41,rev?*%
%TF.SameCoordinates,Original*%
%TF.FileFunction,Other,Comment*%
%FSLAX46Y46*%
G04 Gerber Fmt 4.6, Leading zero omitted, Abs format (unit mm)*
G04 Created by KiCad (PCBNEW 8.0.1) date 2024-03-17 21:51:42*
%MOMM*%
%LPD*%
G01*
G04 APERTURE LIST*
%ADD10C,0.150000*%
%ADD11C,0.100000*%
%ADD12C,0.060000*%
%ADD13C,0.090000*%
%ADD14C,0.600000*%
G04 APERTURE END LIST*
D10*
X93613632Y-51772218D02*
X93756489Y-51819837D01*
X93756489Y-51819837D02*
X93994584Y-51819837D01*
X93994584Y-51819837D02*
X94089822Y-51772218D01*
X94089822Y-51772218D02*
X94137441Y-51724598D01*
X94137441Y-51724598D02*
X94185060Y-51629360D01*
X94185060Y-51629360D02*
X94185060Y-51534122D01*
X94185060Y-51534122D02*
X94137441Y-51438884D01*
X94137441Y-51438884D02*
X94089822Y-51391265D01*
X94089822Y-51391265D02*
X93994584Y-51343646D01*
X93994584Y-51343646D02*
X93804108Y-51296027D01*
X93804108Y-51296027D02*
X93708870Y-51248408D01*
X93708870Y-51248408D02*
X93661251Y-51200789D01*
X93661251Y-51200789D02*
X93613632Y-51105551D01*
X93613632Y-51105551D02*
X93613632Y-51010313D01*
X93613632Y-51010313D02*
X93661251Y-50915075D01*
X93661251Y-50915075D02*
X93708870Y-50867456D01*
X93708870Y-50867456D02*
X93804108Y-50819837D01*
X93804108Y-50819837D02*
X94042203Y-50819837D01*
X94042203Y-50819837D02*
X94185060Y-50867456D01*
X94470775Y-50819837D02*
X95042203Y-50819837D01*
X94756489Y-51819837D02*
X94756489Y-50819837D01*
X95327918Y-51534122D02*
X95804108Y-51534122D01*
X95232680Y-51819837D02*
X95566013Y-50819837D01*
X95566013Y-50819837D02*
X95899346Y-51819837D01*
X96804108Y-51724598D02*
X96756489Y-51772218D01*
X96756489Y-51772218D02*
X96613632Y-51819837D01*
X96613632Y-51819837D02*
X96518394Y-51819837D01*
X96518394Y-51819837D02*
X96375537Y-51772218D01*
X96375537Y-51772218D02*
X96280299Y-51676979D01*
X96280299Y-51676979D02*
X96232680Y-51581741D01*
X96232680Y-51581741D02*
X96185061Y-51391265D01*
X96185061Y-51391265D02*
X96185061Y-51248408D01*
X96185061Y-51248408D02*
X96232680Y-51057932D01*
X96232680Y-51057932D02*
X96280299Y-50962694D01*
X96280299Y-50962694D02*
X96375537Y-50867456D01*
X96375537Y-50867456D02*
X96518394Y-50819837D01*
X96518394Y-50819837D02*
X96613632Y-50819837D01*
X96613632Y-50819837D02*
X96756489Y-50867456D01*
X96756489Y-50867456D02*
X96804108Y-50915075D01*
X97232680Y-51819837D02*
X97232680Y-50819837D01*
X97804108Y-51819837D02*
X97375537Y-51248408D01*
X97804108Y-50819837D02*
X97232680Y-51391265D01*
X98232680Y-51438884D02*
X98994585Y-51438884D01*
X99470775Y-50819837D02*
X99470775Y-51629360D01*
X99470775Y-51629360D02*
X99518394Y-51724598D01*
X99518394Y-51724598D02*
X99566013Y-51772218D01*
X99566013Y-51772218D02*
X99661251Y-51819837D01*
X99661251Y-51819837D02*
X99851727Y-51819837D01*
X99851727Y-51819837D02*
X99946965Y-51772218D01*
X99946965Y-51772218D02*
X99994584Y-51724598D01*
X99994584Y-51724598D02*
X100042203Y-51629360D01*
X100042203Y-51629360D02*
X100042203Y-50819837D01*
X100518394Y-51819837D02*
X100518394Y-50819837D01*
X100518394Y-50819837D02*
X100899346Y-50819837D01*
X100899346Y-50819837D02*
X100994584Y-50867456D01*
X100994584Y-50867456D02*
X101042203Y-50915075D01*
X101042203Y-50915075D02*
X101089822Y-51010313D01*
X101089822Y-51010313D02*
X101089822Y-51153170D01*
X101089822Y-51153170D02*
X101042203Y-51248408D01*
X101042203Y-51248408D02*
X100994584Y-51296027D01*
X100994584Y-51296027D02*
X100899346Y-51343646D01*
X100899346Y-51343646D02*
X100518394Y-51343646D01*
X94185060Y-55039725D02*
X93613632Y-55039725D01*
X93899346Y-55039725D02*
X93899346Y-54039725D01*
X93899346Y-54039725D02*
X93804108Y-54182582D01*
X93804108Y-54182582D02*
X93708870Y-54277820D01*
X93708870Y-54277820D02*
X93613632Y-54325439D01*
X94613632Y-54944486D02*
X94661251Y-54992106D01*
X94661251Y-54992106D02*
X94613632Y-55039725D01*
X94613632Y-55039725D02*
X94566013Y-54992106D01*
X94566013Y-54992106D02*
X94613632Y-54944486D01*
X94613632Y-54944486D02*
X94613632Y-55039725D01*
X96185060Y-54515915D02*
X95851727Y-54515915D01*
X95851727Y-55039725D02*
X95851727Y-54039725D01*
X95851727Y-54039725D02*
X96327917Y-54039725D01*
X96708870Y-54944486D02*
X96756489Y-54992106D01*
X96756489Y-54992106D02*
X96708870Y-55039725D01*
X96708870Y-55039725D02*
X96661251Y-54992106D01*
X96661251Y-54992106D02*
X96708870Y-54944486D01*
X96708870Y-54944486D02*
X96708870Y-55039725D01*
X97756488Y-54944486D02*
X97708869Y-54992106D01*
X97708869Y-54992106D02*
X97566012Y-55039725D01*
X97566012Y-55039725D02*
X97470774Y-55039725D01*
X97470774Y-55039725D02*
X97327917Y-54992106D01*
X97327917Y-54992106D02*
X97232679Y-54896867D01*
X97232679Y-54896867D02*
X97185060Y-54801629D01*
X97185060Y-54801629D02*
X97137441Y-54611153D01*
X97137441Y-54611153D02*
X97137441Y-54468296D01*
X97137441Y-54468296D02*
X97185060Y-54277820D01*
X97185060Y-54277820D02*
X97232679Y-54182582D01*
X97232679Y-54182582D02*
X97327917Y-54087344D01*
X97327917Y-54087344D02*
X97470774Y-54039725D01*
X97470774Y-54039725D02*
X97566012Y-54039725D01*
X97566012Y-54039725D02*
X97708869Y-54087344D01*
X97708869Y-54087344D02*
X97756488Y-54134963D01*
X98613631Y-54373058D02*
X98613631Y-55039725D01*
X98185060Y-54373058D02*
X98185060Y-54896867D01*
X98185060Y-54896867D02*
X98232679Y-54992106D01*
X98232679Y-54992106D02*
X98327917Y-55039725D01*
X98327917Y-55039725D02*
X98470774Y-55039725D01*
X98470774Y-55039725D02*
X98566012Y-54992106D01*
X98566012Y-54992106D02*
X98613631Y-54944486D01*
X101375537Y-54373058D02*
X102137442Y-54658772D01*
X102137442Y-54658772D02*
X101375537Y-54944486D01*
X103327918Y-54992106D02*
X103470775Y-55039725D01*
X103470775Y-55039725D02*
X103708870Y-55039725D01*
X103708870Y-55039725D02*
X103804108Y-54992106D01*
X103804108Y-54992106D02*
X103851727Y-54944486D01*
X103851727Y-54944486D02*
X103899346Y-54849248D01*
X103899346Y-54849248D02*
X103899346Y-54754010D01*
X103899346Y-54754010D02*
X103851727Y-54658772D01*
X103851727Y-54658772D02*
X103804108Y-54611153D01*
X103804108Y-54611153D02*
X103708870Y-54563534D01*
X103708870Y-54563534D02*
X103518394Y-54515915D01*
X103518394Y-54515915D02*
X103423156Y-54468296D01*
X103423156Y-54468296D02*
X103375537Y-54420677D01*
X103375537Y-54420677D02*
X103327918Y-54325439D01*
X103327918Y-54325439D02*
X103327918Y-54230201D01*
X103327918Y-54230201D02*
X103375537Y-54134963D01*
X103375537Y-54134963D02*
X103423156Y-54087344D01*
X103423156Y-54087344D02*
X103518394Y-54039725D01*
X103518394Y-54039725D02*
X103756489Y-54039725D01*
X103756489Y-54039725D02*
X103899346Y-54087344D01*
X104327918Y-55039725D02*
X104327918Y-54039725D01*
X105327917Y-54087344D02*
X105232679Y-54039725D01*
X105232679Y-54039725D02*
X105089822Y-54039725D01*
X105089822Y-54039725D02*
X104946965Y-54087344D01*
X104946965Y-54087344D02*
X104851727Y-54182582D01*
X104851727Y-54182582D02*
X104804108Y-54277820D01*
X104804108Y-54277820D02*
X104756489Y-54468296D01*
X104756489Y-54468296D02*
X104756489Y-54611153D01*
X104756489Y-54611153D02*
X104804108Y-54801629D01*
X104804108Y-54801629D02*
X104851727Y-54896867D01*
X104851727Y-54896867D02*
X104946965Y-54992106D01*
X104946965Y-54992106D02*
X105089822Y-55039725D01*
X105089822Y-55039725D02*
X105185060Y-55039725D01*
X105185060Y-55039725D02*
X105327917Y-54992106D01*
X105327917Y-54992106D02*
X105375536Y-54944486D01*
X105375536Y-54944486D02*
X105375536Y-54611153D01*
X105375536Y-54611153D02*
X105185060Y-54611153D01*
X93613632Y-55744907D02*
X93661251Y-55697288D01*
X93661251Y-55697288D02*
X93756489Y-55649669D01*
X93756489Y-55649669D02*
X93994584Y-55649669D01*
X93994584Y-55649669D02*
X94089822Y-55697288D01*
X94089822Y-55697288D02*
X94137441Y-55744907D01*
X94137441Y-55744907D02*
X94185060Y-55840145D01*
X94185060Y-55840145D02*
X94185060Y-55935383D01*
X94185060Y-55935383D02*
X94137441Y-56078240D01*
X94137441Y-56078240D02*
X93566013Y-56649669D01*
X93566013Y-56649669D02*
X94185060Y-56649669D01*
X94613632Y-56554430D02*
X94661251Y-56602050D01*
X94661251Y-56602050D02*
X94613632Y-56649669D01*
X94613632Y-56649669D02*
X94566013Y-56602050D01*
X94566013Y-56602050D02*
X94613632Y-56554430D01*
X94613632Y-56554430D02*
X94613632Y-56649669D01*
X95851727Y-56649669D02*
X95851727Y-55649669D01*
X96327917Y-55983002D02*
X96327917Y-56649669D01*
X96327917Y-56078240D02*
X96375536Y-56030621D01*
X96375536Y-56030621D02*
X96470774Y-55983002D01*
X96470774Y-55983002D02*
X96613631Y-55983002D01*
X96613631Y-55983002D02*
X96708869Y-56030621D01*
X96708869Y-56030621D02*
X96756488Y-56125859D01*
X96756488Y-56125859D02*
X96756488Y-56649669D01*
X97756488Y-56649669D02*
X97185060Y-56649669D01*
X97470774Y-56649669D02*
X97470774Y-55649669D01*
X97470774Y-55649669D02*
X97375536Y-55792526D01*
X97375536Y-55792526D02*
X97280298Y-55887764D01*
X97280298Y-55887764D02*
X97185060Y-55935383D01*
X98185060Y-56554430D02*
X98232679Y-56602050D01*
X98232679Y-56602050D02*
X98185060Y-56649669D01*
X98185060Y-56649669D02*
X98137441Y-56602050D01*
X98137441Y-56602050D02*
X98185060Y-56554430D01*
X98185060Y-56554430D02*
X98185060Y-56649669D01*
X99232678Y-56554430D02*
X99185059Y-56602050D01*
X99185059Y-56602050D02*
X99042202Y-56649669D01*
X99042202Y-56649669D02*
X98946964Y-56649669D01*
X98946964Y-56649669D02*
X98804107Y-56602050D01*
X98804107Y-56602050D02*
X98708869Y-56506811D01*
X98708869Y-56506811D02*
X98661250Y-56411573D01*
X98661250Y-56411573D02*
X98613631Y-56221097D01*
X98613631Y-56221097D02*
X98613631Y-56078240D01*
X98613631Y-56078240D02*
X98661250Y-55887764D01*
X98661250Y-55887764D02*
X98708869Y-55792526D01*
X98708869Y-55792526D02*
X98804107Y-55697288D01*
X98804107Y-55697288D02*
X98946964Y-55649669D01*
X98946964Y-55649669D02*
X99042202Y-55649669D01*
X99042202Y-55649669D02*
X99185059Y-55697288D01*
X99185059Y-55697288D02*
X99232678Y-55744907D01*
X100089821Y-55983002D02*
X100089821Y-56649669D01*
X99661250Y-55983002D02*
X99661250Y-56506811D01*
X99661250Y-56506811D02*
X99708869Y-56602050D01*
X99708869Y-56602050D02*
X99804107Y-56649669D01*
X99804107Y-56649669D02*
X99946964Y-56649669D01*
X99946964Y-56649669D02*
X100042202Y-56602050D01*
X100042202Y-56602050D02*
X100089821Y-56554430D01*
X101327917Y-55983002D02*
X102089822Y-56268716D01*
X102089822Y-56268716D02*
X101327917Y-56554430D01*
X103851726Y-55697288D02*
X103756488Y-55649669D01*
X103756488Y-55649669D02*
X103613631Y-55649669D01*
X103613631Y-55649669D02*
X103470774Y-55697288D01*
X103470774Y-55697288D02*
X103375536Y-55792526D01*
X103375536Y-55792526D02*
X103327917Y-55887764D01*
X103327917Y-55887764D02*
X103280298Y-56078240D01*
X103280298Y-56078240D02*
X103280298Y-56221097D01*
X103280298Y-56221097D02*
X103327917Y-56411573D01*
X103327917Y-56411573D02*
X103375536Y-56506811D01*
X103375536Y-56506811D02*
X103470774Y-56602050D01*
X103470774Y-56602050D02*
X103613631Y-56649669D01*
X103613631Y-56649669D02*
X103708869Y-56649669D01*
X103708869Y-56649669D02*
X103851726Y-56602050D01*
X103851726Y-56602050D02*
X103899345Y-56554430D01*
X103899345Y-56554430D02*
X103899345Y-56221097D01*
X103899345Y-56221097D02*
X103708869Y-56221097D01*
X104327917Y-56649669D02*
X104327917Y-55649669D01*
X104327917Y-55649669D02*
X104899345Y-56649669D01*
X104899345Y-56649669D02*
X104899345Y-55649669D01*
X105375536Y-56649669D02*
X105375536Y-55649669D01*
X105375536Y-55649669D02*
X105613631Y-55649669D01*
X105613631Y-55649669D02*
X105756488Y-55697288D01*
X105756488Y-55697288D02*
X105851726Y-55792526D01*
X105851726Y-55792526D02*
X105899345Y-55887764D01*
X105899345Y-55887764D02*
X105946964Y-56078240D01*
X105946964Y-56078240D02*
X105946964Y-56221097D01*
X105946964Y-56221097D02*
X105899345Y-56411573D01*
X105899345Y-56411573D02*
X105851726Y-56506811D01*
X105851726Y-56506811D02*
X105756488Y-56602050D01*
X105756488Y-56602050D02*
X105613631Y-56649669D01*
X105613631Y-56649669D02*
X105375536Y-56649669D01*
X93566013Y-57259613D02*
X94185060Y-57259613D01*
X94185060Y-57259613D02*
X93851727Y-57640565D01*
X93851727Y-57640565D02*
X93994584Y-57640565D01*
X93994584Y-57640565D02*
X94089822Y-57688184D01*
X94089822Y-57688184D02*
X94137441Y-57735803D01*
X94137441Y-57735803D02*
X94185060Y-57831041D01*
X94185060Y-57831041D02*
X94185060Y-58069136D01*
X94185060Y-58069136D02*
X94137441Y-58164374D01*
X94137441Y-58164374D02*
X94089822Y-58211994D01*
X94089822Y-58211994D02*
X93994584Y-58259613D01*
X93994584Y-58259613D02*
X93708870Y-58259613D01*
X93708870Y-58259613D02*
X93613632Y-58211994D01*
X93613632Y-58211994D02*
X93566013Y-58164374D01*
X94613632Y-58164374D02*
X94661251Y-58211994D01*
X94661251Y-58211994D02*
X94613632Y-58259613D01*
X94613632Y-58259613D02*
X94566013Y-58211994D01*
X94566013Y-58211994D02*
X94613632Y-58164374D01*
X94613632Y-58164374D02*
X94613632Y-58259613D01*
X95851727Y-58259613D02*
X95851727Y-57259613D01*
X96327917Y-57592946D02*
X96327917Y-58259613D01*
X96327917Y-57688184D02*
X96375536Y-57640565D01*
X96375536Y-57640565D02*
X96470774Y-57592946D01*
X96470774Y-57592946D02*
X96613631Y-57592946D01*
X96613631Y-57592946D02*
X96708869Y-57640565D01*
X96708869Y-57640565D02*
X96756488Y-57735803D01*
X96756488Y-57735803D02*
X96756488Y-58259613D01*
X97185060Y-57354851D02*
X97232679Y-57307232D01*
X97232679Y-57307232D02*
X97327917Y-57259613D01*
X97327917Y-57259613D02*
X97566012Y-57259613D01*
X97566012Y-57259613D02*
X97661250Y-57307232D01*
X97661250Y-57307232D02*
X97708869Y-57354851D01*
X97708869Y-57354851D02*
X97756488Y-57450089D01*
X97756488Y-57450089D02*
X97756488Y-57545327D01*
X97756488Y-57545327D02*
X97708869Y-57688184D01*
X97708869Y-57688184D02*
X97137441Y-58259613D01*
X97137441Y-58259613D02*
X97756488Y-58259613D01*
X98185060Y-58164374D02*
X98232679Y-58211994D01*
X98232679Y-58211994D02*
X98185060Y-58259613D01*
X98185060Y-58259613D02*
X98137441Y-58211994D01*
X98137441Y-58211994D02*
X98185060Y-58164374D01*
X98185060Y-58164374D02*
X98185060Y-58259613D01*
X99232678Y-58164374D02*
X99185059Y-58211994D01*
X99185059Y-58211994D02*
X99042202Y-58259613D01*
X99042202Y-58259613D02*
X98946964Y-58259613D01*
X98946964Y-58259613D02*
X98804107Y-58211994D01*
X98804107Y-58211994D02*
X98708869Y-58116755D01*
X98708869Y-58116755D02*
X98661250Y-58021517D01*
X98661250Y-58021517D02*
X98613631Y-57831041D01*
X98613631Y-57831041D02*
X98613631Y-57688184D01*
X98613631Y-57688184D02*
X98661250Y-57497708D01*
X98661250Y-57497708D02*
X98708869Y-57402470D01*
X98708869Y-57402470D02*
X98804107Y-57307232D01*
X98804107Y-57307232D02*
X98946964Y-57259613D01*
X98946964Y-57259613D02*
X99042202Y-57259613D01*
X99042202Y-57259613D02*
X99185059Y-57307232D01*
X99185059Y-57307232D02*
X99232678Y-57354851D01*
X100089821Y-57592946D02*
X100089821Y-58259613D01*
X99661250Y-57592946D02*
X99661250Y-58116755D01*
X99661250Y-58116755D02*
X99708869Y-58211994D01*
X99708869Y-58211994D02*
X99804107Y-58259613D01*
X99804107Y-58259613D02*
X99946964Y-58259613D01*
X99946964Y-58259613D02*
X100042202Y-58211994D01*
X100042202Y-58211994D02*
X100089821Y-58164374D01*
X101327917Y-57592946D02*
X102089822Y-57878660D01*
X102089822Y-57878660D02*
X101327917Y-58164374D01*
X103280298Y-58211994D02*
X103423155Y-58259613D01*
X103423155Y-58259613D02*
X103661250Y-58259613D01*
X103661250Y-58259613D02*
X103756488Y-58211994D01*
X103756488Y-58211994D02*
X103804107Y-58164374D01*
X103804107Y-58164374D02*
X103851726Y-58069136D01*
X103851726Y-58069136D02*
X103851726Y-57973898D01*
X103851726Y-57973898D02*
X103804107Y-57878660D01*
X103804107Y-57878660D02*
X103756488Y-57831041D01*
X103756488Y-57831041D02*
X103661250Y-57783422D01*
X103661250Y-57783422D02*
X103470774Y-57735803D01*
X103470774Y-57735803D02*
X103375536Y-57688184D01*
X103375536Y-57688184D02*
X103327917Y-57640565D01*
X103327917Y-57640565D02*
X103280298Y-57545327D01*
X103280298Y-57545327D02*
X103280298Y-57450089D01*
X103280298Y-57450089D02*
X103327917Y-57354851D01*
X103327917Y-57354851D02*
X103375536Y-57307232D01*
X103375536Y-57307232D02*
X103470774Y-57259613D01*
X103470774Y-57259613D02*
X103708869Y-57259613D01*
X103708869Y-57259613D02*
X103851726Y-57307232D01*
X104280298Y-58259613D02*
X104280298Y-57259613D01*
X105280297Y-57307232D02*
X105185059Y-57259613D01*
X105185059Y-57259613D02*
X105042202Y-57259613D01*
X105042202Y-57259613D02*
X104899345Y-57307232D01*
X104899345Y-57307232D02*
X104804107Y-57402470D01*
X104804107Y-57402470D02*
X104756488Y-57497708D01*
X104756488Y-57497708D02*
X104708869Y-57688184D01*
X104708869Y-57688184D02*
X104708869Y-57831041D01*
X104708869Y-57831041D02*
X104756488Y-58021517D01*
X104756488Y-58021517D02*
X104804107Y-58116755D01*
X104804107Y-58116755D02*
X104899345Y-58211994D01*
X104899345Y-58211994D02*
X105042202Y-58259613D01*
X105042202Y-58259613D02*
X105137440Y-58259613D01*
X105137440Y-58259613D02*
X105280297Y-58211994D01*
X105280297Y-58211994D02*
X105327916Y-58164374D01*
X105327916Y-58164374D02*
X105327916Y-57831041D01*
X105327916Y-57831041D02*
X105137440Y-57831041D01*
X94089822Y-59202890D02*
X94089822Y-59869557D01*
X93851727Y-58821938D02*
X93613632Y-59536223D01*
X93613632Y-59536223D02*
X94232679Y-59536223D01*
X94613632Y-59774318D02*
X94661251Y-59821938D01*
X94661251Y-59821938D02*
X94613632Y-59869557D01*
X94613632Y-59869557D02*
X94566013Y-59821938D01*
X94566013Y-59821938D02*
X94613632Y-59774318D01*
X94613632Y-59774318D02*
X94613632Y-59869557D01*
X95851727Y-59869557D02*
X95851727Y-58869557D01*
X96327917Y-59202890D02*
X96327917Y-59869557D01*
X96327917Y-59298128D02*
X96375536Y-59250509D01*
X96375536Y-59250509D02*
X96470774Y-59202890D01*
X96470774Y-59202890D02*
X96613631Y-59202890D01*
X96613631Y-59202890D02*
X96708869Y-59250509D01*
X96708869Y-59250509D02*
X96756488Y-59345747D01*
X96756488Y-59345747D02*
X96756488Y-59869557D01*
X97137441Y-58869557D02*
X97756488Y-58869557D01*
X97756488Y-58869557D02*
X97423155Y-59250509D01*
X97423155Y-59250509D02*
X97566012Y-59250509D01*
X97566012Y-59250509D02*
X97661250Y-59298128D01*
X97661250Y-59298128D02*
X97708869Y-59345747D01*
X97708869Y-59345747D02*
X97756488Y-59440985D01*
X97756488Y-59440985D02*
X97756488Y-59679080D01*
X97756488Y-59679080D02*
X97708869Y-59774318D01*
X97708869Y-59774318D02*
X97661250Y-59821938D01*
X97661250Y-59821938D02*
X97566012Y-59869557D01*
X97566012Y-59869557D02*
X97280298Y-59869557D01*
X97280298Y-59869557D02*
X97185060Y-59821938D01*
X97185060Y-59821938D02*
X97137441Y-59774318D01*
X98185060Y-59774318D02*
X98232679Y-59821938D01*
X98232679Y-59821938D02*
X98185060Y-59869557D01*
X98185060Y-59869557D02*
X98137441Y-59821938D01*
X98137441Y-59821938D02*
X98185060Y-59774318D01*
X98185060Y-59774318D02*
X98185060Y-59869557D01*
X99232678Y-59774318D02*
X99185059Y-59821938D01*
X99185059Y-59821938D02*
X99042202Y-59869557D01*
X99042202Y-59869557D02*
X98946964Y-59869557D01*
X98946964Y-59869557D02*
X98804107Y-59821938D01*
X98804107Y-59821938D02*
X98708869Y-59726699D01*
X98708869Y-59726699D02*
X98661250Y-59631461D01*
X98661250Y-59631461D02*
X98613631Y-59440985D01*
X98613631Y-59440985D02*
X98613631Y-59298128D01*
X98613631Y-59298128D02*
X98661250Y-59107652D01*
X98661250Y-59107652D02*
X98708869Y-59012414D01*
X98708869Y-59012414D02*
X98804107Y-58917176D01*
X98804107Y-58917176D02*
X98946964Y-58869557D01*
X98946964Y-58869557D02*
X99042202Y-58869557D01*
X99042202Y-58869557D02*
X99185059Y-58917176D01*
X99185059Y-58917176D02*
X99232678Y-58964795D01*
X100089821Y-59202890D02*
X100089821Y-59869557D01*
X99661250Y-59202890D02*
X99661250Y-59726699D01*
X99661250Y-59726699D02*
X99708869Y-59821938D01*
X99708869Y-59821938D02*
X99804107Y-59869557D01*
X99804107Y-59869557D02*
X99946964Y-59869557D01*
X99946964Y-59869557D02*
X100042202Y-59821938D01*
X100042202Y-59821938D02*
X100089821Y-59774318D01*
X101327917Y-59202890D02*
X102089822Y-59488604D01*
X102089822Y-59488604D02*
X101327917Y-59774318D01*
X103327917Y-59869557D02*
X103327917Y-58869557D01*
X103327917Y-58869557D02*
X103708869Y-58869557D01*
X103708869Y-58869557D02*
X103804107Y-58917176D01*
X103804107Y-58917176D02*
X103851726Y-58964795D01*
X103851726Y-58964795D02*
X103899345Y-59060033D01*
X103899345Y-59060033D02*
X103899345Y-59202890D01*
X103899345Y-59202890D02*
X103851726Y-59298128D01*
X103851726Y-59298128D02*
X103804107Y-59345747D01*
X103804107Y-59345747D02*
X103708869Y-59393366D01*
X103708869Y-59393366D02*
X103327917Y-59393366D01*
X104232679Y-58869557D02*
X104470774Y-59869557D01*
X104470774Y-59869557D02*
X104661250Y-59155271D01*
X104661250Y-59155271D02*
X104851726Y-59869557D01*
X104851726Y-59869557D02*
X105089822Y-58869557D01*
X106042202Y-59869557D02*
X105708869Y-59393366D01*
X105470774Y-59869557D02*
X105470774Y-58869557D01*
X105470774Y-58869557D02*
X105851726Y-58869557D01*
X105851726Y-58869557D02*
X105946964Y-58917176D01*
X105946964Y-58917176D02*
X105994583Y-58964795D01*
X105994583Y-58964795D02*
X106042202Y-59060033D01*
X106042202Y-59060033D02*
X106042202Y-59202890D01*
X106042202Y-59202890D02*
X105994583Y-59298128D01*
X105994583Y-59298128D02*
X105946964Y-59345747D01*
X105946964Y-59345747D02*
X105851726Y-59393366D01*
X105851726Y-59393366D02*
X105470774Y-59393366D01*
X94137441Y-60479501D02*
X93661251Y-60479501D01*
X93661251Y-60479501D02*
X93613632Y-60955691D01*
X93613632Y-60955691D02*
X93661251Y-60908072D01*
X93661251Y-60908072D02*
X93756489Y-60860453D01*
X93756489Y-60860453D02*
X93994584Y-60860453D01*
X93994584Y-60860453D02*
X94089822Y-60908072D01*
X94089822Y-60908072D02*
X94137441Y-60955691D01*
X94137441Y-60955691D02*
X94185060Y-61050929D01*
X94185060Y-61050929D02*
X94185060Y-61289024D01*
X94185060Y-61289024D02*
X94137441Y-61384262D01*
X94137441Y-61384262D02*
X94089822Y-61431882D01*
X94089822Y-61431882D02*
X93994584Y-61479501D01*
X93994584Y-61479501D02*
X93756489Y-61479501D01*
X93756489Y-61479501D02*
X93661251Y-61431882D01*
X93661251Y-61431882D02*
X93613632Y-61384262D01*
X94613632Y-61384262D02*
X94661251Y-61431882D01*
X94661251Y-61431882D02*
X94613632Y-61479501D01*
X94613632Y-61479501D02*
X94566013Y-61431882D01*
X94566013Y-61431882D02*
X94613632Y-61384262D01*
X94613632Y-61384262D02*
X94613632Y-61479501D01*
X95851727Y-61479501D02*
X95851727Y-60479501D01*
X96327917Y-60812834D02*
X96327917Y-61479501D01*
X96327917Y-60908072D02*
X96375536Y-60860453D01*
X96375536Y-60860453D02*
X96470774Y-60812834D01*
X96470774Y-60812834D02*
X96613631Y-60812834D01*
X96613631Y-60812834D02*
X96708869Y-60860453D01*
X96708869Y-60860453D02*
X96756488Y-60955691D01*
X96756488Y-60955691D02*
X96756488Y-61479501D01*
X97661250Y-60812834D02*
X97661250Y-61479501D01*
X97423155Y-60431882D02*
X97185060Y-61146167D01*
X97185060Y-61146167D02*
X97804107Y-61146167D01*
X98185060Y-61384262D02*
X98232679Y-61431882D01*
X98232679Y-61431882D02*
X98185060Y-61479501D01*
X98185060Y-61479501D02*
X98137441Y-61431882D01*
X98137441Y-61431882D02*
X98185060Y-61384262D01*
X98185060Y-61384262D02*
X98185060Y-61479501D01*
X99232678Y-61384262D02*
X99185059Y-61431882D01*
X99185059Y-61431882D02*
X99042202Y-61479501D01*
X99042202Y-61479501D02*
X98946964Y-61479501D01*
X98946964Y-61479501D02*
X98804107Y-61431882D01*
X98804107Y-61431882D02*
X98708869Y-61336643D01*
X98708869Y-61336643D02*
X98661250Y-61241405D01*
X98661250Y-61241405D02*
X98613631Y-61050929D01*
X98613631Y-61050929D02*
X98613631Y-60908072D01*
X98613631Y-60908072D02*
X98661250Y-60717596D01*
X98661250Y-60717596D02*
X98708869Y-60622358D01*
X98708869Y-60622358D02*
X98804107Y-60527120D01*
X98804107Y-60527120D02*
X98946964Y-60479501D01*
X98946964Y-60479501D02*
X99042202Y-60479501D01*
X99042202Y-60479501D02*
X99185059Y-60527120D01*
X99185059Y-60527120D02*
X99232678Y-60574739D01*
X100089821Y-60812834D02*
X100089821Y-61479501D01*
X99661250Y-60812834D02*
X99661250Y-61336643D01*
X99661250Y-61336643D02*
X99708869Y-61431882D01*
X99708869Y-61431882D02*
X99804107Y-61479501D01*
X99804107Y-61479501D02*
X99946964Y-61479501D01*
X99946964Y-61479501D02*
X100042202Y-61431882D01*
X100042202Y-61431882D02*
X100089821Y-61384262D01*
X101327917Y-60812834D02*
X102089822Y-61098548D01*
X102089822Y-61098548D02*
X101327917Y-61384262D01*
X103851726Y-60527120D02*
X103756488Y-60479501D01*
X103756488Y-60479501D02*
X103613631Y-60479501D01*
X103613631Y-60479501D02*
X103470774Y-60527120D01*
X103470774Y-60527120D02*
X103375536Y-60622358D01*
X103375536Y-60622358D02*
X103327917Y-60717596D01*
X103327917Y-60717596D02*
X103280298Y-60908072D01*
X103280298Y-60908072D02*
X103280298Y-61050929D01*
X103280298Y-61050929D02*
X103327917Y-61241405D01*
X103327917Y-61241405D02*
X103375536Y-61336643D01*
X103375536Y-61336643D02*
X103470774Y-61431882D01*
X103470774Y-61431882D02*
X103613631Y-61479501D01*
X103613631Y-61479501D02*
X103708869Y-61479501D01*
X103708869Y-61479501D02*
X103851726Y-61431882D01*
X103851726Y-61431882D02*
X103899345Y-61384262D01*
X103899345Y-61384262D02*
X103899345Y-61050929D01*
X103899345Y-61050929D02*
X103708869Y-61050929D01*
X104327917Y-61479501D02*
X104327917Y-60479501D01*
X104327917Y-60479501D02*
X104899345Y-61479501D01*
X104899345Y-61479501D02*
X104899345Y-60479501D01*
X105375536Y-61479501D02*
X105375536Y-60479501D01*
X105375536Y-60479501D02*
X105613631Y-60479501D01*
X105613631Y-60479501D02*
X105756488Y-60527120D01*
X105756488Y-60527120D02*
X105851726Y-60622358D01*
X105851726Y-60622358D02*
X105899345Y-60717596D01*
X105899345Y-60717596D02*
X105946964Y-60908072D01*
X105946964Y-60908072D02*
X105946964Y-61050929D01*
X105946964Y-61050929D02*
X105899345Y-61241405D01*
X105899345Y-61241405D02*
X105851726Y-61336643D01*
X105851726Y-61336643D02*
X105756488Y-61431882D01*
X105756488Y-61431882D02*
X105613631Y-61479501D01*
X105613631Y-61479501D02*
X105375536Y-61479501D01*
X94089822Y-62089445D02*
X93899346Y-62089445D01*
X93899346Y-62089445D02*
X93804108Y-62137064D01*
X93804108Y-62137064D02*
X93756489Y-62184683D01*
X93756489Y-62184683D02*
X93661251Y-62327540D01*
X93661251Y-62327540D02*
X93613632Y-62518016D01*
X93613632Y-62518016D02*
X93613632Y-62898968D01*
X93613632Y-62898968D02*
X93661251Y-62994206D01*
X93661251Y-62994206D02*
X93708870Y-63041826D01*
X93708870Y-63041826D02*
X93804108Y-63089445D01*
X93804108Y-63089445D02*
X93994584Y-63089445D01*
X93994584Y-63089445D02*
X94089822Y-63041826D01*
X94089822Y-63041826D02*
X94137441Y-62994206D01*
X94137441Y-62994206D02*
X94185060Y-62898968D01*
X94185060Y-62898968D02*
X94185060Y-62660873D01*
X94185060Y-62660873D02*
X94137441Y-62565635D01*
X94137441Y-62565635D02*
X94089822Y-62518016D01*
X94089822Y-62518016D02*
X93994584Y-62470397D01*
X93994584Y-62470397D02*
X93804108Y-62470397D01*
X93804108Y-62470397D02*
X93708870Y-62518016D01*
X93708870Y-62518016D02*
X93661251Y-62565635D01*
X93661251Y-62565635D02*
X93613632Y-62660873D01*
X94613632Y-62994206D02*
X94661251Y-63041826D01*
X94661251Y-63041826D02*
X94613632Y-63089445D01*
X94613632Y-63089445D02*
X94566013Y-63041826D01*
X94566013Y-63041826D02*
X94613632Y-62994206D01*
X94613632Y-62994206D02*
X94613632Y-63089445D01*
X96185060Y-62565635D02*
X96327917Y-62613254D01*
X96327917Y-62613254D02*
X96375536Y-62660873D01*
X96375536Y-62660873D02*
X96423155Y-62756111D01*
X96423155Y-62756111D02*
X96423155Y-62898968D01*
X96423155Y-62898968D02*
X96375536Y-62994206D01*
X96375536Y-62994206D02*
X96327917Y-63041826D01*
X96327917Y-63041826D02*
X96232679Y-63089445D01*
X96232679Y-63089445D02*
X95851727Y-63089445D01*
X95851727Y-63089445D02*
X95851727Y-62089445D01*
X95851727Y-62089445D02*
X96185060Y-62089445D01*
X96185060Y-62089445D02*
X96280298Y-62137064D01*
X96280298Y-62137064D02*
X96327917Y-62184683D01*
X96327917Y-62184683D02*
X96375536Y-62279921D01*
X96375536Y-62279921D02*
X96375536Y-62375159D01*
X96375536Y-62375159D02*
X96327917Y-62470397D01*
X96327917Y-62470397D02*
X96280298Y-62518016D01*
X96280298Y-62518016D02*
X96185060Y-62565635D01*
X96185060Y-62565635D02*
X95851727Y-62565635D01*
X96851727Y-62994206D02*
X96899346Y-63041826D01*
X96899346Y-63041826D02*
X96851727Y-63089445D01*
X96851727Y-63089445D02*
X96804108Y-63041826D01*
X96804108Y-63041826D02*
X96851727Y-62994206D01*
X96851727Y-62994206D02*
X96851727Y-63089445D01*
X97899345Y-62994206D02*
X97851726Y-63041826D01*
X97851726Y-63041826D02*
X97708869Y-63089445D01*
X97708869Y-63089445D02*
X97613631Y-63089445D01*
X97613631Y-63089445D02*
X97470774Y-63041826D01*
X97470774Y-63041826D02*
X97375536Y-62946587D01*
X97375536Y-62946587D02*
X97327917Y-62851349D01*
X97327917Y-62851349D02*
X97280298Y-62660873D01*
X97280298Y-62660873D02*
X97280298Y-62518016D01*
X97280298Y-62518016D02*
X97327917Y-62327540D01*
X97327917Y-62327540D02*
X97375536Y-62232302D01*
X97375536Y-62232302D02*
X97470774Y-62137064D01*
X97470774Y-62137064D02*
X97613631Y-62089445D01*
X97613631Y-62089445D02*
X97708869Y-62089445D01*
X97708869Y-62089445D02*
X97851726Y-62137064D01*
X97851726Y-62137064D02*
X97899345Y-62184683D01*
X98756488Y-62422778D02*
X98756488Y-63089445D01*
X98327917Y-62422778D02*
X98327917Y-62946587D01*
X98327917Y-62946587D02*
X98375536Y-63041826D01*
X98375536Y-63041826D02*
X98470774Y-63089445D01*
X98470774Y-63089445D02*
X98613631Y-63089445D01*
X98613631Y-63089445D02*
X98708869Y-63041826D01*
X98708869Y-63041826D02*
X98756488Y-62994206D01*
X101518394Y-62422778D02*
X102280299Y-62708492D01*
X102280299Y-62708492D02*
X101518394Y-62994206D01*
X103470775Y-63041826D02*
X103613632Y-63089445D01*
X103613632Y-63089445D02*
X103851727Y-63089445D01*
X103851727Y-63089445D02*
X103946965Y-63041826D01*
X103946965Y-63041826D02*
X103994584Y-62994206D01*
X103994584Y-62994206D02*
X104042203Y-62898968D01*
X104042203Y-62898968D02*
X104042203Y-62803730D01*
X104042203Y-62803730D02*
X103994584Y-62708492D01*
X103994584Y-62708492D02*
X103946965Y-62660873D01*
X103946965Y-62660873D02*
X103851727Y-62613254D01*
X103851727Y-62613254D02*
X103661251Y-62565635D01*
X103661251Y-62565635D02*
X103566013Y-62518016D01*
X103566013Y-62518016D02*
X103518394Y-62470397D01*
X103518394Y-62470397D02*
X103470775Y-62375159D01*
X103470775Y-62375159D02*
X103470775Y-62279921D01*
X103470775Y-62279921D02*
X103518394Y-62184683D01*
X103518394Y-62184683D02*
X103566013Y-62137064D01*
X103566013Y-62137064D02*
X103661251Y-62089445D01*
X103661251Y-62089445D02*
X103899346Y-62089445D01*
X103899346Y-62089445D02*
X104042203Y-62137064D01*
X104470775Y-63089445D02*
X104470775Y-62089445D01*
X105470774Y-62137064D02*
X105375536Y-62089445D01*
X105375536Y-62089445D02*
X105232679Y-62089445D01*
X105232679Y-62089445D02*
X105089822Y-62137064D01*
X105089822Y-62137064D02*
X104994584Y-62232302D01*
X104994584Y-62232302D02*
X104946965Y-62327540D01*
X104946965Y-62327540D02*
X104899346Y-62518016D01*
X104899346Y-62518016D02*
X104899346Y-62660873D01*
X104899346Y-62660873D02*
X104946965Y-62851349D01*
X104946965Y-62851349D02*
X104994584Y-62946587D01*
X104994584Y-62946587D02*
X105089822Y-63041826D01*
X105089822Y-63041826D02*
X105232679Y-63089445D01*
X105232679Y-63089445D02*
X105327917Y-63089445D01*
X105327917Y-63089445D02*
X105470774Y-63041826D01*
X105470774Y-63041826D02*
X105518393Y-62994206D01*
X105518393Y-62994206D02*
X105518393Y-62660873D01*
X105518393Y-62660873D02*
X105327917Y-62660873D01*
D11*
X92574472Y-50030018D02*
X110074472Y-50030018D01*
X110074472Y-67530018D01*
X92574472Y-67530018D01*
X92574472Y-50030018D01*
D10*
X44054819Y-115595237D02*
X44054819Y-116166665D01*
X44054819Y-115880951D02*
X43054819Y-115880951D01*
X43054819Y-115880951D02*
X43197676Y-115976189D01*
X43197676Y-115976189D02*
X43292914Y-116071427D01*
X43292914Y-116071427D02*
X43340533Y-116166665D01*
X43150057Y-115214284D02*
X43102438Y-115166665D01*
X43102438Y-115166665D02*
X43054819Y-115071427D01*
X43054819Y-115071427D02*
X43054819Y-114833332D01*
X43054819Y-114833332D02*
X43102438Y-114738094D01*
X43102438Y-114738094D02*
X43150057Y-114690475D01*
X43150057Y-114690475D02*
X43245295Y-114642856D01*
X43245295Y-114642856D02*
X43340533Y-114642856D01*
X43340533Y-114642856D02*
X43483390Y-114690475D01*
X43483390Y-114690475D02*
X44054819Y-115261903D01*
X44054819Y-115261903D02*
X44054819Y-114642856D01*
X43054819Y-113738094D02*
X43054819Y-114214284D01*
X43054819Y-114214284D02*
X43531009Y-114261903D01*
X43531009Y-114261903D02*
X43483390Y-114214284D01*
X43483390Y-114214284D02*
X43435771Y-114119046D01*
X43435771Y-114119046D02*
X43435771Y-113880951D01*
X43435771Y-113880951D02*
X43483390Y-113785713D01*
X43483390Y-113785713D02*
X43531009Y-113738094D01*
X43531009Y-113738094D02*
X43626247Y-113690475D01*
X43626247Y-113690475D02*
X43864342Y-113690475D01*
X43864342Y-113690475D02*
X43959580Y-113738094D01*
X43959580Y-113738094D02*
X44007200Y-113785713D01*
X44007200Y-113785713D02*
X44054819Y-113880951D01*
X44054819Y-113880951D02*
X44054819Y-114119046D01*
X44054819Y-114119046D02*
X44007200Y-114214284D01*
X44007200Y-114214284D02*
X43959580Y-114261903D01*
X43959580Y-113261903D02*
X44007200Y-113214284D01*
X44007200Y-113214284D02*
X44054819Y-113261903D01*
X44054819Y-113261903D02*
X44007200Y-113309522D01*
X44007200Y-113309522D02*
X43959580Y-113261903D01*
X43959580Y-113261903D02*
X44054819Y-113261903D01*
X43054819Y-112595237D02*
X43054819Y-112499999D01*
X43054819Y-112499999D02*
X43102438Y-112404761D01*
X43102438Y-112404761D02*
X43150057Y-112357142D01*
X43150057Y-112357142D02*
X43245295Y-112309523D01*
X43245295Y-112309523D02*
X43435771Y-112261904D01*
X43435771Y-112261904D02*
X43673866Y-112261904D01*
X43673866Y-112261904D02*
X43864342Y-112309523D01*
X43864342Y-112309523D02*
X43959580Y-112357142D01*
X43959580Y-112357142D02*
X44007200Y-112404761D01*
X44007200Y-112404761D02*
X44054819Y-112499999D01*
X44054819Y-112499999D02*
X44054819Y-112595237D01*
X44054819Y-112595237D02*
X44007200Y-112690475D01*
X44007200Y-112690475D02*
X43959580Y-112738094D01*
X43959580Y-112738094D02*
X43864342Y-112785713D01*
X43864342Y-112785713D02*
X43673866Y-112833332D01*
X43673866Y-112833332D02*
X43435771Y-112833332D01*
X43435771Y-112833332D02*
X43245295Y-112785713D01*
X43245295Y-112785713D02*
X43150057Y-112738094D01*
X43150057Y-112738094D02*
X43102438Y-112690475D01*
X43102438Y-112690475D02*
X43054819Y-112595237D01*
X44054819Y-111071427D02*
X43388152Y-111071427D01*
X43483390Y-111071427D02*
X43435771Y-111023808D01*
X43435771Y-111023808D02*
X43388152Y-110928570D01*
X43388152Y-110928570D02*
X43388152Y-110785713D01*
X43388152Y-110785713D02*
X43435771Y-110690475D01*
X43435771Y-110690475D02*
X43531009Y-110642856D01*
X43531009Y-110642856D02*
X44054819Y-110642856D01*
X43531009Y-110642856D02*
X43435771Y-110595237D01*
X43435771Y-110595237D02*
X43388152Y-110499999D01*
X43388152Y-110499999D02*
X43388152Y-110357142D01*
X43388152Y-110357142D02*
X43435771Y-110261903D01*
X43435771Y-110261903D02*
X43531009Y-110214284D01*
X43531009Y-110214284D02*
X44054819Y-110214284D01*
X44054819Y-109738094D02*
X43388152Y-109738094D01*
X43483390Y-109738094D02*
X43435771Y-109690475D01*
X43435771Y-109690475D02*
X43388152Y-109595237D01*
X43388152Y-109595237D02*
X43388152Y-109452380D01*
X43388152Y-109452380D02*
X43435771Y-109357142D01*
X43435771Y-109357142D02*
X43531009Y-109309523D01*
X43531009Y-109309523D02*
X44054819Y-109309523D01*
X43531009Y-109309523D02*
X43435771Y-109261904D01*
X43435771Y-109261904D02*
X43388152Y-109166666D01*
X43388152Y-109166666D02*
X43388152Y-109023809D01*
X43388152Y-109023809D02*
X43435771Y-108928570D01*
X43435771Y-108928570D02*
X43531009Y-108880951D01*
X43531009Y-108880951D02*
X44054819Y-108880951D01*
X55000000Y-50000000D02*
X44163580Y-50000000D01*
X55000000Y-175000000D02*
X44163580Y-175000000D01*
X44750000Y-50000000D02*
X44750000Y-175000000D01*
X44750000Y-50000000D02*
X44750000Y-175000000D01*
X44750000Y-50000000D02*
X45336421Y-51126504D01*
X44750000Y-50000000D02*
X44163579Y-51126504D01*
X44750000Y-175000000D02*
X44163579Y-173873496D01*
X44750000Y-175000000D02*
X45336421Y-173873496D01*
X67285714Y-43288152D02*
X67285714Y-43954819D01*
X67047619Y-42907200D02*
X66809524Y-43621485D01*
X66809524Y-43621485D02*
X67428571Y-43621485D01*
X68000000Y-42954819D02*
X68095238Y-42954819D01*
X68095238Y-42954819D02*
X68190476Y-43002438D01*
X68190476Y-43002438D02*
X68238095Y-43050057D01*
X68238095Y-43050057D02*
X68285714Y-43145295D01*
X68285714Y-43145295D02*
X68333333Y-43335771D01*
X68333333Y-43335771D02*
X68333333Y-43573866D01*
X68333333Y-43573866D02*
X68285714Y-43764342D01*
X68285714Y-43764342D02*
X68238095Y-43859580D01*
X68238095Y-43859580D02*
X68190476Y-43907200D01*
X68190476Y-43907200D02*
X68095238Y-43954819D01*
X68095238Y-43954819D02*
X68000000Y-43954819D01*
X68000000Y-43954819D02*
X67904762Y-43907200D01*
X67904762Y-43907200D02*
X67857143Y-43859580D01*
X67857143Y-43859580D02*
X67809524Y-43764342D01*
X67809524Y-43764342D02*
X67761905Y-43573866D01*
X67761905Y-43573866D02*
X67761905Y-43335771D01*
X67761905Y-43335771D02*
X67809524Y-43145295D01*
X67809524Y-43145295D02*
X67857143Y-43050057D01*
X67857143Y-43050057D02*
X67904762Y-43002438D01*
X67904762Y-43002438D02*
X68000000Y-42954819D01*
X68761905Y-43859580D02*
X68809524Y-43907200D01*
X68809524Y-43907200D02*
X68761905Y-43954819D01*
X68761905Y-43954819D02*
X68714286Y-43907200D01*
X68714286Y-43907200D02*
X68761905Y-43859580D01*
X68761905Y-43859580D02*
X68761905Y-43954819D01*
X69428571Y-42954819D02*
X69523809Y-42954819D01*
X69523809Y-42954819D02*
X69619047Y-43002438D01*
X69619047Y-43002438D02*
X69666666Y-43050057D01*
X69666666Y-43050057D02*
X69714285Y-43145295D01*
X69714285Y-43145295D02*
X69761904Y-43335771D01*
X69761904Y-43335771D02*
X69761904Y-43573866D01*
X69761904Y-43573866D02*
X69714285Y-43764342D01*
X69714285Y-43764342D02*
X69666666Y-43859580D01*
X69666666Y-43859580D02*
X69619047Y-43907200D01*
X69619047Y-43907200D02*
X69523809Y-43954819D01*
X69523809Y-43954819D02*
X69428571Y-43954819D01*
X69428571Y-43954819D02*
X69333333Y-43907200D01*
X69333333Y-43907200D02*
X69285714Y-43859580D01*
X69285714Y-43859580D02*
X69238095Y-43764342D01*
X69238095Y-43764342D02*
X69190476Y-43573866D01*
X69190476Y-43573866D02*
X69190476Y-43335771D01*
X69190476Y-43335771D02*
X69238095Y-43145295D01*
X69238095Y-43145295D02*
X69285714Y-43050057D01*
X69285714Y-43050057D02*
X69333333Y-43002438D01*
X69333333Y-43002438D02*
X69428571Y-42954819D01*
X70952381Y-43954819D02*
X70952381Y-43288152D01*
X70952381Y-43383390D02*
X71000000Y-43335771D01*
X71000000Y-43335771D02*
X71095238Y-43288152D01*
X71095238Y-43288152D02*
X71238095Y-43288152D01*
X71238095Y-43288152D02*
X71333333Y-43335771D01*
X71333333Y-43335771D02*
X71380952Y-43431009D01*
X71380952Y-43431009D02*
X71380952Y-43954819D01*
X71380952Y-43431009D02*
X71428571Y-43335771D01*
X71428571Y-43335771D02*
X71523809Y-43288152D01*
X71523809Y-43288152D02*
X71666666Y-43288152D01*
X71666666Y-43288152D02*
X71761905Y-43335771D01*
X71761905Y-43335771D02*
X71809524Y-43431009D01*
X71809524Y-43431009D02*
X71809524Y-43954819D01*
X72285714Y-43954819D02*
X72285714Y-43288152D01*
X72285714Y-43383390D02*
X72333333Y-43335771D01*
X72333333Y-43335771D02*
X72428571Y-43288152D01*
X72428571Y-43288152D02*
X72571428Y-43288152D01*
X72571428Y-43288152D02*
X72666666Y-43335771D01*
X72666666Y-43335771D02*
X72714285Y-43431009D01*
X72714285Y-43431009D02*
X72714285Y-43954819D01*
X72714285Y-43431009D02*
X72761904Y-43335771D01*
X72761904Y-43335771D02*
X72857142Y-43288152D01*
X72857142Y-43288152D02*
X72999999Y-43288152D01*
X72999999Y-43288152D02*
X73095238Y-43335771D01*
X73095238Y-43335771D02*
X73142857Y-43431009D01*
X73142857Y-43431009D02*
X73142857Y-43954819D01*
X50000000Y-54534321D02*
X50000000Y-43663580D01*
X90000000Y-54534321D02*
X90000000Y-43663580D01*
X50000000Y-44250000D02*
X90000000Y-44250000D01*
X50000000Y-44250000D02*
X90000000Y-44250000D01*
X50000000Y-44250000D02*
X51126504Y-43663579D01*
X50000000Y-44250000D02*
X51126504Y-44836421D01*
X90000000Y-44250000D02*
X88873496Y-44836421D01*
X90000000Y-44250000D02*
X88873496Y-43663579D01*
D12*
X87651927Y-87066969D02*
X87251927Y-87066969D01*
X87651927Y-86838398D02*
X87423356Y-87009827D01*
X87251927Y-86838398D02*
X87480499Y-87066969D01*
X87442403Y-86666969D02*
X87442403Y-86533636D01*
X87651927Y-86476493D02*
X87651927Y-86666969D01*
X87651927Y-86666969D02*
X87251927Y-86666969D01*
X87251927Y-86666969D02*
X87251927Y-86476493D01*
X87442403Y-86305064D02*
X87442403Y-86171731D01*
X87651927Y-86114588D02*
X87651927Y-86305064D01*
X87651927Y-86305064D02*
X87251927Y-86305064D01*
X87251927Y-86305064D02*
X87251927Y-86114588D01*
X87651927Y-85943159D02*
X87251927Y-85943159D01*
X87251927Y-85943159D02*
X87251927Y-85790778D01*
X87251927Y-85790778D02*
X87270975Y-85752683D01*
X87270975Y-85752683D02*
X87290022Y-85733636D01*
X87290022Y-85733636D02*
X87328118Y-85714588D01*
X87328118Y-85714588D02*
X87385260Y-85714588D01*
X87385260Y-85714588D02*
X87423356Y-85733636D01*
X87423356Y-85733636D02*
X87442403Y-85752683D01*
X87442403Y-85752683D02*
X87461451Y-85790778D01*
X87461451Y-85790778D02*
X87461451Y-85943159D01*
X87251927Y-85466969D02*
X87251927Y-85390778D01*
X87251927Y-85390778D02*
X87270975Y-85352683D01*
X87270975Y-85352683D02*
X87309070Y-85314588D01*
X87309070Y-85314588D02*
X87385260Y-85295540D01*
X87385260Y-85295540D02*
X87518594Y-85295540D01*
X87518594Y-85295540D02*
X87594784Y-85314588D01*
X87594784Y-85314588D02*
X87632880Y-85352683D01*
X87632880Y-85352683D02*
X87651927Y-85390778D01*
X87651927Y-85390778D02*
X87651927Y-85466969D01*
X87651927Y-85466969D02*
X87632880Y-85505064D01*
X87632880Y-85505064D02*
X87594784Y-85543159D01*
X87594784Y-85543159D02*
X87518594Y-85562207D01*
X87518594Y-85562207D02*
X87385260Y-85562207D01*
X87385260Y-85562207D02*
X87309070Y-85543159D01*
X87309070Y-85543159D02*
X87270975Y-85505064D01*
X87270975Y-85505064D02*
X87251927Y-85466969D01*
X87251927Y-85124111D02*
X87575737Y-85124111D01*
X87575737Y-85124111D02*
X87613832Y-85105064D01*
X87613832Y-85105064D02*
X87632880Y-85086016D01*
X87632880Y-85086016D02*
X87651927Y-85047921D01*
X87651927Y-85047921D02*
X87651927Y-84971730D01*
X87651927Y-84971730D02*
X87632880Y-84933635D01*
X87632880Y-84933635D02*
X87613832Y-84914588D01*
X87613832Y-84914588D02*
X87575737Y-84895540D01*
X87575737Y-84895540D02*
X87251927Y-84895540D01*
X87251927Y-84762206D02*
X87251927Y-84533635D01*
X87651927Y-84647921D02*
X87251927Y-84647921D01*
D11*
X78352419Y-94199111D02*
X77352419Y-94199111D01*
X78352419Y-93627683D02*
X77780990Y-94056254D01*
X77352419Y-93627683D02*
X77923847Y-94199111D01*
X77828609Y-93199111D02*
X77828609Y-92865778D01*
X78352419Y-92722921D02*
X78352419Y-93199111D01*
X78352419Y-93199111D02*
X77352419Y-93199111D01*
X77352419Y-93199111D02*
X77352419Y-92722921D01*
X77828609Y-92294349D02*
X77828609Y-91961016D01*
X78352419Y-91818159D02*
X78352419Y-92294349D01*
X78352419Y-92294349D02*
X77352419Y-92294349D01*
X77352419Y-92294349D02*
X77352419Y-91818159D01*
X78352419Y-91389587D02*
X77352419Y-91389587D01*
X77352419Y-91389587D02*
X77352419Y-91008635D01*
X77352419Y-91008635D02*
X77400038Y-90913397D01*
X77400038Y-90913397D02*
X77447657Y-90865778D01*
X77447657Y-90865778D02*
X77542895Y-90818159D01*
X77542895Y-90818159D02*
X77685752Y-90818159D01*
X77685752Y-90818159D02*
X77780990Y-90865778D01*
X77780990Y-90865778D02*
X77828609Y-90913397D01*
X77828609Y-90913397D02*
X77876228Y-91008635D01*
X77876228Y-91008635D02*
X77876228Y-91389587D01*
X77352419Y-90199111D02*
X77352419Y-90008635D01*
X77352419Y-90008635D02*
X77400038Y-89913397D01*
X77400038Y-89913397D02*
X77495276Y-89818159D01*
X77495276Y-89818159D02*
X77685752Y-89770540D01*
X77685752Y-89770540D02*
X78019085Y-89770540D01*
X78019085Y-89770540D02*
X78209561Y-89818159D01*
X78209561Y-89818159D02*
X78304800Y-89913397D01*
X78304800Y-89913397D02*
X78352419Y-90008635D01*
X78352419Y-90008635D02*
X78352419Y-90199111D01*
X78352419Y-90199111D02*
X78304800Y-90294349D01*
X78304800Y-90294349D02*
X78209561Y-90389587D01*
X78209561Y-90389587D02*
X78019085Y-90437206D01*
X78019085Y-90437206D02*
X77685752Y-90437206D01*
X77685752Y-90437206D02*
X77495276Y-90389587D01*
X77495276Y-90389587D02*
X77400038Y-90294349D01*
X77400038Y-90294349D02*
X77352419Y-90199111D01*
X77352419Y-89341968D02*
X78161942Y-89341968D01*
X78161942Y-89341968D02*
X78257180Y-89294349D01*
X78257180Y-89294349D02*
X78304800Y-89246730D01*
X78304800Y-89246730D02*
X78352419Y-89151492D01*
X78352419Y-89151492D02*
X78352419Y-88961016D01*
X78352419Y-88961016D02*
X78304800Y-88865778D01*
X78304800Y-88865778D02*
X78257180Y-88818159D01*
X78257180Y-88818159D02*
X78161942Y-88770540D01*
X78161942Y-88770540D02*
X77352419Y-88770540D01*
X77352419Y-88437206D02*
X77352419Y-87865778D01*
X78352419Y-88151492D02*
X77352419Y-88151492D01*
D13*
X74712858Y-97151765D02*
X74712858Y-96551765D01*
X75055715Y-97151765D02*
X74798572Y-96808908D01*
X75055715Y-96551765D02*
X74712858Y-96894622D01*
X75312858Y-96837479D02*
X75512858Y-96837479D01*
X75598572Y-97151765D02*
X75312858Y-97151765D01*
X75312858Y-97151765D02*
X75312858Y-96551765D01*
X75312858Y-96551765D02*
X75598572Y-96551765D01*
X75855715Y-96837479D02*
X76055715Y-96837479D01*
X76141429Y-97151765D02*
X75855715Y-97151765D01*
X75855715Y-97151765D02*
X75855715Y-96551765D01*
X75855715Y-96551765D02*
X76141429Y-96551765D01*
X76398572Y-97151765D02*
X76398572Y-96551765D01*
X76398572Y-96551765D02*
X76627143Y-96551765D01*
X76627143Y-96551765D02*
X76684286Y-96580336D01*
X76684286Y-96580336D02*
X76712857Y-96608908D01*
X76712857Y-96608908D02*
X76741429Y-96666051D01*
X76741429Y-96666051D02*
X76741429Y-96751765D01*
X76741429Y-96751765D02*
X76712857Y-96808908D01*
X76712857Y-96808908D02*
X76684286Y-96837479D01*
X76684286Y-96837479D02*
X76627143Y-96866051D01*
X76627143Y-96866051D02*
X76398572Y-96866051D01*
X77112857Y-96551765D02*
X77227143Y-96551765D01*
X77227143Y-96551765D02*
X77284286Y-96580336D01*
X77284286Y-96580336D02*
X77341429Y-96637479D01*
X77341429Y-96637479D02*
X77370000Y-96751765D01*
X77370000Y-96751765D02*
X77370000Y-96951765D01*
X77370000Y-96951765D02*
X77341429Y-97066051D01*
X77341429Y-97066051D02*
X77284286Y-97123194D01*
X77284286Y-97123194D02*
X77227143Y-97151765D01*
X77227143Y-97151765D02*
X77112857Y-97151765D01*
X77112857Y-97151765D02*
X77055715Y-97123194D01*
X77055715Y-97123194D02*
X76998572Y-97066051D01*
X76998572Y-97066051D02*
X76970000Y-96951765D01*
X76970000Y-96951765D02*
X76970000Y-96751765D01*
X76970000Y-96751765D02*
X76998572Y-96637479D01*
X76998572Y-96637479D02*
X77055715Y-96580336D01*
X77055715Y-96580336D02*
X77112857Y-96551765D01*
X77627143Y-96551765D02*
X77627143Y-97037479D01*
X77627143Y-97037479D02*
X77655714Y-97094622D01*
X77655714Y-97094622D02*
X77684286Y-97123194D01*
X77684286Y-97123194D02*
X77741428Y-97151765D01*
X77741428Y-97151765D02*
X77855714Y-97151765D01*
X77855714Y-97151765D02*
X77912857Y-97123194D01*
X77912857Y-97123194D02*
X77941428Y-97094622D01*
X77941428Y-97094622D02*
X77970000Y-97037479D01*
X77970000Y-97037479D02*
X77970000Y-96551765D01*
X78169999Y-96551765D02*
X78512857Y-96551765D01*
X78341428Y-97151765D02*
X78341428Y-96551765D01*
X80337858Y-96076765D02*
X80337858Y-95476765D01*
X80680715Y-96076765D02*
X80423572Y-95733908D01*
X80680715Y-95476765D02*
X80337858Y-95819622D01*
X80937858Y-95762479D02*
X81137858Y-95762479D01*
X81223572Y-96076765D02*
X80937858Y-96076765D01*
X80937858Y-96076765D02*
X80937858Y-95476765D01*
X80937858Y-95476765D02*
X81223572Y-95476765D01*
X81480715Y-95762479D02*
X81680715Y-95762479D01*
X81766429Y-96076765D02*
X81480715Y-96076765D01*
X81480715Y-96076765D02*
X81480715Y-95476765D01*
X81480715Y-95476765D02*
X81766429Y-95476765D01*
X82023572Y-96076765D02*
X82023572Y-95476765D01*
X82023572Y-95476765D02*
X82252143Y-95476765D01*
X82252143Y-95476765D02*
X82309286Y-95505336D01*
X82309286Y-95505336D02*
X82337857Y-95533908D01*
X82337857Y-95533908D02*
X82366429Y-95591051D01*
X82366429Y-95591051D02*
X82366429Y-95676765D01*
X82366429Y-95676765D02*
X82337857Y-95733908D01*
X82337857Y-95733908D02*
X82309286Y-95762479D01*
X82309286Y-95762479D02*
X82252143Y-95791051D01*
X82252143Y-95791051D02*
X82023572Y-95791051D01*
X82737857Y-95476765D02*
X82852143Y-95476765D01*
X82852143Y-95476765D02*
X82909286Y-95505336D01*
X82909286Y-95505336D02*
X82966429Y-95562479D01*
X82966429Y-95562479D02*
X82995000Y-95676765D01*
X82995000Y-95676765D02*
X82995000Y-95876765D01*
X82995000Y-95876765D02*
X82966429Y-95991051D01*
X82966429Y-95991051D02*
X82909286Y-96048194D01*
X82909286Y-96048194D02*
X82852143Y-96076765D01*
X82852143Y-96076765D02*
X82737857Y-96076765D01*
X82737857Y-96076765D02*
X82680715Y-96048194D01*
X82680715Y-96048194D02*
X82623572Y-95991051D01*
X82623572Y-95991051D02*
X82595000Y-95876765D01*
X82595000Y-95876765D02*
X82595000Y-95676765D01*
X82595000Y-95676765D02*
X82623572Y-95562479D01*
X82623572Y-95562479D02*
X82680715Y-95505336D01*
X82680715Y-95505336D02*
X82737857Y-95476765D01*
X83252143Y-95476765D02*
X83252143Y-95962479D01*
X83252143Y-95962479D02*
X83280714Y-96019622D01*
X83280714Y-96019622D02*
X83309286Y-96048194D01*
X83309286Y-96048194D02*
X83366428Y-96076765D01*
X83366428Y-96076765D02*
X83480714Y-96076765D01*
X83480714Y-96076765D02*
X83537857Y-96048194D01*
X83537857Y-96048194D02*
X83566428Y-96019622D01*
X83566428Y-96019622D02*
X83595000Y-95962479D01*
X83595000Y-95962479D02*
X83595000Y-95476765D01*
X83794999Y-95476765D02*
X84137857Y-95476765D01*
X83966428Y-96076765D02*
X83966428Y-95476765D01*
D14*
%TO.C,J19*%
X58300000Y-62550000D02*
G75*
G02*
X57700000Y-62550000I-300000J0D01*
G01*
X57700000Y-62550000D02*
G75*
G02*
X58300000Y-62550000I300000J0D01*
G01*
%TO.C,J17*%
X70300000Y-62550000D02*
G75*
G02*
X69700000Y-62550000I-300000J0D01*
G01*
X69700000Y-62550000D02*
G75*
G02*
X70300000Y-62550000I300000J0D01*
G01*
%TO.C,J18*%
X82300000Y-62550000D02*
G75*
G02*
X81700000Y-62550000I-300000J0D01*
G01*
X81700000Y-62550000D02*
G75*
G02*
X82300000Y-62550000I300000J0D01*
G01*
%TD*%
M02*
