M48
; DRILL file {KiCad 8.0.0} date 2024-03-16T10:13:42+0100
; FORMAT={-:-/ absolute / inch / decimal}
; #@! TF.CreationDate,2024-03-16T10:13:42+01:00
; #@! TF.GenerationSoftware,Kicad,Pcbnew,8.0.0
; #@! TF.FileFunction,Plated,1,6,PTH
FMAT,2
INCH
; #@! TA.AperFunction,Plated,PTH,ViaDrill
T1C0.0079
; #@! TA.AperFunction,Plated,PTH,ComponentDrill
T2C0.0236
%
G90
G05
T1
X2.0472Y-2.8051
X2.0472Y-2.9035
X2.0866Y-5.3114
X2.0866Y-5.1969
X2.103Y-2.7728
X2.1063Y-5.8169
X2.1161Y-2.9232
X2.1161Y-4.9606
X2.1243Y-2.7933
X2.126Y-4.1339
X2.126Y-4.6358
X2.1358Y-2.2047
X2.1654Y-4.7244
X2.1654Y-4.7638
X2.1654Y-4.8031
X2.1752Y-2.6378
X2.1752Y-3.9567
X2.1752Y-5.4134
X2.1949Y-4.6654
X2.2047Y-6.3484
X2.2146Y-2.7756
X2.2146Y-4.9311
X2.2195Y-4.2569
X2.2244Y-4.1634
X2.2244Y-2.9232
X2.2244Y-3.4547
X2.2441Y-4.3996
X2.2441Y-4.4291
X2.2441Y-4.6752
X2.2539Y-4.1634
X2.2539Y-5.5709
X2.2618Y-5.7776
X2.2638Y-4.2618
X2.2722Y-4.7384
X2.2736Y-3.6516
X2.2736Y-4.4685
X2.2736Y-5.2067
X2.3031Y-5.9843
X2.3327Y-4.8917
X2.3524Y-3.9272
X2.3524Y-5.374
X2.3524Y-6.5453
X2.3819Y-4.5866
X2.3917Y-3.1004
X2.3917Y-3.9961
X2.4016Y-3.9272
X2.4213Y-4.9705
X2.4303Y-4.3557
X2.4348Y-2.8605
X2.4462Y-3.1992
X2.4508Y-6.5059
X2.4577Y-4.3367
X2.4606Y-4.9705
X2.4756Y-4.3602
X2.4803Y-2.9823
X2.4858Y-6.5101
X2.5Y-2.5591
X2.5115Y-6.437
X2.5197Y-3.2972
X2.5197Y-4.1339
X2.5228Y-6.6207
X2.5295Y-2.5098
X2.5295Y-2.8543
X2.5295Y-6.2992
X2.5591Y-2.7854
X2.5615Y-6.624
X2.5787Y-2.6181
X2.5787Y-4.1634
X2.5787Y-5.2559
X2.5804Y-6.4217
X2.5824Y-3.4682
X2.5886Y-2.5886
X2.5984Y-2.2047
X2.5984Y-4.1831
X2.5984Y-5.7776
X2.5984Y-6.0335
X2.622Y-4.8317
X2.623Y-3.4596
X2.628Y-2.874
X2.628Y-3.4154
X2.628Y-3.9567
X2.633Y-5.0758
X2.6415Y-6.4801
X2.6459Y-4.9449
X2.6476Y-2.7957
X2.6476Y-2.8346
X2.6476Y-2.9035
X2.6575Y-5.4035
X2.6575Y-6.2697
X2.6575Y-4.9902
X2.6673Y-3.1398
X2.6673Y-6.0335
X2.6772Y-5.1083
X2.6841Y-4.9705
X2.687Y-3.4744
X2.687Y-3.5138
X2.687Y-3.5531
X2.687Y-3.5925
X2.687Y-3.6319
X2.687Y-3.6713
X2.687Y-6.5453
X2.6917Y-3.4525
X2.7067Y-2.5886
X2.7165Y-3.9567
X2.7165Y-5.1083
X2.7264Y-3.0413
X2.7264Y-5.3839
X2.7406Y-2.8765
X2.7418Y-2.9192
X2.7421Y-4.9983
X2.7431Y-3.9109
X2.7446Y-2.8452
X2.7446Y-4.8327
X2.7461Y-4.9409
X2.7461Y-5.0984
X2.7546Y-3.9511
X2.7657Y-4.813
X2.7657Y-6.2303
X2.7726Y-3.5697
X2.7726Y-3.9115
X2.7756Y-6.2697
X2.7766Y-2.7942
X2.7843Y-3.9881
X2.7854Y-3.0413
X2.7854Y-5.1083
X2.7941Y-3.634
X2.7953Y-3.376
X2.7953Y-3.4547
X2.7953Y-3.4992
X2.7953Y-3.5433
X2.7953Y-3.7008
X2.7953Y-3.75
X2.7953Y-5.8268
X2.7953Y-6.0039
X2.7997Y-3.9629
X2.8114Y-2.7714
X2.8248Y-6.5551
X2.8346Y-2.5492
X2.8346Y-5.3937
X2.8405Y-2.7766
X2.8418Y-3.0105
X2.8445Y-3.9075
X2.8445Y-4.9409
X2.8445Y-6.4075
X2.8449Y-5.098
X2.8543Y-4.8327
X2.8625Y-2.8843
X2.8642Y-5.3937
X2.8642Y-3.9469
X2.8646Y-3.0217
X2.874Y-3.1988
X2.874Y-5.0984
X2.8839Y-3.563
X2.8839Y-3.6516
X2.8839Y-3.7795
X2.887Y-3.0084
X2.9035Y-3.9469
X2.9097Y-2.5947
X2.9134Y-3.0217
X2.9232Y-2.5492
X2.9342Y-2.799
X2.9373Y-2.6312
X2.9429Y-3.0081
X2.9429Y-4.9409
X2.9429Y-5.9252
X2.9528Y-6.2697
X2.9528Y-6.447
X2.9635Y-2.9696
X2.9724Y-2.8248
X2.9724Y-2.874
X2.9823Y-2.5
X2.9958Y-2.9688
X3.0Y-5.502
X3.002Y-2.628
X3.002Y-2.9331
X3.002Y-3.7795
X3.0031Y-6.3488
X3.0118Y-6.624
X3.0138Y-6.3898
X3.0139Y-6.3142
X3.0315Y-2.5787
X3.0315Y-3.1004
X3.0315Y-4.9606
X3.0413Y-6.2303
X3.0413Y-6.624
X3.0561Y-6.2018
X3.061Y-6.3681
X3.061Y-6.4665
X3.0709Y-2.8248
X3.0709Y-2.8642
X3.0709Y-2.9035
X3.0906Y-6.3681
X3.1004Y-4.1043
X3.1004Y-4.7638
X3.1102Y-4.1831
X3.1102Y-4.9705
X3.1201Y-6.437
X3.1299Y-4.7441
X3.1398Y-4.9705
X3.1594Y-5.2559
X3.1594Y-6.5453
X3.1791Y-6.0236
X3.2382Y-5.7382
X3.2411Y-5.8169
X3.2677Y-4.3602
X3.2677Y-4.3996
X3.2677Y-4.5768
X3.2677Y-4.6161
X3.2776Y-4.0748
X3.2776Y-4.1142
X3.2776Y-5.4331
X3.2871Y-2.7757
X3.2972Y-2.9232
X3.3054Y-2.7933
X3.3071Y-4.7441
X3.3169Y-4.188
X3.3169Y-4.2175
X3.3169Y-6.3484
X3.3268Y-2.6378
X3.3268Y-2.9429
X3.3268Y-3.9567
X3.3563Y-4.7638
X3.3661Y-5.7677
X3.3858Y-2.2047
X3.396Y-2.7775
X3.3991Y-2.9232
X3.4055Y-3.3268
X3.4055Y-3.7795
X3.4055Y-5.7185
X3.4449Y-5.5217
X3.4646Y-2.8051
X3.4646Y-2.9035
X3.4837Y-5.8268
T2
G00X2.3496Y-6.5898
M15
G01X2.3496Y-6.6331
M16
G05
G00X2.3496Y-6.7642
M15
G01X2.3496Y-6.7878
M16
G05
G00X2.6898Y-6.5898
M15
G01X2.6898Y-6.6331
M16
G05
G00X2.6898Y-6.7642
M15
G01X2.6898Y-6.7878
M16
G05
G00X2.822Y-6.5898
M15
G01X2.822Y-6.6331
M16
G05
G00X2.822Y-6.7642
M15
G01X2.822Y-6.7878
M16
G05
G00X3.1622Y-6.5898
M15
G01X3.1622Y-6.6331
M16
G05
G00X3.1622Y-6.7642
M15
G01X3.1622Y-6.7878
M16
G05
M30
