%TF.GenerationSoftware,KiCad,Pcbnew,8.0.1*%
%TF.CreationDate,2024-03-17T21:49:36+01:00*%
%TF.ProjectId,KLST_CATERPILLAR,4b4c5354-5f43-4415-9445-5250494c4c41,rev?*%
%TF.SameCoordinates,Original*%
%TF.FileFunction,Soldermask,Bot*%
%TF.FilePolarity,Negative*%
%FSLAX46Y46*%
G04 Gerber Fmt 4.6, Leading zero omitted, Abs format (unit mm)*
G04 Created by KiCad (PCBNEW 8.0.1) date 2024-03-17 21:49:36*
%MOMM*%
%LPD*%
G01*
G04 APERTURE LIST*
%ADD10C,1.600000*%
%ADD11C,0.650000*%
%ADD12O,1.000000X2.100000*%
%ADD13O,1.000000X1.600000*%
%ADD14C,1.500000*%
%ADD15R,3.500000X1.020000*%
%ADD16C,0.990000*%
%ADD17C,0.787000*%
G04 APERTURE END LIST*
D10*
%TO.C,J19*%
X58000000Y-62550000D03*
%TD*%
D11*
%TO.C,J9*%
X73110000Y-168460000D03*
X78890000Y-168460000D03*
D12*
X71680000Y-167930000D03*
D13*
X71680000Y-172110000D03*
D12*
X80320000Y-167930000D03*
D13*
X80320000Y-172110000D03*
%TD*%
D11*
%TO.C,J10*%
X61110000Y-168460000D03*
X66890000Y-168460000D03*
D12*
X59680000Y-167930000D03*
D13*
X59680000Y-172110000D03*
D12*
X68320000Y-167930000D03*
D13*
X68320000Y-172110000D03*
%TD*%
D10*
%TO.C,J17*%
X70000000Y-62550000D03*
%TD*%
%TO.C,J18*%
X82000000Y-62550000D03*
%TD*%
D14*
%TO.C,TP12*%
X75250000Y-89000000D03*
%TD*%
%TO.C,TP15*%
X76000000Y-155000000D03*
%TD*%
%TO.C,TP16*%
X81000000Y-74000000D03*
%TD*%
%TO.C,TP9*%
X72250000Y-89000000D03*
%TD*%
%TO.C,TP2*%
X63000000Y-78638375D03*
%TD*%
%TO.C,TP11*%
X75250000Y-86000000D03*
%TD*%
%TO.C,TP5*%
X60000000Y-75638375D03*
%TD*%
%TO.C,TP4*%
X69000000Y-78638375D03*
%TD*%
%TO.C,TP6*%
X63000000Y-75638375D03*
%TD*%
D15*
%TO.C,J13*%
X59000000Y-85600000D03*
X53000000Y-85600000D03*
X59000000Y-88140000D03*
X53000000Y-88140000D03*
X59000000Y-90680000D03*
X53000000Y-90680000D03*
X59000000Y-93220000D03*
X53000000Y-93220000D03*
X59000000Y-95760000D03*
X53000000Y-95760000D03*
X59000000Y-98300000D03*
X53000000Y-98300000D03*
X59000000Y-100840000D03*
X53000000Y-100840000D03*
X59000000Y-103380000D03*
X53000000Y-103380000D03*
X59000000Y-105920000D03*
X53000000Y-105920000D03*
X59000000Y-108460000D03*
X53000000Y-108460000D03*
X59000000Y-111000000D03*
X53000000Y-111000000D03*
X59000000Y-113540000D03*
X53000000Y-113540000D03*
X59000000Y-116080000D03*
X53000000Y-116080000D03*
X59000000Y-118620000D03*
X53000000Y-118620000D03*
X59000000Y-121160000D03*
X53000000Y-121160000D03*
X59000000Y-123700000D03*
X53000000Y-123700000D03*
X59000000Y-126240000D03*
X53000000Y-126240000D03*
%TD*%
D14*
%TO.C,TP7*%
X66000000Y-75638375D03*
%TD*%
D16*
%TO.C,J15*%
X75080000Y-133480676D03*
X64920000Y-134496676D03*
X64920000Y-132464676D03*
D17*
X73810000Y-134115676D03*
X72540000Y-134115676D03*
X71270000Y-134115676D03*
X70000000Y-134115676D03*
X68730000Y-134115676D03*
X67460000Y-134115676D03*
X66190000Y-134115676D03*
X66190000Y-132845676D03*
X67460000Y-132845676D03*
X68730000Y-132845676D03*
X70000000Y-132845676D03*
X71270000Y-132845676D03*
X72540000Y-132845676D03*
X73810000Y-132845676D03*
%TD*%
D14*
%TO.C,TP13*%
X75250000Y-92000000D03*
%TD*%
%TO.C,TP1*%
X60000000Y-78638375D03*
%TD*%
%TO.C,TP3*%
X66000000Y-78638375D03*
%TD*%
%TO.C,TP17*%
X81000000Y-71000000D03*
%TD*%
%TO.C,TP8*%
X72250000Y-86000000D03*
%TD*%
%TO.C,TP14*%
X79000000Y-155000000D03*
%TD*%
%TO.C,TP10*%
X72250000Y-92000000D03*
%TD*%
M02*
