%TF.GenerationSoftware,KiCad,Pcbnew,8.0.0*%
%TF.CreationDate,2024-03-16T10:13:42+01:00*%
%TF.ProjectId,KLST_CATERPILLAR,4b4c5354-5f43-4415-9445-5250494c4c41,rev?*%
%TF.SameCoordinates,Original*%
%TF.FileFunction,Copper,L3,Inr*%
%TF.FilePolarity,Positive*%
%FSLAX46Y46*%
G04 Gerber Fmt 4.6, Leading zero omitted, Abs format (unit mm)*
G04 Created by KiCad (PCBNEW 8.0.0) date 2024-03-16 10:13:42*
%MOMM*%
%LPD*%
G01*
G04 APERTURE LIST*
%TA.AperFunction,ComponentPad*%
%ADD10O,1.000000X2.100000*%
%TD*%
%TA.AperFunction,ComponentPad*%
%ADD11O,1.000000X1.600000*%
%TD*%
%TA.AperFunction,ViaPad*%
%ADD12C,0.500000*%
%TD*%
G04 APERTURE END LIST*
D10*
%TO.N,GND*%
%TO.C,J9*%
X71680000Y-167930000D03*
D11*
X71680000Y-172110000D03*
D10*
X80320000Y-167930000D03*
D11*
X80320000Y-172110000D03*
%TD*%
D10*
%TO.N,GND*%
%TO.C,J10*%
X59680000Y-167930000D03*
D11*
X59680000Y-172110000D03*
D10*
X68320000Y-167930000D03*
D11*
X68320000Y-172110000D03*
%TD*%
D12*
%TO.N,GND*%
X59750000Y-99750000D03*
X72250000Y-162750000D03*
X53000000Y-134910000D03*
X75000000Y-163755000D03*
X57250000Y-141500000D03*
X69250000Y-77250000D03*
X57750000Y-92750000D03*
X71000000Y-148000000D03*
X84500000Y-100500000D03*
X84500000Y-67000000D03*
X57449996Y-146750004D03*
X86257749Y-70549300D03*
X56499997Y-105750000D03*
X70250000Y-158250000D03*
X53750000Y-74250000D03*
X73250000Y-96000000D03*
X67750000Y-79750000D03*
X76250000Y-96000000D03*
X72148300Y-70526651D03*
X72250000Y-125500000D03*
X78500000Y-161750000D03*
X55249998Y-67000000D03*
X79750000Y-126250000D03*
X86500000Y-96000000D03*
X57000000Y-111750000D03*
X60750000Y-78750000D03*
X88486593Y-148000000D03*
X55000000Y-120000000D03*
X67250000Y-72000000D03*
X70425000Y-90670823D03*
X82325000Y-147750000D03*
X73250000Y-92750000D03*
X54249998Y-56000000D03*
X69750000Y-129500000D03*
X75000000Y-159250000D03*
X56500000Y-87750000D03*
X84500000Y-74750000D03*
X83000000Y-111750000D03*
X56374994Y-108125006D03*
X55000000Y-121000000D03*
X67093413Y-164593413D03*
X87500000Y-140250000D03*
X78000000Y-73750000D03*
X67205759Y-125600584D03*
X66000000Y-55999998D03*
X61843413Y-72656587D03*
X71750000Y-166500000D03*
X59750000Y-166250000D03*
X55750004Y-118500000D03*
X73906587Y-65906587D03*
X86000000Y-55999988D03*
X68250000Y-166250000D03*
X54000000Y-117750000D03*
X52000000Y-73750000D03*
X69250000Y-136750000D03*
X67250000Y-73750003D03*
X80250000Y-133500002D03*
X72000000Y-64750000D03*
X79250000Y-163500000D03*
X64000000Y-83750000D03*
X57713459Y-120355000D03*
X84250000Y-161250000D03*
X64250000Y-72500000D03*
X70526333Y-70973669D03*
X76250000Y-66750000D03*
X88000000Y-73750000D03*
X74607412Y-66832108D03*
X65000000Y-70750000D03*
X83492354Y-70502317D03*
X78000000Y-71750000D03*
X68750000Y-65750000D03*
X77000000Y-126000000D03*
X67250000Y-71010000D03*
X53416893Y-70429432D03*
X64250000Y-160000000D03*
X83250000Y-104500000D03*
X78000000Y-72750000D03*
X72707345Y-73260000D03*
X69641599Y-74147200D03*
X71000000Y-85750000D03*
X80250000Y-166250000D03*
X73000000Y-81250000D03*
X75500000Y-73000000D03*
X57750000Y-113500000D03*
X76200000Y-139750000D03*
X56250000Y-125250000D03*
X69000000Y-100500000D03*
X53500000Y-147750000D03*
X72750000Y-137000000D03*
X55250000Y-100500000D03*
X66000000Y-146750000D03*
X73750003Y-100250000D03*
X83000000Y-117250000D03*
X55250000Y-137500000D03*
X58500000Y-152000000D03*
X56000000Y-161250000D03*
X74529094Y-71094559D03*
X74750000Y-150500000D03*
X55000000Y-122000000D03*
X61500000Y-126250000D03*
X86500000Y-84500000D03*
X56500000Y-74250000D03*
X56250000Y-70500000D03*
X86337700Y-74250034D03*
X65500000Y-133500000D03*
%TO.N,NRST*%
X60500000Y-116500000D03*
X59250000Y-124250000D03*
%TO.N,/audio_codec/MIC_BIAS*%
X69612141Y-73063520D03*
X70750000Y-77250000D03*
%TO.N,/audio_codec/LINE_OUT_RIGHT*%
X65500000Y-66500000D03*
X63500000Y-65000004D03*
%TO.N,/audio_codec/LINE_OUT_LEFT*%
X64250000Y-63750000D03*
X65750000Y-65750000D03*
%TO.N,/audio_codec/HEADPHONE_RIGHT*%
X74250000Y-64750000D03*
X71410123Y-70393992D03*
%TO.N,+3.3V*%
X77000000Y-78750000D03*
X68250000Y-89250000D03*
X83000000Y-116250000D03*
X83250000Y-103500000D03*
X72750016Y-100250000D03*
X72000000Y-137000000D03*
X68250000Y-93250000D03*
X83000000Y-110750000D03*
X66750000Y-100500000D03*
X54000000Y-105000000D03*
X79000000Y-126250000D03*
X68250000Y-91250000D03*
X52000000Y-71250000D03*
X88000000Y-71250000D03*
X57000000Y-118750000D03*
X68369087Y-87694087D03*
X83957341Y-70949324D03*
X57000000Y-112500000D03*
X57750000Y-132250000D03*
X69750000Y-125500000D03*
X68250000Y-88250000D03*
X68250000Y-92250000D03*
X68250000Y-90250000D03*
X61000000Y-99750000D03*
X76250000Y-74500000D03*
X57250000Y-105750000D03*
X71000000Y-152500000D03*
X69712573Y-72268849D03*
X53750000Y-125999996D03*
X57500011Y-108250011D03*
X60750000Y-101500000D03*
X67500000Y-137250000D03*
X83750000Y-74250000D03*
X53957298Y-70949495D03*
X53000007Y-132000007D03*
X83250000Y-138000000D03*
X74750000Y-125500000D03*
X73250000Y-90500000D03*
X62500000Y-126250000D03*
%TO.N,_CARD_SDMMC_CK*%
X72250000Y-99250000D03*
X70970000Y-92302364D03*
%TO.N,/audio_codec/MIC_IN_MONO*%
X77000000Y-65500000D03*
X75750000Y-63500000D03*
%TO.N,_LED_01*%
X80750000Y-153000000D03*
X66000000Y-153250000D03*
X67750000Y-153250000D03*
X79500000Y-120500000D03*
X82250000Y-145750000D03*
X84000000Y-120500000D03*
%TO.N,_CARD_SDMMC_D0*%
X71000000Y-94000000D03*
X71112587Y-100656587D03*
%TO.N,_CARD_SDMMC_D1*%
X70721541Y-101296577D03*
X71000000Y-95250000D03*
%TO.N,_CARD_SDMMC_D2*%
X69965743Y-100358242D03*
X71000000Y-87750000D03*
%TO.N,_CARD_SDMMC_D3*%
X71000000Y-88878874D03*
X69675138Y-99337632D03*
%TO.N,_CARD_SDMMC_CMD*%
X70425000Y-99352155D03*
X71000000Y-90000000D03*
%TO.N,_LED_00*%
X85250000Y-121000000D03*
X78750000Y-121000000D03*
%TO.N,_USB_DEVICE_HOST_P*%
X77250000Y-158250000D03*
X84250000Y-106375000D03*
%TO.N,/USB/VBUS_HOST_OUT*%
X70500000Y-159250000D03*
X67500000Y-159250000D03*
%TO.N,/USB/USB_CONNECTOR_MINUS*%
X76554049Y-160380036D03*
X63791079Y-163500029D03*
X64079177Y-168164588D03*
X62250000Y-165250000D03*
X77750000Y-161750000D03*
X77750000Y-164250000D03*
X76500000Y-168250000D03*
%TO.N,_SWD_IO*%
X79000000Y-106250000D03*
X67500005Y-126749995D03*
%TO.N,_SWD_CLK*%
X68175000Y-126250000D03*
X78750000Y-104250000D03*
%TO.N,_SWD_OUT*%
X72500000Y-122750000D03*
X69650000Y-126957070D03*
%TO.N,/USB/USB_CONNECTOR_PLUS*%
X65063210Y-168249964D03*
X63138171Y-165357803D03*
X76550754Y-162300754D03*
X65541237Y-163110006D03*
X77250000Y-168250000D03*
X76278027Y-161258862D03*
%TO.N,_AUDIO_CODEC_I2C_SCL*%
X69712587Y-122750000D03*
X75273561Y-75428082D03*
%TO.N,_AUDIO_CODEC_I2C_SDA*%
X70250000Y-122250000D03*
X76092345Y-75407655D03*
%TO.N,_USB_DEVICE_HOST_VBUS*%
X85500000Y-146500000D03*
X86500000Y-145250000D03*
%TO.N,_AUDIO_MIC_CLK*%
X65593413Y-88093413D03*
X66750000Y-86750000D03*
X65500000Y-105750000D03*
%TO.N,_AUDIO_CODEC_SAI_SD_OUT*%
X74749996Y-76404527D03*
X64000000Y-105000000D03*
%TO.N,_AUDIO_CODEC_SAI_MCLK*%
X72180721Y-76466029D03*
X61730000Y-110633541D03*
%TO.N,_AUDIO_CODEC_SAI_SCK*%
X72759848Y-76750000D03*
X62426186Y-110152876D03*
%TO.N,_AUDIO_CODEC_SAI_FS*%
X62880000Y-110750000D03*
X73329177Y-76414588D03*
%TO.N,_AUDIO_CODEC_SAI_SD_IN*%
X74000000Y-76750000D03*
X66597678Y-122724025D03*
%TO.N,_AUDIO_MIC_DATA*%
X66000000Y-106250000D03*
X66625000Y-87875000D03*
%TO.N,+1.8V*%
X59750000Y-136500012D03*
X66750000Y-73000000D03*
X75500000Y-71750000D03*
%TO.N,/programmer/SWD_IO*%
X66877264Y-128925000D03*
%TO.N,/programmer/SWD_CLK*%
X68000000Y-129750000D03*
%TO.N,/programmer/SWD_OUT*%
X69000000Y-129749991D03*
%TO.N,/programmer/SERIAL_RX*%
X73000000Y-129500000D03*
%TO.N,/programmer/SERIAL_TX*%
X72259662Y-129490338D03*
%TO.N,/audio_codec/(LINE_IN_LEFT)*%
X62132385Y-81259980D03*
X63000000Y-75750000D03*
%TO.N,/programmer/RST*%
X70750000Y-129750000D03*
%TO.N,_USB_DEVICE_HOST_N*%
X84250000Y-107125000D03*
X77625735Y-157525735D03*
%TD*%
M02*
