%TF.GenerationSoftware,KiCad,Pcbnew,8.0.1*%
%TF.CreationDate,2024-03-17T21:49:36+01:00*%
%TF.ProjectId,KLST_CATERPILLAR,4b4c5354-5f43-4415-9445-5250494c4c41,rev?*%
%TF.SameCoordinates,Original*%
%TF.FileFunction,Soldermask,Top*%
%TF.FilePolarity,Negative*%
%FSLAX46Y46*%
G04 Gerber Fmt 4.6, Leading zero omitted, Abs format (unit mm)*
G04 Created by KiCad (PCBNEW 8.0.1) date 2024-03-17 21:49:36*
%MOMM*%
%LPD*%
G01*
G04 APERTURE LIST*
G04 Aperture macros list*
%AMRoundRect*
0 Rectangle with rounded corners*
0 $1 Rounding radius*
0 $2 $3 $4 $5 $6 $7 $8 $9 X,Y pos of 4 corners*
0 Add a 4 corners polygon primitive as box body*
4,1,4,$2,$3,$4,$5,$6,$7,$8,$9,$2,$3,0*
0 Add four circle primitives for the rounded corners*
1,1,$1+$1,$2,$3*
1,1,$1+$1,$4,$5*
1,1,$1+$1,$6,$7*
1,1,$1+$1,$8,$9*
0 Add four rect primitives between the rounded corners*
20,1,$1+$1,$2,$3,$4,$5,0*
20,1,$1+$1,$4,$5,$6,$7,0*
20,1,$1+$1,$6,$7,$8,$9,0*
20,1,$1+$1,$8,$9,$2,$3,0*%
G04 Aperture macros list end*
%ADD10RoundRect,0.140000X0.170000X-0.140000X0.170000X0.140000X-0.170000X0.140000X-0.170000X-0.140000X0*%
%ADD11RoundRect,0.140000X-0.140000X-0.170000X0.140000X-0.170000X0.140000X0.170000X-0.140000X0.170000X0*%
%ADD12RoundRect,0.250000X0.475000X-0.250000X0.475000X0.250000X-0.475000X0.250000X-0.475000X-0.250000X0*%
%ADD13RoundRect,0.140000X-0.170000X0.140000X-0.170000X-0.140000X0.170000X-0.140000X0.170000X0.140000X0*%
%ADD14RoundRect,0.140000X0.140000X0.170000X-0.140000X0.170000X-0.140000X-0.170000X0.140000X-0.170000X0*%
%ADD15RoundRect,0.250000X0.250000X0.475000X-0.250000X0.475000X-0.250000X-0.475000X0.250000X-0.475000X0*%
%ADD16RoundRect,0.250000X-0.450000X-0.425000X0.450000X-0.425000X0.450000X0.425000X-0.450000X0.425000X0*%
%ADD17RoundRect,0.135000X0.185000X-0.135000X0.185000X0.135000X-0.185000X0.135000X-0.185000X-0.135000X0*%
%ADD18RoundRect,0.250000X-0.275000X-0.700000X0.275000X-0.700000X0.275000X0.700000X-0.275000X0.700000X0*%
%ADD19RoundRect,0.200000X0.275000X-0.200000X0.275000X0.200000X-0.275000X0.200000X-0.275000X-0.200000X0*%
%ADD20R,0.250000X0.600000*%
%ADD21RoundRect,0.225000X0.250000X-0.225000X0.250000X0.225000X-0.250000X0.225000X-0.250000X-0.225000X0*%
%ADD22RoundRect,0.150000X-0.587500X-0.150000X0.587500X-0.150000X0.587500X0.150000X-0.587500X0.150000X0*%
%ADD23RoundRect,0.250000X0.350000X0.450000X-0.350000X0.450000X-0.350000X-0.450000X0.350000X-0.450000X0*%
%ADD24RoundRect,0.200000X0.800000X-0.200000X0.800000X0.200000X-0.800000X0.200000X-0.800000X-0.200000X0*%
%ADD25RoundRect,0.243750X-0.243750X-0.456250X0.243750X-0.456250X0.243750X0.456250X-0.243750X0.456250X0*%
%ADD26RoundRect,0.135000X-0.185000X0.135000X-0.185000X-0.135000X0.185000X-0.135000X0.185000X0.135000X0*%
%ADD27RoundRect,0.255000X2.245000X0.255000X-2.245000X0.255000X-2.245000X-0.255000X2.245000X-0.255000X0*%
%ADD28RoundRect,0.250000X-0.325000X-0.650000X0.325000X-0.650000X0.325000X0.650000X-0.325000X0.650000X0*%
%ADD29RoundRect,0.006600X0.358400X0.103400X-0.358400X0.103400X-0.358400X-0.103400X0.358400X-0.103400X0*%
%ADD30RoundRect,0.006600X-0.103400X0.358400X-0.103400X-0.358400X0.103400X-0.358400X0.103400X0.358400X0*%
%ADD31R,2.700000X2.700000*%
%ADD32R,0.406400X0.939800*%
%ADD33R,0.355600X2.311400*%
%ADD34R,1.295400X0.355600*%
%ADD35RoundRect,0.200000X0.200000X0.275000X-0.200000X0.275000X-0.200000X-0.275000X0.200000X-0.275000X0*%
%ADD36C,1.600000*%
%ADD37R,2.500000X1.500000*%
%ADD38R,3.400000X1.500000*%
%ADD39RoundRect,0.135000X-0.135000X-0.185000X0.135000X-0.185000X0.135000X0.185000X-0.135000X0.185000X0*%
%ADD40RoundRect,0.075000X-0.662500X-0.075000X0.662500X-0.075000X0.662500X0.075000X-0.662500X0.075000X0*%
%ADD41RoundRect,0.075000X-0.075000X-0.662500X0.075000X-0.662500X0.075000X0.662500X-0.075000X0.662500X0*%
%ADD42RoundRect,0.200000X-0.200000X-0.275000X0.200000X-0.275000X0.200000X0.275000X-0.200000X0.275000X0*%
%ADD43R,1.200000X0.700000*%
%ADD44R,0.800000X1.000000*%
%ADD45R,1.200000X1.000000*%
%ADD46R,2.800000X1.000000*%
%ADD47R,1.900000X1.300000*%
%ADD48C,0.650000*%
%ADD49R,0.600000X1.450000*%
%ADD50R,0.300000X1.450000*%
%ADD51O,1.000000X2.100000*%
%ADD52O,1.000000X1.600000*%
%ADD53RoundRect,0.250000X-0.475000X0.250000X-0.475000X-0.250000X0.475000X-0.250000X0.475000X0.250000X0*%
%ADD54RoundRect,0.147500X0.172500X-0.147500X0.172500X0.147500X-0.172500X0.147500X-0.172500X-0.147500X0*%
%ADD55RoundRect,0.135000X0.135000X0.185000X-0.135000X0.185000X-0.135000X-0.185000X0.135000X-0.185000X0*%
%ADD56RoundRect,0.147500X-0.172500X0.147500X-0.172500X-0.147500X0.172500X-0.147500X0.172500X0.147500X0*%
%ADD57RoundRect,0.250000X-0.650000X1.000000X-0.650000X-1.000000X0.650000X-1.000000X0.650000X1.000000X0*%
%ADD58RoundRect,0.250000X-0.550000X1.050000X-0.550000X-1.050000X0.550000X-1.050000X0.550000X1.050000X0*%
%ADD59R,0.700000X1.000000*%
%ADD60R,0.700000X0.600000*%
%ADD61R,1.000000X0.700000*%
%ADD62R,0.600000X0.700000*%
%ADD63R,0.740000X2.400000*%
%ADD64R,1.500000X2.000000*%
%ADD65R,3.800000X2.000000*%
%ADD66R,1.200000X1.400000*%
%ADD67RoundRect,0.150000X0.512500X0.150000X-0.512500X0.150000X-0.512500X-0.150000X0.512500X-0.150000X0*%
%ADD68RoundRect,0.375000X0.375000X-0.625000X0.375000X0.625000X-0.375000X0.625000X-0.375000X-0.625000X0*%
%ADD69RoundRect,0.500000X1.400000X-0.500000X1.400000X0.500000X-1.400000X0.500000X-1.400000X-0.500000X0*%
%ADD70RoundRect,0.250000X0.650000X-0.325000X0.650000X0.325000X-0.650000X0.325000X-0.650000X-0.325000X0*%
%ADD71C,0.990000*%
G04 APERTURE END LIST*
D10*
%TO.C,C80*%
X72457345Y-69740000D03*
X72457345Y-68780000D03*
%TD*%
D11*
%TO.C,C86*%
X76227345Y-71760000D03*
X77187345Y-71760000D03*
%TD*%
D12*
%TO.C,C71*%
X62000000Y-73700000D03*
X62000000Y-71800000D03*
%TD*%
D13*
%TO.C,C28*%
X82212587Y-110750000D03*
X82212587Y-111710000D03*
%TD*%
D14*
%TO.C,C13*%
X55692587Y-117750000D03*
X54732587Y-117750000D03*
%TD*%
D15*
%TO.C,C1*%
X77950000Y-150750000D03*
X76050000Y-150750000D03*
%TD*%
D16*
%TO.C,C66*%
X65607345Y-76010000D03*
X68307345Y-76010000D03*
%TD*%
D17*
%TO.C,R4*%
X77464690Y-78070000D03*
X77464690Y-77050000D03*
%TD*%
D14*
%TO.C,C17*%
X57712587Y-106500000D03*
X56752587Y-106500000D03*
%TD*%
D11*
%TO.C,C26*%
X67482587Y-100000000D03*
X68442587Y-100000000D03*
%TD*%
D18*
%TO.C,FB4*%
X62225000Y-150955551D03*
X65375000Y-150955551D03*
%TD*%
D19*
%TO.C,R83*%
X72707345Y-67585000D03*
X72707345Y-65935000D03*
%TD*%
D11*
%TO.C,C18*%
X78982587Y-125500000D03*
X79942587Y-125500000D03*
%TD*%
D14*
%TO.C,C12*%
X56692587Y-120500000D03*
X55732587Y-120500000D03*
%TD*%
%TO.C,C25*%
X57729999Y-117750000D03*
X56769999Y-117750000D03*
%TD*%
D13*
%TO.C,C81*%
X52500000Y-72020001D03*
X52500000Y-72980001D03*
%TD*%
D20*
%TO.C,U7*%
X77250000Y-160900000D03*
X77750000Y-160900000D03*
X78250000Y-160900000D03*
X78250000Y-159600000D03*
X77750000Y-159600000D03*
X77250000Y-159600000D03*
%TD*%
D21*
%TO.C,C67*%
X74457345Y-69285000D03*
X74457345Y-67735000D03*
%TD*%
D14*
%TO.C,C70*%
X77187345Y-70510000D03*
X76227345Y-70510000D03*
%TD*%
D22*
%TO.C,Q1*%
X82012500Y-146987500D03*
X82012500Y-148887500D03*
X83887500Y-147937500D03*
%TD*%
D17*
%TO.C,R11*%
X52000000Y-134910000D03*
X52000000Y-133890000D03*
%TD*%
D14*
%TO.C,C10*%
X56692587Y-119500000D03*
X55732587Y-119500000D03*
%TD*%
D21*
%TO.C,C68*%
X76207345Y-69285000D03*
X76207345Y-67735000D03*
%TD*%
D23*
%TO.C,R8*%
X71000000Y-149250000D03*
X69000000Y-149250000D03*
%TD*%
D24*
%TO.C,SW1*%
X54250000Y-135500000D03*
X54250000Y-131300000D03*
%TD*%
D25*
%TO.C,D1*%
X86563316Y-151230950D03*
X88438316Y-151230950D03*
%TD*%
%TO.C,D2*%
X51561823Y-151242050D03*
X53436823Y-151242050D03*
%TD*%
D26*
%TO.C,R43*%
X73000000Y-163300000D03*
X73000000Y-164320000D03*
%TD*%
D10*
%TO.C,C60*%
X60707345Y-77990000D03*
X60707345Y-77030000D03*
%TD*%
D27*
%TO.C,J5*%
X61003371Y-92790000D03*
X53403371Y-92790000D03*
X61003371Y-90250000D03*
X53403371Y-90250000D03*
X61003371Y-87710000D03*
X53403371Y-87710000D03*
%TD*%
D28*
%TO.C,C47*%
X69362500Y-161410000D03*
X72312500Y-161410000D03*
%TD*%
D29*
%TO.C,U13*%
X74697345Y-74660000D03*
X74697345Y-74260000D03*
X74697345Y-73860000D03*
X74697345Y-73460000D03*
X74697345Y-73060000D03*
X74697345Y-72660000D03*
X74697345Y-72260000D03*
X74697345Y-71860000D03*
D30*
X74107345Y-71270000D03*
X73707345Y-71270000D03*
X73307345Y-71270000D03*
X72907345Y-71270000D03*
X72507345Y-71270000D03*
X72107345Y-71270000D03*
X71707345Y-71270000D03*
X71307345Y-71270000D03*
D29*
X70717345Y-71860000D03*
X70717345Y-72260000D03*
X70717345Y-72660000D03*
X70717345Y-73060000D03*
X70717345Y-73460000D03*
X70717345Y-73860000D03*
X70717345Y-74260000D03*
X70717345Y-74660000D03*
D30*
X71307345Y-75250000D03*
X71707345Y-75250000D03*
X72107345Y-75250000D03*
X72507345Y-75250000D03*
X72907345Y-75250000D03*
X73307345Y-75250000D03*
X73707345Y-75250000D03*
X74107345Y-75250000D03*
D31*
X72707345Y-73260000D03*
%TD*%
D11*
%TO.C,C64*%
X64727345Y-80010000D03*
X65687345Y-80010000D03*
%TD*%
%TO.C,C27*%
X82232587Y-105500000D03*
X83192587Y-105500000D03*
%TD*%
D32*
%TO.C,U11*%
X54550001Y-71825001D03*
X54550001Y-73175001D03*
X55449999Y-73175001D03*
X55449999Y-71825001D03*
D33*
X53775000Y-72500001D03*
D34*
X55000000Y-70775001D03*
X55000000Y-74225001D03*
D33*
X56225000Y-72500001D03*
%TD*%
D14*
%TO.C,C14*%
X68942587Y-125500000D03*
X67982587Y-125500000D03*
%TD*%
D32*
%TO.C,U10*%
X84550001Y-71825000D03*
X84550001Y-73175000D03*
X85449999Y-73175000D03*
X85449999Y-71825000D03*
D33*
X83775000Y-72500000D03*
D34*
X85000000Y-70775000D03*
X85000000Y-74225000D03*
D33*
X86225000Y-72500000D03*
%TD*%
D13*
%TO.C,C50*%
X87500000Y-72019883D03*
X87500000Y-72979883D03*
%TD*%
D35*
%TO.C,R80*%
X66782345Y-69760000D03*
X65132345Y-69760000D03*
%TD*%
D17*
%TO.C,R3*%
X76464690Y-78070000D03*
X76464690Y-77050000D03*
%TD*%
%TO.C,R58*%
X72500000Y-128740676D03*
X72500000Y-127720676D03*
%TD*%
%TO.C,R55*%
X68500000Y-128740676D03*
X68500000Y-127720676D03*
%TD*%
D36*
%TO.C,J19*%
X58000000Y-62550000D03*
D37*
X54500000Y-57550000D03*
X54500000Y-62650000D03*
D38*
X61500000Y-54850000D03*
D37*
X54500000Y-54850000D03*
X61500000Y-61350000D03*
D38*
X61500000Y-63550000D03*
%TD*%
D14*
%TO.C,C87*%
X68937345Y-71010000D03*
X67977345Y-71010000D03*
%TD*%
D39*
%TO.C,R17*%
X68990000Y-87750000D03*
X70010000Y-87750000D03*
%TD*%
D40*
%TO.C,U2*%
X59300087Y-104500000D03*
X59300087Y-105000000D03*
X59300087Y-105500000D03*
X59300087Y-106000000D03*
X59300087Y-106500000D03*
X59300087Y-107000000D03*
X59300087Y-107500000D03*
X59300087Y-108000000D03*
X59300087Y-108500000D03*
X59300087Y-109000000D03*
X59300087Y-109500000D03*
X59300087Y-110000000D03*
X59300087Y-110500000D03*
X59300087Y-111000000D03*
X59300087Y-111500000D03*
X59300087Y-112000000D03*
X59300087Y-112500000D03*
X59300087Y-113000000D03*
X59300087Y-113500000D03*
X59300087Y-114000000D03*
X59300087Y-114500000D03*
X59300087Y-115000000D03*
X59300087Y-115500000D03*
X59300087Y-116000000D03*
X59300087Y-116500000D03*
X59300087Y-117000000D03*
X59300087Y-117500000D03*
X59300087Y-118000000D03*
X59300087Y-118500000D03*
X59300087Y-119000000D03*
X59300087Y-119500000D03*
X59300087Y-120000000D03*
X59300087Y-120500000D03*
X59300087Y-121000000D03*
X59300087Y-121500000D03*
X59300087Y-122000000D03*
D41*
X61212587Y-123912500D03*
X61712587Y-123912500D03*
X62212587Y-123912500D03*
X62712587Y-123912500D03*
X63212587Y-123912500D03*
X63712587Y-123912500D03*
X64212587Y-123912500D03*
X64712587Y-123912500D03*
X65212587Y-123912500D03*
X65712587Y-123912500D03*
X66212587Y-123912500D03*
X66712587Y-123912500D03*
X67212587Y-123912500D03*
X67712587Y-123912500D03*
X68212587Y-123912500D03*
X68712587Y-123912500D03*
X69212587Y-123912500D03*
X69712587Y-123912500D03*
X70212587Y-123912500D03*
X70712587Y-123912500D03*
X71212587Y-123912500D03*
X71712587Y-123912500D03*
X72212587Y-123912500D03*
X72712587Y-123912500D03*
X73212587Y-123912500D03*
X73712587Y-123912500D03*
X74212587Y-123912500D03*
X74712587Y-123912500D03*
X75212587Y-123912500D03*
X75712587Y-123912500D03*
X76212587Y-123912500D03*
X76712587Y-123912500D03*
X77212587Y-123912500D03*
X77712587Y-123912500D03*
X78212587Y-123912500D03*
X78712587Y-123912500D03*
D40*
X80625087Y-122000000D03*
X80625087Y-121500000D03*
X80625087Y-121000000D03*
X80625087Y-120500000D03*
X80625087Y-120000000D03*
X80625087Y-119500000D03*
X80625087Y-119000000D03*
X80625087Y-118500000D03*
X80625087Y-118000000D03*
X80625087Y-117500000D03*
X80625087Y-117000000D03*
X80625087Y-116500000D03*
X80625087Y-116000000D03*
X80625087Y-115500000D03*
X80625087Y-115000000D03*
X80625087Y-114500000D03*
X80625087Y-114000000D03*
X80625087Y-113500000D03*
X80625087Y-113000000D03*
X80625087Y-112500000D03*
X80625087Y-112000000D03*
X80625087Y-111500000D03*
X80625087Y-111000000D03*
X80625087Y-110500000D03*
X80625087Y-110000000D03*
X80625087Y-109500000D03*
X80625087Y-109000000D03*
X80625087Y-108500000D03*
X80625087Y-108000000D03*
X80625087Y-107500000D03*
X80625087Y-107000000D03*
X80625087Y-106500000D03*
X80625087Y-106000000D03*
X80625087Y-105500000D03*
X80625087Y-105000000D03*
X80625087Y-104500000D03*
D41*
X78712587Y-102587500D03*
X78212587Y-102587500D03*
X77712587Y-102587500D03*
X77212587Y-102587500D03*
X76712587Y-102587500D03*
X76212587Y-102587500D03*
X75712587Y-102587500D03*
X75212587Y-102587500D03*
X74712587Y-102587500D03*
X74212587Y-102587500D03*
X73712587Y-102587500D03*
X73212587Y-102587500D03*
X72712587Y-102587500D03*
X72212587Y-102587500D03*
X71712587Y-102587500D03*
X71212587Y-102587500D03*
X70712587Y-102587500D03*
X70212587Y-102587500D03*
X69712587Y-102587500D03*
X69212587Y-102587500D03*
X68712587Y-102587500D03*
X68212587Y-102587500D03*
X67712587Y-102587500D03*
X67212587Y-102587500D03*
X66712587Y-102587500D03*
X66212587Y-102587500D03*
X65712587Y-102587500D03*
X65212587Y-102587500D03*
X64712587Y-102587500D03*
X64212587Y-102587500D03*
X63712587Y-102587500D03*
X63212587Y-102587500D03*
X62712587Y-102587500D03*
X62212587Y-102587500D03*
X61712587Y-102587500D03*
X61212587Y-102587500D03*
%TD*%
D14*
%TO.C,C77*%
X68937345Y-70010000D03*
X67977345Y-70010000D03*
%TD*%
D24*
%TO.C,SW2*%
X57750000Y-135500000D03*
X57750000Y-131300000D03*
%TD*%
D11*
%TO.C,C30*%
X69020000Y-86750000D03*
X69980000Y-86750000D03*
%TD*%
D42*
%TO.C,R73*%
X62132345Y-76510000D03*
X63782345Y-76510000D03*
%TD*%
D14*
%TO.C,C72*%
X68937345Y-73260000D03*
X67977345Y-73260000D03*
%TD*%
D17*
%TO.C,R59*%
X71500000Y-128730676D03*
X71500000Y-127710676D03*
%TD*%
D43*
%TO.C,J1*%
X72095000Y-87253874D03*
X72095000Y-88353874D03*
X72095000Y-89453874D03*
X72095000Y-90553874D03*
X72095000Y-91653874D03*
X72095000Y-92753874D03*
X72095000Y-93853874D03*
X72095000Y-94953874D03*
X72095000Y-95903874D03*
D44*
X82595000Y-96853874D03*
D45*
X76395000Y-96853874D03*
D46*
X86745000Y-96853874D03*
D45*
X72095000Y-85703874D03*
D47*
X87195000Y-83353874D03*
%TD*%
D35*
%TO.C,R77*%
X63532345Y-78010000D03*
X61882345Y-78010000D03*
%TD*%
D48*
%TO.C,J9*%
X73110000Y-168460000D03*
X78890000Y-168460000D03*
D49*
X72750000Y-167015000D03*
X73550000Y-167015000D03*
D50*
X74750000Y-167015000D03*
X75750000Y-167015000D03*
X76250000Y-167015000D03*
X77250000Y-167015000D03*
D49*
X78450000Y-167015000D03*
X79250000Y-167015000D03*
X79250000Y-167015000D03*
X78450000Y-167015000D03*
D50*
X77750000Y-167015000D03*
X76750000Y-167015000D03*
X75250000Y-167015000D03*
X74250000Y-167015000D03*
D49*
X73550000Y-167015000D03*
X72750000Y-167015000D03*
D51*
X71680000Y-167930000D03*
D52*
X71680000Y-172110000D03*
D51*
X80320000Y-167930000D03*
D52*
X80320000Y-172110000D03*
%TD*%
D15*
%TO.C,C89*%
X59450000Y-139705551D03*
X57550000Y-139705551D03*
%TD*%
D19*
%TO.C,R82*%
X71207345Y-67585000D03*
X71207345Y-65935000D03*
%TD*%
D35*
%TO.C,R74*%
X63532345Y-79760000D03*
X61882345Y-79760000D03*
%TD*%
D42*
%TO.C,R79*%
X66882345Y-78010000D03*
X68532345Y-78010000D03*
%TD*%
D26*
%TO.C,R10*%
X61712587Y-99990000D03*
X61712587Y-101010000D03*
%TD*%
D14*
%TO.C,C15*%
X73942587Y-125500000D03*
X72982587Y-125500000D03*
%TD*%
D53*
%TO.C,C3*%
X55250000Y-124315000D03*
X55250000Y-126215000D03*
%TD*%
D11*
%TO.C,C65*%
X64727345Y-77760000D03*
X65687345Y-77760000D03*
%TD*%
D17*
%TO.C,R57*%
X69500000Y-128740676D03*
X69500000Y-127720676D03*
%TD*%
D48*
%TO.C,J10*%
X61110000Y-168460000D03*
X66890000Y-168460000D03*
D49*
X60750000Y-167015000D03*
X61550000Y-167015000D03*
D50*
X62750000Y-167015000D03*
X63750000Y-167015000D03*
X64250000Y-167015000D03*
X65250000Y-167015000D03*
D49*
X66450000Y-167015000D03*
X67250000Y-167015000D03*
X67250000Y-167015000D03*
X66450000Y-167015000D03*
D50*
X65750000Y-167015000D03*
X64750000Y-167015000D03*
X63250000Y-167015000D03*
X62250000Y-167015000D03*
D49*
X61550000Y-167015000D03*
X60750000Y-167015000D03*
D51*
X59680000Y-167930000D03*
D52*
X59680000Y-172110000D03*
D51*
X68320000Y-167930000D03*
D52*
X68320000Y-172110000D03*
%TD*%
D15*
%TO.C,C88*%
X60550000Y-150705551D03*
X58650000Y-150705551D03*
%TD*%
D11*
%TO.C,C84*%
X76227345Y-72760000D03*
X77187345Y-72760000D03*
%TD*%
D17*
%TO.C,R75*%
X71750000Y-80510000D03*
X71750000Y-79490000D03*
%TD*%
D14*
%TO.C,C29*%
X69980000Y-90750000D03*
X69020000Y-90750000D03*
%TD*%
D54*
%TO.C,L1*%
X53750000Y-125250000D03*
X53750000Y-124280000D03*
%TD*%
D14*
%TO.C,C7*%
X56692587Y-122500000D03*
X55732587Y-122500000D03*
%TD*%
D55*
%TO.C,R12*%
X70010000Y-93750000D03*
X68990000Y-93750000D03*
%TD*%
D56*
%TO.C,L4*%
X65750000Y-73015000D03*
X65750000Y-73985000D03*
%TD*%
D13*
%TO.C,C19*%
X82212587Y-116270000D03*
X82212587Y-117230000D03*
%TD*%
D10*
%TO.C,C78*%
X69957345Y-69740000D03*
X69957345Y-68780000D03*
%TD*%
D39*
%TO.C,R14*%
X68990000Y-91750000D03*
X70010000Y-91750000D03*
%TD*%
D57*
%TO.C,D9*%
X52704121Y-100272500D03*
X52704121Y-104272500D03*
%TD*%
D58*
%TO.C,C49*%
X65500000Y-156960000D03*
X65500000Y-160560000D03*
%TD*%
D22*
%TO.C,Q4*%
X64450000Y-146905551D03*
X64450000Y-148805551D03*
X66325000Y-147855551D03*
%TD*%
D14*
%TO.C,C5*%
X56692587Y-121500000D03*
X55732587Y-121500000D03*
%TD*%
D13*
%TO.C,C82*%
X51500000Y-72020001D03*
X51500000Y-72980001D03*
%TD*%
D53*
%TO.C,C46*%
X75000000Y-162860000D03*
X75000000Y-164760000D03*
%TD*%
D17*
%TO.C,R9*%
X52000000Y-132910000D03*
X52000000Y-131890000D03*
%TD*%
D59*
%TO.C,D13*%
X66500000Y-164810000D03*
D60*
X66500000Y-163110000D03*
X64500000Y-163110000D03*
X64500000Y-165010000D03*
%TD*%
D42*
%TO.C,R78*%
X66882345Y-79760000D03*
X68532345Y-79760000D03*
%TD*%
D11*
%TO.C,C83*%
X76227345Y-73740000D03*
X77187345Y-73740000D03*
%TD*%
D14*
%TO.C,C85*%
X68957345Y-74260000D03*
X67997345Y-74260000D03*
%TD*%
D42*
%TO.C,R72*%
X62132345Y-81260000D03*
X63782345Y-81260000D03*
%TD*%
D61*
%TO.C,D12*%
X79000000Y-162750000D03*
D62*
X77300000Y-162750000D03*
X77300000Y-164750000D03*
X79200000Y-164750000D03*
%TD*%
D54*
%TO.C,FB2*%
X72750000Y-78485000D03*
X72750000Y-77515000D03*
%TD*%
D25*
%TO.C,D3*%
X69062500Y-151250000D03*
X70937500Y-151250000D03*
%TD*%
D63*
%TO.C,J14*%
X66190000Y-135430676D03*
X66190000Y-131530676D03*
X67460000Y-135430676D03*
X67460000Y-131530676D03*
X68730000Y-135430676D03*
X68730000Y-131530676D03*
X70000000Y-135430676D03*
X70000000Y-131530676D03*
X71270000Y-135430676D03*
X71270000Y-131530676D03*
X72540000Y-135430676D03*
X72540000Y-131530676D03*
X73810000Y-135430676D03*
X73810000Y-131530676D03*
%TD*%
D14*
%TO.C,C16*%
X57712587Y-107500000D03*
X56752587Y-107500000D03*
%TD*%
D36*
%TO.C,J17*%
X70000000Y-62550000D03*
D37*
X66500000Y-57550000D03*
X66500000Y-62650000D03*
D38*
X73500000Y-54850000D03*
D37*
X66500000Y-54850000D03*
X73500000Y-61350000D03*
D38*
X73500000Y-63550000D03*
%TD*%
D13*
%TO.C,C20*%
X82212587Y-103520000D03*
X82212587Y-104480000D03*
%TD*%
D36*
%TO.C,J18*%
X82000000Y-62550000D03*
D37*
X78500000Y-57550000D03*
X78500000Y-62650000D03*
D38*
X85500000Y-54850000D03*
D37*
X78500000Y-54850000D03*
X85500000Y-61350000D03*
D38*
X85500000Y-63550000D03*
%TD*%
D39*
%TO.C,R15*%
X68990000Y-89750000D03*
X70010000Y-89750000D03*
%TD*%
D10*
%TO.C,C58*%
X72750000Y-80480000D03*
X72750000Y-79520000D03*
%TD*%
D23*
%TO.C,R1*%
X88486593Y-149230950D03*
X86486593Y-149230950D03*
%TD*%
D12*
%TO.C,C69*%
X64250000Y-73700000D03*
X64250000Y-71800000D03*
%TD*%
D39*
%TO.C,R16*%
X68990000Y-88750000D03*
X70010000Y-88750000D03*
%TD*%
D10*
%TO.C,C6*%
X57712587Y-112730000D03*
X57712587Y-111770000D03*
%TD*%
D64*
%TO.C,U1*%
X74950000Y-148400000D03*
X77250000Y-148400000D03*
D65*
X77250000Y-142100000D03*
D64*
X79550000Y-148400000D03*
%TD*%
D13*
%TO.C,C51*%
X88500000Y-72020001D03*
X88500000Y-72980001D03*
%TD*%
D17*
%TO.C,R56*%
X67500000Y-128740676D03*
X67500000Y-127720676D03*
%TD*%
D23*
%TO.C,R2*%
X53499323Y-149242050D03*
X51499323Y-149242050D03*
%TD*%
D26*
%TO.C,R7*%
X57712587Y-115750000D03*
X57712587Y-116770000D03*
%TD*%
D14*
%TO.C,C74*%
X68937345Y-72010000D03*
X67977345Y-72010000D03*
%TD*%
D13*
%TO.C,C57*%
X60707345Y-79780000D03*
X60707345Y-80740000D03*
%TD*%
D11*
%TO.C,C21*%
X72482587Y-101000000D03*
X73442587Y-101000000D03*
%TD*%
D14*
%TO.C,C11*%
X62442587Y-125500000D03*
X61482587Y-125500000D03*
%TD*%
D66*
%TO.C,Y1*%
X54612587Y-113900000D03*
X54612587Y-116100000D03*
X56312587Y-116100000D03*
X56312587Y-113900000D03*
%TD*%
D14*
%TO.C,C23*%
X60692587Y-100500000D03*
X59732587Y-100500000D03*
%TD*%
D53*
%TO.C,C4*%
X57250000Y-124315000D03*
X57250000Y-126215000D03*
%TD*%
D17*
%TO.C,R45*%
X61750000Y-163760000D03*
X61750000Y-162740000D03*
%TD*%
D19*
%TO.C,R81*%
X69707345Y-67585000D03*
X69707345Y-65935000D03*
%TD*%
D67*
%TO.C,U8*%
X71500000Y-159310000D03*
X71500000Y-158360000D03*
X71500000Y-157410000D03*
X69225000Y-157410000D03*
X69225000Y-159310000D03*
%TD*%
D17*
%TO.C,R46*%
X62750000Y-163760000D03*
X62750000Y-162740000D03*
%TD*%
D10*
%TO.C,C79*%
X71207345Y-69740000D03*
X71207345Y-68780000D03*
%TD*%
D13*
%TO.C,C8*%
X57712587Y-118770000D03*
X57712587Y-119730000D03*
%TD*%
D68*
%TO.C,U14*%
X57450000Y-148355551D03*
X59750000Y-148355551D03*
D69*
X59750000Y-142055551D03*
D68*
X62050000Y-148355551D03*
%TD*%
D26*
%TO.C,R44*%
X72000000Y-163300000D03*
X72000000Y-164320000D03*
%TD*%
D14*
%TO.C,C9*%
X55692587Y-112250000D03*
X54732587Y-112250000D03*
%TD*%
D11*
%TO.C,C22*%
X67482587Y-101000000D03*
X68442587Y-101000000D03*
%TD*%
D10*
%TO.C,C61*%
X71750000Y-78480000D03*
X71750000Y-77520000D03*
%TD*%
D70*
%TO.C,C48*%
X75000000Y-160785000D03*
X75000000Y-157835000D03*
%TD*%
D39*
%TO.C,R13*%
X68990000Y-92750000D03*
X70010000Y-92750000D03*
%TD*%
D16*
%TO.C,C63*%
X65607345Y-81760000D03*
X68307345Y-81760000D03*
%TD*%
D13*
%TO.C,C24*%
X77962587Y-125520000D03*
X77962587Y-126480000D03*
%TD*%
D18*
%TO.C,FB1*%
X79675000Y-151000000D03*
X82825000Y-151000000D03*
%TD*%
D15*
%TO.C,C2*%
X77200000Y-139750000D03*
X75300000Y-139750000D03*
%TD*%
D17*
%TO.C,R54*%
X70500000Y-128740676D03*
X70500000Y-127720676D03*
%TD*%
D71*
%TO.C,J15*%
X75080000Y-133480676D03*
X64920000Y-134496676D03*
X64920000Y-132464676D03*
%TD*%
M02*
