M48
; DRILL file {KiCad 8.0.1} date 2024-03-28T17:00:14+0100
; FORMAT={-:-/ absolute / inch / decimal}
; #@! TF.CreationDate,2024-03-28T17:00:14+01:00
; #@! TF.GenerationSoftware,Kicad,Pcbnew,8.0.1
; #@! TF.FileFunction,Plated,1,6,PTH
FMAT,2
INCH
; #@! TA.AperFunction,Plated,PTH,ViaDrill
T1C0.0118
; #@! TA.AperFunction,Plated,PTH,ViaDrill
T2C0.0157
; #@! TA.AperFunction,Plated,PTH,ComponentDrill
T3C0.0236
%
G90
G05
T1
X2.0472Y-2.8051
X2.0472Y-2.9035
X2.0472Y-4.2224
X2.0472Y-4.8327
X2.0571Y-3.7106
X2.0866Y-3.5138
X2.0866Y-3.7303
X2.0866Y-4.5079
X2.0866Y-4.6063
X2.0866Y-4.7047
X2.0866Y-4.9311
X2.0866Y-5.0098
X2.0866Y-5.3114
X2.0866Y-5.1969
X2.1026Y-4.797
X2.103Y-2.7728
X2.1063Y-5.8169
X2.1161Y-2.9232
X2.1161Y-4.4094
X2.1243Y-2.7933
X2.126Y-4.1057
X2.126Y-4.1339
X2.126Y-4.2323
X2.126Y-4.626
X2.1358Y-2.2047
X2.1358Y-4.0354
X2.1642Y-4.0276
X2.1654Y-4.7244
X2.1654Y-4.8031
X2.1752Y-2.6378
X2.1752Y-4.7638
X2.1752Y-5.4134
X2.1789Y-4.3664
X2.1892Y-4.2183
X2.1949Y-4.6654
X2.195Y-3.9445
X2.1977Y-4.1187
X2.1978Y-4.4148
X2.1984Y-4.1564
X2.2047Y-4.252
X2.2047Y-6.3484
X2.2146Y-2.7756
X2.2146Y-4.2815
X2.2146Y-4.9311
X2.2244Y-2.9232
X2.2244Y-3.4547
X2.2313Y-4.314
X2.2343Y-4.2618
X2.2343Y-4.6752
X2.2384Y-4.1682
X2.2441Y-4.4291
X2.2539Y-5.5709
X2.2598Y-4.134
X2.2618Y-5.7776
X2.2638Y-4.5079
X2.2721Y-4.7343
X2.2736Y-5.2067
X2.2863Y-4.3238
X2.2933Y-3.7106
X2.3031Y-3.3268
X2.3031Y-5.9843
X2.3228Y-5.0098
X2.3228Y-3.6024
X2.3276Y-3.8079
X2.3495Y-2.7924
X2.3524Y-3.9272
X2.3524Y-6.5453
X2.3622Y-4.0059
X2.3674Y-4.0332
X2.3761Y-4.12
X2.3797Y-4.4403
X2.3819Y-2.7559
X2.3819Y-4.2323
X2.3819Y-4.6063
X2.3831Y-4.3295
X2.3873Y-4.8327
X2.3951Y-4.2096
X2.3953Y-3.1458
X2.3957Y-4.3961
X2.4016Y-3.622
X2.4016Y-3.9272
X2.4043Y-4.5944
X2.4053Y-4.2701
X2.4073Y-4.1535
X2.4114Y-4.3012
X2.4114Y-4.7695
X2.412Y-4.1855
X2.4134Y-3.8701
X2.4185Y-4.3429
X2.4204Y-4.6897
X2.4213Y-4.0846
X2.4213Y-4.7343
X2.4213Y-4.9705
X2.4268Y-4.6512
X2.4409Y-2.7953
X2.4508Y-6.5059
X2.451Y-4.3367
X2.4606Y-4.9705
X2.4625Y-4.3597
X2.4858Y-6.5101
X2.4902Y-4.3898
X2.4902Y-4.4193
X2.4902Y-4.4587
X2.4902Y-4.3602
X2.5Y-2.5591
X2.5098Y-4.3406
X2.5115Y-6.437
X2.5197Y-3.2972
X2.5197Y-4.6555
X2.5228Y-6.6207
X2.5295Y-2.5098
X2.5295Y-6.2992
X2.5394Y-4.1535
X2.5492Y-4.9803
X2.5557Y-4.1001
X2.5591Y-2.7854
X2.5615Y-6.624
X2.5689Y-2.8248
X2.5689Y-3.2874
X2.5787Y-2.6181
X2.5787Y-4.9803
X2.5787Y-5.2559
X2.5804Y-6.4217
X2.5882Y-3.474
X2.5886Y-4.5866
X2.5886Y-2.5886
X2.5886Y-4.4562
X2.5975Y-4.3341
X2.5984Y-2.2047
X2.5984Y-3.2677
X2.5984Y-4.3972
X2.5984Y-4.4267
X2.5984Y-5.7776
X2.5984Y-6.0335
X2.6013Y-4.0797
X2.6018Y-4.3634
X2.6021Y-4.1101
X2.622Y-4.8317
X2.6247Y-3.2448
X2.6247Y-4.1842
X2.628Y-2.874
X2.6288Y-3.4654
X2.633Y-5.0758
X2.6341Y-3.9537
X2.6374Y-3.4248
X2.6415Y-6.4801
X2.6476Y-2.7957
X2.6476Y-2.8346
X2.6476Y-2.9035
X2.6476Y-3.3563
X2.6489Y-4.1673
X2.6575Y-4.9606
X2.6575Y-3.2776
X2.6575Y-5.4035
X2.6575Y-6.2697
X2.6608Y-5.0067
X2.6673Y-3.0512
X2.6673Y-3.1398
X2.6673Y-4.4291
X2.6673Y-6.0335
X2.6772Y-5.1083
X2.6805Y-4.4027
X2.687Y-3.4744
X2.687Y-3.5138
X2.687Y-3.5531
X2.687Y-3.5925
X2.687Y-3.6319
X2.687Y-3.6713
X2.687Y-6.5453
X2.6917Y-3.4525
X2.6969Y-4.983
X2.7067Y-2.5886
X2.709Y-4.3947
X2.7165Y-3.9567
X2.7165Y-5.1083
X2.7208Y-4.8322
X2.7215Y-3.3514
X2.7264Y-5.3839
X2.7362Y-4.3839
X2.7362Y-4.4882
X2.7376Y-4.9324
X2.7406Y-2.8765
X2.7418Y-2.9192
X2.7431Y-3.9109
X2.7446Y-2.8452
X2.7461Y-5.0984
X2.749Y-4.9914
X2.7503Y-4.8346
X2.7546Y-3.9511
X2.7594Y-4.4499
X2.7657Y-6.2303
X2.7672Y-4.8122
X2.7725Y-4.4848
X2.7726Y-3.5697
X2.7726Y-3.9115
X2.7756Y-6.2697
X2.7766Y-2.7942
X2.7843Y-3.9881
X2.7854Y-4.439
X2.7854Y-5.1083
X2.7941Y-3.634
X2.7953Y-3.376
X2.7953Y-3.4547
X2.7953Y-3.4992
X2.7953Y-3.5433
X2.7953Y-3.7008
X2.7953Y-3.75
X2.7953Y-5.8268
X2.7953Y-6.0039
X2.7997Y-3.9629
X2.8114Y-2.7714
X2.8195Y-4.79
X2.8248Y-4.7638
X2.8248Y-6.5551
X2.8316Y-3.0207
X2.8346Y-2.5492
X2.8346Y-5.3937
X2.8396Y-4.8106
X2.8405Y-2.7766
X2.8445Y-3.9075
X2.8445Y-4.9409
X2.8445Y-6.4075
X2.8449Y-5.098
X2.8625Y-2.8843
X2.8642Y-5.3937
X2.8642Y-3.9469
X2.8646Y-3.0217
X2.8703Y-3.205
X2.874Y-3.6713
X2.874Y-3.7757
X2.874Y-5.0984
X2.8839Y-3.5433
X2.8839Y-3.5728
X2.8839Y-3.695
X2.8839Y-3.7402
X2.887Y-3.0084
X2.9019Y-3.2005
X2.9035Y-3.9469
X2.9097Y-2.5947
X2.9134Y-3.0217
X2.9232Y-2.5492
X2.9247Y-4.0838
X2.9342Y-2.799
X2.9373Y-2.6312
X2.9429Y-3.0081
X2.9429Y-4.9409
X2.9429Y-5.9252
X2.9502Y-4.0945
X2.9528Y-6.2697
X2.9528Y-6.447
X2.9635Y-2.9696
X2.9656Y-4.1339
X2.9724Y-2.8248
X2.9724Y-2.874
X2.9823Y-2.5
X2.9921Y-2.9712
X2.9921Y-6.626
X3.0Y-5.502
X3.002Y-2.628
X3.002Y-3.7795
X3.002Y-4.9311
X3.0031Y-6.3488
X3.0101Y-2.9218
X3.0138Y-6.3898
X3.0139Y-6.3142
X3.0217Y-6.626
X3.0315Y-2.5787
X3.0315Y-3.1004
X3.0315Y-4.9606
X3.0413Y-6.2303
X3.0561Y-6.2018
X3.061Y-6.3681
X3.061Y-6.4665
X3.0709Y-2.8248
X3.0709Y-2.8642
X3.0709Y-2.9035
X3.0807Y-4.5148
X3.0906Y-6.3681
X3.0957Y-4.4893
X3.1004Y-4.7638
X3.1022Y-4.4605
X3.1102Y-4.9705
X3.1201Y-6.437
X3.1256Y-4.5079
X3.1299Y-4.6654
X3.1299Y-4.7441
X3.1398Y-4.9705
X3.1594Y-5.2559
X3.1594Y-6.5453
X3.1791Y-6.0236
X3.2382Y-3.0315
X3.2382Y-5.7382
X3.2411Y-5.8169
X3.2677Y-4.3602
X3.2677Y-4.3996
X3.2677Y-4.5768
X3.2677Y-4.6161
X3.2776Y-4.0748
X3.2776Y-4.1142
X3.2776Y-5.2461
X3.2776Y-5.4331
X3.2871Y-2.7757
X3.2874Y-4.7441
X3.2972Y-2.9232
X3.3054Y-2.7933
X3.3071Y-4.7638
X3.3169Y-4.188
X3.3169Y-4.2175
X3.3169Y-6.3484
X3.3268Y-2.6378
X3.3268Y-2.9429
X3.3268Y-3.9567
X3.3465Y-3.061
X3.3661Y-5.6791
X3.3661Y-5.7677
X3.3858Y-2.2047
X3.3858Y-5.2461
X3.396Y-2.7775
X3.3991Y-2.9232
X3.4055Y-3.3268
X3.4055Y-3.9075
X3.437Y-3.7715
X3.4449Y-5.5217
X3.4646Y-2.8051
X3.4646Y-2.9035
X3.4837Y-5.8268
T2
X2.5492Y-6.0827
T3
G00X2.3496Y-6.5898
M15
G01X2.3496Y-6.6331
M16
G05
G00X2.3496Y-6.7642
M15
G01X2.3496Y-6.7878
M16
G05
G00X2.6898Y-6.5898
M15
G01X2.6898Y-6.6331
M16
G05
G00X2.6898Y-6.7642
M15
G01X2.6898Y-6.7878
M16
G05
G00X2.822Y-6.5898
M15
G01X2.822Y-6.6331
M16
G05
G00X2.822Y-6.7642
M15
G01X2.822Y-6.7878
M16
G05
G00X3.1622Y-6.5898
M15
G01X3.1622Y-6.6331
M16
G05
G00X3.1622Y-6.7642
M15
G01X3.1622Y-6.7878
M16
G05
M30
