%TF.GenerationSoftware,KiCad,Pcbnew,8.0.1*%
%TF.CreationDate,2024-03-17T21:56:14+01:00*%
%TF.ProjectId,KLST_CATERPILLAR,4b4c5354-5f43-4415-9445-5250494c4c41,rev?*%
%TF.SameCoordinates,Original*%
%TF.FileFunction,Legend,Bot*%
%TF.FilePolarity,Positive*%
%FSLAX46Y46*%
G04 Gerber Fmt 4.6, Leading zero omitted, Abs format (unit mm)*
G04 Created by KiCad (PCBNEW 8.0.1) date 2024-03-17 21:56:14*
%MOMM*%
%LPD*%
G01*
G04 APERTURE LIST*
%ADD10C,0.150000*%
%ADD11C,0.062500*%
%ADD12C,0.120000*%
%ADD13C,0.750000*%
%ADD14C,1.600000*%
%ADD15C,0.650000*%
%ADD16O,1.000000X2.100000*%
%ADD17O,1.000000X1.600000*%
%ADD18C,1.500000*%
%ADD19R,3.500000X1.020000*%
%ADD20C,0.990000*%
%ADD21C,0.787000*%
G04 APERTURE END LIST*
D10*
G36*
X66932989Y-166159856D02*
G01*
X67019708Y-166144174D01*
X67079596Y-166104290D01*
X67124180Y-166031020D01*
X67134734Y-165959821D01*
X67120949Y-165875084D01*
X67079596Y-165808085D01*
X67005860Y-165760736D01*
X66932989Y-165749528D01*
X66846390Y-165766054D01*
X66786810Y-165808085D01*
X66741880Y-165884706D01*
X66731245Y-165959821D01*
X66746927Y-166044660D01*
X66786810Y-166104290D01*
X66860200Y-166149220D01*
X66932989Y-166159856D01*
G37*
G36*
X65464357Y-166159856D02*
G01*
X65551076Y-166144174D01*
X65610964Y-166104290D01*
X65655548Y-166031020D01*
X65666101Y-165959821D01*
X65652317Y-165875084D01*
X65610964Y-165808085D01*
X65537228Y-165760736D01*
X65464357Y-165749528D01*
X65377758Y-165766054D01*
X65318178Y-165808085D01*
X65273248Y-165884706D01*
X65262612Y-165959821D01*
X65278294Y-166044660D01*
X65318178Y-166104290D01*
X65391568Y-166149220D01*
X65464357Y-166159856D01*
G37*
G36*
X63995725Y-166159856D02*
G01*
X64082444Y-166144174D01*
X64142331Y-166104290D01*
X64186916Y-166031020D01*
X64197469Y-165959821D01*
X64183685Y-165875084D01*
X64142331Y-165808085D01*
X64068596Y-165760736D01*
X63995725Y-165749528D01*
X63909126Y-165766054D01*
X63849545Y-165808085D01*
X63804616Y-165884706D01*
X63793980Y-165959821D01*
X63809662Y-166044660D01*
X63849545Y-166104290D01*
X63922936Y-166149220D01*
X63995725Y-166159856D01*
G37*
G36*
X62527092Y-166159856D02*
G01*
X62613812Y-166144174D01*
X62673699Y-166104290D01*
X62718283Y-166031020D01*
X62728837Y-165959821D01*
X62715053Y-165875084D01*
X62673699Y-165808085D01*
X62599963Y-165760736D01*
X62527092Y-165749528D01*
X62440494Y-165766054D01*
X62380913Y-165808085D01*
X62335983Y-165884706D01*
X62325348Y-165959821D01*
X62341030Y-166044660D01*
X62380913Y-166104290D01*
X62454303Y-166149220D01*
X62527092Y-166159856D01*
G37*
G36*
X61058460Y-166159856D02*
G01*
X61145179Y-166144174D01*
X61205067Y-166104290D01*
X61249651Y-166031020D01*
X61260205Y-165959821D01*
X61246420Y-165875084D01*
X61205067Y-165808085D01*
X61131331Y-165760736D01*
X61058460Y-165749528D01*
X60971862Y-165766054D01*
X60912281Y-165808085D01*
X60867351Y-165884706D01*
X60856716Y-165959821D01*
X60872398Y-166044660D01*
X60912281Y-166104290D01*
X60985671Y-166149220D01*
X61058460Y-166159856D01*
G37*
G36*
X66932989Y-169099856D02*
G01*
X67019708Y-169084174D01*
X67079596Y-169044290D01*
X67124180Y-168971020D01*
X67134734Y-168899821D01*
X67120949Y-168815084D01*
X67079596Y-168748085D01*
X67005860Y-168700736D01*
X66932989Y-168689528D01*
X66846390Y-168706054D01*
X66786810Y-168748085D01*
X66741880Y-168824706D01*
X66731245Y-168899821D01*
X66746927Y-168984660D01*
X66786810Y-169044290D01*
X66860200Y-169089220D01*
X66932989Y-169099856D01*
G37*
G36*
X65464357Y-169099856D02*
G01*
X65551076Y-169084174D01*
X65610964Y-169044290D01*
X65655548Y-168971020D01*
X65666101Y-168899821D01*
X65652317Y-168815084D01*
X65610964Y-168748085D01*
X65537228Y-168700736D01*
X65464357Y-168689528D01*
X65377758Y-168706054D01*
X65318178Y-168748085D01*
X65273248Y-168824706D01*
X65262612Y-168899821D01*
X65278294Y-168984660D01*
X65318178Y-169044290D01*
X65391568Y-169089220D01*
X65464357Y-169099856D01*
G37*
G36*
X63995725Y-169099856D02*
G01*
X64082444Y-169084174D01*
X64142331Y-169044290D01*
X64186916Y-168971020D01*
X64197469Y-168899821D01*
X64183685Y-168815084D01*
X64142331Y-168748085D01*
X64068596Y-168700736D01*
X63995725Y-168689528D01*
X63909126Y-168706054D01*
X63849545Y-168748085D01*
X63804616Y-168824706D01*
X63793980Y-168899821D01*
X63809662Y-168984660D01*
X63849545Y-169044290D01*
X63922936Y-169089220D01*
X63995725Y-169099856D01*
G37*
G36*
X62527092Y-169099856D02*
G01*
X62613812Y-169084174D01*
X62673699Y-169044290D01*
X62718283Y-168971020D01*
X62728837Y-168899821D01*
X62715053Y-168815084D01*
X62673699Y-168748085D01*
X62599963Y-168700736D01*
X62527092Y-168689528D01*
X62440494Y-168706054D01*
X62380913Y-168748085D01*
X62335983Y-168824706D01*
X62325348Y-168899821D01*
X62341030Y-168984660D01*
X62380913Y-169044290D01*
X62454303Y-169089220D01*
X62527092Y-169099856D01*
G37*
G36*
X61058460Y-169099856D02*
G01*
X61145179Y-169084174D01*
X61205067Y-169044290D01*
X61249651Y-168971020D01*
X61260205Y-168899821D01*
X61246420Y-168815084D01*
X61205067Y-168748085D01*
X61131331Y-168700736D01*
X61058460Y-168689528D01*
X60971862Y-168706054D01*
X60912281Y-168748085D01*
X60867351Y-168824706D01*
X60856716Y-168899821D01*
X60872398Y-168984660D01*
X60912281Y-169044290D01*
X60985671Y-169089220D01*
X61058460Y-169099856D01*
G37*
G36*
X66932989Y-172039856D02*
G01*
X67019708Y-172024174D01*
X67079596Y-171984290D01*
X67124180Y-171911020D01*
X67134734Y-171839821D01*
X67120949Y-171755084D01*
X67079596Y-171688085D01*
X67005860Y-171640736D01*
X66932989Y-171629528D01*
X66846390Y-171646054D01*
X66786810Y-171688085D01*
X66741880Y-171764706D01*
X66731245Y-171839821D01*
X66746927Y-171924660D01*
X66786810Y-171984290D01*
X66860200Y-172029220D01*
X66932989Y-172039856D01*
G37*
G36*
X65973847Y-172012501D02*
G01*
X65973847Y-170207057D01*
X65752441Y-170207057D01*
X65752441Y-170973003D01*
X65176272Y-170973003D01*
X65176272Y-170207057D01*
X64954866Y-170207057D01*
X64954866Y-172012501D01*
X65176272Y-172012501D01*
X65176272Y-171172183D01*
X65752441Y-171172183D01*
X65752441Y-172012501D01*
X65973847Y-172012501D01*
G37*
G36*
X64054422Y-170181913D02*
G01*
X64149590Y-170196420D01*
X64235144Y-170224467D01*
X64311086Y-170266053D01*
X64377415Y-170321180D01*
X64425060Y-170378371D01*
X64468186Y-170455958D01*
X64497896Y-170545244D01*
X64512682Y-170631086D01*
X64517611Y-170725524D01*
X64517611Y-171494034D01*
X64514188Y-171573216D01*
X64501044Y-171660411D01*
X64473252Y-171751351D01*
X64432042Y-171830673D01*
X64377415Y-171898378D01*
X64331018Y-171939136D01*
X64257823Y-171984591D01*
X64175015Y-172016506D01*
X64082594Y-172034882D01*
X63995725Y-172039856D01*
X63937034Y-172037645D01*
X63841910Y-172023138D01*
X63756440Y-171995091D01*
X63680624Y-171953505D01*
X63614462Y-171898378D01*
X63566672Y-171841056D01*
X63523414Y-171763394D01*
X63493614Y-171674113D01*
X63478783Y-171588341D01*
X63475206Y-171520107D01*
X63695245Y-171520107D01*
X63701398Y-171601082D01*
X63725632Y-171684899D01*
X63773036Y-171757328D01*
X63821929Y-171797618D01*
X63903845Y-171830827D01*
X63995725Y-171840676D01*
X64055135Y-171836687D01*
X64142800Y-171811292D01*
X64217558Y-171757328D01*
X64262334Y-171691693D01*
X64288524Y-171609390D01*
X64296204Y-171520107D01*
X64296204Y-170699451D01*
X64289983Y-170618476D01*
X64265483Y-170534659D01*
X64217558Y-170462230D01*
X64168042Y-170421940D01*
X64086347Y-170388731D01*
X63995725Y-170378882D01*
X63935397Y-170382871D01*
X63847111Y-170408266D01*
X63773036Y-170462230D01*
X63728747Y-170527865D01*
X63702842Y-170610168D01*
X63695245Y-170699451D01*
X63695245Y-171520107D01*
X63475206Y-171520107D01*
X63473839Y-171494034D01*
X63473839Y-170722959D01*
X63477272Y-170644403D01*
X63490455Y-170557850D01*
X63518333Y-170467506D01*
X63559668Y-170388616D01*
X63614462Y-170321180D01*
X63660735Y-170280422D01*
X63733793Y-170234967D01*
X63816505Y-170203052D01*
X63908871Y-170184676D01*
X63995725Y-170179702D01*
X64054422Y-170181913D01*
G37*
G36*
X62517262Y-172039856D02*
G01*
X62611469Y-172034972D01*
X62698223Y-172020321D01*
X62790016Y-171990883D01*
X62871664Y-171948151D01*
X62933574Y-171900943D01*
X62993863Y-171835011D01*
X63039345Y-171759139D01*
X63070018Y-171673328D01*
X63085884Y-171577576D01*
X63088301Y-171518397D01*
X62866895Y-171518397D01*
X62857545Y-171606537D01*
X62825662Y-171688642D01*
X62771152Y-171755191D01*
X62697762Y-171803860D01*
X62609826Y-171832328D01*
X62517262Y-171840676D01*
X62427903Y-171831952D01*
X62343493Y-171802204D01*
X62273629Y-171751344D01*
X62218151Y-171676711D01*
X62189789Y-171594887D01*
X62182588Y-171518397D01*
X62193632Y-171428509D01*
X62226766Y-171349584D01*
X62240290Y-171329048D01*
X62300515Y-171268098D01*
X62380212Y-171226620D01*
X62406559Y-171218345D01*
X62679683Y-171141408D01*
X62760199Y-171111756D01*
X62839923Y-171066773D01*
X62908152Y-171009484D01*
X62947251Y-170964454D01*
X62994153Y-170888949D01*
X63025705Y-170806209D01*
X63041908Y-170716233D01*
X63044277Y-170663120D01*
X63038016Y-170576742D01*
X63016665Y-170489536D01*
X62980163Y-170410512D01*
X62930024Y-170341043D01*
X62861502Y-170278391D01*
X62800644Y-170240397D01*
X62716919Y-170205841D01*
X62625011Y-170185629D01*
X62534359Y-170179702D01*
X62442496Y-170185629D01*
X62357645Y-170203411D01*
X62272409Y-170236662D01*
X62265081Y-170240397D01*
X62190575Y-170287730D01*
X62128090Y-170346276D01*
X62081716Y-170409229D01*
X62043753Y-170487271D01*
X62021549Y-170573292D01*
X62015037Y-170658418D01*
X62236443Y-170658418D01*
X62248224Y-170572205D01*
X62287576Y-170493323D01*
X62320219Y-170457101D01*
X62395975Y-170406457D01*
X62479553Y-170382625D01*
X62534359Y-170378882D01*
X62625480Y-170389882D01*
X62708459Y-170426623D01*
X62746361Y-170457101D01*
X62798942Y-170527925D01*
X62824717Y-170613986D01*
X62827572Y-170658846D01*
X62815927Y-170745612D01*
X62777832Y-170824499D01*
X62774571Y-170828961D01*
X62710778Y-170888693D01*
X62631369Y-170925089D01*
X62625400Y-170926841D01*
X62345009Y-171005915D01*
X62260059Y-171036208D01*
X62185152Y-171077508D01*
X62112889Y-171137127D01*
X62065473Y-171193127D01*
X62017332Y-171274568D01*
X61984946Y-171364055D01*
X61969385Y-171450355D01*
X61965883Y-171519252D01*
X61971158Y-171605134D01*
X61990644Y-171696746D01*
X62024487Y-171779113D01*
X62072689Y-171852235D01*
X62115910Y-171898805D01*
X62186393Y-171953765D01*
X62266572Y-171995227D01*
X62356445Y-172023189D01*
X62441195Y-172036412D01*
X62517262Y-172039856D01*
G37*
G36*
X61169163Y-172012501D02*
G01*
X61169163Y-170406237D01*
X61661557Y-170406237D01*
X61661557Y-170207057D01*
X60455364Y-170207057D01*
X60455364Y-170406237D01*
X60947757Y-170406237D01*
X60947757Y-172012501D01*
X61169163Y-172012501D01*
G37*
D11*
G36*
X85157710Y-148398098D02*
G01*
X85157710Y-147807030D01*
X83982902Y-147807030D01*
X83982902Y-148398098D01*
X85157710Y-148398098D01*
G37*
G36*
X85741450Y-147223290D02*
G01*
X85741450Y-146639549D01*
X85157710Y-146639549D01*
X85157710Y-147223290D01*
X85741450Y-147223290D01*
G37*
G36*
X85741450Y-145464741D02*
G01*
X85741450Y-144881001D01*
X84566642Y-144881001D01*
X84566642Y-144289933D01*
X85741450Y-144289933D01*
X85741450Y-143706193D01*
X84566642Y-143706193D01*
X84566642Y-143122452D01*
X86325190Y-143122452D01*
X86325190Y-148398098D01*
X86916258Y-148398098D01*
X86916258Y-144881001D01*
X87499999Y-144881001D01*
X87499999Y-144289933D01*
X86916258Y-144289933D01*
X86916258Y-143122452D01*
X86325190Y-143122452D01*
X86325190Y-141947644D01*
X85741450Y-141947644D01*
X85741450Y-142531385D01*
X84566642Y-142531385D01*
X84566642Y-141363904D01*
X83982902Y-141363904D01*
X83982902Y-142531385D01*
X83399161Y-142531385D01*
X83399161Y-143122452D01*
X83982902Y-143122452D01*
X83982902Y-143706193D01*
X82808093Y-143706193D01*
X82808093Y-141363904D01*
X82224353Y-141363904D01*
X82224353Y-142531385D01*
X81049545Y-142531385D01*
X81049545Y-146048482D01*
X81640613Y-146048482D01*
X81640613Y-147223290D01*
X81049545Y-147223290D01*
X81049545Y-148398098D01*
X81640613Y-148398098D01*
X81640613Y-147223290D01*
X82224353Y-147223290D01*
X82224353Y-147807030D01*
X82808093Y-147807030D01*
X82808093Y-148398098D01*
X83399161Y-148398098D01*
X83399161Y-147807030D01*
X82808093Y-147807030D01*
X82808093Y-147223290D01*
X82224353Y-147223290D01*
X82224353Y-146048482D01*
X81640613Y-146048482D01*
X81640613Y-143122452D01*
X82224353Y-143122452D01*
X82224353Y-144289933D01*
X83982902Y-144289933D01*
X83982902Y-144881001D01*
X82224353Y-144881001D01*
X82224353Y-146048482D01*
X82808093Y-146048482D01*
X82808093Y-145464741D01*
X84566642Y-145464741D01*
X84566642Y-146048482D01*
X83399161Y-146048482D01*
X83399161Y-147807030D01*
X83982902Y-147807030D01*
X83982902Y-146639549D01*
X85157710Y-146639549D01*
X85157710Y-145464741D01*
X85741450Y-145464741D01*
G37*
G36*
X75224353Y-148398098D02*
G01*
X74049545Y-148398098D01*
X74049545Y-147807030D01*
X75224353Y-147807030D01*
X75224353Y-148398098D01*
G37*
G36*
X78157710Y-144289933D02*
G01*
X78741450Y-144289933D01*
X78741450Y-141947644D01*
X79325190Y-141947644D01*
X79325190Y-148398098D01*
X76982902Y-148398098D01*
X76982902Y-147807030D01*
X75224353Y-147807030D01*
X75224353Y-147223290D01*
X76982902Y-147223290D01*
X76982902Y-147807030D01*
X78741450Y-147807030D01*
X78741450Y-146048482D01*
X78157710Y-146048482D01*
X78157710Y-146639549D01*
X77566642Y-146639549D01*
X77566642Y-147223290D01*
X76982902Y-147223290D01*
X76982902Y-146639549D01*
X77566642Y-146639549D01*
X77566642Y-146048482D01*
X75224353Y-146048482D01*
X75224353Y-147223290D01*
X74640613Y-147223290D01*
X74640613Y-146048482D01*
X74049545Y-146048482D01*
X74049545Y-144881001D01*
X74640613Y-144881001D01*
X74640613Y-145464741D01*
X75224353Y-145464741D01*
X75224353Y-144881001D01*
X75808093Y-144881001D01*
X75808093Y-145464741D01*
X76982902Y-145464741D01*
X76982902Y-144881001D01*
X77566642Y-144881001D01*
X77566642Y-145464741D01*
X78741450Y-145464741D01*
X78741450Y-144881001D01*
X77566642Y-144881001D01*
X76982902Y-144881001D01*
X75808093Y-144881001D01*
X75224353Y-144881001D01*
X74640613Y-144881001D01*
X74049545Y-144881001D01*
X74049545Y-144289933D01*
X74640613Y-144289933D01*
X74640613Y-143706193D01*
X75224353Y-143706193D01*
X75224353Y-144289933D01*
X77566642Y-144289933D01*
X77566642Y-143706193D01*
X75224353Y-143706193D01*
X74640613Y-143706193D01*
X74640613Y-142531385D01*
X75224353Y-142531385D01*
X75224353Y-143122452D01*
X77566642Y-143122452D01*
X77566642Y-142531385D01*
X75224353Y-142531385D01*
X74640613Y-142531385D01*
X74640613Y-141947644D01*
X78157710Y-141947644D01*
X78157710Y-144289933D01*
G37*
G36*
X80499999Y-146639549D02*
G01*
X79916258Y-146639549D01*
X79916258Y-143706193D01*
X80499999Y-143706193D01*
X80499999Y-146639549D01*
G37*
G36*
X68224353Y-148398098D02*
G01*
X71157710Y-148398098D01*
X71157710Y-147807030D01*
X68224353Y-147807030D01*
X68224353Y-148398098D01*
G37*
G36*
X71157710Y-147807030D02*
G01*
X71741450Y-147807030D01*
X71741450Y-147223290D01*
X71157710Y-147223290D01*
X71157710Y-147807030D01*
G37*
G36*
X71741450Y-147223290D02*
G01*
X72325190Y-147223290D01*
X72325190Y-146048482D01*
X71741450Y-146048482D01*
X71741450Y-147223290D01*
G37*
G36*
X71741450Y-146048482D02*
G01*
X71741450Y-145464741D01*
X71157710Y-145464741D01*
X71157710Y-146048482D01*
X71741450Y-146048482D01*
G37*
G36*
X69982902Y-145464741D02*
G01*
X71157710Y-145464741D01*
X71157710Y-144881001D01*
X70566642Y-144881001D01*
X70566642Y-143706193D01*
X69982902Y-143706193D01*
X69982902Y-144289933D01*
X68224353Y-144289933D01*
X68224353Y-144881001D01*
X69982902Y-144881001D01*
X69982902Y-145464741D01*
G37*
G36*
X70566642Y-143706193D02*
G01*
X71157710Y-143706193D01*
X71157710Y-141947644D01*
X70566642Y-141947644D01*
X70566642Y-143706193D01*
G37*
G36*
X61224353Y-147807030D02*
G01*
X60640613Y-147807030D01*
X60640613Y-148398098D01*
X60049545Y-148398098D01*
X60049545Y-147807030D01*
X60640613Y-147807030D01*
X60640613Y-147223290D01*
X61224353Y-147223290D01*
X61224353Y-147807030D01*
G37*
G36*
X62982902Y-147807030D02*
G01*
X62399161Y-147807030D01*
X62399161Y-148398098D01*
X61808093Y-148398098D01*
X61808093Y-147807030D01*
X62399161Y-147807030D01*
X62399161Y-147223290D01*
X62982902Y-147223290D01*
X62982902Y-147807030D01*
G37*
G36*
X64741450Y-147807030D02*
G01*
X64157710Y-147807030D01*
X64157710Y-148398098D01*
X63566642Y-148398098D01*
X63566642Y-147807030D01*
X64157710Y-147807030D01*
X64157710Y-147223290D01*
X64741450Y-147223290D01*
X64741450Y-147807030D01*
G37*
G36*
X66499999Y-148398098D02*
G01*
X65916258Y-148398098D01*
X65916258Y-147807030D01*
X66499999Y-147807030D01*
X66499999Y-148398098D01*
G37*
G36*
X65916258Y-147807030D02*
G01*
X65325190Y-147807030D01*
X65325190Y-147223290D01*
X65916258Y-147223290D01*
X65916258Y-147807030D01*
G37*
G36*
X65325190Y-142531385D02*
G01*
X65916258Y-142531385D01*
X65916258Y-143122452D01*
X65325190Y-143122452D01*
X65325190Y-144289933D01*
X66499999Y-144289933D01*
X66499999Y-144881001D01*
X65325190Y-144881001D01*
X65325190Y-146048482D01*
X66499999Y-146048482D01*
X66499999Y-146639549D01*
X60049545Y-146639549D01*
X60049545Y-146048482D01*
X61224353Y-146048482D01*
X61224353Y-144881001D01*
X61808093Y-144881001D01*
X61808093Y-146048482D01*
X62399161Y-146048482D01*
X62399161Y-144881001D01*
X62982902Y-144881001D01*
X62982902Y-146048482D01*
X63566642Y-146048482D01*
X63566642Y-144881001D01*
X64157710Y-144881001D01*
X64157710Y-146048482D01*
X64741450Y-146048482D01*
X64741450Y-144881001D01*
X64157710Y-144881001D01*
X63566642Y-144881001D01*
X62982902Y-144881001D01*
X62399161Y-144881001D01*
X61808093Y-144881001D01*
X61224353Y-144881001D01*
X60049545Y-144881001D01*
X60049545Y-144289933D01*
X61224353Y-144289933D01*
X61224353Y-143122452D01*
X61808093Y-143122452D01*
X61808093Y-144289933D01*
X62399161Y-144289933D01*
X62399161Y-143122452D01*
X62982902Y-143122452D01*
X62982902Y-144289933D01*
X63566642Y-144289933D01*
X63566642Y-143122452D01*
X64157710Y-143122452D01*
X64157710Y-144289933D01*
X64741450Y-144289933D01*
X64741450Y-143122452D01*
X64157710Y-143122452D01*
X63566642Y-143122452D01*
X62982902Y-143122452D01*
X62399161Y-143122452D01*
X61808093Y-143122452D01*
X61224353Y-143122452D01*
X60049545Y-143122452D01*
X60049545Y-142531385D01*
X64741450Y-142531385D01*
X64741450Y-141363904D01*
X65325190Y-141363904D01*
X65325190Y-142531385D01*
G37*
G36*
X66499999Y-143122452D02*
G01*
X66499999Y-143706193D01*
X65916258Y-143706193D01*
X65916258Y-143122452D01*
X66499999Y-143122452D01*
G37*
G36*
X55982902Y-147807030D02*
G01*
X55982902Y-148398098D01*
X55399161Y-148398098D01*
X55399161Y-147807030D01*
X55982902Y-147807030D01*
G37*
G36*
X59499999Y-148398098D02*
G01*
X58916258Y-148398098D01*
X58916258Y-147807030D01*
X59499999Y-147807030D01*
X59499999Y-148398098D01*
G37*
G36*
X58916258Y-143122452D02*
G01*
X57741450Y-143122452D01*
X57741450Y-144881001D01*
X59499999Y-144881001D01*
X59499999Y-145464741D01*
X57741450Y-145464741D01*
X57741450Y-146639549D01*
X57157710Y-146639549D01*
X57157710Y-147223290D01*
X56566642Y-147223290D01*
X56566642Y-147807030D01*
X55982902Y-147807030D01*
X55982902Y-147223290D01*
X56566642Y-147223290D01*
X56566642Y-146639549D01*
X57157710Y-146639549D01*
X57157710Y-145464741D01*
X55399161Y-145464741D01*
X55399161Y-147807030D01*
X53049545Y-147807030D01*
X53049545Y-143122452D01*
X53640613Y-143122452D01*
X53640613Y-147223290D01*
X54808093Y-147223290D01*
X54808093Y-143122452D01*
X53640613Y-143122452D01*
X53049545Y-143122452D01*
X53049545Y-142531385D01*
X55399161Y-142531385D01*
X55399161Y-144881001D01*
X57157710Y-144881001D01*
X57157710Y-143122452D01*
X55982902Y-143122452D01*
X55982902Y-142531385D01*
X58325190Y-142531385D01*
X58325190Y-141363904D01*
X58916258Y-141363904D01*
X58916258Y-143122452D01*
G37*
G36*
X58916258Y-147223290D02*
G01*
X58916258Y-147807030D01*
X58325190Y-147807030D01*
X58325190Y-147223290D01*
X58916258Y-147223290D01*
G37*
G36*
X58325190Y-146639549D02*
G01*
X58325190Y-147223290D01*
X57741450Y-147223290D01*
X57741450Y-146639549D01*
X58325190Y-146639549D01*
G37*
G36*
X59499999Y-143122452D02*
G01*
X59499999Y-144289933D01*
X58916258Y-144289933D01*
X58916258Y-143122452D01*
X59499999Y-143122452D01*
G37*
D10*
G36*
X79260206Y-59400143D02*
G01*
X79173607Y-59415825D01*
X79114027Y-59455709D01*
X79069097Y-59528979D01*
X79058461Y-59600178D01*
X79072353Y-59684915D01*
X79114027Y-59751914D01*
X79187417Y-59799263D01*
X79260206Y-59810471D01*
X79346925Y-59793945D01*
X79406813Y-59751914D01*
X79451397Y-59675293D01*
X79461951Y-59600178D01*
X79446389Y-59515339D01*
X79406813Y-59455709D01*
X79333077Y-59410779D01*
X79260206Y-59400143D01*
G37*
G36*
X80338599Y-59400143D02*
G01*
X80251880Y-59415825D01*
X80191992Y-59455709D01*
X80147408Y-59528979D01*
X80136855Y-59600178D01*
X80150639Y-59684915D01*
X80191992Y-59751914D01*
X80265728Y-59799263D01*
X80338599Y-59810471D01*
X80425198Y-59793945D01*
X80484779Y-59751914D01*
X80529708Y-59675293D01*
X80540344Y-59600178D01*
X80524662Y-59515339D01*
X80484779Y-59455709D01*
X80411388Y-59410779D01*
X80338599Y-59400143D01*
G37*
G36*
X81494784Y-59427499D02*
G01*
X81494784Y-61232942D01*
X81716190Y-61232942D01*
X81716190Y-60466996D01*
X82292359Y-60466996D01*
X82292359Y-61232942D01*
X82513765Y-61232942D01*
X82513765Y-59427499D01*
X82292359Y-59427499D01*
X82292359Y-60267816D01*
X81716190Y-60267816D01*
X81716190Y-59427499D01*
X81494784Y-59427499D01*
G37*
G36*
X82980513Y-59427499D02*
G01*
X82980513Y-61232942D01*
X84014454Y-61232942D01*
X84014454Y-61033762D01*
X83199782Y-61033762D01*
X83199782Y-60474690D01*
X83928542Y-60474690D01*
X83928542Y-60275510D01*
X83199782Y-60275510D01*
X83199782Y-59626679D01*
X84014454Y-59626679D01*
X84014454Y-59427499D01*
X82980513Y-59427499D01*
G37*
G36*
X84670551Y-59912198D02*
G01*
X85214663Y-59912198D01*
X85333060Y-59427499D01*
X85557031Y-59427499D01*
X85091565Y-61232942D01*
X84793650Y-61232942D01*
X84503169Y-60111378D01*
X84715004Y-60111378D01*
X84853062Y-60656773D01*
X84873795Y-60738544D01*
X84895370Y-60828110D01*
X84914184Y-60912800D01*
X84924228Y-60960191D01*
X84941539Y-61047867D01*
X84950835Y-60998499D01*
X84968467Y-60912800D01*
X84985767Y-60835434D01*
X85007108Y-60746148D01*
X85030016Y-60654636D01*
X85168074Y-60111378D01*
X84715004Y-60111378D01*
X84503169Y-60111378D01*
X84326047Y-59427499D01*
X84552582Y-59427499D01*
X84670551Y-59912198D01*
G37*
G36*
X79063370Y-56488540D02*
G01*
X79154488Y-56498503D01*
X79237965Y-56519014D01*
X79321755Y-56554177D01*
X79329634Y-56558398D01*
X79402313Y-56606584D01*
X79469435Y-56672123D01*
X79518798Y-56743099D01*
X79531325Y-56766479D01*
X79564184Y-56849894D01*
X79583351Y-56941740D01*
X79588896Y-57031611D01*
X79588896Y-57751394D01*
X79588280Y-57782022D01*
X79579038Y-57869263D01*
X79555764Y-57958029D01*
X79518798Y-58038196D01*
X79514361Y-58045730D01*
X79463889Y-58115186D01*
X79395544Y-58179247D01*
X79321755Y-58226263D01*
X79289371Y-58241891D01*
X79201807Y-58271844D01*
X79114934Y-58287667D01*
X79020421Y-58292942D01*
X78554955Y-58292942D01*
X78554955Y-56686679D01*
X78776361Y-56686679D01*
X78776361Y-58093762D01*
X79020421Y-58093762D01*
X79115089Y-58084829D01*
X79203410Y-58054369D01*
X79275166Y-58002293D01*
X79327729Y-57931469D01*
X79358474Y-57844180D01*
X79367490Y-57750539D01*
X79367490Y-57032465D01*
X79358474Y-56937430D01*
X79327729Y-56849090D01*
X79275166Y-56777720D01*
X79263352Y-56766696D01*
X79188584Y-56718774D01*
X79106238Y-56693880D01*
X79020421Y-56686679D01*
X78776361Y-56686679D01*
X78554955Y-56686679D01*
X78554955Y-56487499D01*
X79020421Y-56487499D01*
X79063370Y-56488540D01*
G37*
G36*
X80244993Y-57245750D02*
G01*
X80602320Y-57245750D01*
X80678232Y-57249225D01*
X80762742Y-57262569D01*
X80852259Y-57290785D01*
X80931999Y-57332623D01*
X81001963Y-57388083D01*
X81044937Y-57435033D01*
X81092864Y-57508617D01*
X81126515Y-57591364D01*
X81145890Y-57683273D01*
X81151134Y-57769346D01*
X81148803Y-57827469D01*
X81133507Y-57921953D01*
X81103935Y-58007233D01*
X81060087Y-58083309D01*
X81001963Y-58150182D01*
X80952986Y-58191309D01*
X80876039Y-58237176D01*
X80789316Y-58269381D01*
X80692816Y-58287923D01*
X80602320Y-58292942D01*
X80023587Y-58292942D01*
X80023587Y-57444930D01*
X80244993Y-57444930D01*
X80244993Y-58093762D01*
X80602320Y-58093762D01*
X80679261Y-58086864D01*
X80760902Y-58059701D01*
X80834412Y-58006567D01*
X80884299Y-57939196D01*
X80913477Y-57856976D01*
X80922034Y-57769346D01*
X80915103Y-57690858D01*
X80887807Y-57607693D01*
X80834412Y-57532980D01*
X80780801Y-57490417D01*
X80695119Y-57455335D01*
X80602320Y-57444930D01*
X80244993Y-57444930D01*
X80023587Y-57444930D01*
X80023587Y-56487499D01*
X80244993Y-56487499D01*
X80244993Y-57245750D01*
G37*
G36*
X81494784Y-56487499D02*
G01*
X81494784Y-58292942D01*
X81716190Y-58292942D01*
X81716190Y-57526996D01*
X82292359Y-57526996D01*
X82292359Y-58292942D01*
X82513765Y-58292942D01*
X82513765Y-56487499D01*
X82292359Y-56487499D01*
X82292359Y-57327816D01*
X81716190Y-57327816D01*
X81716190Y-56487499D01*
X81494784Y-56487499D01*
G37*
G36*
X83531597Y-56462354D02*
G01*
X83626721Y-56476861D01*
X83712191Y-56504908D01*
X83788007Y-56546494D01*
X83854170Y-56601621D01*
X83901959Y-56658943D01*
X83945217Y-56736605D01*
X83975017Y-56825886D01*
X83989849Y-56911658D01*
X83994792Y-57005965D01*
X83994792Y-57777040D01*
X83991359Y-57855596D01*
X83978176Y-57942149D01*
X83950299Y-58032493D01*
X83908963Y-58111383D01*
X83854170Y-58178819D01*
X83807896Y-58219577D01*
X83734838Y-58265032D01*
X83652126Y-58296947D01*
X83559761Y-58315323D01*
X83472907Y-58320297D01*
X83414209Y-58318086D01*
X83319042Y-58303579D01*
X83233487Y-58275532D01*
X83157545Y-58233946D01*
X83091216Y-58178819D01*
X83043572Y-58121628D01*
X83000445Y-58044041D01*
X82970736Y-57954755D01*
X82955949Y-57868913D01*
X82952382Y-57800548D01*
X83172427Y-57800548D01*
X83178648Y-57881523D01*
X83203148Y-57965340D01*
X83251073Y-58037769D01*
X83300590Y-58078059D01*
X83382285Y-58111268D01*
X83472907Y-58121117D01*
X83533234Y-58117128D01*
X83621521Y-58091733D01*
X83695595Y-58037769D01*
X83739884Y-57972134D01*
X83765790Y-57889831D01*
X83773386Y-57800548D01*
X83773386Y-56979892D01*
X83767233Y-56898917D01*
X83742999Y-56815100D01*
X83695595Y-56742671D01*
X83646702Y-56702381D01*
X83564787Y-56669172D01*
X83472907Y-56659323D01*
X83413497Y-56663312D01*
X83325831Y-56688707D01*
X83251073Y-56742671D01*
X83206297Y-56808306D01*
X83180107Y-56890609D01*
X83172427Y-56979892D01*
X83172427Y-57800548D01*
X82952382Y-57800548D01*
X82951021Y-57774475D01*
X82951021Y-57005965D01*
X82954443Y-56926783D01*
X82967587Y-56839588D01*
X82995379Y-56748648D01*
X83036589Y-56669326D01*
X83091216Y-56601621D01*
X83137613Y-56560863D01*
X83210808Y-56515408D01*
X83293616Y-56483493D01*
X83386037Y-56465117D01*
X83472907Y-56460143D01*
X83531597Y-56462354D01*
G37*
G36*
X84424355Y-56487499D02*
G01*
X84424355Y-58292942D01*
X84720133Y-58292942D01*
X85268946Y-56744808D01*
X85262401Y-56833299D01*
X85257833Y-56896972D01*
X85252693Y-56983989D01*
X85248492Y-57075138D01*
X85248003Y-57087603D01*
X85245373Y-57173365D01*
X85244190Y-57260532D01*
X85244156Y-57277380D01*
X85244156Y-58292942D01*
X85458723Y-58292942D01*
X85458723Y-56487499D01*
X85162945Y-56487499D01*
X84616696Y-58020244D01*
X84622573Y-57934492D01*
X84626099Y-57871501D01*
X84630626Y-57785592D01*
X84634589Y-57695363D01*
X84635075Y-57683006D01*
X84637836Y-57591826D01*
X84638907Y-57504214D01*
X84638922Y-57492802D01*
X84638922Y-56487499D01*
X84424355Y-56487499D01*
G37*
G36*
X78574616Y-53547499D02*
G01*
X78574616Y-55352942D01*
X79608557Y-55352942D01*
X79608557Y-55153762D01*
X78793885Y-55153762D01*
X78793885Y-54594690D01*
X79522645Y-54594690D01*
X79522645Y-54395510D01*
X78793885Y-54395510D01*
X78793885Y-53746679D01*
X79608557Y-53746679D01*
X79608557Y-53547499D01*
X78574616Y-53547499D01*
G37*
G36*
X80427504Y-53793695D02*
G01*
X80427504Y-54278395D01*
X79956909Y-54278395D01*
X79956909Y-54477575D01*
X80427504Y-54477575D01*
X80427504Y-54969969D01*
X80643781Y-54969969D01*
X80643781Y-54477575D01*
X81114376Y-54477575D01*
X81114376Y-54278395D01*
X80643781Y-54278395D01*
X80643781Y-53793695D01*
X80427504Y-53793695D01*
G37*
G36*
X81443065Y-53547499D02*
G01*
X81443065Y-55352942D01*
X81770473Y-55352942D01*
X81999145Y-54569899D01*
X82238076Y-55352942D01*
X82565483Y-55352942D01*
X82565483Y-53547499D01*
X82351343Y-53547499D01*
X82351343Y-54397219D01*
X82351747Y-54484278D01*
X82352816Y-54570698D01*
X82354552Y-54664047D01*
X82354763Y-54673763D01*
X82357197Y-54762030D01*
X82360172Y-54850837D01*
X82363689Y-54940186D01*
X82365876Y-54990058D01*
X82370373Y-55077682D01*
X82375766Y-55169094D01*
X82382180Y-55262416D01*
X82383400Y-55278570D01*
X82092751Y-54354049D01*
X81900838Y-54354049D01*
X81622584Y-55256344D01*
X81631640Y-55163138D01*
X81639147Y-55065605D01*
X81644444Y-54976714D01*
X81648555Y-54884509D01*
X81649512Y-54857556D01*
X81652509Y-54761439D01*
X81654771Y-54662704D01*
X81656123Y-54575990D01*
X81656935Y-54487353D01*
X81657205Y-54396792D01*
X81657205Y-53547499D01*
X81443065Y-53547499D01*
G37*
G36*
X82992908Y-53547499D02*
G01*
X82992908Y-53746679D01*
X83359639Y-53746679D01*
X83359639Y-55153762D01*
X82992908Y-55153762D01*
X82992908Y-55352942D01*
X83952905Y-55352942D01*
X83952905Y-55153762D01*
X83586174Y-55153762D01*
X83586174Y-53746679D01*
X83952905Y-53746679D01*
X83952905Y-53547499D01*
X82992908Y-53547499D01*
G37*
G36*
X84961200Y-53520143D02*
G01*
X84872513Y-53525027D01*
X84778237Y-53543069D01*
X84693859Y-53574406D01*
X84619381Y-53619038D01*
X84572244Y-53659056D01*
X84516617Y-53724821D01*
X84474654Y-53800567D01*
X84446353Y-53886295D01*
X84431714Y-53982003D01*
X84429484Y-54041174D01*
X84429484Y-54859266D01*
X84434503Y-54946801D01*
X84453045Y-55039657D01*
X84485249Y-55122533D01*
X84531117Y-55195427D01*
X84572244Y-55241384D01*
X84639651Y-55295511D01*
X84716957Y-55336344D01*
X84804163Y-55363882D01*
X84901267Y-55378126D01*
X84961200Y-55380297D01*
X85048290Y-55375383D01*
X85141120Y-55357230D01*
X85224501Y-55325700D01*
X85298432Y-55280794D01*
X85345455Y-55240529D01*
X85401082Y-55174574D01*
X85443045Y-55099006D01*
X85471346Y-55013825D01*
X85485985Y-54919032D01*
X85488215Y-54860548D01*
X85266382Y-54860548D01*
X85258576Y-54949831D01*
X85231959Y-55032134D01*
X85186453Y-55097769D01*
X85117311Y-55148559D01*
X85029775Y-55175908D01*
X84961200Y-55181117D01*
X84868714Y-55171268D01*
X84784755Y-55138059D01*
X84733383Y-55097769D01*
X84683114Y-55025340D01*
X84657415Y-54941523D01*
X84650890Y-54860548D01*
X84650890Y-54039892D01*
X84658946Y-53950609D01*
X84686417Y-53868306D01*
X84733383Y-53802671D01*
X84804088Y-53751881D01*
X84892465Y-53724533D01*
X84961200Y-53719323D01*
X85053384Y-53729172D01*
X85136321Y-53762381D01*
X85186453Y-53802671D01*
X85235160Y-53875160D01*
X85260059Y-53959138D01*
X85266382Y-54040320D01*
X85488215Y-54040320D01*
X85483196Y-53953756D01*
X85464654Y-53861653D01*
X85432450Y-53779123D01*
X85386583Y-53706164D01*
X85345455Y-53659911D01*
X85278273Y-53605451D01*
X85201642Y-53564367D01*
X85115561Y-53536659D01*
X85020031Y-53522327D01*
X84961200Y-53520143D01*
G37*
G36*
X67067010Y-59400143D02*
G01*
X66980291Y-59415825D01*
X66920403Y-59455709D01*
X66875819Y-59528979D01*
X66865265Y-59600178D01*
X66879050Y-59684915D01*
X66920403Y-59751914D01*
X66994139Y-59799263D01*
X67067010Y-59810471D01*
X67153609Y-59793945D01*
X67213189Y-59751914D01*
X67258119Y-59675293D01*
X67268754Y-59600178D01*
X67253072Y-59515339D01*
X67213189Y-59455709D01*
X67139799Y-59410779D01*
X67067010Y-59400143D01*
G37*
G36*
X68535642Y-59400143D02*
G01*
X68448923Y-59415825D01*
X68389035Y-59455709D01*
X68344451Y-59528979D01*
X68333898Y-59600178D01*
X68347682Y-59684915D01*
X68389035Y-59751914D01*
X68462771Y-59799263D01*
X68535642Y-59810471D01*
X68622241Y-59793945D01*
X68681821Y-59751914D01*
X68726751Y-59675293D01*
X68737387Y-59600178D01*
X68721705Y-59515339D01*
X68681821Y-59455709D01*
X68608431Y-59410779D01*
X68535642Y-59400143D01*
G37*
G36*
X70004274Y-59400143D02*
G01*
X69917555Y-59415825D01*
X69857668Y-59455709D01*
X69813083Y-59528979D01*
X69802530Y-59600178D01*
X69816314Y-59684915D01*
X69857668Y-59751914D01*
X69931403Y-59799263D01*
X70004274Y-59810471D01*
X70090873Y-59793945D01*
X70150454Y-59751914D01*
X70195383Y-59675293D01*
X70206019Y-59600178D01*
X70190337Y-59515339D01*
X70150454Y-59455709D01*
X70077063Y-59410779D01*
X70004274Y-59400143D01*
G37*
G36*
X71472907Y-59400143D02*
G01*
X71386187Y-59415825D01*
X71326300Y-59455709D01*
X71281716Y-59528979D01*
X71271162Y-59600178D01*
X71284946Y-59684915D01*
X71326300Y-59751914D01*
X71400036Y-59799263D01*
X71472907Y-59810471D01*
X71559505Y-59793945D01*
X71619086Y-59751914D01*
X71664016Y-59675293D01*
X71674651Y-59600178D01*
X71658969Y-59515339D01*
X71619086Y-59455709D01*
X71545696Y-59410779D01*
X71472907Y-59400143D01*
G37*
G36*
X72941539Y-59400143D02*
G01*
X72854820Y-59415825D01*
X72794932Y-59455709D01*
X72750348Y-59528979D01*
X72739794Y-59600178D01*
X72753579Y-59684915D01*
X72794932Y-59751914D01*
X72868668Y-59799263D01*
X72941539Y-59810471D01*
X73028137Y-59793945D01*
X73087718Y-59751914D01*
X73132648Y-59675293D01*
X73143283Y-59600178D01*
X73127601Y-59515339D01*
X73087718Y-59455709D01*
X73014328Y-59410779D01*
X72941539Y-59400143D01*
G37*
G36*
X67301239Y-56460143D02*
G01*
X67214640Y-56475825D01*
X67155059Y-56515709D01*
X67110130Y-56588979D01*
X67099494Y-56660178D01*
X67113385Y-56744915D01*
X67155059Y-56811914D01*
X67228450Y-56859263D01*
X67301239Y-56870471D01*
X67387958Y-56853945D01*
X67447846Y-56811914D01*
X67492430Y-56735293D01*
X67502983Y-56660178D01*
X67487422Y-56575339D01*
X67447846Y-56515709D01*
X67374110Y-56470779D01*
X67301239Y-56460143D01*
G37*
G36*
X68529658Y-56460143D02*
G01*
X68443060Y-56475825D01*
X68383479Y-56515709D01*
X68338549Y-56588979D01*
X68327914Y-56660178D01*
X68341805Y-56744915D01*
X68383479Y-56811914D01*
X68456869Y-56859263D01*
X68529658Y-56870471D01*
X68616377Y-56853945D01*
X68676265Y-56811914D01*
X68720849Y-56735293D01*
X68731403Y-56660178D01*
X68715841Y-56575339D01*
X68676265Y-56515709D01*
X68602529Y-56470779D01*
X68529658Y-56460143D01*
G37*
G36*
X69758078Y-56460143D02*
G01*
X69671358Y-56475825D01*
X69611471Y-56515709D01*
X69566887Y-56588979D01*
X69556333Y-56660178D01*
X69570117Y-56744915D01*
X69611471Y-56811914D01*
X69685207Y-56859263D01*
X69758078Y-56870471D01*
X69844676Y-56853945D01*
X69904257Y-56811914D01*
X69949187Y-56735293D01*
X69959822Y-56660178D01*
X69944140Y-56575339D01*
X69904257Y-56515709D01*
X69830867Y-56470779D01*
X69758078Y-56460143D01*
G37*
G36*
X71054458Y-56487499D02*
G01*
X71054458Y-58292942D01*
X71275864Y-58292942D01*
X71275864Y-56686679D01*
X72088399Y-56686679D01*
X72088399Y-56487499D01*
X71054458Y-56487499D01*
G37*
G36*
X72461541Y-56487499D02*
G01*
X72461541Y-56686679D01*
X72828271Y-56686679D01*
X72828271Y-58093762D01*
X72461541Y-58093762D01*
X72461541Y-58292942D01*
X73421537Y-58292942D01*
X73421537Y-58093762D01*
X73054806Y-58093762D01*
X73054806Y-56686679D01*
X73421537Y-56686679D01*
X73421537Y-56487499D01*
X72461541Y-56487499D01*
G37*
G36*
X66549826Y-53547499D02*
G01*
X66549826Y-55352942D01*
X66845604Y-55352942D01*
X67394417Y-53804808D01*
X67387872Y-53893299D01*
X67383304Y-53956972D01*
X67378164Y-54043989D01*
X67373963Y-54135138D01*
X67373474Y-54147603D01*
X67370844Y-54233365D01*
X67369661Y-54320532D01*
X67369627Y-54337380D01*
X67369627Y-55352942D01*
X67584194Y-55352942D01*
X67584194Y-53547499D01*
X67288416Y-53547499D01*
X66742167Y-55080244D01*
X66748044Y-54994492D01*
X66751570Y-54931501D01*
X66756097Y-54845592D01*
X66760060Y-54755363D01*
X66760546Y-54743006D01*
X66763307Y-54651826D01*
X66764378Y-54564214D01*
X66764393Y-54552802D01*
X66764393Y-53547499D01*
X66549826Y-53547499D01*
G37*
G36*
X68043249Y-53547499D02*
G01*
X68043249Y-55352942D01*
X69077190Y-55352942D01*
X69077190Y-55153762D01*
X68262518Y-55153762D01*
X68262518Y-54594690D01*
X68991277Y-54594690D01*
X68991277Y-54395510D01*
X68262518Y-54395510D01*
X68262518Y-53746679D01*
X69077190Y-53746679D01*
X69077190Y-53547499D01*
X68043249Y-53547499D01*
G37*
G36*
X69413573Y-53301302D02*
G01*
X69413573Y-53500482D01*
X70594976Y-53500482D01*
X70594976Y-53301302D01*
X69413573Y-53301302D01*
G37*
G36*
X70992908Y-53547499D02*
G01*
X70992908Y-53746679D01*
X71359639Y-53746679D01*
X71359639Y-55153762D01*
X70992908Y-55153762D01*
X70992908Y-55352942D01*
X71952905Y-55352942D01*
X71952905Y-55153762D01*
X71586174Y-55153762D01*
X71586174Y-53746679D01*
X71952905Y-53746679D01*
X71952905Y-53547499D01*
X70992908Y-53547499D01*
G37*
G36*
X72424355Y-53547499D02*
G01*
X72424355Y-55352942D01*
X72720133Y-55352942D01*
X73268946Y-53804808D01*
X73262401Y-53893299D01*
X73257833Y-53956972D01*
X73252693Y-54043989D01*
X73248492Y-54135138D01*
X73248003Y-54147603D01*
X73245373Y-54233365D01*
X73244190Y-54320532D01*
X73244156Y-54337380D01*
X73244156Y-55352942D01*
X73458723Y-55352942D01*
X73458723Y-53547499D01*
X73162945Y-53547499D01*
X72616696Y-55080244D01*
X72622573Y-54994492D01*
X72626099Y-54931501D01*
X72630626Y-54845592D01*
X72634589Y-54755363D01*
X72635075Y-54743006D01*
X72637836Y-54651826D01*
X72638907Y-54564214D01*
X72638922Y-54552802D01*
X72638922Y-53547499D01*
X72424355Y-53547499D01*
G37*
G36*
X55067010Y-59400143D02*
G01*
X54980291Y-59415825D01*
X54920403Y-59455709D01*
X54875819Y-59528979D01*
X54865265Y-59600178D01*
X54879050Y-59684915D01*
X54920403Y-59751914D01*
X54994139Y-59799263D01*
X55067010Y-59810471D01*
X55153609Y-59793945D01*
X55213189Y-59751914D01*
X55258119Y-59675293D01*
X55268754Y-59600178D01*
X55253072Y-59515339D01*
X55213189Y-59455709D01*
X55139799Y-59410779D01*
X55067010Y-59400143D01*
G37*
G36*
X56535642Y-59400143D02*
G01*
X56448923Y-59415825D01*
X56389035Y-59455709D01*
X56344451Y-59528979D01*
X56333898Y-59600178D01*
X56347682Y-59684915D01*
X56389035Y-59751914D01*
X56462771Y-59799263D01*
X56535642Y-59810471D01*
X56622241Y-59793945D01*
X56681821Y-59751914D01*
X56726751Y-59675293D01*
X56737387Y-59600178D01*
X56721705Y-59515339D01*
X56681821Y-59455709D01*
X56608431Y-59410779D01*
X56535642Y-59400143D01*
G37*
G36*
X58004274Y-59400143D02*
G01*
X57917555Y-59415825D01*
X57857668Y-59455709D01*
X57813083Y-59528979D01*
X57802530Y-59600178D01*
X57816314Y-59684915D01*
X57857668Y-59751914D01*
X57931403Y-59799263D01*
X58004274Y-59810471D01*
X58090873Y-59793945D01*
X58150454Y-59751914D01*
X58195383Y-59675293D01*
X58206019Y-59600178D01*
X58190337Y-59515339D01*
X58150454Y-59455709D01*
X58077063Y-59410779D01*
X58004274Y-59400143D01*
G37*
G36*
X59472907Y-59400143D02*
G01*
X59386187Y-59415825D01*
X59326300Y-59455709D01*
X59281716Y-59528979D01*
X59271162Y-59600178D01*
X59284946Y-59684915D01*
X59326300Y-59751914D01*
X59400036Y-59799263D01*
X59472907Y-59810471D01*
X59559505Y-59793945D01*
X59619086Y-59751914D01*
X59664016Y-59675293D01*
X59674651Y-59600178D01*
X59658969Y-59515339D01*
X59619086Y-59455709D01*
X59545696Y-59410779D01*
X59472907Y-59400143D01*
G37*
G36*
X60941539Y-59400143D02*
G01*
X60854820Y-59415825D01*
X60794932Y-59455709D01*
X60750348Y-59528979D01*
X60739794Y-59600178D01*
X60753579Y-59684915D01*
X60794932Y-59751914D01*
X60868668Y-59799263D01*
X60941539Y-59810471D01*
X61028137Y-59793945D01*
X61087718Y-59751914D01*
X61132648Y-59675293D01*
X61143283Y-59600178D01*
X61127601Y-59515339D01*
X61087718Y-59455709D01*
X61014328Y-59410779D01*
X60941539Y-59400143D01*
G37*
G36*
X55260206Y-56460143D02*
G01*
X55173607Y-56475825D01*
X55114027Y-56515709D01*
X55069097Y-56588979D01*
X55058461Y-56660178D01*
X55072353Y-56744915D01*
X55114027Y-56811914D01*
X55187417Y-56859263D01*
X55260206Y-56870471D01*
X55346925Y-56853945D01*
X55406813Y-56811914D01*
X55451397Y-56735293D01*
X55461951Y-56660178D01*
X55446389Y-56575339D01*
X55406813Y-56515709D01*
X55333077Y-56470779D01*
X55260206Y-56460143D01*
G37*
G36*
X56338599Y-56460143D02*
G01*
X56251880Y-56475825D01*
X56191992Y-56515709D01*
X56147408Y-56588979D01*
X56136855Y-56660178D01*
X56150639Y-56744915D01*
X56191992Y-56811914D01*
X56265728Y-56859263D01*
X56338599Y-56870471D01*
X56425198Y-56853945D01*
X56484779Y-56811914D01*
X56529708Y-56735293D01*
X56540344Y-56660178D01*
X56524662Y-56575339D01*
X56484779Y-56515709D01*
X56411388Y-56470779D01*
X56338599Y-56460143D01*
G37*
G36*
X57585825Y-56487499D02*
G01*
X57585825Y-58292942D01*
X57807231Y-58292942D01*
X57807231Y-56686679D01*
X58619766Y-56686679D01*
X58619766Y-56487499D01*
X57585825Y-56487499D01*
G37*
G36*
X58992908Y-56487499D02*
G01*
X58992908Y-56686679D01*
X59359639Y-56686679D01*
X59359639Y-58093762D01*
X58992908Y-58093762D01*
X58992908Y-58292942D01*
X59952905Y-58292942D01*
X59952905Y-58093762D01*
X59586174Y-58093762D01*
X59586174Y-56686679D01*
X59952905Y-56686679D01*
X59952905Y-56487499D01*
X58992908Y-56487499D01*
G37*
G36*
X60424355Y-56487499D02*
G01*
X60424355Y-58292942D01*
X60720133Y-58292942D01*
X61268946Y-56744808D01*
X61262401Y-56833299D01*
X61257833Y-56896972D01*
X61252693Y-56983989D01*
X61248492Y-57075138D01*
X61248003Y-57087603D01*
X61245373Y-57173365D01*
X61244190Y-57260532D01*
X61244156Y-57277380D01*
X61244156Y-58292942D01*
X61458723Y-58292942D01*
X61458723Y-56487499D01*
X61162945Y-56487499D01*
X60616696Y-58020244D01*
X60622573Y-57934492D01*
X60626099Y-57871501D01*
X60630626Y-57785592D01*
X60634589Y-57695363D01*
X60635075Y-57683006D01*
X60637836Y-57591826D01*
X60638907Y-57504214D01*
X60638922Y-57492802D01*
X60638922Y-56487499D01*
X60424355Y-56487499D01*
G37*
G36*
X54574616Y-53547499D02*
G01*
X54574616Y-55352942D01*
X55608557Y-55352942D01*
X55608557Y-55153762D01*
X54793885Y-55153762D01*
X54793885Y-54594690D01*
X55522645Y-54594690D01*
X55522645Y-54395510D01*
X54793885Y-54395510D01*
X54793885Y-53746679D01*
X55608557Y-53746679D01*
X55608557Y-53547499D01*
X54574616Y-53547499D01*
G37*
G36*
X55944941Y-53301302D02*
G01*
X55944941Y-53500482D01*
X57126343Y-53500482D01*
X57126343Y-53301302D01*
X55944941Y-53301302D01*
G37*
G36*
X58062965Y-53522354D02*
G01*
X58158089Y-53536861D01*
X58243559Y-53564908D01*
X58319375Y-53606494D01*
X58385537Y-53661621D01*
X58433327Y-53718943D01*
X58476585Y-53796605D01*
X58506385Y-53885886D01*
X58521216Y-53971658D01*
X58526160Y-54065965D01*
X58526160Y-54837040D01*
X58522727Y-54915596D01*
X58509544Y-55002149D01*
X58481666Y-55092493D01*
X58440331Y-55171383D01*
X58385537Y-55238819D01*
X58339264Y-55279577D01*
X58266206Y-55325032D01*
X58183494Y-55356947D01*
X58091128Y-55375323D01*
X58004274Y-55380297D01*
X57945577Y-55378086D01*
X57850409Y-55363579D01*
X57764855Y-55335532D01*
X57688913Y-55293946D01*
X57622584Y-55238819D01*
X57574939Y-55181628D01*
X57531813Y-55104041D01*
X57502103Y-55014755D01*
X57487317Y-54928913D01*
X57483749Y-54860548D01*
X57703795Y-54860548D01*
X57710016Y-54941523D01*
X57734516Y-55025340D01*
X57782441Y-55097769D01*
X57831957Y-55138059D01*
X57913652Y-55171268D01*
X58004274Y-55181117D01*
X58064602Y-55177128D01*
X58152888Y-55151733D01*
X58226963Y-55097769D01*
X58271252Y-55032134D01*
X58297157Y-54949831D01*
X58304754Y-54860548D01*
X58304754Y-54039892D01*
X58298601Y-53958917D01*
X58274367Y-53875100D01*
X58226963Y-53802671D01*
X58178070Y-53762381D01*
X58096154Y-53729172D01*
X58004274Y-53719323D01*
X57944864Y-53723312D01*
X57857199Y-53748707D01*
X57782441Y-53802671D01*
X57737665Y-53868306D01*
X57711475Y-53950609D01*
X57703795Y-54039892D01*
X57703795Y-54860548D01*
X57483749Y-54860548D01*
X57482388Y-54834475D01*
X57482388Y-54065965D01*
X57485811Y-53986783D01*
X57498955Y-53899588D01*
X57526747Y-53808648D01*
X57567957Y-53729326D01*
X57622584Y-53661621D01*
X57668981Y-53620863D01*
X57742176Y-53575408D01*
X57824984Y-53543493D01*
X57917405Y-53525117D01*
X58004274Y-53520143D01*
X58062965Y-53522354D01*
G37*
G36*
X59472907Y-53520143D02*
G01*
X59382822Y-53525057D01*
X59288244Y-53543210D01*
X59204998Y-53574740D01*
X59123734Y-53627153D01*
X59088652Y-53659911D01*
X59030495Y-53736260D01*
X58993239Y-53813321D01*
X58968704Y-53899954D01*
X58956891Y-53996159D01*
X58955722Y-54040320D01*
X58955722Y-55352942D01*
X59177556Y-55352942D01*
X59177556Y-54041174D01*
X59184652Y-53954262D01*
X59211900Y-53865945D01*
X59250218Y-53805663D01*
X59322024Y-53749762D01*
X59410972Y-53723455D01*
X59472907Y-53719323D01*
X59558074Y-53727755D01*
X59641102Y-53760132D01*
X59694313Y-53805663D01*
X59739373Y-53879454D01*
X59762408Y-53962408D01*
X59768257Y-54041174D01*
X59768257Y-55352942D01*
X59990091Y-55352942D01*
X59990091Y-54040320D01*
X59985448Y-53952929D01*
X59968293Y-53860205D01*
X59938499Y-53777420D01*
X59888971Y-53694980D01*
X59858016Y-53658629D01*
X59784580Y-53598042D01*
X59707831Y-53559228D01*
X59619425Y-53533667D01*
X59534369Y-53522307D01*
X59472907Y-53520143D01*
G37*
G36*
X60830836Y-53547499D02*
G01*
X60830836Y-55153762D01*
X60338442Y-55153762D01*
X60338442Y-55352942D01*
X61544635Y-55352942D01*
X61544635Y-55153762D01*
X61052242Y-55153762D01*
X61052242Y-53547499D01*
X60830836Y-53547499D01*
G37*
G36*
X78739793Y-166159856D02*
G01*
X78826392Y-166144174D01*
X78885972Y-166104290D01*
X78930902Y-166031020D01*
X78941538Y-165959821D01*
X78927646Y-165875084D01*
X78885972Y-165808085D01*
X78812582Y-165760736D01*
X78739793Y-165749528D01*
X78653074Y-165766054D01*
X78593186Y-165808085D01*
X78548602Y-165884706D01*
X78538048Y-165959821D01*
X78553610Y-166044660D01*
X78593186Y-166104290D01*
X78666922Y-166149220D01*
X78739793Y-166159856D01*
G37*
G36*
X77661400Y-166159856D02*
G01*
X77748119Y-166144174D01*
X77808007Y-166104290D01*
X77852591Y-166031020D01*
X77863144Y-165959821D01*
X77849360Y-165875084D01*
X77808007Y-165808085D01*
X77734271Y-165760736D01*
X77661400Y-165749528D01*
X77574801Y-165766054D01*
X77515220Y-165808085D01*
X77470291Y-165884706D01*
X77459655Y-165959821D01*
X77475337Y-166044660D01*
X77515220Y-166104290D01*
X77588611Y-166149220D01*
X77661400Y-166159856D01*
G37*
G36*
X76507780Y-166132501D02*
G01*
X76042314Y-166132501D01*
X75999364Y-166131459D01*
X75908247Y-166121496D01*
X75824770Y-166100985D01*
X75740979Y-166065822D01*
X75733101Y-166061601D01*
X75660422Y-166013415D01*
X75593299Y-165947876D01*
X75543936Y-165876900D01*
X75531409Y-165853520D01*
X75498551Y-165770105D01*
X75479384Y-165678259D01*
X75473839Y-165588388D01*
X75473839Y-165587534D01*
X75695245Y-165587534D01*
X75704261Y-165682569D01*
X75735005Y-165770909D01*
X75787569Y-165842279D01*
X75799383Y-165853303D01*
X75874151Y-165901225D01*
X75956497Y-165926119D01*
X76042314Y-165933320D01*
X76286374Y-165933320D01*
X76286374Y-164526237D01*
X76042314Y-164526237D01*
X75947646Y-164535170D01*
X75859324Y-164565630D01*
X75787569Y-164617706D01*
X75735005Y-164688530D01*
X75704261Y-164775819D01*
X75695245Y-164869460D01*
X75695245Y-165587534D01*
X75473839Y-165587534D01*
X75473839Y-164868605D01*
X75474455Y-164837977D01*
X75483696Y-164750736D01*
X75506971Y-164661970D01*
X75543936Y-164581803D01*
X75548373Y-164574269D01*
X75598846Y-164504813D01*
X75667190Y-164440752D01*
X75740979Y-164393736D01*
X75773363Y-164378108D01*
X75860927Y-164348155D01*
X75947800Y-164332332D01*
X76042314Y-164327057D01*
X76507780Y-164327057D01*
X76507780Y-166132501D01*
G37*
G36*
X75019486Y-166132501D02*
G01*
X75019486Y-164327057D01*
X73985545Y-164327057D01*
X73985545Y-164526237D01*
X74800217Y-164526237D01*
X74800217Y-165085309D01*
X74071457Y-165085309D01*
X74071457Y-165284489D01*
X74800217Y-165284489D01*
X74800217Y-165933320D01*
X73985545Y-165933320D01*
X73985545Y-166132501D01*
X75019486Y-166132501D01*
G37*
G36*
X73211051Y-166132501D02*
G01*
X73673952Y-164327057D01*
X73447417Y-164327057D01*
X73139671Y-165557614D01*
X73118945Y-165643741D01*
X73099330Y-165732398D01*
X73086670Y-165795262D01*
X73070471Y-165880650D01*
X73055896Y-165961103D01*
X73039550Y-165874761D01*
X73022984Y-165793980D01*
X73004150Y-165708689D01*
X72982913Y-165618228D01*
X72967419Y-165555049D01*
X72672068Y-164327057D01*
X72442968Y-164327057D01*
X72908434Y-166132501D01*
X73211051Y-166132501D01*
G37*
G36*
X79412987Y-169072501D02*
G01*
X79412987Y-168873320D01*
X79046257Y-168873320D01*
X79046257Y-167466237D01*
X79412987Y-167466237D01*
X79412987Y-167267057D01*
X78452991Y-167267057D01*
X78452991Y-167466237D01*
X78819722Y-167466237D01*
X78819722Y-168873320D01*
X78452991Y-168873320D01*
X78452991Y-169072501D01*
X79412987Y-169072501D01*
G37*
G36*
X77444695Y-169099856D02*
G01*
X77533383Y-169094972D01*
X77627659Y-169076930D01*
X77712036Y-169045593D01*
X77786514Y-169000961D01*
X77833652Y-168960943D01*
X77889278Y-168895178D01*
X77931242Y-168819432D01*
X77959543Y-168733704D01*
X77974181Y-168637996D01*
X77976412Y-168578825D01*
X77976412Y-167760733D01*
X77971393Y-167673198D01*
X77952851Y-167580342D01*
X77920646Y-167497466D01*
X77874779Y-167424572D01*
X77833652Y-167378615D01*
X77766245Y-167324488D01*
X77688939Y-167283655D01*
X77601733Y-167256117D01*
X77504628Y-167241873D01*
X77444695Y-167239702D01*
X77357606Y-167244616D01*
X77264776Y-167262769D01*
X77181395Y-167294299D01*
X77107463Y-167339205D01*
X77060440Y-167379470D01*
X77004814Y-167445425D01*
X76962850Y-167520993D01*
X76934549Y-167606174D01*
X76919911Y-167700967D01*
X76917680Y-167759451D01*
X77139514Y-167759451D01*
X77147319Y-167670168D01*
X77173936Y-167587865D01*
X77219442Y-167522230D01*
X77288585Y-167471440D01*
X77376120Y-167444091D01*
X77444695Y-167438882D01*
X77537182Y-167448731D01*
X77621140Y-167481940D01*
X77672513Y-167522230D01*
X77722782Y-167594659D01*
X77748481Y-167678476D01*
X77755006Y-167759451D01*
X77755006Y-168580107D01*
X77746950Y-168669390D01*
X77719479Y-168751693D01*
X77672513Y-168817328D01*
X77601807Y-168868118D01*
X77513431Y-168895466D01*
X77444695Y-168900676D01*
X77352512Y-168890827D01*
X77269575Y-168857618D01*
X77219442Y-168817328D01*
X77170736Y-168744839D01*
X77145836Y-168660861D01*
X77139514Y-168579679D01*
X76917680Y-168579679D01*
X76922699Y-168666243D01*
X76941241Y-168758346D01*
X76973446Y-168840876D01*
X77019313Y-168913835D01*
X77060440Y-168960088D01*
X77127622Y-169014548D01*
X77204254Y-169055632D01*
X77290334Y-169083340D01*
X77385864Y-169097672D01*
X77444695Y-169099856D01*
G37*
G36*
X76488118Y-169072501D02*
G01*
X76488118Y-167267057D01*
X75454177Y-167267057D01*
X75454177Y-167466237D01*
X76268849Y-167466237D01*
X76268849Y-168025309D01*
X75540090Y-168025309D01*
X75540090Y-168224489D01*
X76268849Y-168224489D01*
X76268849Y-168873320D01*
X75454177Y-168873320D01*
X75454177Y-169072501D01*
X76488118Y-169072501D01*
G37*
G36*
X74635231Y-168826304D02*
G01*
X74635231Y-168341604D01*
X75105826Y-168341604D01*
X75105826Y-168142424D01*
X74635231Y-168142424D01*
X74635231Y-167650030D01*
X74418954Y-167650030D01*
X74418954Y-168142424D01*
X73948359Y-168142424D01*
X73948359Y-168341604D01*
X74418954Y-168341604D01*
X74418954Y-168826304D01*
X74635231Y-168826304D01*
G37*
G36*
X73038799Y-169099856D02*
G01*
X73127486Y-169094972D01*
X73221762Y-169076930D01*
X73306140Y-169045593D01*
X73380618Y-169000961D01*
X73427755Y-168960943D01*
X73483382Y-168895178D01*
X73525345Y-168819432D01*
X73553646Y-168733704D01*
X73568285Y-168637996D01*
X73570515Y-168578825D01*
X73570515Y-167760733D01*
X73565496Y-167673198D01*
X73546954Y-167580342D01*
X73514750Y-167497466D01*
X73468882Y-167424572D01*
X73427755Y-167378615D01*
X73360348Y-167324488D01*
X73283042Y-167283655D01*
X73195836Y-167256117D01*
X73098732Y-167241873D01*
X73038799Y-167239702D01*
X72951709Y-167244616D01*
X72858879Y-167262769D01*
X72775498Y-167294299D01*
X72701567Y-167339205D01*
X72654544Y-167379470D01*
X72598917Y-167445425D01*
X72556954Y-167520993D01*
X72528653Y-167606174D01*
X72514014Y-167700967D01*
X72511784Y-167759451D01*
X72733617Y-167759451D01*
X72741423Y-167670168D01*
X72768040Y-167587865D01*
X72813546Y-167522230D01*
X72882688Y-167471440D01*
X72970224Y-167444091D01*
X73038799Y-167438882D01*
X73131285Y-167448731D01*
X73215244Y-167481940D01*
X73266616Y-167522230D01*
X73316885Y-167594659D01*
X73342584Y-167678476D01*
X73349109Y-167759451D01*
X73349109Y-168580107D01*
X73341053Y-168669390D01*
X73313582Y-168751693D01*
X73266616Y-168817328D01*
X73195911Y-168868118D01*
X73107534Y-168895466D01*
X73038799Y-168900676D01*
X72946615Y-168890827D01*
X72863678Y-168857618D01*
X72813546Y-168817328D01*
X72764839Y-168744839D01*
X72739940Y-168660861D01*
X72733617Y-168579679D01*
X72511784Y-168579679D01*
X72516803Y-168666243D01*
X72535345Y-168758346D01*
X72567549Y-168840876D01*
X72613416Y-168913835D01*
X72654544Y-168960088D01*
X72721726Y-169014548D01*
X72798357Y-169055632D01*
X72884438Y-169083340D01*
X72979968Y-169097672D01*
X73038799Y-169099856D01*
G37*
G36*
X79442480Y-172012501D02*
G01*
X79442480Y-170207057D01*
X79221074Y-170207057D01*
X79221074Y-170973003D01*
X78644905Y-170973003D01*
X78644905Y-170207057D01*
X78423499Y-170207057D01*
X78423499Y-172012501D01*
X78644905Y-172012501D01*
X78644905Y-171172183D01*
X79221074Y-171172183D01*
X79221074Y-172012501D01*
X79442480Y-172012501D01*
G37*
G36*
X78079849Y-172012501D02*
G01*
X77853314Y-172012501D01*
X77735344Y-171527801D01*
X77191232Y-171527801D01*
X77072836Y-172012501D01*
X76848865Y-172012501D01*
X77025178Y-171328621D01*
X77237822Y-171328621D01*
X77690892Y-171328621D01*
X77552834Y-170783226D01*
X77532101Y-170701455D01*
X77510525Y-170611889D01*
X77491712Y-170527199D01*
X77481668Y-170479808D01*
X77464357Y-170392132D01*
X77455060Y-170441500D01*
X77437429Y-170527199D01*
X77420128Y-170604565D01*
X77398787Y-170693851D01*
X77375880Y-170785363D01*
X77237822Y-171328621D01*
X77025178Y-171328621D01*
X77314331Y-170207057D01*
X77612246Y-170207057D01*
X78079849Y-172012501D01*
G37*
G36*
X76505215Y-172012501D02*
G01*
X76286374Y-172012501D01*
X76286374Y-171246555D01*
X75988458Y-171246555D01*
X75636260Y-172012501D01*
X75392628Y-172012501D01*
X75759359Y-171224756D01*
X75712375Y-171206530D01*
X75635379Y-171163993D01*
X75568119Y-171108947D01*
X75510597Y-171041391D01*
X75478786Y-170990365D01*
X75443409Y-170907009D01*
X75422842Y-170815470D01*
X75416991Y-170727234D01*
X75416994Y-170726806D01*
X75646091Y-170726806D01*
X75652718Y-170803435D01*
X75678816Y-170885154D01*
X75729866Y-170959325D01*
X75781250Y-171001888D01*
X75863015Y-171036971D01*
X75951272Y-171047375D01*
X76286374Y-171047375D01*
X76286374Y-170406237D01*
X75951272Y-170406237D01*
X75885823Y-170411687D01*
X75800271Y-170440298D01*
X75729866Y-170493432D01*
X75682170Y-170560155D01*
X75654272Y-170641021D01*
X75646091Y-170726806D01*
X75416994Y-170726806D01*
X75417056Y-170717522D01*
X75424870Y-170624674D01*
X75445707Y-170539589D01*
X75483670Y-170454964D01*
X75530419Y-170387043D01*
X75594186Y-170323901D01*
X75670882Y-170272881D01*
X75693827Y-170261117D01*
X75775305Y-170230263D01*
X75864463Y-170212264D01*
X75951272Y-170207057D01*
X76505215Y-170207057D01*
X76505215Y-172012501D01*
G37*
G36*
X74517262Y-172039856D02*
G01*
X74605949Y-172034972D01*
X74700225Y-172016930D01*
X74784603Y-171985593D01*
X74859081Y-171940961D01*
X74906218Y-171900943D01*
X74961845Y-171835178D01*
X75003808Y-171759432D01*
X75032109Y-171673704D01*
X75046748Y-171577996D01*
X75048978Y-171518825D01*
X75048978Y-170700733D01*
X75043959Y-170613198D01*
X75025417Y-170520342D01*
X74993213Y-170437466D01*
X74947346Y-170364572D01*
X74906218Y-170318615D01*
X74838811Y-170264488D01*
X74761505Y-170223655D01*
X74674299Y-170196117D01*
X74577195Y-170181873D01*
X74517262Y-170179702D01*
X74430172Y-170184661D01*
X74337342Y-170202981D01*
X74253961Y-170234800D01*
X74180030Y-170280118D01*
X74133007Y-170320752D01*
X74077380Y-170387122D01*
X74035417Y-170463187D01*
X74007116Y-170548946D01*
X73992477Y-170644400D01*
X73990247Y-170703298D01*
X74212080Y-170703298D01*
X74219886Y-170612804D01*
X74246503Y-170529459D01*
X74292009Y-170463085D01*
X74361151Y-170411774D01*
X74448687Y-170384145D01*
X74517262Y-170378882D01*
X74609748Y-170388579D01*
X74693707Y-170421277D01*
X74745079Y-170460948D01*
X74795348Y-170532334D01*
X74821047Y-170615619D01*
X74827572Y-170696459D01*
X74827572Y-171517970D01*
X74819516Y-171607378D01*
X74792045Y-171690108D01*
X74745079Y-171756473D01*
X74674374Y-171807784D01*
X74585997Y-171835413D01*
X74517262Y-171840676D01*
X74425079Y-171830776D01*
X74342141Y-171797397D01*
X74292009Y-171756900D01*
X74243302Y-171684392D01*
X74218403Y-171600923D01*
X74212080Y-171520534D01*
X74212080Y-171273910D01*
X74576246Y-171273910D01*
X74576246Y-171074730D01*
X73990247Y-171074730D01*
X73990247Y-171522671D01*
X73995266Y-171608769D01*
X74013808Y-171700366D01*
X74046012Y-171782432D01*
X74091879Y-171854967D01*
X74133007Y-171900943D01*
X74200189Y-171955070D01*
X74276820Y-171995903D01*
X74362901Y-172023441D01*
X74458431Y-172037685D01*
X74517262Y-172039856D01*
G37*
G36*
X73550854Y-172012501D02*
G01*
X73550854Y-170207057D01*
X72516913Y-170207057D01*
X72516913Y-170406237D01*
X73331585Y-170406237D01*
X73331585Y-170965309D01*
X72602825Y-170965309D01*
X72602825Y-171164489D01*
X73331585Y-171164489D01*
X73331585Y-171813320D01*
X72516913Y-171813320D01*
X72516913Y-172012501D01*
X73550854Y-172012501D01*
G37*
D12*
%TO.C,J13*%
X53400000Y-84270000D02*
X58600000Y-84270000D01*
X53400000Y-84840000D02*
X53400000Y-84270000D01*
X53400000Y-87380000D02*
X53400000Y-86360000D01*
X53400000Y-89920000D02*
X53400000Y-88900000D01*
X53400000Y-92460000D02*
X53400000Y-91440000D01*
X53400000Y-95000000D02*
X53400000Y-93980000D01*
X53400000Y-97540000D02*
X53400000Y-96520000D01*
X53400000Y-100080000D02*
X53400000Y-99060000D01*
X53400000Y-102620000D02*
X53400000Y-101600000D01*
X53400000Y-105160000D02*
X53400000Y-104140000D01*
X53400000Y-107700000D02*
X53400000Y-106680000D01*
X53400000Y-110240000D02*
X53400000Y-109220000D01*
X53400000Y-112780000D02*
X53400000Y-111760000D01*
X53400000Y-115320000D02*
X53400000Y-114300000D01*
X53400000Y-117860000D02*
X53400000Y-116840000D01*
X53400000Y-120400000D02*
X53400000Y-119380000D01*
X53400000Y-122940000D02*
X53400000Y-121920000D01*
X53400000Y-125480000D02*
X53400000Y-124460000D01*
X53400000Y-127570000D02*
X53400000Y-127000000D01*
X53400000Y-127570000D02*
X58600000Y-127570000D01*
X58600000Y-84840000D02*
X58600000Y-84270000D01*
X58600000Y-84840000D02*
X60040000Y-84840000D01*
X58600000Y-87380000D02*
X58600000Y-86360000D01*
X58600000Y-89920000D02*
X58600000Y-88900000D01*
X58600000Y-92460000D02*
X58600000Y-91440000D01*
X58600000Y-95000000D02*
X58600000Y-93980000D01*
X58600000Y-97540000D02*
X58600000Y-96520000D01*
X58600000Y-100080000D02*
X58600000Y-99060000D01*
X58600000Y-102620000D02*
X58600000Y-101600000D01*
X58600000Y-105160000D02*
X58600000Y-104140000D01*
X58600000Y-107700000D02*
X58600000Y-106680000D01*
X58600000Y-110240000D02*
X58600000Y-109220000D01*
X58600000Y-112780000D02*
X58600000Y-111760000D01*
X58600000Y-115320000D02*
X58600000Y-114300000D01*
X58600000Y-117860000D02*
X58600000Y-116840000D01*
X58600000Y-120400000D02*
X58600000Y-119380000D01*
X58600000Y-122940000D02*
X58600000Y-121920000D01*
X58600000Y-125480000D02*
X58600000Y-124460000D01*
X58600000Y-127570000D02*
X58600000Y-127000000D01*
D13*
X61350000Y-104020000D02*
X61350000Y-107820000D01*
%TD*%
%LPC*%
D14*
%TO.C,J19*%
X58000000Y-62550000D03*
%TD*%
D15*
%TO.C,J9*%
X73110000Y-168460000D03*
X78890000Y-168460000D03*
D16*
X71680000Y-167930000D03*
D17*
X71680000Y-172110000D03*
D16*
X80320000Y-167930000D03*
D17*
X80320000Y-172110000D03*
%TD*%
D15*
%TO.C,J10*%
X61110000Y-168460000D03*
X66890000Y-168460000D03*
D16*
X59680000Y-167930000D03*
D17*
X59680000Y-172110000D03*
D16*
X68320000Y-167930000D03*
D17*
X68320000Y-172110000D03*
%TD*%
D14*
%TO.C,J17*%
X70000000Y-62550000D03*
%TD*%
%TO.C,J18*%
X82000000Y-62550000D03*
%TD*%
D18*
%TO.C,TP12*%
X75250000Y-89000000D03*
%TD*%
%TO.C,TP15*%
X76000000Y-155000000D03*
%TD*%
%TO.C,TP16*%
X81000000Y-74000000D03*
%TD*%
%TO.C,TP9*%
X72250000Y-89000000D03*
%TD*%
%TO.C,TP2*%
X63000000Y-78638375D03*
%TD*%
%TO.C,TP11*%
X75250000Y-86000000D03*
%TD*%
%TO.C,TP5*%
X60000000Y-75638375D03*
%TD*%
%TO.C,TP4*%
X69000000Y-78638375D03*
%TD*%
%TO.C,TP6*%
X63000000Y-75638375D03*
%TD*%
D19*
%TO.C,J13*%
X59000000Y-85600000D03*
X53000000Y-85600000D03*
X59000000Y-88140000D03*
X53000000Y-88140000D03*
X59000000Y-90680000D03*
X53000000Y-90680000D03*
X59000000Y-93220000D03*
X53000000Y-93220000D03*
X59000000Y-95760000D03*
X53000000Y-95760000D03*
X59000000Y-98300000D03*
X53000000Y-98300000D03*
X59000000Y-100840000D03*
X53000000Y-100840000D03*
X59000000Y-103380000D03*
X53000000Y-103380000D03*
X59000000Y-105920000D03*
X53000000Y-105920000D03*
X59000000Y-108460000D03*
X53000000Y-108460000D03*
X59000000Y-111000000D03*
X53000000Y-111000000D03*
X59000000Y-113540000D03*
X53000000Y-113540000D03*
X59000000Y-116080000D03*
X53000000Y-116080000D03*
X59000000Y-118620000D03*
X53000000Y-118620000D03*
X59000000Y-121160000D03*
X53000000Y-121160000D03*
X59000000Y-123700000D03*
X53000000Y-123700000D03*
X59000000Y-126240000D03*
X53000000Y-126240000D03*
%TD*%
D18*
%TO.C,TP7*%
X66000000Y-75638375D03*
%TD*%
D20*
%TO.C,J15*%
X75080000Y-133480676D03*
X64920000Y-134496676D03*
X64920000Y-132464676D03*
D21*
X73810000Y-134115676D03*
X72540000Y-134115676D03*
X71270000Y-134115676D03*
X70000000Y-134115676D03*
X68730000Y-134115676D03*
X67460000Y-134115676D03*
X66190000Y-134115676D03*
X66190000Y-132845676D03*
X67460000Y-132845676D03*
X68730000Y-132845676D03*
X70000000Y-132845676D03*
X71270000Y-132845676D03*
X72540000Y-132845676D03*
X73810000Y-132845676D03*
%TD*%
D18*
%TO.C,TP13*%
X75250000Y-92000000D03*
%TD*%
%TO.C,TP1*%
X60000000Y-78638375D03*
%TD*%
%TO.C,TP3*%
X66000000Y-78638375D03*
%TD*%
%TO.C,TP17*%
X81000000Y-71000000D03*
%TD*%
%TO.C,TP8*%
X72250000Y-86000000D03*
%TD*%
%TO.C,TP14*%
X79000000Y-155000000D03*
%TD*%
%TO.C,TP10*%
X72250000Y-92000000D03*
%TD*%
%LPD*%
M02*
