M48
; DRILL file {KiCad (5.1.8-0-10_14)} date Wednesday, March 03, 2021 at 08:06:09 PM
; FORMAT={3:3/ absolute / metric / suppress leading zeros}
; #@! TF.CreationDate,2021-03-03T20:06:09+01:00
; #@! TF.GenerationSoftware,Kicad,Pcbnew,(5.1.8-0-10_14)
FMAT,2
METRIC,TZ
T1C0.350
T2C0.400
T3C0.440
T4C0.500
T5C0.900
T6C1.000
T7C1.300
T8C1.500
T9C1.600
T10C2.000
T11C3.200
T12C2.000
T13C3.450
%
G90
G05
T2
X48000Y-80600
X48000Y-85700
X49400Y-76700
X49400Y-89700
X50900Y-118800
X53900Y-117800
X58400Y-80600
X58500Y-104500
X59900Y-76700
X59900Y-89700
X61400Y-118800
X61800Y-66100
X62200Y-146500
X64400Y-117700
X64687Y-96620
X65687Y-96613
X66700Y-96600
X67400Y-136600
X68400Y-146500
X68500Y-136600
X68900Y-80600
X69000Y-78100
X69000Y-85700
X69000Y-104500
X69700Y-135800
X70400Y-89700
X71900Y-118800
X72500Y-110500
X73300Y-111335
X73628Y-132320
X73960Y-68640
X74000Y-112200
X74200Y-131500
X74800Y-146500
X75050Y-117750
X75098Y-110420
X75200Y-109425
X78059Y-116654
X78260Y-99120
X78572Y-109256
X78730Y-87330
X78860Y-123390
X79148Y-116852
X79229Y-110010
X79500Y-71337
X79620Y-99220
X80075Y-110544
X80300Y-70575
X80400Y-112900
X80400Y-117000
X80550Y-130020
X80800Y-138100
X80870Y-140630
X81125Y-69925
X81396Y-113004
X81400Y-117000
X81854Y-68875
X82100Y-140500
X82683Y-67975
X82881Y-79925
X82900Y-119600
X83646Y-79175
X83924Y-67075
X83975Y-127875
X84000Y-97800
X84070Y-138059
X84200Y-96800
X84398Y-139004
X84566Y-78354
X84800Y-61700
X84800Y-80300
X84800Y-98700
X84800Y-148800
X85300Y-117700
X85400Y-128600
X85400Y-129700
X85413Y-118694
X85547Y-138034
X85550Y-121050
X85698Y-77850
X85848Y-139302
X86600Y-68825
X86600Y-105700
X86800Y-87300
X87100Y-138500
X87293Y-139720
X87700Y-59500
X87700Y-60900
X87700Y-74700
X88567Y-138533
X88600Y-72400
X88600Y-80300
X88600Y-90700
X88700Y-98700
X88700Y-140500
X89300Y-127900
X89768Y-136944
X89800Y-60900
X90000Y-131400
X90100Y-115900
X90100Y-117800
X90400Y-147700
X90587Y-105387
X90600Y-68825
X90600Y-87100
X90675Y-107700
X90767Y-136975
X91200Y-96690
X91260Y-97689
X91600Y-117700
X91675Y-107700
X92000Y-136525
X92600Y-147700
X93718Y-110177
X94250Y-109324
X94851Y-108525
X95640Y-98810
X95650Y-112311
X95700Y-148900
X96000Y-67500
X96139Y-109591
X96360Y-95110
X96364Y-108616
X96393Y-113007
X96725Y-68925
X97100Y-112300
X97190Y-74670
X97200Y-143725
X97413Y-67887
X97830Y-83950
X97949Y-113059
X98234Y-104837
X98400Y-80400
X98600Y-112300
X98719Y-107286
X98894Y-108271
X99216Y-104043
X99600Y-79900
X99684Y-105134
X99745Y-107374
X99922Y-103294
X100025Y-119400
X100196Y-104275
X100507Y-108125
X100520Y-120931
X100600Y-79275
X100739Y-102016
X101225Y-101142
X101285Y-98394
X101347Y-122926
X101355Y-107594
X101600Y-116400
X101600Y-78400
X102046Y-97693
X102100Y-121700
X102205Y-101344
X102546Y-103593
X102771Y-96995
X102900Y-118500
X103100Y-123600
X103513Y-96325
X103539Y-103714
X103575Y-102714
X103939Y-125315
X104300Y-123695
X104720Y-110540
X104900Y-119600
X104938Y-125362
X105100Y-69500
X105300Y-83950
X105556Y-98431
X105680Y-111780
X105934Y-125448
X105953Y-95289
X106074Y-126956
X106109Y-110807
X106212Y-102965
X106350Y-70348
X106407Y-118040
X106475Y-107545
X106525Y-106546
X106536Y-98632
X106563Y-103901
X106700Y-126100
X106733Y-110025
X106825Y-94775
X106940Y-69402
X107200Y-113900
X107369Y-124250
X107498Y-122321
X107607Y-121327
X107987Y-120378
X108151Y-113590
X108177Y-112590
X108194Y-123685
X108200Y-96681
X108726Y-99474
X108819Y-131100
X109200Y-96649
X109300Y-89000
X109300Y-132000
X109400Y-87800
X109400Y-90200
X109775Y-99463
X110314Y-131259
X110875Y-113495
X110900Y-101400
X111000Y-94300
X111039Y-132105
X111249Y-96651
X111346Y-109471
X111500Y-86700
X111764Y-131100
X112005Y-110530
X112489Y-132076
X112704Y-111245
X112726Y-127299
X112900Y-101200
X112900Y-102200
X113023Y-112193
X113200Y-73500
X113200Y-92700
X113237Y-131097
X113300Y-89000
X113300Y-90200
X113300Y-96200
X113700Y-113200
X113726Y-127300
X113820Y-121850
X113878Y-146577
X113987Y-116057
X114100Y-106400
X114160Y-114340
X114290Y-118667
X114362Y-102010
X114400Y-96200
X114559Y-117704
X114640Y-121080
X114735Y-116720
X114800Y-105600
X115200Y-92200
X115207Y-101475
X115889Y-107364
X115900Y-119700
X115980Y-95569
X116000Y-90700
X116296Y-103725
X116700Y-96300
X116725Y-92220
X116888Y-107410
X117000Y-108403
X117250Y-94300
X117274Y-103936
X117400Y-89700
X117538Y-105059
X117900Y-110600
X117900Y-117700
X118206Y-91800
X118225Y-96148
X118980Y-121820
X119095Y-93300
X119098Y-127405
X119150Y-94300
X119800Y-96200
X119810Y-104030
X120230Y-127470
X120601Y-90817
X120650Y-91822
X120912Y-96343
X120940Y-107975
X121054Y-89926
X121373Y-131194
X121532Y-108824
X121606Y-89092
X121700Y-86700
X121800Y-103025
X121876Y-96611
X121983Y-130402
X122100Y-64600
X122300Y-109700
X122349Y-95730
X122371Y-120414
X122372Y-102205
X122420Y-122320
X122697Y-121359
X122900Y-130900
X123326Y-96500
X123600Y-104100
X123830Y-111920
X123838Y-95641
X123970Y-113200
X124164Y-127300
X124800Y-96200
X124979Y-112532
X125000Y-89100
X125164Y-127300
X125800Y-96200
X125800Y-107400
X126300Y-95325
X126507Y-108207
X127137Y-109763
X127500Y-90600
X127551Y-127364
X128051Y-88528
X128100Y-89700
X128200Y-96300
X128725Y-115000
X128898Y-87802
X129118Y-95738
X129624Y-87115
X129692Y-79989
X129788Y-111815
X129793Y-95000
X130300Y-74800
X130300Y-127300
X130300Y-142100
X130449Y-79334
X130540Y-112560
X130600Y-104100
X130600Y-88800
X131000Y-78500
X131000Y-105800
X131020Y-116870
X131300Y-127300
X131356Y-142169
X131470Y-113330
X131500Y-76200
X131505Y-96021
X132000Y-105900
X132200Y-137960
X132513Y-95662
X132600Y-113735
X133025Y-138900
X133028Y-105200
X133117Y-94170
X133300Y-86200
X133589Y-95711
X133992Y-98083
X134400Y-84900
X134922Y-98452
X135100Y-93600
X135484Y-83859
X135600Y-64600
X136300Y-102600
X136300Y-105100
X136429Y-109691
X136500Y-120500
X136504Y-110688
X136618Y-116912
X136975Y-112675
X136975Y-113675
X137251Y-117686
X138003Y-103941
X138040Y-100120
X138105Y-102946
X138200Y-114989
X138200Y-115989
X138300Y-118100
X138310Y-120825
X138317Y-122325
X138600Y-92500
X138700Y-106700
X139037Y-91537
X139350Y-118750
X139400Y-139900
X139400Y-141800
X139570Y-112832
X139600Y-102600
X139724Y-114819
X139725Y-113819
X139767Y-105389
X139900Y-76300
X140075Y-115800
X140175Y-88800
X140300Y-137500
X140490Y-145390
X140500Y-141800
X140600Y-106800
X140800Y-78600
X140900Y-109525
X141195Y-115353
X141321Y-79453
X141415Y-104000
X141572Y-110266
X141807Y-80327
X142039Y-100123
X142200Y-86200
X142300Y-94200
X142680Y-105677
X142700Y-106697
X142790Y-145490
X142800Y-139525
X142800Y-142200
X142887Y-107760
X143045Y-99501
X143331Y-108717
X143500Y-82000
X143600Y-89700
X144110Y-82994
X144500Y-108600
X144579Y-110879
X145300Y-137500
X145500Y-97100
X145600Y-88600
X145925Y-115968
X146174Y-104271
X146400Y-98400
X146400Y-139525
X146863Y-109863
X146870Y-106920
X147100Y-116400
X147400Y-98400
X147590Y-106118
X148300Y-97100
X148300Y-116800
X148915Y-102500
X149537Y-103381
X149800Y-109800
X150200Y-148800
X150245Y-104106
X150390Y-105259
X150509Y-98304
X150800Y-139525
X151500Y-97500
X153195Y-102506
X153200Y-145800
X153300Y-103500
X154300Y-96800
X154300Y-102100
X154600Y-107800
X155100Y-104997
X155500Y-102700
X155900Y-109400
X156000Y-100800
X156100Y-98100
X156300Y-110600
X157222Y-98212
X157529Y-109608
X158075Y-98899
X158325Y-109000
X158400Y-100300
X159200Y-101200
X159200Y-108200
X160000Y-101975
X160100Y-107400
X162904Y-100936
X163000Y-106800
X163990Y-100900
X164000Y-106000
X170700Y-85200
X173880Y-102490
X177500Y-119600
X178700Y-114700
X180100Y-104300
X180200Y-85300
X180800Y-119900
X180900Y-112100
X183000Y-112600
X183600Y-110500
X185400Y-119900
X189400Y-116500
X191500Y-125300
X191500Y-128600
X191600Y-113100
X191800Y-102400
X192500Y-120300
X194300Y-100000
X201400Y-123400
T3
X127550Y-135800
X128200Y-134800
X128850Y-135800
X129500Y-134800
X130150Y-135800
T4
X46100Y-57500
X46803Y-55803
X46803Y-59197
X48500Y-55100
X48500Y-59900
X50197Y-55803
X50197Y-59197
X50900Y-57500
X207100Y-57500
X207803Y-55803
X207803Y-59197
X209500Y-55100
X209500Y-59900
X211197Y-55803
X211197Y-59197
X211900Y-57500
X46100Y-148500
X46803Y-146803
X46803Y-150197
X48500Y-146100
X48500Y-150900
X50197Y-146803
X50197Y-150197
X50900Y-148500
X207100Y-148500
X207803Y-146803
X207803Y-150197
X209500Y-146100
X209500Y-150900
X211197Y-146803
X211197Y-150197
X211900Y-148500
T5
X63400Y-66100
X64670Y-68640
X65940Y-66100
X67210Y-68640
X68480Y-66100
X69750Y-68640
X71020Y-66100
X72290Y-68640
X125490Y-145750
X127990Y-145750
X129990Y-145750
X132490Y-145750
X64850Y-146210
X64850Y-148750
X110200Y-146200
X110200Y-148740
X58600Y-146210
X58600Y-148750
X71200Y-146210
X71200Y-148750
T6
X70390Y-120680
X70390Y-123220
X70390Y-125760
X70390Y-128300
X72930Y-120680
X72930Y-123220
X72930Y-125760
X72930Y-128300
X70450Y-101970
X70450Y-104510
X70450Y-107050
X72990Y-101970
X72990Y-104510
X72990Y-107050
X59950Y-101970
X59950Y-104510
X59950Y-107050
X62490Y-101970
X62490Y-104510
X62490Y-107050
X166300Y-100540
X168840Y-100540
X85250Y-94750
X85250Y-109250
X87750Y-94750
X90250Y-94750
X90250Y-109250
X123600Y-89560
X123600Y-92100
X193850Y-74150
X196350Y-74150
X198850Y-74150
X206660Y-101820
X206660Y-104360
X206660Y-106900
X206660Y-109440
X206660Y-111980
X209200Y-101820
X209200Y-104360
X209200Y-106900
X209200Y-109440
X209200Y-111980
X49400Y-78090
X49400Y-80630
X49400Y-83170
X49400Y-85710
X49400Y-88250
X51940Y-78090
X51940Y-80630
X51940Y-83170
X51940Y-85710
X51940Y-88250
X46500Y-138090
X46500Y-140630
X49040Y-138090
X49040Y-140630
X51580Y-138090
X51580Y-140630
X54120Y-138090
X54120Y-140630
X56660Y-138090
X56660Y-140630
X59200Y-138090
X59200Y-140630
X61740Y-138090
X61740Y-140630
X64280Y-138090
X64280Y-140630
X66820Y-138090
X66820Y-140630
X69360Y-138090
X69360Y-140630
X71900Y-138090
X71900Y-140630
X74440Y-138090
X74440Y-140630
X76980Y-138090
X76980Y-140630
X79520Y-138090
X79520Y-140630
X146600Y-89560
X146600Y-92100
X49390Y-120680
X49390Y-123220
X49390Y-125760
X49390Y-128300
X51930Y-120680
X51930Y-123220
X51930Y-125760
X51930Y-128300
X166300Y-104370
X168840Y-104370
X49450Y-101970
X49450Y-104510
X49450Y-107050
X51990Y-101970
X51990Y-104510
X51990Y-107050
X193850Y-79150
X196350Y-79150
X198850Y-79150
X70400Y-78090
X70400Y-80630
X70400Y-83170
X70400Y-85710
X70400Y-88250
X72940Y-78090
X72940Y-80630
X72940Y-83170
X72940Y-85710
X72940Y-88250
X59900Y-78090
X59900Y-80630
X59900Y-83170
X59900Y-85710
X59900Y-88250
X62440Y-78090
X62440Y-80630
X62440Y-83170
X62440Y-85710
X62440Y-88250
X59890Y-120710
X59890Y-123250
X59890Y-125790
X59890Y-128330
X62430Y-120710
X62430Y-123250
X62430Y-125790
X62430Y-128330
X85200Y-57900
X85200Y-72400
X87700Y-57900
X90200Y-57900
X90200Y-72400
X173920Y-104370
X176460Y-104370
X93100Y-117760
X93100Y-120300
X85250Y-76250
X85250Y-90750
X87750Y-76250
X90250Y-76250
X90250Y-90750
X127560Y-140100
X130100Y-140100
X173920Y-100540
X176460Y-100540
X93100Y-128460
X93100Y-131000
X135100Y-89560
X135100Y-92100
T8
X166550Y-82750
X167050Y-90250
X168750Y-85250
X170450Y-87750
X170950Y-81150
X180120Y-82800
X180620Y-90300
X182320Y-85300
X184020Y-87800
X184520Y-81200
X133350Y-63850
X133850Y-71350
X135550Y-66350
X137250Y-68850
X137750Y-62250
X119850Y-63850
X120350Y-71350
X122050Y-66350
X123750Y-68850
X124250Y-62250
X180120Y-66040
X180620Y-73540
X182320Y-68540
X184020Y-71040
X184520Y-64440
X166550Y-66000
X167050Y-73500
X168750Y-68500
X170450Y-71000
X170950Y-64400
T9
X205990Y-126020
X209800Y-120940
X209800Y-131100
T11
X209500Y-57500
X48500Y-148500
X209500Y-148500
X48500Y-57500
T12
X191950Y-67150
X200750Y-67150
X191950Y-86150
X200750Y-86150
T13
X62130Y-59750
X73560Y-59750
T1
G00X125275Y-135080
M15
G01X125275Y-136080
M16
G05
G00X132425Y-135080
M15
G01X132425Y-136080
M16
G05
T7
G00X122420Y-146850
M15
G01X122420Y-145850
M16
G05
G00X129490Y-150530
M15
G01X128490Y-150530
M16
G05
G00X135560Y-145850
M15
G01X135560Y-146850
M16
G05
T10
G00X82150Y-102000
M15
G01X82150Y-102500
M16
G05
G00X93350Y-102000
M15
G01X93350Y-102500
M16
G05
G00X82100Y-65150
M15
G01X82100Y-65650
M16
G05
G00X93300Y-65150
M15
G01X93300Y-65650
M16
G05
G00X82150Y-83500
M15
G01X82150Y-84000
M16
G05
G00X93350Y-83500
M15
G01X93350Y-84000
M16
G05
T0
M30
