%TF.GenerationSoftware,KiCad,Pcbnew,(5.1.8-0-10_14)*%
%TF.CreationDate,2021-03-03T20:06:49+01:00*%
%TF.ProjectId,KLST_CORE,4b4c5354-5f43-44f5-9245-2e6b69636164,v0.1*%
%TF.SameCoordinates,Original*%
%TF.FileFunction,Paste,Bot*%
%TF.FilePolarity,Positive*%
%FSLAX46Y46*%
G04 Gerber Fmt 4.6, Leading zero omitted, Abs format (unit mm)*
G04 Created by KiCad (PCBNEW (5.1.8-0-10_14)) date 2021-03-03 20:06:49*
%MOMM*%
%LPD*%
G01*
G04 APERTURE LIST*
%ADD10R,1.300000X1.550000*%
%ADD11R,2.400000X0.740000*%
%ADD12R,0.800000X1.500000*%
%ADD13R,1.450000X2.000000*%
G04 APERTURE END LIST*
D10*
%TO.C,SW2*%
X127500000Y-86225000D03*
X132000000Y-86225000D03*
X132000000Y-94175000D03*
X127500000Y-94175000D03*
%TD*%
%TO.C,SW1*%
X120500000Y-94175000D03*
X116000000Y-94175000D03*
X116000000Y-86225000D03*
X120500000Y-86225000D03*
%TD*%
%TO.C,SW5*%
X139000000Y-86265000D03*
X143500000Y-86265000D03*
X143500000Y-94215000D03*
X139000000Y-94215000D03*
%TD*%
%TO.C,SW4*%
X85500000Y-125095000D03*
X90000000Y-125095000D03*
X90000000Y-133045000D03*
X85500000Y-133045000D03*
%TD*%
%TO.C,SW3*%
X85550000Y-114425000D03*
X90050000Y-114425000D03*
X90050000Y-122375000D03*
X85550000Y-122375000D03*
%TD*%
D11*
%TO.C,J9*%
X107550000Y-92740000D03*
X111450000Y-92740000D03*
X107550000Y-91470000D03*
X111450000Y-91470000D03*
X107550000Y-90200000D03*
X111450000Y-90200000D03*
X107550000Y-88930000D03*
X111450000Y-88930000D03*
X107550000Y-87660000D03*
X111450000Y-87660000D03*
%TD*%
D12*
%TO.C,J2*%
X87100000Y-146250000D03*
X88200000Y-146250000D03*
X89300000Y-146250000D03*
X90400000Y-146250000D03*
X91500000Y-146250000D03*
X92600000Y-146250000D03*
X93700000Y-146250000D03*
X94800000Y-146250000D03*
D13*
X97175000Y-140550000D03*
X83425000Y-140550000D03*
X83425000Y-148850000D03*
X97175000Y-148850000D03*
%TD*%
M02*
