%TF.GenerationSoftware,KiCad,Pcbnew,7.0.1-0*%
%TF.CreationDate,2023-05-08T09:26:49+02:00*%
%TF.ProjectId,KLST_SOIL,4b4c5354-5f53-44f4-994c-2e6b69636164,rev?*%
%TF.SameCoordinates,Original*%
%TF.FileFunction,Legend,Top*%
%TF.FilePolarity,Positive*%
%FSLAX46Y46*%
G04 Gerber Fmt 4.6, Leading zero omitted, Abs format (unit mm)*
G04 Created by KiCad (PCBNEW 7.0.1-0) date 2023-05-08 09:26:49*
%MOMM*%
%LPD*%
G01*
G04 APERTURE LIST*
G04 Aperture macros list*
%AMRoundRect*
0 Rectangle with rounded corners*
0 $1 Rounding radius*
0 $2 $3 $4 $5 $6 $7 $8 $9 X,Y pos of 4 corners*
0 Add a 4 corners polygon primitive as box body*
4,1,4,$2,$3,$4,$5,$6,$7,$8,$9,$2,$3,0*
0 Add four circle primitives for the rounded corners*
1,1,$1+$1,$2,$3*
1,1,$1+$1,$4,$5*
1,1,$1+$1,$6,$7*
1,1,$1+$1,$8,$9*
0 Add four rect primitives between the rounded corners*
20,1,$1+$1,$2,$3,$4,$5,0*
20,1,$1+$1,$4,$5,$6,$7,0*
20,1,$1+$1,$6,$7,$8,$9,0*
20,1,$1+$1,$8,$9,$2,$3,0*%
G04 Aperture macros list end*
%ADD10C,0.150000*%
%ADD11C,0.120000*%
%ADD12C,0.200000*%
%ADD13RoundRect,0.140000X0.140000X0.170000X-0.140000X0.170000X-0.140000X-0.170000X0.140000X-0.170000X0*%
%ADD14RoundRect,0.140000X-0.140000X-0.170000X0.140000X-0.170000X0.140000X0.170000X-0.140000X0.170000X0*%
%ADD15R,1.700000X1.700000*%
%ADD16O,1.700000X1.700000*%
%ADD17RoundRect,0.140000X0.170000X-0.140000X0.170000X0.140000X-0.170000X0.140000X-0.170000X-0.140000X0*%
%ADD18C,0.370000*%
G04 APERTURE END LIST*
D10*
X144002095Y-104348619D02*
X144002095Y-103348619D01*
X144002095Y-103348619D02*
X144240190Y-103348619D01*
X144240190Y-103348619D02*
X144383047Y-103396238D01*
X144383047Y-103396238D02*
X144478285Y-103491476D01*
X144478285Y-103491476D02*
X144525904Y-103586714D01*
X144525904Y-103586714D02*
X144573523Y-103777190D01*
X144573523Y-103777190D02*
X144573523Y-103920047D01*
X144573523Y-103920047D02*
X144525904Y-104110523D01*
X144525904Y-104110523D02*
X144478285Y-104205761D01*
X144478285Y-104205761D02*
X144383047Y-104301000D01*
X144383047Y-104301000D02*
X144240190Y-104348619D01*
X144240190Y-104348619D02*
X144002095Y-104348619D01*
X145668761Y-104443857D02*
X145573523Y-104396238D01*
X145573523Y-104396238D02*
X145478285Y-104301000D01*
X145478285Y-104301000D02*
X145335428Y-104158142D01*
X145335428Y-104158142D02*
X145240190Y-104110523D01*
X145240190Y-104110523D02*
X145144952Y-104110523D01*
X145192571Y-104348619D02*
X145097333Y-104301000D01*
X145097333Y-104301000D02*
X145002095Y-104205761D01*
X145002095Y-104205761D02*
X144954476Y-104015285D01*
X144954476Y-104015285D02*
X144954476Y-103681952D01*
X144954476Y-103681952D02*
X145002095Y-103491476D01*
X145002095Y-103491476D02*
X145097333Y-103396238D01*
X145097333Y-103396238D02*
X145192571Y-103348619D01*
X145192571Y-103348619D02*
X145383047Y-103348619D01*
X145383047Y-103348619D02*
X145478285Y-103396238D01*
X145478285Y-103396238D02*
X145573523Y-103491476D01*
X145573523Y-103491476D02*
X145621142Y-103681952D01*
X145621142Y-103681952D02*
X145621142Y-104015285D01*
X145621142Y-104015285D02*
X145573523Y-104205761D01*
X145573523Y-104205761D02*
X145478285Y-104301000D01*
X145478285Y-104301000D02*
X145383047Y-104348619D01*
X145383047Y-104348619D02*
X145192571Y-104348619D01*
X146002095Y-104301000D02*
X146144952Y-104348619D01*
X146144952Y-104348619D02*
X146383047Y-104348619D01*
X146383047Y-104348619D02*
X146478285Y-104301000D01*
X146478285Y-104301000D02*
X146525904Y-104253380D01*
X146525904Y-104253380D02*
X146573523Y-104158142D01*
X146573523Y-104158142D02*
X146573523Y-104062904D01*
X146573523Y-104062904D02*
X146525904Y-103967666D01*
X146525904Y-103967666D02*
X146478285Y-103920047D01*
X146478285Y-103920047D02*
X146383047Y-103872428D01*
X146383047Y-103872428D02*
X146192571Y-103824809D01*
X146192571Y-103824809D02*
X146097333Y-103777190D01*
X146097333Y-103777190D02*
X146049714Y-103729571D01*
X146049714Y-103729571D02*
X146002095Y-103634333D01*
X146002095Y-103634333D02*
X146002095Y-103539095D01*
X146002095Y-103539095D02*
X146049714Y-103443857D01*
X146049714Y-103443857D02*
X146097333Y-103396238D01*
X146097333Y-103396238D02*
X146192571Y-103348619D01*
X146192571Y-103348619D02*
X146430666Y-103348619D01*
X146430666Y-103348619D02*
X146573523Y-103396238D01*
X144002095Y-99268619D02*
X144002095Y-98268619D01*
X144002095Y-98268619D02*
X144573523Y-99268619D01*
X144573523Y-99268619D02*
X144573523Y-98268619D01*
X145621142Y-99173380D02*
X145573523Y-99221000D01*
X145573523Y-99221000D02*
X145430666Y-99268619D01*
X145430666Y-99268619D02*
X145335428Y-99268619D01*
X145335428Y-99268619D02*
X145192571Y-99221000D01*
X145192571Y-99221000D02*
X145097333Y-99125761D01*
X145097333Y-99125761D02*
X145049714Y-99030523D01*
X145049714Y-99030523D02*
X145002095Y-98840047D01*
X145002095Y-98840047D02*
X145002095Y-98697190D01*
X145002095Y-98697190D02*
X145049714Y-98506714D01*
X145049714Y-98506714D02*
X145097333Y-98411476D01*
X145097333Y-98411476D02*
X145192571Y-98316238D01*
X145192571Y-98316238D02*
X145335428Y-98268619D01*
X145335428Y-98268619D02*
X145430666Y-98268619D01*
X145430666Y-98268619D02*
X145573523Y-98316238D01*
X145573523Y-98316238D02*
X145621142Y-98363857D01*
X146002095Y-99221000D02*
X146144952Y-99268619D01*
X146144952Y-99268619D02*
X146383047Y-99268619D01*
X146383047Y-99268619D02*
X146478285Y-99221000D01*
X146478285Y-99221000D02*
X146525904Y-99173380D01*
X146525904Y-99173380D02*
X146573523Y-99078142D01*
X146573523Y-99078142D02*
X146573523Y-98982904D01*
X146573523Y-98982904D02*
X146525904Y-98887666D01*
X146525904Y-98887666D02*
X146478285Y-98840047D01*
X146478285Y-98840047D02*
X146383047Y-98792428D01*
X146383047Y-98792428D02*
X146192571Y-98744809D01*
X146192571Y-98744809D02*
X146097333Y-98697190D01*
X146097333Y-98697190D02*
X146049714Y-98649571D01*
X146049714Y-98649571D02*
X146002095Y-98554333D01*
X146002095Y-98554333D02*
X146002095Y-98459095D01*
X146002095Y-98459095D02*
X146049714Y-98363857D01*
X146049714Y-98363857D02*
X146097333Y-98316238D01*
X146097333Y-98316238D02*
X146192571Y-98268619D01*
X146192571Y-98268619D02*
X146430666Y-98268619D01*
X146430666Y-98268619D02*
X146573523Y-98316238D01*
X143906857Y-90562619D02*
X144525904Y-90562619D01*
X144525904Y-90562619D02*
X144192571Y-90943571D01*
X144192571Y-90943571D02*
X144335428Y-90943571D01*
X144335428Y-90943571D02*
X144430666Y-90991190D01*
X144430666Y-90991190D02*
X144478285Y-91038809D01*
X144478285Y-91038809D02*
X144525904Y-91134047D01*
X144525904Y-91134047D02*
X144525904Y-91372142D01*
X144525904Y-91372142D02*
X144478285Y-91467380D01*
X144478285Y-91467380D02*
X144430666Y-91515000D01*
X144430666Y-91515000D02*
X144335428Y-91562619D01*
X144335428Y-91562619D02*
X144049714Y-91562619D01*
X144049714Y-91562619D02*
X143954476Y-91515000D01*
X143954476Y-91515000D02*
X143906857Y-91467380D01*
X144811619Y-90562619D02*
X145144952Y-91562619D01*
X145144952Y-91562619D02*
X145478285Y-90562619D01*
X145716381Y-90562619D02*
X146335428Y-90562619D01*
X146335428Y-90562619D02*
X146002095Y-90943571D01*
X146002095Y-90943571D02*
X146144952Y-90943571D01*
X146144952Y-90943571D02*
X146240190Y-90991190D01*
X146240190Y-90991190D02*
X146287809Y-91038809D01*
X146287809Y-91038809D02*
X146335428Y-91134047D01*
X146335428Y-91134047D02*
X146335428Y-91372142D01*
X146335428Y-91372142D02*
X146287809Y-91467380D01*
X146287809Y-91467380D02*
X146240190Y-91515000D01*
X146240190Y-91515000D02*
X146144952Y-91562619D01*
X146144952Y-91562619D02*
X145859238Y-91562619D01*
X145859238Y-91562619D02*
X145764000Y-91515000D01*
X145764000Y-91515000D02*
X145716381Y-91467380D01*
X135683905Y-106888619D02*
X135683905Y-105888619D01*
X136350571Y-105888619D02*
X136541047Y-105888619D01*
X136541047Y-105888619D02*
X136636285Y-105936238D01*
X136636285Y-105936238D02*
X136731523Y-106031476D01*
X136731523Y-106031476D02*
X136779142Y-106221952D01*
X136779142Y-106221952D02*
X136779142Y-106555285D01*
X136779142Y-106555285D02*
X136731523Y-106745761D01*
X136731523Y-106745761D02*
X136636285Y-106841000D01*
X136636285Y-106841000D02*
X136541047Y-106888619D01*
X136541047Y-106888619D02*
X136350571Y-106888619D01*
X136350571Y-106888619D02*
X136255333Y-106841000D01*
X136255333Y-106841000D02*
X136160095Y-106745761D01*
X136160095Y-106745761D02*
X136112476Y-106555285D01*
X136112476Y-106555285D02*
X136112476Y-106221952D01*
X136112476Y-106221952D02*
X136160095Y-106031476D01*
X136160095Y-106031476D02*
X136255333Y-105936238D01*
X136255333Y-105936238D02*
X136350571Y-105888619D01*
X137636285Y-105888619D02*
X137445809Y-105888619D01*
X137445809Y-105888619D02*
X137350571Y-105936238D01*
X137350571Y-105936238D02*
X137302952Y-105983857D01*
X137302952Y-105983857D02*
X137207714Y-106126714D01*
X137207714Y-106126714D02*
X137160095Y-106317190D01*
X137160095Y-106317190D02*
X137160095Y-106698142D01*
X137160095Y-106698142D02*
X137207714Y-106793380D01*
X137207714Y-106793380D02*
X137255333Y-106841000D01*
X137255333Y-106841000D02*
X137350571Y-106888619D01*
X137350571Y-106888619D02*
X137541047Y-106888619D01*
X137541047Y-106888619D02*
X137636285Y-106841000D01*
X137636285Y-106841000D02*
X137683904Y-106793380D01*
X137683904Y-106793380D02*
X137731523Y-106698142D01*
X137731523Y-106698142D02*
X137731523Y-106460047D01*
X137731523Y-106460047D02*
X137683904Y-106364809D01*
X137683904Y-106364809D02*
X137636285Y-106317190D01*
X137636285Y-106317190D02*
X137541047Y-106269571D01*
X137541047Y-106269571D02*
X137350571Y-106269571D01*
X137350571Y-106269571D02*
X137255333Y-106317190D01*
X137255333Y-106317190D02*
X137207714Y-106364809D01*
X137207714Y-106364809D02*
X137160095Y-106460047D01*
X135683905Y-104348619D02*
X135683905Y-103348619D01*
X136350571Y-103348619D02*
X136541047Y-103348619D01*
X136541047Y-103348619D02*
X136636285Y-103396238D01*
X136636285Y-103396238D02*
X136731523Y-103491476D01*
X136731523Y-103491476D02*
X136779142Y-103681952D01*
X136779142Y-103681952D02*
X136779142Y-104015285D01*
X136779142Y-104015285D02*
X136731523Y-104205761D01*
X136731523Y-104205761D02*
X136636285Y-104301000D01*
X136636285Y-104301000D02*
X136541047Y-104348619D01*
X136541047Y-104348619D02*
X136350571Y-104348619D01*
X136350571Y-104348619D02*
X136255333Y-104301000D01*
X136255333Y-104301000D02*
X136160095Y-104205761D01*
X136160095Y-104205761D02*
X136112476Y-104015285D01*
X136112476Y-104015285D02*
X136112476Y-103681952D01*
X136112476Y-103681952D02*
X136160095Y-103491476D01*
X136160095Y-103491476D02*
X136255333Y-103396238D01*
X136255333Y-103396238D02*
X136350571Y-103348619D01*
X137683904Y-103348619D02*
X137207714Y-103348619D01*
X137207714Y-103348619D02*
X137160095Y-103824809D01*
X137160095Y-103824809D02*
X137207714Y-103777190D01*
X137207714Y-103777190D02*
X137302952Y-103729571D01*
X137302952Y-103729571D02*
X137541047Y-103729571D01*
X137541047Y-103729571D02*
X137636285Y-103777190D01*
X137636285Y-103777190D02*
X137683904Y-103824809D01*
X137683904Y-103824809D02*
X137731523Y-103920047D01*
X137731523Y-103920047D02*
X137731523Y-104158142D01*
X137731523Y-104158142D02*
X137683904Y-104253380D01*
X137683904Y-104253380D02*
X137636285Y-104301000D01*
X137636285Y-104301000D02*
X137541047Y-104348619D01*
X137541047Y-104348619D02*
X137302952Y-104348619D01*
X137302952Y-104348619D02*
X137207714Y-104301000D01*
X137207714Y-104301000D02*
X137160095Y-104253380D01*
X135683905Y-94188619D02*
X135683905Y-93188619D01*
X136350571Y-93188619D02*
X136541047Y-93188619D01*
X136541047Y-93188619D02*
X136636285Y-93236238D01*
X136636285Y-93236238D02*
X136731523Y-93331476D01*
X136731523Y-93331476D02*
X136779142Y-93521952D01*
X136779142Y-93521952D02*
X136779142Y-93855285D01*
X136779142Y-93855285D02*
X136731523Y-94045761D01*
X136731523Y-94045761D02*
X136636285Y-94141000D01*
X136636285Y-94141000D02*
X136541047Y-94188619D01*
X136541047Y-94188619D02*
X136350571Y-94188619D01*
X136350571Y-94188619D02*
X136255333Y-94141000D01*
X136255333Y-94141000D02*
X136160095Y-94045761D01*
X136160095Y-94045761D02*
X136112476Y-93855285D01*
X136112476Y-93855285D02*
X136112476Y-93521952D01*
X136112476Y-93521952D02*
X136160095Y-93331476D01*
X136160095Y-93331476D02*
X136255333Y-93236238D01*
X136255333Y-93236238D02*
X136350571Y-93188619D01*
X137731523Y-94188619D02*
X137160095Y-94188619D01*
X137445809Y-94188619D02*
X137445809Y-93188619D01*
X137445809Y-93188619D02*
X137350571Y-93331476D01*
X137350571Y-93331476D02*
X137255333Y-93426714D01*
X137255333Y-93426714D02*
X137160095Y-93474333D01*
X135683905Y-101808619D02*
X135683905Y-100808619D01*
X136350571Y-100808619D02*
X136541047Y-100808619D01*
X136541047Y-100808619D02*
X136636285Y-100856238D01*
X136636285Y-100856238D02*
X136731523Y-100951476D01*
X136731523Y-100951476D02*
X136779142Y-101141952D01*
X136779142Y-101141952D02*
X136779142Y-101475285D01*
X136779142Y-101475285D02*
X136731523Y-101665761D01*
X136731523Y-101665761D02*
X136636285Y-101761000D01*
X136636285Y-101761000D02*
X136541047Y-101808619D01*
X136541047Y-101808619D02*
X136350571Y-101808619D01*
X136350571Y-101808619D02*
X136255333Y-101761000D01*
X136255333Y-101761000D02*
X136160095Y-101665761D01*
X136160095Y-101665761D02*
X136112476Y-101475285D01*
X136112476Y-101475285D02*
X136112476Y-101141952D01*
X136112476Y-101141952D02*
X136160095Y-100951476D01*
X136160095Y-100951476D02*
X136255333Y-100856238D01*
X136255333Y-100856238D02*
X136350571Y-100808619D01*
X137636285Y-101141952D02*
X137636285Y-101808619D01*
X137398190Y-100761000D02*
X137160095Y-101475285D01*
X137160095Y-101475285D02*
X137779142Y-101475285D01*
X144573523Y-101713380D02*
X144525904Y-101761000D01*
X144525904Y-101761000D02*
X144383047Y-101808619D01*
X144383047Y-101808619D02*
X144287809Y-101808619D01*
X144287809Y-101808619D02*
X144144952Y-101761000D01*
X144144952Y-101761000D02*
X144049714Y-101665761D01*
X144049714Y-101665761D02*
X144002095Y-101570523D01*
X144002095Y-101570523D02*
X143954476Y-101380047D01*
X143954476Y-101380047D02*
X143954476Y-101237190D01*
X143954476Y-101237190D02*
X144002095Y-101046714D01*
X144002095Y-101046714D02*
X144049714Y-100951476D01*
X144049714Y-100951476D02*
X144144952Y-100856238D01*
X144144952Y-100856238D02*
X144287809Y-100808619D01*
X144287809Y-100808619D02*
X144383047Y-100808619D01*
X144383047Y-100808619D02*
X144525904Y-100856238D01*
X144525904Y-100856238D02*
X144573523Y-100903857D01*
X145478285Y-101808619D02*
X145002095Y-101808619D01*
X145002095Y-101808619D02*
X145002095Y-100808619D01*
X145811619Y-101808619D02*
X145811619Y-100808619D01*
X146383047Y-101808619D02*
X145954476Y-101237190D01*
X146383047Y-100808619D02*
X145811619Y-101380047D01*
X144573523Y-96728619D02*
X144240190Y-96252428D01*
X144002095Y-96728619D02*
X144002095Y-95728619D01*
X144002095Y-95728619D02*
X144383047Y-95728619D01*
X144383047Y-95728619D02*
X144478285Y-95776238D01*
X144478285Y-95776238D02*
X144525904Y-95823857D01*
X144525904Y-95823857D02*
X144573523Y-95919095D01*
X144573523Y-95919095D02*
X144573523Y-96061952D01*
X144573523Y-96061952D02*
X144525904Y-96157190D01*
X144525904Y-96157190D02*
X144478285Y-96204809D01*
X144478285Y-96204809D02*
X144383047Y-96252428D01*
X144383047Y-96252428D02*
X144002095Y-96252428D01*
X144954476Y-96681000D02*
X145097333Y-96728619D01*
X145097333Y-96728619D02*
X145335428Y-96728619D01*
X145335428Y-96728619D02*
X145430666Y-96681000D01*
X145430666Y-96681000D02*
X145478285Y-96633380D01*
X145478285Y-96633380D02*
X145525904Y-96538142D01*
X145525904Y-96538142D02*
X145525904Y-96442904D01*
X145525904Y-96442904D02*
X145478285Y-96347666D01*
X145478285Y-96347666D02*
X145430666Y-96300047D01*
X145430666Y-96300047D02*
X145335428Y-96252428D01*
X145335428Y-96252428D02*
X145144952Y-96204809D01*
X145144952Y-96204809D02*
X145049714Y-96157190D01*
X145049714Y-96157190D02*
X145002095Y-96109571D01*
X145002095Y-96109571D02*
X144954476Y-96014333D01*
X144954476Y-96014333D02*
X144954476Y-95919095D01*
X144954476Y-95919095D02*
X145002095Y-95823857D01*
X145002095Y-95823857D02*
X145049714Y-95776238D01*
X145049714Y-95776238D02*
X145144952Y-95728619D01*
X145144952Y-95728619D02*
X145383047Y-95728619D01*
X145383047Y-95728619D02*
X145525904Y-95776238D01*
X145811619Y-95728619D02*
X146383047Y-95728619D01*
X146097333Y-96728619D02*
X146097333Y-95728619D01*
X144525904Y-105936238D02*
X144430666Y-105888619D01*
X144430666Y-105888619D02*
X144287809Y-105888619D01*
X144287809Y-105888619D02*
X144144952Y-105936238D01*
X144144952Y-105936238D02*
X144049714Y-106031476D01*
X144049714Y-106031476D02*
X144002095Y-106126714D01*
X144002095Y-106126714D02*
X143954476Y-106317190D01*
X143954476Y-106317190D02*
X143954476Y-106460047D01*
X143954476Y-106460047D02*
X144002095Y-106650523D01*
X144002095Y-106650523D02*
X144049714Y-106745761D01*
X144049714Y-106745761D02*
X144144952Y-106841000D01*
X144144952Y-106841000D02*
X144287809Y-106888619D01*
X144287809Y-106888619D02*
X144383047Y-106888619D01*
X144383047Y-106888619D02*
X144525904Y-106841000D01*
X144525904Y-106841000D02*
X144573523Y-106793380D01*
X144573523Y-106793380D02*
X144573523Y-106460047D01*
X144573523Y-106460047D02*
X144383047Y-106460047D01*
X145002095Y-106888619D02*
X145002095Y-105888619D01*
X145002095Y-105888619D02*
X145573523Y-106888619D01*
X145573523Y-106888619D02*
X145573523Y-105888619D01*
X146049714Y-106888619D02*
X146049714Y-105888619D01*
X146049714Y-105888619D02*
X146287809Y-105888619D01*
X146287809Y-105888619D02*
X146430666Y-105936238D01*
X146430666Y-105936238D02*
X146525904Y-106031476D01*
X146525904Y-106031476D02*
X146573523Y-106126714D01*
X146573523Y-106126714D02*
X146621142Y-106317190D01*
X146621142Y-106317190D02*
X146621142Y-106460047D01*
X146621142Y-106460047D02*
X146573523Y-106650523D01*
X146573523Y-106650523D02*
X146525904Y-106745761D01*
X146525904Y-106745761D02*
X146430666Y-106841000D01*
X146430666Y-106841000D02*
X146287809Y-106888619D01*
X146287809Y-106888619D02*
X146049714Y-106888619D01*
X135683905Y-109428619D02*
X135683905Y-108428619D01*
X136350571Y-108428619D02*
X136541047Y-108428619D01*
X136541047Y-108428619D02*
X136636285Y-108476238D01*
X136636285Y-108476238D02*
X136731523Y-108571476D01*
X136731523Y-108571476D02*
X136779142Y-108761952D01*
X136779142Y-108761952D02*
X136779142Y-109095285D01*
X136779142Y-109095285D02*
X136731523Y-109285761D01*
X136731523Y-109285761D02*
X136636285Y-109381000D01*
X136636285Y-109381000D02*
X136541047Y-109428619D01*
X136541047Y-109428619D02*
X136350571Y-109428619D01*
X136350571Y-109428619D02*
X136255333Y-109381000D01*
X136255333Y-109381000D02*
X136160095Y-109285761D01*
X136160095Y-109285761D02*
X136112476Y-109095285D01*
X136112476Y-109095285D02*
X136112476Y-108761952D01*
X136112476Y-108761952D02*
X136160095Y-108571476D01*
X136160095Y-108571476D02*
X136255333Y-108476238D01*
X136255333Y-108476238D02*
X136350571Y-108428619D01*
X137112476Y-108428619D02*
X137779142Y-108428619D01*
X137779142Y-108428619D02*
X137350571Y-109428619D01*
X135683905Y-99268619D02*
X135683905Y-98268619D01*
X136350571Y-98268619D02*
X136541047Y-98268619D01*
X136541047Y-98268619D02*
X136636285Y-98316238D01*
X136636285Y-98316238D02*
X136731523Y-98411476D01*
X136731523Y-98411476D02*
X136779142Y-98601952D01*
X136779142Y-98601952D02*
X136779142Y-98935285D01*
X136779142Y-98935285D02*
X136731523Y-99125761D01*
X136731523Y-99125761D02*
X136636285Y-99221000D01*
X136636285Y-99221000D02*
X136541047Y-99268619D01*
X136541047Y-99268619D02*
X136350571Y-99268619D01*
X136350571Y-99268619D02*
X136255333Y-99221000D01*
X136255333Y-99221000D02*
X136160095Y-99125761D01*
X136160095Y-99125761D02*
X136112476Y-98935285D01*
X136112476Y-98935285D02*
X136112476Y-98601952D01*
X136112476Y-98601952D02*
X136160095Y-98411476D01*
X136160095Y-98411476D02*
X136255333Y-98316238D01*
X136255333Y-98316238D02*
X136350571Y-98268619D01*
X137112476Y-98268619D02*
X137731523Y-98268619D01*
X137731523Y-98268619D02*
X137398190Y-98649571D01*
X137398190Y-98649571D02*
X137541047Y-98649571D01*
X137541047Y-98649571D02*
X137636285Y-98697190D01*
X137636285Y-98697190D02*
X137683904Y-98744809D01*
X137683904Y-98744809D02*
X137731523Y-98840047D01*
X137731523Y-98840047D02*
X137731523Y-99078142D01*
X137731523Y-99078142D02*
X137683904Y-99173380D01*
X137683904Y-99173380D02*
X137636285Y-99221000D01*
X137636285Y-99221000D02*
X137541047Y-99268619D01*
X137541047Y-99268619D02*
X137255333Y-99268619D01*
X137255333Y-99268619D02*
X137160095Y-99221000D01*
X137160095Y-99221000D02*
X137112476Y-99173380D01*
X143906857Y-93188619D02*
X144525904Y-93188619D01*
X144525904Y-93188619D02*
X144192571Y-93569571D01*
X144192571Y-93569571D02*
X144335428Y-93569571D01*
X144335428Y-93569571D02*
X144430666Y-93617190D01*
X144430666Y-93617190D02*
X144478285Y-93664809D01*
X144478285Y-93664809D02*
X144525904Y-93760047D01*
X144525904Y-93760047D02*
X144525904Y-93998142D01*
X144525904Y-93998142D02*
X144478285Y-94093380D01*
X144478285Y-94093380D02*
X144430666Y-94141000D01*
X144430666Y-94141000D02*
X144335428Y-94188619D01*
X144335428Y-94188619D02*
X144049714Y-94188619D01*
X144049714Y-94188619D02*
X143954476Y-94141000D01*
X143954476Y-94141000D02*
X143906857Y-94093380D01*
X144811619Y-93188619D02*
X145144952Y-94188619D01*
X145144952Y-94188619D02*
X145478285Y-93188619D01*
X145716381Y-93188619D02*
X146335428Y-93188619D01*
X146335428Y-93188619D02*
X146002095Y-93569571D01*
X146002095Y-93569571D02*
X146144952Y-93569571D01*
X146144952Y-93569571D02*
X146240190Y-93617190D01*
X146240190Y-93617190D02*
X146287809Y-93664809D01*
X146287809Y-93664809D02*
X146335428Y-93760047D01*
X146335428Y-93760047D02*
X146335428Y-93998142D01*
X146335428Y-93998142D02*
X146287809Y-94093380D01*
X146287809Y-94093380D02*
X146240190Y-94141000D01*
X146240190Y-94141000D02*
X146144952Y-94188619D01*
X146144952Y-94188619D02*
X145859238Y-94188619D01*
X145859238Y-94188619D02*
X145764000Y-94141000D01*
X145764000Y-94141000D02*
X145716381Y-94093380D01*
X135683905Y-91562619D02*
X135683905Y-90562619D01*
X136350571Y-90562619D02*
X136541047Y-90562619D01*
X136541047Y-90562619D02*
X136636285Y-90610238D01*
X136636285Y-90610238D02*
X136731523Y-90705476D01*
X136731523Y-90705476D02*
X136779142Y-90895952D01*
X136779142Y-90895952D02*
X136779142Y-91229285D01*
X136779142Y-91229285D02*
X136731523Y-91419761D01*
X136731523Y-91419761D02*
X136636285Y-91515000D01*
X136636285Y-91515000D02*
X136541047Y-91562619D01*
X136541047Y-91562619D02*
X136350571Y-91562619D01*
X136350571Y-91562619D02*
X136255333Y-91515000D01*
X136255333Y-91515000D02*
X136160095Y-91419761D01*
X136160095Y-91419761D02*
X136112476Y-91229285D01*
X136112476Y-91229285D02*
X136112476Y-90895952D01*
X136112476Y-90895952D02*
X136160095Y-90705476D01*
X136160095Y-90705476D02*
X136255333Y-90610238D01*
X136255333Y-90610238D02*
X136350571Y-90562619D01*
X137398190Y-90562619D02*
X137493428Y-90562619D01*
X137493428Y-90562619D02*
X137588666Y-90610238D01*
X137588666Y-90610238D02*
X137636285Y-90657857D01*
X137636285Y-90657857D02*
X137683904Y-90753095D01*
X137683904Y-90753095D02*
X137731523Y-90943571D01*
X137731523Y-90943571D02*
X137731523Y-91181666D01*
X137731523Y-91181666D02*
X137683904Y-91372142D01*
X137683904Y-91372142D02*
X137636285Y-91467380D01*
X137636285Y-91467380D02*
X137588666Y-91515000D01*
X137588666Y-91515000D02*
X137493428Y-91562619D01*
X137493428Y-91562619D02*
X137398190Y-91562619D01*
X137398190Y-91562619D02*
X137302952Y-91515000D01*
X137302952Y-91515000D02*
X137255333Y-91467380D01*
X137255333Y-91467380D02*
X137207714Y-91372142D01*
X137207714Y-91372142D02*
X137160095Y-91181666D01*
X137160095Y-91181666D02*
X137160095Y-90943571D01*
X137160095Y-90943571D02*
X137207714Y-90753095D01*
X137207714Y-90753095D02*
X137255333Y-90657857D01*
X137255333Y-90657857D02*
X137302952Y-90610238D01*
X137302952Y-90610238D02*
X137398190Y-90562619D01*
X144525904Y-108476238D02*
X144430666Y-108428619D01*
X144430666Y-108428619D02*
X144287809Y-108428619D01*
X144287809Y-108428619D02*
X144144952Y-108476238D01*
X144144952Y-108476238D02*
X144049714Y-108571476D01*
X144049714Y-108571476D02*
X144002095Y-108666714D01*
X144002095Y-108666714D02*
X143954476Y-108857190D01*
X143954476Y-108857190D02*
X143954476Y-109000047D01*
X143954476Y-109000047D02*
X144002095Y-109190523D01*
X144002095Y-109190523D02*
X144049714Y-109285761D01*
X144049714Y-109285761D02*
X144144952Y-109381000D01*
X144144952Y-109381000D02*
X144287809Y-109428619D01*
X144287809Y-109428619D02*
X144383047Y-109428619D01*
X144383047Y-109428619D02*
X144525904Y-109381000D01*
X144525904Y-109381000D02*
X144573523Y-109333380D01*
X144573523Y-109333380D02*
X144573523Y-109000047D01*
X144573523Y-109000047D02*
X144383047Y-109000047D01*
X145002095Y-109428619D02*
X145002095Y-108428619D01*
X145002095Y-108428619D02*
X145573523Y-109428619D01*
X145573523Y-109428619D02*
X145573523Y-108428619D01*
X146049714Y-109428619D02*
X146049714Y-108428619D01*
X146049714Y-108428619D02*
X146287809Y-108428619D01*
X146287809Y-108428619D02*
X146430666Y-108476238D01*
X146430666Y-108476238D02*
X146525904Y-108571476D01*
X146525904Y-108571476D02*
X146573523Y-108666714D01*
X146573523Y-108666714D02*
X146621142Y-108857190D01*
X146621142Y-108857190D02*
X146621142Y-109000047D01*
X146621142Y-109000047D02*
X146573523Y-109190523D01*
X146573523Y-109190523D02*
X146525904Y-109285761D01*
X146525904Y-109285761D02*
X146430666Y-109381000D01*
X146430666Y-109381000D02*
X146287809Y-109428619D01*
X146287809Y-109428619D02*
X146049714Y-109428619D01*
X135683905Y-96728619D02*
X135683905Y-95728619D01*
X136350571Y-95728619D02*
X136541047Y-95728619D01*
X136541047Y-95728619D02*
X136636285Y-95776238D01*
X136636285Y-95776238D02*
X136731523Y-95871476D01*
X136731523Y-95871476D02*
X136779142Y-96061952D01*
X136779142Y-96061952D02*
X136779142Y-96395285D01*
X136779142Y-96395285D02*
X136731523Y-96585761D01*
X136731523Y-96585761D02*
X136636285Y-96681000D01*
X136636285Y-96681000D02*
X136541047Y-96728619D01*
X136541047Y-96728619D02*
X136350571Y-96728619D01*
X136350571Y-96728619D02*
X136255333Y-96681000D01*
X136255333Y-96681000D02*
X136160095Y-96585761D01*
X136160095Y-96585761D02*
X136112476Y-96395285D01*
X136112476Y-96395285D02*
X136112476Y-96061952D01*
X136112476Y-96061952D02*
X136160095Y-95871476D01*
X136160095Y-95871476D02*
X136255333Y-95776238D01*
X136255333Y-95776238D02*
X136350571Y-95728619D01*
X137160095Y-95823857D02*
X137207714Y-95776238D01*
X137207714Y-95776238D02*
X137302952Y-95728619D01*
X137302952Y-95728619D02*
X137541047Y-95728619D01*
X137541047Y-95728619D02*
X137636285Y-95776238D01*
X137636285Y-95776238D02*
X137683904Y-95823857D01*
X137683904Y-95823857D02*
X137731523Y-95919095D01*
X137731523Y-95919095D02*
X137731523Y-96014333D01*
X137731523Y-96014333D02*
X137683904Y-96157190D01*
X137683904Y-96157190D02*
X137112476Y-96728619D01*
X137112476Y-96728619D02*
X137731523Y-96728619D01*
D11*
%TO.C,C1*%
X132807836Y-94760000D02*
X132592164Y-94760000D01*
X132807836Y-94040000D02*
X132592164Y-94040000D01*
%TO.C,C3*%
X132592164Y-105440000D02*
X132807836Y-105440000D01*
X132592164Y-106160000D02*
X132807836Y-106160000D01*
%TO.C,J1*%
X138130000Y-89770000D02*
X138130000Y-110210000D01*
X138130000Y-89770000D02*
X140730000Y-89770000D01*
X138130000Y-110210000D02*
X143330000Y-110210000D01*
X140730000Y-89770000D02*
X140730000Y-92370000D01*
X140730000Y-92370000D02*
X143330000Y-92370000D01*
X142000000Y-89770000D02*
X143330000Y-89770000D01*
X143330000Y-89770000D02*
X143330000Y-91100000D01*
X143330000Y-92370000D02*
X143330000Y-110210000D01*
%TO.C,C2*%
X127240000Y-100607836D02*
X127240000Y-100392164D01*
X127960000Y-100607836D02*
X127960000Y-100392164D01*
D12*
%TO.C,U2*%
X129100000Y-98000000D02*
X131100000Y-96000000D01*
X129100000Y-104000000D02*
X129100000Y-98000000D01*
X131100000Y-96000000D02*
X135100000Y-96000000D01*
X135100000Y-96000000D02*
X135100000Y-104000000D01*
X135100000Y-104000000D02*
X129100000Y-104000000D01*
X129200000Y-96000000D02*
G75*
G03*
X129200000Y-96000000I-100000J0D01*
G01*
%TD*%
%LPC*%
D13*
%TO.C,C1*%
X133180000Y-94400000D03*
X132220000Y-94400000D03*
%TD*%
D14*
%TO.C,C3*%
X132220000Y-105800000D03*
X133180000Y-105800000D03*
%TD*%
D15*
%TO.C,J1*%
X142000000Y-91100000D03*
D16*
X139460000Y-91100000D03*
X142000000Y-93640000D03*
X139460000Y-93640000D03*
X142000000Y-96180000D03*
X139460000Y-96180000D03*
X142000000Y-98720000D03*
X139460000Y-98720000D03*
X142000000Y-101260000D03*
X139460000Y-101260000D03*
X142000000Y-103800000D03*
X139460000Y-103800000D03*
X142000000Y-106340000D03*
X139460000Y-106340000D03*
X142000000Y-108880000D03*
X139460000Y-108880000D03*
%TD*%
D17*
%TO.C,C2*%
X127600000Y-100980000D03*
X127600000Y-100020000D03*
%TD*%
D18*
%TO.C,U2*%
X131100000Y-98000000D03*
X132100000Y-98000000D03*
X133100000Y-98000000D03*
X134100000Y-98000000D03*
X130100000Y-99000000D03*
X131100000Y-99000000D03*
X132100000Y-99000000D03*
X133100000Y-99000000D03*
X134100000Y-99000000D03*
X130100000Y-100000000D03*
X131100000Y-100000000D03*
X132100000Y-100000000D03*
X133100000Y-100000000D03*
X134100000Y-100000000D03*
X130100000Y-101000000D03*
X131100000Y-101000000D03*
X132100000Y-101000000D03*
X133100000Y-101000000D03*
X134100000Y-101000000D03*
X130100000Y-102000000D03*
X131100000Y-102000000D03*
X132100000Y-102000000D03*
X133100000Y-102000000D03*
X134100000Y-102000000D03*
%TD*%
M02*
