%TF.GenerationSoftware,KiCad,Pcbnew,(5.1.8-0-10_14)*%
%TF.CreationDate,2021-11-08T19:43:21+01:00*%
%TF.ProjectId,KLST_SHEEP,4b4c5354-5f53-4484-9545-502e6b696361,0.1*%
%TF.SameCoordinates,Original*%
%TF.FileFunction,Soldermask,Bot*%
%TF.FilePolarity,Negative*%
%FSLAX46Y46*%
G04 Gerber Fmt 4.6, Leading zero omitted, Abs format (unit mm)*
G04 Created by KiCad (PCBNEW (5.1.8-0-10_14)) date 2021-11-08 19:43:21*
%MOMM*%
%LPD*%
G01*
G04 APERTURE LIST*
%ADD10C,1.250000*%
%ADD11R,1.700000X1.700000*%
%ADD12O,1.700000X1.700000*%
%ADD13C,1.700000*%
%ADD14C,1.400000*%
%ADD15C,1.300000*%
%ADD16O,1.070000X2.140000*%
%ADD17C,1.000000*%
%ADD18C,1.600000*%
%ADD19R,1.600000X1.500000*%
%ADD20C,3.000000*%
%ADD21C,2.000000*%
%ADD22R,2.500000X3.000000*%
%ADD23R,2.000000X2.000000*%
%ADD24C,6.400000*%
%ADD25C,0.800000*%
G04 APERTURE END LIST*
D10*
%TO.C,DS1*%
X150100000Y-86050000D03*
X109900000Y-86050000D03*
X109900000Y-62950000D03*
X150100000Y-62950000D03*
%TD*%
D11*
%TO.C,J8*%
X137600000Y-60300000D03*
D12*
X135060000Y-60300000D03*
X132520000Y-60300000D03*
X129980000Y-60300000D03*
X127440000Y-60300000D03*
X124900000Y-60300000D03*
X122360000Y-60300000D03*
%TD*%
%TO.C,D17*%
G36*
G01*
X152049999Y-55450000D02*
X152950001Y-55450000D01*
G75*
G02*
X153200000Y-55699999I0J-249999D01*
G01*
X153200000Y-56350001D01*
G75*
G02*
X152950001Y-56600000I-249999J0D01*
G01*
X152049999Y-56600000D01*
G75*
G02*
X151800000Y-56350001I0J249999D01*
G01*
X151800000Y-55699999D01*
G75*
G02*
X152049999Y-55450000I249999J0D01*
G01*
G37*
G36*
G01*
X152049999Y-53400000D02*
X152950001Y-53400000D01*
G75*
G02*
X153200000Y-53649999I0J-249999D01*
G01*
X153200000Y-54300001D01*
G75*
G02*
X152950001Y-54550000I-249999J0D01*
G01*
X152049999Y-54550000D01*
G75*
G02*
X151800000Y-54300001I0J249999D01*
G01*
X151800000Y-53649999D01*
G75*
G02*
X152049999Y-53400000I249999J0D01*
G01*
G37*
%TD*%
%TO.C,D16*%
G36*
G01*
X149049999Y-55450000D02*
X149950001Y-55450000D01*
G75*
G02*
X150200000Y-55699999I0J-249999D01*
G01*
X150200000Y-56350001D01*
G75*
G02*
X149950001Y-56600000I-249999J0D01*
G01*
X149049999Y-56600000D01*
G75*
G02*
X148800000Y-56350001I0J249999D01*
G01*
X148800000Y-55699999D01*
G75*
G02*
X149049999Y-55450000I249999J0D01*
G01*
G37*
G36*
G01*
X149049999Y-53400000D02*
X149950001Y-53400000D01*
G75*
G02*
X150200000Y-53649999I0J-249999D01*
G01*
X150200000Y-54300001D01*
G75*
G02*
X149950001Y-54550000I-249999J0D01*
G01*
X149049999Y-54550000D01*
G75*
G02*
X148800000Y-54300001I0J249999D01*
G01*
X148800000Y-53649999D01*
G75*
G02*
X149049999Y-53400000I249999J0D01*
G01*
G37*
%TD*%
%TO.C,D15*%
G36*
G01*
X146049999Y-55450000D02*
X146950001Y-55450000D01*
G75*
G02*
X147200000Y-55699999I0J-249999D01*
G01*
X147200000Y-56350001D01*
G75*
G02*
X146950001Y-56600000I-249999J0D01*
G01*
X146049999Y-56600000D01*
G75*
G02*
X145800000Y-56350001I0J249999D01*
G01*
X145800000Y-55699999D01*
G75*
G02*
X146049999Y-55450000I249999J0D01*
G01*
G37*
G36*
G01*
X146049999Y-53400000D02*
X146950001Y-53400000D01*
G75*
G02*
X147200000Y-53649999I0J-249999D01*
G01*
X147200000Y-54300001D01*
G75*
G02*
X146950001Y-54550000I-249999J0D01*
G01*
X146049999Y-54550000D01*
G75*
G02*
X145800000Y-54300001I0J249999D01*
G01*
X145800000Y-53649999D01*
G75*
G02*
X146049999Y-53400000I249999J0D01*
G01*
G37*
%TD*%
%TO.C,D14*%
G36*
G01*
X143049999Y-55450000D02*
X143950001Y-55450000D01*
G75*
G02*
X144200000Y-55699999I0J-249999D01*
G01*
X144200000Y-56350001D01*
G75*
G02*
X143950001Y-56600000I-249999J0D01*
G01*
X143049999Y-56600000D01*
G75*
G02*
X142800000Y-56350001I0J249999D01*
G01*
X142800000Y-55699999D01*
G75*
G02*
X143049999Y-55450000I249999J0D01*
G01*
G37*
G36*
G01*
X143049999Y-53400000D02*
X143950001Y-53400000D01*
G75*
G02*
X144200000Y-53649999I0J-249999D01*
G01*
X144200000Y-54300001D01*
G75*
G02*
X143950001Y-54550000I-249999J0D01*
G01*
X143049999Y-54550000D01*
G75*
G02*
X142800000Y-54300001I0J249999D01*
G01*
X142800000Y-53649999D01*
G75*
G02*
X143049999Y-53400000I249999J0D01*
G01*
G37*
%TD*%
%TO.C,D13*%
G36*
G01*
X140049999Y-55450000D02*
X140950001Y-55450000D01*
G75*
G02*
X141200000Y-55699999I0J-249999D01*
G01*
X141200000Y-56350001D01*
G75*
G02*
X140950001Y-56600000I-249999J0D01*
G01*
X140049999Y-56600000D01*
G75*
G02*
X139800000Y-56350001I0J249999D01*
G01*
X139800000Y-55699999D01*
G75*
G02*
X140049999Y-55450000I249999J0D01*
G01*
G37*
G36*
G01*
X140049999Y-53400000D02*
X140950001Y-53400000D01*
G75*
G02*
X141200000Y-53649999I0J-249999D01*
G01*
X141200000Y-54300001D01*
G75*
G02*
X140950001Y-54550000I-249999J0D01*
G01*
X140049999Y-54550000D01*
G75*
G02*
X139800000Y-54300001I0J249999D01*
G01*
X139800000Y-53649999D01*
G75*
G02*
X140049999Y-53400000I249999J0D01*
G01*
G37*
%TD*%
%TO.C,D12*%
G36*
G01*
X137049999Y-55450000D02*
X137950001Y-55450000D01*
G75*
G02*
X138200000Y-55699999I0J-249999D01*
G01*
X138200000Y-56350001D01*
G75*
G02*
X137950001Y-56600000I-249999J0D01*
G01*
X137049999Y-56600000D01*
G75*
G02*
X136800000Y-56350001I0J249999D01*
G01*
X136800000Y-55699999D01*
G75*
G02*
X137049999Y-55450000I249999J0D01*
G01*
G37*
G36*
G01*
X137049999Y-53400000D02*
X137950001Y-53400000D01*
G75*
G02*
X138200000Y-53649999I0J-249999D01*
G01*
X138200000Y-54300001D01*
G75*
G02*
X137950001Y-54550000I-249999J0D01*
G01*
X137049999Y-54550000D01*
G75*
G02*
X136800000Y-54300001I0J249999D01*
G01*
X136800000Y-53649999D01*
G75*
G02*
X137049999Y-53400000I249999J0D01*
G01*
G37*
%TD*%
%TO.C,D11*%
G36*
G01*
X134049999Y-55450000D02*
X134950001Y-55450000D01*
G75*
G02*
X135200000Y-55699999I0J-249999D01*
G01*
X135200000Y-56350001D01*
G75*
G02*
X134950001Y-56600000I-249999J0D01*
G01*
X134049999Y-56600000D01*
G75*
G02*
X133800000Y-56350001I0J249999D01*
G01*
X133800000Y-55699999D01*
G75*
G02*
X134049999Y-55450000I249999J0D01*
G01*
G37*
G36*
G01*
X134049999Y-53400000D02*
X134950001Y-53400000D01*
G75*
G02*
X135200000Y-53649999I0J-249999D01*
G01*
X135200000Y-54300001D01*
G75*
G02*
X134950001Y-54550000I-249999J0D01*
G01*
X134049999Y-54550000D01*
G75*
G02*
X133800000Y-54300001I0J249999D01*
G01*
X133800000Y-53649999D01*
G75*
G02*
X134049999Y-53400000I249999J0D01*
G01*
G37*
%TD*%
%TO.C,D10*%
G36*
G01*
X131049999Y-55450000D02*
X131950001Y-55450000D01*
G75*
G02*
X132200000Y-55699999I0J-249999D01*
G01*
X132200000Y-56350001D01*
G75*
G02*
X131950001Y-56600000I-249999J0D01*
G01*
X131049999Y-56600000D01*
G75*
G02*
X130800000Y-56350001I0J249999D01*
G01*
X130800000Y-55699999D01*
G75*
G02*
X131049999Y-55450000I249999J0D01*
G01*
G37*
G36*
G01*
X131049999Y-53400000D02*
X131950001Y-53400000D01*
G75*
G02*
X132200000Y-53649999I0J-249999D01*
G01*
X132200000Y-54300001D01*
G75*
G02*
X131950001Y-54550000I-249999J0D01*
G01*
X131049999Y-54550000D01*
G75*
G02*
X130800000Y-54300001I0J249999D01*
G01*
X130800000Y-53649999D01*
G75*
G02*
X131049999Y-53400000I249999J0D01*
G01*
G37*
%TD*%
%TO.C,D8*%
G36*
G01*
X128049999Y-55450000D02*
X128950001Y-55450000D01*
G75*
G02*
X129200000Y-55699999I0J-249999D01*
G01*
X129200000Y-56350001D01*
G75*
G02*
X128950001Y-56600000I-249999J0D01*
G01*
X128049999Y-56600000D01*
G75*
G02*
X127800000Y-56350001I0J249999D01*
G01*
X127800000Y-55699999D01*
G75*
G02*
X128049999Y-55450000I249999J0D01*
G01*
G37*
G36*
G01*
X128049999Y-53400000D02*
X128950001Y-53400000D01*
G75*
G02*
X129200000Y-53649999I0J-249999D01*
G01*
X129200000Y-54300001D01*
G75*
G02*
X128950001Y-54550000I-249999J0D01*
G01*
X128049999Y-54550000D01*
G75*
G02*
X127800000Y-54300001I0J249999D01*
G01*
X127800000Y-53649999D01*
G75*
G02*
X128049999Y-53400000I249999J0D01*
G01*
G37*
%TD*%
%TO.C,D7*%
G36*
G01*
X125049999Y-55450000D02*
X125950001Y-55450000D01*
G75*
G02*
X126200000Y-55699999I0J-249999D01*
G01*
X126200000Y-56350001D01*
G75*
G02*
X125950001Y-56600000I-249999J0D01*
G01*
X125049999Y-56600000D01*
G75*
G02*
X124800000Y-56350001I0J249999D01*
G01*
X124800000Y-55699999D01*
G75*
G02*
X125049999Y-55450000I249999J0D01*
G01*
G37*
G36*
G01*
X125049999Y-53400000D02*
X125950001Y-53400000D01*
G75*
G02*
X126200000Y-53649999I0J-249999D01*
G01*
X126200000Y-54300001D01*
G75*
G02*
X125950001Y-54550000I-249999J0D01*
G01*
X125049999Y-54550000D01*
G75*
G02*
X124800000Y-54300001I0J249999D01*
G01*
X124800000Y-53649999D01*
G75*
G02*
X125049999Y-53400000I249999J0D01*
G01*
G37*
%TD*%
%TO.C,D6*%
G36*
G01*
X122049999Y-55450000D02*
X122950001Y-55450000D01*
G75*
G02*
X123200000Y-55699999I0J-249999D01*
G01*
X123200000Y-56350001D01*
G75*
G02*
X122950001Y-56600000I-249999J0D01*
G01*
X122049999Y-56600000D01*
G75*
G02*
X121800000Y-56350001I0J249999D01*
G01*
X121800000Y-55699999D01*
G75*
G02*
X122049999Y-55450000I249999J0D01*
G01*
G37*
G36*
G01*
X122049999Y-53400000D02*
X122950001Y-53400000D01*
G75*
G02*
X123200000Y-53649999I0J-249999D01*
G01*
X123200000Y-54300001D01*
G75*
G02*
X122950001Y-54550000I-249999J0D01*
G01*
X122049999Y-54550000D01*
G75*
G02*
X121800000Y-54300001I0J249999D01*
G01*
X121800000Y-53649999D01*
G75*
G02*
X122049999Y-53400000I249999J0D01*
G01*
G37*
%TD*%
%TO.C,D5*%
G36*
G01*
X119049999Y-55450000D02*
X119950001Y-55450000D01*
G75*
G02*
X120200000Y-55699999I0J-249999D01*
G01*
X120200000Y-56350001D01*
G75*
G02*
X119950001Y-56600000I-249999J0D01*
G01*
X119049999Y-56600000D01*
G75*
G02*
X118800000Y-56350001I0J249999D01*
G01*
X118800000Y-55699999D01*
G75*
G02*
X119049999Y-55450000I249999J0D01*
G01*
G37*
G36*
G01*
X119049999Y-53400000D02*
X119950001Y-53400000D01*
G75*
G02*
X120200000Y-53649999I0J-249999D01*
G01*
X120200000Y-54300001D01*
G75*
G02*
X119950001Y-54550000I-249999J0D01*
G01*
X119049999Y-54550000D01*
G75*
G02*
X118800000Y-54300001I0J249999D01*
G01*
X118800000Y-53649999D01*
G75*
G02*
X119049999Y-53400000I249999J0D01*
G01*
G37*
%TD*%
%TO.C,D4*%
G36*
G01*
X116049999Y-55450000D02*
X116950001Y-55450000D01*
G75*
G02*
X117200000Y-55699999I0J-249999D01*
G01*
X117200000Y-56350001D01*
G75*
G02*
X116950001Y-56600000I-249999J0D01*
G01*
X116049999Y-56600000D01*
G75*
G02*
X115800000Y-56350001I0J249999D01*
G01*
X115800000Y-55699999D01*
G75*
G02*
X116049999Y-55450000I249999J0D01*
G01*
G37*
G36*
G01*
X116049999Y-53400000D02*
X116950001Y-53400000D01*
G75*
G02*
X117200000Y-53649999I0J-249999D01*
G01*
X117200000Y-54300001D01*
G75*
G02*
X116950001Y-54550000I-249999J0D01*
G01*
X116049999Y-54550000D01*
G75*
G02*
X115800000Y-54300001I0J249999D01*
G01*
X115800000Y-53649999D01*
G75*
G02*
X116049999Y-53400000I249999J0D01*
G01*
G37*
%TD*%
%TO.C,D3*%
G36*
G01*
X113049999Y-53400000D02*
X113950001Y-53400000D01*
G75*
G02*
X114200000Y-53649999I0J-249999D01*
G01*
X114200000Y-54300001D01*
G75*
G02*
X113950001Y-54550000I-249999J0D01*
G01*
X113049999Y-54550000D01*
G75*
G02*
X112800000Y-54300001I0J249999D01*
G01*
X112800000Y-53649999D01*
G75*
G02*
X113049999Y-53400000I249999J0D01*
G01*
G37*
G36*
G01*
X113049999Y-55450000D02*
X113950001Y-55450000D01*
G75*
G02*
X114200000Y-55699999I0J-249999D01*
G01*
X114200000Y-56350001D01*
G75*
G02*
X113950001Y-56600000I-249999J0D01*
G01*
X113049999Y-56600000D01*
G75*
G02*
X112800000Y-56350001I0J249999D01*
G01*
X112800000Y-55699999D01*
G75*
G02*
X113049999Y-55450000I249999J0D01*
G01*
G37*
%TD*%
%TO.C,D2*%
G36*
G01*
X110049999Y-53400000D02*
X110950001Y-53400000D01*
G75*
G02*
X111200000Y-53649999I0J-249999D01*
G01*
X111200000Y-54300001D01*
G75*
G02*
X110950001Y-54550000I-249999J0D01*
G01*
X110049999Y-54550000D01*
G75*
G02*
X109800000Y-54300001I0J249999D01*
G01*
X109800000Y-53649999D01*
G75*
G02*
X110049999Y-53400000I249999J0D01*
G01*
G37*
G36*
G01*
X110049999Y-55450000D02*
X110950001Y-55450000D01*
G75*
G02*
X111200000Y-55699999I0J-249999D01*
G01*
X111200000Y-56350001D01*
G75*
G02*
X110950001Y-56600000I-249999J0D01*
G01*
X110049999Y-56600000D01*
G75*
G02*
X109800000Y-56350001I0J249999D01*
G01*
X109800000Y-55699999D01*
G75*
G02*
X110049999Y-55450000I249999J0D01*
G01*
G37*
%TD*%
%TO.C,D1*%
G36*
G01*
X107049999Y-53400000D02*
X107950001Y-53400000D01*
G75*
G02*
X108200000Y-53649999I0J-249999D01*
G01*
X108200000Y-54300001D01*
G75*
G02*
X107950001Y-54550000I-249999J0D01*
G01*
X107049999Y-54550000D01*
G75*
G02*
X106800000Y-54300001I0J249999D01*
G01*
X106800000Y-53649999D01*
G75*
G02*
X107049999Y-53400000I249999J0D01*
G01*
G37*
G36*
G01*
X107049999Y-55450000D02*
X107950001Y-55450000D01*
G75*
G02*
X108200000Y-55699999I0J-249999D01*
G01*
X108200000Y-56350001D01*
G75*
G02*
X107950001Y-56600000I-249999J0D01*
G01*
X107049999Y-56600000D01*
G75*
G02*
X106800000Y-56350001I0J249999D01*
G01*
X106800000Y-55699999D01*
G75*
G02*
X107049999Y-55450000I249999J0D01*
G01*
G37*
%TD*%
%TO.C,J13*%
G36*
G01*
X171400000Y-135650000D02*
X172600000Y-135650000D01*
G75*
G02*
X172850000Y-135900000I0J-250000D01*
G01*
X172850000Y-137100000D01*
G75*
G02*
X172600000Y-137350000I-250000J0D01*
G01*
X171400000Y-137350000D01*
G75*
G02*
X171150000Y-137100000I0J250000D01*
G01*
X171150000Y-135900000D01*
G75*
G02*
X171400000Y-135650000I250000J0D01*
G01*
G37*
D13*
X169460000Y-136500000D03*
X166920000Y-136500000D03*
X172000000Y-139040000D03*
X169460000Y-139040000D03*
X166920000Y-139040000D03*
%TD*%
D14*
%TO.C,J10*%
X146000000Y-139400000D03*
%TD*%
%TO.C,J12*%
X122000000Y-139400000D03*
%TD*%
%TO.C,J11*%
X134000000Y-139400000D03*
%TD*%
%TO.C,J15*%
G36*
G01*
X92500000Y-135650000D02*
X93700000Y-135650000D01*
G75*
G02*
X93950000Y-135900000I0J-250000D01*
G01*
X93950000Y-137100000D01*
G75*
G02*
X93700000Y-137350000I-250000J0D01*
G01*
X92500000Y-137350000D01*
G75*
G02*
X92250000Y-137100000I0J250000D01*
G01*
X92250000Y-135900000D01*
G75*
G02*
X92500000Y-135650000I250000J0D01*
G01*
G37*
D13*
X90560000Y-136500000D03*
X88020000Y-136500000D03*
X93100000Y-139040000D03*
X90560000Y-139040000D03*
X88020000Y-139040000D03*
%TD*%
D15*
%TO.C,J5*%
X153975000Y-145600000D03*
X158825000Y-145600000D03*
D16*
X152800000Y-148250000D03*
X160000000Y-148250000D03*
%TD*%
D17*
%TO.C,J1*%
X82000000Y-121650000D03*
X82000000Y-113650000D03*
%TD*%
D18*
%TO.C,J3*%
X110800000Y-137900000D03*
X108300000Y-137900000D03*
X106300000Y-137900000D03*
D19*
X103800000Y-137900000D03*
D20*
X113870000Y-140610000D03*
X100730000Y-140610000D03*
%TD*%
D21*
%TO.C,SW4*%
X90000000Y-76500000D03*
X95000000Y-76500000D03*
D22*
X86900000Y-83500000D03*
X98100000Y-83500000D03*
D21*
X90000000Y-91000000D03*
X92500000Y-91000000D03*
D23*
X95000000Y-91000000D03*
%TD*%
D21*
%TO.C,SW3*%
X165000000Y-76500000D03*
X170000000Y-76500000D03*
D22*
X161900000Y-83500000D03*
X173100000Y-83500000D03*
D21*
X165000000Y-91000000D03*
X167500000Y-91000000D03*
D23*
X170000000Y-91000000D03*
%TD*%
D24*
%TO.C,H4*%
X175000000Y-100000000D03*
D25*
X177400000Y-100000000D03*
X176697056Y-101697056D03*
X175000000Y-102400000D03*
X173302944Y-101697056D03*
X172600000Y-100000000D03*
X173302944Y-98302944D03*
X175000000Y-97600000D03*
X176697056Y-98302944D03*
%TD*%
D24*
%TO.C,H3*%
X85000000Y-100000000D03*
D25*
X87400000Y-100000000D03*
X86697056Y-101697056D03*
X85000000Y-102400000D03*
X83302944Y-101697056D03*
X82600000Y-100000000D03*
X83302944Y-98302944D03*
X85000000Y-97600000D03*
X86697056Y-98302944D03*
%TD*%
D24*
%TO.C,H2*%
X175000000Y-55000000D03*
D25*
X177400000Y-55000000D03*
X176697056Y-56697056D03*
X175000000Y-57400000D03*
X173302944Y-56697056D03*
X172600000Y-55000000D03*
X173302944Y-53302944D03*
X175000000Y-52600000D03*
X176697056Y-53302944D03*
%TD*%
D24*
%TO.C,H1*%
X85000000Y-55000000D03*
D25*
X87400000Y-55000000D03*
X86697056Y-56697056D03*
X85000000Y-57400000D03*
X83302944Y-56697056D03*
X82600000Y-55000000D03*
X83302944Y-53302944D03*
X85000000Y-52600000D03*
X86697056Y-53302944D03*
%TD*%
M02*
