%TF.GenerationSoftware,KiCad,Pcbnew,(5.1.8-0-10_14)*%
%TF.CreationDate,2021-11-08T19:43:21+01:00*%
%TF.ProjectId,KLST_SHEEP,4b4c5354-5f53-4484-9545-502e6b696361,0.1*%
%TF.SameCoordinates,Original*%
%TF.FileFunction,Legend,Bot*%
%TF.FilePolarity,Positive*%
%FSLAX46Y46*%
G04 Gerber Fmt 4.6, Leading zero omitted, Abs format (unit mm)*
G04 Created by KiCad (PCBNEW (5.1.8-0-10_14)) date 2021-11-08 19:43:21*
%MOMM*%
%LPD*%
G01*
G04 APERTURE LIST*
%ADD10C,2.000000*%
%ADD11C,0.100000*%
%ADD12C,0.010000*%
%ADD13C,0.120000*%
%ADD14C,0.150000*%
G04 APERTURE END LIST*
D10*
X105000000Y-88900000D02*
X155000000Y-88900000D01*
D11*
X172232142Y-143403571D02*
X172125000Y-143439285D01*
X171946428Y-143439285D01*
X171875000Y-143403571D01*
X171839285Y-143367857D01*
X171803571Y-143296428D01*
X171803571Y-143225000D01*
X171839285Y-143153571D01*
X171875000Y-143117857D01*
X171946428Y-143082142D01*
X172089285Y-143046428D01*
X172160714Y-143010714D01*
X172196428Y-142975000D01*
X172232142Y-142903571D01*
X172232142Y-142832142D01*
X172196428Y-142760714D01*
X172160714Y-142725000D01*
X172089285Y-142689285D01*
X171910714Y-142689285D01*
X171803571Y-142725000D01*
X171482142Y-143046428D02*
X171232142Y-143046428D01*
X171125000Y-143439285D02*
X171482142Y-143439285D01*
X171482142Y-142689285D01*
X171125000Y-142689285D01*
X170375000Y-143439285D02*
X170625000Y-143082142D01*
X170803571Y-143439285D02*
X170803571Y-142689285D01*
X170517857Y-142689285D01*
X170446428Y-142725000D01*
X170410714Y-142760714D01*
X170375000Y-142832142D01*
X170375000Y-142939285D01*
X170410714Y-143010714D01*
X170446428Y-143046428D01*
X170517857Y-143082142D01*
X170803571Y-143082142D01*
X170053571Y-143439285D02*
X170053571Y-142689285D01*
X169732142Y-143225000D02*
X169375000Y-143225000D01*
X169803571Y-143439285D02*
X169553571Y-142689285D01*
X169303571Y-143439285D01*
X168696428Y-143439285D02*
X169053571Y-143439285D01*
X169053571Y-142689285D01*
X167732142Y-142689285D02*
X167660714Y-142689285D01*
X167589285Y-142725000D01*
X167553571Y-142760714D01*
X167517857Y-142832142D01*
X167482142Y-142975000D01*
X167482142Y-143153571D01*
X167517857Y-143296428D01*
X167553571Y-143367857D01*
X167589285Y-143403571D01*
X167660714Y-143439285D01*
X167732142Y-143439285D01*
X167803571Y-143403571D01*
X167839285Y-143367857D01*
X167875000Y-143296428D01*
X167910714Y-143153571D01*
X167910714Y-142975000D01*
X167875000Y-142832142D01*
X167839285Y-142760714D01*
X167803571Y-142725000D01*
X167732142Y-142689285D01*
X167017857Y-142689285D02*
X166946428Y-142689285D01*
X166875000Y-142725000D01*
X166839285Y-142760714D01*
X166803571Y-142832142D01*
X166767857Y-142975000D01*
X166767857Y-143153571D01*
X166803571Y-143296428D01*
X166839285Y-143367857D01*
X166875000Y-143403571D01*
X166946428Y-143439285D01*
X167017857Y-143439285D01*
X167089285Y-143403571D01*
X167125000Y-143367857D01*
X167160714Y-143296428D01*
X167196428Y-143153571D01*
X167196428Y-142975000D01*
X167160714Y-142832142D01*
X167125000Y-142760714D01*
X167089285Y-142725000D01*
X167017857Y-142689285D01*
D10*
X161200000Y-90200000D02*
X161200000Y-76800000D01*
X173800000Y-90200000D02*
X161200000Y-90200000D01*
X173800000Y-76800000D02*
X173800000Y-90200000D01*
X161200000Y-76800000D02*
X173800000Y-76800000D01*
X86200000Y-90200000D02*
X86200000Y-76800000D01*
X98800000Y-90200000D02*
X86200000Y-90200000D01*
X98800000Y-76800000D02*
X98800000Y-90200000D01*
X86200000Y-76800000D02*
X98800000Y-76800000D01*
X105000000Y-55000000D02*
X155000000Y-55000000D01*
X105000000Y-140000000D02*
X105000000Y-60000000D01*
X155000000Y-140000000D02*
X105000000Y-140000000D01*
X155000000Y-60000000D02*
X155000000Y-140000000D01*
X105000000Y-60000000D02*
X155000000Y-60000000D01*
D11*
X93332142Y-143403571D02*
X93225000Y-143439285D01*
X93046428Y-143439285D01*
X92975000Y-143403571D01*
X92939285Y-143367857D01*
X92903571Y-143296428D01*
X92903571Y-143225000D01*
X92939285Y-143153571D01*
X92975000Y-143117857D01*
X93046428Y-143082142D01*
X93189285Y-143046428D01*
X93260714Y-143010714D01*
X93296428Y-142975000D01*
X93332142Y-142903571D01*
X93332142Y-142832142D01*
X93296428Y-142760714D01*
X93260714Y-142725000D01*
X93189285Y-142689285D01*
X93010714Y-142689285D01*
X92903571Y-142725000D01*
X92582142Y-143046428D02*
X92332142Y-143046428D01*
X92225000Y-143439285D02*
X92582142Y-143439285D01*
X92582142Y-142689285D01*
X92225000Y-142689285D01*
X91475000Y-143439285D02*
X91725000Y-143082142D01*
X91903571Y-143439285D02*
X91903571Y-142689285D01*
X91617857Y-142689285D01*
X91546428Y-142725000D01*
X91510714Y-142760714D01*
X91475000Y-142832142D01*
X91475000Y-142939285D01*
X91510714Y-143010714D01*
X91546428Y-143046428D01*
X91617857Y-143082142D01*
X91903571Y-143082142D01*
X91153571Y-143439285D02*
X91153571Y-142689285D01*
X90832142Y-143225000D02*
X90475000Y-143225000D01*
X90903571Y-143439285D02*
X90653571Y-142689285D01*
X90403571Y-143439285D01*
X89796428Y-143439285D02*
X90153571Y-143439285D01*
X90153571Y-142689285D01*
X88832142Y-142689285D02*
X88760714Y-142689285D01*
X88689285Y-142725000D01*
X88653571Y-142760714D01*
X88617857Y-142832142D01*
X88582142Y-142975000D01*
X88582142Y-143153571D01*
X88617857Y-143296428D01*
X88653571Y-143367857D01*
X88689285Y-143403571D01*
X88760714Y-143439285D01*
X88832142Y-143439285D01*
X88903571Y-143403571D01*
X88939285Y-143367857D01*
X88975000Y-143296428D01*
X89010714Y-143153571D01*
X89010714Y-142975000D01*
X88975000Y-142832142D01*
X88939285Y-142760714D01*
X88903571Y-142725000D01*
X88832142Y-142689285D01*
X87867857Y-143439285D02*
X88296428Y-143439285D01*
X88082142Y-143439285D02*
X88082142Y-142689285D01*
X88153571Y-142796428D01*
X88225000Y-142867857D01*
X88296428Y-142903571D01*
X151046428Y-143439285D02*
X151046428Y-142689285D01*
X151046428Y-143046428D02*
X150617857Y-143046428D01*
X150617857Y-143439285D02*
X150617857Y-142689285D01*
X150260714Y-143046428D02*
X150010714Y-143046428D01*
X149903571Y-143439285D02*
X150260714Y-143439285D01*
X150260714Y-142689285D01*
X149903571Y-142689285D01*
X149617857Y-143225000D02*
X149260714Y-143225000D01*
X149689285Y-143439285D02*
X149439285Y-142689285D01*
X149189285Y-143439285D01*
X148939285Y-143439285D02*
X148939285Y-142689285D01*
X148760714Y-142689285D01*
X148653571Y-142725000D01*
X148582142Y-142796428D01*
X148546428Y-142867857D01*
X148510714Y-143010714D01*
X148510714Y-143117857D01*
X148546428Y-143260714D01*
X148582142Y-143332142D01*
X148653571Y-143403571D01*
X148760714Y-143439285D01*
X148939285Y-143439285D01*
X148189285Y-143439285D02*
X148189285Y-142689285D01*
X147903571Y-142689285D01*
X147832142Y-142725000D01*
X147796428Y-142760714D01*
X147760714Y-142832142D01*
X147760714Y-142939285D01*
X147796428Y-143010714D01*
X147832142Y-143046428D01*
X147903571Y-143082142D01*
X148189285Y-143082142D01*
X147439285Y-143439285D02*
X147439285Y-142689285D01*
X147439285Y-143046428D02*
X147010714Y-143046428D01*
X147010714Y-143439285D02*
X147010714Y-142689285D01*
X146510714Y-142689285D02*
X146367857Y-142689285D01*
X146296428Y-142725000D01*
X146225000Y-142796428D01*
X146189285Y-142939285D01*
X146189285Y-143189285D01*
X146225000Y-143332142D01*
X146296428Y-143403571D01*
X146367857Y-143439285D01*
X146510714Y-143439285D01*
X146582142Y-143403571D01*
X146653571Y-143332142D01*
X146689285Y-143189285D01*
X146689285Y-142939285D01*
X146653571Y-142796428D01*
X146582142Y-142725000D01*
X146510714Y-142689285D01*
X145867857Y-143439285D02*
X145867857Y-142689285D01*
X145439285Y-143439285D01*
X145439285Y-142689285D01*
X145082142Y-143046428D02*
X144832142Y-143046428D01*
X144725000Y-143439285D02*
X145082142Y-143439285D01*
X145082142Y-142689285D01*
X144725000Y-142689285D01*
X144439285Y-143403571D02*
X144332142Y-143439285D01*
X144153571Y-143439285D01*
X144082142Y-143403571D01*
X144046428Y-143367857D01*
X144010714Y-143296428D01*
X144010714Y-143225000D01*
X144046428Y-143153571D01*
X144082142Y-143117857D01*
X144153571Y-143082142D01*
X144296428Y-143046428D01*
X144367857Y-143010714D01*
X144403571Y-142975000D01*
X144439285Y-142903571D01*
X144439285Y-142832142D01*
X144403571Y-142760714D01*
X144367857Y-142725000D01*
X144296428Y-142689285D01*
X144117857Y-142689285D01*
X144010714Y-142725000D01*
X143689285Y-143153571D02*
X143117857Y-143153571D01*
X143403571Y-143439285D02*
X143403571Y-142867857D01*
X142760714Y-143439285D02*
X142760714Y-142689285D01*
X142510714Y-143225000D01*
X142260714Y-142689285D01*
X142260714Y-143439285D01*
X141903571Y-143439285D02*
X141903571Y-142689285D01*
X141117857Y-143367857D02*
X141153571Y-143403571D01*
X141260714Y-143439285D01*
X141332142Y-143439285D01*
X141439285Y-143403571D01*
X141510714Y-143332142D01*
X141546428Y-143260714D01*
X141582142Y-143117857D01*
X141582142Y-143010714D01*
X141546428Y-142867857D01*
X141510714Y-142796428D01*
X141439285Y-142725000D01*
X141332142Y-142689285D01*
X141260714Y-142689285D01*
X141153571Y-142725000D01*
X141117857Y-142760714D01*
X135546428Y-143439285D02*
X135546428Y-142689285D01*
X135189285Y-143439285D02*
X135189285Y-142689285D01*
X134760714Y-143439285D01*
X134760714Y-142689285D01*
X134403571Y-143439285D02*
X134403571Y-142689285D01*
X134117857Y-142689285D01*
X134046428Y-142725000D01*
X134010714Y-142760714D01*
X133975000Y-142832142D01*
X133975000Y-142939285D01*
X134010714Y-143010714D01*
X134046428Y-143046428D01*
X134117857Y-143082142D01*
X134403571Y-143082142D01*
X133653571Y-142689285D02*
X133653571Y-143296428D01*
X133617857Y-143367857D01*
X133582142Y-143403571D01*
X133510714Y-143439285D01*
X133367857Y-143439285D01*
X133296428Y-143403571D01*
X133260714Y-143367857D01*
X133225000Y-143296428D01*
X133225000Y-142689285D01*
X132975000Y-142689285D02*
X132546428Y-142689285D01*
X132760714Y-143439285D02*
X132760714Y-142689285D01*
X123903571Y-142689285D02*
X123760714Y-142689285D01*
X123689285Y-142725000D01*
X123617857Y-142796428D01*
X123582142Y-142939285D01*
X123582142Y-143189285D01*
X123617857Y-143332142D01*
X123689285Y-143403571D01*
X123760714Y-143439285D01*
X123903571Y-143439285D01*
X123975000Y-143403571D01*
X124046428Y-143332142D01*
X124082142Y-143189285D01*
X124082142Y-142939285D01*
X124046428Y-142796428D01*
X123975000Y-142725000D01*
X123903571Y-142689285D01*
X123260714Y-142689285D02*
X123260714Y-143296428D01*
X123225000Y-143367857D01*
X123189285Y-143403571D01*
X123117857Y-143439285D01*
X122975000Y-143439285D01*
X122903571Y-143403571D01*
X122867857Y-143367857D01*
X122832142Y-143296428D01*
X122832142Y-142689285D01*
X122582142Y-142689285D02*
X122153571Y-142689285D01*
X122367857Y-143439285D02*
X122367857Y-142689285D01*
X121903571Y-143439285D02*
X121903571Y-142689285D01*
X121617857Y-142689285D01*
X121546428Y-142725000D01*
X121510714Y-142760714D01*
X121475000Y-142832142D01*
X121475000Y-142939285D01*
X121510714Y-143010714D01*
X121546428Y-143046428D01*
X121617857Y-143082142D01*
X121903571Y-143082142D01*
X121153571Y-142689285D02*
X121153571Y-143296428D01*
X121117857Y-143367857D01*
X121082142Y-143403571D01*
X121010714Y-143439285D01*
X120867857Y-143439285D01*
X120796428Y-143403571D01*
X120760714Y-143367857D01*
X120725000Y-143296428D01*
X120725000Y-142689285D01*
X120475000Y-142689285D02*
X120046428Y-142689285D01*
X120260714Y-143439285D02*
X120260714Y-142689285D01*
X108550000Y-143439285D02*
X108550000Y-142689285D01*
X108550000Y-143046428D02*
X108121428Y-143046428D01*
X108121428Y-143439285D02*
X108121428Y-142689285D01*
X107621428Y-142689285D02*
X107478571Y-142689285D01*
X107407142Y-142725000D01*
X107335714Y-142796428D01*
X107300000Y-142939285D01*
X107300000Y-143189285D01*
X107335714Y-143332142D01*
X107407142Y-143403571D01*
X107478571Y-143439285D01*
X107621428Y-143439285D01*
X107692857Y-143403571D01*
X107764285Y-143332142D01*
X107800000Y-143189285D01*
X107800000Y-142939285D01*
X107764285Y-142796428D01*
X107692857Y-142725000D01*
X107621428Y-142689285D01*
X107014285Y-143403571D02*
X106907142Y-143439285D01*
X106728571Y-143439285D01*
X106657142Y-143403571D01*
X106621428Y-143367857D01*
X106585714Y-143296428D01*
X106585714Y-143225000D01*
X106621428Y-143153571D01*
X106657142Y-143117857D01*
X106728571Y-143082142D01*
X106871428Y-143046428D01*
X106942857Y-143010714D01*
X106978571Y-142975000D01*
X107014285Y-142903571D01*
X107014285Y-142832142D01*
X106978571Y-142760714D01*
X106942857Y-142725000D01*
X106871428Y-142689285D01*
X106692857Y-142689285D01*
X106585714Y-142725000D01*
X106371428Y-142689285D02*
X105942857Y-142689285D01*
X106157142Y-143439285D02*
X106157142Y-142689285D01*
X159992857Y-143439285D02*
X159992857Y-142689285D01*
X159814285Y-142689285D01*
X159707142Y-142725000D01*
X159635714Y-142796428D01*
X159600000Y-142867857D01*
X159564285Y-143010714D01*
X159564285Y-143117857D01*
X159600000Y-143260714D01*
X159635714Y-143332142D01*
X159707142Y-143403571D01*
X159814285Y-143439285D01*
X159992857Y-143439285D01*
X159242857Y-143046428D02*
X158992857Y-143046428D01*
X158885714Y-143439285D02*
X159242857Y-143439285D01*
X159242857Y-142689285D01*
X158885714Y-142689285D01*
X158671428Y-142689285D02*
X158421428Y-143439285D01*
X158171428Y-142689285D01*
X157921428Y-143439285D02*
X157921428Y-142689285D01*
X157135714Y-143367857D02*
X157171428Y-143403571D01*
X157278571Y-143439285D01*
X157350000Y-143439285D01*
X157457142Y-143403571D01*
X157528571Y-143332142D01*
X157564285Y-143260714D01*
X157600000Y-143117857D01*
X157600000Y-143010714D01*
X157564285Y-142867857D01*
X157528571Y-142796428D01*
X157457142Y-142725000D01*
X157350000Y-142689285D01*
X157278571Y-142689285D01*
X157171428Y-142725000D01*
X157135714Y-142760714D01*
X156814285Y-143046428D02*
X156564285Y-143046428D01*
X156457142Y-143439285D02*
X156814285Y-143439285D01*
X156814285Y-142689285D01*
X156457142Y-142689285D01*
X156135714Y-143153571D02*
X155564285Y-143153571D01*
X155850000Y-143439285D02*
X155850000Y-142867857D01*
X155207142Y-143439285D02*
X155207142Y-142689285D01*
X154921428Y-142689285D01*
X154850000Y-142725000D01*
X154814285Y-142760714D01*
X154778571Y-142832142D01*
X154778571Y-142939285D01*
X154814285Y-143010714D01*
X154850000Y-143046428D01*
X154921428Y-143082142D01*
X155207142Y-143082142D01*
X154528571Y-142689285D02*
X154350000Y-143439285D01*
X154207142Y-142903571D01*
X154064285Y-143439285D01*
X153885714Y-142689285D01*
X153171428Y-143439285D02*
X153421428Y-143082142D01*
X153600000Y-143439285D02*
X153600000Y-142689285D01*
X153314285Y-142689285D01*
X153242857Y-142725000D01*
X153207142Y-142760714D01*
X153171428Y-142832142D01*
X153171428Y-142939285D01*
X153207142Y-143010714D01*
X153242857Y-143046428D01*
X153314285Y-143082142D01*
X153600000Y-143082142D01*
D12*
%TO.C,X1*%
G36*
X170092975Y-111138858D02*
G01*
X170065827Y-111159253D01*
X171019617Y-112113043D01*
X171040013Y-112085896D01*
X171060407Y-112058748D01*
X170120122Y-111118463D01*
X170092975Y-111138858D01*
G37*
X170092975Y-111138858D02*
X170065827Y-111159253D01*
X171019617Y-112113043D01*
X171040013Y-112085896D01*
X171060407Y-112058748D01*
X170120122Y-111118463D01*
X170092975Y-111138858D01*
G36*
X171381190Y-112407788D02*
G01*
X171339310Y-112450000D01*
X171313892Y-112484374D01*
X171308528Y-112498884D01*
X171310833Y-112508492D01*
X171320234Y-112523939D01*
X171338429Y-112547030D01*
X171367113Y-112579568D01*
X171407983Y-112623360D01*
X171462737Y-112680211D01*
X171533073Y-112751924D01*
X171620685Y-112840305D01*
X171727270Y-112947159D01*
X171772360Y-112992242D01*
X171870158Y-113089589D01*
X171961999Y-113180268D01*
X172045624Y-113262106D01*
X172118782Y-113332929D01*
X172179217Y-113390566D01*
X172224674Y-113432843D01*
X172252900Y-113457589D01*
X172261165Y-113463308D01*
X172283057Y-113457236D01*
X172316687Y-113430053D01*
X172353447Y-113392156D01*
X172423293Y-113315984D01*
X171451313Y-112344004D01*
X171381190Y-112407788D01*
G37*
X171381190Y-112407788D02*
X171339310Y-112450000D01*
X171313892Y-112484374D01*
X171308528Y-112498884D01*
X171310833Y-112508492D01*
X171320234Y-112523939D01*
X171338429Y-112547030D01*
X171367113Y-112579568D01*
X171407983Y-112623360D01*
X171462737Y-112680211D01*
X171533073Y-112751924D01*
X171620685Y-112840305D01*
X171727270Y-112947159D01*
X171772360Y-112992242D01*
X171870158Y-113089589D01*
X171961999Y-113180268D01*
X172045624Y-113262106D01*
X172118782Y-113332929D01*
X172179217Y-113390566D01*
X172224674Y-113432843D01*
X172252900Y-113457589D01*
X172261165Y-113463308D01*
X172283057Y-113457236D01*
X172316687Y-113430053D01*
X172353447Y-113392156D01*
X172423293Y-113315984D01*
X171451313Y-112344004D01*
X171381190Y-112407788D01*
G36*
X173206408Y-114257120D02*
G01*
X172810430Y-114299817D01*
X172703233Y-114311344D01*
X172604460Y-114321900D01*
X172518417Y-114331034D01*
X172449412Y-114338288D01*
X172401755Y-114343208D01*
X172380259Y-114345297D01*
X172368268Y-114347519D01*
X172364569Y-114353797D01*
X172371612Y-114367288D01*
X172391849Y-114391148D01*
X172427729Y-114428534D01*
X172481704Y-114482604D01*
X172504173Y-114504913D01*
X172662283Y-114661746D01*
X173078500Y-114615304D01*
X173187008Y-114602822D01*
X173285843Y-114590737D01*
X173371094Y-114579585D01*
X173438857Y-114569899D01*
X173485223Y-114562217D01*
X173506285Y-114557073D01*
X173506959Y-114556621D01*
X173511724Y-114539115D01*
X173519070Y-114495800D01*
X173528466Y-114430585D01*
X173539379Y-114347381D01*
X173551277Y-114250099D01*
X173563629Y-114142647D01*
X173565186Y-114128617D01*
X173611172Y-113712856D01*
X173455284Y-113556284D01*
X173299395Y-113399711D01*
X173206408Y-114257120D01*
G37*
X173206408Y-114257120D02*
X172810430Y-114299817D01*
X172703233Y-114311344D01*
X172604460Y-114321900D01*
X172518417Y-114331034D01*
X172449412Y-114338288D01*
X172401755Y-114343208D01*
X172380259Y-114345297D01*
X172368268Y-114347519D01*
X172364569Y-114353797D01*
X172371612Y-114367288D01*
X172391849Y-114391148D01*
X172427729Y-114428534D01*
X172481704Y-114482604D01*
X172504173Y-114504913D01*
X172662283Y-114661746D01*
X173078500Y-114615304D01*
X173187008Y-114602822D01*
X173285843Y-114590737D01*
X173371094Y-114579585D01*
X173438857Y-114569899D01*
X173485223Y-114562217D01*
X173506285Y-114557073D01*
X173506959Y-114556621D01*
X173511724Y-114539115D01*
X173519070Y-114495800D01*
X173528466Y-114430585D01*
X173539379Y-114347381D01*
X173551277Y-114250099D01*
X173563629Y-114142647D01*
X173565186Y-114128617D01*
X173611172Y-113712856D01*
X173455284Y-113556284D01*
X173299395Y-113399711D01*
X173206408Y-114257120D01*
G36*
X167614221Y-112003928D02*
G01*
X167455704Y-112050607D01*
X167304604Y-112095027D01*
X167163542Y-112136423D01*
X167035145Y-112174028D01*
X166922035Y-112207075D01*
X166826836Y-112234799D01*
X166752173Y-112256433D01*
X166700670Y-112271210D01*
X166674950Y-112278362D01*
X166673935Y-112278619D01*
X166663732Y-112280722D01*
X166657303Y-112280242D01*
X166656106Y-112275590D01*
X166661596Y-112265185D01*
X166675228Y-112247443D01*
X166698458Y-112220776D01*
X166732740Y-112183603D01*
X166779534Y-112134337D01*
X166840291Y-112071396D01*
X166916468Y-111993192D01*
X167009522Y-111898142D01*
X167120907Y-111784664D01*
X167225310Y-111678408D01*
X167827516Y-111065637D01*
X167658475Y-110896597D01*
X166042029Y-112513043D01*
X166113267Y-112589715D01*
X166151644Y-112628648D01*
X166184316Y-112657591D01*
X166204329Y-112670395D01*
X166204563Y-112670446D01*
X166222194Y-112667050D01*
X166265860Y-112655839D01*
X166332965Y-112637551D01*
X166420913Y-112612923D01*
X166527107Y-112582695D01*
X166648950Y-112547604D01*
X166783846Y-112508389D01*
X166929201Y-112465787D01*
X167056085Y-112428339D01*
X167211470Y-112382365D01*
X167361139Y-112338141D01*
X167502123Y-112296540D01*
X167631453Y-112258434D01*
X167746159Y-112224698D01*
X167843273Y-112196204D01*
X167919828Y-112173827D01*
X167972851Y-112158440D01*
X167994878Y-112152155D01*
X168102205Y-112122138D01*
X167494718Y-112740191D01*
X166887230Y-113358244D01*
X166958468Y-113434917D01*
X166997166Y-113473988D01*
X167030542Y-113503143D01*
X167051456Y-113516155D01*
X167051643Y-113516197D01*
X167059876Y-113513075D01*
X167076320Y-113501017D01*
X167102190Y-113478844D01*
X167138696Y-113445375D01*
X167187050Y-113399430D01*
X167248464Y-113339826D01*
X167324150Y-113265384D01*
X167415320Y-113174924D01*
X167523186Y-113067265D01*
X167648959Y-112941225D01*
X167793850Y-112795625D01*
X167873149Y-112715822D01*
X168672716Y-111910838D01*
X168503676Y-111741798D01*
X167614221Y-112003928D01*
G37*
X167614221Y-112003928D02*
X167455704Y-112050607D01*
X167304604Y-112095027D01*
X167163542Y-112136423D01*
X167035145Y-112174028D01*
X166922035Y-112207075D01*
X166826836Y-112234799D01*
X166752173Y-112256433D01*
X166700670Y-112271210D01*
X166674950Y-112278362D01*
X166673935Y-112278619D01*
X166663732Y-112280722D01*
X166657303Y-112280242D01*
X166656106Y-112275590D01*
X166661596Y-112265185D01*
X166675228Y-112247443D01*
X166698458Y-112220776D01*
X166732740Y-112183603D01*
X166779534Y-112134337D01*
X166840291Y-112071396D01*
X166916468Y-111993192D01*
X167009522Y-111898142D01*
X167120907Y-111784664D01*
X167225310Y-111678408D01*
X167827516Y-111065637D01*
X167658475Y-110896597D01*
X166042029Y-112513043D01*
X166113267Y-112589715D01*
X166151644Y-112628648D01*
X166184316Y-112657591D01*
X166204329Y-112670395D01*
X166204563Y-112670446D01*
X166222194Y-112667050D01*
X166265860Y-112655839D01*
X166332965Y-112637551D01*
X166420913Y-112612923D01*
X166527107Y-112582695D01*
X166648950Y-112547604D01*
X166783846Y-112508389D01*
X166929201Y-112465787D01*
X167056085Y-112428339D01*
X167211470Y-112382365D01*
X167361139Y-112338141D01*
X167502123Y-112296540D01*
X167631453Y-112258434D01*
X167746159Y-112224698D01*
X167843273Y-112196204D01*
X167919828Y-112173827D01*
X167972851Y-112158440D01*
X167994878Y-112152155D01*
X168102205Y-112122138D01*
X167494718Y-112740191D01*
X166887230Y-113358244D01*
X166958468Y-113434917D01*
X166997166Y-113473988D01*
X167030542Y-113503143D01*
X167051456Y-113516155D01*
X167051643Y-113516197D01*
X167059876Y-113513075D01*
X167076320Y-113501017D01*
X167102190Y-113478844D01*
X167138696Y-113445375D01*
X167187050Y-113399430D01*
X167248464Y-113339826D01*
X167324150Y-113265384D01*
X167415320Y-113174924D01*
X167523186Y-113067265D01*
X167648959Y-112941225D01*
X167793850Y-112795625D01*
X167873149Y-112715822D01*
X168672716Y-111910838D01*
X168503676Y-111741798D01*
X167614221Y-112003928D01*
G36*
X169397419Y-112638275D02*
G01*
X169381483Y-112634594D01*
X169364250Y-112641783D01*
X169322986Y-112661459D01*
X169260184Y-112692341D01*
X169178336Y-112733153D01*
X169079935Y-112782615D01*
X168967475Y-112839449D01*
X168843447Y-112902377D01*
X168710345Y-112970121D01*
X168570662Y-113041401D01*
X168426890Y-113114940D01*
X168281522Y-113189461D01*
X168137052Y-113263683D01*
X167995970Y-113336330D01*
X167860771Y-113406123D01*
X167733947Y-113471782D01*
X167617991Y-113532030D01*
X167515396Y-113585589D01*
X167428655Y-113631181D01*
X167360259Y-113667526D01*
X167312704Y-113693347D01*
X167288480Y-113707365D01*
X167286072Y-113709141D01*
X167277965Y-113732513D01*
X167292315Y-113765401D01*
X167330379Y-113809885D01*
X167369332Y-113846815D01*
X167418307Y-113885434D01*
X167451821Y-113899049D01*
X167458968Y-113898288D01*
X167479288Y-113889430D01*
X167521630Y-113868902D01*
X167581561Y-113838926D01*
X167654645Y-113801722D01*
X167736449Y-113759514D01*
X167751052Y-113751923D01*
X168018591Y-113612709D01*
X168565642Y-114159761D01*
X168548907Y-114190568D01*
X168511510Y-114260377D01*
X168470507Y-114338535D01*
X168428222Y-114420431D01*
X168386977Y-114501447D01*
X168349096Y-114576968D01*
X168316902Y-114642379D01*
X168292719Y-114693066D01*
X168278870Y-114724413D01*
X168276506Y-114731673D01*
X168285333Y-114752542D01*
X168310214Y-114785914D01*
X168344614Y-114824735D01*
X168381991Y-114861951D01*
X168415810Y-114890509D01*
X168434076Y-114901662D01*
X168457942Y-114898397D01*
X168474755Y-114885901D01*
X168484887Y-114869096D01*
X168507414Y-114827706D01*
X168541257Y-114763816D01*
X168585339Y-114679513D01*
X168638581Y-114576884D01*
X168699904Y-114458014D01*
X168768230Y-114324990D01*
X168842480Y-114179898D01*
X168878053Y-114110156D01*
X168684683Y-113916787D01*
X168672860Y-113913843D01*
X168646477Y-113894145D01*
X168604130Y-113856436D01*
X168544414Y-113799459D01*
X168465923Y-113721954D01*
X168456989Y-113713028D01*
X168241262Y-113497301D01*
X168348514Y-113440796D01*
X168391819Y-113418085D01*
X168456587Y-113384257D01*
X168537754Y-113341949D01*
X168630256Y-113293799D01*
X168729029Y-113242446D01*
X168802172Y-113204458D01*
X169148580Y-113024626D01*
X169081671Y-113156442D01*
X169023467Y-113270733D01*
X168964958Y-113384933D01*
X168907807Y-113495855D01*
X168853678Y-113600316D01*
X168804234Y-113695128D01*
X168761137Y-113777108D01*
X168726051Y-113843069D01*
X168700638Y-113889826D01*
X168686564Y-113914194D01*
X168684683Y-113916787D01*
X168878053Y-114110156D01*
X168921576Y-114024826D01*
X169004439Y-113861859D01*
X169023183Y-113824926D01*
X169549468Y-112787589D01*
X169477664Y-112709645D01*
X169430463Y-112662235D01*
X169397419Y-112638275D01*
G37*
X169397419Y-112638275D02*
X169381483Y-112634594D01*
X169364250Y-112641783D01*
X169322986Y-112661459D01*
X169260184Y-112692341D01*
X169178336Y-112733153D01*
X169079935Y-112782615D01*
X168967475Y-112839449D01*
X168843447Y-112902377D01*
X168710345Y-112970121D01*
X168570662Y-113041401D01*
X168426890Y-113114940D01*
X168281522Y-113189461D01*
X168137052Y-113263683D01*
X167995970Y-113336330D01*
X167860771Y-113406123D01*
X167733947Y-113471782D01*
X167617991Y-113532030D01*
X167515396Y-113585589D01*
X167428655Y-113631181D01*
X167360259Y-113667526D01*
X167312704Y-113693347D01*
X167288480Y-113707365D01*
X167286072Y-113709141D01*
X167277965Y-113732513D01*
X167292315Y-113765401D01*
X167330379Y-113809885D01*
X167369332Y-113846815D01*
X167418307Y-113885434D01*
X167451821Y-113899049D01*
X167458968Y-113898288D01*
X167479288Y-113889430D01*
X167521630Y-113868902D01*
X167581561Y-113838926D01*
X167654645Y-113801722D01*
X167736449Y-113759514D01*
X167751052Y-113751923D01*
X168018591Y-113612709D01*
X168565642Y-114159761D01*
X168548907Y-114190568D01*
X168511510Y-114260377D01*
X168470507Y-114338535D01*
X168428222Y-114420431D01*
X168386977Y-114501447D01*
X168349096Y-114576968D01*
X168316902Y-114642379D01*
X168292719Y-114693066D01*
X168278870Y-114724413D01*
X168276506Y-114731673D01*
X168285333Y-114752542D01*
X168310214Y-114785914D01*
X168344614Y-114824735D01*
X168381991Y-114861951D01*
X168415810Y-114890509D01*
X168434076Y-114901662D01*
X168457942Y-114898397D01*
X168474755Y-114885901D01*
X168484887Y-114869096D01*
X168507414Y-114827706D01*
X168541257Y-114763816D01*
X168585339Y-114679513D01*
X168638581Y-114576884D01*
X168699904Y-114458014D01*
X168768230Y-114324990D01*
X168842480Y-114179898D01*
X168878053Y-114110156D01*
X168684683Y-113916787D01*
X168672860Y-113913843D01*
X168646477Y-113894145D01*
X168604130Y-113856436D01*
X168544414Y-113799459D01*
X168465923Y-113721954D01*
X168456989Y-113713028D01*
X168241262Y-113497301D01*
X168348514Y-113440796D01*
X168391819Y-113418085D01*
X168456587Y-113384257D01*
X168537754Y-113341949D01*
X168630256Y-113293799D01*
X168729029Y-113242446D01*
X168802172Y-113204458D01*
X169148580Y-113024626D01*
X169081671Y-113156442D01*
X169023467Y-113270733D01*
X168964958Y-113384933D01*
X168907807Y-113495855D01*
X168853678Y-113600316D01*
X168804234Y-113695128D01*
X168761137Y-113777108D01*
X168726051Y-113843069D01*
X168700638Y-113889826D01*
X168686564Y-113914194D01*
X168684683Y-113916787D01*
X168878053Y-114110156D01*
X168921576Y-114024826D01*
X169004439Y-113861859D01*
X169023183Y-113824926D01*
X169549468Y-112787589D01*
X169477664Y-112709645D01*
X169430463Y-112662235D01*
X169397419Y-112638275D01*
G36*
X170347196Y-115027442D02*
G01*
X169623420Y-115745789D01*
X169244017Y-115366387D01*
X169155810Y-115278526D01*
X169073585Y-115197289D01*
X168999884Y-115125135D01*
X168937249Y-115064526D01*
X168888221Y-115017920D01*
X168855341Y-114987779D01*
X168841490Y-114976685D01*
X168818028Y-114980704D01*
X168783987Y-115002605D01*
X168745948Y-115035807D01*
X168710491Y-115073729D01*
X168684200Y-115109790D01*
X168673652Y-115137408D01*
X168674710Y-115143464D01*
X168687159Y-115158600D01*
X168718590Y-115192529D01*
X168766795Y-115242978D01*
X168829562Y-115307679D01*
X168904677Y-115384357D01*
X168989931Y-115470744D01*
X169083111Y-115564565D01*
X169147712Y-115629291D01*
X169262338Y-115743707D01*
X169357782Y-115838450D01*
X169435800Y-115915174D01*
X169498147Y-115975529D01*
X169546577Y-116021168D01*
X169582844Y-116053740D01*
X169608702Y-116074899D01*
X169625907Y-116086296D01*
X169636212Y-116089579D01*
X169636710Y-116089550D01*
X169648552Y-116082505D01*
X169673291Y-116061859D01*
X169711801Y-116026754D01*
X169764958Y-115976333D01*
X169833641Y-115909740D01*
X169918724Y-115826118D01*
X170021083Y-115724613D01*
X170141595Y-115604366D01*
X170281136Y-115464521D01*
X170440582Y-115304222D01*
X170456792Y-115287903D01*
X171250578Y-114488700D01*
X171070973Y-114309094D01*
X170347196Y-115027442D01*
G37*
X170347196Y-115027442D02*
X169623420Y-115745789D01*
X169244017Y-115366387D01*
X169155810Y-115278526D01*
X169073585Y-115197289D01*
X168999884Y-115125135D01*
X168937249Y-115064526D01*
X168888221Y-115017920D01*
X168855341Y-114987779D01*
X168841490Y-114976685D01*
X168818028Y-114980704D01*
X168783987Y-115002605D01*
X168745948Y-115035807D01*
X168710491Y-115073729D01*
X168684200Y-115109790D01*
X168673652Y-115137408D01*
X168674710Y-115143464D01*
X168687159Y-115158600D01*
X168718590Y-115192529D01*
X168766795Y-115242978D01*
X168829562Y-115307679D01*
X168904677Y-115384357D01*
X168989931Y-115470744D01*
X169083111Y-115564565D01*
X169147712Y-115629291D01*
X169262338Y-115743707D01*
X169357782Y-115838450D01*
X169435800Y-115915174D01*
X169498147Y-115975529D01*
X169546577Y-116021168D01*
X169582844Y-116053740D01*
X169608702Y-116074899D01*
X169625907Y-116086296D01*
X169636212Y-116089579D01*
X169636710Y-116089550D01*
X169648552Y-116082505D01*
X169673291Y-116061859D01*
X169711801Y-116026754D01*
X169764958Y-115976333D01*
X169833641Y-115909740D01*
X169918724Y-115826118D01*
X170021083Y-115724613D01*
X170141595Y-115604366D01*
X170281136Y-115464521D01*
X170440582Y-115304222D01*
X170456792Y-115287903D01*
X171250578Y-114488700D01*
X171070973Y-114309094D01*
X170347196Y-115027442D01*
G36*
X171635322Y-114867402D02*
G01*
X171587677Y-114823445D01*
X171556175Y-114797379D01*
X171535695Y-114786096D01*
X171521115Y-114786493D01*
X171511403Y-114792263D01*
X171503772Y-114808711D01*
X171495438Y-114847866D01*
X171486266Y-114910912D01*
X171476119Y-114999033D01*
X171464861Y-115113413D01*
X171452357Y-115255235D01*
X171438471Y-115425685D01*
X171438064Y-115430829D01*
X171427337Y-115564007D01*
X171416922Y-115687886D01*
X171407118Y-115799303D01*
X171398223Y-115895097D01*
X171390536Y-115972104D01*
X171384354Y-116027164D01*
X171379975Y-116057114D01*
X171378595Y-116061649D01*
X171362159Y-116065951D01*
X171319054Y-116074252D01*
X171252157Y-116086074D01*
X171164343Y-116100938D01*
X171058489Y-116118366D01*
X170937472Y-116137878D01*
X170804166Y-116158996D01*
X170661448Y-116181241D01*
X170642046Y-116184238D01*
X170456437Y-116213235D01*
X170299378Y-116238562D01*
X170169788Y-116260416D01*
X170066585Y-116278998D01*
X169988689Y-116294510D01*
X169935019Y-116307150D01*
X169904493Y-116317119D01*
X169896592Y-116322204D01*
X169888732Y-116336548D01*
X169890485Y-116352255D01*
X169904982Y-116374804D01*
X169935351Y-116409674D01*
X169964233Y-116440640D01*
X170006201Y-116483294D01*
X170042131Y-116516361D01*
X170066054Y-116534464D01*
X170070418Y-116536259D01*
X170088797Y-116534673D01*
X170133555Y-116528867D01*
X170201559Y-116519302D01*
X170289676Y-116506438D01*
X170394770Y-116490737D01*
X170513709Y-116472660D01*
X170643359Y-116452668D01*
X170724418Y-116440034D01*
X170858443Y-116419270D01*
X170983199Y-116400338D01*
X171095625Y-116383675D01*
X171192659Y-116369716D01*
X171271242Y-116358896D01*
X171328311Y-116351651D01*
X171360804Y-116348416D01*
X171367252Y-116348600D01*
X171370003Y-116365854D01*
X171371408Y-116406578D01*
X171371362Y-116464387D01*
X171370101Y-116522243D01*
X171365039Y-116687975D01*
X171081791Y-116971223D01*
X170996229Y-117057033D01*
X170929798Y-117124388D01*
X170880296Y-117175758D01*
X170845525Y-117213614D01*
X170823282Y-117240424D01*
X170811366Y-117258661D01*
X170807578Y-117270794D01*
X170808842Y-117277596D01*
X170828176Y-117306374D01*
X170861062Y-117342805D01*
X170900126Y-117380066D01*
X170937996Y-117411337D01*
X170967297Y-117429798D01*
X170975888Y-117432111D01*
X170986021Y-117427018D01*
X171006400Y-117411028D01*
X171038127Y-117383076D01*
X171082299Y-117342097D01*
X171140017Y-117287025D01*
X171212381Y-117216794D01*
X171300491Y-117130339D01*
X171405446Y-117026593D01*
X171528346Y-116904494D01*
X171670290Y-116762972D01*
X171790213Y-116643141D01*
X171941044Y-116492211D01*
X172071971Y-116360951D01*
X172184314Y-116247995D01*
X172279389Y-116151975D01*
X172358514Y-116071523D01*
X172423007Y-116005272D01*
X172474185Y-115951853D01*
X172513367Y-115909900D01*
X172541869Y-115878046D01*
X172561011Y-115854920D01*
X172572109Y-115839158D01*
X172576481Y-115829392D01*
X172576652Y-115826961D01*
X172563399Y-115800357D01*
X172529377Y-115760428D01*
X172493425Y-115725301D01*
X172412729Y-115650851D01*
X172018342Y-116034673D01*
X171623954Y-116418495D01*
X171734811Y-114960848D01*
X171635322Y-114867402D01*
G37*
X171635322Y-114867402D02*
X171587677Y-114823445D01*
X171556175Y-114797379D01*
X171535695Y-114786096D01*
X171521115Y-114786493D01*
X171511403Y-114792263D01*
X171503772Y-114808711D01*
X171495438Y-114847866D01*
X171486266Y-114910912D01*
X171476119Y-114999033D01*
X171464861Y-115113413D01*
X171452357Y-115255235D01*
X171438471Y-115425685D01*
X171438064Y-115430829D01*
X171427337Y-115564007D01*
X171416922Y-115687886D01*
X171407118Y-115799303D01*
X171398223Y-115895097D01*
X171390536Y-115972104D01*
X171384354Y-116027164D01*
X171379975Y-116057114D01*
X171378595Y-116061649D01*
X171362159Y-116065951D01*
X171319054Y-116074252D01*
X171252157Y-116086074D01*
X171164343Y-116100938D01*
X171058489Y-116118366D01*
X170937472Y-116137878D01*
X170804166Y-116158996D01*
X170661448Y-116181241D01*
X170642046Y-116184238D01*
X170456437Y-116213235D01*
X170299378Y-116238562D01*
X170169788Y-116260416D01*
X170066585Y-116278998D01*
X169988689Y-116294510D01*
X169935019Y-116307150D01*
X169904493Y-116317119D01*
X169896592Y-116322204D01*
X169888732Y-116336548D01*
X169890485Y-116352255D01*
X169904982Y-116374804D01*
X169935351Y-116409674D01*
X169964233Y-116440640D01*
X170006201Y-116483294D01*
X170042131Y-116516361D01*
X170066054Y-116534464D01*
X170070418Y-116536259D01*
X170088797Y-116534673D01*
X170133555Y-116528867D01*
X170201559Y-116519302D01*
X170289676Y-116506438D01*
X170394770Y-116490737D01*
X170513709Y-116472660D01*
X170643359Y-116452668D01*
X170724418Y-116440034D01*
X170858443Y-116419270D01*
X170983199Y-116400338D01*
X171095625Y-116383675D01*
X171192659Y-116369716D01*
X171271242Y-116358896D01*
X171328311Y-116351651D01*
X171360804Y-116348416D01*
X171367252Y-116348600D01*
X171370003Y-116365854D01*
X171371408Y-116406578D01*
X171371362Y-116464387D01*
X171370101Y-116522243D01*
X171365039Y-116687975D01*
X171081791Y-116971223D01*
X170996229Y-117057033D01*
X170929798Y-117124388D01*
X170880296Y-117175758D01*
X170845525Y-117213614D01*
X170823282Y-117240424D01*
X170811366Y-117258661D01*
X170807578Y-117270794D01*
X170808842Y-117277596D01*
X170828176Y-117306374D01*
X170861062Y-117342805D01*
X170900126Y-117380066D01*
X170937996Y-117411337D01*
X170967297Y-117429798D01*
X170975888Y-117432111D01*
X170986021Y-117427018D01*
X171006400Y-117411028D01*
X171038127Y-117383076D01*
X171082299Y-117342097D01*
X171140017Y-117287025D01*
X171212381Y-117216794D01*
X171300491Y-117130339D01*
X171405446Y-117026593D01*
X171528346Y-116904494D01*
X171670290Y-116762972D01*
X171790213Y-116643141D01*
X171941044Y-116492211D01*
X172071971Y-116360951D01*
X172184314Y-116247995D01*
X172279389Y-116151975D01*
X172358514Y-116071523D01*
X172423007Y-116005272D01*
X172474185Y-115951853D01*
X172513367Y-115909900D01*
X172541869Y-115878046D01*
X172561011Y-115854920D01*
X172572109Y-115839158D01*
X172576481Y-115829392D01*
X172576652Y-115826961D01*
X172563399Y-115800357D01*
X172529377Y-115760428D01*
X172493425Y-115725301D01*
X172412729Y-115650851D01*
X172018342Y-116034673D01*
X171623954Y-116418495D01*
X171734811Y-114960848D01*
X171635322Y-114867402D01*
G36*
X166789452Y-109986384D02*
G01*
X166720947Y-109937289D01*
X166593809Y-109871821D01*
X166458018Y-109833324D01*
X166317720Y-109821769D01*
X166177058Y-109837121D01*
X166040177Y-109879353D01*
X165918973Y-109943327D01*
X165865509Y-109979774D01*
X165836287Y-110007992D01*
X165830926Y-110034417D01*
X165849043Y-110065482D01*
X165890254Y-110107622D01*
X165908194Y-110124439D01*
X165997417Y-110207519D01*
X166068978Y-110165076D01*
X166187179Y-110109492D01*
X166304311Y-110082569D01*
X166418175Y-110084090D01*
X166526572Y-110113835D01*
X166627303Y-110171585D01*
X166690526Y-110226970D01*
X166761945Y-110319399D01*
X166805684Y-110422600D01*
X166821706Y-110535989D01*
X166809971Y-110658985D01*
X166770445Y-110791008D01*
X166732560Y-110875947D01*
X166714039Y-110912462D01*
X166696730Y-110943584D01*
X166677592Y-110972913D01*
X166653589Y-111004049D01*
X166621681Y-111040592D01*
X166578831Y-111086141D01*
X166522001Y-111144298D01*
X166448151Y-111218662D01*
X166416735Y-111250173D01*
X166323019Y-111343346D01*
X166245801Y-111417709D01*
X166181111Y-111476227D01*
X166124979Y-111521866D01*
X166073435Y-111557586D01*
X166022508Y-111586354D01*
X165968229Y-111611131D01*
X165906630Y-111634882D01*
X165896510Y-111638539D01*
X165805930Y-111661187D01*
X165707404Y-111669433D01*
X165611080Y-111663456D01*
X165527106Y-111643429D01*
X165499574Y-111631689D01*
X165413694Y-111574898D01*
X165337375Y-111498571D01*
X165277681Y-111410967D01*
X165245550Y-111334695D01*
X165227290Y-111221405D01*
X165237695Y-111105581D01*
X165275999Y-110989838D01*
X165341432Y-110876794D01*
X165402264Y-110801438D01*
X165490057Y-110704852D01*
X165676241Y-110885244D01*
X165862424Y-111065638D01*
X166020899Y-110907163D01*
X165482084Y-110368347D01*
X165305194Y-110539409D01*
X165220515Y-110622994D01*
X165155057Y-110692376D01*
X165105167Y-110752580D01*
X165067190Y-110808627D01*
X165037472Y-110865542D01*
X165012359Y-110928348D01*
X165003453Y-110954235D01*
X164972440Y-111092774D01*
X164969833Y-111232365D01*
X164994479Y-111369697D01*
X165045222Y-111501453D01*
X165120907Y-111624320D01*
X165220380Y-111734983D01*
X165297854Y-111799248D01*
X165412671Y-111865770D01*
X165540599Y-111907174D01*
X165678704Y-111923558D01*
X165824055Y-111915015D01*
X165973720Y-111881638D01*
X166124765Y-111823524D01*
X166227942Y-111769236D01*
X166288270Y-111728557D01*
X166363070Y-111669948D01*
X166447295Y-111598109D01*
X166535899Y-111517733D01*
X166623834Y-111433519D01*
X166706052Y-111350162D01*
X166777508Y-111272361D01*
X166829915Y-111209058D01*
X166931222Y-111058429D01*
X167005692Y-110906974D01*
X167053490Y-110756629D01*
X167074780Y-110609332D01*
X167069730Y-110467022D01*
X167038507Y-110331635D01*
X166981276Y-110205108D01*
X166898202Y-110089379D01*
X166789452Y-109986384D01*
G37*
X166789452Y-109986384D02*
X166720947Y-109937289D01*
X166593809Y-109871821D01*
X166458018Y-109833324D01*
X166317720Y-109821769D01*
X166177058Y-109837121D01*
X166040177Y-109879353D01*
X165918973Y-109943327D01*
X165865509Y-109979774D01*
X165836287Y-110007992D01*
X165830926Y-110034417D01*
X165849043Y-110065482D01*
X165890254Y-110107622D01*
X165908194Y-110124439D01*
X165997417Y-110207519D01*
X166068978Y-110165076D01*
X166187179Y-110109492D01*
X166304311Y-110082569D01*
X166418175Y-110084090D01*
X166526572Y-110113835D01*
X166627303Y-110171585D01*
X166690526Y-110226970D01*
X166761945Y-110319399D01*
X166805684Y-110422600D01*
X166821706Y-110535989D01*
X166809971Y-110658985D01*
X166770445Y-110791008D01*
X166732560Y-110875947D01*
X166714039Y-110912462D01*
X166696730Y-110943584D01*
X166677592Y-110972913D01*
X166653589Y-111004049D01*
X166621681Y-111040592D01*
X166578831Y-111086141D01*
X166522001Y-111144298D01*
X166448151Y-111218662D01*
X166416735Y-111250173D01*
X166323019Y-111343346D01*
X166245801Y-111417709D01*
X166181111Y-111476227D01*
X166124979Y-111521866D01*
X166073435Y-111557586D01*
X166022508Y-111586354D01*
X165968229Y-111611131D01*
X165906630Y-111634882D01*
X165896510Y-111638539D01*
X165805930Y-111661187D01*
X165707404Y-111669433D01*
X165611080Y-111663456D01*
X165527106Y-111643429D01*
X165499574Y-111631689D01*
X165413694Y-111574898D01*
X165337375Y-111498571D01*
X165277681Y-111410967D01*
X165245550Y-111334695D01*
X165227290Y-111221405D01*
X165237695Y-111105581D01*
X165275999Y-110989838D01*
X165341432Y-110876794D01*
X165402264Y-110801438D01*
X165490057Y-110704852D01*
X165676241Y-110885244D01*
X165862424Y-111065638D01*
X166020899Y-110907163D01*
X165482084Y-110368347D01*
X165305194Y-110539409D01*
X165220515Y-110622994D01*
X165155057Y-110692376D01*
X165105167Y-110752580D01*
X165067190Y-110808627D01*
X165037472Y-110865542D01*
X165012359Y-110928348D01*
X165003453Y-110954235D01*
X164972440Y-111092774D01*
X164969833Y-111232365D01*
X164994479Y-111369697D01*
X165045222Y-111501453D01*
X165120907Y-111624320D01*
X165220380Y-111734983D01*
X165297854Y-111799248D01*
X165412671Y-111865770D01*
X165540599Y-111907174D01*
X165678704Y-111923558D01*
X165824055Y-111915015D01*
X165973720Y-111881638D01*
X166124765Y-111823524D01*
X166227942Y-111769236D01*
X166288270Y-111728557D01*
X166363070Y-111669948D01*
X166447295Y-111598109D01*
X166535899Y-111517733D01*
X166623834Y-111433519D01*
X166706052Y-111350162D01*
X166777508Y-111272361D01*
X166829915Y-111209058D01*
X166931222Y-111058429D01*
X167005692Y-110906974D01*
X167053490Y-110756629D01*
X167074780Y-110609332D01*
X167069730Y-110467022D01*
X167038507Y-110331635D01*
X166981276Y-110205108D01*
X166898202Y-110089379D01*
X166789452Y-109986384D01*
G36*
X164935188Y-112728186D02*
G01*
X164894799Y-112694882D01*
X164863293Y-112675526D01*
X164853420Y-112673073D01*
X164834157Y-112679335D01*
X164791015Y-112697181D01*
X164727041Y-112725230D01*
X164645282Y-112762107D01*
X164548783Y-112806431D01*
X164440591Y-112856824D01*
X164323752Y-112911909D01*
X164285676Y-112929996D01*
X164168022Y-112985848D01*
X164059213Y-113037236D01*
X163962102Y-113082830D01*
X163879538Y-113121306D01*
X163814373Y-113151336D01*
X163769459Y-113171595D01*
X163747647Y-113180755D01*
X163745998Y-113181090D01*
X163751954Y-113166664D01*
X163768915Y-113127926D01*
X163795574Y-113067793D01*
X163830632Y-112989188D01*
X163872784Y-112895027D01*
X163920727Y-112788228D01*
X163973159Y-112671714D01*
X163992332Y-112629173D01*
X164046254Y-112509126D01*
X164096216Y-112397022D01*
X164140891Y-112295906D01*
X164178950Y-112208823D01*
X164209066Y-112138819D01*
X164229910Y-112088937D01*
X164240154Y-112062224D01*
X164240981Y-112059033D01*
X164231800Y-112036426D01*
X164205483Y-112001235D01*
X164168164Y-111959627D01*
X164125976Y-111917766D01*
X164085052Y-111881817D01*
X164051526Y-111857946D01*
X164034678Y-111851674D01*
X164024524Y-111856772D01*
X164004116Y-111872779D01*
X163972351Y-111900763D01*
X163928125Y-111941791D01*
X163870337Y-111996934D01*
X163797881Y-112067258D01*
X163709657Y-112153832D01*
X163604561Y-112257725D01*
X163481489Y-112380005D01*
X163339341Y-112521738D01*
X163225206Y-112635790D01*
X163098144Y-112763021D01*
X162977197Y-112884458D01*
X162864039Y-112998398D01*
X162760347Y-113103139D01*
X162667793Y-113196979D01*
X162588057Y-113278217D01*
X162522810Y-113345147D01*
X162473730Y-113396070D01*
X162442491Y-113429282D01*
X162430791Y-113443030D01*
X162434902Y-113466372D01*
X162457054Y-113500509D01*
X162490861Y-113539031D01*
X162529934Y-113575526D01*
X162567886Y-113603578D01*
X162598330Y-113616776D01*
X162604068Y-113616999D01*
X162614379Y-113612591D01*
X162632065Y-113599738D01*
X162658594Y-113577008D01*
X162695430Y-113542967D01*
X162744039Y-113496185D01*
X162805889Y-113435229D01*
X162882444Y-113358667D01*
X162975169Y-113265069D01*
X163085533Y-113153001D01*
X163215000Y-113021034D01*
X163232068Y-113003610D01*
X163830119Y-112393005D01*
X163797877Y-112466413D01*
X163783922Y-112497825D01*
X163759423Y-112552582D01*
X163726126Y-112626797D01*
X163685781Y-112716577D01*
X163640134Y-112818032D01*
X163590933Y-112927271D01*
X163562076Y-112991293D01*
X163358518Y-113442764D01*
X163420126Y-113510596D01*
X163456395Y-113548407D01*
X163480640Y-113566772D01*
X163499253Y-113569785D01*
X163508160Y-113566935D01*
X163527720Y-113557901D01*
X163570829Y-113537654D01*
X163634053Y-113507822D01*
X163713954Y-113470027D01*
X163807099Y-113425893D01*
X163910052Y-113377046D01*
X163971481Y-113347872D01*
X164079070Y-113296814D01*
X164179342Y-113249343D01*
X164268755Y-113207124D01*
X164343763Y-113171828D01*
X164400826Y-113145123D01*
X164436398Y-113128679D01*
X164445514Y-113124614D01*
X164445506Y-113129567D01*
X164426186Y-113152712D01*
X164387217Y-113194390D01*
X164328262Y-113254943D01*
X164248985Y-113334714D01*
X164149047Y-113434043D01*
X164028113Y-113553273D01*
X163887681Y-113690952D01*
X163754984Y-113820935D01*
X163642362Y-113931675D01*
X163548361Y-114024656D01*
X163471533Y-114101364D01*
X163410424Y-114163285D01*
X163363586Y-114211902D01*
X163329566Y-114248702D01*
X163306916Y-114275170D01*
X163294183Y-114292791D01*
X163289930Y-114302894D01*
X163295523Y-114327500D01*
X163318465Y-114360868D01*
X163361938Y-114407599D01*
X163363333Y-114408995D01*
X163402562Y-114446398D01*
X163434550Y-114473575D01*
X163452859Y-114485095D01*
X163453603Y-114485178D01*
X163466179Y-114474865D01*
X163498178Y-114445017D01*
X163547934Y-114397270D01*
X163613781Y-114333263D01*
X163694054Y-114254629D01*
X163787086Y-114163007D01*
X163891213Y-114060033D01*
X164004767Y-113947344D01*
X164126085Y-113826577D01*
X164253499Y-113699368D01*
X164261474Y-113691394D01*
X164418791Y-113533914D01*
X164555886Y-113396309D01*
X164673819Y-113277483D01*
X164773656Y-113176340D01*
X164856456Y-113091782D01*
X164923284Y-113022714D01*
X164975202Y-112968037D01*
X165013274Y-112926656D01*
X165038562Y-112897474D01*
X165052129Y-112879393D01*
X165055258Y-112872253D01*
X165044495Y-112847469D01*
X165016552Y-112810909D01*
X164977944Y-112769005D01*
X164935188Y-112728186D01*
G37*
X164935188Y-112728186D02*
X164894799Y-112694882D01*
X164863293Y-112675526D01*
X164853420Y-112673073D01*
X164834157Y-112679335D01*
X164791015Y-112697181D01*
X164727041Y-112725230D01*
X164645282Y-112762107D01*
X164548783Y-112806431D01*
X164440591Y-112856824D01*
X164323752Y-112911909D01*
X164285676Y-112929996D01*
X164168022Y-112985848D01*
X164059213Y-113037236D01*
X163962102Y-113082830D01*
X163879538Y-113121306D01*
X163814373Y-113151336D01*
X163769459Y-113171595D01*
X163747647Y-113180755D01*
X163745998Y-113181090D01*
X163751954Y-113166664D01*
X163768915Y-113127926D01*
X163795574Y-113067793D01*
X163830632Y-112989188D01*
X163872784Y-112895027D01*
X163920727Y-112788228D01*
X163973159Y-112671714D01*
X163992332Y-112629173D01*
X164046254Y-112509126D01*
X164096216Y-112397022D01*
X164140891Y-112295906D01*
X164178950Y-112208823D01*
X164209066Y-112138819D01*
X164229910Y-112088937D01*
X164240154Y-112062224D01*
X164240981Y-112059033D01*
X164231800Y-112036426D01*
X164205483Y-112001235D01*
X164168164Y-111959627D01*
X164125976Y-111917766D01*
X164085052Y-111881817D01*
X164051526Y-111857946D01*
X164034678Y-111851674D01*
X164024524Y-111856772D01*
X164004116Y-111872779D01*
X163972351Y-111900763D01*
X163928125Y-111941791D01*
X163870337Y-111996934D01*
X163797881Y-112067258D01*
X163709657Y-112153832D01*
X163604561Y-112257725D01*
X163481489Y-112380005D01*
X163339341Y-112521738D01*
X163225206Y-112635790D01*
X163098144Y-112763021D01*
X162977197Y-112884458D01*
X162864039Y-112998398D01*
X162760347Y-113103139D01*
X162667793Y-113196979D01*
X162588057Y-113278217D01*
X162522810Y-113345147D01*
X162473730Y-113396070D01*
X162442491Y-113429282D01*
X162430791Y-113443030D01*
X162434902Y-113466372D01*
X162457054Y-113500509D01*
X162490861Y-113539031D01*
X162529934Y-113575526D01*
X162567886Y-113603578D01*
X162598330Y-113616776D01*
X162604068Y-113616999D01*
X162614379Y-113612591D01*
X162632065Y-113599738D01*
X162658594Y-113577008D01*
X162695430Y-113542967D01*
X162744039Y-113496185D01*
X162805889Y-113435229D01*
X162882444Y-113358667D01*
X162975169Y-113265069D01*
X163085533Y-113153001D01*
X163215000Y-113021034D01*
X163232068Y-113003610D01*
X163830119Y-112393005D01*
X163797877Y-112466413D01*
X163783922Y-112497825D01*
X163759423Y-112552582D01*
X163726126Y-112626797D01*
X163685781Y-112716577D01*
X163640134Y-112818032D01*
X163590933Y-112927271D01*
X163562076Y-112991293D01*
X163358518Y-113442764D01*
X163420126Y-113510596D01*
X163456395Y-113548407D01*
X163480640Y-113566772D01*
X163499253Y-113569785D01*
X163508160Y-113566935D01*
X163527720Y-113557901D01*
X163570829Y-113537654D01*
X163634053Y-113507822D01*
X163713954Y-113470027D01*
X163807099Y-113425893D01*
X163910052Y-113377046D01*
X163971481Y-113347872D01*
X164079070Y-113296814D01*
X164179342Y-113249343D01*
X164268755Y-113207124D01*
X164343763Y-113171828D01*
X164400826Y-113145123D01*
X164436398Y-113128679D01*
X164445514Y-113124614D01*
X164445506Y-113129567D01*
X164426186Y-113152712D01*
X164387217Y-113194390D01*
X164328262Y-113254943D01*
X164248985Y-113334714D01*
X164149047Y-113434043D01*
X164028113Y-113553273D01*
X163887681Y-113690952D01*
X163754984Y-113820935D01*
X163642362Y-113931675D01*
X163548361Y-114024656D01*
X163471533Y-114101364D01*
X163410424Y-114163285D01*
X163363586Y-114211902D01*
X163329566Y-114248702D01*
X163306916Y-114275170D01*
X163294183Y-114292791D01*
X163289930Y-114302894D01*
X163295523Y-114327500D01*
X163318465Y-114360868D01*
X163361938Y-114407599D01*
X163363333Y-114408995D01*
X163402562Y-114446398D01*
X163434550Y-114473575D01*
X163452859Y-114485095D01*
X163453603Y-114485178D01*
X163466179Y-114474865D01*
X163498178Y-114445017D01*
X163547934Y-114397270D01*
X163613781Y-114333263D01*
X163694054Y-114254629D01*
X163787086Y-114163007D01*
X163891213Y-114060033D01*
X164004767Y-113947344D01*
X164126085Y-113826577D01*
X164253499Y-113699368D01*
X164261474Y-113691394D01*
X164418791Y-113533914D01*
X164555886Y-113396309D01*
X164673819Y-113277483D01*
X164773656Y-113176340D01*
X164856456Y-113091782D01*
X164923284Y-113022714D01*
X164975202Y-112968037D01*
X165013274Y-112926656D01*
X165038562Y-112897474D01*
X165052129Y-112879393D01*
X165055258Y-112872253D01*
X165044495Y-112847469D01*
X165016552Y-112810909D01*
X164977944Y-112769005D01*
X164935188Y-112728186D01*
G36*
X167439313Y-115232613D02*
G01*
X167367141Y-115163016D01*
X167293220Y-115093452D01*
X167220998Y-115027215D01*
X167153925Y-114967597D01*
X167095451Y-114917894D01*
X167049026Y-114881396D01*
X167022250Y-114863567D01*
X166882267Y-114800430D01*
X166743306Y-114766421D01*
X166607259Y-114761229D01*
X166476017Y-114784547D01*
X166351470Y-114836064D01*
X166235509Y-114915472D01*
X166142620Y-115007531D01*
X166069587Y-115114512D01*
X166020868Y-115235835D01*
X165997373Y-115367270D01*
X166000009Y-115504586D01*
X166016379Y-115595864D01*
X166040696Y-115695447D01*
X165955496Y-115719345D01*
X165918623Y-115730057D01*
X165857887Y-115748138D01*
X165777988Y-115772167D01*
X165683625Y-115800726D01*
X165579497Y-115832398D01*
X165470304Y-115865764D01*
X165468772Y-115866233D01*
X165334647Y-115907970D01*
X165227797Y-115942717D01*
X165146587Y-115971067D01*
X165089388Y-115993611D01*
X165054569Y-116010941D01*
X165042235Y-116020772D01*
X165030764Y-116037292D01*
X165028734Y-116052445D01*
X165039027Y-116072250D01*
X165064523Y-116102728D01*
X165099696Y-116140877D01*
X165182169Y-116229434D01*
X165677513Y-116074228D01*
X166172856Y-115919023D01*
X166345264Y-116085625D01*
X166517670Y-116252228D01*
X166195330Y-116580157D01*
X165872989Y-116908086D01*
X165949316Y-116990494D01*
X166001242Y-117042218D01*
X166038003Y-117068951D01*
X166051796Y-117072900D01*
X166061417Y-117068424D01*
X166080085Y-117054234D01*
X166108982Y-117029184D01*
X166149292Y-116992132D01*
X166202195Y-116941933D01*
X166268873Y-116877442D01*
X166350510Y-116797516D01*
X166448286Y-116701010D01*
X166563383Y-116586782D01*
X166696985Y-116453685D01*
X166850273Y-116300577D01*
X166866919Y-116283932D01*
X166876663Y-116274184D01*
X166686495Y-116084016D01*
X166504688Y-115901331D01*
X166432507Y-115827895D01*
X166378816Y-115770851D01*
X166340234Y-115726229D01*
X166313377Y-115690060D01*
X166294864Y-115658376D01*
X166291245Y-115650910D01*
X166253391Y-115539248D01*
X166244225Y-115429152D01*
X166259253Y-115338542D01*
X166274023Y-115292651D01*
X166291036Y-115256727D01*
X166315957Y-115222134D01*
X166354452Y-115180234D01*
X166380109Y-115154296D01*
X166428783Y-115107036D01*
X166465861Y-115076165D01*
X166499939Y-115056037D01*
X166539610Y-115041010D01*
X166563503Y-115033854D01*
X166628447Y-115021408D01*
X166698108Y-115017274D01*
X166734220Y-115019547D01*
X166791871Y-115030263D01*
X166845295Y-115047880D01*
X166899017Y-115075252D01*
X166957562Y-115115232D01*
X167025455Y-115170671D01*
X167107219Y-115244424D01*
X167140744Y-115275839D01*
X167322834Y-115447677D01*
X166686495Y-116084016D01*
X166876663Y-116274184D01*
X167016567Y-116134203D01*
X167146370Y-116004120D01*
X167257689Y-115892268D01*
X167351883Y-115797232D01*
X167430310Y-115717601D01*
X167494328Y-115651959D01*
X167545296Y-115598894D01*
X167584572Y-115556993D01*
X167613516Y-115524840D01*
X167633485Y-115501023D01*
X167645840Y-115484128D01*
X167651937Y-115472743D01*
X167653183Y-115465854D01*
X167641506Y-115445482D01*
X167610831Y-115408679D01*
X167564608Y-115358739D01*
X167506285Y-115298952D01*
X167439313Y-115232613D01*
G37*
X167439313Y-115232613D02*
X167367141Y-115163016D01*
X167293220Y-115093452D01*
X167220998Y-115027215D01*
X167153925Y-114967597D01*
X167095451Y-114917894D01*
X167049026Y-114881396D01*
X167022250Y-114863567D01*
X166882267Y-114800430D01*
X166743306Y-114766421D01*
X166607259Y-114761229D01*
X166476017Y-114784547D01*
X166351470Y-114836064D01*
X166235509Y-114915472D01*
X166142620Y-115007531D01*
X166069587Y-115114512D01*
X166020868Y-115235835D01*
X165997373Y-115367270D01*
X166000009Y-115504586D01*
X166016379Y-115595864D01*
X166040696Y-115695447D01*
X165955496Y-115719345D01*
X165918623Y-115730057D01*
X165857887Y-115748138D01*
X165777988Y-115772167D01*
X165683625Y-115800726D01*
X165579497Y-115832398D01*
X165470304Y-115865764D01*
X165468772Y-115866233D01*
X165334647Y-115907970D01*
X165227797Y-115942717D01*
X165146587Y-115971067D01*
X165089388Y-115993611D01*
X165054569Y-116010941D01*
X165042235Y-116020772D01*
X165030764Y-116037292D01*
X165028734Y-116052445D01*
X165039027Y-116072250D01*
X165064523Y-116102728D01*
X165099696Y-116140877D01*
X165182169Y-116229434D01*
X165677513Y-116074228D01*
X166172856Y-115919023D01*
X166345264Y-116085625D01*
X166517670Y-116252228D01*
X166195330Y-116580157D01*
X165872989Y-116908086D01*
X165949316Y-116990494D01*
X166001242Y-117042218D01*
X166038003Y-117068951D01*
X166051796Y-117072900D01*
X166061417Y-117068424D01*
X166080085Y-117054234D01*
X166108982Y-117029184D01*
X166149292Y-116992132D01*
X166202195Y-116941933D01*
X166268873Y-116877442D01*
X166350510Y-116797516D01*
X166448286Y-116701010D01*
X166563383Y-116586782D01*
X166696985Y-116453685D01*
X166850273Y-116300577D01*
X166866919Y-116283932D01*
X166876663Y-116274184D01*
X166686495Y-116084016D01*
X166504688Y-115901331D01*
X166432507Y-115827895D01*
X166378816Y-115770851D01*
X166340234Y-115726229D01*
X166313377Y-115690060D01*
X166294864Y-115658376D01*
X166291245Y-115650910D01*
X166253391Y-115539248D01*
X166244225Y-115429152D01*
X166259253Y-115338542D01*
X166274023Y-115292651D01*
X166291036Y-115256727D01*
X166315957Y-115222134D01*
X166354452Y-115180234D01*
X166380109Y-115154296D01*
X166428783Y-115107036D01*
X166465861Y-115076165D01*
X166499939Y-115056037D01*
X166539610Y-115041010D01*
X166563503Y-115033854D01*
X166628447Y-115021408D01*
X166698108Y-115017274D01*
X166734220Y-115019547D01*
X166791871Y-115030263D01*
X166845295Y-115047880D01*
X166899017Y-115075252D01*
X166957562Y-115115232D01*
X167025455Y-115170671D01*
X167107219Y-115244424D01*
X167140744Y-115275839D01*
X167322834Y-115447677D01*
X166686495Y-116084016D01*
X166876663Y-116274184D01*
X167016567Y-116134203D01*
X167146370Y-116004120D01*
X167257689Y-115892268D01*
X167351883Y-115797232D01*
X167430310Y-115717601D01*
X167494328Y-115651959D01*
X167545296Y-115598894D01*
X167584572Y-115556993D01*
X167613516Y-115524840D01*
X167633485Y-115501023D01*
X167645840Y-115484128D01*
X167651937Y-115472743D01*
X167653183Y-115465854D01*
X167641506Y-115445482D01*
X167610831Y-115408679D01*
X167564608Y-115358739D01*
X167506285Y-115298952D01*
X167439313Y-115232613D01*
G36*
X168421292Y-116213167D02*
G01*
X168319635Y-116112186D01*
X168225907Y-116019531D01*
X168142148Y-115937194D01*
X168070398Y-115867172D01*
X168012692Y-115811457D01*
X167971070Y-115772045D01*
X167947574Y-115750928D01*
X167943464Y-115747930D01*
X167926149Y-115747069D01*
X167902117Y-115760670D01*
X167866310Y-115792105D01*
X167843363Y-115814608D01*
X167802133Y-115857897D01*
X167780362Y-115886968D01*
X167774678Y-115906886D01*
X167776685Y-115914710D01*
X167789927Y-115931714D01*
X167821197Y-115966309D01*
X167867261Y-116015092D01*
X167924887Y-116074657D01*
X167990840Y-116141599D01*
X168018476Y-116169327D01*
X168249969Y-116400819D01*
X166813275Y-117848372D01*
X166890460Y-117931669D01*
X166935904Y-117978075D01*
X166967986Y-118003872D01*
X166991130Y-118012462D01*
X166995399Y-118012387D01*
X167006061Y-118006870D01*
X167026447Y-117990693D01*
X167057743Y-117962685D01*
X167101136Y-117921677D01*
X167157814Y-117866496D01*
X167228963Y-117795975D01*
X167315771Y-117708944D01*
X167419424Y-117604230D01*
X167541110Y-117480666D01*
X167682016Y-117337080D01*
X167724730Y-117293481D01*
X168426306Y-116577156D01*
X168668895Y-116819746D01*
X168755771Y-116905868D01*
X168823873Y-116971607D01*
X168874816Y-117018424D01*
X168910213Y-117047782D01*
X168931682Y-117061143D01*
X168936842Y-117062336D01*
X168960811Y-117052180D01*
X168996494Y-117025640D01*
X169026644Y-116997889D01*
X169061754Y-116958783D01*
X169084993Y-116925102D01*
X169091091Y-116908087D01*
X169085661Y-116896720D01*
X169068558Y-116874590D01*
X169038560Y-116840416D01*
X168994445Y-116792925D01*
X168934993Y-116730840D01*
X168858982Y-116652883D01*
X168765189Y-116557777D01*
X168652395Y-116444248D01*
X168528840Y-116320480D01*
X168421292Y-116213167D01*
G37*
X168421292Y-116213167D02*
X168319635Y-116112186D01*
X168225907Y-116019531D01*
X168142148Y-115937194D01*
X168070398Y-115867172D01*
X168012692Y-115811457D01*
X167971070Y-115772045D01*
X167947574Y-115750928D01*
X167943464Y-115747930D01*
X167926149Y-115747069D01*
X167902117Y-115760670D01*
X167866310Y-115792105D01*
X167843363Y-115814608D01*
X167802133Y-115857897D01*
X167780362Y-115886968D01*
X167774678Y-115906886D01*
X167776685Y-115914710D01*
X167789927Y-115931714D01*
X167821197Y-115966309D01*
X167867261Y-116015092D01*
X167924887Y-116074657D01*
X167990840Y-116141599D01*
X168018476Y-116169327D01*
X168249969Y-116400819D01*
X166813275Y-117848372D01*
X166890460Y-117931669D01*
X166935904Y-117978075D01*
X166967986Y-118003872D01*
X166991130Y-118012462D01*
X166995399Y-118012387D01*
X167006061Y-118006870D01*
X167026447Y-117990693D01*
X167057743Y-117962685D01*
X167101136Y-117921677D01*
X167157814Y-117866496D01*
X167228963Y-117795975D01*
X167315771Y-117708944D01*
X167419424Y-117604230D01*
X167541110Y-117480666D01*
X167682016Y-117337080D01*
X167724730Y-117293481D01*
X168426306Y-116577156D01*
X168668895Y-116819746D01*
X168755771Y-116905868D01*
X168823873Y-116971607D01*
X168874816Y-117018424D01*
X168910213Y-117047782D01*
X168931682Y-117061143D01*
X168936842Y-117062336D01*
X168960811Y-117052180D01*
X168996494Y-117025640D01*
X169026644Y-116997889D01*
X169061754Y-116958783D01*
X169084993Y-116925102D01*
X169091091Y-116908087D01*
X169085661Y-116896720D01*
X169068558Y-116874590D01*
X169038560Y-116840416D01*
X168994445Y-116792925D01*
X168934993Y-116730840D01*
X168858982Y-116652883D01*
X168765189Y-116557777D01*
X168652395Y-116444248D01*
X168528840Y-116320480D01*
X168421292Y-116213167D01*
G36*
X165840812Y-113607203D02*
G01*
X165825672Y-113595730D01*
X165703437Y-113522976D01*
X165572289Y-113478034D01*
X165433776Y-113460725D01*
X165289442Y-113470867D01*
X165140832Y-113508280D01*
X164989492Y-113572784D01*
X164836967Y-113664200D01*
X164760529Y-113720109D01*
X164693809Y-113775944D01*
X164616670Y-113847039D01*
X164533920Y-113928317D01*
X164450367Y-114014702D01*
X164370820Y-114101117D01*
X164300085Y-114182485D01*
X164242972Y-114253730D01*
X164208340Y-114303152D01*
X164155481Y-114400281D01*
X164109040Y-114509884D01*
X164071898Y-114623084D01*
X164046935Y-114731005D01*
X164037030Y-114824771D01*
X164036975Y-114831260D01*
X164051118Y-114976266D01*
X164092935Y-115110906D01*
X164161508Y-115233500D01*
X164255916Y-115342363D01*
X164362690Y-115427531D01*
X164468628Y-115481713D01*
X164590587Y-115514807D01*
X164722970Y-115526354D01*
X164860179Y-115515897D01*
X164996616Y-115482975D01*
X165005004Y-115480156D01*
X165086339Y-115450979D01*
X165156674Y-115421788D01*
X165220341Y-115389546D01*
X165281672Y-115351211D01*
X165345003Y-115303742D01*
X165414663Y-115244099D01*
X165494987Y-115169242D01*
X165573410Y-115092634D01*
X165388883Y-114908106D01*
X165315168Y-114980332D01*
X165248465Y-115042286D01*
X165192920Y-115089619D01*
X165170321Y-115106658D01*
X165040693Y-115186013D01*
X164913789Y-115240336D01*
X164791805Y-115269350D01*
X164676936Y-115272771D01*
X164571375Y-115250318D01*
X164477319Y-115201712D01*
X164469804Y-115196276D01*
X164401531Y-115132675D01*
X164344115Y-115054840D01*
X164310349Y-114985314D01*
X164291770Y-114891829D01*
X164296193Y-114785382D01*
X164322528Y-114670688D01*
X164369687Y-114552460D01*
X164436577Y-114435414D01*
X164438042Y-114433216D01*
X164478157Y-114380121D01*
X164535275Y-114313870D01*
X164605060Y-114238670D01*
X164683174Y-114158732D01*
X164765281Y-114078262D01*
X164847045Y-114001474D01*
X164924127Y-113932574D01*
X164992192Y-113875772D01*
X165046903Y-113835278D01*
X165066523Y-113823213D01*
X165195912Y-113762688D01*
X165319880Y-113726474D01*
X165435785Y-113714875D01*
X165540984Y-113728193D01*
X165620521Y-113759610D01*
X165716624Y-113827244D01*
X165787473Y-113909689D01*
X165832800Y-114005370D01*
X165852340Y-114112713D01*
X165845828Y-114230142D01*
X165812996Y-114356082D01*
X165753579Y-114488958D01*
X165746063Y-114502753D01*
X165717407Y-114545221D01*
X165670870Y-114603527D01*
X165610601Y-114673320D01*
X165540748Y-114750249D01*
X165465459Y-114829962D01*
X165388883Y-114908106D01*
X165573410Y-115092634D01*
X165590307Y-115076128D01*
X165613414Y-115053196D01*
X165696312Y-114970468D01*
X165761089Y-114904838D01*
X165811033Y-114852555D01*
X165849429Y-114809866D01*
X165879562Y-114773021D01*
X165904719Y-114738264D01*
X165928186Y-114701846D01*
X165943900Y-114675825D01*
X166024104Y-114519169D01*
X166077337Y-114365691D01*
X166103787Y-114217100D01*
X166103638Y-114075101D01*
X166077080Y-113941405D01*
X166024299Y-113817718D01*
X165945479Y-113705748D01*
X165840812Y-113607203D01*
G37*
X165840812Y-113607203D02*
X165825672Y-113595730D01*
X165703437Y-113522976D01*
X165572289Y-113478034D01*
X165433776Y-113460725D01*
X165289442Y-113470867D01*
X165140832Y-113508280D01*
X164989492Y-113572784D01*
X164836967Y-113664200D01*
X164760529Y-113720109D01*
X164693809Y-113775944D01*
X164616670Y-113847039D01*
X164533920Y-113928317D01*
X164450367Y-114014702D01*
X164370820Y-114101117D01*
X164300085Y-114182485D01*
X164242972Y-114253730D01*
X164208340Y-114303152D01*
X164155481Y-114400281D01*
X164109040Y-114509884D01*
X164071898Y-114623084D01*
X164046935Y-114731005D01*
X164037030Y-114824771D01*
X164036975Y-114831260D01*
X164051118Y-114976266D01*
X164092935Y-115110906D01*
X164161508Y-115233500D01*
X164255916Y-115342363D01*
X164362690Y-115427531D01*
X164468628Y-115481713D01*
X164590587Y-115514807D01*
X164722970Y-115526354D01*
X164860179Y-115515897D01*
X164996616Y-115482975D01*
X165005004Y-115480156D01*
X165086339Y-115450979D01*
X165156674Y-115421788D01*
X165220341Y-115389546D01*
X165281672Y-115351211D01*
X165345003Y-115303742D01*
X165414663Y-115244099D01*
X165494987Y-115169242D01*
X165573410Y-115092634D01*
X165388883Y-114908106D01*
X165315168Y-114980332D01*
X165248465Y-115042286D01*
X165192920Y-115089619D01*
X165170321Y-115106658D01*
X165040693Y-115186013D01*
X164913789Y-115240336D01*
X164791805Y-115269350D01*
X164676936Y-115272771D01*
X164571375Y-115250318D01*
X164477319Y-115201712D01*
X164469804Y-115196276D01*
X164401531Y-115132675D01*
X164344115Y-115054840D01*
X164310349Y-114985314D01*
X164291770Y-114891829D01*
X164296193Y-114785382D01*
X164322528Y-114670688D01*
X164369687Y-114552460D01*
X164436577Y-114435414D01*
X164438042Y-114433216D01*
X164478157Y-114380121D01*
X164535275Y-114313870D01*
X164605060Y-114238670D01*
X164683174Y-114158732D01*
X164765281Y-114078262D01*
X164847045Y-114001474D01*
X164924127Y-113932574D01*
X164992192Y-113875772D01*
X165046903Y-113835278D01*
X165066523Y-113823213D01*
X165195912Y-113762688D01*
X165319880Y-113726474D01*
X165435785Y-113714875D01*
X165540984Y-113728193D01*
X165620521Y-113759610D01*
X165716624Y-113827244D01*
X165787473Y-113909689D01*
X165832800Y-114005370D01*
X165852340Y-114112713D01*
X165845828Y-114230142D01*
X165812996Y-114356082D01*
X165753579Y-114488958D01*
X165746063Y-114502753D01*
X165717407Y-114545221D01*
X165670870Y-114603527D01*
X165610601Y-114673320D01*
X165540748Y-114750249D01*
X165465459Y-114829962D01*
X165388883Y-114908106D01*
X165573410Y-115092634D01*
X165590307Y-115076128D01*
X165613414Y-115053196D01*
X165696312Y-114970468D01*
X165761089Y-114904838D01*
X165811033Y-114852555D01*
X165849429Y-114809866D01*
X165879562Y-114773021D01*
X165904719Y-114738264D01*
X165928186Y-114701846D01*
X165943900Y-114675825D01*
X166024104Y-114519169D01*
X166077337Y-114365691D01*
X166103787Y-114217100D01*
X166103638Y-114075101D01*
X166077080Y-113941405D01*
X166024299Y-113817718D01*
X165945479Y-113705748D01*
X165840812Y-113607203D01*
G36*
X169709847Y-117494405D02*
G01*
X169584030Y-117422701D01*
X169452607Y-117377282D01*
X169318587Y-117358485D01*
X169184973Y-117366647D01*
X169054772Y-117402103D01*
X168930988Y-117465192D01*
X168897732Y-117487967D01*
X168846245Y-117526830D01*
X168818250Y-117555951D01*
X168813450Y-117582210D01*
X168831551Y-117612494D01*
X168872260Y-117653681D01*
X168889936Y-117670218D01*
X168978618Y-117752805D01*
X169059250Y-117706656D01*
X169109670Y-117678777D01*
X169155767Y-117654920D01*
X169179966Y-117643588D01*
X169241651Y-117627974D01*
X169319290Y-117623119D01*
X169400955Y-117629029D01*
X169467883Y-117643505D01*
X169507509Y-117657188D01*
X169540402Y-117673520D01*
X169573576Y-117697459D01*
X169614048Y-117733965D01*
X169660544Y-117779700D01*
X169712160Y-117832404D01*
X169747144Y-117872109D01*
X169770708Y-117906212D01*
X169788063Y-117942106D01*
X169802256Y-117980806D01*
X169824973Y-118084494D01*
X169821954Y-118182229D01*
X169794347Y-118270147D01*
X169743298Y-118344384D01*
X169678982Y-118395876D01*
X169618186Y-118425493D01*
X169554733Y-118441330D01*
X169484959Y-118442788D01*
X169405201Y-118429272D01*
X169311796Y-118400184D01*
X169201082Y-118354927D01*
X169080413Y-118298313D01*
X168977949Y-118248707D01*
X168896148Y-118210740D01*
X168829197Y-118182204D01*
X168771277Y-118160890D01*
X168716572Y-118144589D01*
X168659268Y-118131094D01*
X168618483Y-118122897D01*
X168499143Y-118109016D01*
X168388478Y-118117161D01*
X168273952Y-118148311D01*
X168268933Y-118150115D01*
X168216412Y-118170773D01*
X168175532Y-118192423D01*
X168136841Y-118221439D01*
X168090892Y-118264194D01*
X168071951Y-118282979D01*
X168023036Y-118333597D01*
X167990044Y-118373734D01*
X167966611Y-118412813D01*
X167946371Y-118460257D01*
X167939338Y-118479269D01*
X167910048Y-118602719D01*
X167908066Y-118731497D01*
X167932101Y-118862260D01*
X167980867Y-118991660D01*
X168053073Y-119116353D01*
X168147433Y-119232993D01*
X168262656Y-119338232D01*
X168273333Y-119346516D01*
X168396995Y-119424711D01*
X168531072Y-119479848D01*
X168670412Y-119510945D01*
X168809863Y-119517016D01*
X168944269Y-119497080D01*
X168990326Y-119483380D01*
X169057839Y-119457094D01*
X169109811Y-119427221D01*
X169160208Y-119385454D01*
X169169188Y-119376987D01*
X169243227Y-119306343D01*
X169168776Y-119225646D01*
X169117850Y-119174995D01*
X169078879Y-119148018D01*
X169048048Y-119143014D01*
X169021540Y-119158271D01*
X169020464Y-119159330D01*
X168971446Y-119193753D01*
X168902454Y-119223385D01*
X168823353Y-119245000D01*
X168744012Y-119255368D01*
X168725541Y-119255825D01*
X168626562Y-119247730D01*
X168538173Y-119221456D01*
X168453952Y-119174019D01*
X168367479Y-119102431D01*
X168341724Y-119077390D01*
X168254142Y-118975042D01*
X168194926Y-118871989D01*
X168164447Y-118769299D01*
X168163077Y-118668039D01*
X168177290Y-118605569D01*
X168213640Y-118534647D01*
X168271205Y-118468773D01*
X168341503Y-118416339D01*
X168392645Y-118392504D01*
X168451879Y-118377193D01*
X168513869Y-118373030D01*
X168582589Y-118380960D01*
X168662016Y-118401921D01*
X168756124Y-118436856D01*
X168868888Y-118486705D01*
X168945652Y-118523430D01*
X169101215Y-118595419D01*
X169237111Y-118649163D01*
X169356792Y-118685354D01*
X169463711Y-118704677D01*
X169561321Y-118707825D01*
X169653073Y-118695484D01*
X169717406Y-118677408D01*
X169770883Y-118657815D01*
X169811473Y-118637818D01*
X169848660Y-118611211D01*
X169891929Y-118571787D01*
X169918010Y-118546123D01*
X169967687Y-118494796D01*
X170001071Y-118454065D01*
X170024426Y-118414928D01*
X170044014Y-118368380D01*
X170046651Y-118361203D01*
X170078647Y-118230851D01*
X170081983Y-118097694D01*
X170057394Y-117964305D01*
X170005614Y-117833259D01*
X169927379Y-117707129D01*
X169827057Y-117592058D01*
X169709847Y-117494405D01*
G37*
X169709847Y-117494405D02*
X169584030Y-117422701D01*
X169452607Y-117377282D01*
X169318587Y-117358485D01*
X169184973Y-117366647D01*
X169054772Y-117402103D01*
X168930988Y-117465192D01*
X168897732Y-117487967D01*
X168846245Y-117526830D01*
X168818250Y-117555951D01*
X168813450Y-117582210D01*
X168831551Y-117612494D01*
X168872260Y-117653681D01*
X168889936Y-117670218D01*
X168978618Y-117752805D01*
X169059250Y-117706656D01*
X169109670Y-117678777D01*
X169155767Y-117654920D01*
X169179966Y-117643588D01*
X169241651Y-117627974D01*
X169319290Y-117623119D01*
X169400955Y-117629029D01*
X169467883Y-117643505D01*
X169507509Y-117657188D01*
X169540402Y-117673520D01*
X169573576Y-117697459D01*
X169614048Y-117733965D01*
X169660544Y-117779700D01*
X169712160Y-117832404D01*
X169747144Y-117872109D01*
X169770708Y-117906212D01*
X169788063Y-117942106D01*
X169802256Y-117980806D01*
X169824973Y-118084494D01*
X169821954Y-118182229D01*
X169794347Y-118270147D01*
X169743298Y-118344384D01*
X169678982Y-118395876D01*
X169618186Y-118425493D01*
X169554733Y-118441330D01*
X169484959Y-118442788D01*
X169405201Y-118429272D01*
X169311796Y-118400184D01*
X169201082Y-118354927D01*
X169080413Y-118298313D01*
X168977949Y-118248707D01*
X168896148Y-118210740D01*
X168829197Y-118182204D01*
X168771277Y-118160890D01*
X168716572Y-118144589D01*
X168659268Y-118131094D01*
X168618483Y-118122897D01*
X168499143Y-118109016D01*
X168388478Y-118117161D01*
X168273952Y-118148311D01*
X168268933Y-118150115D01*
X168216412Y-118170773D01*
X168175532Y-118192423D01*
X168136841Y-118221439D01*
X168090892Y-118264194D01*
X168071951Y-118282979D01*
X168023036Y-118333597D01*
X167990044Y-118373734D01*
X167966611Y-118412813D01*
X167946371Y-118460257D01*
X167939338Y-118479269D01*
X167910048Y-118602719D01*
X167908066Y-118731497D01*
X167932101Y-118862260D01*
X167980867Y-118991660D01*
X168053073Y-119116353D01*
X168147433Y-119232993D01*
X168262656Y-119338232D01*
X168273333Y-119346516D01*
X168396995Y-119424711D01*
X168531072Y-119479848D01*
X168670412Y-119510945D01*
X168809863Y-119517016D01*
X168944269Y-119497080D01*
X168990326Y-119483380D01*
X169057839Y-119457094D01*
X169109811Y-119427221D01*
X169160208Y-119385454D01*
X169169188Y-119376987D01*
X169243227Y-119306343D01*
X169168776Y-119225646D01*
X169117850Y-119174995D01*
X169078879Y-119148018D01*
X169048048Y-119143014D01*
X169021540Y-119158271D01*
X169020464Y-119159330D01*
X168971446Y-119193753D01*
X168902454Y-119223385D01*
X168823353Y-119245000D01*
X168744012Y-119255368D01*
X168725541Y-119255825D01*
X168626562Y-119247730D01*
X168538173Y-119221456D01*
X168453952Y-119174019D01*
X168367479Y-119102431D01*
X168341724Y-119077390D01*
X168254142Y-118975042D01*
X168194926Y-118871989D01*
X168164447Y-118769299D01*
X168163077Y-118668039D01*
X168177290Y-118605569D01*
X168213640Y-118534647D01*
X168271205Y-118468773D01*
X168341503Y-118416339D01*
X168392645Y-118392504D01*
X168451879Y-118377193D01*
X168513869Y-118373030D01*
X168582589Y-118380960D01*
X168662016Y-118401921D01*
X168756124Y-118436856D01*
X168868888Y-118486705D01*
X168945652Y-118523430D01*
X169101215Y-118595419D01*
X169237111Y-118649163D01*
X169356792Y-118685354D01*
X169463711Y-118704677D01*
X169561321Y-118707825D01*
X169653073Y-118695484D01*
X169717406Y-118677408D01*
X169770883Y-118657815D01*
X169811473Y-118637818D01*
X169848660Y-118611211D01*
X169891929Y-118571787D01*
X169918010Y-118546123D01*
X169967687Y-118494796D01*
X170001071Y-118454065D01*
X170024426Y-118414928D01*
X170044014Y-118368380D01*
X170046651Y-118361203D01*
X170078647Y-118230851D01*
X170081983Y-118097694D01*
X170057394Y-117964305D01*
X170005614Y-117833259D01*
X169927379Y-117707129D01*
X169827057Y-117592058D01*
X169709847Y-117494405D01*
G36*
X164049791Y-117182042D02*
G01*
X164022643Y-117202437D01*
X164976433Y-118156227D01*
X164996829Y-118129080D01*
X165017223Y-118101932D01*
X164076938Y-117161647D01*
X164049791Y-117182042D01*
G37*
X164049791Y-117182042D02*
X164022643Y-117202437D01*
X164976433Y-118156227D01*
X164996829Y-118129080D01*
X165017223Y-118101932D01*
X164076938Y-117161647D01*
X164049791Y-117182042D01*
G36*
X162566142Y-115862151D02*
G01*
X163041750Y-116343257D01*
X163156928Y-116459581D01*
X163252987Y-116556130D01*
X163331647Y-116634540D01*
X163394629Y-116696451D01*
X163443652Y-116743504D01*
X163480437Y-116777335D01*
X163506706Y-116799587D01*
X163524176Y-116811897D01*
X163534569Y-116815905D01*
X163537321Y-116815472D01*
X163557363Y-116800276D01*
X163589556Y-116769622D01*
X163621658Y-116735837D01*
X163686032Y-116665091D01*
X162724617Y-115703676D01*
X162566142Y-115862151D01*
G37*
X162566142Y-115862151D02*
X163041750Y-116343257D01*
X163156928Y-116459581D01*
X163252987Y-116556130D01*
X163331647Y-116634540D01*
X163394629Y-116696451D01*
X163443652Y-116743504D01*
X163480437Y-116777335D01*
X163506706Y-116799587D01*
X163524176Y-116811897D01*
X163534569Y-116815905D01*
X163537321Y-116815472D01*
X163557363Y-116800276D01*
X163589556Y-116769622D01*
X163621658Y-116735837D01*
X163686032Y-116665091D01*
X162724617Y-115703676D01*
X162566142Y-115862151D01*
G36*
X161469597Y-114604084D02*
G01*
X161423244Y-115034680D01*
X161376891Y-115465275D01*
X161527786Y-115616170D01*
X161581898Y-115669516D01*
X161628243Y-115713751D01*
X161662933Y-115745281D01*
X161682082Y-115760506D01*
X161684502Y-115761244D01*
X161687534Y-115745455D01*
X161693190Y-115703783D01*
X161701011Y-115640071D01*
X161710543Y-115558162D01*
X161721329Y-115461896D01*
X161732912Y-115355115D01*
X161734350Y-115341622D01*
X161746049Y-115233738D01*
X161757094Y-115135825D01*
X161767012Y-115051743D01*
X161775334Y-114985351D01*
X161781590Y-114940508D01*
X161785313Y-114921071D01*
X161785565Y-114920631D01*
X161801722Y-114917235D01*
X161843745Y-114911235D01*
X161907777Y-114903104D01*
X161989960Y-114893312D01*
X162086436Y-114882330D01*
X162193350Y-114870628D01*
X162206782Y-114869190D01*
X162314511Y-114857541D01*
X162412111Y-114846730D01*
X162495761Y-114837202D01*
X162561638Y-114829399D01*
X162605922Y-114823767D01*
X162624789Y-114820748D01*
X162625170Y-114820576D01*
X162616776Y-114809085D01*
X162590743Y-114780438D01*
X162550693Y-114738474D01*
X162500254Y-114687034D01*
X162477772Y-114664456D01*
X162326012Y-114512696D01*
X161469597Y-114604084D01*
G37*
X161469597Y-114604084D02*
X161423244Y-115034680D01*
X161376891Y-115465275D01*
X161527786Y-115616170D01*
X161581898Y-115669516D01*
X161628243Y-115713751D01*
X161662933Y-115745281D01*
X161682082Y-115760506D01*
X161684502Y-115761244D01*
X161687534Y-115745455D01*
X161693190Y-115703783D01*
X161701011Y-115640071D01*
X161710543Y-115558162D01*
X161721329Y-115461896D01*
X161732912Y-115355115D01*
X161734350Y-115341622D01*
X161746049Y-115233738D01*
X161757094Y-115135825D01*
X161767012Y-115051743D01*
X161775334Y-114985351D01*
X161781590Y-114940508D01*
X161785313Y-114921071D01*
X161785565Y-114920631D01*
X161801722Y-114917235D01*
X161843745Y-114911235D01*
X161907777Y-114903104D01*
X161989960Y-114893312D01*
X162086436Y-114882330D01*
X162193350Y-114870628D01*
X162206782Y-114869190D01*
X162314511Y-114857541D01*
X162412111Y-114846730D01*
X162495761Y-114837202D01*
X162561638Y-114829399D01*
X162605922Y-114823767D01*
X162624789Y-114820748D01*
X162625170Y-114820576D01*
X162616776Y-114809085D01*
X162590743Y-114780438D01*
X162550693Y-114738474D01*
X162500254Y-114687034D01*
X162477772Y-114664456D01*
X162326012Y-114512696D01*
X161469597Y-114604084D01*
%TO.C,X3*%
G36*
X133734323Y-109370100D02*
G01*
X133692784Y-109383889D01*
X133685753Y-109387496D01*
X133669234Y-109396271D01*
X133643652Y-109409982D01*
X133609433Y-109428399D01*
X133567003Y-109451290D01*
X133516789Y-109478426D01*
X133459214Y-109509575D01*
X133394707Y-109544507D01*
X133323691Y-109582989D01*
X133246594Y-109624792D01*
X133163842Y-109669685D01*
X133075859Y-109717437D01*
X132983072Y-109767816D01*
X132885907Y-109820593D01*
X132784789Y-109875536D01*
X132680145Y-109932414D01*
X132572400Y-109990996D01*
X132461980Y-110051052D01*
X132402495Y-110083413D01*
X131136289Y-110772311D01*
X128869646Y-110772311D01*
X127607580Y-110085620D01*
X127496041Y-110024941D01*
X127386921Y-109965598D01*
X127280648Y-109907822D01*
X127177651Y-109851846D01*
X127078358Y-109797903D01*
X126983197Y-109746223D01*
X126892598Y-109697041D01*
X126806988Y-109650587D01*
X126726797Y-109607095D01*
X126652452Y-109566797D01*
X126584382Y-109529924D01*
X126523016Y-109496710D01*
X126468782Y-109467386D01*
X126422108Y-109442185D01*
X126383424Y-109421340D01*
X126353157Y-109405081D01*
X126331736Y-109393642D01*
X126319590Y-109387256D01*
X126317146Y-109386038D01*
X126268901Y-109369929D01*
X126219141Y-109363914D01*
X126169447Y-109367442D01*
X126121397Y-109379959D01*
X126076570Y-109400913D01*
X126036546Y-109429752D01*
X126002904Y-109465924D01*
X125979447Y-109504169D01*
X125977432Y-109509404D01*
X125974605Y-109518610D01*
X125970896Y-109532106D01*
X125966232Y-109550212D01*
X125960543Y-109573247D01*
X125953756Y-109601532D01*
X125945801Y-109635385D01*
X125936605Y-109675126D01*
X125926098Y-109721075D01*
X125914207Y-109773553D01*
X125900862Y-109832877D01*
X125885991Y-109899368D01*
X125869522Y-109973346D01*
X125851384Y-110055131D01*
X125831506Y-110145041D01*
X125809816Y-110243397D01*
X125786242Y-110350518D01*
X125760713Y-110466724D01*
X125733158Y-110592335D01*
X125703505Y-110727669D01*
X125671682Y-110873048D01*
X125637619Y-111028790D01*
X125601243Y-111195216D01*
X125597702Y-111211419D01*
X125231777Y-112886156D01*
X125095293Y-113171200D01*
X124958809Y-113456245D01*
X124605465Y-114415800D01*
X124252122Y-115375356D01*
X124249579Y-115426751D01*
X124251472Y-115482917D01*
X124263033Y-115533326D01*
X124284307Y-115578131D01*
X124306201Y-115607619D01*
X124313871Y-115615586D01*
X124328883Y-115630459D01*
X124350366Y-115651399D01*
X124377450Y-115677569D01*
X124409264Y-115708129D01*
X124444937Y-115742242D01*
X124483598Y-115779068D01*
X124524376Y-115817769D01*
X124530533Y-115823600D01*
X124572585Y-115863609D01*
X124611482Y-115900992D01*
X124646502Y-115935031D01*
X124676920Y-115965006D01*
X124702014Y-115990198D01*
X124721062Y-116009889D01*
X124733339Y-116023359D01*
X124738123Y-116029891D01*
X124738155Y-116030036D01*
X124737613Y-116037279D01*
X124735557Y-116054832D01*
X124732107Y-116081835D01*
X124727380Y-116117426D01*
X124721495Y-116160745D01*
X124714570Y-116210931D01*
X124706723Y-116267124D01*
X124698073Y-116328464D01*
X124688737Y-116394089D01*
X124678835Y-116463140D01*
X124674655Y-116492126D01*
X124664469Y-116563121D01*
X124654773Y-116631628D01*
X124645689Y-116696717D01*
X124637341Y-116757458D01*
X124629854Y-116812922D01*
X124623351Y-116862180D01*
X124617955Y-116904303D01*
X124613790Y-116938360D01*
X124610980Y-116963423D01*
X124609649Y-116978562D01*
X124609555Y-116981279D01*
X124614997Y-117032959D01*
X124630715Y-117081700D01*
X124655803Y-117126038D01*
X124689351Y-117164509D01*
X124730452Y-117195649D01*
X124748782Y-117205713D01*
X124758959Y-117210289D01*
X124778771Y-117218755D01*
X124807387Y-117230769D01*
X124843977Y-117245988D01*
X124887710Y-117264071D01*
X124937756Y-117284674D01*
X124993283Y-117307457D01*
X125053462Y-117332076D01*
X125117461Y-117358190D01*
X125184450Y-117385456D01*
X125231986Y-117404765D01*
X125682261Y-117587507D01*
X127145004Y-118940724D01*
X127282839Y-119068222D01*
X127412608Y-119188225D01*
X127534516Y-119300919D01*
X127648769Y-119406494D01*
X127755571Y-119505136D01*
X127855127Y-119597034D01*
X127947642Y-119682376D01*
X128033321Y-119761348D01*
X128112368Y-119834140D01*
X128184990Y-119900938D01*
X128251391Y-119961932D01*
X128311775Y-120017307D01*
X128366348Y-120067253D01*
X128415314Y-120111958D01*
X128458879Y-120151608D01*
X128497248Y-120186391D01*
X128530625Y-120216497D01*
X128559216Y-120242111D01*
X128583225Y-120263423D01*
X128602858Y-120280620D01*
X128618318Y-120293889D01*
X128629812Y-120303420D01*
X128637544Y-120309398D01*
X128641071Y-120311704D01*
X128647179Y-120314651D01*
X128655032Y-120317787D01*
X128665242Y-120321249D01*
X128678421Y-120325177D01*
X128695180Y-120329708D01*
X128716132Y-120334981D01*
X128741887Y-120341134D01*
X128773057Y-120348305D01*
X128810255Y-120356632D01*
X128854091Y-120366255D01*
X128905178Y-120377310D01*
X128964127Y-120389936D01*
X129031550Y-120404272D01*
X129108058Y-120420455D01*
X129194264Y-120438625D01*
X129290778Y-120458919D01*
X129313209Y-120463631D01*
X129396924Y-120481181D01*
X129477967Y-120498108D01*
X129555607Y-120514263D01*
X129629110Y-120529497D01*
X129697744Y-120543658D01*
X129760775Y-120556598D01*
X129817472Y-120568167D01*
X129867102Y-120578215D01*
X129908932Y-120586591D01*
X129942228Y-120593147D01*
X129966260Y-120597733D01*
X129980293Y-120600198D01*
X129983067Y-120600569D01*
X130004617Y-120601727D01*
X130024774Y-120601575D01*
X130032899Y-120600924D01*
X130040791Y-120599465D01*
X130059014Y-120595826D01*
X130086855Y-120590155D01*
X130123599Y-120582601D01*
X130168533Y-120573313D01*
X130220942Y-120562439D01*
X130280113Y-120550127D01*
X130345329Y-120536527D01*
X130415879Y-120521786D01*
X130491047Y-120506053D01*
X130570119Y-120489477D01*
X130652381Y-120472206D01*
X130691456Y-120463993D01*
X130790253Y-120443205D01*
X130878611Y-120424575D01*
X130957144Y-120407963D01*
X131026464Y-120393230D01*
X131087184Y-120380239D01*
X131139919Y-120368849D01*
X131185283Y-120358923D01*
X131223887Y-120350320D01*
X131256346Y-120342903D01*
X131283274Y-120336532D01*
X131305283Y-120331068D01*
X131322987Y-120326372D01*
X131337000Y-120322306D01*
X131347935Y-120318731D01*
X131356406Y-120315507D01*
X131363026Y-120312496D01*
X131365012Y-120311470D01*
X131369902Y-120308188D01*
X131378185Y-120301695D01*
X131390071Y-120291796D01*
X131405771Y-120278298D01*
X131425497Y-120261008D01*
X131449459Y-120239732D01*
X131477870Y-120214277D01*
X131510939Y-120184449D01*
X131548879Y-120150055D01*
X131591900Y-120110902D01*
X131640213Y-120066795D01*
X131694029Y-120017542D01*
X131753561Y-119962949D01*
X131819018Y-119902822D01*
X131890612Y-119836968D01*
X131968555Y-119765194D01*
X132053056Y-119687307D01*
X132144328Y-119603111D01*
X132242581Y-119512415D01*
X132348028Y-119415025D01*
X132460877Y-119310747D01*
X132581342Y-119199388D01*
X132709633Y-119080754D01*
X132845962Y-118954652D01*
X132861315Y-118940448D01*
X134323830Y-117587436D01*
X134773882Y-117404756D01*
X134842432Y-117376896D01*
X134908566Y-117349952D01*
X134971453Y-117324267D01*
X135030261Y-117300181D01*
X135084161Y-117278039D01*
X135132320Y-117258182D01*
X135173908Y-117240953D01*
X135208095Y-117226694D01*
X135234049Y-117215747D01*
X135250940Y-117208455D01*
X135256862Y-117205739D01*
X135300049Y-117178315D01*
X135336508Y-117142972D01*
X135365210Y-117101341D01*
X135385127Y-117055050D01*
X135395231Y-117005726D01*
X135396298Y-116984931D01*
X135395542Y-116974024D01*
X135393285Y-116952852D01*
X135389648Y-116922319D01*
X135384751Y-116883332D01*
X135378712Y-116836797D01*
X135371653Y-116783619D01*
X135363691Y-116724704D01*
X135354948Y-116660959D01*
X135345542Y-116593289D01*
X135335594Y-116522600D01*
X135330582Y-116487311D01*
X135264656Y-116024467D01*
X135314850Y-115975996D01*
X135330554Y-115960926D01*
X135353192Y-115939336D01*
X135381478Y-115912443D01*
X135414127Y-115881469D01*
X135449855Y-115847630D01*
X135487377Y-115812147D01*
X135525408Y-115776238D01*
X135525911Y-115775764D01*
X135562206Y-115741409D01*
X135596477Y-115708752D01*
X135627716Y-115678767D01*
X135654920Y-115652430D01*
X135677083Y-115630714D01*
X135693199Y-115614594D01*
X135702262Y-115605043D01*
X135703063Y-115604101D01*
X135714069Y-115588387D01*
X135726593Y-115567178D01*
X135736722Y-115547511D01*
X135745766Y-115526524D01*
X135751416Y-115507346D01*
X135754657Y-115485528D01*
X135756387Y-115458622D01*
X135756719Y-115431397D01*
X135755554Y-115405406D01*
X135753125Y-115385011D01*
X135752200Y-115380690D01*
X135749591Y-115372748D01*
X135744815Y-115359137D01*
X135190702Y-115359137D01*
X135189885Y-115363329D01*
X135185474Y-115370338D01*
X135176871Y-115380771D01*
X135163478Y-115395238D01*
X135144699Y-115414350D01*
X135119935Y-115438713D01*
X135088589Y-115468939D01*
X135050065Y-115505636D01*
X135008466Y-115544978D01*
X134959341Y-115591328D01*
X134917720Y-115630650D01*
X134882906Y-115663674D01*
X134854202Y-115691129D01*
X134830911Y-115713746D01*
X134812337Y-115732253D01*
X134797782Y-115747382D01*
X134786549Y-115759861D01*
X134777943Y-115770421D01*
X134771265Y-115779792D01*
X134765820Y-115788702D01*
X134760909Y-115797883D01*
X134755837Y-115808064D01*
X134754308Y-115811164D01*
X134748050Y-115824080D01*
X134742688Y-115836285D01*
X134738270Y-115848570D01*
X134734845Y-115861727D01*
X134732462Y-115876546D01*
X134731169Y-115893819D01*
X134731016Y-115914337D01*
X134732050Y-115938892D01*
X134734322Y-115968274D01*
X134737879Y-116003275D01*
X134742770Y-116044685D01*
X134749044Y-116093297D01*
X134756750Y-116149902D01*
X134765936Y-116215290D01*
X134776651Y-116290253D01*
X134788944Y-116375582D01*
X134789170Y-116377144D01*
X134798837Y-116444426D01*
X134807977Y-116508595D01*
X134816468Y-116568754D01*
X134824185Y-116624006D01*
X134831007Y-116673454D01*
X134836810Y-116716202D01*
X134841473Y-116751353D01*
X134844871Y-116778010D01*
X134846882Y-116795276D01*
X134847387Y-116802231D01*
X134844799Y-116805176D01*
X134837344Y-116809855D01*
X134824465Y-116816508D01*
X134805605Y-116825377D01*
X134780208Y-116836700D01*
X134747715Y-116850718D01*
X134707570Y-116867670D01*
X134659215Y-116887798D01*
X134602093Y-116911341D01*
X134535647Y-116938538D01*
X134459320Y-116969631D01*
X134451042Y-116972997D01*
X134387134Y-116999045D01*
X134325875Y-117024153D01*
X134268129Y-117047956D01*
X134214763Y-117070090D01*
X134166644Y-117090194D01*
X134124638Y-117107902D01*
X134089611Y-117122851D01*
X134062429Y-117134678D01*
X134043960Y-117143020D01*
X134035068Y-117147512D01*
X134034964Y-117147580D01*
X134029241Y-117152447D01*
X134015538Y-117164704D01*
X133994158Y-117184070D01*
X133965405Y-117210267D01*
X133929582Y-117243015D01*
X133886992Y-117282034D01*
X133837939Y-117327044D01*
X133782727Y-117377767D01*
X133721659Y-117433922D01*
X133655039Y-117495230D01*
X133583170Y-117561411D01*
X133506356Y-117632186D01*
X133424900Y-117707276D01*
X133339106Y-117786400D01*
X133249278Y-117869280D01*
X133155718Y-117955635D01*
X133058730Y-118045186D01*
X132958619Y-118137653D01*
X132855687Y-118232758D01*
X132750238Y-118330220D01*
X132642575Y-118429760D01*
X132575477Y-118491811D01*
X132466688Y-118592428D01*
X132359976Y-118691121D01*
X132255642Y-118787614D01*
X132153988Y-118881628D01*
X132055313Y-118972884D01*
X131959920Y-119061104D01*
X131868110Y-119146009D01*
X131780183Y-119227321D01*
X131696441Y-119304762D01*
X131617185Y-119378053D01*
X131542716Y-119446915D01*
X131473335Y-119511071D01*
X131409343Y-119570242D01*
X131351041Y-119624149D01*
X131298731Y-119672513D01*
X131252713Y-119715058D01*
X131213289Y-119751503D01*
X131180760Y-119781571D01*
X131155426Y-119804983D01*
X131137590Y-119821461D01*
X131127551Y-119830727D01*
X131125370Y-119832731D01*
X131120305Y-119835439D01*
X131109772Y-119839094D01*
X131093202Y-119843828D01*
X131070025Y-119849772D01*
X131039671Y-119857058D01*
X131001571Y-119865817D01*
X130955154Y-119876180D01*
X130899852Y-119888280D01*
X130835093Y-119902246D01*
X130760309Y-119918211D01*
X130690748Y-119932962D01*
X130623467Y-119947198D01*
X130559455Y-119960750D01*
X130499559Y-119973437D01*
X130444630Y-119985080D01*
X130395515Y-119995499D01*
X130353065Y-120004512D01*
X130318127Y-120011941D01*
X130291551Y-120017604D01*
X130274185Y-120021322D01*
X130266879Y-120022915D01*
X130266700Y-120022960D01*
X130266337Y-120017710D01*
X130266009Y-120002581D01*
X130265728Y-119978985D01*
X130265506Y-119948334D01*
X130265356Y-119912038D01*
X130265291Y-119871507D01*
X130265289Y-119863248D01*
X130265289Y-119702940D01*
X130597616Y-119442770D01*
X130651625Y-119400382D01*
X130703309Y-119359615D01*
X130751936Y-119321059D01*
X130796771Y-119285306D01*
X130837082Y-119252945D01*
X130872135Y-119224569D01*
X130901197Y-119200768D01*
X130923534Y-119182133D01*
X130938413Y-119169255D01*
X130945060Y-119162780D01*
X130955271Y-119147327D01*
X130967271Y-119126189D01*
X130978003Y-119104891D01*
X130991786Y-119064364D01*
X130998696Y-119018478D01*
X130998469Y-118971029D01*
X130990837Y-118925814D01*
X130990625Y-118925025D01*
X130972506Y-118878527D01*
X130945141Y-118835901D01*
X130910269Y-118799296D01*
X130869626Y-118770861D01*
X130863131Y-118767429D01*
X130854807Y-118763190D01*
X130847013Y-118759362D01*
X130839160Y-118755922D01*
X130830662Y-118752852D01*
X130820933Y-118750129D01*
X130809386Y-118747733D01*
X130795434Y-118745643D01*
X130778490Y-118743838D01*
X130757968Y-118742298D01*
X130733280Y-118741000D01*
X130703840Y-118739925D01*
X130669061Y-118739052D01*
X130628356Y-118738359D01*
X130581139Y-118737827D01*
X130526822Y-118737433D01*
X130464819Y-118737157D01*
X130394544Y-118736978D01*
X130315408Y-118736876D01*
X130226827Y-118736829D01*
X130128212Y-118736817D01*
X130018977Y-118736818D01*
X130002822Y-118736818D01*
X129891819Y-118736817D01*
X129791522Y-118736826D01*
X129701345Y-118736867D01*
X129620706Y-118736962D01*
X129549021Y-118737132D01*
X129485705Y-118737399D01*
X129430175Y-118737783D01*
X129381847Y-118738306D01*
X129340138Y-118738990D01*
X129304463Y-118739856D01*
X129274239Y-118740925D01*
X129248882Y-118742219D01*
X129227808Y-118743758D01*
X129210433Y-118745566D01*
X129196173Y-118747662D01*
X129184446Y-118750068D01*
X129174665Y-118752806D01*
X129166249Y-118755897D01*
X129158613Y-118759362D01*
X129151173Y-118763223D01*
X129143346Y-118767501D01*
X129141785Y-118768353D01*
X129095955Y-118799032D01*
X129059486Y-118835966D01*
X129032519Y-118878894D01*
X129015195Y-118927558D01*
X129007653Y-118981698D01*
X129007801Y-119015197D01*
X129014627Y-119065854D01*
X129030140Y-119111120D01*
X129055413Y-119153944D01*
X129061380Y-119162011D01*
X129068461Y-119168982D01*
X129083716Y-119182287D01*
X129106408Y-119201330D01*
X129135799Y-119225515D01*
X129171153Y-119254245D01*
X129211732Y-119286925D01*
X129256799Y-119322957D01*
X129305616Y-119361746D01*
X129357447Y-119402696D01*
X129410593Y-119444457D01*
X129743178Y-119705092D01*
X129744681Y-119859716D01*
X129744924Y-119900405D01*
X129744851Y-119937355D01*
X129744489Y-119969074D01*
X129743865Y-119994074D01*
X129743005Y-120010864D01*
X129741936Y-120017954D01*
X129741859Y-120018044D01*
X129735778Y-120017498D01*
X129719514Y-120014767D01*
X129693922Y-120010025D01*
X129659860Y-120003441D01*
X129618185Y-119995188D01*
X129569752Y-119985437D01*
X129515420Y-119974359D01*
X129456043Y-119962126D01*
X129392481Y-119948909D01*
X129325588Y-119934879D01*
X129315388Y-119932730D01*
X129236842Y-119916152D01*
X129168586Y-119901701D01*
X129109860Y-119889194D01*
X129059904Y-119878451D01*
X129017956Y-119869289D01*
X128983257Y-119861526D01*
X128955046Y-119854982D01*
X128932563Y-119849474D01*
X128915048Y-119844820D01*
X128901739Y-119840840D01*
X128891878Y-119837350D01*
X128884703Y-119834170D01*
X128879455Y-119831117D01*
X128875372Y-119828011D01*
X128874680Y-119827413D01*
X128869165Y-119822377D01*
X128855670Y-119809954D01*
X128834497Y-119790427D01*
X128805951Y-119764075D01*
X128770336Y-119731180D01*
X128727955Y-119692023D01*
X128679114Y-119646885D01*
X128624116Y-119596048D01*
X128563264Y-119539792D01*
X128496864Y-119478398D01*
X128425219Y-119412149D01*
X128348632Y-119341324D01*
X128267409Y-119266206D01*
X128181853Y-119187075D01*
X128092269Y-119104212D01*
X127998959Y-119017899D01*
X127902229Y-118928416D01*
X127802382Y-118836045D01*
X127699723Y-118741067D01*
X127594555Y-118643763D01*
X127487182Y-118544415D01*
X127429133Y-118490702D01*
X127320645Y-118390333D01*
X127214160Y-118291849D01*
X127109983Y-118195531D01*
X127008420Y-118101663D01*
X126909777Y-118010525D01*
X126814361Y-117922400D01*
X126722477Y-117837569D01*
X126634430Y-117756315D01*
X126550528Y-117678919D01*
X126471076Y-117605664D01*
X126396380Y-117536830D01*
X126326746Y-117472700D01*
X126262479Y-117413557D01*
X126203887Y-117359681D01*
X126151274Y-117311355D01*
X126104947Y-117268861D01*
X126065212Y-117232480D01*
X126032375Y-117202494D01*
X126006742Y-117179187D01*
X125988618Y-117162838D01*
X125978310Y-117153730D01*
X125976130Y-117151943D01*
X125966018Y-117146401D01*
X125946051Y-117136965D01*
X125916868Y-117123909D01*
X125879107Y-117107503D01*
X125833406Y-117088018D01*
X125780403Y-117065727D01*
X125720738Y-117040899D01*
X125655047Y-117013807D01*
X125583970Y-116984722D01*
X125556120Y-116973382D01*
X125492838Y-116947621D01*
X125432607Y-116923047D01*
X125376242Y-116899998D01*
X125324562Y-116878809D01*
X125278382Y-116859818D01*
X125238519Y-116843360D01*
X125205791Y-116829773D01*
X125181014Y-116819394D01*
X125165005Y-116812557D01*
X125158581Y-116809602D01*
X125158509Y-116809547D01*
X125158715Y-116803516D01*
X125160435Y-116787182D01*
X125163554Y-116761413D01*
X125167953Y-116727077D01*
X125173518Y-116685041D01*
X125180132Y-116636173D01*
X125187679Y-116581341D01*
X125196041Y-116521412D01*
X125205103Y-116457255D01*
X125214749Y-116389736D01*
X125215915Y-116381621D01*
X125225750Y-116312711D01*
X125235084Y-116246274D01*
X125243792Y-116183276D01*
X125251747Y-116124678D01*
X125258822Y-116071443D01*
X125264892Y-116024536D01*
X125269829Y-115984920D01*
X125273508Y-115953557D01*
X125275801Y-115931411D01*
X125276584Y-115919445D01*
X125276583Y-115919276D01*
X125273947Y-115880580D01*
X125265972Y-115845764D01*
X125251359Y-115809646D01*
X125246780Y-115800326D01*
X125242520Y-115792042D01*
X125238172Y-115784323D01*
X125233056Y-115776476D01*
X125226495Y-115767808D01*
X125217809Y-115757624D01*
X125206319Y-115745232D01*
X125191348Y-115729936D01*
X125172217Y-115711044D01*
X125148246Y-115687862D01*
X125118758Y-115659696D01*
X125083073Y-115625852D01*
X125040513Y-115585637D01*
X124991705Y-115539589D01*
X124954217Y-115504140D01*
X124919394Y-115471038D01*
X124888072Y-115441091D01*
X124861087Y-115415105D01*
X124839275Y-115393889D01*
X124823472Y-115378249D01*
X124814513Y-115368992D01*
X124812755Y-115366770D01*
X124814672Y-115360776D01*
X124820242Y-115344932D01*
X124829199Y-115319969D01*
X124841272Y-115286611D01*
X124856195Y-115245588D01*
X124873698Y-115197625D01*
X124893514Y-115143451D01*
X124915374Y-115083793D01*
X124939011Y-115019377D01*
X124964154Y-114950932D01*
X124990537Y-114879185D01*
X125017891Y-114804862D01*
X125045948Y-114728692D01*
X125074438Y-114651401D01*
X125103095Y-114573717D01*
X125131650Y-114496367D01*
X125159834Y-114420078D01*
X125187380Y-114345578D01*
X125214018Y-114273594D01*
X125239480Y-114204853D01*
X125263499Y-114140083D01*
X125285806Y-114080010D01*
X125306133Y-114025363D01*
X125324210Y-113976869D01*
X125339771Y-113935254D01*
X125352546Y-113901246D01*
X125362268Y-113875573D01*
X125368668Y-113858961D01*
X125371478Y-113852138D01*
X125371558Y-113852015D01*
X125377364Y-113852427D01*
X125393769Y-113854244D01*
X125420181Y-113857388D01*
X125456007Y-113861781D01*
X125500655Y-113867346D01*
X125553532Y-113874006D01*
X125614045Y-113881683D01*
X125681604Y-113890300D01*
X125755614Y-113899780D01*
X125835485Y-113910044D01*
X125920623Y-113921016D01*
X126010435Y-113932618D01*
X126104331Y-113944773D01*
X126201717Y-113957403D01*
X126302001Y-113970431D01*
X126404590Y-113983779D01*
X126508893Y-113997370D01*
X126614316Y-114011126D01*
X126720268Y-114024971D01*
X126826155Y-114038827D01*
X126931387Y-114052615D01*
X127035370Y-114066260D01*
X127137511Y-114079683D01*
X127237219Y-114092806D01*
X127333902Y-114105554D01*
X127426966Y-114117847D01*
X127515819Y-114129609D01*
X127599870Y-114140763D01*
X127678525Y-114151230D01*
X127751192Y-114160933D01*
X127817279Y-114169796D01*
X127876194Y-114177740D01*
X127927344Y-114184688D01*
X127970137Y-114190562D01*
X128003980Y-114195286D01*
X128028281Y-114198782D01*
X128042447Y-114200972D01*
X128045327Y-114201504D01*
X128050440Y-114206011D01*
X128062842Y-114218785D01*
X128082355Y-114239629D01*
X128108801Y-114268345D01*
X128142002Y-114304733D01*
X128181780Y-114348597D01*
X128227957Y-114399737D01*
X128280354Y-114457955D01*
X128338794Y-114523054D01*
X128403099Y-114594834D01*
X128473089Y-114673098D01*
X128548588Y-114757647D01*
X128629416Y-114848283D01*
X128715397Y-114944808D01*
X128806351Y-115047024D01*
X128902101Y-115154731D01*
X128936419Y-115193359D01*
X129017948Y-115285093D01*
X129097633Y-115374666D01*
X129175137Y-115461701D01*
X129250122Y-115545821D01*
X129322248Y-115626648D01*
X129391178Y-115703806D01*
X129456574Y-115776919D01*
X129518097Y-115845609D01*
X129575408Y-115909499D01*
X129628171Y-115968212D01*
X129676046Y-116021372D01*
X129718694Y-116068602D01*
X129755779Y-116109525D01*
X129786961Y-116143763D01*
X129811903Y-116170940D01*
X129830265Y-116190680D01*
X129841711Y-116202605D01*
X129845379Y-116206065D01*
X129876161Y-116227409D01*
X129906185Y-116241967D01*
X129938696Y-116250752D01*
X129976934Y-116254780D01*
X130002822Y-116255336D01*
X130045391Y-116253647D01*
X130080425Y-116247886D01*
X130111261Y-116237010D01*
X130141239Y-116219979D01*
X130160496Y-116206149D01*
X130167539Y-116199407D01*
X130181818Y-116184467D01*
X130203096Y-116161593D01*
X130231137Y-116131047D01*
X130265702Y-116093094D01*
X130306557Y-116047998D01*
X130353464Y-115996021D01*
X130406186Y-115937427D01*
X130464487Y-115872480D01*
X130528129Y-115801444D01*
X130596877Y-115724582D01*
X130670494Y-115642158D01*
X130748742Y-115554435D01*
X130831386Y-115461677D01*
X130918188Y-115364148D01*
X131008911Y-115262111D01*
X131070082Y-115193258D01*
X131161664Y-115090190D01*
X131249538Y-114991389D01*
X131333466Y-114897118D01*
X131413209Y-114807644D01*
X131488530Y-114723230D01*
X131559191Y-114644143D01*
X131624953Y-114570646D01*
X131685580Y-114503006D01*
X131740832Y-114441487D01*
X131790472Y-114386354D01*
X131834262Y-114337871D01*
X131871964Y-114296305D01*
X131903341Y-114261920D01*
X131928153Y-114234981D01*
X131946163Y-114215753D01*
X131957134Y-114204501D01*
X131960718Y-114201410D01*
X131968458Y-114200202D01*
X131986682Y-114197623D01*
X132014798Y-114193750D01*
X132052217Y-114188661D01*
X132098344Y-114182436D01*
X132152591Y-114175151D01*
X132214363Y-114166884D01*
X132283071Y-114157714D01*
X132358123Y-114147718D01*
X132438927Y-114136975D01*
X132524891Y-114125561D01*
X132615424Y-114113556D01*
X132709935Y-114101037D01*
X132807832Y-114088083D01*
X132908523Y-114074770D01*
X133011417Y-114061177D01*
X133115922Y-114047383D01*
X133221448Y-114033464D01*
X133327401Y-114019499D01*
X133433191Y-114005566D01*
X133538227Y-113991742D01*
X133641916Y-113978106D01*
X133743667Y-113964736D01*
X133842889Y-113951710D01*
X133938990Y-113939105D01*
X134031379Y-113926999D01*
X134119463Y-113915471D01*
X134202652Y-113904598D01*
X134280354Y-113894459D01*
X134351977Y-113885131D01*
X134416930Y-113876692D01*
X134474622Y-113869220D01*
X134524460Y-113862794D01*
X134565854Y-113857490D01*
X134598211Y-113853388D01*
X134620940Y-113850564D01*
X134633450Y-113849097D01*
X134635821Y-113848907D01*
X134637998Y-113854442D01*
X134643792Y-113869848D01*
X134652936Y-113894399D01*
X134665162Y-113927367D01*
X134680203Y-113968024D01*
X134697792Y-114015644D01*
X134717661Y-114069498D01*
X134739543Y-114128859D01*
X134763171Y-114192999D01*
X134788277Y-114261191D01*
X134814595Y-114332707D01*
X134841856Y-114406820D01*
X134869794Y-114482803D01*
X134898141Y-114559927D01*
X134926630Y-114637465D01*
X134954993Y-114714690D01*
X134982964Y-114790874D01*
X135010275Y-114865290D01*
X135036658Y-114937210D01*
X135061847Y-115005906D01*
X135085574Y-115070651D01*
X135107572Y-115130718D01*
X135127574Y-115185378D01*
X135145311Y-115233906D01*
X135160517Y-115275571D01*
X135172925Y-115309649D01*
X135182267Y-115335410D01*
X135188276Y-115352127D01*
X135190685Y-115359073D01*
X135190702Y-115359137D01*
X135744815Y-115359137D01*
X135743279Y-115354763D01*
X135733462Y-115327283D01*
X135720342Y-115290858D01*
X135704119Y-115246036D01*
X135684992Y-115193367D01*
X135663162Y-115133398D01*
X135638829Y-115066680D01*
X135612194Y-114993761D01*
X135583457Y-114915190D01*
X135552818Y-114831515D01*
X135520478Y-114743286D01*
X135486636Y-114651051D01*
X135451493Y-114555360D01*
X135415249Y-114456762D01*
X135396431Y-114405602D01*
X135047141Y-113456245D01*
X134910654Y-113171200D01*
X134774168Y-112886156D01*
X134704119Y-112565521D01*
X134169482Y-112565521D01*
X134167391Y-112567121D01*
X134161608Y-112565264D01*
X134145797Y-112559866D01*
X134120578Y-112551143D01*
X134086570Y-112539314D01*
X134044391Y-112524594D01*
X133994659Y-112507201D01*
X133937993Y-112487351D01*
X133875011Y-112465260D01*
X133806332Y-112441146D01*
X133732575Y-112415225D01*
X133654358Y-112387715D01*
X133572300Y-112358831D01*
X133487019Y-112328791D01*
X133444138Y-112313678D01*
X133357519Y-112283131D01*
X133273840Y-112253592D01*
X133193719Y-112225282D01*
X133117773Y-112198420D01*
X133046618Y-112173224D01*
X132980872Y-112149914D01*
X132921153Y-112128710D01*
X132868076Y-112109829D01*
X132822259Y-112093493D01*
X132784319Y-112079918D01*
X132754873Y-112069326D01*
X132734539Y-112061934D01*
X132723932Y-112057963D01*
X132722472Y-112057331D01*
X132722486Y-112057299D01*
X127283205Y-112057299D01*
X127277557Y-112059573D01*
X127262009Y-112065324D01*
X127237311Y-112074286D01*
X127204214Y-112086194D01*
X127163470Y-112100783D01*
X127115828Y-112117788D01*
X127062038Y-112136944D01*
X127002853Y-112157986D01*
X126939022Y-112180647D01*
X126871297Y-112204664D01*
X126800427Y-112229772D01*
X126727163Y-112255704D01*
X126652256Y-112282196D01*
X126576458Y-112308983D01*
X126500517Y-112335799D01*
X126425186Y-112362380D01*
X126351214Y-112388460D01*
X126279353Y-112413774D01*
X126210353Y-112438057D01*
X126144964Y-112461044D01*
X126083938Y-112482470D01*
X126028024Y-112502069D01*
X125977975Y-112519577D01*
X125934539Y-112534728D01*
X125898469Y-112547257D01*
X125870514Y-112556900D01*
X125851425Y-112563390D01*
X125841954Y-112566462D01*
X125841075Y-112566681D01*
X125836004Y-112563053D01*
X125836509Y-112557367D01*
X125837981Y-112550941D01*
X125841739Y-112534017D01*
X125847668Y-112507126D01*
X125855650Y-112470800D01*
X125865569Y-112425571D01*
X125877310Y-112371970D01*
X125890756Y-112310529D01*
X125905790Y-112241780D01*
X125922297Y-112166255D01*
X125940161Y-112084485D01*
X125959264Y-111997002D01*
X125979491Y-111904338D01*
X126000726Y-111807024D01*
X126022852Y-111705593D01*
X126045754Y-111600576D01*
X126069314Y-111492505D01*
X126076810Y-111458111D01*
X126100559Y-111349195D01*
X126123699Y-111243169D01*
X126146112Y-111140565D01*
X126167682Y-111041916D01*
X126188291Y-110947752D01*
X126207824Y-110858605D01*
X126226162Y-110775006D01*
X126243190Y-110697488D01*
X126258789Y-110626581D01*
X126272845Y-110562818D01*
X126285238Y-110506730D01*
X126295853Y-110458849D01*
X126304573Y-110419705D01*
X126311281Y-110389831D01*
X126315860Y-110369759D01*
X126318193Y-110360019D01*
X126318443Y-110359178D01*
X126320765Y-110360966D01*
X126326629Y-110369207D01*
X126336171Y-110384140D01*
X126349531Y-110406004D01*
X126366846Y-110435036D01*
X126388254Y-110471477D01*
X126413891Y-110515566D01*
X126443898Y-110567540D01*
X126478410Y-110627639D01*
X126517566Y-110696102D01*
X126561504Y-110773167D01*
X126610361Y-110859074D01*
X126664276Y-110954061D01*
X126723385Y-111058368D01*
X126787828Y-111172232D01*
X126804563Y-111201822D01*
X126855851Y-111292569D01*
X126905586Y-111380668D01*
X126953486Y-111465617D01*
X126999272Y-111546915D01*
X127042662Y-111624060D01*
X127083375Y-111696550D01*
X127121132Y-111763885D01*
X127155651Y-111825562D01*
X127186652Y-111881080D01*
X127213854Y-111929936D01*
X127236977Y-111971631D01*
X127255740Y-112005661D01*
X127269862Y-112031526D01*
X127279063Y-112048724D01*
X127283062Y-112056753D01*
X127283205Y-112057299D01*
X132722486Y-112057299D01*
X132724881Y-112052177D01*
X132732575Y-112037703D01*
X132745271Y-112014410D01*
X132762691Y-111982799D01*
X132784553Y-111943372D01*
X132810576Y-111896631D01*
X132840479Y-111843077D01*
X132873983Y-111783211D01*
X132910805Y-111717535D01*
X132950666Y-111646551D01*
X132993284Y-111570759D01*
X133038379Y-111490662D01*
X133085671Y-111406761D01*
X133134878Y-111319557D01*
X133185719Y-111229553D01*
X133201222Y-111202126D01*
X133252518Y-111111446D01*
X133302334Y-111023490D01*
X133350385Y-110938754D01*
X133396388Y-110857735D01*
X133440057Y-110780931D01*
X133481110Y-110708838D01*
X133519261Y-110641953D01*
X133554226Y-110580774D01*
X133585722Y-110525798D01*
X133613465Y-110477521D01*
X133637169Y-110436441D01*
X133656551Y-110403054D01*
X133671328Y-110377858D01*
X133681213Y-110361350D01*
X133685924Y-110354026D01*
X133686287Y-110353696D01*
X133687798Y-110359502D01*
X133691589Y-110375813D01*
X133697545Y-110402103D01*
X133705551Y-110437844D01*
X133715490Y-110482511D01*
X133727246Y-110535578D01*
X133740704Y-110596516D01*
X133755747Y-110664801D01*
X133772261Y-110739906D01*
X133790129Y-110821303D01*
X133809235Y-110908467D01*
X133829464Y-111000872D01*
X133850699Y-111097989D01*
X133872825Y-111199294D01*
X133895726Y-111304259D01*
X133919286Y-111412359D01*
X133928022Y-111452467D01*
X133951805Y-111561672D01*
X133974965Y-111667990D01*
X133997387Y-111770891D01*
X134018955Y-111869844D01*
X134039552Y-111964319D01*
X134059064Y-112053786D01*
X134077374Y-112137715D01*
X134094367Y-112215574D01*
X134109926Y-112286834D01*
X134123937Y-112350964D01*
X134136282Y-112407435D01*
X134146848Y-112455714D01*
X134155516Y-112495273D01*
X134162173Y-112525581D01*
X134166702Y-112546107D01*
X134168987Y-112556321D01*
X134169237Y-112557367D01*
X134169482Y-112565521D01*
X134704119Y-112565521D01*
X134408053Y-111210340D01*
X134371213Y-111041763D01*
X134336693Y-110883912D01*
X134304424Y-110736479D01*
X134274337Y-110599156D01*
X134246364Y-110471637D01*
X134220436Y-110353612D01*
X134196485Y-110244775D01*
X134174440Y-110144818D01*
X134154235Y-110053434D01*
X134135799Y-109970314D01*
X134119065Y-109895151D01*
X134103963Y-109827638D01*
X134090426Y-109767467D01*
X134078383Y-109714330D01*
X134067766Y-109667921D01*
X134058507Y-109627930D01*
X134050537Y-109594050D01*
X134043787Y-109565975D01*
X134038189Y-109543396D01*
X134033673Y-109526005D01*
X134030171Y-109513496D01*
X134027614Y-109505560D01*
X134026519Y-109502896D01*
X134000400Y-109461674D01*
X133966284Y-109426875D01*
X133925845Y-109399095D01*
X133880757Y-109378930D01*
X133832691Y-109366979D01*
X133783322Y-109363836D01*
X133734323Y-109370100D01*
G37*
X133734323Y-109370100D02*
X133692784Y-109383889D01*
X133685753Y-109387496D01*
X133669234Y-109396271D01*
X133643652Y-109409982D01*
X133609433Y-109428399D01*
X133567003Y-109451290D01*
X133516789Y-109478426D01*
X133459214Y-109509575D01*
X133394707Y-109544507D01*
X133323691Y-109582989D01*
X133246594Y-109624792D01*
X133163842Y-109669685D01*
X133075859Y-109717437D01*
X132983072Y-109767816D01*
X132885907Y-109820593D01*
X132784789Y-109875536D01*
X132680145Y-109932414D01*
X132572400Y-109990996D01*
X132461980Y-110051052D01*
X132402495Y-110083413D01*
X131136289Y-110772311D01*
X128869646Y-110772311D01*
X127607580Y-110085620D01*
X127496041Y-110024941D01*
X127386921Y-109965598D01*
X127280648Y-109907822D01*
X127177651Y-109851846D01*
X127078358Y-109797903D01*
X126983197Y-109746223D01*
X126892598Y-109697041D01*
X126806988Y-109650587D01*
X126726797Y-109607095D01*
X126652452Y-109566797D01*
X126584382Y-109529924D01*
X126523016Y-109496710D01*
X126468782Y-109467386D01*
X126422108Y-109442185D01*
X126383424Y-109421340D01*
X126353157Y-109405081D01*
X126331736Y-109393642D01*
X126319590Y-109387256D01*
X126317146Y-109386038D01*
X126268901Y-109369929D01*
X126219141Y-109363914D01*
X126169447Y-109367442D01*
X126121397Y-109379959D01*
X126076570Y-109400913D01*
X126036546Y-109429752D01*
X126002904Y-109465924D01*
X125979447Y-109504169D01*
X125977432Y-109509404D01*
X125974605Y-109518610D01*
X125970896Y-109532106D01*
X125966232Y-109550212D01*
X125960543Y-109573247D01*
X125953756Y-109601532D01*
X125945801Y-109635385D01*
X125936605Y-109675126D01*
X125926098Y-109721075D01*
X125914207Y-109773553D01*
X125900862Y-109832877D01*
X125885991Y-109899368D01*
X125869522Y-109973346D01*
X125851384Y-110055131D01*
X125831506Y-110145041D01*
X125809816Y-110243397D01*
X125786242Y-110350518D01*
X125760713Y-110466724D01*
X125733158Y-110592335D01*
X125703505Y-110727669D01*
X125671682Y-110873048D01*
X125637619Y-111028790D01*
X125601243Y-111195216D01*
X125597702Y-111211419D01*
X125231777Y-112886156D01*
X125095293Y-113171200D01*
X124958809Y-113456245D01*
X124605465Y-114415800D01*
X124252122Y-115375356D01*
X124249579Y-115426751D01*
X124251472Y-115482917D01*
X124263033Y-115533326D01*
X124284307Y-115578131D01*
X124306201Y-115607619D01*
X124313871Y-115615586D01*
X124328883Y-115630459D01*
X124350366Y-115651399D01*
X124377450Y-115677569D01*
X124409264Y-115708129D01*
X124444937Y-115742242D01*
X124483598Y-115779068D01*
X124524376Y-115817769D01*
X124530533Y-115823600D01*
X124572585Y-115863609D01*
X124611482Y-115900992D01*
X124646502Y-115935031D01*
X124676920Y-115965006D01*
X124702014Y-115990198D01*
X124721062Y-116009889D01*
X124733339Y-116023359D01*
X124738123Y-116029891D01*
X124738155Y-116030036D01*
X124737613Y-116037279D01*
X124735557Y-116054832D01*
X124732107Y-116081835D01*
X124727380Y-116117426D01*
X124721495Y-116160745D01*
X124714570Y-116210931D01*
X124706723Y-116267124D01*
X124698073Y-116328464D01*
X124688737Y-116394089D01*
X124678835Y-116463140D01*
X124674655Y-116492126D01*
X124664469Y-116563121D01*
X124654773Y-116631628D01*
X124645689Y-116696717D01*
X124637341Y-116757458D01*
X124629854Y-116812922D01*
X124623351Y-116862180D01*
X124617955Y-116904303D01*
X124613790Y-116938360D01*
X124610980Y-116963423D01*
X124609649Y-116978562D01*
X124609555Y-116981279D01*
X124614997Y-117032959D01*
X124630715Y-117081700D01*
X124655803Y-117126038D01*
X124689351Y-117164509D01*
X124730452Y-117195649D01*
X124748782Y-117205713D01*
X124758959Y-117210289D01*
X124778771Y-117218755D01*
X124807387Y-117230769D01*
X124843977Y-117245988D01*
X124887710Y-117264071D01*
X124937756Y-117284674D01*
X124993283Y-117307457D01*
X125053462Y-117332076D01*
X125117461Y-117358190D01*
X125184450Y-117385456D01*
X125231986Y-117404765D01*
X125682261Y-117587507D01*
X127145004Y-118940724D01*
X127282839Y-119068222D01*
X127412608Y-119188225D01*
X127534516Y-119300919D01*
X127648769Y-119406494D01*
X127755571Y-119505136D01*
X127855127Y-119597034D01*
X127947642Y-119682376D01*
X128033321Y-119761348D01*
X128112368Y-119834140D01*
X128184990Y-119900938D01*
X128251391Y-119961932D01*
X128311775Y-120017307D01*
X128366348Y-120067253D01*
X128415314Y-120111958D01*
X128458879Y-120151608D01*
X128497248Y-120186391D01*
X128530625Y-120216497D01*
X128559216Y-120242111D01*
X128583225Y-120263423D01*
X128602858Y-120280620D01*
X128618318Y-120293889D01*
X128629812Y-120303420D01*
X128637544Y-120309398D01*
X128641071Y-120311704D01*
X128647179Y-120314651D01*
X128655032Y-120317787D01*
X128665242Y-120321249D01*
X128678421Y-120325177D01*
X128695180Y-120329708D01*
X128716132Y-120334981D01*
X128741887Y-120341134D01*
X128773057Y-120348305D01*
X128810255Y-120356632D01*
X128854091Y-120366255D01*
X128905178Y-120377310D01*
X128964127Y-120389936D01*
X129031550Y-120404272D01*
X129108058Y-120420455D01*
X129194264Y-120438625D01*
X129290778Y-120458919D01*
X129313209Y-120463631D01*
X129396924Y-120481181D01*
X129477967Y-120498108D01*
X129555607Y-120514263D01*
X129629110Y-120529497D01*
X129697744Y-120543658D01*
X129760775Y-120556598D01*
X129817472Y-120568167D01*
X129867102Y-120578215D01*
X129908932Y-120586591D01*
X129942228Y-120593147D01*
X129966260Y-120597733D01*
X129980293Y-120600198D01*
X129983067Y-120600569D01*
X130004617Y-120601727D01*
X130024774Y-120601575D01*
X130032899Y-120600924D01*
X130040791Y-120599465D01*
X130059014Y-120595826D01*
X130086855Y-120590155D01*
X130123599Y-120582601D01*
X130168533Y-120573313D01*
X130220942Y-120562439D01*
X130280113Y-120550127D01*
X130345329Y-120536527D01*
X130415879Y-120521786D01*
X130491047Y-120506053D01*
X130570119Y-120489477D01*
X130652381Y-120472206D01*
X130691456Y-120463993D01*
X130790253Y-120443205D01*
X130878611Y-120424575D01*
X130957144Y-120407963D01*
X131026464Y-120393230D01*
X131087184Y-120380239D01*
X131139919Y-120368849D01*
X131185283Y-120358923D01*
X131223887Y-120350320D01*
X131256346Y-120342903D01*
X131283274Y-120336532D01*
X131305283Y-120331068D01*
X131322987Y-120326372D01*
X131337000Y-120322306D01*
X131347935Y-120318731D01*
X131356406Y-120315507D01*
X131363026Y-120312496D01*
X131365012Y-120311470D01*
X131369902Y-120308188D01*
X131378185Y-120301695D01*
X131390071Y-120291796D01*
X131405771Y-120278298D01*
X131425497Y-120261008D01*
X131449459Y-120239732D01*
X131477870Y-120214277D01*
X131510939Y-120184449D01*
X131548879Y-120150055D01*
X131591900Y-120110902D01*
X131640213Y-120066795D01*
X131694029Y-120017542D01*
X131753561Y-119962949D01*
X131819018Y-119902822D01*
X131890612Y-119836968D01*
X131968555Y-119765194D01*
X132053056Y-119687307D01*
X132144328Y-119603111D01*
X132242581Y-119512415D01*
X132348028Y-119415025D01*
X132460877Y-119310747D01*
X132581342Y-119199388D01*
X132709633Y-119080754D01*
X132845962Y-118954652D01*
X132861315Y-118940448D01*
X134323830Y-117587436D01*
X134773882Y-117404756D01*
X134842432Y-117376896D01*
X134908566Y-117349952D01*
X134971453Y-117324267D01*
X135030261Y-117300181D01*
X135084161Y-117278039D01*
X135132320Y-117258182D01*
X135173908Y-117240953D01*
X135208095Y-117226694D01*
X135234049Y-117215747D01*
X135250940Y-117208455D01*
X135256862Y-117205739D01*
X135300049Y-117178315D01*
X135336508Y-117142972D01*
X135365210Y-117101341D01*
X135385127Y-117055050D01*
X135395231Y-117005726D01*
X135396298Y-116984931D01*
X135395542Y-116974024D01*
X135393285Y-116952852D01*
X135389648Y-116922319D01*
X135384751Y-116883332D01*
X135378712Y-116836797D01*
X135371653Y-116783619D01*
X135363691Y-116724704D01*
X135354948Y-116660959D01*
X135345542Y-116593289D01*
X135335594Y-116522600D01*
X135330582Y-116487311D01*
X135264656Y-116024467D01*
X135314850Y-115975996D01*
X135330554Y-115960926D01*
X135353192Y-115939336D01*
X135381478Y-115912443D01*
X135414127Y-115881469D01*
X135449855Y-115847630D01*
X135487377Y-115812147D01*
X135525408Y-115776238D01*
X135525911Y-115775764D01*
X135562206Y-115741409D01*
X135596477Y-115708752D01*
X135627716Y-115678767D01*
X135654920Y-115652430D01*
X135677083Y-115630714D01*
X135693199Y-115614594D01*
X135702262Y-115605043D01*
X135703063Y-115604101D01*
X135714069Y-115588387D01*
X135726593Y-115567178D01*
X135736722Y-115547511D01*
X135745766Y-115526524D01*
X135751416Y-115507346D01*
X135754657Y-115485528D01*
X135756387Y-115458622D01*
X135756719Y-115431397D01*
X135755554Y-115405406D01*
X135753125Y-115385011D01*
X135752200Y-115380690D01*
X135749591Y-115372748D01*
X135744815Y-115359137D01*
X135190702Y-115359137D01*
X135189885Y-115363329D01*
X135185474Y-115370338D01*
X135176871Y-115380771D01*
X135163478Y-115395238D01*
X135144699Y-115414350D01*
X135119935Y-115438713D01*
X135088589Y-115468939D01*
X135050065Y-115505636D01*
X135008466Y-115544978D01*
X134959341Y-115591328D01*
X134917720Y-115630650D01*
X134882906Y-115663674D01*
X134854202Y-115691129D01*
X134830911Y-115713746D01*
X134812337Y-115732253D01*
X134797782Y-115747382D01*
X134786549Y-115759861D01*
X134777943Y-115770421D01*
X134771265Y-115779792D01*
X134765820Y-115788702D01*
X134760909Y-115797883D01*
X134755837Y-115808064D01*
X134754308Y-115811164D01*
X134748050Y-115824080D01*
X134742688Y-115836285D01*
X134738270Y-115848570D01*
X134734845Y-115861727D01*
X134732462Y-115876546D01*
X134731169Y-115893819D01*
X134731016Y-115914337D01*
X134732050Y-115938892D01*
X134734322Y-115968274D01*
X134737879Y-116003275D01*
X134742770Y-116044685D01*
X134749044Y-116093297D01*
X134756750Y-116149902D01*
X134765936Y-116215290D01*
X134776651Y-116290253D01*
X134788944Y-116375582D01*
X134789170Y-116377144D01*
X134798837Y-116444426D01*
X134807977Y-116508595D01*
X134816468Y-116568754D01*
X134824185Y-116624006D01*
X134831007Y-116673454D01*
X134836810Y-116716202D01*
X134841473Y-116751353D01*
X134844871Y-116778010D01*
X134846882Y-116795276D01*
X134847387Y-116802231D01*
X134844799Y-116805176D01*
X134837344Y-116809855D01*
X134824465Y-116816508D01*
X134805605Y-116825377D01*
X134780208Y-116836700D01*
X134747715Y-116850718D01*
X134707570Y-116867670D01*
X134659215Y-116887798D01*
X134602093Y-116911341D01*
X134535647Y-116938538D01*
X134459320Y-116969631D01*
X134451042Y-116972997D01*
X134387134Y-116999045D01*
X134325875Y-117024153D01*
X134268129Y-117047956D01*
X134214763Y-117070090D01*
X134166644Y-117090194D01*
X134124638Y-117107902D01*
X134089611Y-117122851D01*
X134062429Y-117134678D01*
X134043960Y-117143020D01*
X134035068Y-117147512D01*
X134034964Y-117147580D01*
X134029241Y-117152447D01*
X134015538Y-117164704D01*
X133994158Y-117184070D01*
X133965405Y-117210267D01*
X133929582Y-117243015D01*
X133886992Y-117282034D01*
X133837939Y-117327044D01*
X133782727Y-117377767D01*
X133721659Y-117433922D01*
X133655039Y-117495230D01*
X133583170Y-117561411D01*
X133506356Y-117632186D01*
X133424900Y-117707276D01*
X133339106Y-117786400D01*
X133249278Y-117869280D01*
X133155718Y-117955635D01*
X133058730Y-118045186D01*
X132958619Y-118137653D01*
X132855687Y-118232758D01*
X132750238Y-118330220D01*
X132642575Y-118429760D01*
X132575477Y-118491811D01*
X132466688Y-118592428D01*
X132359976Y-118691121D01*
X132255642Y-118787614D01*
X132153988Y-118881628D01*
X132055313Y-118972884D01*
X131959920Y-119061104D01*
X131868110Y-119146009D01*
X131780183Y-119227321D01*
X131696441Y-119304762D01*
X131617185Y-119378053D01*
X131542716Y-119446915D01*
X131473335Y-119511071D01*
X131409343Y-119570242D01*
X131351041Y-119624149D01*
X131298731Y-119672513D01*
X131252713Y-119715058D01*
X131213289Y-119751503D01*
X131180760Y-119781571D01*
X131155426Y-119804983D01*
X131137590Y-119821461D01*
X131127551Y-119830727D01*
X131125370Y-119832731D01*
X131120305Y-119835439D01*
X131109772Y-119839094D01*
X131093202Y-119843828D01*
X131070025Y-119849772D01*
X131039671Y-119857058D01*
X131001571Y-119865817D01*
X130955154Y-119876180D01*
X130899852Y-119888280D01*
X130835093Y-119902246D01*
X130760309Y-119918211D01*
X130690748Y-119932962D01*
X130623467Y-119947198D01*
X130559455Y-119960750D01*
X130499559Y-119973437D01*
X130444630Y-119985080D01*
X130395515Y-119995499D01*
X130353065Y-120004512D01*
X130318127Y-120011941D01*
X130291551Y-120017604D01*
X130274185Y-120021322D01*
X130266879Y-120022915D01*
X130266700Y-120022960D01*
X130266337Y-120017710D01*
X130266009Y-120002581D01*
X130265728Y-119978985D01*
X130265506Y-119948334D01*
X130265356Y-119912038D01*
X130265291Y-119871507D01*
X130265289Y-119863248D01*
X130265289Y-119702940D01*
X130597616Y-119442770D01*
X130651625Y-119400382D01*
X130703309Y-119359615D01*
X130751936Y-119321059D01*
X130796771Y-119285306D01*
X130837082Y-119252945D01*
X130872135Y-119224569D01*
X130901197Y-119200768D01*
X130923534Y-119182133D01*
X130938413Y-119169255D01*
X130945060Y-119162780D01*
X130955271Y-119147327D01*
X130967271Y-119126189D01*
X130978003Y-119104891D01*
X130991786Y-119064364D01*
X130998696Y-119018478D01*
X130998469Y-118971029D01*
X130990837Y-118925814D01*
X130990625Y-118925025D01*
X130972506Y-118878527D01*
X130945141Y-118835901D01*
X130910269Y-118799296D01*
X130869626Y-118770861D01*
X130863131Y-118767429D01*
X130854807Y-118763190D01*
X130847013Y-118759362D01*
X130839160Y-118755922D01*
X130830662Y-118752852D01*
X130820933Y-118750129D01*
X130809386Y-118747733D01*
X130795434Y-118745643D01*
X130778490Y-118743838D01*
X130757968Y-118742298D01*
X130733280Y-118741000D01*
X130703840Y-118739925D01*
X130669061Y-118739052D01*
X130628356Y-118738359D01*
X130581139Y-118737827D01*
X130526822Y-118737433D01*
X130464819Y-118737157D01*
X130394544Y-118736978D01*
X130315408Y-118736876D01*
X130226827Y-118736829D01*
X130128212Y-118736817D01*
X130018977Y-118736818D01*
X130002822Y-118736818D01*
X129891819Y-118736817D01*
X129791522Y-118736826D01*
X129701345Y-118736867D01*
X129620706Y-118736962D01*
X129549021Y-118737132D01*
X129485705Y-118737399D01*
X129430175Y-118737783D01*
X129381847Y-118738306D01*
X129340138Y-118738990D01*
X129304463Y-118739856D01*
X129274239Y-118740925D01*
X129248882Y-118742219D01*
X129227808Y-118743758D01*
X129210433Y-118745566D01*
X129196173Y-118747662D01*
X129184446Y-118750068D01*
X129174665Y-118752806D01*
X129166249Y-118755897D01*
X129158613Y-118759362D01*
X129151173Y-118763223D01*
X129143346Y-118767501D01*
X129141785Y-118768353D01*
X129095955Y-118799032D01*
X129059486Y-118835966D01*
X129032519Y-118878894D01*
X129015195Y-118927558D01*
X129007653Y-118981698D01*
X129007801Y-119015197D01*
X129014627Y-119065854D01*
X129030140Y-119111120D01*
X129055413Y-119153944D01*
X129061380Y-119162011D01*
X129068461Y-119168982D01*
X129083716Y-119182287D01*
X129106408Y-119201330D01*
X129135799Y-119225515D01*
X129171153Y-119254245D01*
X129211732Y-119286925D01*
X129256799Y-119322957D01*
X129305616Y-119361746D01*
X129357447Y-119402696D01*
X129410593Y-119444457D01*
X129743178Y-119705092D01*
X129744681Y-119859716D01*
X129744924Y-119900405D01*
X129744851Y-119937355D01*
X129744489Y-119969074D01*
X129743865Y-119994074D01*
X129743005Y-120010864D01*
X129741936Y-120017954D01*
X129741859Y-120018044D01*
X129735778Y-120017498D01*
X129719514Y-120014767D01*
X129693922Y-120010025D01*
X129659860Y-120003441D01*
X129618185Y-119995188D01*
X129569752Y-119985437D01*
X129515420Y-119974359D01*
X129456043Y-119962126D01*
X129392481Y-119948909D01*
X129325588Y-119934879D01*
X129315388Y-119932730D01*
X129236842Y-119916152D01*
X129168586Y-119901701D01*
X129109860Y-119889194D01*
X129059904Y-119878451D01*
X129017956Y-119869289D01*
X128983257Y-119861526D01*
X128955046Y-119854982D01*
X128932563Y-119849474D01*
X128915048Y-119844820D01*
X128901739Y-119840840D01*
X128891878Y-119837350D01*
X128884703Y-119834170D01*
X128879455Y-119831117D01*
X128875372Y-119828011D01*
X128874680Y-119827413D01*
X128869165Y-119822377D01*
X128855670Y-119809954D01*
X128834497Y-119790427D01*
X128805951Y-119764075D01*
X128770336Y-119731180D01*
X128727955Y-119692023D01*
X128679114Y-119646885D01*
X128624116Y-119596048D01*
X128563264Y-119539792D01*
X128496864Y-119478398D01*
X128425219Y-119412149D01*
X128348632Y-119341324D01*
X128267409Y-119266206D01*
X128181853Y-119187075D01*
X128092269Y-119104212D01*
X127998959Y-119017899D01*
X127902229Y-118928416D01*
X127802382Y-118836045D01*
X127699723Y-118741067D01*
X127594555Y-118643763D01*
X127487182Y-118544415D01*
X127429133Y-118490702D01*
X127320645Y-118390333D01*
X127214160Y-118291849D01*
X127109983Y-118195531D01*
X127008420Y-118101663D01*
X126909777Y-118010525D01*
X126814361Y-117922400D01*
X126722477Y-117837569D01*
X126634430Y-117756315D01*
X126550528Y-117678919D01*
X126471076Y-117605664D01*
X126396380Y-117536830D01*
X126326746Y-117472700D01*
X126262479Y-117413557D01*
X126203887Y-117359681D01*
X126151274Y-117311355D01*
X126104947Y-117268861D01*
X126065212Y-117232480D01*
X126032375Y-117202494D01*
X126006742Y-117179187D01*
X125988618Y-117162838D01*
X125978310Y-117153730D01*
X125976130Y-117151943D01*
X125966018Y-117146401D01*
X125946051Y-117136965D01*
X125916868Y-117123909D01*
X125879107Y-117107503D01*
X125833406Y-117088018D01*
X125780403Y-117065727D01*
X125720738Y-117040899D01*
X125655047Y-117013807D01*
X125583970Y-116984722D01*
X125556120Y-116973382D01*
X125492838Y-116947621D01*
X125432607Y-116923047D01*
X125376242Y-116899998D01*
X125324562Y-116878809D01*
X125278382Y-116859818D01*
X125238519Y-116843360D01*
X125205791Y-116829773D01*
X125181014Y-116819394D01*
X125165005Y-116812557D01*
X125158581Y-116809602D01*
X125158509Y-116809547D01*
X125158715Y-116803516D01*
X125160435Y-116787182D01*
X125163554Y-116761413D01*
X125167953Y-116727077D01*
X125173518Y-116685041D01*
X125180132Y-116636173D01*
X125187679Y-116581341D01*
X125196041Y-116521412D01*
X125205103Y-116457255D01*
X125214749Y-116389736D01*
X125215915Y-116381621D01*
X125225750Y-116312711D01*
X125235084Y-116246274D01*
X125243792Y-116183276D01*
X125251747Y-116124678D01*
X125258822Y-116071443D01*
X125264892Y-116024536D01*
X125269829Y-115984920D01*
X125273508Y-115953557D01*
X125275801Y-115931411D01*
X125276584Y-115919445D01*
X125276583Y-115919276D01*
X125273947Y-115880580D01*
X125265972Y-115845764D01*
X125251359Y-115809646D01*
X125246780Y-115800326D01*
X125242520Y-115792042D01*
X125238172Y-115784323D01*
X125233056Y-115776476D01*
X125226495Y-115767808D01*
X125217809Y-115757624D01*
X125206319Y-115745232D01*
X125191348Y-115729936D01*
X125172217Y-115711044D01*
X125148246Y-115687862D01*
X125118758Y-115659696D01*
X125083073Y-115625852D01*
X125040513Y-115585637D01*
X124991705Y-115539589D01*
X124954217Y-115504140D01*
X124919394Y-115471038D01*
X124888072Y-115441091D01*
X124861087Y-115415105D01*
X124839275Y-115393889D01*
X124823472Y-115378249D01*
X124814513Y-115368992D01*
X124812755Y-115366770D01*
X124814672Y-115360776D01*
X124820242Y-115344932D01*
X124829199Y-115319969D01*
X124841272Y-115286611D01*
X124856195Y-115245588D01*
X124873698Y-115197625D01*
X124893514Y-115143451D01*
X124915374Y-115083793D01*
X124939011Y-115019377D01*
X124964154Y-114950932D01*
X124990537Y-114879185D01*
X125017891Y-114804862D01*
X125045948Y-114728692D01*
X125074438Y-114651401D01*
X125103095Y-114573717D01*
X125131650Y-114496367D01*
X125159834Y-114420078D01*
X125187380Y-114345578D01*
X125214018Y-114273594D01*
X125239480Y-114204853D01*
X125263499Y-114140083D01*
X125285806Y-114080010D01*
X125306133Y-114025363D01*
X125324210Y-113976869D01*
X125339771Y-113935254D01*
X125352546Y-113901246D01*
X125362268Y-113875573D01*
X125368668Y-113858961D01*
X125371478Y-113852138D01*
X125371558Y-113852015D01*
X125377364Y-113852427D01*
X125393769Y-113854244D01*
X125420181Y-113857388D01*
X125456007Y-113861781D01*
X125500655Y-113867346D01*
X125553532Y-113874006D01*
X125614045Y-113881683D01*
X125681604Y-113890300D01*
X125755614Y-113899780D01*
X125835485Y-113910044D01*
X125920623Y-113921016D01*
X126010435Y-113932618D01*
X126104331Y-113944773D01*
X126201717Y-113957403D01*
X126302001Y-113970431D01*
X126404590Y-113983779D01*
X126508893Y-113997370D01*
X126614316Y-114011126D01*
X126720268Y-114024971D01*
X126826155Y-114038827D01*
X126931387Y-114052615D01*
X127035370Y-114066260D01*
X127137511Y-114079683D01*
X127237219Y-114092806D01*
X127333902Y-114105554D01*
X127426966Y-114117847D01*
X127515819Y-114129609D01*
X127599870Y-114140763D01*
X127678525Y-114151230D01*
X127751192Y-114160933D01*
X127817279Y-114169796D01*
X127876194Y-114177740D01*
X127927344Y-114184688D01*
X127970137Y-114190562D01*
X128003980Y-114195286D01*
X128028281Y-114198782D01*
X128042447Y-114200972D01*
X128045327Y-114201504D01*
X128050440Y-114206011D01*
X128062842Y-114218785D01*
X128082355Y-114239629D01*
X128108801Y-114268345D01*
X128142002Y-114304733D01*
X128181780Y-114348597D01*
X128227957Y-114399737D01*
X128280354Y-114457955D01*
X128338794Y-114523054D01*
X128403099Y-114594834D01*
X128473089Y-114673098D01*
X128548588Y-114757647D01*
X128629416Y-114848283D01*
X128715397Y-114944808D01*
X128806351Y-115047024D01*
X128902101Y-115154731D01*
X128936419Y-115193359D01*
X129017948Y-115285093D01*
X129097633Y-115374666D01*
X129175137Y-115461701D01*
X129250122Y-115545821D01*
X129322248Y-115626648D01*
X129391178Y-115703806D01*
X129456574Y-115776919D01*
X129518097Y-115845609D01*
X129575408Y-115909499D01*
X129628171Y-115968212D01*
X129676046Y-116021372D01*
X129718694Y-116068602D01*
X129755779Y-116109525D01*
X129786961Y-116143763D01*
X129811903Y-116170940D01*
X129830265Y-116190680D01*
X129841711Y-116202605D01*
X129845379Y-116206065D01*
X129876161Y-116227409D01*
X129906185Y-116241967D01*
X129938696Y-116250752D01*
X129976934Y-116254780D01*
X130002822Y-116255336D01*
X130045391Y-116253647D01*
X130080425Y-116247886D01*
X130111261Y-116237010D01*
X130141239Y-116219979D01*
X130160496Y-116206149D01*
X130167539Y-116199407D01*
X130181818Y-116184467D01*
X130203096Y-116161593D01*
X130231137Y-116131047D01*
X130265702Y-116093094D01*
X130306557Y-116047998D01*
X130353464Y-115996021D01*
X130406186Y-115937427D01*
X130464487Y-115872480D01*
X130528129Y-115801444D01*
X130596877Y-115724582D01*
X130670494Y-115642158D01*
X130748742Y-115554435D01*
X130831386Y-115461677D01*
X130918188Y-115364148D01*
X131008911Y-115262111D01*
X131070082Y-115193258D01*
X131161664Y-115090190D01*
X131249538Y-114991389D01*
X131333466Y-114897118D01*
X131413209Y-114807644D01*
X131488530Y-114723230D01*
X131559191Y-114644143D01*
X131624953Y-114570646D01*
X131685580Y-114503006D01*
X131740832Y-114441487D01*
X131790472Y-114386354D01*
X131834262Y-114337871D01*
X131871964Y-114296305D01*
X131903341Y-114261920D01*
X131928153Y-114234981D01*
X131946163Y-114215753D01*
X131957134Y-114204501D01*
X131960718Y-114201410D01*
X131968458Y-114200202D01*
X131986682Y-114197623D01*
X132014798Y-114193750D01*
X132052217Y-114188661D01*
X132098344Y-114182436D01*
X132152591Y-114175151D01*
X132214363Y-114166884D01*
X132283071Y-114157714D01*
X132358123Y-114147718D01*
X132438927Y-114136975D01*
X132524891Y-114125561D01*
X132615424Y-114113556D01*
X132709935Y-114101037D01*
X132807832Y-114088083D01*
X132908523Y-114074770D01*
X133011417Y-114061177D01*
X133115922Y-114047383D01*
X133221448Y-114033464D01*
X133327401Y-114019499D01*
X133433191Y-114005566D01*
X133538227Y-113991742D01*
X133641916Y-113978106D01*
X133743667Y-113964736D01*
X133842889Y-113951710D01*
X133938990Y-113939105D01*
X134031379Y-113926999D01*
X134119463Y-113915471D01*
X134202652Y-113904598D01*
X134280354Y-113894459D01*
X134351977Y-113885131D01*
X134416930Y-113876692D01*
X134474622Y-113869220D01*
X134524460Y-113862794D01*
X134565854Y-113857490D01*
X134598211Y-113853388D01*
X134620940Y-113850564D01*
X134633450Y-113849097D01*
X134635821Y-113848907D01*
X134637998Y-113854442D01*
X134643792Y-113869848D01*
X134652936Y-113894399D01*
X134665162Y-113927367D01*
X134680203Y-113968024D01*
X134697792Y-114015644D01*
X134717661Y-114069498D01*
X134739543Y-114128859D01*
X134763171Y-114192999D01*
X134788277Y-114261191D01*
X134814595Y-114332707D01*
X134841856Y-114406820D01*
X134869794Y-114482803D01*
X134898141Y-114559927D01*
X134926630Y-114637465D01*
X134954993Y-114714690D01*
X134982964Y-114790874D01*
X135010275Y-114865290D01*
X135036658Y-114937210D01*
X135061847Y-115005906D01*
X135085574Y-115070651D01*
X135107572Y-115130718D01*
X135127574Y-115185378D01*
X135145311Y-115233906D01*
X135160517Y-115275571D01*
X135172925Y-115309649D01*
X135182267Y-115335410D01*
X135188276Y-115352127D01*
X135190685Y-115359073D01*
X135190702Y-115359137D01*
X135744815Y-115359137D01*
X135743279Y-115354763D01*
X135733462Y-115327283D01*
X135720342Y-115290858D01*
X135704119Y-115246036D01*
X135684992Y-115193367D01*
X135663162Y-115133398D01*
X135638829Y-115066680D01*
X135612194Y-114993761D01*
X135583457Y-114915190D01*
X135552818Y-114831515D01*
X135520478Y-114743286D01*
X135486636Y-114651051D01*
X135451493Y-114555360D01*
X135415249Y-114456762D01*
X135396431Y-114405602D01*
X135047141Y-113456245D01*
X134910654Y-113171200D01*
X134774168Y-112886156D01*
X134704119Y-112565521D01*
X134169482Y-112565521D01*
X134167391Y-112567121D01*
X134161608Y-112565264D01*
X134145797Y-112559866D01*
X134120578Y-112551143D01*
X134086570Y-112539314D01*
X134044391Y-112524594D01*
X133994659Y-112507201D01*
X133937993Y-112487351D01*
X133875011Y-112465260D01*
X133806332Y-112441146D01*
X133732575Y-112415225D01*
X133654358Y-112387715D01*
X133572300Y-112358831D01*
X133487019Y-112328791D01*
X133444138Y-112313678D01*
X133357519Y-112283131D01*
X133273840Y-112253592D01*
X133193719Y-112225282D01*
X133117773Y-112198420D01*
X133046618Y-112173224D01*
X132980872Y-112149914D01*
X132921153Y-112128710D01*
X132868076Y-112109829D01*
X132822259Y-112093493D01*
X132784319Y-112079918D01*
X132754873Y-112069326D01*
X132734539Y-112061934D01*
X132723932Y-112057963D01*
X132722472Y-112057331D01*
X132722486Y-112057299D01*
X127283205Y-112057299D01*
X127277557Y-112059573D01*
X127262009Y-112065324D01*
X127237311Y-112074286D01*
X127204214Y-112086194D01*
X127163470Y-112100783D01*
X127115828Y-112117788D01*
X127062038Y-112136944D01*
X127002853Y-112157986D01*
X126939022Y-112180647D01*
X126871297Y-112204664D01*
X126800427Y-112229772D01*
X126727163Y-112255704D01*
X126652256Y-112282196D01*
X126576458Y-112308983D01*
X126500517Y-112335799D01*
X126425186Y-112362380D01*
X126351214Y-112388460D01*
X126279353Y-112413774D01*
X126210353Y-112438057D01*
X126144964Y-112461044D01*
X126083938Y-112482470D01*
X126028024Y-112502069D01*
X125977975Y-112519577D01*
X125934539Y-112534728D01*
X125898469Y-112547257D01*
X125870514Y-112556900D01*
X125851425Y-112563390D01*
X125841954Y-112566462D01*
X125841075Y-112566681D01*
X125836004Y-112563053D01*
X125836509Y-112557367D01*
X125837981Y-112550941D01*
X125841739Y-112534017D01*
X125847668Y-112507126D01*
X125855650Y-112470800D01*
X125865569Y-112425571D01*
X125877310Y-112371970D01*
X125890756Y-112310529D01*
X125905790Y-112241780D01*
X125922297Y-112166255D01*
X125940161Y-112084485D01*
X125959264Y-111997002D01*
X125979491Y-111904338D01*
X126000726Y-111807024D01*
X126022852Y-111705593D01*
X126045754Y-111600576D01*
X126069314Y-111492505D01*
X126076810Y-111458111D01*
X126100559Y-111349195D01*
X126123699Y-111243169D01*
X126146112Y-111140565D01*
X126167682Y-111041916D01*
X126188291Y-110947752D01*
X126207824Y-110858605D01*
X126226162Y-110775006D01*
X126243190Y-110697488D01*
X126258789Y-110626581D01*
X126272845Y-110562818D01*
X126285238Y-110506730D01*
X126295853Y-110458849D01*
X126304573Y-110419705D01*
X126311281Y-110389831D01*
X126315860Y-110369759D01*
X126318193Y-110360019D01*
X126318443Y-110359178D01*
X126320765Y-110360966D01*
X126326629Y-110369207D01*
X126336171Y-110384140D01*
X126349531Y-110406004D01*
X126366846Y-110435036D01*
X126388254Y-110471477D01*
X126413891Y-110515566D01*
X126443898Y-110567540D01*
X126478410Y-110627639D01*
X126517566Y-110696102D01*
X126561504Y-110773167D01*
X126610361Y-110859074D01*
X126664276Y-110954061D01*
X126723385Y-111058368D01*
X126787828Y-111172232D01*
X126804563Y-111201822D01*
X126855851Y-111292569D01*
X126905586Y-111380668D01*
X126953486Y-111465617D01*
X126999272Y-111546915D01*
X127042662Y-111624060D01*
X127083375Y-111696550D01*
X127121132Y-111763885D01*
X127155651Y-111825562D01*
X127186652Y-111881080D01*
X127213854Y-111929936D01*
X127236977Y-111971631D01*
X127255740Y-112005661D01*
X127269862Y-112031526D01*
X127279063Y-112048724D01*
X127283062Y-112056753D01*
X127283205Y-112057299D01*
X132722486Y-112057299D01*
X132724881Y-112052177D01*
X132732575Y-112037703D01*
X132745271Y-112014410D01*
X132762691Y-111982799D01*
X132784553Y-111943372D01*
X132810576Y-111896631D01*
X132840479Y-111843077D01*
X132873983Y-111783211D01*
X132910805Y-111717535D01*
X132950666Y-111646551D01*
X132993284Y-111570759D01*
X133038379Y-111490662D01*
X133085671Y-111406761D01*
X133134878Y-111319557D01*
X133185719Y-111229553D01*
X133201222Y-111202126D01*
X133252518Y-111111446D01*
X133302334Y-111023490D01*
X133350385Y-110938754D01*
X133396388Y-110857735D01*
X133440057Y-110780931D01*
X133481110Y-110708838D01*
X133519261Y-110641953D01*
X133554226Y-110580774D01*
X133585722Y-110525798D01*
X133613465Y-110477521D01*
X133637169Y-110436441D01*
X133656551Y-110403054D01*
X133671328Y-110377858D01*
X133681213Y-110361350D01*
X133685924Y-110354026D01*
X133686287Y-110353696D01*
X133687798Y-110359502D01*
X133691589Y-110375813D01*
X133697545Y-110402103D01*
X133705551Y-110437844D01*
X133715490Y-110482511D01*
X133727246Y-110535578D01*
X133740704Y-110596516D01*
X133755747Y-110664801D01*
X133772261Y-110739906D01*
X133790129Y-110821303D01*
X133809235Y-110908467D01*
X133829464Y-111000872D01*
X133850699Y-111097989D01*
X133872825Y-111199294D01*
X133895726Y-111304259D01*
X133919286Y-111412359D01*
X133928022Y-111452467D01*
X133951805Y-111561672D01*
X133974965Y-111667990D01*
X133997387Y-111770891D01*
X134018955Y-111869844D01*
X134039552Y-111964319D01*
X134059064Y-112053786D01*
X134077374Y-112137715D01*
X134094367Y-112215574D01*
X134109926Y-112286834D01*
X134123937Y-112350964D01*
X134136282Y-112407435D01*
X134146848Y-112455714D01*
X134155516Y-112495273D01*
X134162173Y-112525581D01*
X134166702Y-112546107D01*
X134168987Y-112556321D01*
X134169237Y-112557367D01*
X134169482Y-112565521D01*
X134704119Y-112565521D01*
X134408053Y-111210340D01*
X134371213Y-111041763D01*
X134336693Y-110883912D01*
X134304424Y-110736479D01*
X134274337Y-110599156D01*
X134246364Y-110471637D01*
X134220436Y-110353612D01*
X134196485Y-110244775D01*
X134174440Y-110144818D01*
X134154235Y-110053434D01*
X134135799Y-109970314D01*
X134119065Y-109895151D01*
X134103963Y-109827638D01*
X134090426Y-109767467D01*
X134078383Y-109714330D01*
X134067766Y-109667921D01*
X134058507Y-109627930D01*
X134050537Y-109594050D01*
X134043787Y-109565975D01*
X134038189Y-109543396D01*
X134033673Y-109526005D01*
X134030171Y-109513496D01*
X134027614Y-109505560D01*
X134026519Y-109502896D01*
X134000400Y-109461674D01*
X133966284Y-109426875D01*
X133925845Y-109399095D01*
X133880757Y-109378930D01*
X133832691Y-109366979D01*
X133783322Y-109363836D01*
X133734323Y-109370100D01*
G36*
X132587300Y-114938133D02*
G01*
X132538235Y-114951777D01*
X132525889Y-114957036D01*
X132518027Y-114961054D01*
X132501014Y-114970047D01*
X132475618Y-114983600D01*
X132442607Y-115001297D01*
X132402748Y-115022722D01*
X132356810Y-115047459D01*
X132305559Y-115075093D01*
X132249764Y-115105208D01*
X132190192Y-115137388D01*
X132127612Y-115171217D01*
X132062789Y-115206280D01*
X131996494Y-115242160D01*
X131929492Y-115278442D01*
X131862552Y-115314711D01*
X131796442Y-115350549D01*
X131731928Y-115385543D01*
X131669780Y-115419275D01*
X131610764Y-115451330D01*
X131555648Y-115481293D01*
X131505201Y-115508747D01*
X131460189Y-115533277D01*
X131421380Y-115554466D01*
X131389543Y-115571900D01*
X131365444Y-115585163D01*
X131349852Y-115593838D01*
X131345488Y-115596324D01*
X131323237Y-115612397D01*
X131299096Y-115634792D01*
X131276456Y-115659938D01*
X131258705Y-115684262D01*
X131253663Y-115693098D01*
X131237259Y-115735505D01*
X131227554Y-115783165D01*
X131225059Y-115831885D01*
X131230287Y-115877474D01*
X131230827Y-115879886D01*
X131246399Y-115924486D01*
X131271106Y-115966754D01*
X131303034Y-116004302D01*
X131340267Y-116034741D01*
X131367100Y-116049910D01*
X131418723Y-116068928D01*
X131469640Y-116076989D01*
X131521249Y-116074228D01*
X131552222Y-116067675D01*
X131561221Y-116064453D01*
X131575809Y-116058026D01*
X131596351Y-116048202D01*
X131623212Y-116034788D01*
X131656756Y-116017593D01*
X131697349Y-115996424D01*
X131745354Y-115971088D01*
X131801137Y-115941394D01*
X131865062Y-115907149D01*
X131937494Y-115868162D01*
X132018798Y-115824239D01*
X132109338Y-115775189D01*
X132184400Y-115734445D01*
X132260932Y-115692821D01*
X132334991Y-115652439D01*
X132405939Y-115613652D01*
X132473136Y-115576816D01*
X132535943Y-115542283D01*
X132593721Y-115510407D01*
X132645832Y-115481542D01*
X132691635Y-115456041D01*
X132730493Y-115434259D01*
X132761766Y-115416549D01*
X132784814Y-115403264D01*
X132798999Y-115394760D01*
X132803224Y-115391914D01*
X132836319Y-115357861D01*
X132861748Y-115317124D01*
X132879260Y-115271532D01*
X132888602Y-115222915D01*
X132889519Y-115173105D01*
X132881760Y-115123932D01*
X132865071Y-115077225D01*
X132850395Y-115050723D01*
X132818609Y-115011215D01*
X132779775Y-114979362D01*
X132735559Y-114955646D01*
X132687630Y-114940548D01*
X132637654Y-114934550D01*
X132587300Y-114938133D01*
G37*
X132587300Y-114938133D02*
X132538235Y-114951777D01*
X132525889Y-114957036D01*
X132518027Y-114961054D01*
X132501014Y-114970047D01*
X132475618Y-114983600D01*
X132442607Y-115001297D01*
X132402748Y-115022722D01*
X132356810Y-115047459D01*
X132305559Y-115075093D01*
X132249764Y-115105208D01*
X132190192Y-115137388D01*
X132127612Y-115171217D01*
X132062789Y-115206280D01*
X131996494Y-115242160D01*
X131929492Y-115278442D01*
X131862552Y-115314711D01*
X131796442Y-115350549D01*
X131731928Y-115385543D01*
X131669780Y-115419275D01*
X131610764Y-115451330D01*
X131555648Y-115481293D01*
X131505201Y-115508747D01*
X131460189Y-115533277D01*
X131421380Y-115554466D01*
X131389543Y-115571900D01*
X131365444Y-115585163D01*
X131349852Y-115593838D01*
X131345488Y-115596324D01*
X131323237Y-115612397D01*
X131299096Y-115634792D01*
X131276456Y-115659938D01*
X131258705Y-115684262D01*
X131253663Y-115693098D01*
X131237259Y-115735505D01*
X131227554Y-115783165D01*
X131225059Y-115831885D01*
X131230287Y-115877474D01*
X131230827Y-115879886D01*
X131246399Y-115924486D01*
X131271106Y-115966754D01*
X131303034Y-116004302D01*
X131340267Y-116034741D01*
X131367100Y-116049910D01*
X131418723Y-116068928D01*
X131469640Y-116076989D01*
X131521249Y-116074228D01*
X131552222Y-116067675D01*
X131561221Y-116064453D01*
X131575809Y-116058026D01*
X131596351Y-116048202D01*
X131623212Y-116034788D01*
X131656756Y-116017593D01*
X131697349Y-115996424D01*
X131745354Y-115971088D01*
X131801137Y-115941394D01*
X131865062Y-115907149D01*
X131937494Y-115868162D01*
X132018798Y-115824239D01*
X132109338Y-115775189D01*
X132184400Y-115734445D01*
X132260932Y-115692821D01*
X132334991Y-115652439D01*
X132405939Y-115613652D01*
X132473136Y-115576816D01*
X132535943Y-115542283D01*
X132593721Y-115510407D01*
X132645832Y-115481542D01*
X132691635Y-115456041D01*
X132730493Y-115434259D01*
X132761766Y-115416549D01*
X132784814Y-115403264D01*
X132798999Y-115394760D01*
X132803224Y-115391914D01*
X132836319Y-115357861D01*
X132861748Y-115317124D01*
X132879260Y-115271532D01*
X132888602Y-115222915D01*
X132889519Y-115173105D01*
X132881760Y-115123932D01*
X132865071Y-115077225D01*
X132850395Y-115050723D01*
X132818609Y-115011215D01*
X132779775Y-114979362D01*
X132735559Y-114955646D01*
X132687630Y-114940548D01*
X132637654Y-114934550D01*
X132587300Y-114938133D01*
G36*
X127338429Y-114937087D02*
G01*
X127289115Y-114948192D01*
X127243062Y-114968582D01*
X127201646Y-114997894D01*
X127166246Y-115035766D01*
X127154959Y-115051857D01*
X127133941Y-115091606D01*
X127121260Y-115133968D01*
X127116303Y-115181472D01*
X127116612Y-115209929D01*
X127118317Y-115237380D01*
X127121342Y-115258167D01*
X127126794Y-115276909D01*
X127135779Y-115298230D01*
X127139800Y-115306813D01*
X127145067Y-115318060D01*
X127149924Y-115328239D01*
X127154900Y-115337679D01*
X127160521Y-115346713D01*
X127167315Y-115355670D01*
X127175809Y-115364882D01*
X127186532Y-115374679D01*
X127200009Y-115385393D01*
X127216769Y-115397354D01*
X127237339Y-115410892D01*
X127262247Y-115426340D01*
X127292019Y-115444027D01*
X127327184Y-115464284D01*
X127368269Y-115487442D01*
X127415801Y-115513833D01*
X127470308Y-115543786D01*
X127532316Y-115577632D01*
X127602354Y-115615704D01*
X127680949Y-115658330D01*
X127768629Y-115705843D01*
X127822624Y-115735103D01*
X127917353Y-115786407D01*
X128002651Y-115832519D01*
X128078979Y-115873681D01*
X128146801Y-115910136D01*
X128206580Y-115942128D01*
X128258778Y-115969898D01*
X128303857Y-115993691D01*
X128342281Y-116013747D01*
X128374512Y-116030311D01*
X128401013Y-116043626D01*
X128422246Y-116053933D01*
X128438675Y-116061475D01*
X128450761Y-116066496D01*
X128458969Y-116069238D01*
X128459829Y-116069453D01*
X128515319Y-116076930D01*
X128570387Y-116073196D01*
X128576988Y-116071984D01*
X128622340Y-116057766D01*
X128665902Y-116034164D01*
X128704951Y-116003046D01*
X128736766Y-115966278D01*
X128741573Y-115959113D01*
X128763794Y-115914418D01*
X128776877Y-115865294D01*
X128780793Y-115813978D01*
X128775512Y-115762711D01*
X128761005Y-115713731D01*
X128745206Y-115681769D01*
X128739923Y-115672947D01*
X128734661Y-115664757D01*
X128728874Y-115656869D01*
X128722013Y-115648949D01*
X128713532Y-115640667D01*
X128702882Y-115631691D01*
X128689516Y-115621689D01*
X128672887Y-115610329D01*
X128652446Y-115597280D01*
X128627646Y-115582209D01*
X128597940Y-115564786D01*
X128562780Y-115544678D01*
X128521617Y-115521553D01*
X128473906Y-115495080D01*
X128419097Y-115464928D01*
X128356644Y-115430764D01*
X128285999Y-115392257D01*
X128206614Y-115349075D01*
X128117942Y-115300886D01*
X128103437Y-115293005D01*
X128028079Y-115252078D01*
X127954956Y-115212403D01*
X127884744Y-115174343D01*
X127818115Y-115138263D01*
X127755744Y-115104525D01*
X127698304Y-115073493D01*
X127646470Y-115045532D01*
X127600915Y-115021005D01*
X127562313Y-115000275D01*
X127531338Y-114983706D01*
X127508664Y-114971662D01*
X127494964Y-114964507D01*
X127492166Y-114963104D01*
X127441331Y-114944180D01*
X127389626Y-114935629D01*
X127338429Y-114937087D01*
G37*
X127338429Y-114937087D02*
X127289115Y-114948192D01*
X127243062Y-114968582D01*
X127201646Y-114997894D01*
X127166246Y-115035766D01*
X127154959Y-115051857D01*
X127133941Y-115091606D01*
X127121260Y-115133968D01*
X127116303Y-115181472D01*
X127116612Y-115209929D01*
X127118317Y-115237380D01*
X127121342Y-115258167D01*
X127126794Y-115276909D01*
X127135779Y-115298230D01*
X127139800Y-115306813D01*
X127145067Y-115318060D01*
X127149924Y-115328239D01*
X127154900Y-115337679D01*
X127160521Y-115346713D01*
X127167315Y-115355670D01*
X127175809Y-115364882D01*
X127186532Y-115374679D01*
X127200009Y-115385393D01*
X127216769Y-115397354D01*
X127237339Y-115410892D01*
X127262247Y-115426340D01*
X127292019Y-115444027D01*
X127327184Y-115464284D01*
X127368269Y-115487442D01*
X127415801Y-115513833D01*
X127470308Y-115543786D01*
X127532316Y-115577632D01*
X127602354Y-115615704D01*
X127680949Y-115658330D01*
X127768629Y-115705843D01*
X127822624Y-115735103D01*
X127917353Y-115786407D01*
X128002651Y-115832519D01*
X128078979Y-115873681D01*
X128146801Y-115910136D01*
X128206580Y-115942128D01*
X128258778Y-115969898D01*
X128303857Y-115993691D01*
X128342281Y-116013747D01*
X128374512Y-116030311D01*
X128401013Y-116043626D01*
X128422246Y-116053933D01*
X128438675Y-116061475D01*
X128450761Y-116066496D01*
X128458969Y-116069238D01*
X128459829Y-116069453D01*
X128515319Y-116076930D01*
X128570387Y-116073196D01*
X128576988Y-116071984D01*
X128622340Y-116057766D01*
X128665902Y-116034164D01*
X128704951Y-116003046D01*
X128736766Y-115966278D01*
X128741573Y-115959113D01*
X128763794Y-115914418D01*
X128776877Y-115865294D01*
X128780793Y-115813978D01*
X128775512Y-115762711D01*
X128761005Y-115713731D01*
X128745206Y-115681769D01*
X128739923Y-115672947D01*
X128734661Y-115664757D01*
X128728874Y-115656869D01*
X128722013Y-115648949D01*
X128713532Y-115640667D01*
X128702882Y-115631691D01*
X128689516Y-115621689D01*
X128672887Y-115610329D01*
X128652446Y-115597280D01*
X128627646Y-115582209D01*
X128597940Y-115564786D01*
X128562780Y-115544678D01*
X128521617Y-115521553D01*
X128473906Y-115495080D01*
X128419097Y-115464928D01*
X128356644Y-115430764D01*
X128285999Y-115392257D01*
X128206614Y-115349075D01*
X128117942Y-115300886D01*
X128103437Y-115293005D01*
X128028079Y-115252078D01*
X127954956Y-115212403D01*
X127884744Y-115174343D01*
X127818115Y-115138263D01*
X127755744Y-115104525D01*
X127698304Y-115073493D01*
X127646470Y-115045532D01*
X127600915Y-115021005D01*
X127562313Y-115000275D01*
X127531338Y-114983706D01*
X127508664Y-114971662D01*
X127494964Y-114964507D01*
X127492166Y-114963104D01*
X127441331Y-114944180D01*
X127389626Y-114935629D01*
X127338429Y-114937087D01*
D13*
%TO.C,D17*%
X151540000Y-56000000D02*
X151540000Y-53140000D01*
X151540000Y-53140000D02*
X153460000Y-53140000D01*
X153460000Y-53140000D02*
X153460000Y-56000000D01*
%TO.C,D16*%
X148540000Y-56000000D02*
X148540000Y-53140000D01*
X148540000Y-53140000D02*
X150460000Y-53140000D01*
X150460000Y-53140000D02*
X150460000Y-56000000D01*
%TO.C,D15*%
X145540000Y-56000000D02*
X145540000Y-53140000D01*
X145540000Y-53140000D02*
X147460000Y-53140000D01*
X147460000Y-53140000D02*
X147460000Y-56000000D01*
%TO.C,D14*%
X142540000Y-56000000D02*
X142540000Y-53140000D01*
X142540000Y-53140000D02*
X144460000Y-53140000D01*
X144460000Y-53140000D02*
X144460000Y-56000000D01*
%TO.C,D13*%
X139540000Y-56000000D02*
X139540000Y-53140000D01*
X139540000Y-53140000D02*
X141460000Y-53140000D01*
X141460000Y-53140000D02*
X141460000Y-56000000D01*
%TO.C,D12*%
X136540000Y-56000000D02*
X136540000Y-53140000D01*
X136540000Y-53140000D02*
X138460000Y-53140000D01*
X138460000Y-53140000D02*
X138460000Y-56000000D01*
%TO.C,D11*%
X133540000Y-56000000D02*
X133540000Y-53140000D01*
X133540000Y-53140000D02*
X135460000Y-53140000D01*
X135460000Y-53140000D02*
X135460000Y-56000000D01*
%TO.C,D10*%
X130540000Y-56000000D02*
X130540000Y-53140000D01*
X130540000Y-53140000D02*
X132460000Y-53140000D01*
X132460000Y-53140000D02*
X132460000Y-56000000D01*
%TO.C,D8*%
X127540000Y-56000000D02*
X127540000Y-53140000D01*
X127540000Y-53140000D02*
X129460000Y-53140000D01*
X129460000Y-53140000D02*
X129460000Y-56000000D01*
%TO.C,D7*%
X124540000Y-56000000D02*
X124540000Y-53140000D01*
X124540000Y-53140000D02*
X126460000Y-53140000D01*
X126460000Y-53140000D02*
X126460000Y-56000000D01*
%TO.C,D6*%
X121540000Y-56000000D02*
X121540000Y-53140000D01*
X121540000Y-53140000D02*
X123460000Y-53140000D01*
X123460000Y-53140000D02*
X123460000Y-56000000D01*
%TO.C,D5*%
X118540000Y-56000000D02*
X118540000Y-53140000D01*
X118540000Y-53140000D02*
X120460000Y-53140000D01*
X120460000Y-53140000D02*
X120460000Y-56000000D01*
%TO.C,D4*%
X115540000Y-56000000D02*
X115540000Y-53140000D01*
X115540000Y-53140000D02*
X117460000Y-53140000D01*
X117460000Y-53140000D02*
X117460000Y-56000000D01*
D12*
%TO.C,X2*%
G36*
X92276447Y-109866108D02*
G01*
X92162117Y-109887787D01*
X92051478Y-109925131D01*
X92016903Y-109940523D01*
X91959015Y-109971565D01*
X91897196Y-110010846D01*
X91838435Y-110053663D01*
X91796721Y-110088762D01*
X91769129Y-110116699D01*
X91736300Y-110153887D01*
X91702249Y-110195395D01*
X91670988Y-110236290D01*
X91646533Y-110271640D01*
X91642233Y-110278567D01*
X91636128Y-110284992D01*
X91627150Y-110284053D01*
X91611865Y-110274383D01*
X91591433Y-110258346D01*
X91503178Y-110196843D01*
X91404091Y-110145600D01*
X91297990Y-110106393D01*
X91223246Y-110087399D01*
X91185000Y-110080274D01*
X91149485Y-110075820D01*
X91111564Y-110073722D01*
X91066097Y-110073665D01*
X91019933Y-110074907D01*
X90932441Y-110080780D01*
X90855462Y-110092799D01*
X90783278Y-110112287D01*
X90710167Y-110140571D01*
X90682970Y-110152949D01*
X90584727Y-110208147D01*
X90493746Y-110277047D01*
X90411715Y-110357610D01*
X90340321Y-110447800D01*
X90281252Y-110545577D01*
X90236197Y-110648904D01*
X90215365Y-110717525D01*
X90205565Y-110756445D01*
X90138252Y-110731879D01*
X90030144Y-110701196D01*
X89917260Y-110685563D01*
X89802332Y-110684853D01*
X89688091Y-110698937D01*
X89577268Y-110727688D01*
X89490662Y-110762210D01*
X89410046Y-110803938D01*
X89340492Y-110849189D01*
X89276137Y-110902035D01*
X89241290Y-110935357D01*
X89183694Y-110998050D01*
X89135455Y-111062739D01*
X89092595Y-111135149D01*
X89067608Y-111185097D01*
X89037292Y-111256664D01*
X89015414Y-111327307D01*
X89000808Y-111402120D01*
X88992309Y-111486197D01*
X88990410Y-111522317D01*
X88985565Y-111638734D01*
X88894551Y-111638733D01*
X88773704Y-111646866D01*
X88657765Y-111670773D01*
X88547882Y-111709719D01*
X88445202Y-111762966D01*
X88350875Y-111829779D01*
X88266048Y-111909421D01*
X88191870Y-112001157D01*
X88129488Y-112104250D01*
X88111619Y-112140783D01*
X88071467Y-112247243D01*
X88045952Y-112359456D01*
X88035178Y-112474679D01*
X88039247Y-112590175D01*
X88058262Y-112703204D01*
X88087014Y-112797323D01*
X88096956Y-112824813D01*
X88103554Y-112845173D01*
X88105443Y-112854174D01*
X88105393Y-112854247D01*
X88096700Y-112857291D01*
X88076060Y-112863173D01*
X88048133Y-112870568D01*
X87949376Y-112904307D01*
X87853595Y-112953145D01*
X87762838Y-113015271D01*
X87679156Y-113088876D01*
X87604598Y-113172150D01*
X87541215Y-113263283D01*
X87491055Y-113360466D01*
X87489710Y-113363611D01*
X87464096Y-113429929D01*
X87445944Y-113492699D01*
X87434310Y-113557023D01*
X87428254Y-113628004D01*
X87426803Y-113704600D01*
X87427362Y-113758804D01*
X87428914Y-113800756D01*
X87431958Y-113835132D01*
X87436996Y-113866607D01*
X87444526Y-113899856D01*
X87449886Y-113920500D01*
X87482153Y-114016399D01*
X87526507Y-114111254D01*
X87579697Y-114198368D01*
X87595379Y-114219995D01*
X87615625Y-114247357D01*
X87630941Y-114269054D01*
X87639197Y-114282018D01*
X87639983Y-114284301D01*
X87632262Y-114289549D01*
X87614025Y-114301772D01*
X87588858Y-114318571D01*
X87582467Y-114322829D01*
X87551669Y-114345539D01*
X87515250Y-114375684D01*
X87479100Y-114408283D01*
X87463290Y-114423623D01*
X87385114Y-114513074D01*
X87321547Y-114609424D01*
X87272449Y-114711248D01*
X87237684Y-114817120D01*
X87217114Y-114925613D01*
X87210602Y-115035301D01*
X87218010Y-115144758D01*
X87239202Y-115252558D01*
X87274039Y-115357274D01*
X87322384Y-115457480D01*
X87384101Y-115551750D01*
X87459051Y-115638657D01*
X87547097Y-115716776D01*
X87590933Y-115748669D01*
X87614935Y-115765166D01*
X87632686Y-115777578D01*
X87640227Y-115783128D01*
X87636628Y-115790461D01*
X87624632Y-115807483D01*
X87606638Y-115830837D01*
X87602127Y-115836473D01*
X87555919Y-115902350D01*
X87513281Y-115979551D01*
X87477167Y-116062478D01*
X87465064Y-116096434D01*
X87435695Y-116210287D01*
X87422469Y-116324473D01*
X87424681Y-116437644D01*
X87441625Y-116548451D01*
X87472594Y-116655547D01*
X87516882Y-116757584D01*
X87573783Y-116853214D01*
X87642592Y-116941089D01*
X87722602Y-117019862D01*
X87813107Y-117088184D01*
X87913401Y-117144708D01*
X88022777Y-117188086D01*
X88039667Y-117193299D01*
X88069780Y-117202362D01*
X88092706Y-117209453D01*
X88104399Y-117213315D01*
X88105082Y-117213620D01*
X88103381Y-117221583D01*
X88097000Y-117240724D01*
X88089785Y-117260345D01*
X88056708Y-117370441D01*
X88038705Y-117485042D01*
X88035689Y-117601505D01*
X88047572Y-117717185D01*
X88074266Y-117829437D01*
X88111797Y-117927336D01*
X88169527Y-118032427D01*
X88240688Y-118127686D01*
X88324225Y-118212051D01*
X88419086Y-118284462D01*
X88524215Y-118343856D01*
X88526500Y-118344944D01*
X88600137Y-118376724D01*
X88670159Y-118399580D01*
X88742197Y-118414846D01*
X88821884Y-118423855D01*
X88871516Y-118426647D01*
X88987933Y-118431369D01*
X88987933Y-118505772D01*
X88995873Y-118628525D01*
X89019225Y-118746219D01*
X89057284Y-118857695D01*
X89109348Y-118961795D01*
X89174712Y-119057360D01*
X89252672Y-119143231D01*
X89342526Y-119218250D01*
X89443570Y-119281258D01*
X89465800Y-119292684D01*
X89570670Y-119336037D01*
X89680774Y-119365382D01*
X89793579Y-119380610D01*
X89906555Y-119381609D01*
X90017169Y-119368271D01*
X90122890Y-119340484D01*
X90168216Y-119323227D01*
X90189194Y-119315342D01*
X90202522Y-119312110D01*
X90204405Y-119312450D01*
X90208005Y-119321542D01*
X90214686Y-119342759D01*
X90223130Y-119371873D01*
X90224870Y-119378112D01*
X90260869Y-119478138D01*
X90311944Y-119575531D01*
X90376235Y-119667683D01*
X90451884Y-119751983D01*
X90537034Y-119825823D01*
X90551330Y-119836430D01*
X90647910Y-119896328D01*
X90751534Y-119941946D01*
X90860286Y-119973303D01*
X90972250Y-119990414D01*
X91085511Y-119993296D01*
X91198154Y-119981967D01*
X91308263Y-119956442D01*
X91413923Y-119916739D01*
X91513219Y-119862873D01*
X91563915Y-119827603D01*
X91590586Y-119807555D01*
X91612478Y-119791353D01*
X91625743Y-119781839D01*
X91627294Y-119780818D01*
X91635810Y-119784659D01*
X91650091Y-119799758D01*
X91667117Y-119822895D01*
X91667886Y-119824054D01*
X91738445Y-119915846D01*
X91821180Y-119997227D01*
X91914149Y-120066971D01*
X92015409Y-120123850D01*
X92123018Y-120166636D01*
X92235035Y-120194102D01*
X92259145Y-120197837D01*
X92341413Y-120204993D01*
X92427769Y-120204992D01*
X92509956Y-120197962D01*
X92537668Y-120193602D01*
X92646930Y-120165869D01*
X92752521Y-120123568D01*
X92852133Y-120068197D01*
X92943458Y-120001260D01*
X93024188Y-119924255D01*
X93092014Y-119838685D01*
X93098522Y-119828915D01*
X93114823Y-119804033D01*
X93127051Y-119785445D01*
X93132680Y-119776993D01*
X93132745Y-119776902D01*
X93139824Y-119780454D01*
X93157048Y-119792121D01*
X93181167Y-119809665D01*
X93190257Y-119816492D01*
X93290271Y-119882199D01*
X93395440Y-119932697D01*
X93504306Y-119968202D01*
X93615413Y-119988929D01*
X93727305Y-119995092D01*
X93838525Y-119986905D01*
X93947617Y-119964584D01*
X94053124Y-119928343D01*
X94153589Y-119878397D01*
X94247556Y-119814961D01*
X94333568Y-119738249D01*
X94410169Y-119648476D01*
X94419791Y-119635254D01*
X94449649Y-119588510D01*
X94480242Y-119532226D01*
X94508757Y-119472282D01*
X94532379Y-119414555D01*
X94547282Y-119368800D01*
X94554873Y-119340832D01*
X94560573Y-119320375D01*
X94563152Y-119311853D01*
X94563153Y-119311851D01*
X94570927Y-119313550D01*
X94589923Y-119319922D01*
X94609544Y-119327149D01*
X94690570Y-119353644D01*
X94771209Y-119370569D01*
X94857579Y-119378993D01*
X94914600Y-119380411D01*
X94983125Y-119379281D01*
X95040897Y-119374906D01*
X95093929Y-119366427D01*
X95148232Y-119352985D01*
X95185533Y-119341667D01*
X95292326Y-119298839D01*
X95392544Y-119241384D01*
X95484535Y-119170877D01*
X95566645Y-119088895D01*
X95637218Y-118997013D01*
X95694603Y-118896806D01*
X95723662Y-118828982D01*
X95752610Y-118739465D01*
X95770147Y-118653297D01*
X95777672Y-118562756D01*
X95778200Y-118527908D01*
X95778200Y-118431369D01*
X95894616Y-118426712D01*
X95963343Y-118422570D01*
X96021301Y-118415706D01*
X96074546Y-118405326D01*
X96093227Y-118400706D01*
X96204027Y-118363304D01*
X96309055Y-118310653D01*
X96406575Y-118243954D01*
X96494847Y-118164403D01*
X96572134Y-118073199D01*
X96576030Y-118067870D01*
X96635298Y-117972061D01*
X96680940Y-117868032D01*
X96712643Y-117758029D01*
X96730094Y-117644297D01*
X96732980Y-117529082D01*
X96720987Y-117414628D01*
X96693802Y-117303181D01*
X96685949Y-117279849D01*
X96661950Y-117212029D01*
X96729366Y-117192549D01*
X96834987Y-117153552D01*
X96936340Y-117099577D01*
X97030785Y-117032501D01*
X97115685Y-116954200D01*
X97188400Y-116866551D01*
X97189050Y-116865643D01*
X97221185Y-116815061D01*
X97253763Y-116753998D01*
X97283896Y-116688574D01*
X97308694Y-116624911D01*
X97320893Y-116586266D01*
X97327714Y-116559491D01*
X97332656Y-116533482D01*
X97336007Y-116504741D01*
X97338058Y-116469774D01*
X97339100Y-116425083D01*
X97339423Y-116367174D01*
X97339426Y-116363134D01*
X97339304Y-116306695D01*
X97338637Y-116263655D01*
X97337073Y-116230480D01*
X97334257Y-116203635D01*
X97329837Y-116179587D01*
X97323461Y-116154802D01*
X97316173Y-116130300D01*
X97273674Y-116016716D01*
X97218829Y-115912020D01*
X97176714Y-115849395D01*
X97126779Y-115782047D01*
X97178506Y-115748827D01*
X97244461Y-115699338D01*
X97309956Y-115637110D01*
X97371709Y-115566104D01*
X97426436Y-115490279D01*
X97470854Y-115413591D01*
X97488777Y-115374711D01*
X97510780Y-115319246D01*
X97527040Y-115270672D01*
X97538380Y-115224493D01*
X97545626Y-115176212D01*
X97549600Y-115121331D01*
X97551128Y-115055354D01*
X97551230Y-115033867D01*
X97550811Y-114969580D01*
X97548839Y-114917903D01*
X97544658Y-114874532D01*
X97537611Y-114835168D01*
X97527040Y-114795508D01*
X97512287Y-114751253D01*
X97504960Y-114731004D01*
X97463765Y-114639339D01*
X97409209Y-114549582D01*
X97344096Y-114465268D01*
X97271226Y-114389931D01*
X97193402Y-114327106D01*
X97174929Y-114314689D01*
X97124479Y-114282081D01*
X97156707Y-114243081D01*
X97214431Y-114162009D01*
X97264052Y-114069611D01*
X97303457Y-113970399D01*
X97329501Y-113873973D01*
X97338879Y-113809410D01*
X97343204Y-113735170D01*
X97342616Y-113656994D01*
X97337250Y-113580624D01*
X97327244Y-113511802D01*
X97320076Y-113480233D01*
X97303511Y-113428737D01*
X97279925Y-113369695D01*
X97252152Y-113309330D01*
X97223026Y-113253865D01*
X97199474Y-113215445D01*
X97137517Y-113136299D01*
X97063422Y-113062547D01*
X96980371Y-112996480D01*
X96891548Y-112940392D01*
X96800133Y-112896574D01*
X96747775Y-112879201D01*
X95404507Y-112879201D01*
X95396085Y-112990367D01*
X95373009Y-113100287D01*
X95336208Y-113206913D01*
X95286609Y-113308198D01*
X95225140Y-113402094D01*
X95152728Y-113486555D01*
X95070301Y-113559532D01*
X95024472Y-113591821D01*
X94976379Y-113622960D01*
X94971091Y-113797130D01*
X94966510Y-113904656D01*
X94959318Y-114001153D01*
X94948862Y-114092409D01*
X94934492Y-114184214D01*
X94917721Y-114271867D01*
X94871539Y-114457501D01*
X94809571Y-114642577D01*
X94732880Y-114824842D01*
X94642530Y-115002041D01*
X94539582Y-115171921D01*
X94425100Y-115332227D01*
X94406766Y-115355600D01*
X94362337Y-115408562D01*
X94307971Y-115468658D01*
X94247022Y-115532533D01*
X94182845Y-115596833D01*
X94118797Y-115658203D01*
X94058232Y-115713286D01*
X94004505Y-115758728D01*
X94000200Y-115762167D01*
X93831312Y-115885572D01*
X93653655Y-115994731D01*
X93468174Y-116089266D01*
X93275813Y-116168801D01*
X93077516Y-116232960D01*
X92874227Y-116281367D01*
X92666890Y-116313646D01*
X92598966Y-116320586D01*
X92548430Y-116323635D01*
X92485149Y-116325217D01*
X92413238Y-116325427D01*
X92336813Y-116324357D01*
X92259990Y-116322104D01*
X92186885Y-116318759D01*
X92121613Y-116314419D01*
X92068290Y-116309176D01*
X92061333Y-116308286D01*
X91850537Y-116271987D01*
X91646458Y-116220246D01*
X91449435Y-116153229D01*
X91259806Y-116071101D01*
X91077910Y-115974029D01*
X90904086Y-115862179D01*
X90738673Y-115735717D01*
X90582009Y-115594808D01*
X90558346Y-115571500D01*
X90414795Y-115416723D01*
X90285622Y-115253178D01*
X90171050Y-115081390D01*
X90071300Y-114901884D01*
X89986594Y-114715184D01*
X89917155Y-114521814D01*
X89863205Y-114322300D01*
X89824966Y-114117166D01*
X89802659Y-113906937D01*
X89796905Y-113773072D01*
X89794086Y-113625644D01*
X89744493Y-113592586D01*
X89704260Y-113562321D01*
X89658595Y-113522445D01*
X89611820Y-113477187D01*
X89568255Y-113430780D01*
X89532220Y-113387455D01*
X89524732Y-113377376D01*
X89503966Y-113345665D01*
X89480428Y-113305253D01*
X89458032Y-113262997D01*
X89449811Y-113246143D01*
X89406139Y-113135052D01*
X89378580Y-113022525D01*
X89366533Y-112909839D01*
X89369396Y-112798268D01*
X89386567Y-112689087D01*
X89417446Y-112583571D01*
X89461430Y-112482996D01*
X89517918Y-112388638D01*
X89586308Y-112301770D01*
X89665999Y-112223669D01*
X89756389Y-112155610D01*
X89856877Y-112098868D01*
X89966860Y-112054717D01*
X90019124Y-112039341D01*
X90058908Y-112029765D01*
X90095408Y-112023320D01*
X90134096Y-112019389D01*
X90180442Y-112017357D01*
X90219833Y-112016740D01*
X90273333Y-112017163D01*
X90321975Y-112019225D01*
X90361491Y-112022676D01*
X90384159Y-112026381D01*
X90429951Y-112037064D01*
X90540719Y-111925434D01*
X90674249Y-111798530D01*
X90809386Y-111685976D01*
X90949547Y-111585288D01*
X91098146Y-111493978D01*
X91230622Y-111423392D01*
X91419985Y-111337937D01*
X91613986Y-111268502D01*
X91811726Y-111215104D01*
X92012306Y-111177757D01*
X92214828Y-111156481D01*
X92418394Y-111151290D01*
X92622103Y-111162203D01*
X92825059Y-111189235D01*
X93026361Y-111232403D01*
X93225112Y-111291725D01*
X93420412Y-111367216D01*
X93454038Y-111382033D01*
X93635381Y-111472651D01*
X93809363Y-111578429D01*
X93976092Y-111699444D01*
X94135677Y-111835773D01*
X94217877Y-111914740D01*
X94338188Y-112034979D01*
X94421077Y-112022314D01*
X94535099Y-112013300D01*
X94649489Y-112020415D01*
X94762229Y-112043028D01*
X94871298Y-112080503D01*
X94974677Y-112132208D01*
X95070346Y-112197508D01*
X95122646Y-112242427D01*
X95207914Y-112332604D01*
X95277670Y-112429421D01*
X95332216Y-112533450D01*
X95371849Y-112645264D01*
X95396869Y-112765436D01*
X95397349Y-112768836D01*
X95404507Y-112879201D01*
X96747775Y-112879201D01*
X96719737Y-112869898D01*
X96661998Y-112855024D01*
X96689574Y-112773929D01*
X96719960Y-112659009D01*
X96734027Y-112542698D01*
X96732128Y-112426572D01*
X96714615Y-112312212D01*
X96681839Y-112201195D01*
X96634154Y-112095101D01*
X96571910Y-111995507D01*
X96495528Y-111904063D01*
X96407976Y-111822727D01*
X96315996Y-111757174D01*
X96218208Y-111706790D01*
X96113231Y-111670962D01*
X95999686Y-111649078D01*
X95904099Y-111641285D01*
X95780232Y-111636498D01*
X95775944Y-111512732D01*
X95766644Y-111401502D01*
X95746143Y-111300299D01*
X95713335Y-111205555D01*
X95667111Y-111113701D01*
X95637219Y-111065612D01*
X95579289Y-110990093D01*
X95508428Y-110917583D01*
X95428634Y-110851418D01*
X95343906Y-110794935D01*
X95263368Y-110753664D01*
X95193377Y-110726116D01*
X95127382Y-110706728D01*
X95060005Y-110694458D01*
X94985865Y-110688264D01*
X94918833Y-110686983D01*
X94821029Y-110690588D01*
X94735908Y-110701370D01*
X94660592Y-110719824D01*
X94603099Y-110741486D01*
X94580936Y-110750791D01*
X94566555Y-110755877D01*
X94563676Y-110756186D01*
X94560974Y-110747600D01*
X94554814Y-110726698D01*
X94546361Y-110697453D01*
X94543374Y-110687020D01*
X94503372Y-110577306D01*
X94448621Y-110474894D01*
X94380180Y-110381022D01*
X94299109Y-110296928D01*
X94206469Y-110223851D01*
X94103319Y-110163027D01*
X94088365Y-110155687D01*
X94029947Y-110128930D01*
X93978770Y-110108916D01*
X93930450Y-110094709D01*
X93880603Y-110085373D01*
X93824845Y-110079971D01*
X93758791Y-110077568D01*
X93720800Y-110077199D01*
X93663782Y-110077253D01*
X93619890Y-110078126D01*
X93585323Y-110080144D01*
X93556281Y-110083631D01*
X93528963Y-110088912D01*
X93500667Y-110096016D01*
X93444261Y-110114369D01*
X93381885Y-110139902D01*
X93318531Y-110170151D01*
X93259189Y-110202650D01*
X93208851Y-110234932D01*
X93188716Y-110250142D01*
X93163839Y-110269883D01*
X93144647Y-110284253D01*
X93134303Y-110290912D01*
X93133375Y-110291027D01*
X93082937Y-110216667D01*
X93022110Y-110143853D01*
X92954851Y-110076668D01*
X92885119Y-110019189D01*
X92840340Y-109988966D01*
X92734610Y-109933914D01*
X92623552Y-109893997D01*
X92508969Y-109869319D01*
X92392666Y-109859987D01*
X92276447Y-109866108D01*
G37*
X92276447Y-109866108D02*
X92162117Y-109887787D01*
X92051478Y-109925131D01*
X92016903Y-109940523D01*
X91959015Y-109971565D01*
X91897196Y-110010846D01*
X91838435Y-110053663D01*
X91796721Y-110088762D01*
X91769129Y-110116699D01*
X91736300Y-110153887D01*
X91702249Y-110195395D01*
X91670988Y-110236290D01*
X91646533Y-110271640D01*
X91642233Y-110278567D01*
X91636128Y-110284992D01*
X91627150Y-110284053D01*
X91611865Y-110274383D01*
X91591433Y-110258346D01*
X91503178Y-110196843D01*
X91404091Y-110145600D01*
X91297990Y-110106393D01*
X91223246Y-110087399D01*
X91185000Y-110080274D01*
X91149485Y-110075820D01*
X91111564Y-110073722D01*
X91066097Y-110073665D01*
X91019933Y-110074907D01*
X90932441Y-110080780D01*
X90855462Y-110092799D01*
X90783278Y-110112287D01*
X90710167Y-110140571D01*
X90682970Y-110152949D01*
X90584727Y-110208147D01*
X90493746Y-110277047D01*
X90411715Y-110357610D01*
X90340321Y-110447800D01*
X90281252Y-110545577D01*
X90236197Y-110648904D01*
X90215365Y-110717525D01*
X90205565Y-110756445D01*
X90138252Y-110731879D01*
X90030144Y-110701196D01*
X89917260Y-110685563D01*
X89802332Y-110684853D01*
X89688091Y-110698937D01*
X89577268Y-110727688D01*
X89490662Y-110762210D01*
X89410046Y-110803938D01*
X89340492Y-110849189D01*
X89276137Y-110902035D01*
X89241290Y-110935357D01*
X89183694Y-110998050D01*
X89135455Y-111062739D01*
X89092595Y-111135149D01*
X89067608Y-111185097D01*
X89037292Y-111256664D01*
X89015414Y-111327307D01*
X89000808Y-111402120D01*
X88992309Y-111486197D01*
X88990410Y-111522317D01*
X88985565Y-111638734D01*
X88894551Y-111638733D01*
X88773704Y-111646866D01*
X88657765Y-111670773D01*
X88547882Y-111709719D01*
X88445202Y-111762966D01*
X88350875Y-111829779D01*
X88266048Y-111909421D01*
X88191870Y-112001157D01*
X88129488Y-112104250D01*
X88111619Y-112140783D01*
X88071467Y-112247243D01*
X88045952Y-112359456D01*
X88035178Y-112474679D01*
X88039247Y-112590175D01*
X88058262Y-112703204D01*
X88087014Y-112797323D01*
X88096956Y-112824813D01*
X88103554Y-112845173D01*
X88105443Y-112854174D01*
X88105393Y-112854247D01*
X88096700Y-112857291D01*
X88076060Y-112863173D01*
X88048133Y-112870568D01*
X87949376Y-112904307D01*
X87853595Y-112953145D01*
X87762838Y-113015271D01*
X87679156Y-113088876D01*
X87604598Y-113172150D01*
X87541215Y-113263283D01*
X87491055Y-113360466D01*
X87489710Y-113363611D01*
X87464096Y-113429929D01*
X87445944Y-113492699D01*
X87434310Y-113557023D01*
X87428254Y-113628004D01*
X87426803Y-113704600D01*
X87427362Y-113758804D01*
X87428914Y-113800756D01*
X87431958Y-113835132D01*
X87436996Y-113866607D01*
X87444526Y-113899856D01*
X87449886Y-113920500D01*
X87482153Y-114016399D01*
X87526507Y-114111254D01*
X87579697Y-114198368D01*
X87595379Y-114219995D01*
X87615625Y-114247357D01*
X87630941Y-114269054D01*
X87639197Y-114282018D01*
X87639983Y-114284301D01*
X87632262Y-114289549D01*
X87614025Y-114301772D01*
X87588858Y-114318571D01*
X87582467Y-114322829D01*
X87551669Y-114345539D01*
X87515250Y-114375684D01*
X87479100Y-114408283D01*
X87463290Y-114423623D01*
X87385114Y-114513074D01*
X87321547Y-114609424D01*
X87272449Y-114711248D01*
X87237684Y-114817120D01*
X87217114Y-114925613D01*
X87210602Y-115035301D01*
X87218010Y-115144758D01*
X87239202Y-115252558D01*
X87274039Y-115357274D01*
X87322384Y-115457480D01*
X87384101Y-115551750D01*
X87459051Y-115638657D01*
X87547097Y-115716776D01*
X87590933Y-115748669D01*
X87614935Y-115765166D01*
X87632686Y-115777578D01*
X87640227Y-115783128D01*
X87636628Y-115790461D01*
X87624632Y-115807483D01*
X87606638Y-115830837D01*
X87602127Y-115836473D01*
X87555919Y-115902350D01*
X87513281Y-115979551D01*
X87477167Y-116062478D01*
X87465064Y-116096434D01*
X87435695Y-116210287D01*
X87422469Y-116324473D01*
X87424681Y-116437644D01*
X87441625Y-116548451D01*
X87472594Y-116655547D01*
X87516882Y-116757584D01*
X87573783Y-116853214D01*
X87642592Y-116941089D01*
X87722602Y-117019862D01*
X87813107Y-117088184D01*
X87913401Y-117144708D01*
X88022777Y-117188086D01*
X88039667Y-117193299D01*
X88069780Y-117202362D01*
X88092706Y-117209453D01*
X88104399Y-117213315D01*
X88105082Y-117213620D01*
X88103381Y-117221583D01*
X88097000Y-117240724D01*
X88089785Y-117260345D01*
X88056708Y-117370441D01*
X88038705Y-117485042D01*
X88035689Y-117601505D01*
X88047572Y-117717185D01*
X88074266Y-117829437D01*
X88111797Y-117927336D01*
X88169527Y-118032427D01*
X88240688Y-118127686D01*
X88324225Y-118212051D01*
X88419086Y-118284462D01*
X88524215Y-118343856D01*
X88526500Y-118344944D01*
X88600137Y-118376724D01*
X88670159Y-118399580D01*
X88742197Y-118414846D01*
X88821884Y-118423855D01*
X88871516Y-118426647D01*
X88987933Y-118431369D01*
X88987933Y-118505772D01*
X88995873Y-118628525D01*
X89019225Y-118746219D01*
X89057284Y-118857695D01*
X89109348Y-118961795D01*
X89174712Y-119057360D01*
X89252672Y-119143231D01*
X89342526Y-119218250D01*
X89443570Y-119281258D01*
X89465800Y-119292684D01*
X89570670Y-119336037D01*
X89680774Y-119365382D01*
X89793579Y-119380610D01*
X89906555Y-119381609D01*
X90017169Y-119368271D01*
X90122890Y-119340484D01*
X90168216Y-119323227D01*
X90189194Y-119315342D01*
X90202522Y-119312110D01*
X90204405Y-119312450D01*
X90208005Y-119321542D01*
X90214686Y-119342759D01*
X90223130Y-119371873D01*
X90224870Y-119378112D01*
X90260869Y-119478138D01*
X90311944Y-119575531D01*
X90376235Y-119667683D01*
X90451884Y-119751983D01*
X90537034Y-119825823D01*
X90551330Y-119836430D01*
X90647910Y-119896328D01*
X90751534Y-119941946D01*
X90860286Y-119973303D01*
X90972250Y-119990414D01*
X91085511Y-119993296D01*
X91198154Y-119981967D01*
X91308263Y-119956442D01*
X91413923Y-119916739D01*
X91513219Y-119862873D01*
X91563915Y-119827603D01*
X91590586Y-119807555D01*
X91612478Y-119791353D01*
X91625743Y-119781839D01*
X91627294Y-119780818D01*
X91635810Y-119784659D01*
X91650091Y-119799758D01*
X91667117Y-119822895D01*
X91667886Y-119824054D01*
X91738445Y-119915846D01*
X91821180Y-119997227D01*
X91914149Y-120066971D01*
X92015409Y-120123850D01*
X92123018Y-120166636D01*
X92235035Y-120194102D01*
X92259145Y-120197837D01*
X92341413Y-120204993D01*
X92427769Y-120204992D01*
X92509956Y-120197962D01*
X92537668Y-120193602D01*
X92646930Y-120165869D01*
X92752521Y-120123568D01*
X92852133Y-120068197D01*
X92943458Y-120001260D01*
X93024188Y-119924255D01*
X93092014Y-119838685D01*
X93098522Y-119828915D01*
X93114823Y-119804033D01*
X93127051Y-119785445D01*
X93132680Y-119776993D01*
X93132745Y-119776902D01*
X93139824Y-119780454D01*
X93157048Y-119792121D01*
X93181167Y-119809665D01*
X93190257Y-119816492D01*
X93290271Y-119882199D01*
X93395440Y-119932697D01*
X93504306Y-119968202D01*
X93615413Y-119988929D01*
X93727305Y-119995092D01*
X93838525Y-119986905D01*
X93947617Y-119964584D01*
X94053124Y-119928343D01*
X94153589Y-119878397D01*
X94247556Y-119814961D01*
X94333568Y-119738249D01*
X94410169Y-119648476D01*
X94419791Y-119635254D01*
X94449649Y-119588510D01*
X94480242Y-119532226D01*
X94508757Y-119472282D01*
X94532379Y-119414555D01*
X94547282Y-119368800D01*
X94554873Y-119340832D01*
X94560573Y-119320375D01*
X94563152Y-119311853D01*
X94563153Y-119311851D01*
X94570927Y-119313550D01*
X94589923Y-119319922D01*
X94609544Y-119327149D01*
X94690570Y-119353644D01*
X94771209Y-119370569D01*
X94857579Y-119378993D01*
X94914600Y-119380411D01*
X94983125Y-119379281D01*
X95040897Y-119374906D01*
X95093929Y-119366427D01*
X95148232Y-119352985D01*
X95185533Y-119341667D01*
X95292326Y-119298839D01*
X95392544Y-119241384D01*
X95484535Y-119170877D01*
X95566645Y-119088895D01*
X95637218Y-118997013D01*
X95694603Y-118896806D01*
X95723662Y-118828982D01*
X95752610Y-118739465D01*
X95770147Y-118653297D01*
X95777672Y-118562756D01*
X95778200Y-118527908D01*
X95778200Y-118431369D01*
X95894616Y-118426712D01*
X95963343Y-118422570D01*
X96021301Y-118415706D01*
X96074546Y-118405326D01*
X96093227Y-118400706D01*
X96204027Y-118363304D01*
X96309055Y-118310653D01*
X96406575Y-118243954D01*
X96494847Y-118164403D01*
X96572134Y-118073199D01*
X96576030Y-118067870D01*
X96635298Y-117972061D01*
X96680940Y-117868032D01*
X96712643Y-117758029D01*
X96730094Y-117644297D01*
X96732980Y-117529082D01*
X96720987Y-117414628D01*
X96693802Y-117303181D01*
X96685949Y-117279849D01*
X96661950Y-117212029D01*
X96729366Y-117192549D01*
X96834987Y-117153552D01*
X96936340Y-117099577D01*
X97030785Y-117032501D01*
X97115685Y-116954200D01*
X97188400Y-116866551D01*
X97189050Y-116865643D01*
X97221185Y-116815061D01*
X97253763Y-116753998D01*
X97283896Y-116688574D01*
X97308694Y-116624911D01*
X97320893Y-116586266D01*
X97327714Y-116559491D01*
X97332656Y-116533482D01*
X97336007Y-116504741D01*
X97338058Y-116469774D01*
X97339100Y-116425083D01*
X97339423Y-116367174D01*
X97339426Y-116363134D01*
X97339304Y-116306695D01*
X97338637Y-116263655D01*
X97337073Y-116230480D01*
X97334257Y-116203635D01*
X97329837Y-116179587D01*
X97323461Y-116154802D01*
X97316173Y-116130300D01*
X97273674Y-116016716D01*
X97218829Y-115912020D01*
X97176714Y-115849395D01*
X97126779Y-115782047D01*
X97178506Y-115748827D01*
X97244461Y-115699338D01*
X97309956Y-115637110D01*
X97371709Y-115566104D01*
X97426436Y-115490279D01*
X97470854Y-115413591D01*
X97488777Y-115374711D01*
X97510780Y-115319246D01*
X97527040Y-115270672D01*
X97538380Y-115224493D01*
X97545626Y-115176212D01*
X97549600Y-115121331D01*
X97551128Y-115055354D01*
X97551230Y-115033867D01*
X97550811Y-114969580D01*
X97548839Y-114917903D01*
X97544658Y-114874532D01*
X97537611Y-114835168D01*
X97527040Y-114795508D01*
X97512287Y-114751253D01*
X97504960Y-114731004D01*
X97463765Y-114639339D01*
X97409209Y-114549582D01*
X97344096Y-114465268D01*
X97271226Y-114389931D01*
X97193402Y-114327106D01*
X97174929Y-114314689D01*
X97124479Y-114282081D01*
X97156707Y-114243081D01*
X97214431Y-114162009D01*
X97264052Y-114069611D01*
X97303457Y-113970399D01*
X97329501Y-113873973D01*
X97338879Y-113809410D01*
X97343204Y-113735170D01*
X97342616Y-113656994D01*
X97337250Y-113580624D01*
X97327244Y-113511802D01*
X97320076Y-113480233D01*
X97303511Y-113428737D01*
X97279925Y-113369695D01*
X97252152Y-113309330D01*
X97223026Y-113253865D01*
X97199474Y-113215445D01*
X97137517Y-113136299D01*
X97063422Y-113062547D01*
X96980371Y-112996480D01*
X96891548Y-112940392D01*
X96800133Y-112896574D01*
X96747775Y-112879201D01*
X95404507Y-112879201D01*
X95396085Y-112990367D01*
X95373009Y-113100287D01*
X95336208Y-113206913D01*
X95286609Y-113308198D01*
X95225140Y-113402094D01*
X95152728Y-113486555D01*
X95070301Y-113559532D01*
X95024472Y-113591821D01*
X94976379Y-113622960D01*
X94971091Y-113797130D01*
X94966510Y-113904656D01*
X94959318Y-114001153D01*
X94948862Y-114092409D01*
X94934492Y-114184214D01*
X94917721Y-114271867D01*
X94871539Y-114457501D01*
X94809571Y-114642577D01*
X94732880Y-114824842D01*
X94642530Y-115002041D01*
X94539582Y-115171921D01*
X94425100Y-115332227D01*
X94406766Y-115355600D01*
X94362337Y-115408562D01*
X94307971Y-115468658D01*
X94247022Y-115532533D01*
X94182845Y-115596833D01*
X94118797Y-115658203D01*
X94058232Y-115713286D01*
X94004505Y-115758728D01*
X94000200Y-115762167D01*
X93831312Y-115885572D01*
X93653655Y-115994731D01*
X93468174Y-116089266D01*
X93275813Y-116168801D01*
X93077516Y-116232960D01*
X92874227Y-116281367D01*
X92666890Y-116313646D01*
X92598966Y-116320586D01*
X92548430Y-116323635D01*
X92485149Y-116325217D01*
X92413238Y-116325427D01*
X92336813Y-116324357D01*
X92259990Y-116322104D01*
X92186885Y-116318759D01*
X92121613Y-116314419D01*
X92068290Y-116309176D01*
X92061333Y-116308286D01*
X91850537Y-116271987D01*
X91646458Y-116220246D01*
X91449435Y-116153229D01*
X91259806Y-116071101D01*
X91077910Y-115974029D01*
X90904086Y-115862179D01*
X90738673Y-115735717D01*
X90582009Y-115594808D01*
X90558346Y-115571500D01*
X90414795Y-115416723D01*
X90285622Y-115253178D01*
X90171050Y-115081390D01*
X90071300Y-114901884D01*
X89986594Y-114715184D01*
X89917155Y-114521814D01*
X89863205Y-114322300D01*
X89824966Y-114117166D01*
X89802659Y-113906937D01*
X89796905Y-113773072D01*
X89794086Y-113625644D01*
X89744493Y-113592586D01*
X89704260Y-113562321D01*
X89658595Y-113522445D01*
X89611820Y-113477187D01*
X89568255Y-113430780D01*
X89532220Y-113387455D01*
X89524732Y-113377376D01*
X89503966Y-113345665D01*
X89480428Y-113305253D01*
X89458032Y-113262997D01*
X89449811Y-113246143D01*
X89406139Y-113135052D01*
X89378580Y-113022525D01*
X89366533Y-112909839D01*
X89369396Y-112798268D01*
X89386567Y-112689087D01*
X89417446Y-112583571D01*
X89461430Y-112482996D01*
X89517918Y-112388638D01*
X89586308Y-112301770D01*
X89665999Y-112223669D01*
X89756389Y-112155610D01*
X89856877Y-112098868D01*
X89966860Y-112054717D01*
X90019124Y-112039341D01*
X90058908Y-112029765D01*
X90095408Y-112023320D01*
X90134096Y-112019389D01*
X90180442Y-112017357D01*
X90219833Y-112016740D01*
X90273333Y-112017163D01*
X90321975Y-112019225D01*
X90361491Y-112022676D01*
X90384159Y-112026381D01*
X90429951Y-112037064D01*
X90540719Y-111925434D01*
X90674249Y-111798530D01*
X90809386Y-111685976D01*
X90949547Y-111585288D01*
X91098146Y-111493978D01*
X91230622Y-111423392D01*
X91419985Y-111337937D01*
X91613986Y-111268502D01*
X91811726Y-111215104D01*
X92012306Y-111177757D01*
X92214828Y-111156481D01*
X92418394Y-111151290D01*
X92622103Y-111162203D01*
X92825059Y-111189235D01*
X93026361Y-111232403D01*
X93225112Y-111291725D01*
X93420412Y-111367216D01*
X93454038Y-111382033D01*
X93635381Y-111472651D01*
X93809363Y-111578429D01*
X93976092Y-111699444D01*
X94135677Y-111835773D01*
X94217877Y-111914740D01*
X94338188Y-112034979D01*
X94421077Y-112022314D01*
X94535099Y-112013300D01*
X94649489Y-112020415D01*
X94762229Y-112043028D01*
X94871298Y-112080503D01*
X94974677Y-112132208D01*
X95070346Y-112197508D01*
X95122646Y-112242427D01*
X95207914Y-112332604D01*
X95277670Y-112429421D01*
X95332216Y-112533450D01*
X95371849Y-112645264D01*
X95396869Y-112765436D01*
X95397349Y-112768836D01*
X95404507Y-112879201D01*
X96747775Y-112879201D01*
X96719737Y-112869898D01*
X96661998Y-112855024D01*
X96689574Y-112773929D01*
X96719960Y-112659009D01*
X96734027Y-112542698D01*
X96732128Y-112426572D01*
X96714615Y-112312212D01*
X96681839Y-112201195D01*
X96634154Y-112095101D01*
X96571910Y-111995507D01*
X96495528Y-111904063D01*
X96407976Y-111822727D01*
X96315996Y-111757174D01*
X96218208Y-111706790D01*
X96113231Y-111670962D01*
X95999686Y-111649078D01*
X95904099Y-111641285D01*
X95780232Y-111636498D01*
X95775944Y-111512732D01*
X95766644Y-111401502D01*
X95746143Y-111300299D01*
X95713335Y-111205555D01*
X95667111Y-111113701D01*
X95637219Y-111065612D01*
X95579289Y-110990093D01*
X95508428Y-110917583D01*
X95428634Y-110851418D01*
X95343906Y-110794935D01*
X95263368Y-110753664D01*
X95193377Y-110726116D01*
X95127382Y-110706728D01*
X95060005Y-110694458D01*
X94985865Y-110688264D01*
X94918833Y-110686983D01*
X94821029Y-110690588D01*
X94735908Y-110701370D01*
X94660592Y-110719824D01*
X94603099Y-110741486D01*
X94580936Y-110750791D01*
X94566555Y-110755877D01*
X94563676Y-110756186D01*
X94560974Y-110747600D01*
X94554814Y-110726698D01*
X94546361Y-110697453D01*
X94543374Y-110687020D01*
X94503372Y-110577306D01*
X94448621Y-110474894D01*
X94380180Y-110381022D01*
X94299109Y-110296928D01*
X94206469Y-110223851D01*
X94103319Y-110163027D01*
X94088365Y-110155687D01*
X94029947Y-110128930D01*
X93978770Y-110108916D01*
X93930450Y-110094709D01*
X93880603Y-110085373D01*
X93824845Y-110079971D01*
X93758791Y-110077568D01*
X93720800Y-110077199D01*
X93663782Y-110077253D01*
X93619890Y-110078126D01*
X93585323Y-110080144D01*
X93556281Y-110083631D01*
X93528963Y-110088912D01*
X93500667Y-110096016D01*
X93444261Y-110114369D01*
X93381885Y-110139902D01*
X93318531Y-110170151D01*
X93259189Y-110202650D01*
X93208851Y-110234932D01*
X93188716Y-110250142D01*
X93163839Y-110269883D01*
X93144647Y-110284253D01*
X93134303Y-110290912D01*
X93133375Y-110291027D01*
X93082937Y-110216667D01*
X93022110Y-110143853D01*
X92954851Y-110076668D01*
X92885119Y-110019189D01*
X92840340Y-109988966D01*
X92734610Y-109933914D01*
X92623552Y-109893997D01*
X92508969Y-109869319D01*
X92392666Y-109859987D01*
X92276447Y-109866108D01*
G36*
X93208366Y-112881128D02*
G01*
X93151310Y-112888049D01*
X93106967Y-112899479D01*
X93031468Y-112935019D01*
X92964244Y-112983718D01*
X92907674Y-113043469D01*
X92864138Y-113112168D01*
X92862278Y-113115941D01*
X92830666Y-113197424D01*
X92815884Y-113277813D01*
X92817931Y-113357884D01*
X92836811Y-113438414D01*
X92862905Y-113501400D01*
X92904845Y-113568804D01*
X92959312Y-113627831D01*
X93023456Y-113676236D01*
X93094424Y-113711772D01*
X93151833Y-113728934D01*
X93200040Y-113735533D01*
X93254758Y-113737340D01*
X93308681Y-113734465D01*
X93354500Y-113727021D01*
X93359377Y-113725753D01*
X93435442Y-113696495D01*
X93503946Y-113653690D01*
X93563324Y-113599368D01*
X93612013Y-113535561D01*
X93648450Y-113464301D01*
X93671072Y-113387620D01*
X93678341Y-113311238D01*
X93670092Y-113226054D01*
X93646507Y-113146438D01*
X93608691Y-113073898D01*
X93557747Y-113009941D01*
X93494780Y-112956073D01*
X93420892Y-112913802D01*
X93373667Y-112895259D01*
X93325903Y-112884632D01*
X93268683Y-112879955D01*
X93208366Y-112881128D01*
G37*
X93208366Y-112881128D02*
X93151310Y-112888049D01*
X93106967Y-112899479D01*
X93031468Y-112935019D01*
X92964244Y-112983718D01*
X92907674Y-113043469D01*
X92864138Y-113112168D01*
X92862278Y-113115941D01*
X92830666Y-113197424D01*
X92815884Y-113277813D01*
X92817931Y-113357884D01*
X92836811Y-113438414D01*
X92862905Y-113501400D01*
X92904845Y-113568804D01*
X92959312Y-113627831D01*
X93023456Y-113676236D01*
X93094424Y-113711772D01*
X93151833Y-113728934D01*
X93200040Y-113735533D01*
X93254758Y-113737340D01*
X93308681Y-113734465D01*
X93354500Y-113727021D01*
X93359377Y-113725753D01*
X93435442Y-113696495D01*
X93503946Y-113653690D01*
X93563324Y-113599368D01*
X93612013Y-113535561D01*
X93648450Y-113464301D01*
X93671072Y-113387620D01*
X93678341Y-113311238D01*
X93670092Y-113226054D01*
X93646507Y-113146438D01*
X93608691Y-113073898D01*
X93557747Y-113009941D01*
X93494780Y-112956073D01*
X93420892Y-112913802D01*
X93373667Y-112895259D01*
X93325903Y-112884632D01*
X93268683Y-112879955D01*
X93208366Y-112881128D01*
G36*
X91475702Y-112880404D02*
G01*
X91398360Y-112896162D01*
X91325283Y-112925636D01*
X91258469Y-112968129D01*
X91199918Y-113022945D01*
X91151631Y-113089387D01*
X91133050Y-113124433D01*
X91104697Y-113202761D01*
X91092158Y-113282165D01*
X91094567Y-113360799D01*
X91111058Y-113436819D01*
X91140766Y-113508378D01*
X91182824Y-113573631D01*
X91236367Y-113630733D01*
X91300530Y-113677837D01*
X91374446Y-113713099D01*
X91415154Y-113725807D01*
X91467646Y-113734694D01*
X91527820Y-113737412D01*
X91587717Y-113733988D01*
X91637114Y-113725068D01*
X91710611Y-113696837D01*
X91778467Y-113654309D01*
X91838301Y-113599803D01*
X91887731Y-113535638D01*
X91924375Y-113464135D01*
X91934458Y-113435502D01*
X91945318Y-113384812D01*
X91950607Y-113325574D01*
X91950078Y-113265315D01*
X91943481Y-113211562D01*
X91942078Y-113205067D01*
X91917480Y-113133968D01*
X91878444Y-113066435D01*
X91827458Y-113005544D01*
X91767009Y-112954367D01*
X91713308Y-112922387D01*
X91635175Y-112892820D01*
X91555306Y-112879058D01*
X91475702Y-112880404D01*
G37*
X91475702Y-112880404D02*
X91398360Y-112896162D01*
X91325283Y-112925636D01*
X91258469Y-112968129D01*
X91199918Y-113022945D01*
X91151631Y-113089387D01*
X91133050Y-113124433D01*
X91104697Y-113202761D01*
X91092158Y-113282165D01*
X91094567Y-113360799D01*
X91111058Y-113436819D01*
X91140766Y-113508378D01*
X91182824Y-113573631D01*
X91236367Y-113630733D01*
X91300530Y-113677837D01*
X91374446Y-113713099D01*
X91415154Y-113725807D01*
X91467646Y-113734694D01*
X91527820Y-113737412D01*
X91587717Y-113733988D01*
X91637114Y-113725068D01*
X91710611Y-113696837D01*
X91778467Y-113654309D01*
X91838301Y-113599803D01*
X91887731Y-113535638D01*
X91924375Y-113464135D01*
X91934458Y-113435502D01*
X91945318Y-113384812D01*
X91950607Y-113325574D01*
X91950078Y-113265315D01*
X91943481Y-113211562D01*
X91942078Y-113205067D01*
X91917480Y-113133968D01*
X91878444Y-113066435D01*
X91827458Y-113005544D01*
X91767009Y-112954367D01*
X91713308Y-112922387D01*
X91635175Y-112892820D01*
X91555306Y-112879058D01*
X91475702Y-112880404D01*
D13*
%TO.C,D3*%
X114460000Y-53140000D02*
X114460000Y-56000000D01*
X112540000Y-53140000D02*
X114460000Y-53140000D01*
X112540000Y-56000000D02*
X112540000Y-53140000D01*
%TO.C,D2*%
X111460000Y-53140000D02*
X111460000Y-56000000D01*
X109540000Y-53140000D02*
X111460000Y-53140000D01*
X109540000Y-56000000D02*
X109540000Y-53140000D01*
%TO.C,D1*%
X108460000Y-53140000D02*
X108460000Y-56000000D01*
X106540000Y-53140000D02*
X108460000Y-53140000D01*
X106540000Y-56000000D02*
X106540000Y-53140000D01*
%TO.C,SW4*%
X92500000Y-84000000D02*
X92500000Y-83000000D01*
X93000000Y-83500000D02*
X92000000Y-83500000D01*
X88800000Y-76800000D02*
X86200000Y-76800000D01*
X93800000Y-76800000D02*
X91200000Y-76800000D01*
X98800000Y-76800000D02*
X96200000Y-76800000D01*
X98800000Y-90200000D02*
X96300000Y-90200000D01*
X98800000Y-85400000D02*
X98800000Y-90200000D01*
X86200000Y-90200000D02*
X89000000Y-90200000D01*
X86200000Y-85300000D02*
X86200000Y-90200000D01*
X86200000Y-76800000D02*
X86200000Y-81700000D01*
X98800000Y-81700000D02*
X98800000Y-76800000D01*
X95500000Y-83500000D02*
G75*
G03*
X95500000Y-83500000I-3000000J0D01*
G01*
%TO.C,SW3*%
X167500000Y-84000000D02*
X167500000Y-83000000D01*
X168000000Y-83500000D02*
X167000000Y-83500000D01*
X163800000Y-76800000D02*
X161200000Y-76800000D01*
X168800000Y-76800000D02*
X166200000Y-76800000D01*
X173800000Y-76800000D02*
X171200000Y-76800000D01*
X173800000Y-90200000D02*
X171300000Y-90200000D01*
X173800000Y-85400000D02*
X173800000Y-90200000D01*
X161200000Y-90200000D02*
X164000000Y-90200000D01*
X161200000Y-85300000D02*
X161200000Y-90200000D01*
X161200000Y-76800000D02*
X161200000Y-81700000D01*
X173800000Y-81700000D02*
X173800000Y-76800000D01*
X170500000Y-83500000D02*
G75*
G03*
X170500000Y-83500000I-3000000J0D01*
G01*
%TO.C,DS1*%
D14*
X142000000Y-88278571D02*
X142000000Y-87135714D01*
X142285714Y-87421428D02*
X142000000Y-87135714D01*
X141714285Y-87421428D01*
%TO.C,J8*%
X137600000Y-62978571D02*
X137600000Y-61835714D01*
X137885714Y-62121428D02*
X137600000Y-61835714D01*
X137314285Y-62121428D01*
%TD*%
M02*
