M48
; DRILL file {KiCad (5.1.8-0-10_14)} date Monday, November 08, 2021 at 07:41:06 PM
; FORMAT={3:3/ absolute / metric / suppress leading zeros}
; #@! TF.CreationDate,2021-11-08T19:41:06+01:00
; #@! TF.GenerationSoftware,Kicad,Pcbnew,(5.1.8-0-10_14)
FMAT,2
METRIC,TZ
T1C0.200
T2C0.500
T3C0.650
T4C0.700
T5C0.950
T6C1.000
T7C1.900
T8C2.000
T9C2.300
T10C3.200
T11C0.762
T12C1.250
%
G90
G05
T1
X85400Y-110900
X85400Y-126400
X89851Y-134937
X90000Y-87200
X91000Y-87200
X91210Y-134886
X91400Y-133000
X92400Y-110800
X92400Y-125500
X92700Y-115300
X92700Y-117600
X94000Y-77600
X94000Y-87200
X95000Y-87200
X95500Y-119800
X95800Y-115500
X96000Y-80000
X96257Y-116123
X96339Y-116717
X96927Y-116900
X97400Y-123500
X100472Y-117645
X100500Y-75909
X100709Y-123202
X100727Y-122602
X100873Y-118091
X101300Y-115100
X101400Y-118700
X101600Y-134100
X102091Y-126300
X102200Y-114500
X102400Y-124400
X102407Y-125789
X102419Y-126817
X102504Y-125096
X102509Y-121897
X102646Y-123100
X103300Y-67200
X103300Y-76000
X104040Y-116260
X104059Y-116985
X104103Y-122599
X104150Y-126950
X104239Y-117600
X104700Y-126500
X104800Y-125000
X104800Y-127500
X104858Y-123900
X104896Y-125804
X105300Y-121400
X105526Y-123113
X105870Y-71930
X105900Y-71000
X106163Y-124200
X106600Y-110900
X106800Y-132900
X106921Y-131500
X107400Y-131000
X107500Y-52900
X107500Y-57100
X107600Y-111300
X107800Y-132900
X107800Y-120000
X107900Y-122800
X108150Y-111750
X108400Y-72000
X108400Y-71000
X108600Y-122500
X108700Y-112200
X109300Y-112700
X109300Y-121300
X109400Y-129000
X110500Y-52900
X110500Y-57100
X110900Y-72000
X110950Y-70950
X111800Y-104900
X111900Y-119100
X112046Y-111946
X112300Y-110900
X112300Y-119600
X113000Y-104200
X113490Y-70990
X113500Y-52900
X113500Y-57100
X113500Y-72100
X113543Y-111246
X114000Y-108200
X114043Y-110877
X114500Y-105900
X114600Y-111100
X115500Y-104900
X115900Y-109100
X115900Y-120900
X115946Y-104492
X116000Y-71000
X116000Y-72000
X116446Y-103842
X116485Y-121109
X116500Y-52900
X116500Y-57100
X116600Y-125400
X116700Y-143200
X116900Y-128200
X116946Y-104346
X117000Y-120800
X117400Y-127700
X117443Y-108177
X117700Y-124100
X117700Y-143200
X117900Y-127200
X118000Y-108400
X118000Y-129200
X118009Y-123585
X118400Y-121000
X118600Y-71000
X118600Y-72000
X118600Y-128700
X118700Y-108200
X118800Y-87900
X119000Y-123870
X119000Y-128200
X119300Y-109500
X119400Y-134700
X119400Y-147100
X119500Y-52900
X119500Y-57100
X119600Y-84000
X119854Y-139546
X119900Y-68600
X119900Y-69300
X119900Y-82800
X119901Y-105474
X120000Y-109334
X120100Y-104200
X120400Y-63100
X120401Y-64100
X120500Y-105500
X120500Y-123500
X120600Y-108900
X120665Y-126807
X120700Y-103900
X120700Y-138600
X120946Y-124754
X121000Y-63600
X121017Y-64600
X121100Y-123500
X121193Y-103376
X121300Y-112900
X121304Y-81304
X121400Y-110700
X121423Y-126798
X121500Y-109700
X121688Y-103037
X121700Y-126265
X121941Y-105786
X122100Y-111200
X122138Y-110200
X122149Y-123838
X122236Y-105263
X122461Y-80961
X122500Y-52900
X122500Y-57100
X122600Y-83100
X122800Y-98700
X122963Y-127235
X123200Y-124800
X123300Y-63100
X123400Y-64100
X123700Y-71200
X123700Y-72000
X123700Y-112200
X123883Y-64600
X123888Y-103739
X123889Y-63600
X124540Y-116700
X124600Y-134900
X124700Y-105400
X124800Y-118500
X124800Y-119800
X124900Y-113600
X125009Y-117615
X125050Y-111602
X125073Y-123121
X125087Y-109000
X125100Y-114182
X125115Y-116528
X125199Y-124998
X125300Y-124000
X125500Y-52900
X125500Y-57100
X125500Y-83400
X125500Y-122700
X125518Y-127600
X125800Y-102714
X126200Y-103300
X126308Y-127553
X126496Y-62800
X126500Y-63800
X126900Y-64400
X126979Y-63302
X127000Y-84900
X127070Y-127357
X127500Y-99100
X127700Y-117200
X127900Y-103900
X127900Y-130800
X127982Y-100098
X128000Y-122100
X128000Y-147100
X128350Y-115600
X128500Y-52900
X128500Y-57100
X128500Y-100400
X128500Y-116800
X128500Y-144200
X128511Y-83100
X128700Y-108100
X128800Y-99100
X129200Y-117400
X129300Y-144100
X130000Y-95200
X130000Y-99100
X130200Y-132400
X131000Y-105300
X131200Y-109300
X131290Y-111063
X131300Y-112500
X131300Y-134700
X131400Y-61800
X131400Y-99400
X131500Y-52900
X131500Y-57100
X131572Y-105525
X131600Y-107100
X131790Y-121217
X131933Y-106004
X132005Y-106600
X132100Y-131700
X132123Y-116407
X132400Y-112720
X132426Y-112051
X132600Y-137500
X132607Y-120970
X132642Y-98918
X132654Y-115876
X132700Y-114100
X133205Y-120372
X133563Y-112927
X133899Y-118971
X134000Y-114774
X134100Y-95700
X134500Y-52900
X134500Y-57100
X134600Y-103600
X134719Y-93419
X135037Y-112638
X135300Y-107100
X135405Y-106000
X135800Y-130700
X135929Y-106315
X136000Y-114800
X136048Y-83100
X136200Y-115500
X136204Y-116196
X136350Y-76200
X136400Y-117100
X136400Y-67000
X136596Y-105896
X136600Y-132800
X136600Y-147100
X136800Y-111500
X137096Y-105396
X137250Y-112727
X137300Y-113800
X137400Y-135900
X137425Y-111564
X137486Y-83100
X137500Y-52900
X137500Y-57100
X137600Y-116400
X137702Y-109205
X138100Y-119800
X138200Y-129300
X138700Y-108700
X138900Y-76000
X138900Y-93900
X138992Y-83100
X139227Y-126300
X139800Y-116400
X139900Y-110000
X139964Y-125564
X140486Y-83100
X140500Y-52900
X140500Y-57100
X141400Y-71000
X141500Y-76000
X141986Y-83100
X142000Y-121300
X142346Y-113146
X142400Y-133266
X143200Y-114400
X143400Y-107000
X143400Y-147100
X143412Y-121112
X143500Y-52900
X143500Y-57100
X143500Y-131600
X143800Y-91100
X143882Y-120643
X143900Y-128600
X144000Y-76000
X144800Y-127700
X145000Y-97700
X145300Y-131500
X145456Y-123477
X145790Y-106990
X146100Y-123400
X146200Y-93100
X146500Y-52900
X146500Y-57100
X146500Y-110300
X146537Y-75700
X146600Y-81000
X146700Y-113200
X147000Y-111300
X147000Y-112600
X147336Y-136674
X147346Y-135054
X147700Y-81000
X147900Y-142100
X148360Y-141300
X148500Y-145100
X148600Y-137000
X148624Y-144100
X148726Y-82173
X149000Y-67000
X149000Y-76000
X149500Y-52900
X149500Y-57100
X149500Y-109400
X149500Y-110800
X149500Y-113900
X149500Y-114500
X149500Y-81500
X150200Y-118900
X151400Y-95700
X151400Y-113900
X151514Y-75914
X151600Y-67000
X151700Y-110300
X151800Y-107600
X152300Y-109200
X152500Y-52900
X152500Y-57100
X152500Y-105400
X154100Y-63400
X154100Y-71600
X155000Y-97700
X155600Y-147300
X155800Y-142500
X156300Y-93100
X156564Y-63436
X156619Y-97113
X156700Y-71100
X156700Y-142300
X157000Y-100300
X157200Y-147300
X157551Y-100622
X157619Y-96879
X157622Y-97596
X157700Y-146600
X158122Y-100310
X158600Y-100723
X158619Y-96902
X158662Y-97652
X159122Y-100338
X159200Y-67000
X159200Y-76000
X159600Y-100700
X159738Y-97404
X163800Y-93100
X165000Y-87200
X165000Y-97700
X165600Y-131800
X166000Y-87200
X168200Y-126500
X169000Y-77600
X169000Y-87200
X170000Y-87200
X170100Y-125400
X170200Y-133000
X170300Y-128200
X171000Y-80000
X172000Y-127650
X173900Y-127700
X174800Y-133700
X176200Y-126400
X176400Y-123100
X176400Y-125100
X176400Y-127600
X176400Y-129100
T2
X172600Y-55000
X173303Y-53303
X173303Y-56697
X175000Y-52600
X175000Y-57400
X176697Y-53303
X176697Y-56697
X177400Y-55000
X172600Y-100000
X173303Y-98303
X173303Y-101697
X175000Y-97600
X175000Y-102400
X176697Y-98303
X176697Y-101697
X177400Y-100000
X82600Y-55000
X83303Y-53303
X83303Y-56697
X85000Y-52600
X85000Y-57400
X86697Y-53303
X86697Y-56697
X87400Y-55000
X82600Y-100000
X83303Y-98303
X83303Y-101697
X85000Y-97600
X85000Y-102400
X86697Y-98303
X86697Y-101697
X87400Y-100000
T3
X118000Y-85900
X119500Y-85900
X121000Y-85900
X122500Y-85900
X124000Y-85900
X125500Y-85900
X127000Y-85900
X128500Y-85900
X130000Y-85900
X131500Y-85900
X133000Y-85900
X134500Y-85900
X136000Y-85900
X137500Y-85900
X139000Y-85900
X140500Y-85900
X142000Y-85900
T4
X153975Y-145600
X158825Y-145600
T5
X103800Y-137900
X106300Y-137900
X108300Y-137900
X110800Y-137900
T6
X166920Y-136500
X166920Y-139040
X169460Y-136500
X169460Y-139040
X172000Y-136500
X172000Y-139040
X122360Y-60300
X124900Y-60300
X127440Y-60300
X129980Y-60300
X132520Y-60300
X135060Y-60300
X137600Y-60300
X165000Y-76500
X165000Y-91000
X167500Y-91000
X170000Y-76500
X170000Y-91000
X88020Y-136500
X88020Y-139040
X90560Y-136500
X90560Y-139040
X93100Y-136500
X93100Y-139040
X90000Y-76500
X90000Y-91000
X92500Y-91000
X95000Y-76500
X95000Y-91000
T7
X112700Y-84100
X147300Y-84100
T9
X100730Y-140610
X113870Y-140610
T10
X175000Y-55000
X175000Y-100000
X85000Y-55000
X85000Y-100000
T11
X82000Y-113650
X82000Y-121650
X134000Y-139400
X122000Y-139400
X146000Y-139400
T12
X109900Y-62950
X109900Y-86050
X150100Y-62950
X150100Y-86050
T2
G00X152800Y-148650
M15
G01X152800Y-147850
M16
G05
G00X160000Y-148650
M15
G01X160000Y-147850
M16
G05
T8
G00X161900Y-83750
M15
G01X161900Y-83250
M16
G05
G00X173100Y-83750
M15
G01X173100Y-83250
M16
G05
G00X86900Y-83750
M15
G01X86900Y-83250
M16
G05
G00X98100Y-83750
M15
G01X98100Y-83250
M16
G05
T0
M30
