%TF.GenerationSoftware,KiCad,Pcbnew,(5.1.8-0-10_14)*%
%TF.CreationDate,2021-11-08T19:43:21+01:00*%
%TF.ProjectId,KLST_SHEEP,4b4c5354-5f53-4484-9545-502e6b696361,0.1*%
%TF.SameCoordinates,Original*%
%TF.FileFunction,Legend,Top*%
%TF.FilePolarity,Positive*%
%FSLAX46Y46*%
G04 Gerber Fmt 4.6, Leading zero omitted, Abs format (unit mm)*
G04 Created by KiCad (PCBNEW (5.1.8-0-10_14)) date 2021-11-08 19:43:21*
%MOMM*%
%LPD*%
G01*
G04 APERTURE LIST*
%ADD10C,0.150000*%
%ADD11C,0.120000*%
%ADD12C,0.100000*%
%ADD13C,0.127000*%
%ADD14C,0.200000*%
G04 APERTURE END LIST*
D10*
X100700000Y-79100000D02*
X103200000Y-79100000D01*
X100700000Y-63900000D02*
X103200000Y-63900000D01*
X100900000Y-63239285D02*
X100900000Y-62489285D01*
X101185714Y-62489285D01*
X101257142Y-62525000D01*
X101292857Y-62560714D01*
X101328571Y-62632142D01*
X101328571Y-62739285D01*
X101292857Y-62810714D01*
X101257142Y-62846428D01*
X101185714Y-62882142D01*
X100900000Y-62882142D01*
X101578571Y-62489285D02*
X101757142Y-63239285D01*
X101900000Y-62703571D01*
X102042857Y-63239285D01*
X102221428Y-62489285D01*
X102935714Y-63239285D02*
X102685714Y-62882142D01*
X102507142Y-63239285D02*
X102507142Y-62489285D01*
X102792857Y-62489285D01*
X102864285Y-62525000D01*
X102900000Y-62560714D01*
X102935714Y-62632142D01*
X102935714Y-62739285D01*
X102900000Y-62810714D01*
X102864285Y-62846428D01*
X102792857Y-62882142D01*
X102507142Y-62882142D01*
X101000000Y-80439285D02*
X101000000Y-79689285D01*
X101285714Y-79689285D01*
X101357142Y-79725000D01*
X101392857Y-79760714D01*
X101428571Y-79832142D01*
X101428571Y-79939285D01*
X101392857Y-80010714D01*
X101357142Y-80046428D01*
X101285714Y-80082142D01*
X101000000Y-80082142D01*
X101678571Y-79689285D02*
X101857142Y-80439285D01*
X102000000Y-79903571D01*
X102142857Y-80439285D01*
X102321428Y-79689285D01*
X103035714Y-80439285D02*
X102785714Y-80082142D01*
X102607142Y-80439285D02*
X102607142Y-79689285D01*
X102892857Y-79689285D01*
X102964285Y-79725000D01*
X103000000Y-79760714D01*
X103035714Y-79832142D01*
X103035714Y-79939285D01*
X103000000Y-80010714D01*
X102964285Y-80046428D01*
X102892857Y-80082142D01*
X102607142Y-80082142D01*
X102925000Y-77611785D02*
X102889285Y-77683214D01*
X102889285Y-77790357D01*
X102925000Y-77897500D01*
X102996428Y-77968928D01*
X103067857Y-78004642D01*
X103210714Y-78040357D01*
X103317857Y-78040357D01*
X103460714Y-78004642D01*
X103532142Y-77968928D01*
X103603571Y-77897500D01*
X103639285Y-77790357D01*
X103639285Y-77718928D01*
X103603571Y-77611785D01*
X103567857Y-77576071D01*
X103317857Y-77576071D01*
X103317857Y-77718928D01*
X103639285Y-77254642D02*
X102889285Y-77254642D01*
X103639285Y-76826071D01*
X102889285Y-76826071D01*
X103639285Y-76468928D02*
X102889285Y-76468928D01*
X102889285Y-76290357D01*
X102925000Y-76183214D01*
X102996428Y-76111785D01*
X103067857Y-76076071D01*
X103210714Y-76040357D01*
X103317857Y-76040357D01*
X103460714Y-76076071D01*
X103532142Y-76111785D01*
X103603571Y-76183214D01*
X103639285Y-76290357D01*
X103639285Y-76468928D01*
X100425000Y-77611785D02*
X100389285Y-77683214D01*
X100389285Y-77790357D01*
X100425000Y-77897500D01*
X100496428Y-77968928D01*
X100567857Y-78004642D01*
X100710714Y-78040357D01*
X100817857Y-78040357D01*
X100960714Y-78004642D01*
X101032142Y-77968928D01*
X101103571Y-77897500D01*
X101139285Y-77790357D01*
X101139285Y-77718928D01*
X101103571Y-77611785D01*
X101067857Y-77576071D01*
X100817857Y-77576071D01*
X100817857Y-77718928D01*
X101139285Y-77254642D02*
X100389285Y-77254642D01*
X101139285Y-76826071D01*
X100389285Y-76826071D01*
X101139285Y-76468928D02*
X100389285Y-76468928D01*
X100389285Y-76290357D01*
X100425000Y-76183214D01*
X100496428Y-76111785D01*
X100567857Y-76076071D01*
X100710714Y-76040357D01*
X100817857Y-76040357D01*
X100960714Y-76076071D01*
X101032142Y-76111785D01*
X101103571Y-76183214D01*
X101139285Y-76290357D01*
X101139285Y-76468928D01*
X102889285Y-66995357D02*
X102889285Y-66531071D01*
X103175000Y-66781071D01*
X103175000Y-66673928D01*
X103210714Y-66602500D01*
X103246428Y-66566785D01*
X103317857Y-66531071D01*
X103496428Y-66531071D01*
X103567857Y-66566785D01*
X103603571Y-66602500D01*
X103639285Y-66673928D01*
X103639285Y-66888214D01*
X103603571Y-66959642D01*
X103567857Y-66995357D01*
X102889285Y-66316785D02*
X103639285Y-66066785D01*
X102889285Y-65816785D01*
X102889285Y-65638214D02*
X102889285Y-65173928D01*
X103175000Y-65423928D01*
X103175000Y-65316785D01*
X103210714Y-65245357D01*
X103246428Y-65209642D01*
X103317857Y-65173928D01*
X103496428Y-65173928D01*
X103567857Y-65209642D01*
X103603571Y-65245357D01*
X103639285Y-65316785D01*
X103639285Y-65531071D01*
X103603571Y-65602500D01*
X103567857Y-65638214D01*
X100389285Y-66566785D02*
X100389285Y-66923928D01*
X100746428Y-66959642D01*
X100710714Y-66923928D01*
X100675000Y-66852500D01*
X100675000Y-66673928D01*
X100710714Y-66602500D01*
X100746428Y-66566785D01*
X100817857Y-66531071D01*
X100996428Y-66531071D01*
X101067857Y-66566785D01*
X101103571Y-66602500D01*
X101139285Y-66673928D01*
X101139285Y-66852500D01*
X101103571Y-66923928D01*
X101067857Y-66959642D01*
X100389285Y-66316785D02*
X101139285Y-66066785D01*
X100389285Y-65816785D01*
X118189285Y-66781071D02*
X118189285Y-66709642D01*
X118225000Y-66638214D01*
X118260714Y-66602500D01*
X118332142Y-66566785D01*
X118475000Y-66531071D01*
X118653571Y-66531071D01*
X118796428Y-66566785D01*
X118867857Y-66602500D01*
X118903571Y-66638214D01*
X118939285Y-66709642D01*
X118939285Y-66781071D01*
X118903571Y-66852500D01*
X118867857Y-66888214D01*
X118796428Y-66923928D01*
X118653571Y-66959642D01*
X118475000Y-66959642D01*
X118332142Y-66923928D01*
X118260714Y-66888214D01*
X118225000Y-66852500D01*
X118189285Y-66781071D01*
X118189285Y-65852500D02*
X118189285Y-66209642D01*
X118546428Y-66245357D01*
X118510714Y-66209642D01*
X118475000Y-66138214D01*
X118475000Y-65959642D01*
X118510714Y-65888214D01*
X118546428Y-65852500D01*
X118617857Y-65816785D01*
X118796428Y-65816785D01*
X118867857Y-65852500D01*
X118903571Y-65888214D01*
X118939285Y-65959642D01*
X118939285Y-66138214D01*
X118903571Y-66209642D01*
X118867857Y-66245357D01*
X115689285Y-66781071D02*
X115689285Y-66709642D01*
X115725000Y-66638214D01*
X115760714Y-66602500D01*
X115832142Y-66566785D01*
X115975000Y-66531071D01*
X116153571Y-66531071D01*
X116296428Y-66566785D01*
X116367857Y-66602500D01*
X116403571Y-66638214D01*
X116439285Y-66709642D01*
X116439285Y-66781071D01*
X116403571Y-66852500D01*
X116367857Y-66888214D01*
X116296428Y-66923928D01*
X116153571Y-66959642D01*
X115975000Y-66959642D01*
X115832142Y-66923928D01*
X115760714Y-66888214D01*
X115725000Y-66852500D01*
X115689285Y-66781071D01*
X115689285Y-66281071D02*
X115689285Y-65781071D01*
X116439285Y-66102500D01*
X123289285Y-66781071D02*
X123289285Y-66709642D01*
X123325000Y-66638214D01*
X123360714Y-66602500D01*
X123432142Y-66566785D01*
X123575000Y-66531071D01*
X123753571Y-66531071D01*
X123896428Y-66566785D01*
X123967857Y-66602500D01*
X124003571Y-66638214D01*
X124039285Y-66709642D01*
X124039285Y-66781071D01*
X124003571Y-66852500D01*
X123967857Y-66888214D01*
X123896428Y-66923928D01*
X123753571Y-66959642D01*
X123575000Y-66959642D01*
X123432142Y-66923928D01*
X123360714Y-66888214D01*
X123325000Y-66852500D01*
X123289285Y-66781071D01*
X124039285Y-65816785D02*
X124039285Y-66245357D01*
X124039285Y-66031071D02*
X123289285Y-66031071D01*
X123396428Y-66102500D01*
X123467857Y-66173928D01*
X123503571Y-66245357D01*
X118189285Y-77004642D02*
X118189285Y-76933214D01*
X118225000Y-76861785D01*
X118260714Y-76826071D01*
X118332142Y-76790357D01*
X118475000Y-76754642D01*
X118653571Y-76754642D01*
X118796428Y-76790357D01*
X118867857Y-76826071D01*
X118903571Y-76861785D01*
X118939285Y-76933214D01*
X118939285Y-77004642D01*
X118903571Y-77076071D01*
X118867857Y-77111785D01*
X118796428Y-77147500D01*
X118653571Y-77183214D01*
X118475000Y-77183214D01*
X118332142Y-77147500D01*
X118260714Y-77111785D01*
X118225000Y-77076071D01*
X118189285Y-77004642D01*
X118189285Y-76504642D02*
X118189285Y-76040357D01*
X118475000Y-76290357D01*
X118475000Y-76183214D01*
X118510714Y-76111785D01*
X118546428Y-76076071D01*
X118617857Y-76040357D01*
X118796428Y-76040357D01*
X118867857Y-76076071D01*
X118903571Y-76111785D01*
X118939285Y-76183214D01*
X118939285Y-76397500D01*
X118903571Y-76468928D01*
X118867857Y-76504642D01*
X115689285Y-77004642D02*
X115689285Y-76933214D01*
X115725000Y-76861785D01*
X115760714Y-76826071D01*
X115832142Y-76790357D01*
X115975000Y-76754642D01*
X116153571Y-76754642D01*
X116296428Y-76790357D01*
X116367857Y-76826071D01*
X116403571Y-76861785D01*
X116439285Y-76933214D01*
X116439285Y-77004642D01*
X116403571Y-77076071D01*
X116367857Y-77111785D01*
X116296428Y-77147500D01*
X116153571Y-77183214D01*
X115975000Y-77183214D01*
X115832142Y-77147500D01*
X115760714Y-77111785D01*
X115725000Y-77076071D01*
X115689285Y-77004642D01*
X115689285Y-76111785D02*
X115689285Y-76254642D01*
X115725000Y-76326071D01*
X115760714Y-76361785D01*
X115867857Y-76433214D01*
X116010714Y-76468928D01*
X116296428Y-76468928D01*
X116367857Y-76433214D01*
X116403571Y-76397500D01*
X116439285Y-76326071D01*
X116439285Y-76183214D01*
X116403571Y-76111785D01*
X116367857Y-76076071D01*
X116296428Y-76040357D01*
X116117857Y-76040357D01*
X116046428Y-76076071D01*
X116010714Y-76111785D01*
X115975000Y-76183214D01*
X115975000Y-76326071D01*
X116010714Y-76397500D01*
X116046428Y-76433214D01*
X116117857Y-76468928D01*
X120789285Y-66781071D02*
X120789285Y-66709642D01*
X120825000Y-66638214D01*
X120860714Y-66602500D01*
X120932142Y-66566785D01*
X121075000Y-66531071D01*
X121253571Y-66531071D01*
X121396428Y-66566785D01*
X121467857Y-66602500D01*
X121503571Y-66638214D01*
X121539285Y-66709642D01*
X121539285Y-66781071D01*
X121503571Y-66852500D01*
X121467857Y-66888214D01*
X121396428Y-66923928D01*
X121253571Y-66959642D01*
X121075000Y-66959642D01*
X120932142Y-66923928D01*
X120860714Y-66888214D01*
X120825000Y-66852500D01*
X120789285Y-66781071D01*
X120789285Y-66281071D02*
X120789285Y-65816785D01*
X121075000Y-66066785D01*
X121075000Y-65959642D01*
X121110714Y-65888214D01*
X121146428Y-65852500D01*
X121217857Y-65816785D01*
X121396428Y-65816785D01*
X121467857Y-65852500D01*
X121503571Y-65888214D01*
X121539285Y-65959642D01*
X121539285Y-66173928D01*
X121503571Y-66245357D01*
X121467857Y-66281071D01*
X108839285Y-76754642D02*
X108839285Y-77183214D01*
X108839285Y-76968928D02*
X108089285Y-76968928D01*
X108196428Y-77040357D01*
X108267857Y-77111785D01*
X108303571Y-77183214D01*
X108160714Y-76468928D02*
X108125000Y-76433214D01*
X108089285Y-76361785D01*
X108089285Y-76183214D01*
X108125000Y-76111785D01*
X108160714Y-76076071D01*
X108232142Y-76040357D01*
X108303571Y-76040357D01*
X108410714Y-76076071D01*
X108839285Y-76504642D01*
X108839285Y-76040357D01*
X113189285Y-66781071D02*
X113189285Y-66709642D01*
X113225000Y-66638214D01*
X113260714Y-66602500D01*
X113332142Y-66566785D01*
X113475000Y-66531071D01*
X113653571Y-66531071D01*
X113796428Y-66566785D01*
X113867857Y-66602500D01*
X113903571Y-66638214D01*
X113939285Y-66709642D01*
X113939285Y-66781071D01*
X113903571Y-66852500D01*
X113867857Y-66888214D01*
X113796428Y-66923928D01*
X113653571Y-66959642D01*
X113475000Y-66959642D01*
X113332142Y-66923928D01*
X113260714Y-66888214D01*
X113225000Y-66852500D01*
X113189285Y-66781071D01*
X113939285Y-66173928D02*
X113939285Y-66031071D01*
X113903571Y-65959642D01*
X113867857Y-65923928D01*
X113760714Y-65852500D01*
X113617857Y-65816785D01*
X113332142Y-65816785D01*
X113260714Y-65852500D01*
X113225000Y-65888214D01*
X113189285Y-65959642D01*
X113189285Y-66102500D01*
X113225000Y-66173928D01*
X113260714Y-66209642D01*
X113332142Y-66245357D01*
X113510714Y-66245357D01*
X113582142Y-66209642D01*
X113617857Y-66173928D01*
X113653571Y-66102500D01*
X113653571Y-65959642D01*
X113617857Y-65888214D01*
X113582142Y-65852500D01*
X113510714Y-65816785D01*
X106339285Y-76754642D02*
X106339285Y-77183214D01*
X106339285Y-76968928D02*
X105589285Y-76968928D01*
X105696428Y-77040357D01*
X105767857Y-77111785D01*
X105803571Y-77183214D01*
X105839285Y-76111785D02*
X106339285Y-76111785D01*
X105553571Y-76290357D02*
X106089285Y-76468928D01*
X106089285Y-76004642D01*
X108839285Y-66531071D02*
X108839285Y-66959642D01*
X108839285Y-66745357D02*
X108089285Y-66745357D01*
X108196428Y-66816785D01*
X108267857Y-66888214D01*
X108303571Y-66959642D01*
X108089285Y-66281071D02*
X108089285Y-65816785D01*
X108375000Y-66066785D01*
X108375000Y-65959642D01*
X108410714Y-65888214D01*
X108446428Y-65852500D01*
X108517857Y-65816785D01*
X108696428Y-65816785D01*
X108767857Y-65852500D01*
X108803571Y-65888214D01*
X108839285Y-65959642D01*
X108839285Y-66173928D01*
X108803571Y-66245357D01*
X108767857Y-66281071D01*
X111439285Y-66531071D02*
X111439285Y-66959642D01*
X111439285Y-66745357D02*
X110689285Y-66745357D01*
X110796428Y-66816785D01*
X110867857Y-66888214D01*
X110903571Y-66959642D01*
X111439285Y-65816785D02*
X111439285Y-66245357D01*
X111439285Y-66031071D02*
X110689285Y-66031071D01*
X110796428Y-66102500D01*
X110867857Y-66173928D01*
X110903571Y-66245357D01*
X106339285Y-66531071D02*
X106339285Y-66959642D01*
X106339285Y-66745357D02*
X105589285Y-66745357D01*
X105696428Y-66816785D01*
X105767857Y-66888214D01*
X105803571Y-66959642D01*
X105589285Y-65852500D02*
X105589285Y-66209642D01*
X105946428Y-66245357D01*
X105910714Y-66209642D01*
X105875000Y-66138214D01*
X105875000Y-65959642D01*
X105910714Y-65888214D01*
X105946428Y-65852500D01*
X106017857Y-65816785D01*
X106196428Y-65816785D01*
X106267857Y-65852500D01*
X106303571Y-65888214D01*
X106339285Y-65959642D01*
X106339285Y-66138214D01*
X106303571Y-66209642D01*
X106267857Y-66245357D01*
X111439285Y-76754642D02*
X111439285Y-77183214D01*
X111439285Y-76968928D02*
X110689285Y-76968928D01*
X110796428Y-77040357D01*
X110867857Y-77111785D01*
X110903571Y-77183214D01*
X110689285Y-76290357D02*
X110689285Y-76218928D01*
X110725000Y-76147500D01*
X110760714Y-76111785D01*
X110832142Y-76076071D01*
X110975000Y-76040357D01*
X111153571Y-76040357D01*
X111296428Y-76076071D01*
X111367857Y-76111785D01*
X111403571Y-76147500D01*
X111439285Y-76218928D01*
X111439285Y-76290357D01*
X111403571Y-76361785D01*
X111367857Y-76397500D01*
X111296428Y-76433214D01*
X111153571Y-76468928D01*
X110975000Y-76468928D01*
X110832142Y-76433214D01*
X110760714Y-76397500D01*
X110725000Y-76361785D01*
X110689285Y-76290357D01*
X113189285Y-77004642D02*
X113189285Y-76933214D01*
X113225000Y-76861785D01*
X113260714Y-76826071D01*
X113332142Y-76790357D01*
X113475000Y-76754642D01*
X113653571Y-76754642D01*
X113796428Y-76790357D01*
X113867857Y-76826071D01*
X113903571Y-76861785D01*
X113939285Y-76933214D01*
X113939285Y-77004642D01*
X113903571Y-77076071D01*
X113867857Y-77111785D01*
X113796428Y-77147500D01*
X113653571Y-77183214D01*
X113475000Y-77183214D01*
X113332142Y-77147500D01*
X113260714Y-77111785D01*
X113225000Y-77076071D01*
X113189285Y-77004642D01*
X113510714Y-76326071D02*
X113475000Y-76397500D01*
X113439285Y-76433214D01*
X113367857Y-76468928D01*
X113332142Y-76468928D01*
X113260714Y-76433214D01*
X113225000Y-76397500D01*
X113189285Y-76326071D01*
X113189285Y-76183214D01*
X113225000Y-76111785D01*
X113260714Y-76076071D01*
X113332142Y-76040357D01*
X113367857Y-76040357D01*
X113439285Y-76076071D01*
X113475000Y-76111785D01*
X113510714Y-76183214D01*
X113510714Y-76326071D01*
X113546428Y-76397500D01*
X113582142Y-76433214D01*
X113653571Y-76468928D01*
X113796428Y-76468928D01*
X113867857Y-76433214D01*
X113903571Y-76397500D01*
X113939285Y-76326071D01*
X113939285Y-76183214D01*
X113903571Y-76111785D01*
X113867857Y-76076071D01*
X113796428Y-76040357D01*
X113653571Y-76040357D01*
X113582142Y-76076071D01*
X113546428Y-76111785D01*
X113510714Y-76183214D01*
X123289285Y-77004642D02*
X123289285Y-76933214D01*
X123325000Y-76861785D01*
X123360714Y-76826071D01*
X123432142Y-76790357D01*
X123575000Y-76754642D01*
X123753571Y-76754642D01*
X123896428Y-76790357D01*
X123967857Y-76826071D01*
X124003571Y-76861785D01*
X124039285Y-76933214D01*
X124039285Y-77004642D01*
X124003571Y-77076071D01*
X123967857Y-77111785D01*
X123896428Y-77147500D01*
X123753571Y-77183214D01*
X123575000Y-77183214D01*
X123432142Y-77147500D01*
X123360714Y-77111785D01*
X123325000Y-77076071D01*
X123289285Y-77004642D01*
X123289285Y-76290357D02*
X123289285Y-76218928D01*
X123325000Y-76147500D01*
X123360714Y-76111785D01*
X123432142Y-76076071D01*
X123575000Y-76040357D01*
X123753571Y-76040357D01*
X123896428Y-76076071D01*
X123967857Y-76111785D01*
X124003571Y-76147500D01*
X124039285Y-76218928D01*
X124039285Y-76290357D01*
X124003571Y-76361785D01*
X123967857Y-76397500D01*
X123896428Y-76433214D01*
X123753571Y-76468928D01*
X123575000Y-76468928D01*
X123432142Y-76433214D01*
X123360714Y-76397500D01*
X123325000Y-76361785D01*
X123289285Y-76290357D01*
X120789285Y-77004642D02*
X120789285Y-76933214D01*
X120825000Y-76861785D01*
X120860714Y-76826071D01*
X120932142Y-76790357D01*
X121075000Y-76754642D01*
X121253571Y-76754642D01*
X121396428Y-76790357D01*
X121467857Y-76826071D01*
X121503571Y-76861785D01*
X121539285Y-76933214D01*
X121539285Y-77004642D01*
X121503571Y-77076071D01*
X121467857Y-77111785D01*
X121396428Y-77147500D01*
X121253571Y-77183214D01*
X121075000Y-77183214D01*
X120932142Y-77147500D01*
X120860714Y-77111785D01*
X120825000Y-77076071D01*
X120789285Y-77004642D01*
X120860714Y-76468928D02*
X120825000Y-76433214D01*
X120789285Y-76361785D01*
X120789285Y-76183214D01*
X120825000Y-76111785D01*
X120860714Y-76076071D01*
X120932142Y-76040357D01*
X121003571Y-76040357D01*
X121110714Y-76076071D01*
X121539285Y-76504642D01*
X121539285Y-76040357D01*
X114050000Y-62525000D02*
X113978571Y-62489285D01*
X113871428Y-62489285D01*
X113764285Y-62525000D01*
X113692857Y-62596428D01*
X113657142Y-62667857D01*
X113621428Y-62810714D01*
X113621428Y-62917857D01*
X113657142Y-63060714D01*
X113692857Y-63132142D01*
X113764285Y-63203571D01*
X113871428Y-63239285D01*
X113942857Y-63239285D01*
X114050000Y-63203571D01*
X114085714Y-63167857D01*
X114085714Y-62917857D01*
X113942857Y-62917857D01*
X114407142Y-63239285D02*
X114407142Y-62489285D01*
X114692857Y-62489285D01*
X114764285Y-62525000D01*
X114800000Y-62560714D01*
X114835714Y-62632142D01*
X114835714Y-62739285D01*
X114800000Y-62810714D01*
X114764285Y-62846428D01*
X114692857Y-62882142D01*
X114407142Y-62882142D01*
X115157142Y-63239285D02*
X115157142Y-62489285D01*
X115657142Y-62489285D02*
X115800000Y-62489285D01*
X115871428Y-62525000D01*
X115942857Y-62596428D01*
X115978571Y-62739285D01*
X115978571Y-62989285D01*
X115942857Y-63132142D01*
X115871428Y-63203571D01*
X115800000Y-63239285D01*
X115657142Y-63239285D01*
X115585714Y-63203571D01*
X115514285Y-63132142D01*
X115478571Y-62989285D01*
X115478571Y-62739285D01*
X115514285Y-62596428D01*
X115585714Y-62525000D01*
X115657142Y-62489285D01*
X105900000Y-63900000D02*
X123600000Y-63900000D01*
X114050000Y-79725000D02*
X113978571Y-79689285D01*
X113871428Y-79689285D01*
X113764285Y-79725000D01*
X113692857Y-79796428D01*
X113657142Y-79867857D01*
X113621428Y-80010714D01*
X113621428Y-80117857D01*
X113657142Y-80260714D01*
X113692857Y-80332142D01*
X113764285Y-80403571D01*
X113871428Y-80439285D01*
X113942857Y-80439285D01*
X114050000Y-80403571D01*
X114085714Y-80367857D01*
X114085714Y-80117857D01*
X113942857Y-80117857D01*
X114407142Y-80439285D02*
X114407142Y-79689285D01*
X114692857Y-79689285D01*
X114764285Y-79725000D01*
X114800000Y-79760714D01*
X114835714Y-79832142D01*
X114835714Y-79939285D01*
X114800000Y-80010714D01*
X114764285Y-80046428D01*
X114692857Y-80082142D01*
X114407142Y-80082142D01*
X115157142Y-80439285D02*
X115157142Y-79689285D01*
X115657142Y-79689285D02*
X115800000Y-79689285D01*
X115871428Y-79725000D01*
X115942857Y-79796428D01*
X115978571Y-79939285D01*
X115978571Y-80189285D01*
X115942857Y-80332142D01*
X115871428Y-80403571D01*
X115800000Y-80439285D01*
X115657142Y-80439285D01*
X115585714Y-80403571D01*
X115514285Y-80332142D01*
X115478571Y-80189285D01*
X115478571Y-79939285D01*
X115514285Y-79796428D01*
X115585714Y-79725000D01*
X115657142Y-79689285D01*
X105900000Y-79100000D02*
X123600000Y-79100000D01*
X128389285Y-66781071D02*
X128389285Y-66709642D01*
X128425000Y-66638214D01*
X128460714Y-66602500D01*
X128532142Y-66566785D01*
X128675000Y-66531071D01*
X128853571Y-66531071D01*
X128996428Y-66566785D01*
X129067857Y-66602500D01*
X129103571Y-66638214D01*
X129139285Y-66709642D01*
X129139285Y-66781071D01*
X129103571Y-66852500D01*
X129067857Y-66888214D01*
X128996428Y-66923928D01*
X128853571Y-66959642D01*
X128675000Y-66959642D01*
X128532142Y-66923928D01*
X128460714Y-66888214D01*
X128425000Y-66852500D01*
X128389285Y-66781071D01*
X129139285Y-65816785D02*
X129139285Y-66245357D01*
X129139285Y-66031071D02*
X128389285Y-66031071D01*
X128496428Y-66102500D01*
X128567857Y-66173928D01*
X128603571Y-66245357D01*
X125889285Y-66781071D02*
X125889285Y-66709642D01*
X125925000Y-66638214D01*
X125960714Y-66602500D01*
X126032142Y-66566785D01*
X126175000Y-66531071D01*
X126353571Y-66531071D01*
X126496428Y-66566785D01*
X126567857Y-66602500D01*
X126603571Y-66638214D01*
X126639285Y-66709642D01*
X126639285Y-66781071D01*
X126603571Y-66852500D01*
X126567857Y-66888214D01*
X126496428Y-66923928D01*
X126353571Y-66959642D01*
X126175000Y-66959642D01*
X126032142Y-66923928D01*
X125960714Y-66888214D01*
X125925000Y-66852500D01*
X125889285Y-66781071D01*
X125889285Y-66066785D02*
X125889285Y-65995357D01*
X125925000Y-65923928D01*
X125960714Y-65888214D01*
X126032142Y-65852500D01*
X126175000Y-65816785D01*
X126353571Y-65816785D01*
X126496428Y-65852500D01*
X126567857Y-65888214D01*
X126603571Y-65923928D01*
X126639285Y-65995357D01*
X126639285Y-66066785D01*
X126603571Y-66138214D01*
X126567857Y-66173928D01*
X126496428Y-66209642D01*
X126353571Y-66245357D01*
X126175000Y-66245357D01*
X126032142Y-66209642D01*
X125960714Y-66173928D01*
X125925000Y-66138214D01*
X125889285Y-66066785D01*
X134239285Y-66566785D02*
X134239285Y-66923928D01*
X133489285Y-66923928D01*
X128389285Y-77004642D02*
X128389285Y-76933214D01*
X128425000Y-76861785D01*
X128460714Y-76826071D01*
X128532142Y-76790357D01*
X128675000Y-76754642D01*
X128853571Y-76754642D01*
X128996428Y-76790357D01*
X129067857Y-76826071D01*
X129103571Y-76861785D01*
X129139285Y-76933214D01*
X129139285Y-77004642D01*
X129103571Y-77076071D01*
X129067857Y-77111785D01*
X128996428Y-77147500D01*
X128853571Y-77183214D01*
X128675000Y-77183214D01*
X128532142Y-77147500D01*
X128460714Y-77111785D01*
X128425000Y-77076071D01*
X128389285Y-77004642D01*
X129139285Y-76040357D02*
X129139285Y-76468928D01*
X129139285Y-76254642D02*
X128389285Y-76254642D01*
X128496428Y-76326071D01*
X128567857Y-76397500D01*
X128603571Y-76468928D01*
X125889285Y-77004642D02*
X125889285Y-76933214D01*
X125925000Y-76861785D01*
X125960714Y-76826071D01*
X126032142Y-76790357D01*
X126175000Y-76754642D01*
X126353571Y-76754642D01*
X126496428Y-76790357D01*
X126567857Y-76826071D01*
X126603571Y-76861785D01*
X126639285Y-76933214D01*
X126639285Y-77004642D01*
X126603571Y-77076071D01*
X126567857Y-77111785D01*
X126496428Y-77147500D01*
X126353571Y-77183214D01*
X126175000Y-77183214D01*
X126032142Y-77147500D01*
X125960714Y-77111785D01*
X125925000Y-77076071D01*
X125889285Y-77004642D01*
X125889285Y-76290357D02*
X125889285Y-76218928D01*
X125925000Y-76147500D01*
X125960714Y-76111785D01*
X126032142Y-76076071D01*
X126175000Y-76040357D01*
X126353571Y-76040357D01*
X126496428Y-76076071D01*
X126567857Y-76111785D01*
X126603571Y-76147500D01*
X126639285Y-76218928D01*
X126639285Y-76290357D01*
X126603571Y-76361785D01*
X126567857Y-76397500D01*
X126496428Y-76433214D01*
X126353571Y-76468928D01*
X126175000Y-76468928D01*
X126032142Y-76433214D01*
X125960714Y-76397500D01*
X125925000Y-76361785D01*
X125889285Y-76290357D01*
X131739285Y-66495357D02*
X131382142Y-66745357D01*
X131739285Y-66923928D02*
X130989285Y-66923928D01*
X130989285Y-66638214D01*
X131025000Y-66566785D01*
X131060714Y-66531071D01*
X131132142Y-66495357D01*
X131239285Y-66495357D01*
X131310714Y-66531071D01*
X131346428Y-66566785D01*
X131382142Y-66638214D01*
X131382142Y-66923928D01*
X134239285Y-75968928D02*
X134239285Y-76326071D01*
X133489285Y-76326071D01*
X131739285Y-76040357D02*
X131382142Y-76290357D01*
X131739285Y-76468928D02*
X130989285Y-76468928D01*
X130989285Y-76183214D01*
X131025000Y-76111785D01*
X131060714Y-76076071D01*
X131132142Y-76040357D01*
X131239285Y-76040357D01*
X131310714Y-76076071D01*
X131346428Y-76111785D01*
X131382142Y-76183214D01*
X131382142Y-76468928D01*
X126200000Y-63900000D02*
X128700000Y-63900000D01*
X126200000Y-79100000D02*
X128700000Y-79100000D01*
X126571428Y-80225000D02*
X126928571Y-80225000D01*
X126500000Y-80439285D02*
X126750000Y-79689285D01*
X127000000Y-80439285D01*
X127250000Y-80439285D02*
X127250000Y-79689285D01*
X127428571Y-79689285D01*
X127535714Y-79725000D01*
X127607142Y-79796428D01*
X127642857Y-79867857D01*
X127678571Y-80010714D01*
X127678571Y-80117857D01*
X127642857Y-80260714D01*
X127607142Y-80332142D01*
X127535714Y-80403571D01*
X127428571Y-80439285D01*
X127250000Y-80439285D01*
X128428571Y-80367857D02*
X128392857Y-80403571D01*
X128285714Y-80439285D01*
X128214285Y-80439285D01*
X128107142Y-80403571D01*
X128035714Y-80332142D01*
X128000000Y-80260714D01*
X127964285Y-80117857D01*
X127964285Y-80010714D01*
X128000000Y-79867857D01*
X128035714Y-79796428D01*
X128107142Y-79725000D01*
X128214285Y-79689285D01*
X128285714Y-79689285D01*
X128392857Y-79725000D01*
X128428571Y-79760714D01*
X126507142Y-63239285D02*
X126507142Y-62489285D01*
X126685714Y-62489285D01*
X126792857Y-62525000D01*
X126864285Y-62596428D01*
X126900000Y-62667857D01*
X126935714Y-62810714D01*
X126935714Y-62917857D01*
X126900000Y-63060714D01*
X126864285Y-63132142D01*
X126792857Y-63203571D01*
X126685714Y-63239285D01*
X126507142Y-63239285D01*
X127221428Y-63025000D02*
X127578571Y-63025000D01*
X127150000Y-63239285D02*
X127400000Y-62489285D01*
X127650000Y-63239285D01*
X128328571Y-63167857D02*
X128292857Y-63203571D01*
X128185714Y-63239285D01*
X128114285Y-63239285D01*
X128007142Y-63203571D01*
X127935714Y-63132142D01*
X127900000Y-63060714D01*
X127864285Y-62917857D01*
X127864285Y-62810714D01*
X127900000Y-62667857D01*
X127935714Y-62596428D01*
X128007142Y-62525000D01*
X128114285Y-62489285D01*
X128185714Y-62489285D01*
X128292857Y-62525000D01*
X128328571Y-62560714D01*
X130964285Y-63239285D02*
X130607142Y-63239285D01*
X130607142Y-62489285D01*
X131214285Y-63239285D02*
X131214285Y-62489285D01*
X131571428Y-63239285D02*
X131571428Y-62489285D01*
X132000000Y-63239285D01*
X132000000Y-62489285D01*
X132357142Y-62846428D02*
X132607142Y-62846428D01*
X132714285Y-63239285D02*
X132357142Y-63239285D01*
X132357142Y-62489285D01*
X132714285Y-62489285D01*
X133607142Y-63239285D02*
X133607142Y-62489285D01*
X133964285Y-63239285D02*
X133964285Y-62489285D01*
X134392857Y-63239285D01*
X134392857Y-62489285D01*
X131300000Y-63900000D02*
X133800000Y-63900000D01*
X130564285Y-80439285D02*
X130207142Y-80439285D01*
X130207142Y-79689285D01*
X130814285Y-80439285D02*
X130814285Y-79689285D01*
X131171428Y-80439285D02*
X131171428Y-79689285D01*
X131600000Y-80439285D01*
X131600000Y-79689285D01*
X131957142Y-80046428D02*
X132207142Y-80046428D01*
X132314285Y-80439285D02*
X131957142Y-80439285D01*
X131957142Y-79689285D01*
X132314285Y-79689285D01*
X133350000Y-79689285D02*
X133492857Y-79689285D01*
X133564285Y-79725000D01*
X133635714Y-79796428D01*
X133671428Y-79939285D01*
X133671428Y-80189285D01*
X133635714Y-80332142D01*
X133564285Y-80403571D01*
X133492857Y-80439285D01*
X133350000Y-80439285D01*
X133278571Y-80403571D01*
X133207142Y-80332142D01*
X133171428Y-80189285D01*
X133171428Y-79939285D01*
X133207142Y-79796428D01*
X133278571Y-79725000D01*
X133350000Y-79689285D01*
X133992857Y-79689285D02*
X133992857Y-80296428D01*
X134028571Y-80367857D01*
X134064285Y-80403571D01*
X134135714Y-80439285D01*
X134278571Y-80439285D01*
X134350000Y-80403571D01*
X134385714Y-80367857D01*
X134421428Y-80296428D01*
X134421428Y-79689285D01*
X134671428Y-79689285D02*
X135100000Y-79689285D01*
X134885714Y-80439285D02*
X134885714Y-79689285D01*
X131300000Y-79100000D02*
X133800000Y-79100000D01*
X139414285Y-63203571D02*
X139521428Y-63239285D01*
X139700000Y-63239285D01*
X139771428Y-63203571D01*
X139807142Y-63167857D01*
X139842857Y-63096428D01*
X139842857Y-63025000D01*
X139807142Y-62953571D01*
X139771428Y-62917857D01*
X139700000Y-62882142D01*
X139557142Y-62846428D01*
X139485714Y-62810714D01*
X139450000Y-62775000D01*
X139414285Y-62703571D01*
X139414285Y-62632142D01*
X139450000Y-62560714D01*
X139485714Y-62525000D01*
X139557142Y-62489285D01*
X139735714Y-62489285D01*
X139842857Y-62525000D01*
X140164285Y-63239285D02*
X140164285Y-62489285D01*
X140450000Y-62489285D01*
X140521428Y-62525000D01*
X140557142Y-62560714D01*
X140592857Y-62632142D01*
X140592857Y-62739285D01*
X140557142Y-62810714D01*
X140521428Y-62846428D01*
X140450000Y-62882142D01*
X140164285Y-62882142D01*
X140914285Y-63239285D02*
X140914285Y-62489285D01*
X141842857Y-63239285D02*
X141842857Y-62489285D01*
X142021428Y-62489285D01*
X142128571Y-62525000D01*
X142200000Y-62596428D01*
X142235714Y-62667857D01*
X142271428Y-62810714D01*
X142271428Y-62917857D01*
X142235714Y-63060714D01*
X142200000Y-63132142D01*
X142128571Y-63203571D01*
X142021428Y-63239285D01*
X141842857Y-63239285D01*
X142592857Y-63239285D02*
X142592857Y-62489285D01*
X142914285Y-63203571D02*
X143021428Y-63239285D01*
X143200000Y-63239285D01*
X143271428Y-63203571D01*
X143307142Y-63167857D01*
X143342857Y-63096428D01*
X143342857Y-63025000D01*
X143307142Y-62953571D01*
X143271428Y-62917857D01*
X143200000Y-62882142D01*
X143057142Y-62846428D01*
X142985714Y-62810714D01*
X142950000Y-62775000D01*
X142914285Y-62703571D01*
X142914285Y-62632142D01*
X142950000Y-62560714D01*
X142985714Y-62525000D01*
X143057142Y-62489285D01*
X143235714Y-62489285D01*
X143342857Y-62525000D01*
X143664285Y-63239285D02*
X143664285Y-62489285D01*
X143950000Y-62489285D01*
X144021428Y-62525000D01*
X144057142Y-62560714D01*
X144092857Y-62632142D01*
X144092857Y-62739285D01*
X144057142Y-62810714D01*
X144021428Y-62846428D01*
X143950000Y-62882142D01*
X143664285Y-62882142D01*
X144771428Y-63239285D02*
X144414285Y-63239285D01*
X144414285Y-62489285D01*
X144985714Y-63025000D02*
X145342857Y-63025000D01*
X144914285Y-63239285D02*
X145164285Y-62489285D01*
X145414285Y-63239285D01*
X145807142Y-62882142D02*
X145807142Y-63239285D01*
X145557142Y-62489285D02*
X145807142Y-62882142D01*
X146057142Y-62489285D01*
X136300000Y-63900000D02*
X149100000Y-63900000D01*
X139239285Y-66923928D02*
X138489285Y-66923928D01*
X139025000Y-66673928D01*
X138489285Y-66423928D01*
X139239285Y-66423928D01*
X138489285Y-65923928D02*
X138489285Y-65781071D01*
X138525000Y-65709642D01*
X138596428Y-65638214D01*
X138739285Y-65602500D01*
X138989285Y-65602500D01*
X139132142Y-65638214D01*
X139203571Y-65709642D01*
X139239285Y-65781071D01*
X139239285Y-65923928D01*
X139203571Y-65995357D01*
X139132142Y-66066785D01*
X138989285Y-66102500D01*
X138739285Y-66102500D01*
X138596428Y-66066785D01*
X138525000Y-65995357D01*
X138489285Y-65923928D01*
X139203571Y-65316785D02*
X139239285Y-65209642D01*
X139239285Y-65031071D01*
X139203571Y-64959642D01*
X139167857Y-64923928D01*
X139096428Y-64888214D01*
X139025000Y-64888214D01*
X138953571Y-64923928D01*
X138917857Y-64959642D01*
X138882142Y-65031071D01*
X138846428Y-65173928D01*
X138810714Y-65245357D01*
X138775000Y-65281071D01*
X138703571Y-65316785D01*
X138632142Y-65316785D01*
X138560714Y-65281071D01*
X138525000Y-65245357D01*
X138489285Y-65173928D01*
X138489285Y-64995357D01*
X138525000Y-64888214D01*
X139239285Y-64566785D02*
X138489285Y-64566785D01*
X136025000Y-66531071D02*
X135989285Y-66602500D01*
X135989285Y-66709642D01*
X136025000Y-66816785D01*
X136096428Y-66888214D01*
X136167857Y-66923928D01*
X136310714Y-66959642D01*
X136417857Y-66959642D01*
X136560714Y-66923928D01*
X136632142Y-66888214D01*
X136703571Y-66816785D01*
X136739285Y-66709642D01*
X136739285Y-66638214D01*
X136703571Y-66531071D01*
X136667857Y-66495357D01*
X136417857Y-66495357D01*
X136417857Y-66638214D01*
X136739285Y-66173928D02*
X135989285Y-66173928D01*
X136739285Y-65745357D01*
X135989285Y-65745357D01*
X136739285Y-65388214D02*
X135989285Y-65388214D01*
X135989285Y-65209642D01*
X136025000Y-65102500D01*
X136096428Y-65031071D01*
X136167857Y-64995357D01*
X136310714Y-64959642D01*
X136417857Y-64959642D01*
X136560714Y-64995357D01*
X136632142Y-65031071D01*
X136703571Y-65102500D01*
X136739285Y-65209642D01*
X136739285Y-65388214D01*
X148689285Y-66995357D02*
X148689285Y-66531071D01*
X148975000Y-66781071D01*
X148975000Y-66673928D01*
X149010714Y-66602500D01*
X149046428Y-66566785D01*
X149117857Y-66531071D01*
X149296428Y-66531071D01*
X149367857Y-66566785D01*
X149403571Y-66602500D01*
X149439285Y-66673928D01*
X149439285Y-66888214D01*
X149403571Y-66959642D01*
X149367857Y-66995357D01*
X148689285Y-66316785D02*
X149439285Y-66066785D01*
X148689285Y-65816785D01*
X148689285Y-65638214D02*
X148689285Y-65173928D01*
X148975000Y-65423928D01*
X148975000Y-65316785D01*
X149010714Y-65245357D01*
X149046428Y-65209642D01*
X149117857Y-65173928D01*
X149296428Y-65173928D01*
X149367857Y-65209642D01*
X149403571Y-65245357D01*
X149439285Y-65316785D01*
X149439285Y-65531071D01*
X149403571Y-65602500D01*
X149367857Y-65638214D01*
X141839285Y-66923928D02*
X141089285Y-66923928D01*
X141625000Y-66673928D01*
X141089285Y-66423928D01*
X141839285Y-66423928D01*
X141839285Y-66066785D02*
X141089285Y-66066785D01*
X141803571Y-65745357D02*
X141839285Y-65638214D01*
X141839285Y-65459642D01*
X141803571Y-65388214D01*
X141767857Y-65352500D01*
X141696428Y-65316785D01*
X141625000Y-65316785D01*
X141553571Y-65352500D01*
X141517857Y-65388214D01*
X141482142Y-65459642D01*
X141446428Y-65602500D01*
X141410714Y-65673928D01*
X141375000Y-65709642D01*
X141303571Y-65745357D01*
X141232142Y-65745357D01*
X141160714Y-65709642D01*
X141125000Y-65673928D01*
X141089285Y-65602500D01*
X141089285Y-65423928D01*
X141125000Y-65316785D01*
X141089285Y-64852500D02*
X141089285Y-64709642D01*
X141125000Y-64638214D01*
X141196428Y-64566785D01*
X141339285Y-64531071D01*
X141589285Y-64531071D01*
X141732142Y-64566785D01*
X141803571Y-64638214D01*
X141839285Y-64709642D01*
X141839285Y-64852500D01*
X141803571Y-64923928D01*
X141732142Y-64995357D01*
X141589285Y-65031071D01*
X141339285Y-65031071D01*
X141196428Y-64995357D01*
X141125000Y-64923928D01*
X141089285Y-64852500D01*
X146867857Y-66495357D02*
X146903571Y-66531071D01*
X146939285Y-66638214D01*
X146939285Y-66709642D01*
X146903571Y-66816785D01*
X146832142Y-66888214D01*
X146760714Y-66923928D01*
X146617857Y-66959642D01*
X146510714Y-66959642D01*
X146367857Y-66923928D01*
X146296428Y-66888214D01*
X146225000Y-66816785D01*
X146189285Y-66709642D01*
X146189285Y-66638214D01*
X146225000Y-66531071D01*
X146260714Y-66495357D01*
X146903571Y-66209642D02*
X146939285Y-66102500D01*
X146939285Y-65923928D01*
X146903571Y-65852500D01*
X146867857Y-65816785D01*
X146796428Y-65781071D01*
X146725000Y-65781071D01*
X146653571Y-65816785D01*
X146617857Y-65852500D01*
X146582142Y-65923928D01*
X146546428Y-66066785D01*
X146510714Y-66138214D01*
X146475000Y-66173928D01*
X146403571Y-66209642D01*
X146332142Y-66209642D01*
X146260714Y-66173928D01*
X146225000Y-66138214D01*
X146189285Y-66066785D01*
X146189285Y-65888214D01*
X146225000Y-65781071D01*
X144303571Y-66959642D02*
X144339285Y-66852500D01*
X144339285Y-66673928D01*
X144303571Y-66602500D01*
X144267857Y-66566785D01*
X144196428Y-66531071D01*
X144125000Y-66531071D01*
X144053571Y-66566785D01*
X144017857Y-66602500D01*
X143982142Y-66673928D01*
X143946428Y-66816785D01*
X143910714Y-66888214D01*
X143875000Y-66923928D01*
X143803571Y-66959642D01*
X143732142Y-66959642D01*
X143660714Y-66923928D01*
X143625000Y-66888214D01*
X143589285Y-66816785D01*
X143589285Y-66638214D01*
X143625000Y-66531071D01*
X144267857Y-65781071D02*
X144303571Y-65816785D01*
X144339285Y-65923928D01*
X144339285Y-65995357D01*
X144303571Y-66102500D01*
X144232142Y-66173928D01*
X144160714Y-66209642D01*
X144017857Y-66245357D01*
X143910714Y-66245357D01*
X143767857Y-66209642D01*
X143696428Y-66173928D01*
X143625000Y-66102500D01*
X143589285Y-65995357D01*
X143589285Y-65923928D01*
X143625000Y-65816785D01*
X143660714Y-65781071D01*
X144339285Y-65459642D02*
X143589285Y-65459642D01*
X144339285Y-65031071D02*
X143910714Y-65352500D01*
X143589285Y-65031071D02*
X144017857Y-65459642D01*
X139239285Y-78433214D02*
X138489285Y-78433214D01*
X139025000Y-78183214D01*
X138489285Y-77933214D01*
X139239285Y-77933214D01*
X138489285Y-77433214D02*
X138489285Y-77290357D01*
X138525000Y-77218928D01*
X138596428Y-77147500D01*
X138739285Y-77111785D01*
X138989285Y-77111785D01*
X139132142Y-77147500D01*
X139203571Y-77218928D01*
X139239285Y-77290357D01*
X139239285Y-77433214D01*
X139203571Y-77504642D01*
X139132142Y-77576071D01*
X138989285Y-77611785D01*
X138739285Y-77611785D01*
X138596428Y-77576071D01*
X138525000Y-77504642D01*
X138489285Y-77433214D01*
X139203571Y-76826071D02*
X139239285Y-76718928D01*
X139239285Y-76540357D01*
X139203571Y-76468928D01*
X139167857Y-76433214D01*
X139096428Y-76397500D01*
X139025000Y-76397500D01*
X138953571Y-76433214D01*
X138917857Y-76468928D01*
X138882142Y-76540357D01*
X138846428Y-76683214D01*
X138810714Y-76754642D01*
X138775000Y-76790357D01*
X138703571Y-76826071D01*
X138632142Y-76826071D01*
X138560714Y-76790357D01*
X138525000Y-76754642D01*
X138489285Y-76683214D01*
X138489285Y-76504642D01*
X138525000Y-76397500D01*
X139239285Y-76076071D02*
X138489285Y-76076071D01*
X136025000Y-77611785D02*
X135989285Y-77683214D01*
X135989285Y-77790357D01*
X136025000Y-77897500D01*
X136096428Y-77968928D01*
X136167857Y-78004642D01*
X136310714Y-78040357D01*
X136417857Y-78040357D01*
X136560714Y-78004642D01*
X136632142Y-77968928D01*
X136703571Y-77897500D01*
X136739285Y-77790357D01*
X136739285Y-77718928D01*
X136703571Y-77611785D01*
X136667857Y-77576071D01*
X136417857Y-77576071D01*
X136417857Y-77718928D01*
X136739285Y-77254642D02*
X135989285Y-77254642D01*
X136739285Y-76826071D01*
X135989285Y-76826071D01*
X136739285Y-76468928D02*
X135989285Y-76468928D01*
X135989285Y-76290357D01*
X136025000Y-76183214D01*
X136096428Y-76111785D01*
X136167857Y-76076071D01*
X136310714Y-76040357D01*
X136417857Y-76040357D01*
X136560714Y-76076071D01*
X136632142Y-76111785D01*
X136703571Y-76183214D01*
X136739285Y-76290357D01*
X136739285Y-76468928D01*
X141839285Y-78433214D02*
X141089285Y-78433214D01*
X141625000Y-78183214D01*
X141089285Y-77933214D01*
X141839285Y-77933214D01*
X141839285Y-77576071D02*
X141089285Y-77576071D01*
X141803571Y-77254642D02*
X141839285Y-77147500D01*
X141839285Y-76968928D01*
X141803571Y-76897500D01*
X141767857Y-76861785D01*
X141696428Y-76826071D01*
X141625000Y-76826071D01*
X141553571Y-76861785D01*
X141517857Y-76897500D01*
X141482142Y-76968928D01*
X141446428Y-77111785D01*
X141410714Y-77183214D01*
X141375000Y-77218928D01*
X141303571Y-77254642D01*
X141232142Y-77254642D01*
X141160714Y-77218928D01*
X141125000Y-77183214D01*
X141089285Y-77111785D01*
X141089285Y-76933214D01*
X141125000Y-76826071D01*
X141089285Y-76361785D02*
X141089285Y-76218928D01*
X141125000Y-76147500D01*
X141196428Y-76076071D01*
X141339285Y-76040357D01*
X141589285Y-76040357D01*
X141732142Y-76076071D01*
X141803571Y-76147500D01*
X141839285Y-76218928D01*
X141839285Y-76361785D01*
X141803571Y-76433214D01*
X141732142Y-76504642D01*
X141589285Y-76540357D01*
X141339285Y-76540357D01*
X141196428Y-76504642D01*
X141125000Y-76433214D01*
X141089285Y-76361785D01*
X146867857Y-76754642D02*
X146903571Y-76790357D01*
X146939285Y-76897500D01*
X146939285Y-76968928D01*
X146903571Y-77076071D01*
X146832142Y-77147500D01*
X146760714Y-77183214D01*
X146617857Y-77218928D01*
X146510714Y-77218928D01*
X146367857Y-77183214D01*
X146296428Y-77147500D01*
X146225000Y-77076071D01*
X146189285Y-76968928D01*
X146189285Y-76897500D01*
X146225000Y-76790357D01*
X146260714Y-76754642D01*
X146903571Y-76468928D02*
X146939285Y-76361785D01*
X146939285Y-76183214D01*
X146903571Y-76111785D01*
X146867857Y-76076071D01*
X146796428Y-76040357D01*
X146725000Y-76040357D01*
X146653571Y-76076071D01*
X146617857Y-76111785D01*
X146582142Y-76183214D01*
X146546428Y-76326071D01*
X146510714Y-76397500D01*
X146475000Y-76433214D01*
X146403571Y-76468928D01*
X146332142Y-76468928D01*
X146260714Y-76433214D01*
X146225000Y-76397500D01*
X146189285Y-76326071D01*
X146189285Y-76147500D01*
X146225000Y-76040357D01*
X148689285Y-77861785D02*
X148689285Y-77397500D01*
X148975000Y-77647500D01*
X148975000Y-77540357D01*
X149010714Y-77468928D01*
X149046428Y-77433214D01*
X149117857Y-77397500D01*
X149296428Y-77397500D01*
X149367857Y-77433214D01*
X149403571Y-77468928D01*
X149439285Y-77540357D01*
X149439285Y-77754642D01*
X149403571Y-77826071D01*
X149367857Y-77861785D01*
X148689285Y-77183214D02*
X149439285Y-76933214D01*
X148689285Y-76683214D01*
X148689285Y-76504642D02*
X148689285Y-76040357D01*
X148975000Y-76290357D01*
X148975000Y-76183214D01*
X149010714Y-76111785D01*
X149046428Y-76076071D01*
X149117857Y-76040357D01*
X149296428Y-76040357D01*
X149367857Y-76076071D01*
X149403571Y-76111785D01*
X149439285Y-76183214D01*
X149439285Y-76397500D01*
X149403571Y-76468928D01*
X149367857Y-76504642D01*
X144303571Y-77968928D02*
X144339285Y-77861785D01*
X144339285Y-77683214D01*
X144303571Y-77611785D01*
X144267857Y-77576071D01*
X144196428Y-77540357D01*
X144125000Y-77540357D01*
X144053571Y-77576071D01*
X144017857Y-77611785D01*
X143982142Y-77683214D01*
X143946428Y-77826071D01*
X143910714Y-77897500D01*
X143875000Y-77933214D01*
X143803571Y-77968928D01*
X143732142Y-77968928D01*
X143660714Y-77933214D01*
X143625000Y-77897500D01*
X143589285Y-77826071D01*
X143589285Y-77647500D01*
X143625000Y-77540357D01*
X144267857Y-76790357D02*
X144303571Y-76826071D01*
X144339285Y-76933214D01*
X144339285Y-77004642D01*
X144303571Y-77111785D01*
X144232142Y-77183214D01*
X144160714Y-77218928D01*
X144017857Y-77254642D01*
X143910714Y-77254642D01*
X143767857Y-77218928D01*
X143696428Y-77183214D01*
X143625000Y-77111785D01*
X143589285Y-77004642D01*
X143589285Y-76933214D01*
X143625000Y-76826071D01*
X143660714Y-76790357D01*
X144339285Y-76468928D02*
X143589285Y-76468928D01*
X144339285Y-76040357D02*
X143910714Y-76361785D01*
X143589285Y-76040357D02*
X144017857Y-76468928D01*
X154667857Y-63239285D02*
X154667857Y-62489285D01*
X154989285Y-62560714D02*
X155025000Y-62525000D01*
X155096428Y-62489285D01*
X155275000Y-62489285D01*
X155346428Y-62525000D01*
X155382142Y-62560714D01*
X155417857Y-62632142D01*
X155417857Y-62703571D01*
X155382142Y-62810714D01*
X154953571Y-63239285D01*
X155417857Y-63239285D01*
X156167857Y-63167857D02*
X156132142Y-63203571D01*
X156025000Y-63239285D01*
X155953571Y-63239285D01*
X155846428Y-63203571D01*
X155775000Y-63132142D01*
X155739285Y-63060714D01*
X155703571Y-62917857D01*
X155703571Y-62810714D01*
X155739285Y-62667857D01*
X155775000Y-62596428D01*
X155846428Y-62525000D01*
X155953571Y-62489285D01*
X156025000Y-62489285D01*
X156132142Y-62525000D01*
X156167857Y-62560714D01*
X141932142Y-80403571D02*
X142039285Y-80439285D01*
X142217857Y-80439285D01*
X142289285Y-80403571D01*
X142325000Y-80367857D01*
X142360714Y-80296428D01*
X142360714Y-80225000D01*
X142325000Y-80153571D01*
X142289285Y-80117857D01*
X142217857Y-80082142D01*
X142075000Y-80046428D01*
X142003571Y-80010714D01*
X141967857Y-79975000D01*
X141932142Y-79903571D01*
X141932142Y-79832142D01*
X141967857Y-79760714D01*
X142003571Y-79725000D01*
X142075000Y-79689285D01*
X142253571Y-79689285D01*
X142360714Y-79725000D01*
X142682142Y-80439285D02*
X142682142Y-79689285D01*
X142967857Y-79689285D01*
X143039285Y-79725000D01*
X143075000Y-79760714D01*
X143110714Y-79832142D01*
X143110714Y-79939285D01*
X143075000Y-80010714D01*
X143039285Y-80046428D01*
X142967857Y-80082142D01*
X142682142Y-80082142D01*
X143432142Y-80439285D02*
X143432142Y-79689285D01*
X151525000Y-80403571D02*
X151632142Y-80439285D01*
X151810714Y-80439285D01*
X151882142Y-80403571D01*
X151917857Y-80367857D01*
X151953571Y-80296428D01*
X151953571Y-80225000D01*
X151917857Y-80153571D01*
X151882142Y-80117857D01*
X151810714Y-80082142D01*
X151667857Y-80046428D01*
X151596428Y-80010714D01*
X151560714Y-79975000D01*
X151525000Y-79903571D01*
X151525000Y-79832142D01*
X151560714Y-79760714D01*
X151596428Y-79725000D01*
X151667857Y-79689285D01*
X151846428Y-79689285D01*
X151953571Y-79725000D01*
X152275000Y-80046428D02*
X152525000Y-80046428D01*
X152632142Y-80439285D02*
X152275000Y-80439285D01*
X152275000Y-79689285D01*
X152632142Y-79689285D01*
X153382142Y-80439285D02*
X153132142Y-80082142D01*
X152953571Y-80439285D02*
X152953571Y-79689285D01*
X153239285Y-79689285D01*
X153310714Y-79725000D01*
X153346428Y-79760714D01*
X153382142Y-79832142D01*
X153382142Y-79939285D01*
X153346428Y-80010714D01*
X153310714Y-80046428D01*
X153239285Y-80082142D01*
X152953571Y-80082142D01*
X153703571Y-80439285D02*
X153703571Y-79689285D01*
X154025000Y-80225000D02*
X154382142Y-80225000D01*
X153953571Y-80439285D02*
X154203571Y-79689285D01*
X154453571Y-80439285D01*
X155060714Y-80439285D02*
X154703571Y-80439285D01*
X154703571Y-79689285D01*
X155882142Y-80439285D02*
X155882142Y-79689285D01*
X156060714Y-79689285D01*
X156167857Y-79725000D01*
X156239285Y-79796428D01*
X156275000Y-79867857D01*
X156310714Y-80010714D01*
X156310714Y-80117857D01*
X156275000Y-80260714D01*
X156239285Y-80332142D01*
X156167857Y-80403571D01*
X156060714Y-80439285D01*
X155882142Y-80439285D01*
X156632142Y-80046428D02*
X156882142Y-80046428D01*
X156989285Y-80439285D02*
X156632142Y-80439285D01*
X156632142Y-79689285D01*
X156989285Y-79689285D01*
X157560714Y-80046428D02*
X157667857Y-80082142D01*
X157703571Y-80117857D01*
X157739285Y-80189285D01*
X157739285Y-80296428D01*
X157703571Y-80367857D01*
X157667857Y-80403571D01*
X157596428Y-80439285D01*
X157310714Y-80439285D01*
X157310714Y-79689285D01*
X157560714Y-79689285D01*
X157632142Y-79725000D01*
X157667857Y-79760714D01*
X157703571Y-79832142D01*
X157703571Y-79903571D01*
X157667857Y-79975000D01*
X157632142Y-80010714D01*
X157560714Y-80046428D01*
X157310714Y-80046428D01*
X158060714Y-79689285D02*
X158060714Y-80296428D01*
X158096428Y-80367857D01*
X158132142Y-80403571D01*
X158203571Y-80439285D01*
X158346428Y-80439285D01*
X158417857Y-80403571D01*
X158453571Y-80367857D01*
X158489285Y-80296428D01*
X158489285Y-79689285D01*
X159239285Y-79725000D02*
X159167857Y-79689285D01*
X159060714Y-79689285D01*
X158953571Y-79725000D01*
X158882142Y-79796428D01*
X158846428Y-79867857D01*
X158810714Y-80010714D01*
X158810714Y-80117857D01*
X158846428Y-80260714D01*
X158882142Y-80332142D01*
X158953571Y-80403571D01*
X159060714Y-80439285D01*
X159132142Y-80439285D01*
X159239285Y-80403571D01*
X159275000Y-80367857D01*
X159275000Y-80117857D01*
X159132142Y-80117857D01*
X151600000Y-63900000D02*
X159200000Y-63900000D01*
X136300000Y-79100000D02*
X149100000Y-79100000D01*
X151600000Y-79100000D02*
X159200000Y-79100000D01*
X158789285Y-66995357D02*
X158789285Y-66531071D01*
X159075000Y-66781071D01*
X159075000Y-66673928D01*
X159110714Y-66602500D01*
X159146428Y-66566785D01*
X159217857Y-66531071D01*
X159396428Y-66531071D01*
X159467857Y-66566785D01*
X159503571Y-66602500D01*
X159539285Y-66673928D01*
X159539285Y-66888214D01*
X159503571Y-66959642D01*
X159467857Y-66995357D01*
X158789285Y-66316785D02*
X159539285Y-66066785D01*
X158789285Y-65816785D01*
X158789285Y-65638214D02*
X158789285Y-65173928D01*
X159075000Y-65423928D01*
X159075000Y-65316785D01*
X159110714Y-65245357D01*
X159146428Y-65209642D01*
X159217857Y-65173928D01*
X159396428Y-65173928D01*
X159467857Y-65209642D01*
X159503571Y-65245357D01*
X159539285Y-65316785D01*
X159539285Y-65531071D01*
X159503571Y-65602500D01*
X159467857Y-65638214D01*
X157003571Y-66959642D02*
X157039285Y-66852500D01*
X157039285Y-66673928D01*
X157003571Y-66602500D01*
X156967857Y-66566785D01*
X156896428Y-66531071D01*
X156825000Y-66531071D01*
X156753571Y-66566785D01*
X156717857Y-66602500D01*
X156682142Y-66673928D01*
X156646428Y-66816785D01*
X156610714Y-66888214D01*
X156575000Y-66923928D01*
X156503571Y-66959642D01*
X156432142Y-66959642D01*
X156360714Y-66923928D01*
X156325000Y-66888214D01*
X156289285Y-66816785D01*
X156289285Y-66638214D01*
X156325000Y-66531071D01*
X157039285Y-66209642D02*
X156289285Y-66209642D01*
X156289285Y-66031071D01*
X156325000Y-65923928D01*
X156396428Y-65852500D01*
X156467857Y-65816785D01*
X156610714Y-65781071D01*
X156717857Y-65781071D01*
X156860714Y-65816785D01*
X156932142Y-65852500D01*
X157003571Y-65923928D01*
X157039285Y-66031071D01*
X157039285Y-66209642D01*
X156825000Y-65495357D02*
X156825000Y-65138214D01*
X157039285Y-65566785D02*
X156289285Y-65316785D01*
X157039285Y-65066785D01*
X154403571Y-66959642D02*
X154439285Y-66852500D01*
X154439285Y-66673928D01*
X154403571Y-66602500D01*
X154367857Y-66566785D01*
X154296428Y-66531071D01*
X154225000Y-66531071D01*
X154153571Y-66566785D01*
X154117857Y-66602500D01*
X154082142Y-66673928D01*
X154046428Y-66816785D01*
X154010714Y-66888214D01*
X153975000Y-66923928D01*
X153903571Y-66959642D01*
X153832142Y-66959642D01*
X153760714Y-66923928D01*
X153725000Y-66888214D01*
X153689285Y-66816785D01*
X153689285Y-66638214D01*
X153725000Y-66531071D01*
X154367857Y-65781071D02*
X154403571Y-65816785D01*
X154439285Y-65923928D01*
X154439285Y-65995357D01*
X154403571Y-66102500D01*
X154332142Y-66173928D01*
X154260714Y-66209642D01*
X154117857Y-66245357D01*
X154010714Y-66245357D01*
X153867857Y-66209642D01*
X153796428Y-66173928D01*
X153725000Y-66102500D01*
X153689285Y-65995357D01*
X153689285Y-65923928D01*
X153725000Y-65816785D01*
X153760714Y-65781071D01*
X154439285Y-65102500D02*
X154439285Y-65459642D01*
X153689285Y-65459642D01*
X151225000Y-66531071D02*
X151189285Y-66602500D01*
X151189285Y-66709642D01*
X151225000Y-66816785D01*
X151296428Y-66888214D01*
X151367857Y-66923928D01*
X151510714Y-66959642D01*
X151617857Y-66959642D01*
X151760714Y-66923928D01*
X151832142Y-66888214D01*
X151903571Y-66816785D01*
X151939285Y-66709642D01*
X151939285Y-66638214D01*
X151903571Y-66531071D01*
X151867857Y-66495357D01*
X151617857Y-66495357D01*
X151617857Y-66638214D01*
X151939285Y-66173928D02*
X151189285Y-66173928D01*
X151939285Y-65745357D01*
X151189285Y-65745357D01*
X151939285Y-65388214D02*
X151189285Y-65388214D01*
X151189285Y-65209642D01*
X151225000Y-65102500D01*
X151296428Y-65031071D01*
X151367857Y-64995357D01*
X151510714Y-64959642D01*
X151617857Y-64959642D01*
X151760714Y-64995357D01*
X151832142Y-65031071D01*
X151903571Y-65102500D01*
X151939285Y-65209642D01*
X151939285Y-65388214D01*
X158789285Y-77861785D02*
X158789285Y-77397500D01*
X159075000Y-77647500D01*
X159075000Y-77540357D01*
X159110714Y-77468928D01*
X159146428Y-77433214D01*
X159217857Y-77397500D01*
X159396428Y-77397500D01*
X159467857Y-77433214D01*
X159503571Y-77468928D01*
X159539285Y-77540357D01*
X159539285Y-77754642D01*
X159503571Y-77826071D01*
X159467857Y-77861785D01*
X158789285Y-77183214D02*
X159539285Y-76933214D01*
X158789285Y-76683214D01*
X158789285Y-76504642D02*
X158789285Y-76040357D01*
X159075000Y-76290357D01*
X159075000Y-76183214D01*
X159110714Y-76111785D01*
X159146428Y-76076071D01*
X159217857Y-76040357D01*
X159396428Y-76040357D01*
X159467857Y-76076071D01*
X159503571Y-76111785D01*
X159539285Y-76183214D01*
X159539285Y-76397500D01*
X159503571Y-76468928D01*
X159467857Y-76504642D01*
X157039285Y-76754642D02*
X156682142Y-77004642D01*
X157039285Y-77183214D02*
X156289285Y-77183214D01*
X156289285Y-76897500D01*
X156325000Y-76826071D01*
X156360714Y-76790357D01*
X156432142Y-76754642D01*
X156539285Y-76754642D01*
X156610714Y-76790357D01*
X156646428Y-76826071D01*
X156682142Y-76897500D01*
X156682142Y-77183214D01*
X156289285Y-76504642D02*
X157039285Y-76004642D01*
X156289285Y-76004642D02*
X157039285Y-76504642D01*
X153689285Y-77111785D02*
X153689285Y-76683214D01*
X154439285Y-76897500D02*
X153689285Y-76897500D01*
X153689285Y-76504642D02*
X154439285Y-76004642D01*
X153689285Y-76004642D02*
X154439285Y-76504642D01*
X151225000Y-77611785D02*
X151189285Y-77683214D01*
X151189285Y-77790357D01*
X151225000Y-77897500D01*
X151296428Y-77968928D01*
X151367857Y-78004642D01*
X151510714Y-78040357D01*
X151617857Y-78040357D01*
X151760714Y-78004642D01*
X151832142Y-77968928D01*
X151903571Y-77897500D01*
X151939285Y-77790357D01*
X151939285Y-77718928D01*
X151903571Y-77611785D01*
X151867857Y-77576071D01*
X151617857Y-77576071D01*
X151617857Y-77718928D01*
X151939285Y-77254642D02*
X151189285Y-77254642D01*
X151939285Y-76826071D01*
X151189285Y-76826071D01*
X151939285Y-76468928D02*
X151189285Y-76468928D01*
X151189285Y-76290357D01*
X151225000Y-76183214D01*
X151296428Y-76111785D01*
X151367857Y-76076071D01*
X151510714Y-76040357D01*
X151617857Y-76040357D01*
X151760714Y-76076071D01*
X151832142Y-76111785D01*
X151903571Y-76183214D01*
X151939285Y-76290357D01*
X151939285Y-76468928D01*
X141100000Y-108021428D02*
X141100000Y-109164285D01*
X141385714Y-108878571D02*
X141100000Y-109164285D01*
X140814285Y-108878571D01*
X126200000Y-122578571D02*
X126200000Y-121435714D01*
X125914285Y-121721428D02*
X126200000Y-121435714D01*
X126485714Y-121721428D01*
D11*
X173100000Y-134300000D02*
X173100000Y-134600000D01*
X173100000Y-134300000D02*
X165900000Y-134300000D01*
X165900000Y-134300000D02*
X165900000Y-134600000D01*
D12*
X166519047Y-140150000D02*
X166471428Y-140126190D01*
X166400000Y-140126190D01*
X166328571Y-140150000D01*
X166280952Y-140197619D01*
X166257142Y-140245238D01*
X166233333Y-140340476D01*
X166233333Y-140411904D01*
X166257142Y-140507142D01*
X166280952Y-140554761D01*
X166328571Y-140602380D01*
X166400000Y-140626190D01*
X166447619Y-140626190D01*
X166519047Y-140602380D01*
X166542857Y-140578571D01*
X166542857Y-140411904D01*
X166447619Y-140411904D01*
X166757142Y-140626190D02*
X166757142Y-140126190D01*
X167042857Y-140626190D01*
X167042857Y-140126190D01*
X167280952Y-140626190D02*
X167280952Y-140126190D01*
X167400000Y-140126190D01*
X167471428Y-140150000D01*
X167519047Y-140197619D01*
X167542857Y-140245238D01*
X167566666Y-140340476D01*
X167566666Y-140411904D01*
X167542857Y-140507142D01*
X167519047Y-140554761D01*
X167471428Y-140602380D01*
X167400000Y-140626190D01*
X167280952Y-140626190D01*
X168880952Y-134926190D02*
X169190476Y-134926190D01*
X169023809Y-135116666D01*
X169095238Y-135116666D01*
X169142857Y-135140476D01*
X169166666Y-135164285D01*
X169190476Y-135211904D01*
X169190476Y-135330952D01*
X169166666Y-135378571D01*
X169142857Y-135402380D01*
X169095238Y-135426190D01*
X168952380Y-135426190D01*
X168904761Y-135402380D01*
X168880952Y-135378571D01*
X169333333Y-134926190D02*
X169500000Y-135426190D01*
X169666666Y-134926190D01*
X169785714Y-134926190D02*
X170095238Y-134926190D01*
X169928571Y-135116666D01*
X170000000Y-135116666D01*
X170047619Y-135140476D01*
X170071428Y-135164285D01*
X170095238Y-135211904D01*
X170095238Y-135330952D01*
X170071428Y-135378571D01*
X170047619Y-135402380D01*
X170000000Y-135426190D01*
X169857142Y-135426190D01*
X169809523Y-135402380D01*
X169785714Y-135378571D01*
X171619047Y-140126190D02*
X171904761Y-140126190D01*
X171761904Y-140626190D02*
X171761904Y-140126190D01*
X172023809Y-140126190D02*
X172357142Y-140626190D01*
X172357142Y-140126190D02*
X172023809Y-140626190D01*
X168880952Y-140126190D02*
X169190476Y-140126190D01*
X169023809Y-140316666D01*
X169095238Y-140316666D01*
X169142857Y-140340476D01*
X169166666Y-140364285D01*
X169190476Y-140411904D01*
X169190476Y-140530952D01*
X169166666Y-140578571D01*
X169142857Y-140602380D01*
X169095238Y-140626190D01*
X168952380Y-140626190D01*
X168904761Y-140602380D01*
X168880952Y-140578571D01*
X169333333Y-140126190D02*
X169500000Y-140626190D01*
X169666666Y-140126190D01*
X169785714Y-140126190D02*
X170095238Y-140126190D01*
X169928571Y-140316666D01*
X170000000Y-140316666D01*
X170047619Y-140340476D01*
X170071428Y-140364285D01*
X170095238Y-140411904D01*
X170095238Y-140530952D01*
X170071428Y-140578571D01*
X170047619Y-140602380D01*
X170000000Y-140626190D01*
X169857142Y-140626190D01*
X169809523Y-140602380D01*
X169785714Y-140578571D01*
X171619047Y-134950000D02*
X171571428Y-134926190D01*
X171500000Y-134926190D01*
X171428571Y-134950000D01*
X171380952Y-134997619D01*
X171357142Y-135045238D01*
X171333333Y-135140476D01*
X171333333Y-135211904D01*
X171357142Y-135307142D01*
X171380952Y-135354761D01*
X171428571Y-135402380D01*
X171500000Y-135426190D01*
X171547619Y-135426190D01*
X171619047Y-135402380D01*
X171642857Y-135378571D01*
X171642857Y-135211904D01*
X171547619Y-135211904D01*
X171857142Y-135426190D02*
X171857142Y-134926190D01*
X172142857Y-135426190D01*
X172142857Y-134926190D01*
X172380952Y-135426190D02*
X172380952Y-134926190D01*
X172500000Y-134926190D01*
X172571428Y-134950000D01*
X172619047Y-134997619D01*
X172642857Y-135045238D01*
X172666666Y-135140476D01*
X172666666Y-135211904D01*
X172642857Y-135307142D01*
X172619047Y-135354761D01*
X172571428Y-135402380D01*
X172500000Y-135426190D01*
X172380952Y-135426190D01*
X166816666Y-135426190D02*
X166650000Y-135188095D01*
X166530952Y-135426190D02*
X166530952Y-134926190D01*
X166721428Y-134926190D01*
X166769047Y-134950000D01*
X166792857Y-134973809D01*
X166816666Y-135021428D01*
X166816666Y-135092857D01*
X166792857Y-135140476D01*
X166769047Y-135164285D01*
X166721428Y-135188095D01*
X166530952Y-135188095D01*
X166983333Y-134926190D02*
X167316666Y-135426190D01*
X167316666Y-134926190D02*
X166983333Y-135426190D01*
X89980952Y-140126190D02*
X90290476Y-140126190D01*
X90123809Y-140316666D01*
X90195238Y-140316666D01*
X90242857Y-140340476D01*
X90266666Y-140364285D01*
X90290476Y-140411904D01*
X90290476Y-140530952D01*
X90266666Y-140578571D01*
X90242857Y-140602380D01*
X90195238Y-140626190D01*
X90052380Y-140626190D01*
X90004761Y-140602380D01*
X89980952Y-140578571D01*
X90433333Y-140126190D02*
X90600000Y-140626190D01*
X90766666Y-140126190D01*
X90885714Y-140126190D02*
X91195238Y-140126190D01*
X91028571Y-140316666D01*
X91100000Y-140316666D01*
X91147619Y-140340476D01*
X91171428Y-140364285D01*
X91195238Y-140411904D01*
X91195238Y-140530952D01*
X91171428Y-140578571D01*
X91147619Y-140602380D01*
X91100000Y-140626190D01*
X90957142Y-140626190D01*
X90909523Y-140602380D01*
X90885714Y-140578571D01*
X87619047Y-140150000D02*
X87571428Y-140126190D01*
X87500000Y-140126190D01*
X87428571Y-140150000D01*
X87380952Y-140197619D01*
X87357142Y-140245238D01*
X87333333Y-140340476D01*
X87333333Y-140411904D01*
X87357142Y-140507142D01*
X87380952Y-140554761D01*
X87428571Y-140602380D01*
X87500000Y-140626190D01*
X87547619Y-140626190D01*
X87619047Y-140602380D01*
X87642857Y-140578571D01*
X87642857Y-140411904D01*
X87547619Y-140411904D01*
X87857142Y-140626190D02*
X87857142Y-140126190D01*
X88142857Y-140626190D01*
X88142857Y-140126190D01*
X88380952Y-140626190D02*
X88380952Y-140126190D01*
X88500000Y-140126190D01*
X88571428Y-140150000D01*
X88619047Y-140197619D01*
X88642857Y-140245238D01*
X88666666Y-140340476D01*
X88666666Y-140411904D01*
X88642857Y-140507142D01*
X88619047Y-140554761D01*
X88571428Y-140602380D01*
X88500000Y-140626190D01*
X88380952Y-140626190D01*
X92719047Y-140126190D02*
X93004761Y-140126190D01*
X92861904Y-140626190D02*
X92861904Y-140126190D01*
X93123809Y-140126190D02*
X93457142Y-140626190D01*
X93457142Y-140126190D02*
X93123809Y-140626190D01*
D11*
X87000000Y-134300000D02*
X87000000Y-134600000D01*
X94200000Y-134300000D02*
X87000000Y-134300000D01*
X94200000Y-134300000D02*
X94200000Y-134600000D01*
D12*
X87916666Y-135426190D02*
X87750000Y-135188095D01*
X87630952Y-135426190D02*
X87630952Y-134926190D01*
X87821428Y-134926190D01*
X87869047Y-134950000D01*
X87892857Y-134973809D01*
X87916666Y-135021428D01*
X87916666Y-135092857D01*
X87892857Y-135140476D01*
X87869047Y-135164285D01*
X87821428Y-135188095D01*
X87630952Y-135188095D01*
X88083333Y-134926190D02*
X88416666Y-135426190D01*
X88416666Y-134926190D02*
X88083333Y-135426190D01*
X92719047Y-134950000D02*
X92671428Y-134926190D01*
X92600000Y-134926190D01*
X92528571Y-134950000D01*
X92480952Y-134997619D01*
X92457142Y-135045238D01*
X92433333Y-135140476D01*
X92433333Y-135211904D01*
X92457142Y-135307142D01*
X92480952Y-135354761D01*
X92528571Y-135402380D01*
X92600000Y-135426190D01*
X92647619Y-135426190D01*
X92719047Y-135402380D01*
X92742857Y-135378571D01*
X92742857Y-135211904D01*
X92647619Y-135211904D01*
X92957142Y-135426190D02*
X92957142Y-134926190D01*
X93242857Y-135426190D01*
X93242857Y-134926190D01*
X93480952Y-135426190D02*
X93480952Y-134926190D01*
X93600000Y-134926190D01*
X93671428Y-134950000D01*
X93719047Y-134997619D01*
X93742857Y-135045238D01*
X93766666Y-135140476D01*
X93766666Y-135211904D01*
X93742857Y-135307142D01*
X93719047Y-135354761D01*
X93671428Y-135402380D01*
X93600000Y-135426190D01*
X93480952Y-135426190D01*
X89980952Y-134926190D02*
X90290476Y-134926190D01*
X90123809Y-135116666D01*
X90195238Y-135116666D01*
X90242857Y-135140476D01*
X90266666Y-135164285D01*
X90290476Y-135211904D01*
X90290476Y-135330952D01*
X90266666Y-135378571D01*
X90242857Y-135402380D01*
X90195238Y-135426190D01*
X90052380Y-135426190D01*
X90004761Y-135402380D01*
X89980952Y-135378571D01*
X90433333Y-134926190D02*
X90600000Y-135426190D01*
X90766666Y-134926190D01*
X90885714Y-134926190D02*
X91195238Y-134926190D01*
X91028571Y-135116666D01*
X91100000Y-135116666D01*
X91147619Y-135140476D01*
X91171428Y-135164285D01*
X91195238Y-135211904D01*
X91195238Y-135330952D01*
X91171428Y-135378571D01*
X91147619Y-135402380D01*
X91100000Y-135426190D01*
X90957142Y-135426190D01*
X90909523Y-135402380D01*
X90885714Y-135378571D01*
X163982142Y-99946428D02*
X164089285Y-99982142D01*
X164125000Y-100017857D01*
X164160714Y-100089285D01*
X164160714Y-100196428D01*
X164125000Y-100267857D01*
X164089285Y-100303571D01*
X164017857Y-100339285D01*
X163732142Y-100339285D01*
X163732142Y-99589285D01*
X163982142Y-99589285D01*
X164053571Y-99625000D01*
X164089285Y-99660714D01*
X164125000Y-99732142D01*
X164125000Y-99803571D01*
X164089285Y-99875000D01*
X164053571Y-99910714D01*
X163982142Y-99946428D01*
X163732142Y-99946428D01*
X164625000Y-99589285D02*
X164767857Y-99589285D01*
X164839285Y-99625000D01*
X164910714Y-99696428D01*
X164946428Y-99839285D01*
X164946428Y-100089285D01*
X164910714Y-100232142D01*
X164839285Y-100303571D01*
X164767857Y-100339285D01*
X164625000Y-100339285D01*
X164553571Y-100303571D01*
X164482142Y-100232142D01*
X164446428Y-100089285D01*
X164446428Y-99839285D01*
X164482142Y-99696428D01*
X164553571Y-99625000D01*
X164625000Y-99589285D01*
X165410714Y-99589285D02*
X165553571Y-99589285D01*
X165625000Y-99625000D01*
X165696428Y-99696428D01*
X165732142Y-99839285D01*
X165732142Y-100089285D01*
X165696428Y-100232142D01*
X165625000Y-100303571D01*
X165553571Y-100339285D01*
X165410714Y-100339285D01*
X165339285Y-100303571D01*
X165267857Y-100232142D01*
X165232142Y-100089285D01*
X165232142Y-99839285D01*
X165267857Y-99696428D01*
X165339285Y-99625000D01*
X165410714Y-99589285D01*
X165946428Y-99589285D02*
X166375000Y-99589285D01*
X166160714Y-100339285D02*
X166160714Y-99589285D01*
X144053571Y-100339285D02*
X144053571Y-99589285D01*
X144339285Y-99589285D01*
X144410714Y-99625000D01*
X144446428Y-99660714D01*
X144482142Y-99732142D01*
X144482142Y-99839285D01*
X144446428Y-99910714D01*
X144410714Y-99946428D01*
X144339285Y-99982142D01*
X144053571Y-99982142D01*
X145232142Y-100339285D02*
X144982142Y-99982142D01*
X144803571Y-100339285D02*
X144803571Y-99589285D01*
X145089285Y-99589285D01*
X145160714Y-99625000D01*
X145196428Y-99660714D01*
X145232142Y-99732142D01*
X145232142Y-99839285D01*
X145196428Y-99910714D01*
X145160714Y-99946428D01*
X145089285Y-99982142D01*
X144803571Y-99982142D01*
X145946428Y-99625000D02*
X145875000Y-99589285D01*
X145767857Y-99589285D01*
X145660714Y-99625000D01*
X145589285Y-99696428D01*
X145553571Y-99767857D01*
X145517857Y-99910714D01*
X145517857Y-100017857D01*
X145553571Y-100160714D01*
X145589285Y-100232142D01*
X145660714Y-100303571D01*
X145767857Y-100339285D01*
X145839285Y-100339285D01*
X145946428Y-100303571D01*
X145982142Y-100267857D01*
X145982142Y-100017857D01*
X145839285Y-100017857D01*
X83133714Y-118479285D02*
X83133714Y-119015000D01*
X83098000Y-119122142D01*
X83026571Y-119193571D01*
X82919428Y-119229285D01*
X82848000Y-119229285D01*
X83848000Y-119229285D02*
X83490857Y-119229285D01*
X83490857Y-118479285D01*
X84526571Y-119157857D02*
X84490857Y-119193571D01*
X84383714Y-119229285D01*
X84312285Y-119229285D01*
X84205142Y-119193571D01*
X84133714Y-119122142D01*
X84098000Y-119050714D01*
X84062285Y-118907857D01*
X84062285Y-118800714D01*
X84098000Y-118657857D01*
X84133714Y-118586428D01*
X84205142Y-118515000D01*
X84312285Y-118479285D01*
X84383714Y-118479285D01*
X84490857Y-118515000D01*
X84526571Y-118550714D01*
X85062285Y-118479285D02*
X85062285Y-119015000D01*
X85026571Y-119122142D01*
X84955142Y-119193571D01*
X84848000Y-119229285D01*
X84776571Y-119229285D01*
X85776571Y-119229285D02*
X85419428Y-119229285D01*
X85419428Y-118479285D01*
X86455142Y-119157857D02*
X86419428Y-119193571D01*
X86312285Y-119229285D01*
X86240857Y-119229285D01*
X86133714Y-119193571D01*
X86062285Y-119122142D01*
X86026571Y-119050714D01*
X85990857Y-118907857D01*
X85990857Y-118800714D01*
X86026571Y-118657857D01*
X86062285Y-118586428D01*
X86133714Y-118515000D01*
X86240857Y-118479285D01*
X86312285Y-118479285D01*
X86419428Y-118515000D01*
X86455142Y-118550714D01*
X86990857Y-118479285D02*
X86990857Y-119015000D01*
X86955142Y-119122142D01*
X86883714Y-119193571D01*
X86776571Y-119229285D01*
X86705142Y-119229285D01*
X87705142Y-119229285D02*
X87348000Y-119229285D01*
X87348000Y-118479285D01*
X88383714Y-119157857D02*
X88348000Y-119193571D01*
X88240857Y-119229285D01*
X88169428Y-119229285D01*
X88062285Y-119193571D01*
X87990857Y-119122142D01*
X87955142Y-119050714D01*
X87919428Y-118907857D01*
X87919428Y-118800714D01*
X87955142Y-118657857D01*
X87990857Y-118586428D01*
X88062285Y-118515000D01*
X88169428Y-118479285D01*
X88240857Y-118479285D01*
X88348000Y-118515000D01*
X88383714Y-118550714D01*
X88919428Y-118479285D02*
X88919428Y-119015000D01*
X88883714Y-119122142D01*
X88812285Y-119193571D01*
X88705142Y-119229285D01*
X88633714Y-119229285D01*
X89633714Y-119229285D02*
X89276571Y-119229285D01*
X89276571Y-118479285D01*
X90312285Y-119157857D02*
X90276571Y-119193571D01*
X90169428Y-119229285D01*
X90098000Y-119229285D01*
X89990857Y-119193571D01*
X89919428Y-119122142D01*
X89883714Y-119050714D01*
X89848000Y-118907857D01*
X89848000Y-118800714D01*
X89883714Y-118657857D01*
X89919428Y-118586428D01*
X89990857Y-118515000D01*
X90098000Y-118479285D01*
X90169428Y-118479285D01*
X90276571Y-118515000D01*
X90312285Y-118550714D01*
X128982142Y-100303571D02*
X129089285Y-100339285D01*
X129267857Y-100339285D01*
X129339285Y-100303571D01*
X129375000Y-100267857D01*
X129410714Y-100196428D01*
X129410714Y-100125000D01*
X129375000Y-100053571D01*
X129339285Y-100017857D01*
X129267857Y-99982142D01*
X129125000Y-99946428D01*
X129053571Y-99910714D01*
X129017857Y-99875000D01*
X128982142Y-99803571D01*
X128982142Y-99732142D01*
X129017857Y-99660714D01*
X129053571Y-99625000D01*
X129125000Y-99589285D01*
X129303571Y-99589285D01*
X129410714Y-99625000D01*
X129660714Y-99589285D02*
X129839285Y-100339285D01*
X129982142Y-99803571D01*
X130125000Y-100339285D01*
X130303571Y-99589285D01*
X130589285Y-100339285D02*
X130589285Y-99589285D01*
X130767857Y-99589285D01*
X130875000Y-99625000D01*
X130946428Y-99696428D01*
X130982142Y-99767857D01*
X131017857Y-99910714D01*
X131017857Y-100017857D01*
X130982142Y-100160714D01*
X130946428Y-100232142D01*
X130875000Y-100303571D01*
X130767857Y-100339285D01*
X130589285Y-100339285D01*
X153910714Y-100339285D02*
X153660714Y-99982142D01*
X153482142Y-100339285D02*
X153482142Y-99589285D01*
X153767857Y-99589285D01*
X153839285Y-99625000D01*
X153875000Y-99660714D01*
X153910714Y-99732142D01*
X153910714Y-99839285D01*
X153875000Y-99910714D01*
X153839285Y-99946428D01*
X153767857Y-99982142D01*
X153482142Y-99982142D01*
X154232142Y-99946428D02*
X154482142Y-99946428D01*
X154589285Y-100339285D02*
X154232142Y-100339285D01*
X154232142Y-99589285D01*
X154589285Y-99589285D01*
X154875000Y-100303571D02*
X154982142Y-100339285D01*
X155160714Y-100339285D01*
X155232142Y-100303571D01*
X155267857Y-100267857D01*
X155303571Y-100196428D01*
X155303571Y-100125000D01*
X155267857Y-100053571D01*
X155232142Y-100017857D01*
X155160714Y-99982142D01*
X155017857Y-99946428D01*
X154946428Y-99910714D01*
X154910714Y-99875000D01*
X154875000Y-99803571D01*
X154875000Y-99732142D01*
X154910714Y-99660714D01*
X154946428Y-99625000D01*
X155017857Y-99589285D01*
X155196428Y-99589285D01*
X155303571Y-99625000D01*
X155625000Y-99946428D02*
X155875000Y-99946428D01*
X155982142Y-100339285D02*
X155625000Y-100339285D01*
X155625000Y-99589285D01*
X155982142Y-99589285D01*
X156196428Y-99589285D02*
X156625000Y-99589285D01*
X156410714Y-100339285D02*
X156410714Y-99589285D01*
D11*
%TO.C,U1*%
X125610000Y-121010000D02*
X126975000Y-121010000D01*
X125610000Y-121710000D02*
X125610000Y-121010000D01*
X124910000Y-121710000D02*
X125610000Y-121710000D01*
X111390000Y-121710000D02*
X111390000Y-121010000D01*
X112090000Y-121710000D02*
X111390000Y-121710000D01*
X125610000Y-107490000D02*
X125610000Y-108190000D01*
X124910000Y-107490000D02*
X125610000Y-107490000D01*
X111390000Y-107490000D02*
X111390000Y-108190000D01*
X112090000Y-107490000D02*
X111390000Y-107490000D01*
%TO.C,J2*%
X99460000Y-74100000D02*
X99460000Y-68900000D01*
X160540000Y-74100000D02*
X160540000Y-68900000D01*
X100030000Y-75540000D02*
X100030000Y-74100000D01*
X99460000Y-74100000D02*
X100030000Y-74100000D01*
X99460000Y-68900000D02*
X100030000Y-68900000D01*
X159970000Y-74100000D02*
X160540000Y-74100000D01*
X159970000Y-68900000D02*
X160540000Y-68900000D01*
X101550000Y-74100000D02*
X102570000Y-74100000D01*
X101550000Y-68900000D02*
X102570000Y-68900000D01*
X104090000Y-74100000D02*
X105110000Y-74100000D01*
X104090000Y-68900000D02*
X105110000Y-68900000D01*
X106630000Y-74100000D02*
X107650000Y-74100000D01*
X106630000Y-68900000D02*
X107650000Y-68900000D01*
X109170000Y-74100000D02*
X110190000Y-74100000D01*
X109170000Y-68900000D02*
X110190000Y-68900000D01*
X111710000Y-74100000D02*
X112730000Y-74100000D01*
X111710000Y-68900000D02*
X112730000Y-68900000D01*
X114250000Y-74100000D02*
X115270000Y-74100000D01*
X114250000Y-68900000D02*
X115270000Y-68900000D01*
X116790000Y-74100000D02*
X117810000Y-74100000D01*
X116790000Y-68900000D02*
X117810000Y-68900000D01*
X119330000Y-74100000D02*
X120350000Y-74100000D01*
X119330000Y-68900000D02*
X120350000Y-68900000D01*
X121870000Y-74100000D02*
X122890000Y-74100000D01*
X121870000Y-68900000D02*
X122890000Y-68900000D01*
X124410000Y-74100000D02*
X125430000Y-74100000D01*
X124410000Y-68900000D02*
X125430000Y-68900000D01*
X126950000Y-74100000D02*
X127970000Y-74100000D01*
X126950000Y-68900000D02*
X127970000Y-68900000D01*
X129490000Y-74100000D02*
X130510000Y-74100000D01*
X129490000Y-68900000D02*
X130510000Y-68900000D01*
X132030000Y-74100000D02*
X133050000Y-74100000D01*
X132030000Y-68900000D02*
X133050000Y-68900000D01*
X134570000Y-74100000D02*
X135590000Y-74100000D01*
X134570000Y-68900000D02*
X135590000Y-68900000D01*
X137110000Y-74100000D02*
X138130000Y-74100000D01*
X137110000Y-68900000D02*
X138130000Y-68900000D01*
X139650000Y-74100000D02*
X140670000Y-74100000D01*
X139650000Y-68900000D02*
X140670000Y-68900000D01*
X142190000Y-74100000D02*
X143210000Y-74100000D01*
X142190000Y-68900000D02*
X143210000Y-68900000D01*
X144730000Y-74100000D02*
X145750000Y-74100000D01*
X144730000Y-68900000D02*
X145750000Y-68900000D01*
X147270000Y-74100000D02*
X148290000Y-74100000D01*
X147270000Y-68900000D02*
X148290000Y-68900000D01*
X149810000Y-74100000D02*
X150830000Y-74100000D01*
X149810000Y-68900000D02*
X150830000Y-68900000D01*
X152350000Y-74100000D02*
X153370000Y-74100000D01*
X152350000Y-68900000D02*
X153370000Y-68900000D01*
X154890000Y-74100000D02*
X155910000Y-74100000D01*
X154890000Y-68900000D02*
X155910000Y-68900000D01*
X157430000Y-74100000D02*
X158450000Y-74100000D01*
X157430000Y-68900000D02*
X158450000Y-68900000D01*
%TO.C,R54*%
X154480000Y-64446359D02*
X154480000Y-64753641D01*
X153720000Y-64446359D02*
X153720000Y-64753641D01*
%TO.C,R53*%
X156980000Y-64446359D02*
X156980000Y-64753641D01*
X156220000Y-64446359D02*
X156220000Y-64753641D01*
%TO.C,R23*%
X151765000Y-55227064D02*
X151765000Y-54772936D01*
X153235000Y-55227064D02*
X153235000Y-54772936D01*
%TO.C,R22*%
X148765000Y-55227064D02*
X148765000Y-54772936D01*
X150235000Y-55227064D02*
X150235000Y-54772936D01*
%TO.C,R21*%
X145765000Y-55227064D02*
X145765000Y-54772936D01*
X147235000Y-55227064D02*
X147235000Y-54772936D01*
%TO.C,R20*%
X142765000Y-55227064D02*
X142765000Y-54772936D01*
X144235000Y-55227064D02*
X144235000Y-54772936D01*
%TO.C,R19*%
X139765000Y-55227064D02*
X139765000Y-54772936D01*
X141235000Y-55227064D02*
X141235000Y-54772936D01*
%TO.C,R18*%
X136765000Y-55227064D02*
X136765000Y-54772936D01*
X138235000Y-55227064D02*
X138235000Y-54772936D01*
%TO.C,R17*%
X133765000Y-55227064D02*
X133765000Y-54772936D01*
X135235000Y-55227064D02*
X135235000Y-54772936D01*
%TO.C,R16*%
X130765000Y-55227064D02*
X130765000Y-54772936D01*
X132235000Y-55227064D02*
X132235000Y-54772936D01*
%TO.C,R12*%
X127765000Y-55227064D02*
X127765000Y-54772936D01*
X129235000Y-55227064D02*
X129235000Y-54772936D01*
%TO.C,R11*%
X124765000Y-55227064D02*
X124765000Y-54772936D01*
X126235000Y-55227064D02*
X126235000Y-54772936D01*
%TO.C,R10*%
X121765000Y-55227064D02*
X121765000Y-54772936D01*
X123235000Y-55227064D02*
X123235000Y-54772936D01*
%TO.C,R9*%
X118765000Y-55227064D02*
X118765000Y-54772936D01*
X120235000Y-55227064D02*
X120235000Y-54772936D01*
%TO.C,R8*%
X115765000Y-55227064D02*
X115765000Y-54772936D01*
X117235000Y-55227064D02*
X117235000Y-54772936D01*
%TO.C,R25*%
X126235000Y-83072936D02*
X126235000Y-83527064D01*
X124765000Y-83072936D02*
X124765000Y-83527064D01*
%TO.C,C12*%
X128860000Y-84207836D02*
X128860000Y-83992164D01*
X128140000Y-84207836D02*
X128140000Y-83992164D01*
%TO.C,C5*%
X134140000Y-83992164D02*
X134140000Y-84207836D01*
X134860000Y-83992164D02*
X134860000Y-84207836D01*
%TO.C,C3*%
X131860000Y-84207836D02*
X131860000Y-83992164D01*
X131140000Y-84207836D02*
X131140000Y-83992164D01*
%TO.C,J9*%
X134440000Y-93735000D02*
X134505000Y-93735000D01*
X134440000Y-97265000D02*
X134505000Y-97265000D01*
X125495000Y-93735000D02*
X125560000Y-93735000D01*
X125495000Y-97265000D02*
X125560000Y-97265000D01*
X125560000Y-98590000D02*
X125560000Y-97265000D01*
X134505000Y-97265000D02*
X134505000Y-93735000D01*
X125495000Y-97265000D02*
X125495000Y-93735000D01*
%TO.C,C9*%
X136360000Y-84207836D02*
X136360000Y-83992164D01*
X135640000Y-84207836D02*
X135640000Y-83992164D01*
%TO.C,C8*%
X137860000Y-84207836D02*
X137860000Y-83992164D01*
X137140000Y-84207836D02*
X137140000Y-83992164D01*
%TO.C,C7*%
X139360000Y-84207836D02*
X139360000Y-83992164D01*
X138640000Y-84207836D02*
X138640000Y-83992164D01*
%TO.C,C6*%
X140860000Y-84207836D02*
X140860000Y-83992164D01*
X140140000Y-84207836D02*
X140140000Y-83992164D01*
%TO.C,C4*%
X142360000Y-84207836D02*
X142360000Y-83992164D01*
X141640000Y-84207836D02*
X141640000Y-83992164D01*
%TO.C,R4*%
X106420000Y-133946359D02*
X106420000Y-134253641D01*
X107180000Y-133946359D02*
X107180000Y-134253641D01*
%TO.C,R2*%
X107420000Y-133946359D02*
X107420000Y-134253641D01*
X108180000Y-133946359D02*
X108180000Y-134253641D01*
%TO.C,C25*%
X124140000Y-124192164D02*
X124140000Y-124407836D01*
X124860000Y-124192164D02*
X124860000Y-124407836D01*
%TO.C,C17*%
X114310000Y-104540580D02*
X114310000Y-104259420D01*
X113290000Y-104540580D02*
X113290000Y-104259420D01*
%TO.C,C16*%
X128307836Y-111740000D02*
X128092164Y-111740000D01*
X128307836Y-112460000D02*
X128092164Y-112460000D01*
%TO.C,C15*%
X128092164Y-110740000D02*
X128307836Y-110740000D01*
X128092164Y-111460000D02*
X128307836Y-111460000D01*
%TO.C,J13*%
X161710000Y-140770000D02*
X177210000Y-140770000D01*
X161710000Y-149890000D02*
X161710000Y-140770000D01*
X177210000Y-149890000D02*
X161710000Y-149890000D01*
X177210000Y-140770000D02*
X177210000Y-149890000D01*
X167410000Y-140770000D02*
X167410000Y-149890000D01*
X171510000Y-140770000D02*
X171510000Y-149890000D01*
%TO.C,J10*%
X147600000Y-148900000D02*
X144400000Y-148900000D01*
X149200000Y-150000000D02*
X142800000Y-150000000D01*
X144400000Y-148900000D02*
X144400000Y-150000000D01*
X147600000Y-148900000D02*
X147600000Y-150000000D01*
X149200000Y-150000000D02*
X149200000Y-148200000D01*
X142800000Y-150000000D02*
X142800000Y-148200000D01*
X143300000Y-137900000D02*
X149200000Y-137900000D01*
X149200000Y-137900000D02*
X149200000Y-138400000D01*
X146000000Y-152000000D02*
X143500000Y-152000000D01*
X148500000Y-152000000D02*
X146000000Y-152000000D01*
X148500000Y-152000000D02*
X148500000Y-150000000D01*
X143500000Y-152000000D02*
X143500000Y-150000000D01*
%TO.C,J12*%
X123600000Y-148900000D02*
X120400000Y-148900000D01*
X125200000Y-150000000D02*
X118800000Y-150000000D01*
X120400000Y-148900000D02*
X120400000Y-150000000D01*
X123600000Y-148900000D02*
X123600000Y-150000000D01*
X125200000Y-150000000D02*
X125200000Y-148200000D01*
X118800000Y-150000000D02*
X118800000Y-148200000D01*
X119300000Y-137900000D02*
X125200000Y-137900000D01*
X125200000Y-137900000D02*
X125200000Y-138400000D01*
X122000000Y-152000000D02*
X119500000Y-152000000D01*
X124500000Y-152000000D02*
X122000000Y-152000000D01*
X124500000Y-152000000D02*
X124500000Y-150000000D01*
X119500000Y-152000000D02*
X119500000Y-150000000D01*
%TO.C,J11*%
X135600000Y-148900000D02*
X132400000Y-148900000D01*
X137200000Y-150000000D02*
X130800000Y-150000000D01*
X132400000Y-148900000D02*
X132400000Y-150000000D01*
X135600000Y-148900000D02*
X135600000Y-150000000D01*
X137200000Y-150000000D02*
X137200000Y-148200000D01*
X130800000Y-150000000D02*
X130800000Y-148200000D01*
X131300000Y-137900000D02*
X137200000Y-137900000D01*
X137200000Y-137900000D02*
X137200000Y-138400000D01*
X134000000Y-152000000D02*
X131500000Y-152000000D01*
X136500000Y-152000000D02*
X134000000Y-152000000D01*
X136500000Y-152000000D02*
X136500000Y-150000000D01*
X131500000Y-152000000D02*
X131500000Y-150000000D01*
%TO.C,C14*%
X128092164Y-109440000D02*
X128307836Y-109440000D01*
X128092164Y-110160000D02*
X128307836Y-110160000D01*
%TO.C,C13*%
X128092164Y-108440000D02*
X128307836Y-108440000D01*
X128092164Y-109160000D02*
X128307836Y-109160000D01*
%TO.C,J15*%
X82810000Y-140770000D02*
X98310000Y-140770000D01*
X82810000Y-149890000D02*
X82810000Y-140770000D01*
X98310000Y-149890000D02*
X82810000Y-149890000D01*
X98310000Y-140770000D02*
X98310000Y-149890000D01*
X88510000Y-140770000D02*
X88510000Y-149890000D01*
X92610000Y-140770000D02*
X92610000Y-149890000D01*
D13*
%TO.C,J5*%
X152800000Y-150000000D02*
X152800000Y-149640000D01*
X160000000Y-150000000D02*
X152800000Y-150000000D01*
X160000000Y-149640000D02*
X160000000Y-150000000D01*
X152800000Y-145340000D02*
X153005000Y-145340000D01*
X152800000Y-146860000D02*
X152800000Y-145340000D01*
X160000000Y-145340000D02*
X159795000Y-145340000D01*
X160000000Y-146860000D02*
X160000000Y-145340000D01*
D14*
X155200000Y-144400000D02*
G75*
G03*
X155200000Y-144400000I-100000J0D01*
G01*
D11*
%TO.C,J1*%
X80000000Y-111250000D02*
X82000000Y-111250000D01*
X80000000Y-125950000D02*
X92000000Y-125950000D01*
X80000000Y-111250000D02*
X80000000Y-125950000D01*
%TO.C,SW5*%
X146570000Y-98470000D02*
X146270000Y-98470000D01*
X143430000Y-94330000D02*
X143730000Y-94330000D01*
X146270000Y-94330000D02*
X146570000Y-94330000D01*
X143430000Y-98470000D02*
X143430000Y-94330000D01*
X143730000Y-98470000D02*
X143430000Y-98470000D01*
X146570000Y-94330000D02*
X146570000Y-98470000D01*
%TO.C,R56*%
X145153641Y-92480000D02*
X144846359Y-92480000D01*
X145153641Y-91720000D02*
X144846359Y-91720000D01*
%TO.C,R55*%
X144846359Y-92720000D02*
X145153641Y-92720000D01*
X144846359Y-93480000D02*
X145153641Y-93480000D01*
%TO.C,C53*%
X145107836Y-91460000D02*
X144892164Y-91460000D01*
X145107836Y-90740000D02*
X144892164Y-90740000D01*
%TO.C,SW2*%
X153430000Y-94330000D02*
X153730000Y-94330000D01*
X156570000Y-98470000D02*
X156270000Y-98470000D01*
X153730000Y-98470000D02*
X153430000Y-98470000D01*
X156570000Y-94330000D02*
X156570000Y-98470000D01*
X156270000Y-94330000D02*
X156570000Y-94330000D01*
X153430000Y-98470000D02*
X153430000Y-94330000D01*
%TO.C,SW1*%
X166570000Y-98470000D02*
X166270000Y-98470000D01*
X163430000Y-94330000D02*
X163730000Y-94330000D01*
X166270000Y-94330000D02*
X166570000Y-94330000D01*
X163430000Y-98470000D02*
X163430000Y-94330000D01*
X163730000Y-98470000D02*
X163430000Y-98470000D01*
X166570000Y-94330000D02*
X166570000Y-98470000D01*
%TO.C,Y1*%
X128550000Y-116700000D02*
X131850000Y-116700000D01*
X131850000Y-116700000D02*
X131850000Y-112700000D01*
%TO.C,R40*%
X120527064Y-134435000D02*
X120072936Y-134435000D01*
X120527064Y-132965000D02*
X120072936Y-132965000D01*
%TO.C,R39*%
X120527064Y-132435000D02*
X120072936Y-132435000D01*
X120527064Y-130965000D02*
X120072936Y-130965000D01*
%TO.C,R38*%
X123572936Y-132965000D02*
X124027064Y-132965000D01*
X123572936Y-134435000D02*
X124027064Y-134435000D01*
%TO.C,R37*%
X123572936Y-130965000D02*
X124027064Y-130965000D01*
X123572936Y-132435000D02*
X124027064Y-132435000D01*
%TO.C,R36*%
X132427064Y-132435000D02*
X131972936Y-132435000D01*
X132427064Y-130965000D02*
X131972936Y-130965000D01*
%TO.C,R35*%
X132427064Y-130435000D02*
X131972936Y-130435000D01*
X132427064Y-128965000D02*
X131972936Y-128965000D01*
%TO.C,R34*%
X135472936Y-130965000D02*
X135927064Y-130965000D01*
X135472936Y-132435000D02*
X135927064Y-132435000D01*
%TO.C,R33*%
X135472936Y-128965000D02*
X135927064Y-128965000D01*
X135472936Y-130435000D02*
X135927064Y-130435000D01*
%TO.C,R32*%
X143565000Y-135327064D02*
X143565000Y-134872936D01*
X145035000Y-135327064D02*
X145035000Y-134872936D01*
%TO.C,R27*%
X145035000Y-131272936D02*
X145035000Y-131727064D01*
X143565000Y-131272936D02*
X143565000Y-131727064D01*
%TO.C,R26*%
X143035000Y-131272936D02*
X143035000Y-131727064D01*
X141565000Y-131272936D02*
X141565000Y-131727064D01*
%TO.C,R28*%
X141565000Y-135327064D02*
X141565000Y-134872936D01*
X143035000Y-135327064D02*
X143035000Y-134872936D01*
%TO.C,D18*%
X171650000Y-134000000D02*
X171650000Y-132000000D01*
X171650000Y-132000000D02*
X167750000Y-132000000D01*
X171650000Y-134000000D02*
X167750000Y-134000000D01*
%TO.C,D19*%
X92850000Y-134000000D02*
X92850000Y-132000000D01*
X92850000Y-132000000D02*
X88950000Y-132000000D01*
X92850000Y-134000000D02*
X88950000Y-134000000D01*
%TO.C,R52*%
X92380000Y-88246359D02*
X92380000Y-88553641D01*
X91620000Y-88246359D02*
X91620000Y-88553641D01*
%TO.C,R46*%
X167380000Y-88246359D02*
X167380000Y-88553641D01*
X166620000Y-88246359D02*
X166620000Y-88553641D01*
%TO.C,R30*%
X145480000Y-107346359D02*
X145480000Y-107653641D01*
X144720000Y-107346359D02*
X144720000Y-107653641D01*
%TO.C,R13*%
X176527064Y-125835000D02*
X176072936Y-125835000D01*
X176527064Y-124365000D02*
X176072936Y-124365000D01*
%TO.C,R14*%
X127420000Y-113853641D02*
X127420000Y-113546359D01*
X128180000Y-113853641D02*
X128180000Y-113546359D01*
%TO.C,R1*%
X156280000Y-143546359D02*
X156280000Y-143853641D01*
X155520000Y-143546359D02*
X155520000Y-143853641D01*
%TO.C,C52*%
X89640000Y-88507836D02*
X89640000Y-88292164D01*
X90360000Y-88507836D02*
X90360000Y-88292164D01*
%TO.C,C51*%
X93640000Y-88507836D02*
X93640000Y-88292164D01*
X94360000Y-88507836D02*
X94360000Y-88292164D01*
%TO.C,C49*%
X164640000Y-88507836D02*
X164640000Y-88292164D01*
X165360000Y-88507836D02*
X165360000Y-88292164D01*
%TO.C,C48*%
X168640000Y-88507836D02*
X168640000Y-88292164D01*
X169360000Y-88507836D02*
X169360000Y-88292164D01*
%TO.C,C46*%
X137765000Y-107300000D02*
X137765000Y-111210000D01*
X137765000Y-111210000D02*
X139635000Y-111210000D01*
X139635000Y-111210000D02*
X139635000Y-107300000D01*
%TO.C,C43*%
X152660000Y-110192164D02*
X152660000Y-110407836D01*
X151940000Y-110192164D02*
X151940000Y-110407836D01*
%TO.C,C42*%
X139635000Y-121400000D02*
X139635000Y-117490000D01*
X139635000Y-117490000D02*
X137765000Y-117490000D01*
X137765000Y-117490000D02*
X137765000Y-121400000D01*
%TO.C,C41*%
X136640000Y-118407836D02*
X136640000Y-118192164D01*
X137360000Y-118407836D02*
X137360000Y-118192164D01*
%TO.C,C40*%
X139635000Y-116600000D02*
X139635000Y-112690000D01*
X139635000Y-112690000D02*
X137765000Y-112690000D01*
X137765000Y-112690000D02*
X137765000Y-116600000D01*
%TO.C,C39*%
X136640000Y-115107836D02*
X136640000Y-114892164D01*
X137360000Y-115107836D02*
X137360000Y-114892164D01*
%TO.C,C38*%
X121300000Y-134865000D02*
X117390000Y-134865000D01*
X117390000Y-134865000D02*
X117390000Y-136735000D01*
X117390000Y-136735000D02*
X121300000Y-136735000D01*
%TO.C,C36*%
X131938748Y-135165000D02*
X132461252Y-135165000D01*
X131938748Y-136635000D02*
X132461252Y-136635000D01*
%TO.C,C31*%
X151535000Y-120600000D02*
X151535000Y-116690000D01*
X151535000Y-116690000D02*
X149665000Y-116690000D01*
X149665000Y-116690000D02*
X149665000Y-120600000D01*
%TO.C,C30*%
X147035000Y-134838748D02*
X147035000Y-135361252D01*
X145565000Y-134838748D02*
X145565000Y-135361252D01*
%TO.C,C29*%
X149335000Y-136100000D02*
X149335000Y-132190000D01*
X149335000Y-132190000D02*
X147465000Y-132190000D01*
X147465000Y-132190000D02*
X147465000Y-136100000D01*
%TO.C,C11*%
X176038748Y-126365000D02*
X176561252Y-126365000D01*
X176038748Y-127835000D02*
X176561252Y-127835000D01*
%TO.C,C10*%
X176038748Y-128365000D02*
X176561252Y-128365000D01*
X176038748Y-129835000D02*
X176561252Y-129835000D01*
%TO.C,C2*%
X129992164Y-111740000D02*
X130207836Y-111740000D01*
X129992164Y-112460000D02*
X130207836Y-112460000D01*
%TO.C,R5*%
X106765000Y-55227064D02*
X106765000Y-54772936D01*
X108235000Y-55227064D02*
X108235000Y-54772936D01*
%TO.C,R7*%
X112765000Y-55227064D02*
X112765000Y-54772936D01*
X114235000Y-55227064D02*
X114235000Y-54772936D01*
%TO.C,R6*%
X109765000Y-55227064D02*
X109765000Y-54772936D01*
X111235000Y-55227064D02*
X111235000Y-54772936D01*
%TO.C,D9*%
X177300000Y-122140000D02*
X174440000Y-122140000D01*
X174440000Y-122140000D02*
X174440000Y-124060000D01*
X174440000Y-124060000D02*
X177300000Y-124060000D01*
%TO.C,J3*%
X100640000Y-150480000D02*
X100640000Y-142370000D01*
X100640000Y-150480000D02*
X99990000Y-150480000D01*
X100640000Y-135520000D02*
X113960000Y-135520000D01*
X100640000Y-135520000D02*
X100640000Y-138850000D01*
X113960000Y-135520000D02*
X113960000Y-138850000D01*
X114610000Y-151000000D02*
X114610000Y-150480000D01*
X99990000Y-151000000D02*
X114610000Y-151000000D01*
X113960000Y-142370000D02*
X113960000Y-150480000D01*
X99990000Y-150480000D02*
X99990000Y-151000000D01*
X114610000Y-150480000D02*
X113960000Y-150480000D01*
X102900000Y-135300000D02*
X104700000Y-135300000D01*
D10*
%TO.C,U3*%
X141825000Y-108875000D02*
X141825000Y-109450000D01*
X147575000Y-108875000D02*
X147575000Y-109525000D01*
X147575000Y-119525000D02*
X147575000Y-118875000D01*
X141825000Y-119525000D02*
X141825000Y-118875000D01*
X141825000Y-108875000D02*
X147575000Y-108875000D01*
X141825000Y-119525000D02*
X147575000Y-119525000D01*
X141825000Y-109450000D02*
X140225000Y-109450000D01*
D11*
%TO.C,U2*%
X167890000Y-123090000D02*
X167890000Y-124350000D01*
X167890000Y-129910000D02*
X167890000Y-128650000D01*
X171650000Y-123090000D02*
X167890000Y-123090000D01*
X173900000Y-129910000D02*
X167890000Y-129910000D01*
%TO.C,R51*%
X92620000Y-88553641D02*
X92620000Y-88246359D01*
X93380000Y-88553641D02*
X93380000Y-88246359D01*
%TO.C,R50*%
X95380000Y-88246359D02*
X95380000Y-88553641D01*
X94620000Y-88246359D02*
X94620000Y-88553641D01*
%TO.C,R49*%
X91380000Y-88246359D02*
X91380000Y-88553641D01*
X90620000Y-88246359D02*
X90620000Y-88553641D01*
%TO.C,R48*%
X94620000Y-78953641D02*
X94620000Y-78646359D01*
X95380000Y-78953641D02*
X95380000Y-78646359D01*
%TO.C,R47*%
X96380000Y-78646359D02*
X96380000Y-78953641D01*
X95620000Y-78646359D02*
X95620000Y-78953641D01*
%TO.C,R45*%
X167620000Y-88553641D02*
X167620000Y-88246359D01*
X168380000Y-88553641D02*
X168380000Y-88246359D01*
%TO.C,R44*%
X170380000Y-88246359D02*
X170380000Y-88553641D01*
X169620000Y-88246359D02*
X169620000Y-88553641D01*
%TO.C,R43*%
X166380000Y-88246359D02*
X166380000Y-88553641D01*
X165620000Y-88246359D02*
X165620000Y-88553641D01*
%TO.C,R42*%
X169610000Y-78953641D02*
X169610000Y-78646359D01*
X170370000Y-78953641D02*
X170370000Y-78646359D01*
%TO.C,R41*%
X171370000Y-78646359D02*
X171370000Y-78953641D01*
X170610000Y-78646359D02*
X170610000Y-78953641D01*
%TO.C,R29*%
X144480000Y-107346359D02*
X144480000Y-107653641D01*
X143720000Y-107346359D02*
X143720000Y-107653641D01*
%TO.C,R24*%
X164846359Y-92720000D02*
X165153641Y-92720000D01*
X164846359Y-93480000D02*
X165153641Y-93480000D01*
%TO.C,R15*%
X154846359Y-92720000D02*
X155153641Y-92720000D01*
X154846359Y-93480000D02*
X155153641Y-93480000D01*
%TO.C,R3*%
X157280000Y-143546359D02*
X157280000Y-143853641D01*
X156520000Y-143546359D02*
X156520000Y-143853641D01*
%TO.C,R31*%
X145565000Y-131727064D02*
X145565000Y-131272936D01*
X147035000Y-131727064D02*
X147035000Y-131272936D01*
%TO.C,Q1*%
X173040000Y-130420000D02*
X173040000Y-131350000D01*
X173040000Y-133580000D02*
X173040000Y-132650000D01*
X173040000Y-133580000D02*
X175200000Y-133580000D01*
X173040000Y-130420000D02*
X174500000Y-130420000D01*
%TO.C,FB1*%
X177810000Y-131664758D02*
X177810000Y-133335242D01*
X175990000Y-131664758D02*
X175990000Y-133335242D01*
%TO.C,C50*%
X93640000Y-78907836D02*
X93640000Y-78692164D01*
X94360000Y-78907836D02*
X94360000Y-78692164D01*
%TO.C,C47*%
X168630000Y-78907836D02*
X168630000Y-78692164D01*
X169350000Y-78907836D02*
X169350000Y-78692164D01*
%TO.C,C45*%
X137360000Y-110192164D02*
X137360000Y-110407836D01*
X136640000Y-110192164D02*
X136640000Y-110407836D01*
%TO.C,C44*%
X149665000Y-107300000D02*
X149665000Y-111210000D01*
X149665000Y-111210000D02*
X151535000Y-111210000D01*
X151535000Y-111210000D02*
X151535000Y-107300000D01*
%TO.C,C37*%
X122800000Y-136735000D02*
X126710000Y-136735000D01*
X126710000Y-136735000D02*
X126710000Y-134865000D01*
X126710000Y-134865000D02*
X122800000Y-134865000D01*
%TO.C,C35*%
X133200000Y-132865000D02*
X129290000Y-132865000D01*
X129290000Y-132865000D02*
X129290000Y-134735000D01*
X129290000Y-134735000D02*
X133200000Y-134735000D01*
%TO.C,C32*%
X152660000Y-117492164D02*
X152660000Y-117707836D01*
X151940000Y-117492164D02*
X151940000Y-117707836D01*
%TO.C,C34*%
X135961252Y-136635000D02*
X135438748Y-136635000D01*
X135961252Y-135165000D02*
X135438748Y-135165000D01*
%TO.C,C33*%
X134700000Y-134735000D02*
X138610000Y-134735000D01*
X138610000Y-134735000D02*
X138610000Y-132865000D01*
X138610000Y-132865000D02*
X134700000Y-132865000D01*
%TO.C,C28*%
X162929250Y-127564250D02*
X162141750Y-127564250D01*
X162535500Y-127170500D02*
X162535500Y-127958000D01*
X158342437Y-126928000D02*
X157278000Y-127992437D01*
X163033563Y-126928000D02*
X164098000Y-127992437D01*
X163033563Y-126928000D02*
X161748000Y-126928000D01*
X158342437Y-126928000D02*
X159628000Y-126928000D01*
X157278000Y-127992437D02*
X157278000Y-133748000D01*
X164098000Y-127992437D02*
X164098000Y-133748000D01*
X164098000Y-133748000D02*
X161748000Y-133748000D01*
X157278000Y-133748000D02*
X159628000Y-133748000D01*
%TO.C,C27*%
X155729250Y-127564250D02*
X154941750Y-127564250D01*
X155335500Y-127170500D02*
X155335500Y-127958000D01*
X151142437Y-126928000D02*
X150078000Y-127992437D01*
X155833563Y-126928000D02*
X156898000Y-127992437D01*
X155833563Y-126928000D02*
X154548000Y-126928000D01*
X151142437Y-126928000D02*
X152428000Y-126928000D01*
X150078000Y-127992437D02*
X150078000Y-133748000D01*
X156898000Y-127992437D02*
X156898000Y-133748000D01*
X156898000Y-133748000D02*
X154548000Y-133748000D01*
X150078000Y-133748000D02*
X152428000Y-133748000D01*
%TO.C,C24*%
X108907836Y-120960000D02*
X108692164Y-120960000D01*
X108907836Y-120240000D02*
X108692164Y-120240000D01*
%TO.C,C23*%
X112040000Y-105007836D02*
X112040000Y-104792164D01*
X112760000Y-105007836D02*
X112760000Y-104792164D01*
%TO.C,C22*%
X128160000Y-115792164D02*
X128160000Y-116007836D01*
X127440000Y-115792164D02*
X127440000Y-116007836D01*
%TO.C,C21*%
X123640000Y-105007836D02*
X123640000Y-104792164D01*
X124360000Y-105007836D02*
X124360000Y-104792164D01*
%TO.C,C20*%
X128392164Y-117740000D02*
X128607836Y-117740000D01*
X128392164Y-118460000D02*
X128607836Y-118460000D01*
%TO.C,C19*%
X129992164Y-109160000D02*
X130207836Y-109160000D01*
X129992164Y-108440000D02*
X130207836Y-108440000D01*
%TO.C,C18*%
X129992164Y-110160000D02*
X130207836Y-110160000D01*
X129992164Y-109440000D02*
X130207836Y-109440000D01*
%TO.C,C26*%
X108440580Y-119710000D02*
X108159420Y-119710000D01*
X108440580Y-118690000D02*
X108159420Y-118690000D01*
%TO.C,C1*%
X130292164Y-116940000D02*
X130507836Y-116940000D01*
X130292164Y-117660000D02*
X130507836Y-117660000D01*
%TD*%
M02*
