%TF.GenerationSoftware,KiCad,Pcbnew,9.0.0*%
%TF.CreationDate,2025-02-25T12:08:00+01:00*%
%TF.ProjectId,KLST_PANDA_PROTO,4b4c5354-5f50-4414-9e44-415f50524f54,rev?*%
%TF.SameCoordinates,Original*%
%TF.FileFunction,Other,Comment*%
%FSLAX46Y46*%
G04 Gerber Fmt 4.6, Leading zero omitted, Abs format (unit mm)*
G04 Created by KiCad (PCBNEW 9.0.0) date 2025-02-25 12:08:00*
%MOMM*%
%LPD*%
G01*
G04 APERTURE LIST*
%ADD10C,0.187500*%
%ADD11C,0.200000*%
%ADD12C,0.150000*%
%ADD13C,0.100000*%
G04 APERTURE END LIST*
D10*
X299807497Y-69595678D02*
X299807497Y-68095678D01*
X299807497Y-68095678D02*
X300664640Y-69595678D01*
X300664640Y-69595678D02*
X300664640Y-68095678D01*
X301664641Y-68095678D02*
X301950355Y-68095678D01*
X301950355Y-68095678D02*
X302093212Y-68167107D01*
X302093212Y-68167107D02*
X302236069Y-68309964D01*
X302236069Y-68309964D02*
X302307498Y-68595678D01*
X302307498Y-68595678D02*
X302307498Y-69095678D01*
X302307498Y-69095678D02*
X302236069Y-69381392D01*
X302236069Y-69381392D02*
X302093212Y-69524250D01*
X302093212Y-69524250D02*
X301950355Y-69595678D01*
X301950355Y-69595678D02*
X301664641Y-69595678D01*
X301664641Y-69595678D02*
X301521784Y-69524250D01*
X301521784Y-69524250D02*
X301378926Y-69381392D01*
X301378926Y-69381392D02*
X301307498Y-69095678D01*
X301307498Y-69095678D02*
X301307498Y-68595678D01*
X301307498Y-68595678D02*
X301378926Y-68309964D01*
X301378926Y-68309964D02*
X301521784Y-68167107D01*
X301521784Y-68167107D02*
X301664641Y-68095678D01*
X302736070Y-68095678D02*
X303593213Y-68095678D01*
X303164641Y-69595678D02*
X303164641Y-68095678D01*
X304093212Y-68809964D02*
X304593212Y-68809964D01*
X304807498Y-69595678D02*
X304093212Y-69595678D01*
X304093212Y-69595678D02*
X304093212Y-68095678D01*
X304093212Y-68095678D02*
X304807498Y-68095678D01*
X305378927Y-69524250D02*
X305593213Y-69595678D01*
X305593213Y-69595678D02*
X305950355Y-69595678D01*
X305950355Y-69595678D02*
X306093213Y-69524250D01*
X306093213Y-69524250D02*
X306164641Y-69452821D01*
X306164641Y-69452821D02*
X306236070Y-69309964D01*
X306236070Y-69309964D02*
X306236070Y-69167107D01*
X306236070Y-69167107D02*
X306164641Y-69024250D01*
X306164641Y-69024250D02*
X306093213Y-68952821D01*
X306093213Y-68952821D02*
X305950355Y-68881392D01*
X305950355Y-68881392D02*
X305664641Y-68809964D01*
X305664641Y-68809964D02*
X305521784Y-68738535D01*
X305521784Y-68738535D02*
X305450355Y-68667107D01*
X305450355Y-68667107D02*
X305378927Y-68524250D01*
X305378927Y-68524250D02*
X305378927Y-68381392D01*
X305378927Y-68381392D02*
X305450355Y-68238535D01*
X305450355Y-68238535D02*
X305521784Y-68167107D01*
X305521784Y-68167107D02*
X305664641Y-68095678D01*
X305664641Y-68095678D02*
X306021784Y-68095678D01*
X306021784Y-68095678D02*
X306236070Y-68167107D01*
X299807497Y-73854082D02*
X300950355Y-73854082D01*
X303450355Y-74425510D02*
X303450355Y-72925510D01*
X303450355Y-74354082D02*
X303307497Y-74425510D01*
X303307497Y-74425510D02*
X303021783Y-74425510D01*
X303021783Y-74425510D02*
X302878926Y-74354082D01*
X302878926Y-74354082D02*
X302807497Y-74282653D01*
X302807497Y-74282653D02*
X302736069Y-74139796D01*
X302736069Y-74139796D02*
X302736069Y-73711224D01*
X302736069Y-73711224D02*
X302807497Y-73568367D01*
X302807497Y-73568367D02*
X302878926Y-73496939D01*
X302878926Y-73496939D02*
X303021783Y-73425510D01*
X303021783Y-73425510D02*
X303307497Y-73425510D01*
X303307497Y-73425510D02*
X303450355Y-73496939D01*
X304807498Y-73425510D02*
X304807498Y-74425510D01*
X304164640Y-73425510D02*
X304164640Y-74211224D01*
X304164640Y-74211224D02*
X304236069Y-74354082D01*
X304236069Y-74354082D02*
X304378926Y-74425510D01*
X304378926Y-74425510D02*
X304593212Y-74425510D01*
X304593212Y-74425510D02*
X304736069Y-74354082D01*
X304736069Y-74354082D02*
X304807498Y-74282653D01*
X305521783Y-74425510D02*
X305521783Y-73425510D01*
X305521783Y-73711224D02*
X305593212Y-73568367D01*
X305593212Y-73568367D02*
X305664641Y-73496939D01*
X305664641Y-73496939D02*
X305807498Y-73425510D01*
X305807498Y-73425510D02*
X305950355Y-73425510D01*
X307093212Y-74354082D02*
X306950354Y-74425510D01*
X306950354Y-74425510D02*
X306664640Y-74425510D01*
X306664640Y-74425510D02*
X306521783Y-74354082D01*
X306521783Y-74354082D02*
X306450354Y-74282653D01*
X306450354Y-74282653D02*
X306378926Y-74139796D01*
X306378926Y-74139796D02*
X306378926Y-73711224D01*
X306378926Y-73711224D02*
X306450354Y-73568367D01*
X306450354Y-73568367D02*
X306521783Y-73496939D01*
X306521783Y-73496939D02*
X306664640Y-73425510D01*
X306664640Y-73425510D02*
X306950354Y-73425510D01*
X306950354Y-73425510D02*
X307093212Y-73496939D01*
X307736068Y-74425510D02*
X307736068Y-72925510D01*
X308378926Y-74425510D02*
X308378926Y-73639796D01*
X308378926Y-73639796D02*
X308307497Y-73496939D01*
X308307497Y-73496939D02*
X308164640Y-73425510D01*
X308164640Y-73425510D02*
X307950354Y-73425510D01*
X307950354Y-73425510D02*
X307807497Y-73496939D01*
X307807497Y-73496939D02*
X307736068Y-73568367D01*
X309736069Y-73425510D02*
X309736069Y-74639796D01*
X309736069Y-74639796D02*
X309664640Y-74782653D01*
X309664640Y-74782653D02*
X309593211Y-74854082D01*
X309593211Y-74854082D02*
X309450354Y-74925510D01*
X309450354Y-74925510D02*
X309236069Y-74925510D01*
X309236069Y-74925510D02*
X309093211Y-74854082D01*
X309736069Y-74354082D02*
X309593211Y-74425510D01*
X309593211Y-74425510D02*
X309307497Y-74425510D01*
X309307497Y-74425510D02*
X309164640Y-74354082D01*
X309164640Y-74354082D02*
X309093211Y-74282653D01*
X309093211Y-74282653D02*
X309021783Y-74139796D01*
X309021783Y-74139796D02*
X309021783Y-73711224D01*
X309021783Y-73711224D02*
X309093211Y-73568367D01*
X309093211Y-73568367D02*
X309164640Y-73496939D01*
X309164640Y-73496939D02*
X309307497Y-73425510D01*
X309307497Y-73425510D02*
X309593211Y-73425510D01*
X309593211Y-73425510D02*
X309736069Y-73496939D01*
X311021783Y-74354082D02*
X310878926Y-74425510D01*
X310878926Y-74425510D02*
X310593212Y-74425510D01*
X310593212Y-74425510D02*
X310450354Y-74354082D01*
X310450354Y-74354082D02*
X310378926Y-74211224D01*
X310378926Y-74211224D02*
X310378926Y-73639796D01*
X310378926Y-73639796D02*
X310450354Y-73496939D01*
X310450354Y-73496939D02*
X310593212Y-73425510D01*
X310593212Y-73425510D02*
X310878926Y-73425510D01*
X310878926Y-73425510D02*
X311021783Y-73496939D01*
X311021783Y-73496939D02*
X311093212Y-73639796D01*
X311093212Y-73639796D02*
X311093212Y-73782653D01*
X311093212Y-73782653D02*
X310378926Y-73925510D01*
X311736068Y-74425510D02*
X311736068Y-72925510D01*
X312378926Y-74425510D02*
X312378926Y-73639796D01*
X312378926Y-73639796D02*
X312307497Y-73496939D01*
X312307497Y-73496939D02*
X312164640Y-73425510D01*
X312164640Y-73425510D02*
X311950354Y-73425510D01*
X311950354Y-73425510D02*
X311807497Y-73496939D01*
X311807497Y-73496939D02*
X311736068Y-73568367D01*
X313664640Y-74354082D02*
X313521783Y-74425510D01*
X313521783Y-74425510D02*
X313236069Y-74425510D01*
X313236069Y-74425510D02*
X313093211Y-74354082D01*
X313093211Y-74354082D02*
X313021783Y-74211224D01*
X313021783Y-74211224D02*
X313021783Y-73639796D01*
X313021783Y-73639796D02*
X313093211Y-73496939D01*
X313093211Y-73496939D02*
X313236069Y-73425510D01*
X313236069Y-73425510D02*
X313521783Y-73425510D01*
X313521783Y-73425510D02*
X313664640Y-73496939D01*
X313664640Y-73496939D02*
X313736069Y-73639796D01*
X313736069Y-73639796D02*
X313736069Y-73782653D01*
X313736069Y-73782653D02*
X313021783Y-73925510D01*
X314378925Y-73425510D02*
X314378925Y-74425510D01*
X314378925Y-73568367D02*
X314450354Y-73496939D01*
X314450354Y-73496939D02*
X314593211Y-73425510D01*
X314593211Y-73425510D02*
X314807497Y-73425510D01*
X314807497Y-73425510D02*
X314950354Y-73496939D01*
X314950354Y-73496939D02*
X315021783Y-73639796D01*
X315021783Y-73639796D02*
X315021783Y-74425510D01*
X316378926Y-74425510D02*
X316378926Y-72925510D01*
X316378926Y-74354082D02*
X316236068Y-74425510D01*
X316236068Y-74425510D02*
X315950354Y-74425510D01*
X315950354Y-74425510D02*
X315807497Y-74354082D01*
X315807497Y-74354082D02*
X315736068Y-74282653D01*
X315736068Y-74282653D02*
X315664640Y-74139796D01*
X315664640Y-74139796D02*
X315664640Y-73711224D01*
X315664640Y-73711224D02*
X315736068Y-73568367D01*
X315736068Y-73568367D02*
X315807497Y-73496939D01*
X315807497Y-73496939D02*
X315950354Y-73425510D01*
X315950354Y-73425510D02*
X316236068Y-73425510D01*
X316236068Y-73425510D02*
X316378926Y-73496939D01*
X317664640Y-74354082D02*
X317521783Y-74425510D01*
X317521783Y-74425510D02*
X317236069Y-74425510D01*
X317236069Y-74425510D02*
X317093211Y-74354082D01*
X317093211Y-74354082D02*
X317021783Y-74211224D01*
X317021783Y-74211224D02*
X317021783Y-73639796D01*
X317021783Y-73639796D02*
X317093211Y-73496939D01*
X317093211Y-73496939D02*
X317236069Y-73425510D01*
X317236069Y-73425510D02*
X317521783Y-73425510D01*
X317521783Y-73425510D02*
X317664640Y-73496939D01*
X317664640Y-73496939D02*
X317736069Y-73639796D01*
X317736069Y-73639796D02*
X317736069Y-73782653D01*
X317736069Y-73782653D02*
X317021783Y-73925510D01*
X319521782Y-73425510D02*
X319521782Y-74925510D01*
X319521782Y-73496939D02*
X319664640Y-73425510D01*
X319664640Y-73425510D02*
X319950354Y-73425510D01*
X319950354Y-73425510D02*
X320093211Y-73496939D01*
X320093211Y-73496939D02*
X320164640Y-73568367D01*
X320164640Y-73568367D02*
X320236068Y-73711224D01*
X320236068Y-73711224D02*
X320236068Y-74139796D01*
X320236068Y-74139796D02*
X320164640Y-74282653D01*
X320164640Y-74282653D02*
X320093211Y-74354082D01*
X320093211Y-74354082D02*
X319950354Y-74425510D01*
X319950354Y-74425510D02*
X319664640Y-74425510D01*
X319664640Y-74425510D02*
X319521782Y-74354082D01*
X320878925Y-74425510D02*
X320878925Y-73425510D01*
X320878925Y-72925510D02*
X320807497Y-72996939D01*
X320807497Y-72996939D02*
X320878925Y-73068367D01*
X320878925Y-73068367D02*
X320950354Y-72996939D01*
X320950354Y-72996939D02*
X320878925Y-72925510D01*
X320878925Y-72925510D02*
X320878925Y-73068367D01*
X321593211Y-73425510D02*
X321593211Y-74425510D01*
X321593211Y-73568367D02*
X321664640Y-73496939D01*
X321664640Y-73496939D02*
X321807497Y-73425510D01*
X321807497Y-73425510D02*
X322021783Y-73425510D01*
X322021783Y-73425510D02*
X322164640Y-73496939D01*
X322164640Y-73496939D02*
X322236069Y-73639796D01*
X322236069Y-73639796D02*
X322236069Y-74425510D01*
X324093211Y-74425510D02*
X324093211Y-72925510D01*
X324736069Y-74425510D02*
X324736069Y-73639796D01*
X324736069Y-73639796D02*
X324664640Y-73496939D01*
X324664640Y-73496939D02*
X324521783Y-73425510D01*
X324521783Y-73425510D02*
X324307497Y-73425510D01*
X324307497Y-73425510D02*
X324164640Y-73496939D01*
X324164640Y-73496939D02*
X324093211Y-73568367D01*
X326021783Y-74354082D02*
X325878926Y-74425510D01*
X325878926Y-74425510D02*
X325593212Y-74425510D01*
X325593212Y-74425510D02*
X325450354Y-74354082D01*
X325450354Y-74354082D02*
X325378926Y-74211224D01*
X325378926Y-74211224D02*
X325378926Y-73639796D01*
X325378926Y-73639796D02*
X325450354Y-73496939D01*
X325450354Y-73496939D02*
X325593212Y-73425510D01*
X325593212Y-73425510D02*
X325878926Y-73425510D01*
X325878926Y-73425510D02*
X326021783Y-73496939D01*
X326021783Y-73496939D02*
X326093212Y-73639796D01*
X326093212Y-73639796D02*
X326093212Y-73782653D01*
X326093212Y-73782653D02*
X325378926Y-73925510D01*
X327378926Y-74425510D02*
X327378926Y-73639796D01*
X327378926Y-73639796D02*
X327307497Y-73496939D01*
X327307497Y-73496939D02*
X327164640Y-73425510D01*
X327164640Y-73425510D02*
X326878926Y-73425510D01*
X326878926Y-73425510D02*
X326736068Y-73496939D01*
X327378926Y-74354082D02*
X327236068Y-74425510D01*
X327236068Y-74425510D02*
X326878926Y-74425510D01*
X326878926Y-74425510D02*
X326736068Y-74354082D01*
X326736068Y-74354082D02*
X326664640Y-74211224D01*
X326664640Y-74211224D02*
X326664640Y-74068367D01*
X326664640Y-74068367D02*
X326736068Y-73925510D01*
X326736068Y-73925510D02*
X326878926Y-73854082D01*
X326878926Y-73854082D02*
X327236068Y-73854082D01*
X327236068Y-73854082D02*
X327378926Y-73782653D01*
X328736069Y-74425510D02*
X328736069Y-72925510D01*
X328736069Y-74354082D02*
X328593211Y-74425510D01*
X328593211Y-74425510D02*
X328307497Y-74425510D01*
X328307497Y-74425510D02*
X328164640Y-74354082D01*
X328164640Y-74354082D02*
X328093211Y-74282653D01*
X328093211Y-74282653D02*
X328021783Y-74139796D01*
X328021783Y-74139796D02*
X328021783Y-73711224D01*
X328021783Y-73711224D02*
X328093211Y-73568367D01*
X328093211Y-73568367D02*
X328164640Y-73496939D01*
X328164640Y-73496939D02*
X328307497Y-73425510D01*
X328307497Y-73425510D02*
X328593211Y-73425510D01*
X328593211Y-73425510D02*
X328736069Y-73496939D01*
X330021783Y-74354082D02*
X329878926Y-74425510D01*
X329878926Y-74425510D02*
X329593212Y-74425510D01*
X329593212Y-74425510D02*
X329450354Y-74354082D01*
X329450354Y-74354082D02*
X329378926Y-74211224D01*
X329378926Y-74211224D02*
X329378926Y-73639796D01*
X329378926Y-73639796D02*
X329450354Y-73496939D01*
X329450354Y-73496939D02*
X329593212Y-73425510D01*
X329593212Y-73425510D02*
X329878926Y-73425510D01*
X329878926Y-73425510D02*
X330021783Y-73496939D01*
X330021783Y-73496939D02*
X330093212Y-73639796D01*
X330093212Y-73639796D02*
X330093212Y-73782653D01*
X330093212Y-73782653D02*
X329378926Y-73925510D01*
X330736068Y-74425510D02*
X330736068Y-73425510D01*
X330736068Y-73711224D02*
X330807497Y-73568367D01*
X330807497Y-73568367D02*
X330878926Y-73496939D01*
X330878926Y-73496939D02*
X331021783Y-73425510D01*
X331021783Y-73425510D02*
X331164640Y-73425510D01*
X331593211Y-74354082D02*
X331736068Y-74425510D01*
X331736068Y-74425510D02*
X332021782Y-74425510D01*
X332021782Y-74425510D02*
X332164639Y-74354082D01*
X332164639Y-74354082D02*
X332236068Y-74211224D01*
X332236068Y-74211224D02*
X332236068Y-74139796D01*
X332236068Y-74139796D02*
X332164639Y-73996939D01*
X332164639Y-73996939D02*
X332021782Y-73925510D01*
X332021782Y-73925510D02*
X331807497Y-73925510D01*
X331807497Y-73925510D02*
X331664639Y-73854082D01*
X331664639Y-73854082D02*
X331593211Y-73711224D01*
X331593211Y-73711224D02*
X331593211Y-73639796D01*
X331593211Y-73639796D02*
X331664639Y-73496939D01*
X331664639Y-73496939D02*
X331807497Y-73425510D01*
X331807497Y-73425510D02*
X332021782Y-73425510D01*
X332021782Y-73425510D02*
X332164639Y-73496939D01*
X334450354Y-74996939D02*
X334378925Y-74925510D01*
X334378925Y-74925510D02*
X334236068Y-74711224D01*
X334236068Y-74711224D02*
X334164640Y-74568367D01*
X334164640Y-74568367D02*
X334093211Y-74354082D01*
X334093211Y-74354082D02*
X334021782Y-73996939D01*
X334021782Y-73996939D02*
X334021782Y-73711224D01*
X334021782Y-73711224D02*
X334093211Y-73354082D01*
X334093211Y-73354082D02*
X334164640Y-73139796D01*
X334164640Y-73139796D02*
X334236068Y-72996939D01*
X334236068Y-72996939D02*
X334378925Y-72782653D01*
X334378925Y-72782653D02*
X334450354Y-72711224D01*
X336164639Y-74425510D02*
X336164639Y-72925510D01*
X336164639Y-73496939D02*
X336307497Y-73425510D01*
X336307497Y-73425510D02*
X336593211Y-73425510D01*
X336593211Y-73425510D02*
X336736068Y-73496939D01*
X336736068Y-73496939D02*
X336807497Y-73568367D01*
X336807497Y-73568367D02*
X336878925Y-73711224D01*
X336878925Y-73711224D02*
X336878925Y-74139796D01*
X336878925Y-74139796D02*
X336807497Y-74282653D01*
X336807497Y-74282653D02*
X336736068Y-74354082D01*
X336736068Y-74354082D02*
X336593211Y-74425510D01*
X336593211Y-74425510D02*
X336307497Y-74425510D01*
X336307497Y-74425510D02*
X336164639Y-74354082D01*
X337736068Y-74425510D02*
X337593211Y-74354082D01*
X337593211Y-74354082D02*
X337521782Y-74282653D01*
X337521782Y-74282653D02*
X337450354Y-74139796D01*
X337450354Y-74139796D02*
X337450354Y-73711224D01*
X337450354Y-73711224D02*
X337521782Y-73568367D01*
X337521782Y-73568367D02*
X337593211Y-73496939D01*
X337593211Y-73496939D02*
X337736068Y-73425510D01*
X337736068Y-73425510D02*
X337950354Y-73425510D01*
X337950354Y-73425510D02*
X338093211Y-73496939D01*
X338093211Y-73496939D02*
X338164640Y-73568367D01*
X338164640Y-73568367D02*
X338236068Y-73711224D01*
X338236068Y-73711224D02*
X338236068Y-74139796D01*
X338236068Y-74139796D02*
X338164640Y-74282653D01*
X338164640Y-74282653D02*
X338093211Y-74354082D01*
X338093211Y-74354082D02*
X337950354Y-74425510D01*
X337950354Y-74425510D02*
X337736068Y-74425510D01*
X339521783Y-74425510D02*
X339521783Y-73639796D01*
X339521783Y-73639796D02*
X339450354Y-73496939D01*
X339450354Y-73496939D02*
X339307497Y-73425510D01*
X339307497Y-73425510D02*
X339021783Y-73425510D01*
X339021783Y-73425510D02*
X338878925Y-73496939D01*
X339521783Y-74354082D02*
X339378925Y-74425510D01*
X339378925Y-74425510D02*
X339021783Y-74425510D01*
X339021783Y-74425510D02*
X338878925Y-74354082D01*
X338878925Y-74354082D02*
X338807497Y-74211224D01*
X338807497Y-74211224D02*
X338807497Y-74068367D01*
X338807497Y-74068367D02*
X338878925Y-73925510D01*
X338878925Y-73925510D02*
X339021783Y-73854082D01*
X339021783Y-73854082D02*
X339378925Y-73854082D01*
X339378925Y-73854082D02*
X339521783Y-73782653D01*
X340236068Y-74425510D02*
X340236068Y-73425510D01*
X340236068Y-73711224D02*
X340307497Y-73568367D01*
X340307497Y-73568367D02*
X340378926Y-73496939D01*
X340378926Y-73496939D02*
X340521783Y-73425510D01*
X340521783Y-73425510D02*
X340664640Y-73425510D01*
X341807497Y-74425510D02*
X341807497Y-72925510D01*
X341807497Y-74354082D02*
X341664639Y-74425510D01*
X341664639Y-74425510D02*
X341378925Y-74425510D01*
X341378925Y-74425510D02*
X341236068Y-74354082D01*
X341236068Y-74354082D02*
X341164639Y-74282653D01*
X341164639Y-74282653D02*
X341093211Y-74139796D01*
X341093211Y-74139796D02*
X341093211Y-73711224D01*
X341093211Y-73711224D02*
X341164639Y-73568367D01*
X341164639Y-73568367D02*
X341236068Y-73496939D01*
X341236068Y-73496939D02*
X341378925Y-73425510D01*
X341378925Y-73425510D02*
X341664639Y-73425510D01*
X341664639Y-73425510D02*
X341807497Y-73496939D01*
X344307497Y-74354082D02*
X344164639Y-74425510D01*
X344164639Y-74425510D02*
X343878925Y-74425510D01*
X343878925Y-74425510D02*
X343736068Y-74354082D01*
X343736068Y-74354082D02*
X343664639Y-74282653D01*
X343664639Y-74282653D02*
X343593211Y-74139796D01*
X343593211Y-74139796D02*
X343593211Y-73711224D01*
X343593211Y-73711224D02*
X343664639Y-73568367D01*
X343664639Y-73568367D02*
X343736068Y-73496939D01*
X343736068Y-73496939D02*
X343878925Y-73425510D01*
X343878925Y-73425510D02*
X344164639Y-73425510D01*
X344164639Y-73425510D02*
X344307497Y-73496939D01*
X345593211Y-74425510D02*
X345593211Y-73639796D01*
X345593211Y-73639796D02*
X345521782Y-73496939D01*
X345521782Y-73496939D02*
X345378925Y-73425510D01*
X345378925Y-73425510D02*
X345093211Y-73425510D01*
X345093211Y-73425510D02*
X344950353Y-73496939D01*
X345593211Y-74354082D02*
X345450353Y-74425510D01*
X345450353Y-74425510D02*
X345093211Y-74425510D01*
X345093211Y-74425510D02*
X344950353Y-74354082D01*
X344950353Y-74354082D02*
X344878925Y-74211224D01*
X344878925Y-74211224D02*
X344878925Y-74068367D01*
X344878925Y-74068367D02*
X344950353Y-73925510D01*
X344950353Y-73925510D02*
X345093211Y-73854082D01*
X345093211Y-73854082D02*
X345450353Y-73854082D01*
X345450353Y-73854082D02*
X345593211Y-73782653D01*
X346307496Y-73425510D02*
X346307496Y-74425510D01*
X346307496Y-73568367D02*
X346378925Y-73496939D01*
X346378925Y-73496939D02*
X346521782Y-73425510D01*
X346521782Y-73425510D02*
X346736068Y-73425510D01*
X346736068Y-73425510D02*
X346878925Y-73496939D01*
X346878925Y-73496939D02*
X346950354Y-73639796D01*
X346950354Y-73639796D02*
X346950354Y-74425510D01*
X348807496Y-74425510D02*
X348807496Y-72925510D01*
X348807496Y-73496939D02*
X348950354Y-73425510D01*
X348950354Y-73425510D02*
X349236068Y-73425510D01*
X349236068Y-73425510D02*
X349378925Y-73496939D01*
X349378925Y-73496939D02*
X349450354Y-73568367D01*
X349450354Y-73568367D02*
X349521782Y-73711224D01*
X349521782Y-73711224D02*
X349521782Y-74139796D01*
X349521782Y-74139796D02*
X349450354Y-74282653D01*
X349450354Y-74282653D02*
X349378925Y-74354082D01*
X349378925Y-74354082D02*
X349236068Y-74425510D01*
X349236068Y-74425510D02*
X348950354Y-74425510D01*
X348950354Y-74425510D02*
X348807496Y-74354082D01*
X350736068Y-74354082D02*
X350593211Y-74425510D01*
X350593211Y-74425510D02*
X350307497Y-74425510D01*
X350307497Y-74425510D02*
X350164639Y-74354082D01*
X350164639Y-74354082D02*
X350093211Y-74211224D01*
X350093211Y-74211224D02*
X350093211Y-73639796D01*
X350093211Y-73639796D02*
X350164639Y-73496939D01*
X350164639Y-73496939D02*
X350307497Y-73425510D01*
X350307497Y-73425510D02*
X350593211Y-73425510D01*
X350593211Y-73425510D02*
X350736068Y-73496939D01*
X350736068Y-73496939D02*
X350807497Y-73639796D01*
X350807497Y-73639796D02*
X350807497Y-73782653D01*
X350807497Y-73782653D02*
X350093211Y-73925510D01*
X353236068Y-73425510D02*
X353236068Y-74425510D01*
X352593210Y-73425510D02*
X352593210Y-74211224D01*
X352593210Y-74211224D02*
X352664639Y-74354082D01*
X352664639Y-74354082D02*
X352807496Y-74425510D01*
X352807496Y-74425510D02*
X353021782Y-74425510D01*
X353021782Y-74425510D02*
X353164639Y-74354082D01*
X353164639Y-74354082D02*
X353236068Y-74282653D01*
X353878925Y-74354082D02*
X354021782Y-74425510D01*
X354021782Y-74425510D02*
X354307496Y-74425510D01*
X354307496Y-74425510D02*
X354450353Y-74354082D01*
X354450353Y-74354082D02*
X354521782Y-74211224D01*
X354521782Y-74211224D02*
X354521782Y-74139796D01*
X354521782Y-74139796D02*
X354450353Y-73996939D01*
X354450353Y-73996939D02*
X354307496Y-73925510D01*
X354307496Y-73925510D02*
X354093211Y-73925510D01*
X354093211Y-73925510D02*
X353950353Y-73854082D01*
X353950353Y-73854082D02*
X353878925Y-73711224D01*
X353878925Y-73711224D02*
X353878925Y-73639796D01*
X353878925Y-73639796D02*
X353950353Y-73496939D01*
X353950353Y-73496939D02*
X354093211Y-73425510D01*
X354093211Y-73425510D02*
X354307496Y-73425510D01*
X354307496Y-73425510D02*
X354450353Y-73496939D01*
X355736068Y-74354082D02*
X355593211Y-74425510D01*
X355593211Y-74425510D02*
X355307497Y-74425510D01*
X355307497Y-74425510D02*
X355164639Y-74354082D01*
X355164639Y-74354082D02*
X355093211Y-74211224D01*
X355093211Y-74211224D02*
X355093211Y-73639796D01*
X355093211Y-73639796D02*
X355164639Y-73496939D01*
X355164639Y-73496939D02*
X355307497Y-73425510D01*
X355307497Y-73425510D02*
X355593211Y-73425510D01*
X355593211Y-73425510D02*
X355736068Y-73496939D01*
X355736068Y-73496939D02*
X355807497Y-73639796D01*
X355807497Y-73639796D02*
X355807497Y-73782653D01*
X355807497Y-73782653D02*
X355093211Y-73925510D01*
X357093211Y-74425510D02*
X357093211Y-72925510D01*
X357093211Y-74354082D02*
X356950353Y-74425510D01*
X356950353Y-74425510D02*
X356664639Y-74425510D01*
X356664639Y-74425510D02*
X356521782Y-74354082D01*
X356521782Y-74354082D02*
X356450353Y-74282653D01*
X356450353Y-74282653D02*
X356378925Y-74139796D01*
X356378925Y-74139796D02*
X356378925Y-73711224D01*
X356378925Y-73711224D02*
X356450353Y-73568367D01*
X356450353Y-73568367D02*
X356521782Y-73496939D01*
X356521782Y-73496939D02*
X356664639Y-73425510D01*
X356664639Y-73425510D02*
X356950353Y-73425510D01*
X356950353Y-73425510D02*
X357093211Y-73496939D01*
X358736068Y-73425510D02*
X359307496Y-73425510D01*
X358950353Y-74425510D02*
X358950353Y-73139796D01*
X358950353Y-73139796D02*
X359021782Y-72996939D01*
X359021782Y-72996939D02*
X359164639Y-72925510D01*
X359164639Y-72925510D02*
X359307496Y-72925510D01*
X359807496Y-74425510D02*
X359807496Y-73425510D01*
X359807496Y-73711224D02*
X359878925Y-73568367D01*
X359878925Y-73568367D02*
X359950354Y-73496939D01*
X359950354Y-73496939D02*
X360093211Y-73425510D01*
X360093211Y-73425510D02*
X360236068Y-73425510D01*
X360950353Y-74425510D02*
X360807496Y-74354082D01*
X360807496Y-74354082D02*
X360736067Y-74282653D01*
X360736067Y-74282653D02*
X360664639Y-74139796D01*
X360664639Y-74139796D02*
X360664639Y-73711224D01*
X360664639Y-73711224D02*
X360736067Y-73568367D01*
X360736067Y-73568367D02*
X360807496Y-73496939D01*
X360807496Y-73496939D02*
X360950353Y-73425510D01*
X360950353Y-73425510D02*
X361164639Y-73425510D01*
X361164639Y-73425510D02*
X361307496Y-73496939D01*
X361307496Y-73496939D02*
X361378925Y-73568367D01*
X361378925Y-73568367D02*
X361450353Y-73711224D01*
X361450353Y-73711224D02*
X361450353Y-74139796D01*
X361450353Y-74139796D02*
X361378925Y-74282653D01*
X361378925Y-74282653D02*
X361307496Y-74354082D01*
X361307496Y-74354082D02*
X361164639Y-74425510D01*
X361164639Y-74425510D02*
X360950353Y-74425510D01*
X362093210Y-74425510D02*
X362093210Y-73425510D01*
X362093210Y-73568367D02*
X362164639Y-73496939D01*
X362164639Y-73496939D02*
X362307496Y-73425510D01*
X362307496Y-73425510D02*
X362521782Y-73425510D01*
X362521782Y-73425510D02*
X362664639Y-73496939D01*
X362664639Y-73496939D02*
X362736068Y-73639796D01*
X362736068Y-73639796D02*
X362736068Y-74425510D01*
X362736068Y-73639796D02*
X362807496Y-73496939D01*
X362807496Y-73496939D02*
X362950353Y-73425510D01*
X362950353Y-73425510D02*
X363164639Y-73425510D01*
X363164639Y-73425510D02*
X363307496Y-73496939D01*
X363307496Y-73496939D02*
X363378925Y-73639796D01*
X363378925Y-73639796D02*
X363378925Y-74425510D01*
X365236067Y-74425510D02*
X365236067Y-72925510D01*
X365236067Y-73496939D02*
X365378925Y-73425510D01*
X365378925Y-73425510D02*
X365664639Y-73425510D01*
X365664639Y-73425510D02*
X365807496Y-73496939D01*
X365807496Y-73496939D02*
X365878925Y-73568367D01*
X365878925Y-73568367D02*
X365950353Y-73711224D01*
X365950353Y-73711224D02*
X365950353Y-74139796D01*
X365950353Y-74139796D02*
X365878925Y-74282653D01*
X365878925Y-74282653D02*
X365807496Y-74354082D01*
X365807496Y-74354082D02*
X365664639Y-74425510D01*
X365664639Y-74425510D02*
X365378925Y-74425510D01*
X365378925Y-74425510D02*
X365236067Y-74354082D01*
X366807496Y-74425510D02*
X366664639Y-74354082D01*
X366664639Y-74354082D02*
X366593210Y-74282653D01*
X366593210Y-74282653D02*
X366521782Y-74139796D01*
X366521782Y-74139796D02*
X366521782Y-73711224D01*
X366521782Y-73711224D02*
X366593210Y-73568367D01*
X366593210Y-73568367D02*
X366664639Y-73496939D01*
X366664639Y-73496939D02*
X366807496Y-73425510D01*
X366807496Y-73425510D02*
X367021782Y-73425510D01*
X367021782Y-73425510D02*
X367164639Y-73496939D01*
X367164639Y-73496939D02*
X367236068Y-73568367D01*
X367236068Y-73568367D02*
X367307496Y-73711224D01*
X367307496Y-73711224D02*
X367307496Y-74139796D01*
X367307496Y-74139796D02*
X367236068Y-74282653D01*
X367236068Y-74282653D02*
X367164639Y-74354082D01*
X367164639Y-74354082D02*
X367021782Y-74425510D01*
X367021782Y-74425510D02*
X366807496Y-74425510D01*
X367736068Y-73425510D02*
X368307496Y-73425510D01*
X367950353Y-72925510D02*
X367950353Y-74211224D01*
X367950353Y-74211224D02*
X368021782Y-74354082D01*
X368021782Y-74354082D02*
X368164639Y-74425510D01*
X368164639Y-74425510D02*
X368307496Y-74425510D01*
X368807496Y-74425510D02*
X368807496Y-72925510D01*
X369450354Y-74425510D02*
X369450354Y-73639796D01*
X369450354Y-73639796D02*
X369378925Y-73496939D01*
X369378925Y-73496939D02*
X369236068Y-73425510D01*
X369236068Y-73425510D02*
X369021782Y-73425510D01*
X369021782Y-73425510D02*
X368878925Y-73496939D01*
X368878925Y-73496939D02*
X368807496Y-73568367D01*
X371236068Y-74354082D02*
X371378925Y-74425510D01*
X371378925Y-74425510D02*
X371664639Y-74425510D01*
X371664639Y-74425510D02*
X371807496Y-74354082D01*
X371807496Y-74354082D02*
X371878925Y-74211224D01*
X371878925Y-74211224D02*
X371878925Y-74139796D01*
X371878925Y-74139796D02*
X371807496Y-73996939D01*
X371807496Y-73996939D02*
X371664639Y-73925510D01*
X371664639Y-73925510D02*
X371450354Y-73925510D01*
X371450354Y-73925510D02*
X371307496Y-73854082D01*
X371307496Y-73854082D02*
X371236068Y-73711224D01*
X371236068Y-73711224D02*
X371236068Y-73639796D01*
X371236068Y-73639796D02*
X371307496Y-73496939D01*
X371307496Y-73496939D02*
X371450354Y-73425510D01*
X371450354Y-73425510D02*
X371664639Y-73425510D01*
X371664639Y-73425510D02*
X371807496Y-73496939D01*
X372521782Y-74425510D02*
X372521782Y-73425510D01*
X372521782Y-72925510D02*
X372450354Y-72996939D01*
X372450354Y-72996939D02*
X372521782Y-73068367D01*
X372521782Y-73068367D02*
X372593211Y-72996939D01*
X372593211Y-72996939D02*
X372521782Y-72925510D01*
X372521782Y-72925510D02*
X372521782Y-73068367D01*
X373878926Y-74425510D02*
X373878926Y-72925510D01*
X373878926Y-74354082D02*
X373736068Y-74425510D01*
X373736068Y-74425510D02*
X373450354Y-74425510D01*
X373450354Y-74425510D02*
X373307497Y-74354082D01*
X373307497Y-74354082D02*
X373236068Y-74282653D01*
X373236068Y-74282653D02*
X373164640Y-74139796D01*
X373164640Y-74139796D02*
X373164640Y-73711224D01*
X373164640Y-73711224D02*
X373236068Y-73568367D01*
X373236068Y-73568367D02*
X373307497Y-73496939D01*
X373307497Y-73496939D02*
X373450354Y-73425510D01*
X373450354Y-73425510D02*
X373736068Y-73425510D01*
X373736068Y-73425510D02*
X373878926Y-73496939D01*
X375164640Y-74354082D02*
X375021783Y-74425510D01*
X375021783Y-74425510D02*
X374736069Y-74425510D01*
X374736069Y-74425510D02*
X374593211Y-74354082D01*
X374593211Y-74354082D02*
X374521783Y-74211224D01*
X374521783Y-74211224D02*
X374521783Y-73639796D01*
X374521783Y-73639796D02*
X374593211Y-73496939D01*
X374593211Y-73496939D02*
X374736069Y-73425510D01*
X374736069Y-73425510D02*
X375021783Y-73425510D01*
X375021783Y-73425510D02*
X375164640Y-73496939D01*
X375164640Y-73496939D02*
X375236069Y-73639796D01*
X375236069Y-73639796D02*
X375236069Y-73782653D01*
X375236069Y-73782653D02*
X374521783Y-73925510D01*
X375807497Y-74354082D02*
X375950354Y-74425510D01*
X375950354Y-74425510D02*
X376236068Y-74425510D01*
X376236068Y-74425510D02*
X376378925Y-74354082D01*
X376378925Y-74354082D02*
X376450354Y-74211224D01*
X376450354Y-74211224D02*
X376450354Y-74139796D01*
X376450354Y-74139796D02*
X376378925Y-73996939D01*
X376378925Y-73996939D02*
X376236068Y-73925510D01*
X376236068Y-73925510D02*
X376021783Y-73925510D01*
X376021783Y-73925510D02*
X375878925Y-73854082D01*
X375878925Y-73854082D02*
X375807497Y-73711224D01*
X375807497Y-73711224D02*
X375807497Y-73639796D01*
X375807497Y-73639796D02*
X375878925Y-73496939D01*
X375878925Y-73496939D02*
X376021783Y-73425510D01*
X376021783Y-73425510D02*
X376236068Y-73425510D01*
X376236068Y-73425510D02*
X376378925Y-73496939D01*
X378093211Y-74996939D02*
X378164640Y-74925510D01*
X378164640Y-74925510D02*
X378307497Y-74711224D01*
X378307497Y-74711224D02*
X378378926Y-74568367D01*
X378378926Y-74568367D02*
X378450354Y-74354082D01*
X378450354Y-74354082D02*
X378521783Y-73996939D01*
X378521783Y-73996939D02*
X378521783Y-73711224D01*
X378521783Y-73711224D02*
X378450354Y-73354082D01*
X378450354Y-73354082D02*
X378378926Y-73139796D01*
X378378926Y-73139796D02*
X378307497Y-72996939D01*
X378307497Y-72996939D02*
X378164640Y-72782653D01*
X378164640Y-72782653D02*
X378093211Y-72711224D01*
X299807497Y-76268998D02*
X300950355Y-76268998D01*
X302807497Y-75840426D02*
X302807497Y-77340426D01*
X302807497Y-75911855D02*
X302950355Y-75840426D01*
X302950355Y-75840426D02*
X303236069Y-75840426D01*
X303236069Y-75840426D02*
X303378926Y-75911855D01*
X303378926Y-75911855D02*
X303450355Y-75983283D01*
X303450355Y-75983283D02*
X303521783Y-76126140D01*
X303521783Y-76126140D02*
X303521783Y-76554712D01*
X303521783Y-76554712D02*
X303450355Y-76697569D01*
X303450355Y-76697569D02*
X303378926Y-76768998D01*
X303378926Y-76768998D02*
X303236069Y-76840426D01*
X303236069Y-76840426D02*
X302950355Y-76840426D01*
X302950355Y-76840426D02*
X302807497Y-76768998D01*
X304164640Y-76840426D02*
X304164640Y-75840426D01*
X304164640Y-75340426D02*
X304093212Y-75411855D01*
X304093212Y-75411855D02*
X304164640Y-75483283D01*
X304164640Y-75483283D02*
X304236069Y-75411855D01*
X304236069Y-75411855D02*
X304164640Y-75340426D01*
X304164640Y-75340426D02*
X304164640Y-75483283D01*
X304878926Y-75840426D02*
X304878926Y-76840426D01*
X304878926Y-75983283D02*
X304950355Y-75911855D01*
X304950355Y-75911855D02*
X305093212Y-75840426D01*
X305093212Y-75840426D02*
X305307498Y-75840426D01*
X305307498Y-75840426D02*
X305450355Y-75911855D01*
X305450355Y-75911855D02*
X305521784Y-76054712D01*
X305521784Y-76054712D02*
X305521784Y-76840426D01*
X306164641Y-76768998D02*
X306307498Y-76840426D01*
X306307498Y-76840426D02*
X306593212Y-76840426D01*
X306593212Y-76840426D02*
X306736069Y-76768998D01*
X306736069Y-76768998D02*
X306807498Y-76626140D01*
X306807498Y-76626140D02*
X306807498Y-76554712D01*
X306807498Y-76554712D02*
X306736069Y-76411855D01*
X306736069Y-76411855D02*
X306593212Y-76340426D01*
X306593212Y-76340426D02*
X306378927Y-76340426D01*
X306378927Y-76340426D02*
X306236069Y-76268998D01*
X306236069Y-76268998D02*
X306164641Y-76126140D01*
X306164641Y-76126140D02*
X306164641Y-76054712D01*
X306164641Y-76054712D02*
X306236069Y-75911855D01*
X306236069Y-75911855D02*
X306378927Y-75840426D01*
X306378927Y-75840426D02*
X306593212Y-75840426D01*
X306593212Y-75840426D02*
X306736069Y-75911855D01*
X308593212Y-76840426D02*
X308593212Y-75340426D01*
X308593212Y-75911855D02*
X308736070Y-75840426D01*
X308736070Y-75840426D02*
X309021784Y-75840426D01*
X309021784Y-75840426D02*
X309164641Y-75911855D01*
X309164641Y-75911855D02*
X309236070Y-75983283D01*
X309236070Y-75983283D02*
X309307498Y-76126140D01*
X309307498Y-76126140D02*
X309307498Y-76554712D01*
X309307498Y-76554712D02*
X309236070Y-76697569D01*
X309236070Y-76697569D02*
X309164641Y-76768998D01*
X309164641Y-76768998D02*
X309021784Y-76840426D01*
X309021784Y-76840426D02*
X308736070Y-76840426D01*
X308736070Y-76840426D02*
X308593212Y-76768998D01*
X310521784Y-76768998D02*
X310378927Y-76840426D01*
X310378927Y-76840426D02*
X310093213Y-76840426D01*
X310093213Y-76840426D02*
X309950355Y-76768998D01*
X309950355Y-76768998D02*
X309878927Y-76626140D01*
X309878927Y-76626140D02*
X309878927Y-76054712D01*
X309878927Y-76054712D02*
X309950355Y-75911855D01*
X309950355Y-75911855D02*
X310093213Y-75840426D01*
X310093213Y-75840426D02*
X310378927Y-75840426D01*
X310378927Y-75840426D02*
X310521784Y-75911855D01*
X310521784Y-75911855D02*
X310593213Y-76054712D01*
X310593213Y-76054712D02*
X310593213Y-76197569D01*
X310593213Y-76197569D02*
X309878927Y-76340426D01*
X311236069Y-76840426D02*
X311236069Y-75840426D01*
X311236069Y-75340426D02*
X311164641Y-75411855D01*
X311164641Y-75411855D02*
X311236069Y-75483283D01*
X311236069Y-75483283D02*
X311307498Y-75411855D01*
X311307498Y-75411855D02*
X311236069Y-75340426D01*
X311236069Y-75340426D02*
X311236069Y-75483283D01*
X312593213Y-76840426D02*
X312593213Y-75340426D01*
X312593213Y-76768998D02*
X312450355Y-76840426D01*
X312450355Y-76840426D02*
X312164641Y-76840426D01*
X312164641Y-76840426D02*
X312021784Y-76768998D01*
X312021784Y-76768998D02*
X311950355Y-76697569D01*
X311950355Y-76697569D02*
X311878927Y-76554712D01*
X311878927Y-76554712D02*
X311878927Y-76126140D01*
X311878927Y-76126140D02*
X311950355Y-75983283D01*
X311950355Y-75983283D02*
X312021784Y-75911855D01*
X312021784Y-75911855D02*
X312164641Y-75840426D01*
X312164641Y-75840426D02*
X312450355Y-75840426D01*
X312450355Y-75840426D02*
X312593213Y-75911855D01*
X313236070Y-76768998D02*
X313378927Y-76840426D01*
X313378927Y-76840426D02*
X313664641Y-76840426D01*
X313664641Y-76840426D02*
X313807498Y-76768998D01*
X313807498Y-76768998D02*
X313878927Y-76626140D01*
X313878927Y-76626140D02*
X313878927Y-76554712D01*
X313878927Y-76554712D02*
X313807498Y-76411855D01*
X313807498Y-76411855D02*
X313664641Y-76340426D01*
X313664641Y-76340426D02*
X313450356Y-76340426D01*
X313450356Y-76340426D02*
X313307498Y-76268998D01*
X313307498Y-76268998D02*
X313236070Y-76126140D01*
X313236070Y-76126140D02*
X313236070Y-76054712D01*
X313236070Y-76054712D02*
X313307498Y-75911855D01*
X313307498Y-75911855D02*
X313450356Y-75840426D01*
X313450356Y-75840426D02*
X313664641Y-75840426D01*
X313664641Y-75840426D02*
X313807498Y-75911855D01*
X315093213Y-76768998D02*
X314950356Y-76840426D01*
X314950356Y-76840426D02*
X314664642Y-76840426D01*
X314664642Y-76840426D02*
X314521784Y-76768998D01*
X314521784Y-76768998D02*
X314450356Y-76626140D01*
X314450356Y-76626140D02*
X314450356Y-76054712D01*
X314450356Y-76054712D02*
X314521784Y-75911855D01*
X314521784Y-75911855D02*
X314664642Y-75840426D01*
X314664642Y-75840426D02*
X314950356Y-75840426D01*
X314950356Y-75840426D02*
X315093213Y-75911855D01*
X315093213Y-75911855D02*
X315164642Y-76054712D01*
X315164642Y-76054712D02*
X315164642Y-76197569D01*
X315164642Y-76197569D02*
X314450356Y-76340426D01*
X315807498Y-76840426D02*
X315807498Y-75840426D01*
X315807498Y-75340426D02*
X315736070Y-75411855D01*
X315736070Y-75411855D02*
X315807498Y-75483283D01*
X315807498Y-75483283D02*
X315878927Y-75411855D01*
X315878927Y-75411855D02*
X315807498Y-75340426D01*
X315807498Y-75340426D02*
X315807498Y-75483283D01*
X316307499Y-75840426D02*
X316878927Y-75840426D01*
X316521784Y-75340426D02*
X316521784Y-76626140D01*
X316521784Y-76626140D02*
X316593213Y-76768998D01*
X316593213Y-76768998D02*
X316736070Y-76840426D01*
X316736070Y-76840426D02*
X316878927Y-76840426D01*
X317378927Y-76840426D02*
X317378927Y-75840426D01*
X317378927Y-75340426D02*
X317307499Y-75411855D01*
X317307499Y-75411855D02*
X317378927Y-75483283D01*
X317378927Y-75483283D02*
X317450356Y-75411855D01*
X317450356Y-75411855D02*
X317378927Y-75340426D01*
X317378927Y-75340426D02*
X317378927Y-75483283D01*
X318736071Y-75840426D02*
X318736071Y-77054712D01*
X318736071Y-77054712D02*
X318664642Y-77197569D01*
X318664642Y-77197569D02*
X318593213Y-77268998D01*
X318593213Y-77268998D02*
X318450356Y-77340426D01*
X318450356Y-77340426D02*
X318236071Y-77340426D01*
X318236071Y-77340426D02*
X318093213Y-77268998D01*
X318736071Y-76768998D02*
X318593213Y-76840426D01*
X318593213Y-76840426D02*
X318307499Y-76840426D01*
X318307499Y-76840426D02*
X318164642Y-76768998D01*
X318164642Y-76768998D02*
X318093213Y-76697569D01*
X318093213Y-76697569D02*
X318021785Y-76554712D01*
X318021785Y-76554712D02*
X318021785Y-76126140D01*
X318021785Y-76126140D02*
X318093213Y-75983283D01*
X318093213Y-75983283D02*
X318164642Y-75911855D01*
X318164642Y-75911855D02*
X318307499Y-75840426D01*
X318307499Y-75840426D02*
X318593213Y-75840426D01*
X318593213Y-75840426D02*
X318736071Y-75911855D01*
X320593213Y-76840426D02*
X320593213Y-75340426D01*
X320593213Y-75911855D02*
X320736071Y-75840426D01*
X320736071Y-75840426D02*
X321021785Y-75840426D01*
X321021785Y-75840426D02*
X321164642Y-75911855D01*
X321164642Y-75911855D02*
X321236071Y-75983283D01*
X321236071Y-75983283D02*
X321307499Y-76126140D01*
X321307499Y-76126140D02*
X321307499Y-76554712D01*
X321307499Y-76554712D02*
X321236071Y-76697569D01*
X321236071Y-76697569D02*
X321164642Y-76768998D01*
X321164642Y-76768998D02*
X321021785Y-76840426D01*
X321021785Y-76840426D02*
X320736071Y-76840426D01*
X320736071Y-76840426D02*
X320593213Y-76768998D01*
X322521785Y-76768998D02*
X322378928Y-76840426D01*
X322378928Y-76840426D02*
X322093214Y-76840426D01*
X322093214Y-76840426D02*
X321950356Y-76768998D01*
X321950356Y-76768998D02*
X321878928Y-76626140D01*
X321878928Y-76626140D02*
X321878928Y-76054712D01*
X321878928Y-76054712D02*
X321950356Y-75911855D01*
X321950356Y-75911855D02*
X322093214Y-75840426D01*
X322093214Y-75840426D02*
X322378928Y-75840426D01*
X322378928Y-75840426D02*
X322521785Y-75911855D01*
X322521785Y-75911855D02*
X322593214Y-76054712D01*
X322593214Y-76054712D02*
X322593214Y-76197569D01*
X322593214Y-76197569D02*
X321878928Y-76340426D01*
X323164642Y-76768998D02*
X323307499Y-76840426D01*
X323307499Y-76840426D02*
X323593213Y-76840426D01*
X323593213Y-76840426D02*
X323736070Y-76768998D01*
X323736070Y-76768998D02*
X323807499Y-76626140D01*
X323807499Y-76626140D02*
X323807499Y-76554712D01*
X323807499Y-76554712D02*
X323736070Y-76411855D01*
X323736070Y-76411855D02*
X323593213Y-76340426D01*
X323593213Y-76340426D02*
X323378928Y-76340426D01*
X323378928Y-76340426D02*
X323236070Y-76268998D01*
X323236070Y-76268998D02*
X323164642Y-76126140D01*
X323164642Y-76126140D02*
X323164642Y-76054712D01*
X323164642Y-76054712D02*
X323236070Y-75911855D01*
X323236070Y-75911855D02*
X323378928Y-75840426D01*
X323378928Y-75840426D02*
X323593213Y-75840426D01*
X323593213Y-75840426D02*
X323736070Y-75911855D01*
X325093214Y-76768998D02*
X324950356Y-76840426D01*
X324950356Y-76840426D02*
X324664642Y-76840426D01*
X324664642Y-76840426D02*
X324521785Y-76768998D01*
X324521785Y-76768998D02*
X324450356Y-76697569D01*
X324450356Y-76697569D02*
X324378928Y-76554712D01*
X324378928Y-76554712D02*
X324378928Y-76126140D01*
X324378928Y-76126140D02*
X324450356Y-75983283D01*
X324450356Y-75983283D02*
X324521785Y-75911855D01*
X324521785Y-75911855D02*
X324664642Y-75840426D01*
X324664642Y-75840426D02*
X324950356Y-75840426D01*
X324950356Y-75840426D02*
X325093214Y-75911855D01*
X325736070Y-76840426D02*
X325736070Y-75340426D01*
X326378928Y-76840426D02*
X326378928Y-76054712D01*
X326378928Y-76054712D02*
X326307499Y-75911855D01*
X326307499Y-75911855D02*
X326164642Y-75840426D01*
X326164642Y-75840426D02*
X325950356Y-75840426D01*
X325950356Y-75840426D02*
X325807499Y-75911855D01*
X325807499Y-75911855D02*
X325736070Y-75983283D01*
X327093213Y-76840426D02*
X327093213Y-75840426D01*
X327093213Y-76126140D02*
X327164642Y-75983283D01*
X327164642Y-75983283D02*
X327236071Y-75911855D01*
X327236071Y-75911855D02*
X327378928Y-75840426D01*
X327378928Y-75840426D02*
X327521785Y-75840426D01*
X328021784Y-76840426D02*
X328021784Y-75840426D01*
X328021784Y-75340426D02*
X327950356Y-75411855D01*
X327950356Y-75411855D02*
X328021784Y-75483283D01*
X328021784Y-75483283D02*
X328093213Y-75411855D01*
X328093213Y-75411855D02*
X328021784Y-75340426D01*
X328021784Y-75340426D02*
X328021784Y-75483283D01*
X328521785Y-75840426D02*
X329093213Y-75840426D01*
X328736070Y-76840426D02*
X328736070Y-75554712D01*
X328736070Y-75554712D02*
X328807499Y-75411855D01*
X328807499Y-75411855D02*
X328950356Y-75340426D01*
X328950356Y-75340426D02*
X329093213Y-75340426D01*
X329378928Y-75840426D02*
X329950356Y-75840426D01*
X329593213Y-75340426D02*
X329593213Y-76626140D01*
X329593213Y-76626140D02*
X329664642Y-76768998D01*
X329664642Y-76768998D02*
X329807499Y-76840426D01*
X329807499Y-76840426D02*
X329950356Y-76840426D01*
X331021785Y-76768998D02*
X330878928Y-76840426D01*
X330878928Y-76840426D02*
X330593214Y-76840426D01*
X330593214Y-76840426D02*
X330450356Y-76768998D01*
X330450356Y-76768998D02*
X330378928Y-76626140D01*
X330378928Y-76626140D02*
X330378928Y-76054712D01*
X330378928Y-76054712D02*
X330450356Y-75911855D01*
X330450356Y-75911855D02*
X330593214Y-75840426D01*
X330593214Y-75840426D02*
X330878928Y-75840426D01*
X330878928Y-75840426D02*
X331021785Y-75911855D01*
X331021785Y-75911855D02*
X331093214Y-76054712D01*
X331093214Y-76054712D02*
X331093214Y-76197569D01*
X331093214Y-76197569D02*
X330378928Y-76340426D01*
X331736070Y-75840426D02*
X331736070Y-76840426D01*
X331736070Y-75983283D02*
X331807499Y-75911855D01*
X331807499Y-75911855D02*
X331950356Y-75840426D01*
X331950356Y-75840426D02*
X332164642Y-75840426D01*
X332164642Y-75840426D02*
X332307499Y-75911855D01*
X332307499Y-75911855D02*
X332378928Y-76054712D01*
X332378928Y-76054712D02*
X332378928Y-76840426D01*
X334664642Y-77411855D02*
X334593213Y-77340426D01*
X334593213Y-77340426D02*
X334450356Y-77126140D01*
X334450356Y-77126140D02*
X334378928Y-76983283D01*
X334378928Y-76983283D02*
X334307499Y-76768998D01*
X334307499Y-76768998D02*
X334236070Y-76411855D01*
X334236070Y-76411855D02*
X334236070Y-76126140D01*
X334236070Y-76126140D02*
X334307499Y-75768998D01*
X334307499Y-75768998D02*
X334378928Y-75554712D01*
X334378928Y-75554712D02*
X334450356Y-75411855D01*
X334450356Y-75411855D02*
X334593213Y-75197569D01*
X334593213Y-75197569D02*
X334664642Y-75126140D01*
X336378927Y-76840426D02*
X336378927Y-75840426D01*
X336378927Y-75340426D02*
X336307499Y-75411855D01*
X336307499Y-75411855D02*
X336378927Y-75483283D01*
X336378927Y-75483283D02*
X336450356Y-75411855D01*
X336450356Y-75411855D02*
X336378927Y-75340426D01*
X336378927Y-75340426D02*
X336378927Y-75483283D01*
X337093213Y-75840426D02*
X337093213Y-76840426D01*
X337093213Y-75983283D02*
X337164642Y-75911855D01*
X337164642Y-75911855D02*
X337307499Y-75840426D01*
X337307499Y-75840426D02*
X337521785Y-75840426D01*
X337521785Y-75840426D02*
X337664642Y-75911855D01*
X337664642Y-75911855D02*
X337736071Y-76054712D01*
X337736071Y-76054712D02*
X337736071Y-76840426D01*
X338450356Y-76840426D02*
X338450356Y-75340426D01*
X338593214Y-76268998D02*
X339021785Y-76840426D01*
X339021785Y-75840426D02*
X338450356Y-76411855D01*
X339878928Y-76840426D02*
X339736071Y-76768998D01*
X339736071Y-76768998D02*
X339664642Y-76626140D01*
X339664642Y-76626140D02*
X339664642Y-75340426D01*
X341093214Y-75840426D02*
X341093214Y-76840426D01*
X340450356Y-75840426D02*
X340450356Y-76626140D01*
X340450356Y-76626140D02*
X340521785Y-76768998D01*
X340521785Y-76768998D02*
X340664642Y-76840426D01*
X340664642Y-76840426D02*
X340878928Y-76840426D01*
X340878928Y-76840426D02*
X341021785Y-76768998D01*
X341021785Y-76768998D02*
X341093214Y-76697569D01*
X341736071Y-76768998D02*
X341878928Y-76840426D01*
X341878928Y-76840426D02*
X342164642Y-76840426D01*
X342164642Y-76840426D02*
X342307499Y-76768998D01*
X342307499Y-76768998D02*
X342378928Y-76626140D01*
X342378928Y-76626140D02*
X342378928Y-76554712D01*
X342378928Y-76554712D02*
X342307499Y-76411855D01*
X342307499Y-76411855D02*
X342164642Y-76340426D01*
X342164642Y-76340426D02*
X341950357Y-76340426D01*
X341950357Y-76340426D02*
X341807499Y-76268998D01*
X341807499Y-76268998D02*
X341736071Y-76126140D01*
X341736071Y-76126140D02*
X341736071Y-76054712D01*
X341736071Y-76054712D02*
X341807499Y-75911855D01*
X341807499Y-75911855D02*
X341950357Y-75840426D01*
X341950357Y-75840426D02*
X342164642Y-75840426D01*
X342164642Y-75840426D02*
X342307499Y-75911855D01*
X343021785Y-76840426D02*
X343021785Y-75840426D01*
X343021785Y-75340426D02*
X342950357Y-75411855D01*
X342950357Y-75411855D02*
X343021785Y-75483283D01*
X343021785Y-75483283D02*
X343093214Y-75411855D01*
X343093214Y-75411855D02*
X343021785Y-75340426D01*
X343021785Y-75340426D02*
X343021785Y-75483283D01*
X343593214Y-75840426D02*
X343950357Y-76840426D01*
X343950357Y-76840426D02*
X344307500Y-75840426D01*
X345450357Y-76768998D02*
X345307500Y-76840426D01*
X345307500Y-76840426D02*
X345021786Y-76840426D01*
X345021786Y-76840426D02*
X344878928Y-76768998D01*
X344878928Y-76768998D02*
X344807500Y-76626140D01*
X344807500Y-76626140D02*
X344807500Y-76054712D01*
X344807500Y-76054712D02*
X344878928Y-75911855D01*
X344878928Y-75911855D02*
X345021786Y-75840426D01*
X345021786Y-75840426D02*
X345307500Y-75840426D01*
X345307500Y-75840426D02*
X345450357Y-75911855D01*
X345450357Y-75911855D02*
X345521786Y-76054712D01*
X345521786Y-76054712D02*
X345521786Y-76197569D01*
X345521786Y-76197569D02*
X344807500Y-76340426D01*
X347950357Y-76768998D02*
X347807499Y-76840426D01*
X347807499Y-76840426D02*
X347521785Y-76840426D01*
X347521785Y-76840426D02*
X347378928Y-76768998D01*
X347378928Y-76768998D02*
X347307499Y-76697569D01*
X347307499Y-76697569D02*
X347236071Y-76554712D01*
X347236071Y-76554712D02*
X347236071Y-76126140D01*
X347236071Y-76126140D02*
X347307499Y-75983283D01*
X347307499Y-75983283D02*
X347378928Y-75911855D01*
X347378928Y-75911855D02*
X347521785Y-75840426D01*
X347521785Y-75840426D02*
X347807499Y-75840426D01*
X347807499Y-75840426D02*
X347950357Y-75911855D01*
X348807499Y-76840426D02*
X348664642Y-76768998D01*
X348664642Y-76768998D02*
X348593213Y-76697569D01*
X348593213Y-76697569D02*
X348521785Y-76554712D01*
X348521785Y-76554712D02*
X348521785Y-76126140D01*
X348521785Y-76126140D02*
X348593213Y-75983283D01*
X348593213Y-75983283D02*
X348664642Y-75911855D01*
X348664642Y-75911855D02*
X348807499Y-75840426D01*
X348807499Y-75840426D02*
X349021785Y-75840426D01*
X349021785Y-75840426D02*
X349164642Y-75911855D01*
X349164642Y-75911855D02*
X349236071Y-75983283D01*
X349236071Y-75983283D02*
X349307499Y-76126140D01*
X349307499Y-76126140D02*
X349307499Y-76554712D01*
X349307499Y-76554712D02*
X349236071Y-76697569D01*
X349236071Y-76697569D02*
X349164642Y-76768998D01*
X349164642Y-76768998D02*
X349021785Y-76840426D01*
X349021785Y-76840426D02*
X348807499Y-76840426D01*
X349950356Y-75840426D02*
X349950356Y-76840426D01*
X349950356Y-75983283D02*
X350021785Y-75911855D01*
X350021785Y-75911855D02*
X350164642Y-75840426D01*
X350164642Y-75840426D02*
X350378928Y-75840426D01*
X350378928Y-75840426D02*
X350521785Y-75911855D01*
X350521785Y-75911855D02*
X350593214Y-76054712D01*
X350593214Y-76054712D02*
X350593214Y-76840426D01*
X351307499Y-75840426D02*
X351307499Y-76840426D01*
X351307499Y-75983283D02*
X351378928Y-75911855D01*
X351378928Y-75911855D02*
X351521785Y-75840426D01*
X351521785Y-75840426D02*
X351736071Y-75840426D01*
X351736071Y-75840426D02*
X351878928Y-75911855D01*
X351878928Y-75911855D02*
X351950357Y-76054712D01*
X351950357Y-76054712D02*
X351950357Y-76840426D01*
X353236071Y-76768998D02*
X353093214Y-76840426D01*
X353093214Y-76840426D02*
X352807500Y-76840426D01*
X352807500Y-76840426D02*
X352664642Y-76768998D01*
X352664642Y-76768998D02*
X352593214Y-76626140D01*
X352593214Y-76626140D02*
X352593214Y-76054712D01*
X352593214Y-76054712D02*
X352664642Y-75911855D01*
X352664642Y-75911855D02*
X352807500Y-75840426D01*
X352807500Y-75840426D02*
X353093214Y-75840426D01*
X353093214Y-75840426D02*
X353236071Y-75911855D01*
X353236071Y-75911855D02*
X353307500Y-76054712D01*
X353307500Y-76054712D02*
X353307500Y-76197569D01*
X353307500Y-76197569D02*
X352593214Y-76340426D01*
X354593214Y-76768998D02*
X354450356Y-76840426D01*
X354450356Y-76840426D02*
X354164642Y-76840426D01*
X354164642Y-76840426D02*
X354021785Y-76768998D01*
X354021785Y-76768998D02*
X353950356Y-76697569D01*
X353950356Y-76697569D02*
X353878928Y-76554712D01*
X353878928Y-76554712D02*
X353878928Y-76126140D01*
X353878928Y-76126140D02*
X353950356Y-75983283D01*
X353950356Y-75983283D02*
X354021785Y-75911855D01*
X354021785Y-75911855D02*
X354164642Y-75840426D01*
X354164642Y-75840426D02*
X354450356Y-75840426D01*
X354450356Y-75840426D02*
X354593214Y-75911855D01*
X355021785Y-75840426D02*
X355593213Y-75840426D01*
X355236070Y-75340426D02*
X355236070Y-76626140D01*
X355236070Y-76626140D02*
X355307499Y-76768998D01*
X355307499Y-76768998D02*
X355450356Y-76840426D01*
X355450356Y-76840426D02*
X355593213Y-76840426D01*
X356093213Y-76840426D02*
X356093213Y-75840426D01*
X356093213Y-75340426D02*
X356021785Y-75411855D01*
X356021785Y-75411855D02*
X356093213Y-75483283D01*
X356093213Y-75483283D02*
X356164642Y-75411855D01*
X356164642Y-75411855D02*
X356093213Y-75340426D01*
X356093213Y-75340426D02*
X356093213Y-75483283D01*
X356807499Y-75840426D02*
X356807499Y-76840426D01*
X356807499Y-75983283D02*
X356878928Y-75911855D01*
X356878928Y-75911855D02*
X357021785Y-75840426D01*
X357021785Y-75840426D02*
X357236071Y-75840426D01*
X357236071Y-75840426D02*
X357378928Y-75911855D01*
X357378928Y-75911855D02*
X357450357Y-76054712D01*
X357450357Y-76054712D02*
X357450357Y-76840426D01*
X358807500Y-75840426D02*
X358807500Y-77054712D01*
X358807500Y-77054712D02*
X358736071Y-77197569D01*
X358736071Y-77197569D02*
X358664642Y-77268998D01*
X358664642Y-77268998D02*
X358521785Y-77340426D01*
X358521785Y-77340426D02*
X358307500Y-77340426D01*
X358307500Y-77340426D02*
X358164642Y-77268998D01*
X358807500Y-76768998D02*
X358664642Y-76840426D01*
X358664642Y-76840426D02*
X358378928Y-76840426D01*
X358378928Y-76840426D02*
X358236071Y-76768998D01*
X358236071Y-76768998D02*
X358164642Y-76697569D01*
X358164642Y-76697569D02*
X358093214Y-76554712D01*
X358093214Y-76554712D02*
X358093214Y-76126140D01*
X358093214Y-76126140D02*
X358164642Y-75983283D01*
X358164642Y-75983283D02*
X358236071Y-75911855D01*
X358236071Y-75911855D02*
X358378928Y-75840426D01*
X358378928Y-75840426D02*
X358664642Y-75840426D01*
X358664642Y-75840426D02*
X358807500Y-75911855D01*
X360878928Y-76840426D02*
X360736071Y-76768998D01*
X360736071Y-76768998D02*
X360664642Y-76626140D01*
X360664642Y-76626140D02*
X360664642Y-75340426D01*
X361450356Y-76840426D02*
X361450356Y-75840426D01*
X361450356Y-75340426D02*
X361378928Y-75411855D01*
X361378928Y-75411855D02*
X361450356Y-75483283D01*
X361450356Y-75483283D02*
X361521785Y-75411855D01*
X361521785Y-75411855D02*
X361450356Y-75340426D01*
X361450356Y-75340426D02*
X361450356Y-75483283D01*
X362164642Y-75840426D02*
X362164642Y-76840426D01*
X362164642Y-75983283D02*
X362236071Y-75911855D01*
X362236071Y-75911855D02*
X362378928Y-75840426D01*
X362378928Y-75840426D02*
X362593214Y-75840426D01*
X362593214Y-75840426D02*
X362736071Y-75911855D01*
X362736071Y-75911855D02*
X362807500Y-76054712D01*
X362807500Y-76054712D02*
X362807500Y-76840426D01*
X364093214Y-76768998D02*
X363950357Y-76840426D01*
X363950357Y-76840426D02*
X363664643Y-76840426D01*
X363664643Y-76840426D02*
X363521785Y-76768998D01*
X363521785Y-76768998D02*
X363450357Y-76626140D01*
X363450357Y-76626140D02*
X363450357Y-76054712D01*
X363450357Y-76054712D02*
X363521785Y-75911855D01*
X363521785Y-75911855D02*
X363664643Y-75840426D01*
X363664643Y-75840426D02*
X363950357Y-75840426D01*
X363950357Y-75840426D02*
X364093214Y-75911855D01*
X364093214Y-75911855D02*
X364164643Y-76054712D01*
X364164643Y-76054712D02*
X364164643Y-76197569D01*
X364164643Y-76197569D02*
X363450357Y-76340426D01*
X364736071Y-76768998D02*
X364878928Y-76840426D01*
X364878928Y-76840426D02*
X365164642Y-76840426D01*
X365164642Y-76840426D02*
X365307499Y-76768998D01*
X365307499Y-76768998D02*
X365378928Y-76626140D01*
X365378928Y-76626140D02*
X365378928Y-76554712D01*
X365378928Y-76554712D02*
X365307499Y-76411855D01*
X365307499Y-76411855D02*
X365164642Y-76340426D01*
X365164642Y-76340426D02*
X364950357Y-76340426D01*
X364950357Y-76340426D02*
X364807499Y-76268998D01*
X364807499Y-76268998D02*
X364736071Y-76126140D01*
X364736071Y-76126140D02*
X364736071Y-76054712D01*
X364736071Y-76054712D02*
X364807499Y-75911855D01*
X364807499Y-75911855D02*
X364950357Y-75840426D01*
X364950357Y-75840426D02*
X365164642Y-75840426D01*
X365164642Y-75840426D02*
X365307499Y-75911855D01*
X367021785Y-77411855D02*
X367093214Y-77340426D01*
X367093214Y-77340426D02*
X367236071Y-77126140D01*
X367236071Y-77126140D02*
X367307500Y-76983283D01*
X367307500Y-76983283D02*
X367378928Y-76768998D01*
X367378928Y-76768998D02*
X367450357Y-76411855D01*
X367450357Y-76411855D02*
X367450357Y-76126140D01*
X367450357Y-76126140D02*
X367378928Y-75768998D01*
X367378928Y-75768998D02*
X367307500Y-75554712D01*
X367307500Y-75554712D02*
X367236071Y-75411855D01*
X367236071Y-75411855D02*
X367093214Y-75197569D01*
X367093214Y-75197569D02*
X367021785Y-75126140D01*
D11*
X298202000Y-66909000D02*
X380244000Y-66909000D01*
X380244000Y-89007000D01*
X298202000Y-89007000D01*
X298202000Y-66909000D01*
D12*
X205565476Y-28900057D02*
X205613095Y-28852438D01*
X205613095Y-28852438D02*
X205708333Y-28804819D01*
X205708333Y-28804819D02*
X205946428Y-28804819D01*
X205946428Y-28804819D02*
X206041666Y-28852438D01*
X206041666Y-28852438D02*
X206089285Y-28900057D01*
X206089285Y-28900057D02*
X206136904Y-28995295D01*
X206136904Y-28995295D02*
X206136904Y-29090533D01*
X206136904Y-29090533D02*
X206089285Y-29233390D01*
X206089285Y-29233390D02*
X205517857Y-29804819D01*
X205517857Y-29804819D02*
X206136904Y-29804819D01*
X206613095Y-29804819D02*
X206803571Y-29804819D01*
X206803571Y-29804819D02*
X206898809Y-29757200D01*
X206898809Y-29757200D02*
X206946428Y-29709580D01*
X206946428Y-29709580D02*
X207041666Y-29566723D01*
X207041666Y-29566723D02*
X207089285Y-29376247D01*
X207089285Y-29376247D02*
X207089285Y-28995295D01*
X207089285Y-28995295D02*
X207041666Y-28900057D01*
X207041666Y-28900057D02*
X206994047Y-28852438D01*
X206994047Y-28852438D02*
X206898809Y-28804819D01*
X206898809Y-28804819D02*
X206708333Y-28804819D01*
X206708333Y-28804819D02*
X206613095Y-28852438D01*
X206613095Y-28852438D02*
X206565476Y-28900057D01*
X206565476Y-28900057D02*
X206517857Y-28995295D01*
X206517857Y-28995295D02*
X206517857Y-29233390D01*
X206517857Y-29233390D02*
X206565476Y-29328628D01*
X206565476Y-29328628D02*
X206613095Y-29376247D01*
X206613095Y-29376247D02*
X206708333Y-29423866D01*
X206708333Y-29423866D02*
X206898809Y-29423866D01*
X206898809Y-29423866D02*
X206994047Y-29376247D01*
X206994047Y-29376247D02*
X207041666Y-29328628D01*
X207041666Y-29328628D02*
X207089285Y-29233390D01*
X207470238Y-28900057D02*
X207517857Y-28852438D01*
X207517857Y-28852438D02*
X207613095Y-28804819D01*
X207613095Y-28804819D02*
X207851190Y-28804819D01*
X207851190Y-28804819D02*
X207946428Y-28852438D01*
X207946428Y-28852438D02*
X207994047Y-28900057D01*
X207994047Y-28900057D02*
X208041666Y-28995295D01*
X208041666Y-28995295D02*
X208041666Y-29090533D01*
X208041666Y-29090533D02*
X207994047Y-29233390D01*
X207994047Y-29233390D02*
X207422619Y-29804819D01*
X207422619Y-29804819D02*
X208041666Y-29804819D01*
X208375000Y-28804819D02*
X208994047Y-28804819D01*
X208994047Y-28804819D02*
X208660714Y-29185771D01*
X208660714Y-29185771D02*
X208803571Y-29185771D01*
X208803571Y-29185771D02*
X208898809Y-29233390D01*
X208898809Y-29233390D02*
X208946428Y-29281009D01*
X208946428Y-29281009D02*
X208994047Y-29376247D01*
X208994047Y-29376247D02*
X208994047Y-29614342D01*
X208994047Y-29614342D02*
X208946428Y-29709580D01*
X208946428Y-29709580D02*
X208898809Y-29757200D01*
X208898809Y-29757200D02*
X208803571Y-29804819D01*
X208803571Y-29804819D02*
X208517857Y-29804819D01*
X208517857Y-29804819D02*
X208422619Y-29757200D01*
X208422619Y-29757200D02*
X208375000Y-29709580D01*
X209422619Y-29709580D02*
X209470238Y-29757200D01*
X209470238Y-29757200D02*
X209422619Y-29804819D01*
X209422619Y-29804819D02*
X209375000Y-29757200D01*
X209375000Y-29757200D02*
X209422619Y-29709580D01*
X209422619Y-29709580D02*
X209422619Y-29804819D01*
X209851190Y-28900057D02*
X209898809Y-28852438D01*
X209898809Y-28852438D02*
X209994047Y-28804819D01*
X209994047Y-28804819D02*
X210232142Y-28804819D01*
X210232142Y-28804819D02*
X210327380Y-28852438D01*
X210327380Y-28852438D02*
X210374999Y-28900057D01*
X210374999Y-28900057D02*
X210422618Y-28995295D01*
X210422618Y-28995295D02*
X210422618Y-29090533D01*
X210422618Y-29090533D02*
X210374999Y-29233390D01*
X210374999Y-29233390D02*
X209803571Y-29804819D01*
X209803571Y-29804819D02*
X210422618Y-29804819D01*
X210803571Y-28900057D02*
X210851190Y-28852438D01*
X210851190Y-28852438D02*
X210946428Y-28804819D01*
X210946428Y-28804819D02*
X211184523Y-28804819D01*
X211184523Y-28804819D02*
X211279761Y-28852438D01*
X211279761Y-28852438D02*
X211327380Y-28900057D01*
X211327380Y-28900057D02*
X211374999Y-28995295D01*
X211374999Y-28995295D02*
X211374999Y-29090533D01*
X211374999Y-29090533D02*
X211327380Y-29233390D01*
X211327380Y-29233390D02*
X210755952Y-29804819D01*
X210755952Y-29804819D02*
X211374999Y-29804819D01*
X211946428Y-29233390D02*
X211851190Y-29185771D01*
X211851190Y-29185771D02*
X211803571Y-29138152D01*
X211803571Y-29138152D02*
X211755952Y-29042914D01*
X211755952Y-29042914D02*
X211755952Y-28995295D01*
X211755952Y-28995295D02*
X211803571Y-28900057D01*
X211803571Y-28900057D02*
X211851190Y-28852438D01*
X211851190Y-28852438D02*
X211946428Y-28804819D01*
X211946428Y-28804819D02*
X212136904Y-28804819D01*
X212136904Y-28804819D02*
X212232142Y-28852438D01*
X212232142Y-28852438D02*
X212279761Y-28900057D01*
X212279761Y-28900057D02*
X212327380Y-28995295D01*
X212327380Y-28995295D02*
X212327380Y-29042914D01*
X212327380Y-29042914D02*
X212279761Y-29138152D01*
X212279761Y-29138152D02*
X212232142Y-29185771D01*
X212232142Y-29185771D02*
X212136904Y-29233390D01*
X212136904Y-29233390D02*
X211946428Y-29233390D01*
X211946428Y-29233390D02*
X211851190Y-29281009D01*
X211851190Y-29281009D02*
X211803571Y-29328628D01*
X211803571Y-29328628D02*
X211755952Y-29423866D01*
X211755952Y-29423866D02*
X211755952Y-29614342D01*
X211755952Y-29614342D02*
X211803571Y-29709580D01*
X211803571Y-29709580D02*
X211851190Y-29757200D01*
X211851190Y-29757200D02*
X211946428Y-29804819D01*
X211946428Y-29804819D02*
X212136904Y-29804819D01*
X212136904Y-29804819D02*
X212232142Y-29757200D01*
X212232142Y-29757200D02*
X212279761Y-29709580D01*
X212279761Y-29709580D02*
X212327380Y-29614342D01*
X212327380Y-29614342D02*
X212327380Y-29423866D01*
X212327380Y-29423866D02*
X212279761Y-29328628D01*
X212279761Y-29328628D02*
X212232142Y-29281009D01*
X212232142Y-29281009D02*
X212136904Y-29233390D01*
X212660714Y-28804819D02*
X213279761Y-28804819D01*
X213279761Y-28804819D02*
X212946428Y-29185771D01*
X212946428Y-29185771D02*
X213089285Y-29185771D01*
X213089285Y-29185771D02*
X213184523Y-29233390D01*
X213184523Y-29233390D02*
X213232142Y-29281009D01*
X213232142Y-29281009D02*
X213279761Y-29376247D01*
X213279761Y-29376247D02*
X213279761Y-29614342D01*
X213279761Y-29614342D02*
X213232142Y-29709580D01*
X213232142Y-29709580D02*
X213184523Y-29757200D01*
X213184523Y-29757200D02*
X213089285Y-29804819D01*
X213089285Y-29804819D02*
X212803571Y-29804819D01*
X212803571Y-29804819D02*
X212708333Y-29757200D01*
X212708333Y-29757200D02*
X212660714Y-29709580D01*
X214470238Y-29804819D02*
X214470238Y-29138152D01*
X214470238Y-29233390D02*
X214517857Y-29185771D01*
X214517857Y-29185771D02*
X214613095Y-29138152D01*
X214613095Y-29138152D02*
X214755952Y-29138152D01*
X214755952Y-29138152D02*
X214851190Y-29185771D01*
X214851190Y-29185771D02*
X214898809Y-29281009D01*
X214898809Y-29281009D02*
X214898809Y-29804819D01*
X214898809Y-29281009D02*
X214946428Y-29185771D01*
X214946428Y-29185771D02*
X215041666Y-29138152D01*
X215041666Y-29138152D02*
X215184523Y-29138152D01*
X215184523Y-29138152D02*
X215279762Y-29185771D01*
X215279762Y-29185771D02*
X215327381Y-29281009D01*
X215327381Y-29281009D02*
X215327381Y-29804819D01*
X215803571Y-29804819D02*
X215803571Y-29138152D01*
X215803571Y-28804819D02*
X215755952Y-28852438D01*
X215755952Y-28852438D02*
X215803571Y-28900057D01*
X215803571Y-28900057D02*
X215851190Y-28852438D01*
X215851190Y-28852438D02*
X215803571Y-28804819D01*
X215803571Y-28804819D02*
X215803571Y-28900057D01*
X216422618Y-29804819D02*
X216327380Y-29757200D01*
X216327380Y-29757200D02*
X216279761Y-29661961D01*
X216279761Y-29661961D02*
X216279761Y-28804819D01*
X216755952Y-29757200D02*
X216851190Y-29804819D01*
X216851190Y-29804819D02*
X217041666Y-29804819D01*
X217041666Y-29804819D02*
X217136904Y-29757200D01*
X217136904Y-29757200D02*
X217184523Y-29661961D01*
X217184523Y-29661961D02*
X217184523Y-29614342D01*
X217184523Y-29614342D02*
X217136904Y-29519104D01*
X217136904Y-29519104D02*
X217041666Y-29471485D01*
X217041666Y-29471485D02*
X216898809Y-29471485D01*
X216898809Y-29471485D02*
X216803571Y-29423866D01*
X216803571Y-29423866D02*
X216755952Y-29328628D01*
X216755952Y-29328628D02*
X216755952Y-29281009D01*
X216755952Y-29281009D02*
X216803571Y-29185771D01*
X216803571Y-29185771D02*
X216898809Y-29138152D01*
X216898809Y-29138152D02*
X217041666Y-29138152D01*
X217041666Y-29138152D02*
X217136904Y-29185771D01*
D13*
X174250000Y-49500000D02*
X174250000Y-29913580D01*
X248500000Y-49500000D02*
X248500000Y-29913580D01*
X174250000Y-30500000D02*
X248500000Y-30500000D01*
X174250000Y-30500000D02*
X248500000Y-30500000D01*
X174250000Y-30500000D02*
X175376504Y-29913579D01*
X174250000Y-30500000D02*
X175376504Y-31086421D01*
X248500000Y-30500000D02*
X247373496Y-31086421D01*
X248500000Y-30500000D02*
X247373496Y-29913579D01*
X174250000Y-30500000D02*
X248500000Y-30500000D01*
X174250000Y-30500000D02*
X248500000Y-30500000D01*
X174250000Y-30500000D02*
X175376504Y-29913579D01*
X174250000Y-30500000D02*
X175376504Y-31086421D01*
X248500000Y-30500000D02*
X247373496Y-31086421D01*
X248500000Y-30500000D02*
X247373496Y-29913579D01*
D12*
X168964285Y-44054819D02*
X168488095Y-44054819D01*
X168488095Y-44054819D02*
X168440476Y-44531009D01*
X168440476Y-44531009D02*
X168488095Y-44483390D01*
X168488095Y-44483390D02*
X168583333Y-44435771D01*
X168583333Y-44435771D02*
X168821428Y-44435771D01*
X168821428Y-44435771D02*
X168916666Y-44483390D01*
X168916666Y-44483390D02*
X168964285Y-44531009D01*
X168964285Y-44531009D02*
X169011904Y-44626247D01*
X169011904Y-44626247D02*
X169011904Y-44864342D01*
X169011904Y-44864342D02*
X168964285Y-44959580D01*
X168964285Y-44959580D02*
X168916666Y-45007200D01*
X168916666Y-45007200D02*
X168821428Y-45054819D01*
X168821428Y-45054819D02*
X168583333Y-45054819D01*
X168583333Y-45054819D02*
X168488095Y-45007200D01*
X168488095Y-45007200D02*
X168440476Y-44959580D01*
X169869047Y-44388152D02*
X169869047Y-45054819D01*
X169630952Y-44007200D02*
X169392857Y-44721485D01*
X169392857Y-44721485D02*
X170011904Y-44721485D01*
X170869047Y-44054819D02*
X170392857Y-44054819D01*
X170392857Y-44054819D02*
X170345238Y-44531009D01*
X170345238Y-44531009D02*
X170392857Y-44483390D01*
X170392857Y-44483390D02*
X170488095Y-44435771D01*
X170488095Y-44435771D02*
X170726190Y-44435771D01*
X170726190Y-44435771D02*
X170821428Y-44483390D01*
X170821428Y-44483390D02*
X170869047Y-44531009D01*
X170869047Y-44531009D02*
X170916666Y-44626247D01*
X170916666Y-44626247D02*
X170916666Y-44864342D01*
X170916666Y-44864342D02*
X170869047Y-44959580D01*
X170869047Y-44959580D02*
X170821428Y-45007200D01*
X170821428Y-45007200D02*
X170726190Y-45054819D01*
X170726190Y-45054819D02*
X170488095Y-45054819D01*
X170488095Y-45054819D02*
X170392857Y-45007200D01*
X170392857Y-45007200D02*
X170345238Y-44959580D01*
X171297619Y-44150057D02*
X171345238Y-44102438D01*
X171345238Y-44102438D02*
X171440476Y-44054819D01*
X171440476Y-44054819D02*
X171678571Y-44054819D01*
X171678571Y-44054819D02*
X171773809Y-44102438D01*
X171773809Y-44102438D02*
X171821428Y-44150057D01*
X171821428Y-44150057D02*
X171869047Y-44245295D01*
X171869047Y-44245295D02*
X171869047Y-44340533D01*
X171869047Y-44340533D02*
X171821428Y-44483390D01*
X171821428Y-44483390D02*
X171250000Y-45054819D01*
X171250000Y-45054819D02*
X171869047Y-45054819D01*
X172297619Y-44959580D02*
X172345238Y-45007200D01*
X172345238Y-45007200D02*
X172297619Y-45054819D01*
X172297619Y-45054819D02*
X172250000Y-45007200D01*
X172250000Y-45007200D02*
X172297619Y-44959580D01*
X172297619Y-44959580D02*
X172297619Y-45054819D01*
X172678571Y-44054819D02*
X173345237Y-44054819D01*
X173345237Y-44054819D02*
X172916666Y-45054819D01*
X174202380Y-44054819D02*
X173726190Y-44054819D01*
X173726190Y-44054819D02*
X173678571Y-44531009D01*
X173678571Y-44531009D02*
X173726190Y-44483390D01*
X173726190Y-44483390D02*
X173821428Y-44435771D01*
X173821428Y-44435771D02*
X174059523Y-44435771D01*
X174059523Y-44435771D02*
X174154761Y-44483390D01*
X174154761Y-44483390D02*
X174202380Y-44531009D01*
X174202380Y-44531009D02*
X174249999Y-44626247D01*
X174249999Y-44626247D02*
X174249999Y-44864342D01*
X174249999Y-44864342D02*
X174202380Y-44959580D01*
X174202380Y-44959580D02*
X174154761Y-45007200D01*
X174154761Y-45007200D02*
X174059523Y-45054819D01*
X174059523Y-45054819D02*
X173821428Y-45054819D01*
X173821428Y-45054819D02*
X173726190Y-45007200D01*
X173726190Y-45007200D02*
X173678571Y-44959580D01*
X175154761Y-44054819D02*
X174678571Y-44054819D01*
X174678571Y-44054819D02*
X174630952Y-44531009D01*
X174630952Y-44531009D02*
X174678571Y-44483390D01*
X174678571Y-44483390D02*
X174773809Y-44435771D01*
X174773809Y-44435771D02*
X175011904Y-44435771D01*
X175011904Y-44435771D02*
X175107142Y-44483390D01*
X175107142Y-44483390D02*
X175154761Y-44531009D01*
X175154761Y-44531009D02*
X175202380Y-44626247D01*
X175202380Y-44626247D02*
X175202380Y-44864342D01*
X175202380Y-44864342D02*
X175154761Y-44959580D01*
X175154761Y-44959580D02*
X175107142Y-45007200D01*
X175107142Y-45007200D02*
X175011904Y-45054819D01*
X175011904Y-45054819D02*
X174773809Y-45054819D01*
X174773809Y-45054819D02*
X174678571Y-45007200D01*
X174678571Y-45007200D02*
X174630952Y-44959580D01*
X175678571Y-45054819D02*
X175869047Y-45054819D01*
X175869047Y-45054819D02*
X175964285Y-45007200D01*
X175964285Y-45007200D02*
X176011904Y-44959580D01*
X176011904Y-44959580D02*
X176107142Y-44816723D01*
X176107142Y-44816723D02*
X176154761Y-44626247D01*
X176154761Y-44626247D02*
X176154761Y-44245295D01*
X176154761Y-44245295D02*
X176107142Y-44150057D01*
X176107142Y-44150057D02*
X176059523Y-44102438D01*
X176059523Y-44102438D02*
X175964285Y-44054819D01*
X175964285Y-44054819D02*
X175773809Y-44054819D01*
X175773809Y-44054819D02*
X175678571Y-44102438D01*
X175678571Y-44102438D02*
X175630952Y-44150057D01*
X175630952Y-44150057D02*
X175583333Y-44245295D01*
X175583333Y-44245295D02*
X175583333Y-44483390D01*
X175583333Y-44483390D02*
X175630952Y-44578628D01*
X175630952Y-44578628D02*
X175678571Y-44626247D01*
X175678571Y-44626247D02*
X175773809Y-44673866D01*
X175773809Y-44673866D02*
X175964285Y-44673866D01*
X175964285Y-44673866D02*
X176059523Y-44626247D01*
X176059523Y-44626247D02*
X176107142Y-44578628D01*
X176107142Y-44578628D02*
X176154761Y-44483390D01*
X177345238Y-45054819D02*
X177345238Y-44388152D01*
X177345238Y-44483390D02*
X177392857Y-44435771D01*
X177392857Y-44435771D02*
X177488095Y-44388152D01*
X177488095Y-44388152D02*
X177630952Y-44388152D01*
X177630952Y-44388152D02*
X177726190Y-44435771D01*
X177726190Y-44435771D02*
X177773809Y-44531009D01*
X177773809Y-44531009D02*
X177773809Y-45054819D01*
X177773809Y-44531009D02*
X177821428Y-44435771D01*
X177821428Y-44435771D02*
X177916666Y-44388152D01*
X177916666Y-44388152D02*
X178059523Y-44388152D01*
X178059523Y-44388152D02*
X178154762Y-44435771D01*
X178154762Y-44435771D02*
X178202381Y-44531009D01*
X178202381Y-44531009D02*
X178202381Y-45054819D01*
X178678571Y-45054819D02*
X178678571Y-44388152D01*
X178678571Y-44054819D02*
X178630952Y-44102438D01*
X178630952Y-44102438D02*
X178678571Y-44150057D01*
X178678571Y-44150057D02*
X178726190Y-44102438D01*
X178726190Y-44102438D02*
X178678571Y-44054819D01*
X178678571Y-44054819D02*
X178678571Y-44150057D01*
X179297618Y-45054819D02*
X179202380Y-45007200D01*
X179202380Y-45007200D02*
X179154761Y-44911961D01*
X179154761Y-44911961D02*
X179154761Y-44054819D01*
X179630952Y-45007200D02*
X179726190Y-45054819D01*
X179726190Y-45054819D02*
X179916666Y-45054819D01*
X179916666Y-45054819D02*
X180011904Y-45007200D01*
X180011904Y-45007200D02*
X180059523Y-44911961D01*
X180059523Y-44911961D02*
X180059523Y-44864342D01*
X180059523Y-44864342D02*
X180011904Y-44769104D01*
X180011904Y-44769104D02*
X179916666Y-44721485D01*
X179916666Y-44721485D02*
X179773809Y-44721485D01*
X179773809Y-44721485D02*
X179678571Y-44673866D01*
X179678571Y-44673866D02*
X179630952Y-44578628D01*
X179630952Y-44578628D02*
X179630952Y-44531009D01*
X179630952Y-44531009D02*
X179678571Y-44435771D01*
X179678571Y-44435771D02*
X179773809Y-44388152D01*
X179773809Y-44388152D02*
X179916666Y-44388152D01*
X179916666Y-44388152D02*
X180011904Y-44435771D01*
D13*
X105000000Y-54500000D02*
X105000000Y-45163580D01*
X243500000Y-54500000D02*
X243500000Y-45163580D01*
X105000000Y-45750000D02*
X243500000Y-45750000D01*
X105000000Y-45750000D02*
X243500000Y-45750000D01*
X105000000Y-45750000D02*
X106126504Y-45163579D01*
X105000000Y-45750000D02*
X106126504Y-46336421D01*
X243500000Y-45750000D02*
X242373496Y-46336421D01*
X243500000Y-45750000D02*
X242373496Y-45163579D01*
X105000000Y-45750000D02*
X243500000Y-45750000D01*
X105000000Y-45750000D02*
X243500000Y-45750000D01*
X105000000Y-45750000D02*
X106126504Y-45163579D01*
X105000000Y-45750000D02*
X106126504Y-46336421D01*
X243500000Y-45750000D02*
X242373496Y-46336421D01*
X243500000Y-45750000D02*
X242373496Y-45163579D01*
D12*
X168964285Y-38804819D02*
X168488095Y-38804819D01*
X168488095Y-38804819D02*
X168440476Y-39281009D01*
X168440476Y-39281009D02*
X168488095Y-39233390D01*
X168488095Y-39233390D02*
X168583333Y-39185771D01*
X168583333Y-39185771D02*
X168821428Y-39185771D01*
X168821428Y-39185771D02*
X168916666Y-39233390D01*
X168916666Y-39233390D02*
X168964285Y-39281009D01*
X168964285Y-39281009D02*
X169011904Y-39376247D01*
X169011904Y-39376247D02*
X169011904Y-39614342D01*
X169011904Y-39614342D02*
X168964285Y-39709580D01*
X168964285Y-39709580D02*
X168916666Y-39757200D01*
X168916666Y-39757200D02*
X168821428Y-39804819D01*
X168821428Y-39804819D02*
X168583333Y-39804819D01*
X168583333Y-39804819D02*
X168488095Y-39757200D01*
X168488095Y-39757200D02*
X168440476Y-39709580D01*
X169583333Y-39233390D02*
X169488095Y-39185771D01*
X169488095Y-39185771D02*
X169440476Y-39138152D01*
X169440476Y-39138152D02*
X169392857Y-39042914D01*
X169392857Y-39042914D02*
X169392857Y-38995295D01*
X169392857Y-38995295D02*
X169440476Y-38900057D01*
X169440476Y-38900057D02*
X169488095Y-38852438D01*
X169488095Y-38852438D02*
X169583333Y-38804819D01*
X169583333Y-38804819D02*
X169773809Y-38804819D01*
X169773809Y-38804819D02*
X169869047Y-38852438D01*
X169869047Y-38852438D02*
X169916666Y-38900057D01*
X169916666Y-38900057D02*
X169964285Y-38995295D01*
X169964285Y-38995295D02*
X169964285Y-39042914D01*
X169964285Y-39042914D02*
X169916666Y-39138152D01*
X169916666Y-39138152D02*
X169869047Y-39185771D01*
X169869047Y-39185771D02*
X169773809Y-39233390D01*
X169773809Y-39233390D02*
X169583333Y-39233390D01*
X169583333Y-39233390D02*
X169488095Y-39281009D01*
X169488095Y-39281009D02*
X169440476Y-39328628D01*
X169440476Y-39328628D02*
X169392857Y-39423866D01*
X169392857Y-39423866D02*
X169392857Y-39614342D01*
X169392857Y-39614342D02*
X169440476Y-39709580D01*
X169440476Y-39709580D02*
X169488095Y-39757200D01*
X169488095Y-39757200D02*
X169583333Y-39804819D01*
X169583333Y-39804819D02*
X169773809Y-39804819D01*
X169773809Y-39804819D02*
X169869047Y-39757200D01*
X169869047Y-39757200D02*
X169916666Y-39709580D01*
X169916666Y-39709580D02*
X169964285Y-39614342D01*
X169964285Y-39614342D02*
X169964285Y-39423866D01*
X169964285Y-39423866D02*
X169916666Y-39328628D01*
X169916666Y-39328628D02*
X169869047Y-39281009D01*
X169869047Y-39281009D02*
X169773809Y-39233390D01*
X170821428Y-39138152D02*
X170821428Y-39804819D01*
X170583333Y-38757200D02*
X170345238Y-39471485D01*
X170345238Y-39471485D02*
X170964285Y-39471485D01*
X171773809Y-38804819D02*
X171583333Y-38804819D01*
X171583333Y-38804819D02*
X171488095Y-38852438D01*
X171488095Y-38852438D02*
X171440476Y-38900057D01*
X171440476Y-38900057D02*
X171345238Y-39042914D01*
X171345238Y-39042914D02*
X171297619Y-39233390D01*
X171297619Y-39233390D02*
X171297619Y-39614342D01*
X171297619Y-39614342D02*
X171345238Y-39709580D01*
X171345238Y-39709580D02*
X171392857Y-39757200D01*
X171392857Y-39757200D02*
X171488095Y-39804819D01*
X171488095Y-39804819D02*
X171678571Y-39804819D01*
X171678571Y-39804819D02*
X171773809Y-39757200D01*
X171773809Y-39757200D02*
X171821428Y-39709580D01*
X171821428Y-39709580D02*
X171869047Y-39614342D01*
X171869047Y-39614342D02*
X171869047Y-39376247D01*
X171869047Y-39376247D02*
X171821428Y-39281009D01*
X171821428Y-39281009D02*
X171773809Y-39233390D01*
X171773809Y-39233390D02*
X171678571Y-39185771D01*
X171678571Y-39185771D02*
X171488095Y-39185771D01*
X171488095Y-39185771D02*
X171392857Y-39233390D01*
X171392857Y-39233390D02*
X171345238Y-39281009D01*
X171345238Y-39281009D02*
X171297619Y-39376247D01*
X172297619Y-39709580D02*
X172345238Y-39757200D01*
X172345238Y-39757200D02*
X172297619Y-39804819D01*
X172297619Y-39804819D02*
X172250000Y-39757200D01*
X172250000Y-39757200D02*
X172297619Y-39709580D01*
X172297619Y-39709580D02*
X172297619Y-39804819D01*
X173202380Y-39138152D02*
X173202380Y-39804819D01*
X172964285Y-38757200D02*
X172726190Y-39471485D01*
X172726190Y-39471485D02*
X173345237Y-39471485D01*
X174202380Y-38804819D02*
X173726190Y-38804819D01*
X173726190Y-38804819D02*
X173678571Y-39281009D01*
X173678571Y-39281009D02*
X173726190Y-39233390D01*
X173726190Y-39233390D02*
X173821428Y-39185771D01*
X173821428Y-39185771D02*
X174059523Y-39185771D01*
X174059523Y-39185771D02*
X174154761Y-39233390D01*
X174154761Y-39233390D02*
X174202380Y-39281009D01*
X174202380Y-39281009D02*
X174249999Y-39376247D01*
X174249999Y-39376247D02*
X174249999Y-39614342D01*
X174249999Y-39614342D02*
X174202380Y-39709580D01*
X174202380Y-39709580D02*
X174154761Y-39757200D01*
X174154761Y-39757200D02*
X174059523Y-39804819D01*
X174059523Y-39804819D02*
X173821428Y-39804819D01*
X173821428Y-39804819D02*
X173726190Y-39757200D01*
X173726190Y-39757200D02*
X173678571Y-39709580D01*
X175107142Y-38804819D02*
X174916666Y-38804819D01*
X174916666Y-38804819D02*
X174821428Y-38852438D01*
X174821428Y-38852438D02*
X174773809Y-38900057D01*
X174773809Y-38900057D02*
X174678571Y-39042914D01*
X174678571Y-39042914D02*
X174630952Y-39233390D01*
X174630952Y-39233390D02*
X174630952Y-39614342D01*
X174630952Y-39614342D02*
X174678571Y-39709580D01*
X174678571Y-39709580D02*
X174726190Y-39757200D01*
X174726190Y-39757200D02*
X174821428Y-39804819D01*
X174821428Y-39804819D02*
X175011904Y-39804819D01*
X175011904Y-39804819D02*
X175107142Y-39757200D01*
X175107142Y-39757200D02*
X175154761Y-39709580D01*
X175154761Y-39709580D02*
X175202380Y-39614342D01*
X175202380Y-39614342D02*
X175202380Y-39376247D01*
X175202380Y-39376247D02*
X175154761Y-39281009D01*
X175154761Y-39281009D02*
X175107142Y-39233390D01*
X175107142Y-39233390D02*
X175011904Y-39185771D01*
X175011904Y-39185771D02*
X174821428Y-39185771D01*
X174821428Y-39185771D02*
X174726190Y-39233390D01*
X174726190Y-39233390D02*
X174678571Y-39281009D01*
X174678571Y-39281009D02*
X174630952Y-39376247D01*
X175535714Y-38804819D02*
X176202380Y-38804819D01*
X176202380Y-38804819D02*
X175773809Y-39804819D01*
X177345238Y-39804819D02*
X177345238Y-39138152D01*
X177345238Y-39233390D02*
X177392857Y-39185771D01*
X177392857Y-39185771D02*
X177488095Y-39138152D01*
X177488095Y-39138152D02*
X177630952Y-39138152D01*
X177630952Y-39138152D02*
X177726190Y-39185771D01*
X177726190Y-39185771D02*
X177773809Y-39281009D01*
X177773809Y-39281009D02*
X177773809Y-39804819D01*
X177773809Y-39281009D02*
X177821428Y-39185771D01*
X177821428Y-39185771D02*
X177916666Y-39138152D01*
X177916666Y-39138152D02*
X178059523Y-39138152D01*
X178059523Y-39138152D02*
X178154762Y-39185771D01*
X178154762Y-39185771D02*
X178202381Y-39281009D01*
X178202381Y-39281009D02*
X178202381Y-39804819D01*
X178678571Y-39804819D02*
X178678571Y-39138152D01*
X178678571Y-38804819D02*
X178630952Y-38852438D01*
X178630952Y-38852438D02*
X178678571Y-38900057D01*
X178678571Y-38900057D02*
X178726190Y-38852438D01*
X178726190Y-38852438D02*
X178678571Y-38804819D01*
X178678571Y-38804819D02*
X178678571Y-38900057D01*
X179297618Y-39804819D02*
X179202380Y-39757200D01*
X179202380Y-39757200D02*
X179154761Y-39661961D01*
X179154761Y-39661961D02*
X179154761Y-38804819D01*
X179630952Y-39757200D02*
X179726190Y-39804819D01*
X179726190Y-39804819D02*
X179916666Y-39804819D01*
X179916666Y-39804819D02*
X180011904Y-39757200D01*
X180011904Y-39757200D02*
X180059523Y-39661961D01*
X180059523Y-39661961D02*
X180059523Y-39614342D01*
X180059523Y-39614342D02*
X180011904Y-39519104D01*
X180011904Y-39519104D02*
X179916666Y-39471485D01*
X179916666Y-39471485D02*
X179773809Y-39471485D01*
X179773809Y-39471485D02*
X179678571Y-39423866D01*
X179678571Y-39423866D02*
X179630952Y-39328628D01*
X179630952Y-39328628D02*
X179630952Y-39281009D01*
X179630952Y-39281009D02*
X179678571Y-39185771D01*
X179678571Y-39185771D02*
X179773809Y-39138152D01*
X179773809Y-39138152D02*
X179916666Y-39138152D01*
X179916666Y-39138152D02*
X180011904Y-39185771D01*
D13*
X100000000Y-54500000D02*
X100000000Y-39913580D01*
X248500000Y-54500000D02*
X248500000Y-39913580D01*
X100000000Y-40500000D02*
X248500000Y-40500000D01*
X100000000Y-40500000D02*
X248500000Y-40500000D01*
X100000000Y-40500000D02*
X101126504Y-39913579D01*
X100000000Y-40500000D02*
X101126504Y-41086421D01*
X248500000Y-40500000D02*
X247373496Y-41086421D01*
X248500000Y-40500000D02*
X247373496Y-39913579D01*
X100000000Y-40500000D02*
X248500000Y-40500000D01*
X100000000Y-40500000D02*
X248500000Y-40500000D01*
X100000000Y-40500000D02*
X101126504Y-39913579D01*
X100000000Y-40500000D02*
X101126504Y-41086421D01*
X248500000Y-40500000D02*
X247373496Y-41086421D01*
X248500000Y-40500000D02*
X247373496Y-39913579D01*
D12*
%TO.C,H3*%
X108200000Y-150000000D02*
G75*
G02*
X101800000Y-150000000I-3200000J0D01*
G01*
X101800000Y-150000000D02*
G75*
G02*
X108200000Y-150000000I3200000J0D01*
G01*
%TO.C,H1*%
X108200000Y-55000000D02*
G75*
G02*
X101800000Y-55000000I-3200000J0D01*
G01*
X101800000Y-55000000D02*
G75*
G02*
X108200000Y-55000000I3200000J0D01*
G01*
%TO.C,H4*%
X246700000Y-150000000D02*
G75*
G02*
X240300000Y-150000000I-3200000J0D01*
G01*
X240300000Y-150000000D02*
G75*
G02*
X246700000Y-150000000I3200000J0D01*
G01*
%TO.C,H2*%
X246700000Y-55000000D02*
G75*
G02*
X240300000Y-55000000I-3200000J0D01*
G01*
X240300000Y-55000000D02*
G75*
G02*
X246700000Y-55000000I3200000J0D01*
G01*
%TD*%
M02*
