M48
; DRILL file {KiCad 9.0.0} date 2025-02-25T12:08:00+0100
; FORMAT={-:-/ absolute / inch / decimal}
; #@! TF.CreationDate,2025-02-25T12:08:00+01:00
; #@! TF.GenerationSoftware,Kicad,Pcbnew,9.0.0
; #@! TF.FileFunction,Plated,1,2,PTH
FMAT,2
INCH
; #@! TA.AperFunction,Plated,PTH,ComponentDrill
T1C0.0197
; #@! TA.AperFunction,Plated,PTH,ComponentDrill
T2C0.0394
; #@! TA.AperFunction,Plated,PTH,ComponentDrill
T3C0.1260
%
G90
G05
T1
X4.0394Y-2.1654
X4.0394Y-5.9055
X4.067Y-2.0985
X4.067Y-2.2322
X4.067Y-5.8387
X4.067Y-5.9723
X4.1339Y-2.0709
X4.1339Y-2.2598
X4.1339Y-5.811
X4.1339Y-6.0
X4.2007Y-2.0985
X4.2007Y-2.2322
X4.2007Y-5.8387
X4.2007Y-5.9723
X4.2283Y-2.1654
X4.2283Y-5.9055
X9.4921Y-2.1654
X9.4921Y-5.9055
X9.5198Y-2.0985
X9.5198Y-2.2322
X9.5198Y-5.8387
X9.5198Y-5.9723
X9.5866Y-2.0709
X9.5866Y-2.2598
X9.5866Y-5.811
X9.5866Y-6.0
X9.6534Y-2.0985
X9.6534Y-2.2322
X9.6534Y-5.8387
X9.6534Y-5.9723
X9.6811Y-2.1654
X9.6811Y-5.9055
T2
X4.0598Y-4.6473
X4.0598Y-4.7473
X4.0598Y-4.8473
X4.0598Y-4.9473
X4.0602Y-3.1492
X4.0602Y-3.2492
X4.0602Y-3.4492
X4.0602Y-3.5492
X4.0602Y-3.6492
X4.0602Y-3.7492
X4.0602Y-3.8492
X4.0602Y-3.9492
X4.0602Y-4.0492
X4.0602Y-4.1492
X4.0602Y-4.2492
X4.0602Y-4.5492
X4.0602Y-5.0492
X4.0602Y-5.1492
X4.0602Y-5.2492
X4.0602Y-5.3492
X4.0602Y-5.5492
X4.0602Y-5.6492
X4.1598Y-4.6473
X4.1598Y-4.7473
X4.1598Y-4.8473
X4.1598Y-4.9473
X4.1602Y-3.1492
X4.1602Y-3.2492
X4.1602Y-3.4492
X4.1602Y-3.5492
X4.1602Y-3.6492
X4.1602Y-3.7492
X4.1602Y-3.8492
X4.1602Y-3.9492
X4.1602Y-4.0492
X4.1602Y-4.1492
X4.1602Y-4.2492
X4.1602Y-4.5492
X4.1602Y-5.0492
X4.1602Y-5.1492
X4.1602Y-5.2492
X4.1602Y-5.3492
X4.1602Y-5.5492
X4.1602Y-5.6492
X4.2598Y-4.6473
X4.2598Y-4.7473
X4.2598Y-4.8473
X4.2598Y-4.9473
X4.2602Y-3.1492
X4.2602Y-3.2492
X4.2602Y-3.4492
X4.2602Y-3.5492
X4.2602Y-3.6492
X4.2602Y-3.7492
X4.2602Y-3.8492
X4.2602Y-3.9492
X4.2602Y-4.0492
X4.2602Y-4.1492
X4.2602Y-4.2492
X4.2602Y-4.5492
X4.2602Y-5.0492
X4.2602Y-5.1492
X4.2602Y-5.2492
X4.2602Y-5.3492
X4.2602Y-5.5492
X4.2602Y-5.6492
X4.3598Y-4.6473
X4.3598Y-4.7473
X4.3598Y-4.8473
X4.3598Y-4.9473
X4.3602Y-3.1492
X4.3602Y-3.2492
X4.3602Y-3.4492
X4.3602Y-3.5492
X4.3602Y-3.6492
X4.3602Y-3.7492
X4.3602Y-3.8492
X4.3602Y-3.9492
X4.3602Y-4.0492
X4.3602Y-4.1492
X4.3602Y-4.2492
X4.3602Y-4.5492
X4.3602Y-5.0492
X4.3602Y-5.1492
X4.3602Y-5.2492
X4.3602Y-5.3492
X4.3602Y-5.5492
X4.3602Y-5.6492
X4.4598Y-4.6473
X4.4598Y-4.7473
X4.4598Y-4.8473
X4.4598Y-4.9473
X4.4602Y-3.1492
X4.4602Y-3.2492
X4.4602Y-3.4492
X4.4602Y-3.5492
X4.4602Y-3.6492
X4.4602Y-3.7492
X4.4602Y-3.8492
X4.4602Y-3.9492
X4.4602Y-4.0492
X4.4602Y-4.1492
X4.4602Y-4.2492
X4.4602Y-4.5492
X4.4602Y-5.0492
X4.4602Y-5.1492
X4.4602Y-5.2492
X4.4602Y-5.3492
X4.4602Y-5.5492
X4.4602Y-5.6492
X4.5598Y-4.6473
X4.5598Y-4.7473
X4.5598Y-4.8473
X4.5598Y-4.9473
X4.5602Y-3.1492
X4.5602Y-3.2492
X4.5602Y-3.4492
X4.5602Y-3.5492
X4.5602Y-3.6492
X4.5602Y-3.7492
X4.5602Y-3.8492
X4.5602Y-3.9492
X4.5602Y-4.0492
X4.5602Y-4.1492
X4.5602Y-4.2492
X4.5602Y-4.5492
X4.5602Y-5.0492
X4.5602Y-5.1492
X4.5602Y-5.2492
X4.5602Y-5.3492
X4.5602Y-5.5492
X4.5602Y-5.6492
X4.6598Y-4.6473
X4.6598Y-4.7473
X4.6598Y-4.8473
X4.6598Y-4.9473
X4.6602Y-3.1492
X4.6602Y-3.2492
X4.6602Y-3.4492
X4.6602Y-3.5492
X4.6602Y-3.6492
X4.6602Y-3.7492
X4.6602Y-3.8492
X4.6602Y-3.9492
X4.6602Y-4.0492
X4.6602Y-4.1492
X4.6602Y-4.2492
X4.6602Y-4.5492
X4.6602Y-5.0492
X4.6602Y-5.1492
X4.6602Y-5.2492
X4.6602Y-5.3492
X4.6602Y-5.5492
X4.6602Y-5.6492
X4.7598Y-4.6473
X4.7598Y-4.7473
X4.7598Y-4.8473
X4.7598Y-4.9473
X4.7602Y-3.1492
X4.7602Y-3.2492
X4.7602Y-3.4492
X4.7602Y-3.5492
X4.7602Y-3.6492
X4.7602Y-3.7492
X4.7602Y-3.8492
X4.7602Y-3.9492
X4.7602Y-4.0492
X4.7602Y-4.1492
X4.7602Y-4.2492
X4.7602Y-4.5492
X4.7602Y-5.0492
X4.7602Y-5.1492
X4.7602Y-5.2492
X4.7602Y-5.3492
X4.7602Y-5.5492
X4.7602Y-5.6492
X4.8598Y-4.6473
X4.8598Y-4.7473
X4.8598Y-4.8473
X4.8598Y-4.9473
X4.8602Y-3.1492
X4.8602Y-3.2492
X4.8602Y-3.4492
X4.8602Y-3.5492
X4.8602Y-3.6492
X4.8602Y-3.7492
X4.8602Y-3.8492
X4.8602Y-3.9492
X4.8602Y-4.0492
X4.8602Y-4.1492
X4.8602Y-4.2492
X4.8602Y-4.5492
X4.8602Y-5.0492
X4.8602Y-5.1492
X4.8602Y-5.2492
X4.8602Y-5.3492
X4.8602Y-5.5492
X4.8602Y-5.6492
X4.9598Y-4.6473
X4.9598Y-4.7473
X4.9598Y-4.8473
X4.9598Y-4.9473
X4.9602Y-3.1492
X4.9602Y-3.2492
X4.9602Y-3.4492
X4.9602Y-3.5492
X4.9602Y-3.6492
X4.9602Y-3.7492
X4.9602Y-3.8492
X4.9602Y-3.9492
X4.9602Y-4.0492
X4.9602Y-4.1492
X4.9602Y-4.2492
X4.9602Y-4.5492
X4.9602Y-5.0492
X4.9602Y-5.1492
X4.9602Y-5.2492
X4.9602Y-5.3492
X4.9602Y-5.5492
X4.9602Y-5.6492
X5.0598Y-4.6473
X5.0598Y-4.7473
X5.0598Y-4.8473
X5.0598Y-4.9473
X5.0602Y-3.1492
X5.0602Y-3.2492
X5.0602Y-3.4492
X5.0602Y-3.5492
X5.0602Y-3.6492
X5.0602Y-3.7492
X5.0602Y-3.8492
X5.0602Y-3.9492
X5.0602Y-4.0492
X5.0602Y-4.1492
X5.0602Y-4.2492
X5.0602Y-4.5492
X5.0602Y-5.0492
X5.0602Y-5.1492
X5.0602Y-5.2492
X5.0602Y-5.3492
X5.0602Y-5.5492
X5.0602Y-5.6492
X5.1598Y-4.6473
X5.1598Y-4.7473
X5.1598Y-4.8473
X5.1598Y-4.9473
X5.1602Y-3.1492
X5.1602Y-3.2492
X5.1602Y-3.4492
X5.1602Y-3.5492
X5.1602Y-3.6492
X5.1602Y-3.7492
X5.1602Y-3.8492
X5.1602Y-3.9492
X5.1602Y-4.0492
X5.1602Y-4.1492
X5.1602Y-4.2492
X5.1602Y-4.5492
X5.1602Y-5.0492
X5.1602Y-5.1492
X5.1602Y-5.2492
X5.1602Y-5.3492
X5.1602Y-5.5492
X5.1602Y-5.6492
X5.2598Y-4.6473
X5.2598Y-4.7473
X5.2598Y-4.8473
X5.2598Y-4.9473
X5.2602Y-3.1492
X5.2602Y-3.2492
X5.2602Y-3.4492
X5.2602Y-3.5492
X5.2602Y-3.6492
X5.2602Y-3.7492
X5.2602Y-3.8492
X5.2602Y-3.9492
X5.2602Y-4.0492
X5.2602Y-4.1492
X5.2602Y-4.2492
X5.2602Y-4.5492
X5.2602Y-5.0492
X5.2602Y-5.1492
X5.2602Y-5.2492
X5.2602Y-5.3492
X5.2602Y-5.5492
X5.2602Y-5.6492
X5.3598Y-4.6473
X5.3598Y-4.7473
X5.3598Y-4.8473
X5.3598Y-4.9473
X5.3602Y-3.1492
X5.3602Y-3.2492
X5.3602Y-3.4492
X5.3602Y-3.5492
X5.3602Y-3.6492
X5.3602Y-3.7492
X5.3602Y-3.8492
X5.3602Y-3.9492
X5.3602Y-4.0492
X5.3602Y-4.1492
X5.3602Y-4.2492
X5.3602Y-4.5492
X5.3602Y-5.0492
X5.3602Y-5.1492
X5.3602Y-5.2492
X5.3602Y-5.3492
X5.3602Y-5.5492
X5.3602Y-5.6492
X5.4598Y-4.6473
X5.4598Y-4.7473
X5.4598Y-4.8473
X5.4598Y-4.9473
X5.4602Y-3.1492
X5.4602Y-3.2492
X5.4602Y-3.4492
X5.4602Y-3.5492
X5.4602Y-3.6492
X5.4602Y-3.7492
X5.4602Y-3.8492
X5.4602Y-3.9492
X5.4602Y-4.0492
X5.4602Y-4.1492
X5.4602Y-4.2492
X5.4602Y-4.5492
X5.4602Y-5.0492
X5.4602Y-5.1492
X5.4602Y-5.2492
X5.4602Y-5.3492
X5.4602Y-5.5492
X5.4602Y-5.6492
X5.5598Y-4.6473
X5.5598Y-4.7473
X5.5598Y-4.8473
X5.5598Y-4.9473
X5.5602Y-2.9492
X5.5602Y-3.1492
X5.5602Y-3.2492
X5.5602Y-3.4492
X5.5602Y-3.5492
X5.5602Y-3.6492
X5.5602Y-3.7492
X5.5602Y-3.8492
X5.5602Y-3.9492
X5.5602Y-4.0492
X5.5602Y-4.1492
X5.5602Y-4.2492
X5.5602Y-4.5492
X5.5602Y-5.0492
X5.5602Y-5.1492
X5.5602Y-5.2492
X5.5602Y-5.3492
X5.5602Y-5.5492
X5.5602Y-5.6492
X5.6598Y-4.6473
X5.6598Y-4.7473
X5.6598Y-4.8473
X5.6598Y-4.9473
X5.6602Y-2.9492
X5.6602Y-3.1492
X5.6602Y-3.2492
X5.6602Y-3.4492
X5.6602Y-3.5492
X5.6602Y-3.6492
X5.6602Y-3.7492
X5.6602Y-3.8492
X5.6602Y-3.9492
X5.6602Y-4.0492
X5.6602Y-4.1492
X5.6602Y-4.2492
X5.6602Y-4.5492
X5.6602Y-5.0492
X5.6602Y-5.1492
X5.6602Y-5.2492
X5.6602Y-5.3492
X5.6602Y-5.5492
X5.6602Y-5.6492
X5.7598Y-4.6473
X5.7598Y-4.7473
X5.7598Y-4.8473
X5.7598Y-4.9473
X5.7602Y-2.9492
X5.7602Y-3.1492
X5.7602Y-3.2492
X5.7602Y-3.4492
X5.7602Y-3.5492
X5.7602Y-3.6492
X5.7602Y-3.7492
X5.7602Y-3.8492
X5.7602Y-3.9492
X5.7602Y-4.0492
X5.7602Y-4.1492
X5.7602Y-4.2492
X5.7602Y-4.5492
X5.7602Y-5.0492
X5.7602Y-5.1492
X5.7602Y-5.2492
X5.7602Y-5.3492
X5.7602Y-5.5492
X5.7602Y-5.6492
X5.8598Y-4.6473
X5.8598Y-4.7473
X5.8598Y-4.8473
X5.8598Y-4.9473
X5.8602Y-2.9492
X5.8602Y-3.1492
X5.8602Y-3.2492
X5.8602Y-3.4492
X5.8602Y-3.5492
X5.8602Y-3.6492
X5.8602Y-3.7492
X5.8602Y-3.8492
X5.8602Y-3.9492
X5.8602Y-4.0492
X5.8602Y-4.1492
X5.8602Y-4.2492
X5.8602Y-4.5492
X5.8602Y-5.0492
X5.8602Y-5.1492
X5.8602Y-5.2492
X5.8602Y-5.3492
X5.8602Y-5.5492
X5.8602Y-5.6492
X5.9598Y-4.6473
X5.9598Y-4.7473
X5.9598Y-4.8473
X5.9598Y-4.9473
X5.9602Y-2.9492
X5.9602Y-3.1492
X5.9602Y-3.2492
X5.9602Y-3.4492
X5.9602Y-3.5492
X5.9602Y-3.6492
X5.9602Y-3.7492
X5.9602Y-3.8492
X5.9602Y-3.9492
X5.9602Y-4.0492
X5.9602Y-4.1492
X5.9602Y-4.2492
X5.9602Y-4.5492
X5.9602Y-5.0492
X5.9602Y-5.1492
X5.9602Y-5.2492
X5.9602Y-5.3492
X5.9602Y-5.5492
X5.9602Y-5.6492
X6.0598Y-4.6473
X6.0598Y-4.7473
X6.0598Y-4.8473
X6.0598Y-4.9473
X6.0602Y-2.3917
X6.0602Y-2.4917
X6.0602Y-2.9492
X6.0602Y-3.1492
X6.0602Y-3.2492
X6.0602Y-3.4492
X6.0602Y-3.5492
X6.0602Y-3.6492
X6.0602Y-3.7492
X6.0602Y-3.8492
X6.0602Y-3.9492
X6.0602Y-4.0492
X6.0602Y-4.1492
X6.0602Y-4.2492
X6.0602Y-4.5492
X6.0602Y-5.0492
X6.0602Y-5.1492
X6.0602Y-5.2492
X6.0602Y-5.3492
X6.0602Y-5.5492
X6.0602Y-5.6492
X6.1598Y-4.6473
X6.1598Y-4.7473
X6.1598Y-4.8473
X6.1598Y-4.9473
X6.1602Y-2.3917
X6.1602Y-2.4917
X6.1602Y-2.9492
X6.1602Y-3.1492
X6.1602Y-3.2492
X6.1602Y-3.4492
X6.1602Y-3.5492
X6.1602Y-3.6492
X6.1602Y-3.7492
X6.1602Y-3.8492
X6.1602Y-3.9492
X6.1602Y-4.0492
X6.1602Y-4.1492
X6.1602Y-4.2492
X6.1602Y-4.5492
X6.1602Y-5.0492
X6.1602Y-5.1492
X6.1602Y-5.2492
X6.1602Y-5.3492
X6.1602Y-5.5492
X6.1602Y-5.6492
X6.2598Y-4.6473
X6.2598Y-4.7473
X6.2598Y-4.8473
X6.2598Y-4.9473
X6.2602Y-2.3917
X6.2602Y-2.4917
X6.2602Y-2.9492
X6.2602Y-3.1492
X6.2602Y-3.2492
X6.2602Y-3.4492
X6.2602Y-3.5492
X6.2602Y-3.6492
X6.2602Y-3.7492
X6.2602Y-3.8492
X6.2602Y-3.9492
X6.2602Y-4.0492
X6.2602Y-4.1492
X6.2602Y-4.2492
X6.2602Y-4.5492
X6.2602Y-5.0492
X6.2602Y-5.1492
X6.2602Y-5.2492
X6.2602Y-5.3492
X6.2602Y-5.5492
X6.2602Y-5.6492
X6.3598Y-4.6473
X6.3598Y-4.7473
X6.3598Y-4.8473
X6.3598Y-4.9473
X6.3602Y-2.3917
X6.3602Y-2.4917
X6.3602Y-2.9492
X6.3602Y-3.1492
X6.3602Y-3.2492
X6.3602Y-3.4492
X6.3602Y-3.5492
X6.3602Y-3.6492
X6.3602Y-3.7492
X6.3602Y-3.8492
X6.3602Y-3.9492
X6.3602Y-4.0492
X6.3602Y-4.1492
X6.3602Y-4.2492
X6.3602Y-4.5492
X6.3602Y-5.0492
X6.3602Y-5.1492
X6.3602Y-5.2492
X6.3602Y-5.3492
X6.3602Y-5.5492
X6.3602Y-5.6492
X6.4598Y-4.6473
X6.4598Y-4.7473
X6.4598Y-4.8473
X6.4598Y-4.9473
X6.4602Y-2.3917
X6.4602Y-2.4917
X6.4602Y-2.9492
X6.4602Y-3.1492
X6.4602Y-3.2492
X6.4602Y-3.4492
X6.4602Y-3.5492
X6.4602Y-3.6492
X6.4602Y-3.7492
X6.4602Y-3.8492
X6.4602Y-3.9492
X6.4602Y-4.0492
X6.4602Y-4.1492
X6.4602Y-4.2492
X6.4602Y-4.5492
X6.4602Y-5.0492
X6.4602Y-5.1492
X6.4602Y-5.2492
X6.4602Y-5.3492
X6.4602Y-5.5492
X6.4602Y-5.6492
X6.5598Y-4.6473
X6.5598Y-4.7473
X6.5598Y-4.8473
X6.5598Y-4.9473
X6.5602Y-2.3917
X6.5602Y-2.4917
X6.5602Y-2.9492
X6.5602Y-3.1492
X6.5602Y-3.2492
X6.5602Y-3.4492
X6.5602Y-3.5492
X6.5602Y-3.6492
X6.5602Y-3.7492
X6.5602Y-3.8492
X6.5602Y-3.9492
X6.5602Y-4.0492
X6.5602Y-4.1492
X6.5602Y-4.2492
X6.5602Y-4.5492
X6.5602Y-5.0492
X6.5602Y-5.1492
X6.5602Y-5.2492
X6.5602Y-5.3492
X6.5602Y-5.5492
X6.5602Y-5.6492
X6.6598Y-4.6473
X6.6598Y-4.7473
X6.6598Y-4.8473
X6.6598Y-4.9473
X6.6602Y-2.3917
X6.6602Y-2.4917
X6.6602Y-2.9492
X6.6602Y-3.1492
X6.6602Y-3.2492
X6.6602Y-3.4492
X6.6602Y-3.5492
X6.6602Y-3.6492
X6.6602Y-3.7492
X6.6602Y-3.8492
X6.6602Y-3.9492
X6.6602Y-4.0492
X6.6602Y-4.1492
X6.6602Y-4.2492
X6.6602Y-4.5492
X6.6602Y-5.0492
X6.6602Y-5.1492
X6.6602Y-5.2492
X6.6602Y-5.3492
X6.6602Y-5.5492
X6.6602Y-5.6492
X6.7598Y-4.6473
X6.7598Y-4.7473
X6.7598Y-4.8473
X6.7598Y-4.9473
X6.7602Y-2.3917
X6.7602Y-2.4917
X6.7602Y-2.9492
X6.7602Y-3.1492
X6.7602Y-3.2492
X6.7602Y-3.4492
X6.7602Y-3.5492
X6.7602Y-3.6492
X6.7602Y-3.7492
X6.7602Y-3.8492
X6.7602Y-3.9492
X6.7602Y-4.0492
X6.7602Y-4.1492
X6.7602Y-4.2492
X6.7602Y-4.5492
X6.7602Y-5.0492
X6.7602Y-5.1492
X6.7602Y-5.2492
X6.7602Y-5.3492
X6.7602Y-5.5492
X6.7602Y-5.6492
X6.8598Y-4.6473
X6.8598Y-4.7473
X6.8598Y-4.8473
X6.8598Y-4.9473
X6.8602Y-2.3917
X6.8602Y-2.4917
X6.8602Y-2.9492
X6.8602Y-3.1492
X6.8602Y-3.2492
X6.8602Y-3.4492
X6.8602Y-3.5492
X6.8602Y-3.6492
X6.8602Y-3.7492
X6.8602Y-3.8492
X6.8602Y-3.9492
X6.8602Y-4.0492
X6.8602Y-4.1492
X6.8602Y-4.2492
X6.8602Y-4.5492
X6.8602Y-5.0492
X6.8602Y-5.1492
X6.8602Y-5.2492
X6.8602Y-5.3492
X6.8602Y-5.5492
X6.8602Y-5.6492
X6.9598Y-4.6473
X6.9598Y-4.7473
X6.9598Y-4.8473
X6.9598Y-4.9473
X6.9602Y-2.3917
X6.9602Y-2.4917
X6.9602Y-2.9492
X6.9602Y-3.1492
X6.9602Y-3.2492
X6.9602Y-3.4492
X6.9602Y-3.5492
X6.9602Y-3.6492
X6.9602Y-3.7492
X6.9602Y-3.8492
X6.9602Y-3.9492
X6.9602Y-4.0492
X6.9602Y-4.1492
X6.9602Y-4.2492
X6.9602Y-4.5492
X6.9602Y-5.0492
X6.9602Y-5.1492
X6.9602Y-5.2492
X6.9602Y-5.3492
X6.9602Y-5.5492
X6.9602Y-5.6492
X7.0598Y-4.6473
X7.0598Y-4.7473
X7.0598Y-4.8473
X7.0598Y-4.9473
X7.0602Y-2.3917
X7.0602Y-2.4917
X7.0602Y-2.9492
X7.0602Y-3.1492
X7.0602Y-3.2492
X7.0602Y-3.4492
X7.0602Y-3.5492
X7.0602Y-3.6492
X7.0602Y-3.7492
X7.0602Y-3.8492
X7.0602Y-3.9492
X7.0602Y-4.0492
X7.0602Y-4.1492
X7.0602Y-4.2492
X7.0602Y-4.5492
X7.0602Y-5.0492
X7.0602Y-5.1492
X7.0602Y-5.2492
X7.0602Y-5.3492
X7.0602Y-5.5492
X7.0602Y-5.6492
X7.1598Y-4.6473
X7.1598Y-4.7473
X7.1598Y-4.8473
X7.1598Y-4.9473
X7.1602Y-2.3917
X7.1602Y-2.4917
X7.1602Y-2.9492
X7.1602Y-3.1492
X7.1602Y-3.2492
X7.1602Y-3.4492
X7.1602Y-3.5492
X7.1602Y-3.6492
X7.1602Y-3.7492
X7.1602Y-3.8492
X7.1602Y-3.9492
X7.1602Y-4.0492
X7.1602Y-4.1492
X7.1602Y-4.2492
X7.1602Y-4.5492
X7.1602Y-5.0492
X7.1602Y-5.1492
X7.1602Y-5.2492
X7.1602Y-5.3492
X7.1602Y-5.5492
X7.1602Y-5.6492
X7.2598Y-4.6473
X7.2598Y-4.7473
X7.2598Y-4.8473
X7.2598Y-4.9473
X7.2602Y-2.3917
X7.2602Y-2.4917
X7.2602Y-2.9492
X7.2602Y-3.1492
X7.2602Y-3.2492
X7.2602Y-3.4492
X7.2602Y-3.5492
X7.2602Y-3.6492
X7.2602Y-3.7492
X7.2602Y-3.8492
X7.2602Y-3.9492
X7.2602Y-4.0492
X7.2602Y-4.1492
X7.2602Y-4.2492
X7.2602Y-4.5492
X7.2602Y-5.0492
X7.2602Y-5.1492
X7.2602Y-5.2492
X7.2602Y-5.3492
X7.2602Y-5.5492
X7.2602Y-5.6492
X7.3598Y-4.6473
X7.3598Y-4.7473
X7.3598Y-4.8473
X7.3598Y-4.9473
X7.3602Y-2.3917
X7.3602Y-2.4917
X7.3602Y-2.9492
X7.3602Y-3.1492
X7.3602Y-3.2492
X7.3602Y-3.4492
X7.3602Y-3.5492
X7.3602Y-3.6492
X7.3602Y-3.7492
X7.3602Y-3.8492
X7.3602Y-3.9492
X7.3602Y-4.0492
X7.3602Y-4.1492
X7.3602Y-4.2492
X7.3602Y-4.5492
X7.3602Y-5.0492
X7.3602Y-5.1492
X7.3602Y-5.2492
X7.3602Y-5.3492
X7.3602Y-5.5492
X7.3602Y-5.6492
X7.4598Y-4.6473
X7.4598Y-4.7473
X7.4598Y-4.8473
X7.4598Y-4.9473
X7.4602Y-2.3917
X7.4602Y-2.4917
X7.4602Y-2.9492
X7.4602Y-3.1492
X7.4602Y-3.2492
X7.4602Y-3.4492
X7.4602Y-3.5492
X7.4602Y-3.6492
X7.4602Y-3.7492
X7.4602Y-3.8492
X7.4602Y-3.9492
X7.4602Y-4.0492
X7.4602Y-4.1492
X7.4602Y-4.2492
X7.4602Y-4.5492
X7.4602Y-5.0492
X7.4602Y-5.1492
X7.4602Y-5.2492
X7.4602Y-5.3492
X7.4602Y-5.5492
X7.4602Y-5.6492
X7.5598Y-4.6473
X7.5598Y-4.7473
X7.5598Y-4.8473
X7.5598Y-4.9473
X7.5602Y-2.3917
X7.5602Y-2.4917
X7.5602Y-2.9492
X7.5602Y-3.1492
X7.5602Y-3.2492
X7.5602Y-3.4492
X7.5602Y-3.5492
X7.5602Y-3.6492
X7.5602Y-3.7492
X7.5602Y-3.8492
X7.5602Y-3.9492
X7.5602Y-4.0492
X7.5602Y-4.1492
X7.5602Y-4.2492
X7.5602Y-4.5492
X7.5602Y-5.0492
X7.5602Y-5.1492
X7.5602Y-5.2492
X7.5602Y-5.3492
X7.5602Y-5.5492
X7.5602Y-5.6492
X7.6598Y-4.6473
X7.6598Y-4.7473
X7.6598Y-4.8473
X7.6598Y-4.9473
X7.6602Y-2.3917
X7.6602Y-2.4917
X7.6602Y-2.9492
X7.6602Y-3.1492
X7.6602Y-3.2492
X7.6602Y-3.4492
X7.6602Y-3.5492
X7.6602Y-3.6492
X7.6602Y-3.7492
X7.6602Y-3.8492
X7.6602Y-3.9492
X7.6602Y-4.0492
X7.6602Y-4.1492
X7.6602Y-4.2492
X7.6602Y-4.5492
X7.6602Y-5.0492
X7.6602Y-5.1492
X7.6602Y-5.2492
X7.6602Y-5.3492
X7.6602Y-5.5492
X7.6602Y-5.6492
X7.7598Y-4.6473
X7.7598Y-4.7473
X7.7598Y-4.8473
X7.7598Y-4.9473
X7.7602Y-2.9492
X7.7602Y-3.1492
X7.7602Y-3.2492
X7.7602Y-3.4492
X7.7602Y-3.5492
X7.7602Y-3.6492
X7.7602Y-3.7492
X7.7602Y-3.8492
X7.7602Y-3.9492
X7.7602Y-4.0492
X7.7602Y-4.1492
X7.7602Y-4.2492
X7.7602Y-4.5492
X7.7602Y-5.0492
X7.7602Y-5.1492
X7.7602Y-5.2492
X7.7602Y-5.3492
X7.7602Y-5.5492
X7.7602Y-5.6492
X7.8598Y-4.6473
X7.8598Y-4.7473
X7.8598Y-4.8473
X7.8598Y-4.9473
X7.8602Y-2.9492
X7.8602Y-3.1492
X7.8602Y-3.2492
X7.8602Y-3.4492
X7.8602Y-3.5492
X7.8602Y-3.6492
X7.8602Y-3.7492
X7.8602Y-3.8492
X7.8602Y-3.9492
X7.8602Y-4.0492
X7.8602Y-4.1492
X7.8602Y-4.2492
X7.8602Y-4.5492
X7.8602Y-5.0492
X7.8602Y-5.1492
X7.8602Y-5.2492
X7.8602Y-5.3492
X7.8602Y-5.5492
X7.8602Y-5.6492
X7.9598Y-4.6473
X7.9598Y-4.7473
X7.9598Y-4.8473
X7.9598Y-4.9473
X7.9602Y-2.9492
X7.9602Y-3.1492
X7.9602Y-3.2492
X7.9602Y-3.4492
X7.9602Y-3.5492
X7.9602Y-3.6492
X7.9602Y-3.7492
X7.9602Y-3.8492
X7.9602Y-3.9492
X7.9602Y-4.0492
X7.9602Y-4.1492
X7.9602Y-4.2492
X7.9602Y-4.5492
X7.9602Y-5.0492
X7.9602Y-5.1492
X7.9602Y-5.2492
X7.9602Y-5.3492
X7.9602Y-5.5492
X7.9602Y-5.6492
X8.0598Y-4.6473
X8.0598Y-4.7473
X8.0598Y-4.8473
X8.0598Y-4.9473
X8.0602Y-2.9492
X8.0602Y-3.1492
X8.0602Y-3.2492
X8.0602Y-3.4492
X8.0602Y-3.5492
X8.0602Y-3.6492
X8.0602Y-3.7492
X8.0602Y-3.8492
X8.0602Y-3.9492
X8.0602Y-4.0492
X8.0602Y-4.1492
X8.0602Y-4.2492
X8.0602Y-4.5492
X8.0602Y-5.0492
X8.0602Y-5.1492
X8.0602Y-5.2492
X8.0602Y-5.3492
X8.0602Y-5.5492
X8.0602Y-5.6492
X8.1598Y-4.6473
X8.1598Y-4.7473
X8.1598Y-4.8473
X8.1598Y-4.9473
X8.1602Y-2.9492
X8.1602Y-3.1492
X8.1602Y-3.2492
X8.1602Y-3.4492
X8.1602Y-3.5492
X8.1602Y-3.6492
X8.1602Y-3.7492
X8.1602Y-3.8492
X8.1602Y-3.9492
X8.1602Y-4.0492
X8.1602Y-4.1492
X8.1602Y-4.2492
X8.1602Y-4.5492
X8.1602Y-5.0492
X8.1602Y-5.1492
X8.1602Y-5.2492
X8.1602Y-5.3492
X8.1602Y-5.5492
X8.1602Y-5.6492
X8.2598Y-4.6473
X8.2598Y-4.7473
X8.2598Y-4.8473
X8.2598Y-4.9473
X8.2602Y-3.1492
X8.2602Y-3.2492
X8.2602Y-3.4492
X8.2602Y-3.5492
X8.2602Y-3.6492
X8.2602Y-3.7492
X8.2602Y-3.8492
X8.2602Y-3.9492
X8.2602Y-4.0492
X8.2602Y-4.1492
X8.2602Y-4.2492
X8.2602Y-4.5492
X8.2602Y-5.0492
X8.2602Y-5.1492
X8.2602Y-5.2492
X8.2602Y-5.3492
X8.2602Y-5.5492
X8.2602Y-5.6492
X8.3598Y-4.6473
X8.3598Y-4.7473
X8.3598Y-4.8473
X8.3598Y-4.9473
X8.3602Y-3.1492
X8.3602Y-3.2492
X8.3602Y-3.4492
X8.3602Y-3.5492
X8.3602Y-3.6492
X8.3602Y-3.7492
X8.3602Y-3.8492
X8.3602Y-3.9492
X8.3602Y-4.0492
X8.3602Y-4.1492
X8.3602Y-4.2492
X8.3602Y-4.5492
X8.3602Y-5.0492
X8.3602Y-5.1492
X8.3602Y-5.2492
X8.3602Y-5.3492
X8.3602Y-5.5492
X8.3602Y-5.6492
X8.4598Y-4.6473
X8.4598Y-4.7473
X8.4598Y-4.8473
X8.4598Y-4.9473
X8.4602Y-3.1492
X8.4602Y-3.2492
X8.4602Y-3.4492
X8.4602Y-3.5492
X8.4602Y-3.6492
X8.4602Y-3.7492
X8.4602Y-3.8492
X8.4602Y-3.9492
X8.4602Y-4.0492
X8.4602Y-4.1492
X8.4602Y-4.2492
X8.4602Y-4.5492
X8.4602Y-5.0492
X8.4602Y-5.1492
X8.4602Y-5.2492
X8.4602Y-5.3492
X8.4602Y-5.5492
X8.4602Y-5.6492
X8.5598Y-4.6473
X8.5598Y-4.7473
X8.5598Y-4.8473
X8.5598Y-4.9473
X8.5602Y-3.1492
X8.5602Y-3.2492
X8.5602Y-3.4492
X8.5602Y-3.5492
X8.5602Y-3.6492
X8.5602Y-3.7492
X8.5602Y-3.8492
X8.5602Y-3.9492
X8.5602Y-4.0492
X8.5602Y-4.1492
X8.5602Y-4.2492
X8.5602Y-4.5492
X8.5602Y-5.0492
X8.5602Y-5.1492
X8.5602Y-5.2492
X8.5602Y-5.3492
X8.5602Y-5.5492
X8.5602Y-5.6492
X8.6598Y-4.6473
X8.6598Y-4.7473
X8.6598Y-4.8473
X8.6598Y-4.9473
X8.6602Y-3.1492
X8.6602Y-3.2492
X8.6602Y-3.4492
X8.6602Y-3.5492
X8.6602Y-3.6492
X8.6602Y-3.7492
X8.6602Y-3.8492
X8.6602Y-3.9492
X8.6602Y-4.0492
X8.6602Y-4.1492
X8.6602Y-4.2492
X8.6602Y-4.5492
X8.6602Y-5.0492
X8.6602Y-5.1492
X8.6602Y-5.2492
X8.6602Y-5.3492
X8.6602Y-5.5492
X8.6602Y-5.6492
X8.7598Y-4.6473
X8.7598Y-4.7473
X8.7598Y-4.8473
X8.7598Y-4.9473
X8.7602Y-3.1492
X8.7602Y-3.2492
X8.7602Y-3.4492
X8.7602Y-3.5492
X8.7602Y-3.6492
X8.7602Y-3.7492
X8.7602Y-3.8492
X8.7602Y-3.9492
X8.7602Y-4.0492
X8.7602Y-4.1492
X8.7602Y-4.2492
X8.7602Y-4.5492
X8.7602Y-5.0492
X8.7602Y-5.1492
X8.7602Y-5.2492
X8.7602Y-5.3492
X8.7602Y-5.5492
X8.7602Y-5.6492
X8.8598Y-4.6473
X8.8598Y-4.7473
X8.8598Y-4.8473
X8.8598Y-4.9473
X8.8602Y-3.1492
X8.8602Y-3.2492
X8.8602Y-3.4492
X8.8602Y-3.5492
X8.8602Y-3.6492
X8.8602Y-3.7492
X8.8602Y-3.8492
X8.8602Y-3.9492
X8.8602Y-4.0492
X8.8602Y-4.1492
X8.8602Y-4.2492
X8.8602Y-4.5492
X8.8602Y-5.0492
X8.8602Y-5.1492
X8.8602Y-5.2492
X8.8602Y-5.3492
X8.8602Y-5.5492
X8.8602Y-5.6492
X8.9598Y-4.6473
X8.9598Y-4.7473
X8.9598Y-4.8473
X8.9598Y-4.9473
X8.9602Y-3.1492
X8.9602Y-3.2492
X8.9602Y-3.4492
X8.9602Y-3.5492
X8.9602Y-3.6492
X8.9602Y-3.7492
X8.9602Y-3.8492
X8.9602Y-3.9492
X8.9602Y-4.0492
X8.9602Y-4.1492
X8.9602Y-4.2492
X8.9602Y-4.5492
X8.9602Y-5.0492
X8.9602Y-5.1492
X8.9602Y-5.2492
X8.9602Y-5.3492
X8.9602Y-5.5492
X8.9602Y-5.6492
X9.0598Y-4.6473
X9.0598Y-4.7473
X9.0598Y-4.8473
X9.0598Y-4.9473
X9.0602Y-3.1492
X9.0602Y-3.2492
X9.0602Y-3.4492
X9.0602Y-3.5492
X9.0602Y-3.6492
X9.0602Y-3.7492
X9.0602Y-3.8492
X9.0602Y-3.9492
X9.0602Y-4.0492
X9.0602Y-4.1492
X9.0602Y-4.2492
X9.0602Y-4.5492
X9.0602Y-5.0492
X9.0602Y-5.1492
X9.0602Y-5.2492
X9.0602Y-5.3492
X9.0602Y-5.5492
X9.0602Y-5.6492
X9.1598Y-4.6473
X9.1598Y-4.7473
X9.1598Y-4.8473
X9.1598Y-4.9473
X9.1602Y-3.1492
X9.1602Y-3.2492
X9.1602Y-3.4492
X9.1602Y-3.5492
X9.1602Y-3.6492
X9.1602Y-3.7492
X9.1602Y-3.8492
X9.1602Y-3.9492
X9.1602Y-4.0492
X9.1602Y-4.1492
X9.1602Y-4.2492
X9.1602Y-4.5492
X9.1602Y-5.0492
X9.1602Y-5.1492
X9.1602Y-5.2492
X9.1602Y-5.3492
X9.1602Y-5.5492
X9.1602Y-5.6492
X9.2598Y-4.6473
X9.2598Y-4.7473
X9.2598Y-4.8473
X9.2598Y-4.9473
X9.2602Y-3.1492
X9.2602Y-3.2492
X9.2602Y-3.4492
X9.2602Y-3.5492
X9.2602Y-3.6492
X9.2602Y-3.7492
X9.2602Y-3.8492
X9.2602Y-3.9492
X9.2602Y-4.0492
X9.2602Y-4.1492
X9.2602Y-4.2492
X9.2602Y-4.5492
X9.2602Y-5.0492
X9.2602Y-5.1492
X9.2602Y-5.2492
X9.2602Y-5.3492
X9.2602Y-5.5492
X9.2602Y-5.6492
X9.3598Y-4.6473
X9.3598Y-4.7473
X9.3598Y-4.8473
X9.3598Y-4.9473
X9.3602Y-3.1492
X9.3602Y-3.2492
X9.3602Y-3.4492
X9.3602Y-3.5492
X9.3602Y-3.6492
X9.3602Y-3.7492
X9.3602Y-3.8492
X9.3602Y-3.9492
X9.3602Y-4.0492
X9.3602Y-4.1492
X9.3602Y-4.2492
X9.3602Y-4.5492
X9.3602Y-5.0492
X9.3602Y-5.1492
X9.3602Y-5.2492
X9.3602Y-5.3492
X9.3602Y-5.5492
X9.3602Y-5.6492
X9.4598Y-4.6473
X9.4598Y-4.7473
X9.4598Y-4.8473
X9.4598Y-4.9473
X9.4602Y-3.1492
X9.4602Y-3.2492
X9.4602Y-3.4492
X9.4602Y-3.5492
X9.4602Y-3.6492
X9.4602Y-3.7492
X9.4602Y-3.8492
X9.4602Y-3.9492
X9.4602Y-4.0492
X9.4602Y-4.1492
X9.4602Y-4.2492
X9.4602Y-4.5492
X9.4602Y-5.0492
X9.4602Y-5.1492
X9.4602Y-5.2492
X9.4602Y-5.3492
X9.4602Y-5.5492
X9.4602Y-5.6492
X9.5598Y-4.6473
X9.5598Y-4.7473
X9.5598Y-4.8473
X9.5598Y-4.9473
X9.5602Y-3.1492
X9.5602Y-3.2492
X9.5602Y-3.4492
X9.5602Y-3.5492
X9.5602Y-3.6492
X9.5602Y-3.7492
X9.5602Y-3.8492
X9.5602Y-3.9492
X9.5602Y-4.0492
X9.5602Y-4.1492
X9.5602Y-4.2492
X9.5602Y-4.5492
X9.5602Y-5.0492
X9.5602Y-5.1492
X9.5602Y-5.2492
X9.5602Y-5.3492
X9.5602Y-5.5492
X9.5602Y-5.6492
X9.6598Y-4.6473
X9.6598Y-4.7473
X9.6598Y-4.8473
X9.6598Y-4.9473
X9.6602Y-3.1492
X9.6602Y-3.2492
X9.6602Y-3.4492
X9.6602Y-3.5492
X9.6602Y-3.6492
X9.6602Y-3.7492
X9.6602Y-3.8492
X9.6602Y-3.9492
X9.6602Y-4.0492
X9.6602Y-4.1492
X9.6602Y-4.2492
X9.6602Y-4.5492
X9.6602Y-5.0492
X9.6602Y-5.1492
X9.6602Y-5.2492
X9.6602Y-5.3492
X9.6602Y-5.5492
X9.6602Y-5.6492
T3
X4.1339Y-2.1654
X4.1339Y-5.9055
X9.5866Y-2.1654
X9.5866Y-5.9055
M30
