%TF.GenerationSoftware,KiCad,Pcbnew,7.0.8*%
%TF.CreationDate,2023-12-20T14:49:09+01:00*%
%TF.ProjectId,KLST_PANDA,4b4c5354-5f50-4414-9e44-412e6b696361,rev?*%
%TF.SameCoordinates,Original*%
%TF.FileFunction,Profile,NP*%
%FSLAX46Y46*%
G04 Gerber Fmt 4.6, Leading zero omitted, Abs format (unit mm)*
G04 Created by KiCad (PCBNEW 7.0.8) date 2023-12-20 14:49:09*
%MOMM*%
%LPD*%
G01*
G04 APERTURE LIST*
%TA.AperFunction,Profile*%
%ADD10C,0.100000*%
%TD*%
G04 APERTURE END LIST*
D10*
X198500000Y-55000000D02*
G75*
G03*
X193500000Y-50000000I-5000000J0D01*
G01*
X65750000Y-153000000D02*
G75*
G03*
X64750000Y-154000000I0J-1000000D01*
G01*
X135250000Y-154000000D02*
G75*
G03*
X135750000Y-153500000I0J500000D01*
G01*
X198500000Y-55000000D02*
X198500000Y-150000000D01*
X55000000Y-50000000D02*
X193500000Y-50000000D01*
X193500000Y-155000000D02*
G75*
G03*
X198500000Y-150000000I0J5000000D01*
G01*
X112750000Y-153500000D02*
G75*
G03*
X113250000Y-154000000I500000J0D01*
G01*
X136250000Y-153000000D02*
G75*
G03*
X135750000Y-153500000I0J-500000D01*
G01*
X63750000Y-155000000D02*
X55000000Y-155000000D01*
X135250000Y-154000000D02*
X113250000Y-154000000D01*
X50000000Y-150000000D02*
X50000000Y-55000000D01*
X65750000Y-153000000D02*
X112250000Y-153000000D01*
X112750000Y-153500000D02*
G75*
G03*
X112250000Y-153000000I-500000J0D01*
G01*
X50000000Y-150000000D02*
G75*
G03*
X55000000Y-155000000I5000000J0D01*
G01*
X193500000Y-155000000D02*
X185000000Y-155000000D01*
X184000000Y-154000000D02*
G75*
G03*
X185000000Y-155000000I1000000J0D01*
G01*
X184000000Y-154000000D02*
G75*
G03*
X183000000Y-153000000I-1000000J0D01*
G01*
X63750000Y-155000000D02*
G75*
G03*
X64750000Y-154000000I0J1000000D01*
G01*
X55000000Y-50000000D02*
G75*
G03*
X50000000Y-55000000I0J-5000000D01*
G01*
X136250000Y-153000000D02*
X183000000Y-153000000D01*
M02*
