%TF.GenerationSoftware,KiCad,Pcbnew,7.0.8*%
%TF.CreationDate,2023-12-20T14:49:09+01:00*%
%TF.ProjectId,KLST_PANDA,4b4c5354-5f50-4414-9e44-412e6b696361,rev?*%
%TF.SameCoordinates,Original*%
%TF.FileFunction,Legend,Top*%
%TF.FilePolarity,Positive*%
%FSLAX46Y46*%
G04 Gerber Fmt 4.6, Leading zero omitted, Abs format (unit mm)*
G04 Created by KiCad (PCBNEW 7.0.8) date 2023-12-20 14:49:09*
%MOMM*%
%LPD*%
G01*
G04 APERTURE LIST*
G04 Aperture macros list*
%AMRoundRect*
0 Rectangle with rounded corners*
0 $1 Rounding radius*
0 $2 $3 $4 $5 $6 $7 $8 $9 X,Y pos of 4 corners*
0 Add a 4 corners polygon primitive as box body*
4,1,4,$2,$3,$4,$5,$6,$7,$8,$9,$2,$3,0*
0 Add four circle primitives for the rounded corners*
1,1,$1+$1,$2,$3*
1,1,$1+$1,$4,$5*
1,1,$1+$1,$6,$7*
1,1,$1+$1,$8,$9*
0 Add four rect primitives between the rounded corners*
20,1,$1+$1,$2,$3,$4,$5,0*
20,1,$1+$1,$4,$5,$6,$7,0*
20,1,$1+$1,$6,$7,$8,$9,0*
20,1,$1+$1,$8,$9,$2,$3,0*%
G04 Aperture macros list end*
%ADD10C,1.000000*%
%ADD11C,0.150000*%
%ADD12C,1.250000*%
%ADD13C,0.120000*%
%ADD14C,0.127000*%
%ADD15C,0.200000*%
%ADD16C,0.254000*%
%ADD17C,0.152000*%
%ADD18RoundRect,0.140000X-0.170000X0.140000X-0.170000X-0.140000X0.170000X-0.140000X0.170000X0.140000X0*%
%ADD19RoundRect,0.250000X0.550000X-1.050000X0.550000X1.050000X-0.550000X1.050000X-0.550000X-1.050000X0*%
%ADD20R,3.700000X1.100000*%
%ADD21RoundRect,0.140000X0.140000X0.170000X-0.140000X0.170000X-0.140000X-0.170000X0.140000X-0.170000X0*%
%ADD22C,1.400000*%
%ADD23R,2.500000X1.600000*%
%ADD24RoundRect,0.250000X-1.000000X-0.650000X1.000000X-0.650000X1.000000X0.650000X-1.000000X0.650000X0*%
%ADD25RoundRect,0.135000X0.185000X-0.135000X0.185000X0.135000X-0.185000X0.135000X-0.185000X-0.135000X0*%
%ADD26RoundRect,0.140000X0.170000X-0.140000X0.170000X0.140000X-0.170000X0.140000X-0.170000X-0.140000X0*%
%ADD27RoundRect,0.250000X0.450000X0.425000X-0.450000X0.425000X-0.450000X-0.425000X0.450000X-0.425000X0*%
%ADD28RoundRect,0.140000X-0.140000X-0.170000X0.140000X-0.170000X0.140000X0.170000X-0.140000X0.170000X0*%
%ADD29RoundRect,0.200000X-0.275000X0.200000X-0.275000X-0.200000X0.275000X-0.200000X0.275000X0.200000X0*%
%ADD30RoundRect,0.243750X0.456250X-0.243750X0.456250X0.243750X-0.456250X0.243750X-0.456250X-0.243750X0*%
%ADD31R,0.600000X0.250000*%
%ADD32RoundRect,0.135000X-0.185000X0.135000X-0.185000X-0.135000X0.185000X-0.135000X0.185000X0.135000X0*%
%ADD33RoundRect,0.250000X0.650000X-1.000000X0.650000X1.000000X-0.650000X1.000000X-0.650000X-1.000000X0*%
%ADD34R,2.000000X1.780000*%
%ADD35RoundRect,0.150000X0.200000X-0.150000X0.200000X0.150000X-0.200000X0.150000X-0.200000X-0.150000X0*%
%ADD36RoundRect,0.250000X-0.450000X0.350000X-0.450000X-0.350000X0.450000X-0.350000X0.450000X0.350000X0*%
%ADD37RoundRect,0.200000X0.800000X-0.200000X0.800000X0.200000X-0.800000X0.200000X-0.800000X-0.200000X0*%
%ADD38RoundRect,0.250000X0.450000X-0.262500X0.450000X0.262500X-0.450000X0.262500X-0.450000X-0.262500X0*%
%ADD39RoundRect,0.250000X-0.600000X-0.600000X0.600000X-0.600000X0.600000X0.600000X-0.600000X0.600000X0*%
%ADD40C,1.700000*%
%ADD41RoundRect,0.006600X-0.358400X-0.103400X0.358400X-0.103400X0.358400X0.103400X-0.358400X0.103400X0*%
%ADD42RoundRect,0.006600X0.103400X-0.358400X0.103400X0.358400X-0.103400X0.358400X-0.103400X-0.358400X0*%
%ADD43R,2.700000X2.700000*%
%ADD44R,0.650000X0.400000*%
%ADD45RoundRect,0.200000X-0.200000X-0.275000X0.200000X-0.275000X0.200000X0.275000X-0.200000X0.275000X0*%
%ADD46C,0.800000*%
%ADD47C,6.400000*%
%ADD48RoundRect,0.250000X-0.450000X0.262500X-0.450000X-0.262500X0.450000X-0.262500X0.450000X0.262500X0*%
%ADD49RoundRect,0.147500X-0.172500X0.147500X-0.172500X-0.147500X0.172500X-0.147500X0.172500X0.147500X0*%
%ADD50RoundRect,0.075000X-0.662500X-0.075000X0.662500X-0.075000X0.662500X0.075000X-0.662500X0.075000X0*%
%ADD51RoundRect,0.075000X-0.075000X-0.662500X0.075000X-0.662500X0.075000X0.662500X-0.075000X0.662500X0*%
%ADD52RoundRect,0.250000X0.600000X0.600000X-0.600000X0.600000X-0.600000X-0.600000X0.600000X-0.600000X0*%
%ADD53RoundRect,0.200000X0.200000X0.275000X-0.200000X0.275000X-0.200000X-0.275000X0.200000X-0.275000X0*%
%ADD54C,1.000000*%
%ADD55R,1.100000X1.000000*%
%ADD56R,0.900000X1.250000*%
%ADD57R,0.700000X1.200000*%
%ADD58R,1.000000X0.800000*%
%ADD59R,1.000000X1.200000*%
%ADD60R,1.000000X2.800000*%
%ADD61R,1.300000X1.900000*%
%ADD62C,0.650000*%
%ADD63R,0.600000X1.450000*%
%ADD64R,0.300000X1.450000*%
%ADD65O,1.000000X2.100000*%
%ADD66O,1.000000X1.600000*%
%ADD67R,0.400000X0.650000*%
%ADD68RoundRect,0.250000X-0.650000X1.000000X-0.650000X-1.000000X0.650000X-1.000000X0.650000X1.000000X0*%
%ADD69RoundRect,0.250000X-0.550000X1.050000X-0.550000X-1.050000X0.550000X-1.050000X0.550000X1.050000X0*%
%ADD70RoundRect,0.250000X-0.475000X0.250000X-0.475000X-0.250000X0.475000X-0.250000X0.475000X0.250000X0*%
%ADD71R,0.700000X1.000000*%
%ADD72R,0.700000X0.600000*%
%ADD73RoundRect,0.135000X-0.135000X-0.185000X0.135000X-0.185000X0.135000X0.185000X-0.135000X0.185000X0*%
%ADD74R,0.740000X2.400000*%
%ADD75RoundRect,0.250000X0.450000X-0.350000X0.450000X0.350000X-0.450000X0.350000X-0.450000X-0.350000X0*%
%ADD76R,1.200000X1.400000*%
%ADD77C,2.800000*%
%ADD78RoundRect,0.135000X0.135000X0.185000X-0.135000X0.185000X-0.135000X-0.185000X0.135000X-0.185000X0*%
%ADD79O,2.400000X3.800000*%
%ADD80C,1.800000*%
%ADD81C,0.990000*%
%ADD82C,1.750000*%
%ADD83C,4.000000*%
%ADD84C,2.500000*%
G04 APERTURE END LIST*
D10*
X123000000Y-141250000D02*
X125500000Y-141250000D01*
D11*
X82000000Y-55750000D02*
X84000000Y-55750000D01*
X84000000Y-59250000D01*
X82000000Y-59250000D01*
X82000000Y-55750000D01*
G36*
X82000000Y-55750000D02*
G01*
X84000000Y-55750000D01*
X84000000Y-59250000D01*
X82000000Y-59250000D01*
X82000000Y-55750000D01*
G37*
G36*
X101755147Y-62262639D02*
G01*
X101755147Y-62017786D01*
X101720342Y-61982370D01*
X101125000Y-61982370D01*
X101090195Y-61947566D01*
X101090195Y-61353445D01*
X101055391Y-61318030D01*
X100809927Y-61318030D01*
X100775122Y-61353445D01*
X100775122Y-61947566D01*
X100740318Y-61982370D01*
X100144976Y-61982370D01*
X100110171Y-62017786D01*
X100110171Y-62262639D01*
X100144976Y-62297444D01*
X100740318Y-62297444D01*
X100775122Y-62332248D01*
X100775122Y-62924537D01*
X100809927Y-62959342D01*
X101055391Y-62959342D01*
X101090195Y-62924537D01*
X101090195Y-62332248D01*
X101125000Y-62297444D01*
X101720342Y-62297444D01*
X101755147Y-62262639D01*
G37*
G36*
X148250000Y-62262639D02*
G01*
X148250000Y-62017786D01*
X148214584Y-61982370D01*
X146919487Y-61982370D01*
X146884682Y-62017786D01*
X146884682Y-62262639D01*
X146919487Y-62297444D01*
X148214584Y-62297444D01*
X148250000Y-62262639D01*
G37*
G36*
X113051472Y-138680419D02*
G01*
X113065748Y-138681047D01*
X113079897Y-138682107D01*
X113093894Y-138683607D01*
X113107718Y-138685560D01*
X113121345Y-138687974D01*
X113134752Y-138690861D01*
X113147916Y-138694230D01*
X113160814Y-138698091D01*
X113173422Y-138702456D01*
X113185718Y-138707333D01*
X113197679Y-138712734D01*
X113209281Y-138718669D01*
X113220501Y-138725147D01*
X113231317Y-138732180D01*
X113241705Y-138739777D01*
X113251643Y-138747949D01*
X113261106Y-138756705D01*
X113270073Y-138766056D01*
X113278519Y-138776013D01*
X113286423Y-138786586D01*
X113293760Y-138797784D01*
X113300508Y-138809618D01*
X113306643Y-138822098D01*
X113312144Y-138835235D01*
X113316985Y-138849039D01*
X113321145Y-138863520D01*
X113324601Y-138878688D01*
X113327329Y-138894553D01*
X113329306Y-138911126D01*
X113330509Y-138928418D01*
X113330915Y-138946437D01*
X113330270Y-138964514D01*
X113328375Y-138981913D01*
X113325291Y-138998612D01*
X113321080Y-139014592D01*
X113315803Y-139029832D01*
X113309521Y-139044312D01*
X113302295Y-139058011D01*
X113294187Y-139070909D01*
X113285257Y-139082986D01*
X113275567Y-139094221D01*
X113265177Y-139104593D01*
X113254150Y-139114083D01*
X113242546Y-139122670D01*
X113230427Y-139130333D01*
X113217853Y-139137053D01*
X113204886Y-139142808D01*
X113204886Y-139156730D01*
X113220462Y-139162498D01*
X113235631Y-139169284D01*
X113250308Y-139177108D01*
X113264412Y-139185993D01*
X113277861Y-139195960D01*
X113290572Y-139207031D01*
X113302463Y-139219226D01*
X113313452Y-139232568D01*
X113323456Y-139247077D01*
X113332393Y-139262775D01*
X113340181Y-139279685D01*
X113346737Y-139297826D01*
X113349528Y-139307366D01*
X113351980Y-139317221D01*
X113354083Y-139327396D01*
X113355827Y-139337892D01*
X113357201Y-139348712D01*
X113358195Y-139359858D01*
X113358799Y-139371335D01*
X113359003Y-139383143D01*
X113358597Y-139402604D01*
X113357394Y-139421246D01*
X113355416Y-139439081D01*
X113352688Y-139456122D01*
X113349232Y-139472384D01*
X113345072Y-139487879D01*
X113340229Y-139502621D01*
X113334727Y-139516622D01*
X113328590Y-139529896D01*
X113321840Y-139542457D01*
X113314501Y-139554317D01*
X113306594Y-139565490D01*
X113298144Y-139575988D01*
X113289174Y-139585826D01*
X113279705Y-139595016D01*
X113269763Y-139603572D01*
X113259368Y-139611507D01*
X113248546Y-139618834D01*
X113237317Y-139625567D01*
X113225707Y-139631718D01*
X113213737Y-139637300D01*
X113201431Y-139642328D01*
X113188811Y-139646815D01*
X113175901Y-139650772D01*
X113162724Y-139654215D01*
X113149302Y-139657156D01*
X113135660Y-139659607D01*
X113121819Y-139661584D01*
X113107803Y-139663098D01*
X113093635Y-139664163D01*
X113079338Y-139664793D01*
X113064934Y-139665000D01*
X112672925Y-139665000D01*
X112659003Y-139651078D01*
X112659003Y-139524804D01*
X112798954Y-139524804D01*
X112812876Y-139539214D01*
X113051013Y-139539214D01*
X113061337Y-139539088D01*
X113071334Y-139538707D01*
X113090350Y-139537156D01*
X113108059Y-139534523D01*
X113124461Y-139530765D01*
X113139555Y-139525842D01*
X113153340Y-139519714D01*
X113165815Y-139512339D01*
X113176981Y-139503677D01*
X113186835Y-139493687D01*
X113195378Y-139482328D01*
X113202609Y-139469559D01*
X113208526Y-139455340D01*
X113213130Y-139439630D01*
X113216419Y-139422387D01*
X113218394Y-139403572D01*
X113218887Y-139393562D01*
X113219052Y-139383143D01*
X113218886Y-139371415D01*
X113218387Y-139360178D01*
X113217548Y-139349423D01*
X113216365Y-139339143D01*
X113212945Y-139319976D01*
X113208088Y-139302616D01*
X113201752Y-139287000D01*
X113193897Y-139273067D01*
X113184483Y-139260754D01*
X113173470Y-139250000D01*
X113160816Y-139240744D01*
X113146483Y-139232922D01*
X113130428Y-139226473D01*
X113112611Y-139221336D01*
X113103030Y-139219240D01*
X113092994Y-139217448D01*
X113082496Y-139215953D01*
X113071533Y-139214748D01*
X113060100Y-139213824D01*
X113048191Y-139213173D01*
X113035801Y-139212788D01*
X113022925Y-139212662D01*
X112812876Y-139212662D01*
X112798954Y-139226828D01*
X112798954Y-139524804D01*
X112659003Y-139524804D01*
X112659003Y-139072711D01*
X112798954Y-139072711D01*
X112812876Y-139086632D01*
X113022925Y-139086632D01*
X113033270Y-139086549D01*
X113043287Y-139086292D01*
X113062332Y-139085217D01*
X113080062Y-139083322D01*
X113096476Y-139080526D01*
X113111575Y-139076746D01*
X113125359Y-139071898D01*
X113137829Y-139065899D01*
X113148985Y-139058667D01*
X113158826Y-139050118D01*
X113167355Y-139040169D01*
X113174570Y-139028738D01*
X113180473Y-139015741D01*
X113185063Y-139001095D01*
X113188342Y-138984718D01*
X113190308Y-138966526D01*
X113190800Y-138956724D01*
X113190964Y-138946437D01*
X113190800Y-138936171D01*
X113189477Y-138917076D01*
X113186813Y-138899827D01*
X113182786Y-138884342D01*
X113177376Y-138870540D01*
X113170561Y-138858339D01*
X113162321Y-138847656D01*
X113152636Y-138838409D01*
X113141484Y-138830517D01*
X113128844Y-138823899D01*
X113114697Y-138818470D01*
X113099021Y-138814151D01*
X113081795Y-138810859D01*
X113062999Y-138808512D01*
X113053006Y-138807668D01*
X113042612Y-138807028D01*
X113031815Y-138806584D01*
X113020613Y-138806326D01*
X113009003Y-138806242D01*
X112812876Y-138806242D01*
X112798954Y-138820408D01*
X112798954Y-139072711D01*
X112659003Y-139072711D01*
X112659003Y-138694378D01*
X112672925Y-138680212D01*
X113037091Y-138680212D01*
X113051472Y-138680419D01*
G37*
G36*
X113870928Y-138680701D02*
G01*
X113892245Y-138682165D01*
X113912900Y-138684604D01*
X113932892Y-138688017D01*
X113952219Y-138692401D01*
X113970877Y-138697755D01*
X113988864Y-138704078D01*
X114006178Y-138711369D01*
X114022815Y-138719625D01*
X114038774Y-138728846D01*
X114054051Y-138739031D01*
X114068644Y-138750176D01*
X114082550Y-138762283D01*
X114095768Y-138775348D01*
X114108293Y-138789370D01*
X114120125Y-138804349D01*
X114131259Y-138820282D01*
X114141694Y-138837168D01*
X114151426Y-138855006D01*
X114160454Y-138873794D01*
X114168775Y-138893531D01*
X114176386Y-138914215D01*
X114183284Y-138935845D01*
X114189467Y-138958420D01*
X114194932Y-138981938D01*
X114199677Y-139006398D01*
X114203699Y-139031798D01*
X114206996Y-139058136D01*
X114209565Y-139085412D01*
X114211402Y-139113624D01*
X114212507Y-139142771D01*
X114212876Y-139172850D01*
X114212507Y-139202907D01*
X114211402Y-139232030D01*
X114209565Y-139260220D01*
X114206996Y-139287473D01*
X114203699Y-139313789D01*
X114199677Y-139339167D01*
X114194932Y-139363604D01*
X114189467Y-139387101D01*
X114183284Y-139409654D01*
X114176386Y-139431264D01*
X114168775Y-139451928D01*
X114160454Y-139471645D01*
X114151426Y-139490413D01*
X114141694Y-139508232D01*
X114131259Y-139525100D01*
X114120125Y-139541016D01*
X114108293Y-139555977D01*
X114095768Y-139569984D01*
X114082550Y-139583034D01*
X114068644Y-139595126D01*
X114054051Y-139606258D01*
X114038774Y-139616430D01*
X114022815Y-139625639D01*
X114006178Y-139633885D01*
X113988864Y-139641166D01*
X113970877Y-139647481D01*
X113952219Y-139652828D01*
X113932892Y-139657206D01*
X113912900Y-139660614D01*
X113892245Y-139663049D01*
X113870928Y-139664512D01*
X113848954Y-139665000D01*
X113834788Y-139665000D01*
X113812814Y-139664512D01*
X113791497Y-139663049D01*
X113770842Y-139660614D01*
X113750850Y-139657206D01*
X113731523Y-139652828D01*
X113712865Y-139647481D01*
X113694878Y-139641166D01*
X113677564Y-139633885D01*
X113660927Y-139625639D01*
X113644968Y-139616430D01*
X113629691Y-139606258D01*
X113615098Y-139595126D01*
X113601192Y-139583034D01*
X113587974Y-139569984D01*
X113575449Y-139555977D01*
X113563617Y-139541016D01*
X113552483Y-139525100D01*
X113542048Y-139508232D01*
X113532316Y-139490413D01*
X113523288Y-139471645D01*
X113514967Y-139451928D01*
X113507356Y-139431264D01*
X113500458Y-139409654D01*
X113494275Y-139387101D01*
X113488810Y-139363604D01*
X113484065Y-139339167D01*
X113480043Y-139313789D01*
X113476746Y-139287473D01*
X113474177Y-139260220D01*
X113472340Y-139232030D01*
X113471235Y-139202907D01*
X113470866Y-139172850D01*
X113610817Y-139172850D01*
X113611023Y-139195390D01*
X113611642Y-139217215D01*
X113612677Y-139238323D01*
X113614130Y-139258717D01*
X113616004Y-139278395D01*
X113618301Y-139297357D01*
X113621023Y-139315603D01*
X113624174Y-139333135D01*
X113627756Y-139349950D01*
X113631771Y-139366050D01*
X113636222Y-139381435D01*
X113641111Y-139396103D01*
X113646441Y-139410057D01*
X113652214Y-139423294D01*
X113658433Y-139435817D01*
X113665100Y-139447623D01*
X113672218Y-139458714D01*
X113679790Y-139469090D01*
X113687817Y-139478750D01*
X113696302Y-139487694D01*
X113705249Y-139495923D01*
X113714658Y-139503437D01*
X113724534Y-139510234D01*
X113734877Y-139516317D01*
X113745692Y-139521683D01*
X113756980Y-139526334D01*
X113768744Y-139530270D01*
X113780986Y-139533490D01*
X113793709Y-139535994D01*
X113806915Y-139537783D01*
X113820607Y-139538857D01*
X113834788Y-139539214D01*
X113848954Y-139539214D01*
X113863135Y-139538857D01*
X113876827Y-139537783D01*
X113890033Y-139535994D01*
X113902756Y-139533490D01*
X113914998Y-139530270D01*
X113926762Y-139526334D01*
X113938050Y-139521683D01*
X113948865Y-139516317D01*
X113959208Y-139510234D01*
X113969084Y-139503437D01*
X113978493Y-139495923D01*
X113987440Y-139487694D01*
X113995925Y-139478750D01*
X114003952Y-139469090D01*
X114011524Y-139458714D01*
X114018642Y-139447623D01*
X114025309Y-139435817D01*
X114031528Y-139423294D01*
X114037301Y-139410057D01*
X114042631Y-139396103D01*
X114047520Y-139381435D01*
X114051971Y-139366050D01*
X114055986Y-139349950D01*
X114059568Y-139333135D01*
X114062719Y-139315603D01*
X114065441Y-139297357D01*
X114067738Y-139278395D01*
X114069612Y-139258717D01*
X114071065Y-139238323D01*
X114072100Y-139217215D01*
X114072719Y-139195390D01*
X114072925Y-139172850D01*
X114072719Y-139150309D01*
X114072100Y-139128483D01*
X114071065Y-139107371D01*
X114069612Y-139086973D01*
X114067738Y-139067290D01*
X114065441Y-139048321D01*
X114062719Y-139030067D01*
X114059568Y-139012528D01*
X114055986Y-138995703D01*
X114051971Y-138979594D01*
X114047520Y-138964199D01*
X114042631Y-138949520D01*
X114037301Y-138935555D01*
X114031528Y-138922306D01*
X114025309Y-138909773D01*
X114018642Y-138897955D01*
X114011524Y-138886852D01*
X114003952Y-138876465D01*
X113995925Y-138866794D01*
X113987440Y-138857839D01*
X113978493Y-138849599D01*
X113969084Y-138842076D01*
X113959208Y-138835269D01*
X113948865Y-138829178D01*
X113938050Y-138823803D01*
X113926762Y-138819144D01*
X113914998Y-138815202D01*
X113902756Y-138811977D01*
X113890033Y-138809468D01*
X113876827Y-138807676D01*
X113863135Y-138806600D01*
X113848954Y-138806242D01*
X113834788Y-138806242D01*
X113820607Y-138806600D01*
X113806915Y-138807676D01*
X113793709Y-138809468D01*
X113780986Y-138811977D01*
X113768744Y-138815202D01*
X113756980Y-138819144D01*
X113745692Y-138823803D01*
X113734877Y-138829178D01*
X113724534Y-138835269D01*
X113714658Y-138842076D01*
X113705249Y-138849599D01*
X113696302Y-138857839D01*
X113687817Y-138866794D01*
X113679790Y-138876465D01*
X113672218Y-138886852D01*
X113665100Y-138897955D01*
X113658433Y-138909773D01*
X113652214Y-138922306D01*
X113646441Y-138935555D01*
X113641111Y-138949520D01*
X113636222Y-138964199D01*
X113631771Y-138979594D01*
X113627756Y-138995703D01*
X113624174Y-139012528D01*
X113621023Y-139030067D01*
X113618301Y-139048321D01*
X113616004Y-139067290D01*
X113614130Y-139086973D01*
X113612677Y-139107371D01*
X113611642Y-139128483D01*
X113611023Y-139150309D01*
X113610817Y-139172850D01*
X113470866Y-139172850D01*
X113471235Y-139142771D01*
X113472340Y-139113624D01*
X113474177Y-139085412D01*
X113476746Y-139058136D01*
X113480043Y-139031798D01*
X113484065Y-139006398D01*
X113488810Y-138981938D01*
X113494275Y-138958420D01*
X113500458Y-138935845D01*
X113507356Y-138914215D01*
X113514967Y-138893531D01*
X113523288Y-138873794D01*
X113532316Y-138855006D01*
X113542048Y-138837168D01*
X113552483Y-138820282D01*
X113563617Y-138804349D01*
X113575449Y-138789370D01*
X113587974Y-138775348D01*
X113601192Y-138762283D01*
X113615098Y-138750176D01*
X113629691Y-138739031D01*
X113644968Y-138728846D01*
X113660927Y-138719625D01*
X113677564Y-138711369D01*
X113694878Y-138704078D01*
X113712865Y-138697755D01*
X113731523Y-138692401D01*
X113750850Y-138688017D01*
X113770842Y-138684604D01*
X113791497Y-138682165D01*
X113812814Y-138680701D01*
X113834788Y-138680212D01*
X113848954Y-138680212D01*
X113870928Y-138680701D01*
G37*
G36*
X114724801Y-138680701D02*
G01*
X114746118Y-138682165D01*
X114766773Y-138684604D01*
X114786765Y-138688017D01*
X114806092Y-138692401D01*
X114824750Y-138697755D01*
X114842737Y-138704078D01*
X114860051Y-138711369D01*
X114876688Y-138719625D01*
X114892647Y-138728846D01*
X114907924Y-138739031D01*
X114922517Y-138750176D01*
X114936423Y-138762283D01*
X114949641Y-138775348D01*
X114962166Y-138789370D01*
X114973998Y-138804349D01*
X114985132Y-138820282D01*
X114995567Y-138837168D01*
X115005299Y-138855006D01*
X115014327Y-138873794D01*
X115022648Y-138893531D01*
X115030259Y-138914215D01*
X115037157Y-138935845D01*
X115043340Y-138958420D01*
X115048805Y-138981938D01*
X115053550Y-139006398D01*
X115057572Y-139031798D01*
X115060869Y-139058136D01*
X115063438Y-139085412D01*
X115065275Y-139113624D01*
X115066380Y-139142771D01*
X115066749Y-139172850D01*
X115066380Y-139202907D01*
X115065275Y-139232030D01*
X115063438Y-139260220D01*
X115060869Y-139287473D01*
X115057572Y-139313789D01*
X115053550Y-139339167D01*
X115048805Y-139363604D01*
X115043340Y-139387101D01*
X115037157Y-139409654D01*
X115030259Y-139431264D01*
X115022648Y-139451928D01*
X115014327Y-139471645D01*
X115005299Y-139490413D01*
X114995567Y-139508232D01*
X114985132Y-139525100D01*
X114973998Y-139541016D01*
X114962166Y-139555977D01*
X114949641Y-139569984D01*
X114936423Y-139583034D01*
X114922517Y-139595126D01*
X114907924Y-139606258D01*
X114892647Y-139616430D01*
X114876688Y-139625639D01*
X114860051Y-139633885D01*
X114842737Y-139641166D01*
X114824750Y-139647481D01*
X114806092Y-139652828D01*
X114786765Y-139657206D01*
X114766773Y-139660614D01*
X114746118Y-139663049D01*
X114724801Y-139664512D01*
X114702827Y-139665000D01*
X114688661Y-139665000D01*
X114666687Y-139664512D01*
X114645370Y-139663049D01*
X114624715Y-139660614D01*
X114604722Y-139657206D01*
X114585396Y-139652828D01*
X114566738Y-139647481D01*
X114548751Y-139641166D01*
X114531437Y-139633885D01*
X114514800Y-139625639D01*
X114498841Y-139616430D01*
X114483564Y-139606258D01*
X114468971Y-139595126D01*
X114455065Y-139583034D01*
X114441847Y-139569984D01*
X114429322Y-139555977D01*
X114417490Y-139541016D01*
X114406356Y-139525100D01*
X114395921Y-139508232D01*
X114386189Y-139490413D01*
X114377161Y-139471645D01*
X114368840Y-139451928D01*
X114361229Y-139431264D01*
X114354331Y-139409654D01*
X114348148Y-139387101D01*
X114342683Y-139363604D01*
X114337938Y-139339167D01*
X114333916Y-139313789D01*
X114330619Y-139287473D01*
X114328050Y-139260220D01*
X114326213Y-139232030D01*
X114325108Y-139202907D01*
X114324739Y-139172850D01*
X114464690Y-139172850D01*
X114464896Y-139195390D01*
X114465515Y-139217215D01*
X114466550Y-139238323D01*
X114468003Y-139258717D01*
X114469877Y-139278395D01*
X114472174Y-139297357D01*
X114474896Y-139315603D01*
X114478047Y-139333135D01*
X114481629Y-139349950D01*
X114485644Y-139366050D01*
X114490095Y-139381435D01*
X114494984Y-139396103D01*
X114500314Y-139410057D01*
X114506087Y-139423294D01*
X114512306Y-139435817D01*
X114518973Y-139447623D01*
X114526091Y-139458714D01*
X114533663Y-139469090D01*
X114541690Y-139478750D01*
X114550175Y-139487694D01*
X114559122Y-139495923D01*
X114568531Y-139503437D01*
X114578407Y-139510234D01*
X114588750Y-139516317D01*
X114599565Y-139521683D01*
X114610853Y-139526334D01*
X114622617Y-139530270D01*
X114634859Y-139533490D01*
X114647582Y-139535994D01*
X114660788Y-139537783D01*
X114674480Y-139538857D01*
X114688661Y-139539214D01*
X114702827Y-139539214D01*
X114717008Y-139538857D01*
X114730700Y-139537783D01*
X114743906Y-139535994D01*
X114756629Y-139533490D01*
X114768871Y-139530270D01*
X114780635Y-139526334D01*
X114791923Y-139521683D01*
X114802738Y-139516317D01*
X114813081Y-139510234D01*
X114822957Y-139503437D01*
X114832366Y-139495923D01*
X114841313Y-139487694D01*
X114849798Y-139478750D01*
X114857825Y-139469090D01*
X114865397Y-139458714D01*
X114872515Y-139447623D01*
X114879182Y-139435817D01*
X114885401Y-139423294D01*
X114891174Y-139410057D01*
X114896504Y-139396103D01*
X114901393Y-139381435D01*
X114905844Y-139366050D01*
X114909859Y-139349950D01*
X114913441Y-139333135D01*
X114916592Y-139315603D01*
X114919314Y-139297357D01*
X114921611Y-139278395D01*
X114923485Y-139258717D01*
X114924938Y-139238323D01*
X114925973Y-139217215D01*
X114926592Y-139195390D01*
X114926798Y-139172850D01*
X114926592Y-139150309D01*
X114925973Y-139128483D01*
X114924938Y-139107371D01*
X114923485Y-139086973D01*
X114921611Y-139067290D01*
X114919314Y-139048321D01*
X114916592Y-139030067D01*
X114913441Y-139012528D01*
X114909859Y-138995703D01*
X114905844Y-138979594D01*
X114901393Y-138964199D01*
X114896504Y-138949520D01*
X114891174Y-138935555D01*
X114885401Y-138922306D01*
X114879182Y-138909773D01*
X114872515Y-138897955D01*
X114865397Y-138886852D01*
X114857825Y-138876465D01*
X114849798Y-138866794D01*
X114841313Y-138857839D01*
X114832366Y-138849599D01*
X114822957Y-138842076D01*
X114813081Y-138835269D01*
X114802738Y-138829178D01*
X114791923Y-138823803D01*
X114780635Y-138819144D01*
X114768871Y-138815202D01*
X114756629Y-138811977D01*
X114743906Y-138809468D01*
X114730700Y-138807676D01*
X114717008Y-138806600D01*
X114702827Y-138806242D01*
X114688661Y-138806242D01*
X114674480Y-138806600D01*
X114660788Y-138807676D01*
X114647582Y-138809468D01*
X114634859Y-138811977D01*
X114622617Y-138815202D01*
X114610853Y-138819144D01*
X114599565Y-138823803D01*
X114588750Y-138829178D01*
X114578407Y-138835269D01*
X114568531Y-138842076D01*
X114559122Y-138849599D01*
X114550175Y-138857839D01*
X114541690Y-138866794D01*
X114533663Y-138876465D01*
X114526091Y-138886852D01*
X114518973Y-138897955D01*
X114512306Y-138909773D01*
X114506087Y-138922306D01*
X114500314Y-138935555D01*
X114494984Y-138949520D01*
X114490095Y-138964199D01*
X114485644Y-138979594D01*
X114481629Y-138995703D01*
X114478047Y-139012528D01*
X114474896Y-139030067D01*
X114472174Y-139048321D01*
X114469877Y-139067290D01*
X114468003Y-139086973D01*
X114466550Y-139107371D01*
X114465515Y-139128483D01*
X114464896Y-139150309D01*
X114464690Y-139172850D01*
X114324739Y-139172850D01*
X114325108Y-139142771D01*
X114326213Y-139113624D01*
X114328050Y-139085412D01*
X114330619Y-139058136D01*
X114333916Y-139031798D01*
X114337938Y-139006398D01*
X114342683Y-138981938D01*
X114348148Y-138958420D01*
X114354331Y-138935845D01*
X114361229Y-138914215D01*
X114368840Y-138893531D01*
X114377161Y-138873794D01*
X114386189Y-138855006D01*
X114395921Y-138837168D01*
X114406356Y-138820282D01*
X114417490Y-138804349D01*
X114429322Y-138789370D01*
X114441847Y-138775348D01*
X114455065Y-138762283D01*
X114468971Y-138750176D01*
X114483564Y-138739031D01*
X114498841Y-138728846D01*
X114514800Y-138719625D01*
X114531437Y-138711369D01*
X114548751Y-138704078D01*
X114566738Y-138697755D01*
X114585396Y-138692401D01*
X114604722Y-138688017D01*
X114624715Y-138684604D01*
X114645370Y-138682165D01*
X114666687Y-138680701D01*
X114688661Y-138680212D01*
X114702827Y-138680212D01*
X114724801Y-138680701D01*
G37*
G36*
X115920622Y-138792320D02*
G01*
X115920622Y-138694378D01*
X115906700Y-138680212D01*
X115178612Y-138680212D01*
X115164446Y-138694378D01*
X115164446Y-138792320D01*
X115178612Y-138806242D01*
X115458514Y-138806242D01*
X115472680Y-138820408D01*
X115472680Y-139651078D01*
X115486602Y-139665000D01*
X115598710Y-139665000D01*
X115612632Y-139651078D01*
X115612632Y-138820408D01*
X115626553Y-138806242D01*
X115906700Y-138806242D01*
X115920622Y-138792320D01*
G37*
D12*
G36*
X107223133Y-121577076D02*
G01*
X107223133Y-121055617D01*
X107130321Y-120961584D01*
X105939637Y-120961584D01*
X105893231Y-120915177D01*
X105893231Y-119726936D01*
X105800419Y-119632903D01*
X105277739Y-119632903D01*
X105184927Y-119726936D01*
X105184927Y-120915177D01*
X105138521Y-120961584D01*
X103947837Y-120961584D01*
X103855024Y-121055617D01*
X103855024Y-121577076D01*
X103947837Y-121669888D01*
X105138521Y-121669888D01*
X105184927Y-121716294D01*
X105184927Y-122900872D01*
X105277739Y-122993684D01*
X105800419Y-122993684D01*
X105893231Y-122900872D01*
X105893231Y-121716294D01*
X105939637Y-121669888D01*
X107130321Y-121669888D01*
X107223133Y-121577076D01*
G37*
D11*
G36*
X109982184Y-138680459D02*
G01*
X109999923Y-138681204D01*
X110017231Y-138682452D01*
X110034099Y-138684208D01*
X110050516Y-138686479D01*
X110066473Y-138689269D01*
X110081959Y-138692583D01*
X110096964Y-138696428D01*
X110111477Y-138700808D01*
X110125488Y-138705729D01*
X110138987Y-138711197D01*
X110151963Y-138717217D01*
X110164407Y-138723793D01*
X110176308Y-138730933D01*
X110187655Y-138738640D01*
X110198439Y-138746921D01*
X110208649Y-138755781D01*
X110218275Y-138765225D01*
X110227306Y-138775259D01*
X110235733Y-138785888D01*
X110243544Y-138797117D01*
X110250731Y-138808953D01*
X110257281Y-138821400D01*
X110263186Y-138834463D01*
X110268435Y-138848149D01*
X110273017Y-138862462D01*
X110276923Y-138877408D01*
X110280141Y-138892993D01*
X110282662Y-138909222D01*
X110284476Y-138926099D01*
X110285571Y-138943632D01*
X110285939Y-138961824D01*
X110285694Y-138976179D01*
X110284965Y-138990118D01*
X110283758Y-139003645D01*
X110282083Y-139016763D01*
X110279945Y-139029473D01*
X110277354Y-139041780D01*
X110274317Y-139053686D01*
X110270842Y-139065192D01*
X110266935Y-139076304D01*
X110262606Y-139087022D01*
X110257861Y-139097350D01*
X110252708Y-139107291D01*
X110247156Y-139116847D01*
X110241211Y-139126021D01*
X110234882Y-139134817D01*
X110228175Y-139143236D01*
X110221100Y-139151281D01*
X110213663Y-139158956D01*
X110205872Y-139166263D01*
X110197735Y-139173204D01*
X110189259Y-139179783D01*
X110180453Y-139186003D01*
X110171324Y-139191865D01*
X110161879Y-139197374D01*
X110152126Y-139202531D01*
X110142074Y-139207339D01*
X110131729Y-139211802D01*
X110121100Y-139215922D01*
X110110193Y-139219701D01*
X110099018Y-139223143D01*
X110087581Y-139226251D01*
X110075890Y-139229026D01*
X110075890Y-139242948D01*
X110272017Y-139552648D01*
X110272017Y-139651078D01*
X110257851Y-139665000D01*
X110201919Y-139665000D01*
X110173831Y-139651078D01*
X109922017Y-139257114D01*
X109893929Y-139242948D01*
X109739812Y-139242948D01*
X109725890Y-139257114D01*
X109725890Y-139651078D01*
X109711968Y-139665000D01*
X109599861Y-139665000D01*
X109585939Y-139651078D01*
X109585939Y-139102997D01*
X109725890Y-139102997D01*
X109739812Y-139117163D01*
X109964027Y-139117163D01*
X109975616Y-139117037D01*
X109986799Y-139116658D01*
X109997580Y-139116019D01*
X110007960Y-139115116D01*
X110027528Y-139112497D01*
X110045524Y-139108759D01*
X110061967Y-139103862D01*
X110076877Y-139097766D01*
X110090274Y-139090428D01*
X110102177Y-139081809D01*
X110112606Y-139071867D01*
X110121580Y-139060562D01*
X110129120Y-139047854D01*
X110135245Y-139033700D01*
X110139974Y-139018062D01*
X110143328Y-139000897D01*
X110145326Y-138982164D01*
X110145823Y-138972198D01*
X110145988Y-138961824D01*
X110145823Y-138951429D01*
X110144495Y-138931857D01*
X110141822Y-138913879D01*
X110137783Y-138897452D01*
X110132358Y-138882535D01*
X110125528Y-138869087D01*
X110117273Y-138857068D01*
X110107574Y-138846435D01*
X110096411Y-138837149D01*
X110083763Y-138829166D01*
X110069612Y-138822448D01*
X110053938Y-138816952D01*
X110036721Y-138812636D01*
X110017941Y-138809461D01*
X110007960Y-138808289D01*
X109997580Y-138807385D01*
X109986799Y-138806747D01*
X109975616Y-138806367D01*
X109964027Y-138806242D01*
X109739812Y-138806242D01*
X109725890Y-138820408D01*
X109725890Y-139102997D01*
X109585939Y-139102997D01*
X109585939Y-138694378D01*
X109599861Y-138680212D01*
X109964027Y-138680212D01*
X109982184Y-138680459D01*
G37*
G36*
X111153734Y-139389738D02*
G01*
X111153326Y-139372301D01*
X111152114Y-139355563D01*
X111150113Y-139339510D01*
X111147338Y-139324126D01*
X111143804Y-139309397D01*
X111139527Y-139295308D01*
X111134523Y-139281844D01*
X111128806Y-139268990D01*
X111122392Y-139256732D01*
X111115296Y-139245054D01*
X111107535Y-139233941D01*
X111099123Y-139223380D01*
X111090075Y-139213354D01*
X111080407Y-139203850D01*
X111070135Y-139194851D01*
X111059273Y-139186345D01*
X111047837Y-139178314D01*
X111035843Y-139170746D01*
X111023306Y-139163624D01*
X111010241Y-139156934D01*
X110996664Y-139150662D01*
X110982590Y-139144792D01*
X110968034Y-139139309D01*
X110953012Y-139134199D01*
X110937539Y-139129446D01*
X110921631Y-139125037D01*
X110905303Y-139120956D01*
X110888570Y-139117188D01*
X110871448Y-139113718D01*
X110853952Y-139110532D01*
X110836097Y-139107614D01*
X110817900Y-139104951D01*
X110799880Y-139102407D01*
X110782589Y-139099847D01*
X110766016Y-139097258D01*
X110750151Y-139094625D01*
X110734983Y-139091931D01*
X110720502Y-139089163D01*
X110706698Y-139086305D01*
X110693561Y-139083343D01*
X110681081Y-139080261D01*
X110669246Y-139077045D01*
X110658048Y-139073679D01*
X110647476Y-139070149D01*
X110637519Y-139066440D01*
X110628168Y-139062536D01*
X110611240Y-139054087D01*
X110596610Y-139044682D01*
X110584197Y-139034201D01*
X110573918Y-139022526D01*
X110565692Y-139009536D01*
X110559437Y-138995112D01*
X110555070Y-138979134D01*
X110552510Y-138961484D01*
X110551675Y-138942041D01*
X110552493Y-138927112D01*
X110554933Y-138912854D01*
X110558975Y-138899306D01*
X110564597Y-138886510D01*
X110571779Y-138874504D01*
X110580501Y-138863331D01*
X110590740Y-138853030D01*
X110602478Y-138843641D01*
X110615692Y-138835206D01*
X110630362Y-138827764D01*
X110646468Y-138821356D01*
X110663989Y-138816023D01*
X110682903Y-138811804D01*
X110692876Y-138810126D01*
X110703191Y-138808741D01*
X110713843Y-138807655D01*
X110724831Y-138806873D01*
X110736151Y-138806400D01*
X110747802Y-138806242D01*
X110764494Y-138806401D01*
X110780460Y-138806880D01*
X110795713Y-138807677D01*
X110810267Y-138808794D01*
X110824133Y-138810229D01*
X110837325Y-138811983D01*
X110849856Y-138814055D01*
X110861738Y-138816446D01*
X110872984Y-138819156D01*
X110883607Y-138822184D01*
X110893620Y-138825530D01*
X110903036Y-138829194D01*
X110920127Y-138837476D01*
X110934984Y-138847030D01*
X110947708Y-138857855D01*
X110958402Y-138869950D01*
X110967169Y-138883314D01*
X110974112Y-138897947D01*
X110979334Y-138913848D01*
X110982936Y-138931016D01*
X110985022Y-138949451D01*
X110985695Y-138969152D01*
X110999861Y-138982829D01*
X111111724Y-138982829D01*
X111125890Y-138969152D01*
X111125442Y-138950293D01*
X111124108Y-138932137D01*
X111121907Y-138914675D01*
X111118858Y-138897902D01*
X111114977Y-138881810D01*
X111110283Y-138866392D01*
X111104794Y-138851643D01*
X111098527Y-138837554D01*
X111091502Y-138824120D01*
X111083735Y-138811334D01*
X111075245Y-138799188D01*
X111066050Y-138787677D01*
X111056167Y-138776793D01*
X111045615Y-138766529D01*
X111034412Y-138756880D01*
X111022575Y-138747837D01*
X111010123Y-138739395D01*
X110997074Y-138731546D01*
X110983445Y-138724285D01*
X110969255Y-138717603D01*
X110954521Y-138711495D01*
X110939262Y-138705953D01*
X110923495Y-138700971D01*
X110907239Y-138696542D01*
X110890511Y-138692660D01*
X110873330Y-138689317D01*
X110855713Y-138686507D01*
X110837679Y-138684223D01*
X110819245Y-138682458D01*
X110800429Y-138681206D01*
X110781249Y-138680460D01*
X110761724Y-138680212D01*
X110738543Y-138680617D01*
X110716255Y-138681811D01*
X110694850Y-138683766D01*
X110674316Y-138686454D01*
X110654645Y-138689845D01*
X110635825Y-138693910D01*
X110617847Y-138698621D01*
X110600699Y-138703950D01*
X110584372Y-138709866D01*
X110568856Y-138716342D01*
X110554140Y-138723348D01*
X110540214Y-138730856D01*
X110527067Y-138738838D01*
X110514690Y-138747263D01*
X110503072Y-138756104D01*
X110492202Y-138765331D01*
X110482071Y-138774916D01*
X110472668Y-138784830D01*
X110463983Y-138795044D01*
X110456005Y-138805530D01*
X110448725Y-138816258D01*
X110442132Y-138827200D01*
X110436216Y-138838327D01*
X110430966Y-138849610D01*
X110426372Y-138861020D01*
X110422424Y-138872529D01*
X110419112Y-138884108D01*
X110416425Y-138895728D01*
X110414353Y-138907360D01*
X110412885Y-138918975D01*
X110412013Y-138930545D01*
X110411724Y-138942041D01*
X110412091Y-138957075D01*
X110413187Y-138971637D01*
X110415001Y-138985731D01*
X110417522Y-138999361D01*
X110420741Y-139012534D01*
X110424647Y-139025254D01*
X110429231Y-139037526D01*
X110434481Y-139049355D01*
X110440387Y-139060746D01*
X110446940Y-139071704D01*
X110454128Y-139082234D01*
X110461943Y-139092342D01*
X110470373Y-139102031D01*
X110479409Y-139111308D01*
X110489039Y-139120176D01*
X110499254Y-139128642D01*
X110510044Y-139136710D01*
X110521399Y-139144385D01*
X110533307Y-139151673D01*
X110545759Y-139158577D01*
X110558745Y-139165104D01*
X110572255Y-139171258D01*
X110586277Y-139177044D01*
X110600802Y-139182467D01*
X110615820Y-139187533D01*
X110631321Y-139192246D01*
X110647293Y-139196611D01*
X110663728Y-139200633D01*
X110680614Y-139204317D01*
X110697942Y-139207669D01*
X110715700Y-139210693D01*
X110733880Y-139213394D01*
X110751917Y-139215939D01*
X110769304Y-139218501D01*
X110786046Y-139221098D01*
X110802147Y-139223747D01*
X110817613Y-139226465D01*
X110832450Y-139229271D01*
X110846661Y-139232181D01*
X110860253Y-139235212D01*
X110873230Y-139238383D01*
X110885598Y-139241710D01*
X110897361Y-139245212D01*
X110908524Y-139248905D01*
X110919094Y-139252806D01*
X110929074Y-139256934D01*
X110938470Y-139261305D01*
X110947287Y-139265937D01*
X110963205Y-139276054D01*
X110976869Y-139287423D01*
X110988318Y-139300185D01*
X110997594Y-139314477D01*
X111004738Y-139330439D01*
X111009790Y-139348210D01*
X111012791Y-139367930D01*
X111013536Y-139378564D01*
X111013783Y-139389738D01*
X111013498Y-139399729D01*
X111011258Y-139418538D01*
X111006876Y-139435816D01*
X111000454Y-139451601D01*
X110992095Y-139465934D01*
X110981900Y-139478854D01*
X110969974Y-139490401D01*
X110956416Y-139500615D01*
X110941331Y-139509535D01*
X110924820Y-139517202D01*
X110906985Y-139523654D01*
X110897604Y-139526437D01*
X110887930Y-139528932D01*
X110877976Y-139531143D01*
X110867755Y-139533075D01*
X110857281Y-139534734D01*
X110846564Y-139536124D01*
X110835620Y-139537250D01*
X110824459Y-139538117D01*
X110813096Y-139538730D01*
X110801543Y-139539094D01*
X110789812Y-139539214D01*
X110774264Y-139539054D01*
X110759133Y-139538570D01*
X110744422Y-139537756D01*
X110730137Y-139536609D01*
X110716284Y-139535124D01*
X110702867Y-139533294D01*
X110689891Y-139531117D01*
X110677361Y-139528586D01*
X110665283Y-139525697D01*
X110653661Y-139522445D01*
X110642502Y-139518825D01*
X110631809Y-139514833D01*
X110621588Y-139510462D01*
X110611844Y-139505710D01*
X110602582Y-139500569D01*
X110593807Y-139495037D01*
X110585525Y-139489107D01*
X110577740Y-139482776D01*
X110570457Y-139476037D01*
X110563682Y-139468887D01*
X110557420Y-139461320D01*
X110551675Y-139453332D01*
X110546454Y-139444917D01*
X110541760Y-139436071D01*
X110537600Y-139426789D01*
X110533978Y-139417066D01*
X110530899Y-139406897D01*
X110528368Y-139396278D01*
X110526391Y-139385202D01*
X110524972Y-139373666D01*
X110524118Y-139361665D01*
X110523831Y-139349193D01*
X110509665Y-139335516D01*
X110397802Y-139335516D01*
X110383636Y-139349193D01*
X110384085Y-139368043D01*
X110385425Y-139386349D01*
X110387642Y-139404108D01*
X110390723Y-139421317D01*
X110394657Y-139437972D01*
X110399429Y-139454069D01*
X110405027Y-139469605D01*
X110411438Y-139484577D01*
X110418649Y-139498979D01*
X110426648Y-139512810D01*
X110435422Y-139526064D01*
X110444958Y-139538740D01*
X110455242Y-139550832D01*
X110466263Y-139562338D01*
X110478007Y-139573253D01*
X110490462Y-139583575D01*
X110503614Y-139593299D01*
X110517451Y-139602422D01*
X110531960Y-139610941D01*
X110547128Y-139618850D01*
X110562943Y-139626148D01*
X110579391Y-139632831D01*
X110596460Y-139638894D01*
X110614136Y-139644334D01*
X110632408Y-139649148D01*
X110651262Y-139653332D01*
X110670685Y-139656882D01*
X110690664Y-139659795D01*
X110711187Y-139662066D01*
X110732241Y-139663693D01*
X110753813Y-139664672D01*
X110775890Y-139665000D01*
X110800375Y-139664634D01*
X110823966Y-139663550D01*
X110846668Y-139661767D01*
X110868491Y-139659303D01*
X110889442Y-139656176D01*
X110909528Y-139652406D01*
X110928758Y-139648011D01*
X110947139Y-139643010D01*
X110964678Y-139637421D01*
X110981385Y-139631264D01*
X110997265Y-139624557D01*
X111012328Y-139617318D01*
X111026581Y-139609566D01*
X111040031Y-139601321D01*
X111052686Y-139592600D01*
X111064555Y-139583422D01*
X111075644Y-139573807D01*
X111085961Y-139563772D01*
X111095515Y-139553337D01*
X111104313Y-139542520D01*
X111112363Y-139531340D01*
X111119672Y-139519816D01*
X111126248Y-139507965D01*
X111132099Y-139495808D01*
X111137233Y-139483362D01*
X111141657Y-139470647D01*
X111145379Y-139457680D01*
X111148408Y-139444482D01*
X111150749Y-139431069D01*
X111152413Y-139417462D01*
X111153405Y-139403679D01*
X111153734Y-139389738D01*
G37*
G36*
X111993685Y-138792320D02*
G01*
X111993685Y-138694378D01*
X111979763Y-138680212D01*
X111251675Y-138680212D01*
X111237509Y-138694378D01*
X111237509Y-138792320D01*
X111251675Y-138806242D01*
X111531577Y-138806242D01*
X111545743Y-138820408D01*
X111545743Y-139651078D01*
X111559665Y-139665000D01*
X111671773Y-139665000D01*
X111685695Y-139651078D01*
X111685695Y-138820408D01*
X111699616Y-138806242D01*
X111979763Y-138806242D01*
X111993685Y-138792320D01*
G37*
D12*
G36*
X144443475Y-121577076D02*
G01*
X144443475Y-121055617D01*
X144349442Y-120961584D01*
X141727495Y-120961584D01*
X141634682Y-121055617D01*
X141634682Y-121577076D01*
X141727495Y-121669888D01*
X144349442Y-121669888D01*
X144443475Y-121577076D01*
G37*
D11*
G36*
X133477299Y-138680459D02*
G01*
X133495037Y-138681204D01*
X133512346Y-138682452D01*
X133529214Y-138684208D01*
X133545631Y-138686479D01*
X133561588Y-138689269D01*
X133577074Y-138692583D01*
X133592078Y-138696428D01*
X133606591Y-138700808D01*
X133620603Y-138705729D01*
X133634101Y-138711197D01*
X133647078Y-138717217D01*
X133659522Y-138723793D01*
X133671422Y-138730933D01*
X133682770Y-138738640D01*
X133693554Y-138746921D01*
X133703764Y-138755781D01*
X133713390Y-138765225D01*
X133722421Y-138775259D01*
X133730848Y-138785888D01*
X133738659Y-138797117D01*
X133745845Y-138808953D01*
X133752396Y-138821400D01*
X133758301Y-138834463D01*
X133763550Y-138848149D01*
X133768132Y-138862462D01*
X133772037Y-138877408D01*
X133775256Y-138892993D01*
X133777777Y-138909222D01*
X133779591Y-138926099D01*
X133780686Y-138943632D01*
X133781054Y-138961824D01*
X133780647Y-138979994D01*
X133779438Y-138997503D01*
X133777444Y-139014358D01*
X133774685Y-139030564D01*
X133771177Y-139046127D01*
X133766939Y-139061051D01*
X133761988Y-139075342D01*
X133756343Y-139089006D01*
X133750022Y-139102048D01*
X133743041Y-139114474D01*
X133735420Y-139126289D01*
X133727177Y-139137499D01*
X133718328Y-139148108D01*
X133708893Y-139158123D01*
X133698888Y-139167549D01*
X133688333Y-139176392D01*
X133677245Y-139184656D01*
X133665641Y-139192347D01*
X133653540Y-139199471D01*
X133640960Y-139206034D01*
X133627918Y-139212040D01*
X133614434Y-139217495D01*
X133600523Y-139222405D01*
X133586205Y-139226774D01*
X133571498Y-139230610D01*
X133556418Y-139233916D01*
X133540985Y-139236698D01*
X133525216Y-139238963D01*
X133509130Y-139240714D01*
X133492743Y-139241959D01*
X133476074Y-139242702D01*
X133459142Y-139242948D01*
X133221005Y-139242948D01*
X133207083Y-139257114D01*
X133207083Y-139651078D01*
X133193161Y-139665000D01*
X133081054Y-139665000D01*
X133067132Y-139651078D01*
X133067132Y-139102997D01*
X133207083Y-139102997D01*
X133221005Y-139117163D01*
X133459142Y-139117163D01*
X133470752Y-139117037D01*
X133481954Y-139116658D01*
X133492751Y-139116019D01*
X133503144Y-139115116D01*
X133522733Y-139112497D01*
X133540742Y-139108759D01*
X133557190Y-139103862D01*
X133572099Y-139097766D01*
X133585490Y-139090428D01*
X133597383Y-139081809D01*
X133607799Y-139071867D01*
X133616759Y-139060562D01*
X133624284Y-139047854D01*
X133630394Y-139033700D01*
X133635110Y-139018062D01*
X133638453Y-139000897D01*
X133640444Y-138982164D01*
X133640938Y-138972198D01*
X133641103Y-138961824D01*
X133640938Y-138951429D01*
X133639616Y-138931857D01*
X133636952Y-138913879D01*
X133632925Y-138897452D01*
X133627515Y-138882535D01*
X133620700Y-138869087D01*
X133612460Y-138857068D01*
X133602775Y-138846435D01*
X133591622Y-138837149D01*
X133578983Y-138829166D01*
X133564836Y-138822448D01*
X133549160Y-138816952D01*
X133531934Y-138812636D01*
X133513138Y-138809461D01*
X133503144Y-138808289D01*
X133492751Y-138807385D01*
X133481954Y-138806747D01*
X133470752Y-138806367D01*
X133459142Y-138806242D01*
X133221005Y-138806242D01*
X133207083Y-138820408D01*
X133207083Y-139102997D01*
X133067132Y-139102997D01*
X133067132Y-138694378D01*
X133081054Y-138680212D01*
X133459142Y-138680212D01*
X133477299Y-138680459D01*
G37*
G36*
X134317250Y-138680459D02*
G01*
X134334989Y-138681204D01*
X134352297Y-138682452D01*
X134369165Y-138684208D01*
X134385582Y-138686479D01*
X134401539Y-138689269D01*
X134417025Y-138692583D01*
X134432030Y-138696428D01*
X134446543Y-138700808D01*
X134460554Y-138705729D01*
X134474053Y-138711197D01*
X134487029Y-138717217D01*
X134499473Y-138723793D01*
X134511374Y-138730933D01*
X134522721Y-138738640D01*
X134533505Y-138746921D01*
X134543715Y-138755781D01*
X134553341Y-138765225D01*
X134562372Y-138775259D01*
X134570799Y-138785888D01*
X134578610Y-138797117D01*
X134585797Y-138808953D01*
X134592347Y-138821400D01*
X134598252Y-138834463D01*
X134603501Y-138848149D01*
X134608083Y-138862462D01*
X134611989Y-138877408D01*
X134615207Y-138892993D01*
X134617728Y-138909222D01*
X134619542Y-138926099D01*
X134620637Y-138943632D01*
X134621005Y-138961824D01*
X134620760Y-138976179D01*
X134620031Y-138990118D01*
X134618824Y-139003645D01*
X134617149Y-139016763D01*
X134615011Y-139029473D01*
X134612420Y-139041780D01*
X134609383Y-139053686D01*
X134605908Y-139065192D01*
X134602001Y-139076304D01*
X134597672Y-139087022D01*
X134592927Y-139097350D01*
X134587774Y-139107291D01*
X134582222Y-139116847D01*
X134576277Y-139126021D01*
X134569948Y-139134817D01*
X134563241Y-139143236D01*
X134556166Y-139151281D01*
X134548729Y-139158956D01*
X134540938Y-139166263D01*
X134532801Y-139173204D01*
X134524325Y-139179783D01*
X134515519Y-139186003D01*
X134506390Y-139191865D01*
X134496945Y-139197374D01*
X134487192Y-139202531D01*
X134477140Y-139207339D01*
X134466795Y-139211802D01*
X134456166Y-139215922D01*
X134445259Y-139219701D01*
X134434084Y-139223143D01*
X134422647Y-139226251D01*
X134410956Y-139229026D01*
X134410956Y-139242948D01*
X134607083Y-139552648D01*
X134607083Y-139651078D01*
X134592917Y-139665000D01*
X134536985Y-139665000D01*
X134508897Y-139651078D01*
X134257083Y-139257114D01*
X134228995Y-139242948D01*
X134074878Y-139242948D01*
X134060956Y-139257114D01*
X134060956Y-139651078D01*
X134047034Y-139665000D01*
X133934927Y-139665000D01*
X133921005Y-139651078D01*
X133921005Y-139102997D01*
X134060956Y-139102997D01*
X134074878Y-139117163D01*
X134299093Y-139117163D01*
X134310682Y-139117037D01*
X134321865Y-139116658D01*
X134332646Y-139116019D01*
X134343026Y-139115116D01*
X134362594Y-139112497D01*
X134380590Y-139108759D01*
X134397033Y-139103862D01*
X134411943Y-139097766D01*
X134425340Y-139090428D01*
X134437243Y-139081809D01*
X134447672Y-139071867D01*
X134456646Y-139060562D01*
X134464186Y-139047854D01*
X134470311Y-139033700D01*
X134475040Y-139018062D01*
X134478394Y-139000897D01*
X134480392Y-138982164D01*
X134480889Y-138972198D01*
X134481054Y-138961824D01*
X134480889Y-138951429D01*
X134479561Y-138931857D01*
X134476888Y-138913879D01*
X134472849Y-138897452D01*
X134467424Y-138882535D01*
X134460594Y-138869087D01*
X134452339Y-138857068D01*
X134442640Y-138846435D01*
X134431477Y-138837149D01*
X134418829Y-138829166D01*
X134404678Y-138822448D01*
X134389004Y-138816952D01*
X134371787Y-138812636D01*
X134353007Y-138809461D01*
X134343026Y-138808289D01*
X134332646Y-138807385D01*
X134321865Y-138806747D01*
X134310682Y-138806367D01*
X134299093Y-138806242D01*
X134074878Y-138806242D01*
X134060956Y-138820408D01*
X134060956Y-139102997D01*
X133921005Y-139102997D01*
X133921005Y-138694378D01*
X133934927Y-138680212D01*
X134299093Y-138680212D01*
X134317250Y-138680459D01*
G37*
G36*
X135320761Y-139327212D02*
G01*
X135320516Y-139339467D01*
X135319786Y-139351408D01*
X135318580Y-139363030D01*
X135316905Y-139374329D01*
X135314768Y-139385298D01*
X135312178Y-139395934D01*
X135309142Y-139406231D01*
X135305667Y-139416185D01*
X135301762Y-139425790D01*
X135297435Y-139435042D01*
X135292693Y-139443935D01*
X135287543Y-139452465D01*
X135281994Y-139460627D01*
X135276053Y-139468416D01*
X135263028Y-139482855D01*
X135248528Y-139495743D01*
X135232616Y-139507040D01*
X135224150Y-139512080D01*
X135215354Y-139516707D01*
X135206236Y-139520917D01*
X135196804Y-139524705D01*
X135187065Y-139528065D01*
X135177027Y-139530994D01*
X135166698Y-139533485D01*
X135156085Y-139535535D01*
X135145197Y-139537137D01*
X135134041Y-139538288D01*
X135122625Y-139538982D01*
X135110956Y-139539214D01*
X135096713Y-139538903D01*
X135082884Y-139537961D01*
X135069470Y-139536382D01*
X135056475Y-139534158D01*
X135043901Y-139531279D01*
X135031750Y-139527738D01*
X135020025Y-139523527D01*
X135008729Y-139518637D01*
X134997864Y-139513060D01*
X134987432Y-139506788D01*
X134977437Y-139499812D01*
X134967881Y-139492125D01*
X134958766Y-139483718D01*
X134950094Y-139474583D01*
X134941870Y-139464712D01*
X134934094Y-139454096D01*
X134926769Y-139442727D01*
X134919899Y-139430597D01*
X134913485Y-139417699D01*
X134907531Y-139404022D01*
X134902038Y-139389560D01*
X134897009Y-139374304D01*
X134892448Y-139358246D01*
X134888355Y-139341378D01*
X134884735Y-139323691D01*
X134881589Y-139305177D01*
X134878920Y-139285828D01*
X134876730Y-139265636D01*
X134875023Y-139244592D01*
X134873800Y-139222689D01*
X134873065Y-139199917D01*
X134872819Y-139176270D01*
X134873026Y-139152279D01*
X134873651Y-139129167D01*
X134874702Y-139106926D01*
X134876187Y-139085547D01*
X134878113Y-139065024D01*
X134880488Y-139045348D01*
X134883319Y-139026512D01*
X134886615Y-139008509D01*
X134890383Y-138991330D01*
X134894630Y-138974969D01*
X134899365Y-138959416D01*
X134904594Y-138944666D01*
X134910326Y-138930709D01*
X134916568Y-138917539D01*
X134923328Y-138905148D01*
X134930613Y-138893528D01*
X134938432Y-138882671D01*
X134946791Y-138872571D01*
X134955698Y-138863218D01*
X134965162Y-138854606D01*
X134975189Y-138846727D01*
X134985787Y-138839573D01*
X134996965Y-138833137D01*
X135008729Y-138827411D01*
X135021087Y-138822387D01*
X135034048Y-138818057D01*
X135047617Y-138814415D01*
X135061805Y-138811452D01*
X135076616Y-138809161D01*
X135092061Y-138807534D01*
X135108145Y-138806563D01*
X135124878Y-138806242D01*
X135137713Y-138806441D01*
X135149988Y-138807033D01*
X135161714Y-138808011D01*
X135172905Y-138809368D01*
X135183573Y-138811095D01*
X135193731Y-138813186D01*
X135203392Y-138815632D01*
X135221274Y-138821563D01*
X135237320Y-138828828D01*
X135251634Y-138837367D01*
X135264318Y-138847121D01*
X135275473Y-138858029D01*
X135285203Y-138870032D01*
X135293609Y-138883071D01*
X135300795Y-138897085D01*
X135306861Y-138912014D01*
X135311911Y-138927800D01*
X135316047Y-138944382D01*
X135319371Y-138961700D01*
X135320761Y-138970617D01*
X135334927Y-138984295D01*
X135446790Y-138984295D01*
X135460956Y-138970617D01*
X135459461Y-138957729D01*
X135457616Y-138944775D01*
X135455399Y-138931789D01*
X135452786Y-138918799D01*
X135449754Y-138905838D01*
X135446280Y-138892936D01*
X135442341Y-138880125D01*
X135437913Y-138867436D01*
X135432974Y-138854899D01*
X135427500Y-138842547D01*
X135421468Y-138830409D01*
X135414854Y-138818517D01*
X135407637Y-138806903D01*
X135399792Y-138795596D01*
X135391296Y-138784629D01*
X135382127Y-138774032D01*
X135372260Y-138763837D01*
X135361674Y-138754074D01*
X135350344Y-138744774D01*
X135338248Y-138735970D01*
X135325362Y-138727691D01*
X135311663Y-138719969D01*
X135297129Y-138712835D01*
X135281735Y-138706320D01*
X135265459Y-138700455D01*
X135248278Y-138695271D01*
X135230168Y-138690799D01*
X135211106Y-138687071D01*
X135191069Y-138684117D01*
X135170035Y-138681968D01*
X135147978Y-138680657D01*
X135124878Y-138680212D01*
X135101577Y-138680663D01*
X135078937Y-138682019D01*
X135056965Y-138684286D01*
X135035665Y-138687472D01*
X135015043Y-138691584D01*
X134995102Y-138696626D01*
X134975849Y-138702607D01*
X134957289Y-138709533D01*
X134939426Y-138717410D01*
X134922267Y-138726245D01*
X134905815Y-138736044D01*
X134890076Y-138746815D01*
X134875055Y-138758563D01*
X134860757Y-138771295D01*
X134847187Y-138785018D01*
X134834351Y-138799739D01*
X134822253Y-138815463D01*
X134810899Y-138832198D01*
X134800293Y-138849950D01*
X134790442Y-138868725D01*
X134781349Y-138888531D01*
X134773020Y-138909374D01*
X134765460Y-138931260D01*
X134758674Y-138954196D01*
X134752667Y-138978188D01*
X134747445Y-139003243D01*
X134743012Y-139029369D01*
X134739374Y-139056570D01*
X134736535Y-139084854D01*
X134734501Y-139114228D01*
X134733277Y-139144697D01*
X134732868Y-139176270D01*
X134733277Y-139207262D01*
X134734498Y-139237182D01*
X134736524Y-139266037D01*
X134739347Y-139293831D01*
X134742959Y-139320571D01*
X134747353Y-139346261D01*
X134752522Y-139370909D01*
X134758456Y-139394520D01*
X134765150Y-139417099D01*
X134772595Y-139438652D01*
X134780783Y-139459185D01*
X134789708Y-139478705D01*
X134799360Y-139497216D01*
X134809733Y-139514724D01*
X134820819Y-139531235D01*
X134832611Y-139546755D01*
X134845100Y-139561290D01*
X134858279Y-139574846D01*
X134872140Y-139587427D01*
X134886677Y-139599041D01*
X134901880Y-139609692D01*
X134917743Y-139619387D01*
X134934257Y-139628132D01*
X134951416Y-139635931D01*
X134969211Y-139642791D01*
X134987635Y-139648718D01*
X135006680Y-139653717D01*
X135026339Y-139657794D01*
X135046603Y-139660955D01*
X135067466Y-139663206D01*
X135088920Y-139664552D01*
X135110956Y-139665000D01*
X135121321Y-139664837D01*
X135131441Y-139664358D01*
X135141316Y-139663571D01*
X135160331Y-139661116D01*
X135178366Y-139657556D01*
X135195419Y-139652971D01*
X135211490Y-139647444D01*
X135226578Y-139641057D01*
X135240682Y-139633891D01*
X135253803Y-139626029D01*
X135265938Y-139617553D01*
X135277088Y-139608544D01*
X135287251Y-139599084D01*
X135296428Y-139589256D01*
X135304616Y-139579141D01*
X135311816Y-139568821D01*
X135318027Y-139558378D01*
X135320761Y-139553136D01*
X135334927Y-139553136D01*
X135348849Y-139637156D01*
X135362770Y-139665000D01*
X135446790Y-139665000D01*
X135460956Y-139651078D01*
X135460956Y-139162348D01*
X135446790Y-139148426D01*
X135082868Y-139148426D01*
X135068946Y-139162348D01*
X135068946Y-139260289D01*
X135082868Y-139274211D01*
X135306839Y-139274211D01*
X135320761Y-139288377D01*
X135320761Y-139327212D01*
G37*
D13*
%TO.C,C80*%
X167110000Y-134892164D02*
X167110000Y-135107836D01*
X166390000Y-134892164D02*
X166390000Y-135107836D01*
%TO.C,C37*%
X80440000Y-71800000D02*
X80440000Y-71300000D01*
X80190000Y-71550000D02*
X80690000Y-71550000D01*
X80804437Y-71060000D02*
X80940000Y-71060000D01*
X80804437Y-71060000D02*
X79740000Y-69995563D01*
X83195563Y-71060000D02*
X83060000Y-71060000D01*
X83195563Y-71060000D02*
X84260000Y-69995563D01*
X79740000Y-69995563D02*
X79740000Y-66540000D01*
X84260000Y-69995563D02*
X84260000Y-66540000D01*
X79740000Y-66540000D02*
X80940000Y-66540000D01*
X84260000Y-66540000D02*
X83060000Y-66540000D01*
%TO.C,C28*%
X136860000Y-100372164D02*
X136860000Y-100587836D01*
X136140000Y-100372164D02*
X136140000Y-100587836D01*
%TO.C,L3*%
X94510000Y-64240000D02*
X94360000Y-64240000D01*
X94510000Y-64240000D02*
X94510000Y-68760000D01*
X89990000Y-64240000D02*
X90140000Y-64240000D01*
X89990000Y-64240000D02*
X89990000Y-68760000D01*
X94510000Y-68760000D02*
X94360000Y-68760000D01*
X89990000Y-68760000D02*
X90140000Y-68760000D01*
%TO.C,C13*%
X109607836Y-107360000D02*
X109392164Y-107360000D01*
X109607836Y-106640000D02*
X109392164Y-106640000D01*
%TO.C,J16*%
X145700000Y-153000000D02*
X145700000Y-151200000D01*
X145700000Y-153000000D02*
X139300000Y-153000000D01*
X145700000Y-140900000D02*
X145700000Y-141400000D01*
X145000000Y-155000000D02*
X145000000Y-153000000D01*
X145000000Y-155000000D02*
X142500000Y-155000000D01*
X144100000Y-151900000D02*
X144100000Y-153000000D01*
X144100000Y-151900000D02*
X140900000Y-151900000D01*
X142500000Y-155000000D02*
X140000000Y-155000000D01*
X140900000Y-151900000D02*
X140900000Y-153000000D01*
X140000000Y-155000000D02*
X140000000Y-153000000D01*
X139800000Y-140900000D02*
X145700000Y-140900000D01*
X139300000Y-153000000D02*
X139300000Y-151200000D01*
%TO.C,D14*%
X77562959Y-136350000D02*
X77562959Y-139650000D01*
X77562959Y-136350000D02*
X83072959Y-136350000D01*
X77562959Y-139650000D02*
X83072959Y-139650000D01*
%TO.C,R5*%
X140620000Y-65903641D02*
X140620000Y-65596359D01*
X141380000Y-65903641D02*
X141380000Y-65596359D01*
%TO.C,C53*%
X60140000Y-85587836D02*
X60140000Y-85372164D01*
X60860000Y-85587836D02*
X60860000Y-85372164D01*
%TO.C,C62*%
X168110000Y-126642164D02*
X168110000Y-126857836D01*
X167390000Y-126642164D02*
X167390000Y-126857836D01*
%TO.C,C41*%
X59640000Y-77587836D02*
X59640000Y-77372164D01*
X60360000Y-77587836D02*
X60360000Y-77372164D01*
%TO.C,C66*%
X174560000Y-129185000D02*
X174560000Y-127315000D01*
X174560000Y-127315000D02*
X170650000Y-127315000D01*
X170650000Y-129185000D02*
X174560000Y-129185000D01*
%TO.C,R4*%
X124370000Y-116403641D02*
X124370000Y-116096359D01*
X125130000Y-116403641D02*
X125130000Y-116096359D01*
%TO.C,C17*%
X111627836Y-96110000D02*
X111412164Y-96110000D01*
X111627836Y-95390000D02*
X111412164Y-95390000D01*
%TO.C,C26*%
X122142164Y-88890000D02*
X122357836Y-88890000D01*
X122142164Y-89610000D02*
X122357836Y-89610000D01*
%TO.C,R83*%
X167022500Y-137262742D02*
X167022500Y-137737258D01*
X165977500Y-137262742D02*
X165977500Y-137737258D01*
%TO.C,C18*%
X133642164Y-114390000D02*
X133857836Y-114390000D01*
X133642164Y-115110000D02*
X133857836Y-115110000D01*
%TO.C,C12*%
X110607836Y-111360000D02*
X110392164Y-111360000D01*
X110607836Y-110640000D02*
X110392164Y-110640000D01*
%TO.C,C25*%
X111627836Y-107360000D02*
X111412164Y-107360000D01*
X111627836Y-106640000D02*
X111412164Y-106640000D01*
%TO.C,D5*%
X84040000Y-59185000D02*
X85960000Y-59185000D01*
X85960000Y-59185000D02*
X85960000Y-56500000D01*
X84040000Y-56500000D02*
X84040000Y-59185000D01*
%TO.C,U7*%
X135700000Y-140840000D02*
X134110000Y-140840000D01*
X135700000Y-142660000D02*
X134300000Y-142660000D01*
%TO.C,R29*%
X189780000Y-77336359D02*
X189780000Y-77643641D01*
X189020000Y-77336359D02*
X189020000Y-77643641D01*
%TO.C,C67*%
X165860000Y-134892164D02*
X165860000Y-135107836D01*
X165140000Y-134892164D02*
X165140000Y-135107836D01*
%TO.C,C68*%
X164860000Y-134892164D02*
X164860000Y-135107836D01*
X164140000Y-134892164D02*
X164140000Y-135107836D01*
%TO.C,C70*%
X163610000Y-134642164D02*
X163610000Y-134857836D01*
X162890000Y-134642164D02*
X162890000Y-134857836D01*
%TO.C,D10*%
X64850000Y-108510000D02*
X68150000Y-108510000D01*
X64850000Y-108510000D02*
X64850000Y-103000000D01*
X68150000Y-108510000D02*
X68150000Y-103000000D01*
%TO.C,U5*%
X97235000Y-139120000D02*
X97235000Y-131380000D01*
X97235000Y-131380000D02*
X90765000Y-131380000D01*
X95000000Y-139120000D02*
X97235000Y-139120000D01*
X90765000Y-139120000D02*
X93000000Y-139120000D01*
X90765000Y-131380000D02*
X90765000Y-139120000D01*
X95000000Y-139120000D02*
G75*
G03*
X93000000Y-139120000I-1000000J0D01*
G01*
%TO.C,R11*%
X108120000Y-136653641D02*
X108120000Y-136346359D01*
X108880000Y-136653641D02*
X108880000Y-136346359D01*
%TO.C,C10*%
X110607836Y-110360000D02*
X110392164Y-110360000D01*
X110607836Y-109640000D02*
X110392164Y-109640000D01*
%TO.C,C69*%
X162357836Y-133110000D02*
X162142164Y-133110000D01*
X162357836Y-132390000D02*
X162142164Y-132390000D01*
%TO.C,J11*%
X85450000Y-153000000D02*
X85450000Y-151200000D01*
X85450000Y-153000000D02*
X79050000Y-153000000D01*
X85450000Y-140900000D02*
X85450000Y-141400000D01*
X84750000Y-155000000D02*
X84750000Y-153000000D01*
X84750000Y-155000000D02*
X82250000Y-155000000D01*
X83850000Y-151900000D02*
X83850000Y-153000000D01*
X83850000Y-151900000D02*
X80650000Y-151900000D01*
X82250000Y-155000000D02*
X79750000Y-155000000D01*
X80650000Y-151900000D02*
X80650000Y-153000000D01*
X79750000Y-155000000D02*
X79750000Y-153000000D01*
X79550000Y-140900000D02*
X85450000Y-140900000D01*
X79050000Y-153000000D02*
X79050000Y-151200000D01*
%TO.C,D11*%
X101600000Y-132415000D02*
X100400000Y-132415000D01*
X101600000Y-134375000D02*
X101600000Y-132415000D01*
X100400000Y-134375000D02*
X100400000Y-132415000D01*
%TO.C,R8*%
X81735000Y-57272936D02*
X81735000Y-57727064D01*
X80265000Y-57272936D02*
X80265000Y-57727064D01*
%TO.C,SW1*%
X109180000Y-137570000D02*
X109180000Y-133430000D01*
X109480000Y-137570000D02*
X109180000Y-137570000D01*
X112320000Y-137570000D02*
X112020000Y-137570000D01*
X109180000Y-133430000D02*
X109480000Y-133430000D01*
X112020000Y-133430000D02*
X112320000Y-133430000D01*
X112320000Y-133430000D02*
X112320000Y-137570000D01*
%TO.C,R43*%
X127630000Y-143596359D02*
X127630000Y-143903641D01*
X126870000Y-143596359D02*
X126870000Y-143903641D01*
%TO.C,C60*%
X178860000Y-126642164D02*
X178860000Y-126857836D01*
X178140000Y-126642164D02*
X178140000Y-126857836D01*
%TO.C,R48*%
X68815000Y-138227064D02*
X68815000Y-137772936D01*
X70285000Y-138227064D02*
X70285000Y-137772936D01*
%TO.C,J5*%
X182750000Y-104000000D02*
X182750000Y-105000000D01*
X182750000Y-105000000D02*
X183750000Y-104500000D01*
X183750000Y-104500000D02*
X182750000Y-104000000D01*
X189370000Y-99290000D02*
X198490000Y-99290000D01*
X189370000Y-104990000D02*
X198490000Y-104990000D01*
X189370000Y-109090000D02*
X198490000Y-109090000D01*
X189370000Y-114790000D02*
X189370000Y-99290000D01*
X198490000Y-99290000D02*
X198490000Y-114790000D01*
X198490000Y-114790000D02*
X189370000Y-114790000D01*
D14*
%TO.C,U13*%
X164500000Y-129000000D02*
X164500000Y-129170000D01*
X164500000Y-129000000D02*
X164670000Y-129000000D01*
X164500000Y-133000000D02*
X164500000Y-132830000D01*
X164500000Y-133000000D02*
X164670000Y-133000000D01*
X168500000Y-129000000D02*
X168330000Y-129000000D01*
X168500000Y-129000000D02*
X168500000Y-129170000D01*
X168500000Y-133000000D02*
X168330000Y-133000000D01*
X168500000Y-133000000D02*
X168500000Y-132830000D01*
D15*
X163680000Y-129600000D02*
G75*
G03*
X163680000Y-129600000I-100000J0D01*
G01*
D13*
%TO.C,C64*%
X174107836Y-124610000D02*
X173892164Y-124610000D01*
X174107836Y-123890000D02*
X173892164Y-123890000D01*
%TO.C,C52*%
X187640000Y-86107836D02*
X187640000Y-85892164D01*
X188360000Y-86107836D02*
X188360000Y-85892164D01*
%TO.C,U9*%
X71600000Y-139160000D02*
X73000000Y-139160000D01*
X73000000Y-136840000D02*
X71100000Y-136840000D01*
%TO.C,R6*%
X139620000Y-65903641D02*
X139620000Y-65596359D01*
X140380000Y-65903641D02*
X140380000Y-65596359D01*
%TO.C,C27*%
X136892164Y-94390000D02*
X137107836Y-94390000D01*
X136892164Y-95110000D02*
X137107836Y-95110000D01*
%TO.C,C14*%
X122857836Y-115110000D02*
X122642164Y-115110000D01*
X122857836Y-114390000D02*
X122642164Y-114390000D01*
%TO.C,C50*%
X175860000Y-54392164D02*
X175860000Y-54607836D01*
X175140000Y-54392164D02*
X175140000Y-54607836D01*
%TO.C,R52*%
X62880000Y-85346359D02*
X62880000Y-85653641D01*
X62120000Y-85346359D02*
X62120000Y-85653641D01*
%TO.C,R80*%
X173012742Y-133977500D02*
X173487258Y-133977500D01*
X173012742Y-135022500D02*
X173487258Y-135022500D01*
%TO.C,R3*%
X123370000Y-116403641D02*
X123370000Y-116096359D01*
X124130000Y-116403641D02*
X124130000Y-116096359D01*
%TO.C,R58*%
X126370000Y-132403641D02*
X126370000Y-132096359D01*
X127130000Y-132403641D02*
X127130000Y-132096359D01*
%TO.C,R49*%
X75785000Y-137772936D02*
X75785000Y-138227064D01*
X74315000Y-137772936D02*
X74315000Y-138227064D01*
%TO.C,R35*%
X62380000Y-77326359D02*
X62380000Y-77633641D01*
X61620000Y-77326359D02*
X61620000Y-77633641D01*
%TO.C,R55*%
X122370000Y-132403641D02*
X122370000Y-132096359D01*
X123130000Y-132403641D02*
X123130000Y-132096359D01*
%TO.C,R76*%
X168272500Y-124012742D02*
X168272500Y-124487258D01*
X167227500Y-124012742D02*
X167227500Y-124487258D01*
%TO.C,J19*%
X181700000Y-153000000D02*
X181700000Y-151200000D01*
X181700000Y-153000000D02*
X175300000Y-153000000D01*
X181700000Y-140900000D02*
X181700000Y-141400000D01*
X181000000Y-155000000D02*
X181000000Y-153000000D01*
X181000000Y-155000000D02*
X178500000Y-155000000D01*
X180100000Y-151900000D02*
X180100000Y-153000000D01*
X180100000Y-151900000D02*
X176900000Y-151900000D01*
X178500000Y-155000000D02*
X176000000Y-155000000D01*
X176900000Y-151900000D02*
X176900000Y-153000000D01*
X176000000Y-155000000D02*
X176000000Y-153000000D01*
X175800000Y-140900000D02*
X181700000Y-140900000D01*
X175300000Y-153000000D02*
X175300000Y-151200000D01*
%TO.C,U2*%
X114140000Y-92390000D02*
X114140000Y-93340000D01*
X114140000Y-93340000D02*
X112850000Y-93340000D01*
X114140000Y-112610000D02*
X114140000Y-111660000D01*
X115090000Y-92390000D02*
X114140000Y-92390000D01*
X115090000Y-112610000D02*
X114140000Y-112610000D01*
X133410000Y-92390000D02*
X134360000Y-92390000D01*
X133410000Y-112610000D02*
X134360000Y-112610000D01*
X134360000Y-92390000D02*
X134360000Y-93340000D01*
X134360000Y-112610000D02*
X134360000Y-111660000D01*
%TO.C,J8*%
X109450000Y-153000000D02*
X109450000Y-151200000D01*
X109450000Y-153000000D02*
X103050000Y-153000000D01*
X109450000Y-140900000D02*
X109450000Y-141400000D01*
X108750000Y-155000000D02*
X108750000Y-153000000D01*
X108750000Y-155000000D02*
X106250000Y-155000000D01*
X107850000Y-151900000D02*
X107850000Y-153000000D01*
X107850000Y-151900000D02*
X104650000Y-151900000D01*
X106250000Y-155000000D02*
X103750000Y-155000000D01*
X104650000Y-151900000D02*
X104650000Y-153000000D01*
X103750000Y-155000000D02*
X103750000Y-153000000D01*
X103550000Y-140900000D02*
X109450000Y-140900000D01*
X103050000Y-153000000D02*
X103050000Y-151200000D01*
%TO.C,C43*%
X60640000Y-77587836D02*
X60640000Y-77372164D01*
X61360000Y-77587836D02*
X61360000Y-77372164D01*
%TO.C,C77*%
X170642164Y-133890000D02*
X170857836Y-133890000D01*
X170642164Y-134610000D02*
X170857836Y-134610000D01*
%TO.C,SW2*%
X112680000Y-137570000D02*
X112680000Y-133430000D01*
X112980000Y-137570000D02*
X112680000Y-137570000D01*
X115820000Y-137570000D02*
X115520000Y-137570000D01*
X112680000Y-133430000D02*
X112980000Y-133430000D01*
X115520000Y-133430000D02*
X115820000Y-133430000D01*
X115820000Y-133430000D02*
X115820000Y-137570000D01*
%TO.C,J6*%
X65750000Y-110000000D02*
X65750000Y-109000000D01*
X65750000Y-109000000D02*
X64750000Y-109500000D01*
X64750000Y-109500000D02*
X65750000Y-110000000D01*
X59130000Y-114710000D02*
X50010000Y-114710000D01*
X59130000Y-109010000D02*
X50010000Y-109010000D01*
X59130000Y-104910000D02*
X50010000Y-104910000D01*
X59130000Y-99210000D02*
X59130000Y-114710000D01*
X50010000Y-114710000D02*
X50010000Y-99210000D01*
X50010000Y-99210000D02*
X59130000Y-99210000D01*
%TO.C,C75*%
X162357836Y-132110000D02*
X162142164Y-132110000D01*
X162357836Y-131390000D02*
X162142164Y-131390000D01*
%TO.C,R20*%
X91735000Y-57272936D02*
X91735000Y-57727064D01*
X90265000Y-57272936D02*
X90265000Y-57727064D01*
%TO.C,C42*%
X61140000Y-67107836D02*
X61140000Y-66892164D01*
X61860000Y-67107836D02*
X61860000Y-66892164D01*
%TO.C,R73*%
X176487258Y-128272500D02*
X176012742Y-128272500D01*
X176487258Y-127227500D02*
X176012742Y-127227500D01*
%TO.C,C72*%
X170642164Y-130640000D02*
X170857836Y-130640000D01*
X170642164Y-131360000D02*
X170857836Y-131360000D01*
%TO.C,R59*%
X125370000Y-132393641D02*
X125370000Y-132086359D01*
X126130000Y-132393641D02*
X126130000Y-132086359D01*
D16*
%TO.C,SW3*%
X90000000Y-52863000D02*
X88676000Y-52863000D01*
X90000000Y-52194000D02*
X90000000Y-52863000D01*
X90000000Y-50063000D02*
X90000000Y-50731000D01*
X90000000Y-50063000D02*
X80000000Y-50063000D01*
X87324000Y-52863000D02*
X84176000Y-52863000D01*
X86300000Y-50063000D02*
X86300000Y-48563000D01*
X86300000Y-48563000D02*
X85000000Y-48563000D01*
X85000000Y-48563000D02*
X85000000Y-50063000D01*
X82824000Y-52863000D02*
X82676000Y-52863000D01*
X81324000Y-52863000D02*
X80000000Y-52863000D01*
X80000000Y-52194000D02*
X80000000Y-52863000D01*
X80000000Y-50063000D02*
X80000000Y-50731000D01*
D13*
%TO.C,J1*%
X169505000Y-66885000D02*
X169505000Y-63275000D01*
X169505000Y-61575000D02*
X169505000Y-56875000D01*
X169505000Y-55575000D02*
X169505000Y-53775000D01*
X169055000Y-66885000D02*
X169505000Y-66885000D01*
X168475000Y-50615000D02*
X168675000Y-50815000D01*
X168475000Y-50615000D02*
X166615000Y-50615000D01*
X166615000Y-50615000D02*
X166405000Y-50815000D01*
X166405000Y-50965000D02*
X166405000Y-50815000D01*
X166405000Y-50965000D02*
X160035000Y-50965000D01*
X159525000Y-50615000D02*
X160035000Y-50965000D01*
X157455000Y-66885000D02*
X155535000Y-66885000D01*
X157215000Y-50615000D02*
X159525000Y-50615000D01*
X157215000Y-50615000D02*
X157015000Y-50815000D01*
X157015000Y-50815000D02*
X156755000Y-50815000D01*
X155535000Y-66885000D02*
X155535000Y-52875000D01*
%TO.C,R77*%
X176262742Y-125727500D02*
X176737258Y-125727500D01*
X176262742Y-126772500D02*
X176737258Y-126772500D01*
%TO.C,J9*%
X125550000Y-149100000D02*
X125550000Y-151100000D01*
X125550000Y-153000000D02*
X125550000Y-154900000D01*
X125550000Y-154900000D02*
X134950000Y-154900000D01*
X134950000Y-149100000D02*
X134950000Y-151100000D01*
X134950000Y-153000000D02*
X134950000Y-154900000D01*
%TO.C,U6*%
X104340000Y-133588438D02*
X104340000Y-134988438D01*
X106660000Y-134988438D02*
X106660000Y-133088438D01*
%TO.C,R82*%
X168522500Y-137262742D02*
X168522500Y-137737258D01*
X167477500Y-137262742D02*
X167477500Y-137737258D01*
%TO.C,R74*%
X176262742Y-123977500D02*
X176737258Y-123977500D01*
X176262742Y-125022500D02*
X176737258Y-125022500D01*
%TO.C,R79*%
X171737258Y-126772500D02*
X171262742Y-126772500D01*
X171737258Y-125727500D02*
X171262742Y-125727500D01*
%TO.C,R10*%
X116380000Y-89596359D02*
X116380000Y-89903641D01*
X115620000Y-89596359D02*
X115620000Y-89903641D01*
%TO.C,C15*%
X127857836Y-115110000D02*
X127642164Y-115110000D01*
X127857836Y-114390000D02*
X127642164Y-114390000D01*
%TO.C,R36*%
X63380000Y-77316359D02*
X63380000Y-77623641D01*
X62620000Y-77316359D02*
X62620000Y-77623641D01*
%TO.C,J7*%
X97450000Y-153000000D02*
X97450000Y-151200000D01*
X97450000Y-153000000D02*
X91050000Y-153000000D01*
X97450000Y-140900000D02*
X97450000Y-141400000D01*
X96750000Y-155000000D02*
X96750000Y-153000000D01*
X96750000Y-155000000D02*
X94250000Y-155000000D01*
X95850000Y-151900000D02*
X95850000Y-153000000D01*
X95850000Y-151900000D02*
X92650000Y-151900000D01*
X94250000Y-155000000D02*
X91750000Y-155000000D01*
X92650000Y-151900000D02*
X92650000Y-153000000D01*
X91750000Y-155000000D02*
X91750000Y-153000000D01*
X91550000Y-140900000D02*
X97450000Y-140900000D01*
X91050000Y-153000000D02*
X91050000Y-151200000D01*
%TO.C,C65*%
X174107836Y-126860000D02*
X173892164Y-126860000D01*
X174107836Y-126140000D02*
X173892164Y-126140000D01*
%TO.C,R57*%
X123370000Y-132403641D02*
X123370000Y-132096359D01*
X124130000Y-132403641D02*
X124130000Y-132096359D01*
%TO.C,R25*%
X185020000Y-77653641D02*
X185020000Y-77346359D01*
X185780000Y-77653641D02*
X185780000Y-77346359D01*
%TO.C,C38*%
X187040000Y-77627836D02*
X187040000Y-77412164D01*
X187760000Y-77627836D02*
X187760000Y-77412164D01*
%TO.C,R53*%
X61120000Y-85653641D02*
X61120000Y-85346359D01*
X61880000Y-85653641D02*
X61880000Y-85346359D01*
%TO.C,J10*%
X113550000Y-149100000D02*
X113550000Y-151100000D01*
X113550000Y-153000000D02*
X113550000Y-154900000D01*
X113550000Y-154900000D02*
X122950000Y-154900000D01*
X122950000Y-149100000D02*
X122950000Y-151100000D01*
X122950000Y-153000000D02*
X122950000Y-154900000D01*
%TO.C,R75*%
X166772500Y-124012742D02*
X166772500Y-124487258D01*
X165727500Y-124012742D02*
X165727500Y-124487258D01*
%TO.C,R32*%
X59380000Y-77316359D02*
X59380000Y-77623641D01*
X58620000Y-77316359D02*
X58620000Y-77623641D01*
%TO.C,R51*%
X188620000Y-86153641D02*
X188620000Y-85846359D01*
X189380000Y-86153641D02*
X189380000Y-85846359D01*
%TO.C,R40*%
X107235000Y-137511374D02*
X107235000Y-137965502D01*
X105765000Y-137511374D02*
X105765000Y-137965502D01*
%TO.C,R33*%
X59880000Y-66846359D02*
X59880000Y-67153641D01*
X59120000Y-66846359D02*
X59120000Y-67153641D01*
%TO.C,R21*%
X89735000Y-57272936D02*
X89735000Y-57727064D01*
X88265000Y-57272936D02*
X88265000Y-57727064D01*
%TO.C,C19*%
X136860000Y-105892164D02*
X136860000Y-106107836D01*
X136140000Y-105892164D02*
X136140000Y-106107836D01*
%TO.C,C78*%
X169610000Y-134892164D02*
X169610000Y-135107836D01*
X168890000Y-134892164D02*
X168890000Y-135107836D01*
%TO.C,D9*%
X183650000Y-105490000D02*
X180350000Y-105490000D01*
X183650000Y-105490000D02*
X183650000Y-111000000D01*
X180350000Y-105490000D02*
X180350000Y-111000000D01*
%TO.C,C49*%
X89060000Y-92000000D02*
X89060000Y-92500000D01*
X89310000Y-92250000D02*
X88810000Y-92250000D01*
X88695563Y-92740000D02*
X88560000Y-92740000D01*
X88695563Y-92740000D02*
X89760000Y-93804437D01*
X86304437Y-92740000D02*
X86440000Y-92740000D01*
X86304437Y-92740000D02*
X85240000Y-93804437D01*
X89760000Y-93804437D02*
X89760000Y-97260000D01*
X85240000Y-93804437D02*
X85240000Y-97260000D01*
X89760000Y-97260000D02*
X88560000Y-97260000D01*
X85240000Y-97260000D02*
X86440000Y-97260000D01*
%TO.C,R41*%
X103765000Y-137965502D02*
X103765000Y-137511374D01*
X105235000Y-137965502D02*
X105235000Y-137511374D01*
%TO.C,C46*%
X129985000Y-143488748D02*
X129985000Y-144011252D01*
X128515000Y-143488748D02*
X128515000Y-144011252D01*
%TO.C,R9*%
X108120000Y-134653641D02*
X108120000Y-134346359D01*
X108880000Y-134653641D02*
X108880000Y-134346359D01*
%TO.C,D13*%
X120400000Y-142440000D02*
X119100000Y-142440000D01*
X119100000Y-145560000D02*
X121100000Y-145560000D01*
%TO.C,SW6*%
X132680000Y-137570000D02*
X132680000Y-133430000D01*
X132980000Y-137570000D02*
X132680000Y-137570000D01*
X135820000Y-137570000D02*
X135520000Y-137570000D01*
X132680000Y-133430000D02*
X132980000Y-133430000D01*
X135520000Y-133430000D02*
X135820000Y-133430000D01*
X135820000Y-133430000D02*
X135820000Y-137570000D01*
%TO.C,R78*%
X171737258Y-125022500D02*
X171262742Y-125022500D01*
X171737258Y-123977500D02*
X171262742Y-123977500D01*
%TO.C,R38*%
X136846359Y-135095000D02*
X137153641Y-135095000D01*
X136846359Y-135855000D02*
X137153641Y-135855000D01*
%TO.C,R72*%
X176487258Y-123522500D02*
X176012742Y-123522500D01*
X176487258Y-122477500D02*
X176012742Y-122477500D01*
%TO.C,C40*%
X188040000Y-77607836D02*
X188040000Y-77392164D01*
X188760000Y-77607836D02*
X188760000Y-77392164D01*
%TO.C,D12*%
X132650000Y-142190000D02*
X131350000Y-142190000D01*
X131350000Y-145310000D02*
X133350000Y-145310000D01*
%TO.C,D3*%
X82040000Y-59185000D02*
X83960000Y-59185000D01*
X83960000Y-59185000D02*
X83960000Y-56500000D01*
X82040000Y-56500000D02*
X82040000Y-59185000D01*
%TO.C,R34*%
X60120000Y-67153641D02*
X60120000Y-66846359D01*
X60880000Y-67153641D02*
X60880000Y-66846359D01*
%TO.C,D6*%
X86040000Y-59185000D02*
X87960000Y-59185000D01*
X87960000Y-59185000D02*
X87960000Y-56500000D01*
X86040000Y-56500000D02*
X86040000Y-59185000D01*
%TO.C,R39*%
X101985000Y-136522936D02*
X101985000Y-136977064D01*
X100515000Y-136522936D02*
X100515000Y-136977064D01*
%TO.C,J14*%
X119810000Y-140590000D02*
X119810000Y-139265000D01*
X119745000Y-139265000D02*
X119810000Y-139265000D01*
X119745000Y-139265000D02*
X119745000Y-135735000D01*
X128690000Y-139265000D02*
X128755000Y-139265000D01*
X128755000Y-139265000D02*
X128755000Y-135735000D01*
X119745000Y-135735000D02*
X119810000Y-135735000D01*
X128690000Y-135735000D02*
X128755000Y-135735000D01*
%TO.C,R27*%
X187380000Y-66846359D02*
X187380000Y-67153641D01*
X186620000Y-66846359D02*
X186620000Y-67153641D01*
%TO.C,C16*%
X111627836Y-97110000D02*
X111412164Y-97110000D01*
X111627836Y-96390000D02*
X111412164Y-96390000D01*
%TO.C,J17*%
X169700000Y-153000000D02*
X169700000Y-151200000D01*
X169700000Y-153000000D02*
X163300000Y-153000000D01*
X169700000Y-140900000D02*
X169700000Y-141400000D01*
X169000000Y-155000000D02*
X169000000Y-153000000D01*
X169000000Y-155000000D02*
X166500000Y-155000000D01*
X168100000Y-151900000D02*
X168100000Y-153000000D01*
X168100000Y-151900000D02*
X164900000Y-151900000D01*
X166500000Y-155000000D02*
X164000000Y-155000000D01*
X164900000Y-151900000D02*
X164900000Y-153000000D01*
X164000000Y-155000000D02*
X164000000Y-153000000D01*
X163800000Y-140900000D02*
X169700000Y-140900000D01*
X163300000Y-153000000D02*
X163300000Y-151200000D01*
%TO.C,C20*%
X136860000Y-93142164D02*
X136860000Y-93357836D01*
X136140000Y-93142164D02*
X136140000Y-93357836D01*
%TO.C,J18*%
X157700000Y-153000000D02*
X157700000Y-151200000D01*
X157700000Y-153000000D02*
X151300000Y-153000000D01*
X157700000Y-140900000D02*
X157700000Y-141400000D01*
X157000000Y-155000000D02*
X157000000Y-153000000D01*
X157000000Y-155000000D02*
X154500000Y-155000000D01*
X156100000Y-151900000D02*
X156100000Y-153000000D01*
X156100000Y-151900000D02*
X152900000Y-151900000D01*
X154500000Y-155000000D02*
X152000000Y-155000000D01*
X152900000Y-151900000D02*
X152900000Y-153000000D01*
X152000000Y-155000000D02*
X152000000Y-153000000D01*
X151800000Y-140900000D02*
X157700000Y-140900000D01*
X151300000Y-153000000D02*
X151300000Y-151200000D01*
%TO.C,J13*%
X98720000Y-59020000D02*
X98720000Y-49900000D01*
X122200000Y-59020000D02*
X122200000Y-49900000D01*
X126300000Y-59020000D02*
X126300000Y-49900000D01*
X149780000Y-59020000D02*
X98720000Y-59020000D01*
X98720000Y-49900000D02*
X149780000Y-49900000D01*
X149780000Y-49900000D02*
X149780000Y-59020000D01*
%TO.C,C58*%
X165360000Y-124642164D02*
X165360000Y-124857836D01*
X164640000Y-124642164D02*
X164640000Y-124857836D01*
%TO.C,R1*%
X178765000Y-54727064D02*
X178765000Y-54272936D01*
X180235000Y-54727064D02*
X180235000Y-54272936D01*
%TO.C,C76*%
X170642164Y-132890000D02*
X170857836Y-132890000D01*
X170642164Y-133610000D02*
X170857836Y-133610000D01*
%TO.C,C6*%
X111640000Y-101607836D02*
X111640000Y-101392164D01*
X112360000Y-101607836D02*
X112360000Y-101392164D01*
%TO.C,C51*%
X176860000Y-54392164D02*
X176860000Y-54607836D01*
X176140000Y-54392164D02*
X176140000Y-54607836D01*
%TO.C,R56*%
X121370000Y-132403641D02*
X121370000Y-132096359D01*
X122130000Y-132403641D02*
X122130000Y-132096359D01*
%TO.C,R2*%
X69735000Y-54272936D02*
X69735000Y-54727064D01*
X68265000Y-54272936D02*
X68265000Y-54727064D01*
%TO.C,R7*%
X112380000Y-105356359D02*
X112380000Y-105663641D01*
X111620000Y-105356359D02*
X111620000Y-105663641D01*
%TO.C,C45*%
X86890000Y-137107836D02*
X86890000Y-136892164D01*
X87610000Y-137107836D02*
X87610000Y-136892164D01*
%TO.C,C74*%
X170642164Y-131890000D02*
X170857836Y-131890000D01*
X170642164Y-132610000D02*
X170857836Y-132610000D01*
%TO.C,C57*%
X178140000Y-124107836D02*
X178140000Y-123892164D01*
X178860000Y-124107836D02*
X178860000Y-123892164D01*
%TO.C,C21*%
X127142164Y-89890000D02*
X127357836Y-89890000D01*
X127142164Y-90610000D02*
X127357836Y-90610000D01*
%TO.C,C11*%
X116357836Y-115110000D02*
X116142164Y-115110000D01*
X116357836Y-114390000D02*
X116142164Y-114390000D01*
%TO.C,Y1*%
X111400000Y-102250000D02*
X108100000Y-102250000D01*
X108100000Y-102250000D02*
X108100000Y-106250000D01*
%TO.C,C44*%
X136892164Y-136115000D02*
X137107836Y-136115000D01*
X136892164Y-136835000D02*
X137107836Y-136835000D01*
%TO.C,R31*%
X57620000Y-77633641D02*
X57620000Y-77326359D01*
X58380000Y-77633641D02*
X58380000Y-77326359D01*
%TO.C,R26*%
X186780000Y-77346359D02*
X186780000Y-77653641D01*
X186020000Y-77346359D02*
X186020000Y-77653641D01*
%TO.C,C23*%
X114607836Y-90110000D02*
X114392164Y-90110000D01*
X114607836Y-89390000D02*
X114392164Y-89390000D01*
%TO.C,R45*%
X115620000Y-144153641D02*
X115620000Y-143846359D01*
X116380000Y-144153641D02*
X116380000Y-143846359D01*
%TO.C,R81*%
X170022500Y-137262742D02*
X170022500Y-137737258D01*
X168977500Y-137262742D02*
X168977500Y-137737258D01*
%TO.C,J12*%
X73450000Y-153000000D02*
X73450000Y-151200000D01*
X73450000Y-153000000D02*
X67050000Y-153000000D01*
X73450000Y-140900000D02*
X73450000Y-141400000D01*
X72750000Y-155000000D02*
X72750000Y-153000000D01*
X72750000Y-155000000D02*
X70250000Y-155000000D01*
X71850000Y-151900000D02*
X71850000Y-153000000D01*
X71850000Y-151900000D02*
X68650000Y-151900000D01*
X70250000Y-155000000D02*
X67750000Y-155000000D01*
X68650000Y-151900000D02*
X68650000Y-153000000D01*
X67750000Y-155000000D02*
X67750000Y-153000000D01*
X67550000Y-140900000D02*
X73450000Y-140900000D01*
X67050000Y-153000000D02*
X67050000Y-151200000D01*
%TO.C,R46*%
X116620000Y-144153641D02*
X116620000Y-143846359D01*
X117380000Y-144153641D02*
X117380000Y-143846359D01*
%TO.C,R28*%
X187620000Y-67153641D02*
X187620000Y-66846359D01*
X188380000Y-67153641D02*
X188380000Y-66846359D01*
%TO.C,C79*%
X168360000Y-134892164D02*
X168360000Y-135107836D01*
X167640000Y-134892164D02*
X167640000Y-135107836D01*
%TO.C,C8*%
X112360000Y-108392164D02*
X112360000Y-108607836D01*
X111640000Y-108392164D02*
X111640000Y-108607836D01*
D17*
%TO.C,J4*%
X159449000Y-126549000D02*
X156000000Y-126549000D01*
X159449000Y-116448000D02*
X159449000Y-126549000D01*
X159337000Y-123036000D02*
X159350000Y-123050000D01*
X158700000Y-121169000D02*
X158700000Y-121500000D01*
X156000000Y-129500000D02*
X156000000Y-123073000D01*
X156000000Y-127150000D02*
X146400000Y-127150000D01*
X156000000Y-126549000D02*
X156000000Y-126150000D01*
X156000000Y-119927000D02*
X156000000Y-113500000D01*
X156000000Y-116448000D02*
X159449000Y-116448000D01*
X156000000Y-113500000D02*
X146400000Y-113500000D01*
X146400000Y-129500000D02*
X156000000Y-129500000D01*
X146400000Y-115850000D02*
X156000000Y-115850000D01*
X146400000Y-113500000D02*
X146400000Y-129500000D01*
X158700676Y-121499869D02*
G75*
G03*
X159437000Y-123130000I2172323J-132D01*
G01*
X159425643Y-119527706D02*
G75*
G03*
X158700000Y-121169000I1493363J-1641296D01*
G01*
D13*
%TO.C,R44*%
X126630000Y-143596359D02*
X126630000Y-143903641D01*
X125870000Y-143596359D02*
X125870000Y-143903641D01*
%TO.C,R37*%
X137153641Y-134855000D02*
X136846359Y-134855000D01*
X137153641Y-134095000D02*
X136846359Y-134095000D01*
%TO.C,R50*%
X190380000Y-85846359D02*
X190380000Y-86153641D01*
X189620000Y-85846359D02*
X189620000Y-86153641D01*
%TO.C,R47*%
X66815000Y-138227064D02*
X66815000Y-137772936D01*
X68285000Y-138227064D02*
X68285000Y-137772936D01*
%TO.C,C9*%
X109607836Y-101860000D02*
X109392164Y-101860000D01*
X109607836Y-101140000D02*
X109392164Y-101140000D01*
%TO.C,C71*%
X170642164Y-129640000D02*
X170857836Y-129640000D01*
X170642164Y-130360000D02*
X170857836Y-130360000D01*
%TO.C,C73*%
X162357836Y-131110000D02*
X162142164Y-131110000D01*
X162357836Y-130390000D02*
X162142164Y-130390000D01*
%TO.C,C22*%
X122142164Y-89890000D02*
X122357836Y-89890000D01*
X122142164Y-90610000D02*
X122357836Y-90610000D01*
%TO.C,C61*%
X166610000Y-126642164D02*
X166610000Y-126857836D01*
X165890000Y-126642164D02*
X165890000Y-126857836D01*
%TO.C,C39*%
X188640000Y-67127836D02*
X188640000Y-66912164D01*
X189360000Y-67127836D02*
X189360000Y-66912164D01*
%TO.C,C59*%
X168640000Y-124857836D02*
X168640000Y-124642164D01*
X169360000Y-124857836D02*
X169360000Y-124642164D01*
D17*
%TO.C,J3*%
X89051000Y-116451000D02*
X92500000Y-116451000D01*
X89051000Y-126552000D02*
X89051000Y-116451000D01*
X89163000Y-119964000D02*
X89150000Y-119950000D01*
X89800000Y-121831000D02*
X89800000Y-121500000D01*
X92500000Y-113500000D02*
X92500000Y-119927000D01*
X92500000Y-115850000D02*
X102100000Y-115850000D01*
X92500000Y-116451000D02*
X92500000Y-116850000D01*
X92500000Y-123073000D02*
X92500000Y-129500000D01*
X92500000Y-126552000D02*
X89051000Y-126552000D01*
X92500000Y-129500000D02*
X102100000Y-129500000D01*
X102100000Y-113500000D02*
X92500000Y-113500000D01*
X102100000Y-127150000D02*
X92500000Y-127150000D01*
X102100000Y-129500000D02*
X102100000Y-113500000D01*
X89799324Y-121500131D02*
G75*
G03*
X89063000Y-119870000I-2172323J132D01*
G01*
X89074357Y-123472294D02*
G75*
G03*
X89800000Y-121831000I-1493363J1641296D01*
G01*
D13*
%TO.C,C63*%
X174560000Y-123435000D02*
X174560000Y-121565000D01*
X174560000Y-121565000D02*
X170650000Y-121565000D01*
X170650000Y-123435000D02*
X174560000Y-123435000D01*
%TO.C,C24*%
X132610000Y-115142164D02*
X132610000Y-115357836D01*
X131890000Y-115142164D02*
X131890000Y-115357836D01*
%TO.C,R42*%
X86015000Y-134346224D02*
X86015000Y-133892096D01*
X87485000Y-134346224D02*
X87485000Y-133892096D01*
%TO.C,R30*%
X190780000Y-77346359D02*
X190780000Y-77653641D01*
X190020000Y-77346359D02*
X190020000Y-77653641D01*
%TO.C,R54*%
X124370000Y-132403641D02*
X124370000Y-132096359D01*
X125130000Y-132403641D02*
X125130000Y-132096359D01*
%TD*%
%LPC*%
D18*
%TO.C,C80*%
X166750000Y-134520000D03*
X166750000Y-135480000D03*
%TD*%
D19*
%TO.C,C37*%
X82000000Y-70600000D03*
X82000000Y-67000000D03*
%TD*%
D18*
%TO.C,C28*%
X136500000Y-100000000D03*
X136500000Y-100960000D03*
%TD*%
D20*
%TO.C,L3*%
X92250000Y-65000000D03*
X92250000Y-68000000D03*
%TD*%
D21*
%TO.C,C13*%
X109980000Y-107000000D03*
X109020000Y-107000000D03*
%TD*%
D22*
%TO.C,J16*%
X142500000Y-142400000D03*
D23*
X146700000Y-147500000D03*
X146700000Y-142500000D03*
X138300000Y-150100000D03*
X146700000Y-150100000D03*
X138300000Y-143500000D03*
X138300000Y-141500000D03*
%TD*%
D24*
%TO.C,D14*%
X79072959Y-138000000D03*
X83072959Y-138000000D03*
%TD*%
D25*
%TO.C,R5*%
X141000000Y-66260000D03*
X141000000Y-65240000D03*
%TD*%
D26*
%TO.C,C53*%
X60500000Y-85960000D03*
X60500000Y-85000000D03*
%TD*%
D18*
%TO.C,C62*%
X167750000Y-126270000D03*
X167750000Y-127230000D03*
%TD*%
D26*
%TO.C,C41*%
X60000000Y-77960000D03*
X60000000Y-77000000D03*
%TD*%
D27*
%TO.C,C66*%
X173600000Y-128250000D03*
X170900000Y-128250000D03*
%TD*%
D25*
%TO.C,R4*%
X124750000Y-116760000D03*
X124750000Y-115740000D03*
%TD*%
D21*
%TO.C,C17*%
X112000000Y-95750000D03*
X111040000Y-95750000D03*
%TD*%
D28*
%TO.C,C26*%
X121770000Y-89250000D03*
X122730000Y-89250000D03*
%TD*%
D29*
%TO.C,R83*%
X166500000Y-136675000D03*
X166500000Y-138325000D03*
%TD*%
D28*
%TO.C,C18*%
X133270000Y-114750000D03*
X134230000Y-114750000D03*
%TD*%
D21*
%TO.C,C12*%
X110980000Y-111000000D03*
X110020000Y-111000000D03*
%TD*%
%TO.C,C25*%
X112000000Y-107000000D03*
X111040000Y-107000000D03*
%TD*%
D30*
%TO.C,D5*%
X85000000Y-58437500D03*
X85000000Y-56562500D03*
%TD*%
D31*
%TO.C,U7*%
X134350000Y-141250000D03*
X134350000Y-141750000D03*
X134350000Y-142250000D03*
X135650000Y-142250000D03*
X135650000Y-141750000D03*
X135650000Y-141250000D03*
%TD*%
D32*
%TO.C,R29*%
X189400000Y-76980000D03*
X189400000Y-78000000D03*
%TD*%
D18*
%TO.C,C67*%
X165500000Y-134520000D03*
X165500000Y-135480000D03*
%TD*%
%TO.C,C68*%
X164500000Y-134520000D03*
X164500000Y-135480000D03*
%TD*%
%TO.C,C70*%
X163250000Y-134270000D03*
X163250000Y-135230000D03*
%TD*%
D33*
%TO.C,D10*%
X66500000Y-107000000D03*
X66500000Y-103000000D03*
%TD*%
D34*
%TO.C,U5*%
X98765000Y-137790000D03*
X98765000Y-135250000D03*
X98765000Y-132710000D03*
X89235000Y-132710000D03*
X89235000Y-135250000D03*
X89235000Y-137790000D03*
%TD*%
D25*
%TO.C,R11*%
X108500000Y-137010000D03*
X108500000Y-135990000D03*
%TD*%
D21*
%TO.C,C10*%
X110980000Y-110000000D03*
X110020000Y-110000000D03*
%TD*%
%TO.C,C69*%
X162730000Y-132750000D03*
X161770000Y-132750000D03*
%TD*%
D22*
%TO.C,J11*%
X82250000Y-142400000D03*
D23*
X86450000Y-147500000D03*
X86450000Y-142500000D03*
X78050000Y-150100000D03*
X86450000Y-150100000D03*
X78050000Y-143500000D03*
X78050000Y-141500000D03*
%TD*%
D35*
%TO.C,D11*%
X101000000Y-132975000D03*
X101000000Y-134375000D03*
%TD*%
D36*
%TO.C,R8*%
X81000000Y-56500000D03*
X81000000Y-58500000D03*
%TD*%
D37*
%TO.C,SW1*%
X110750000Y-137600000D03*
X110750000Y-133400000D03*
%TD*%
D32*
%TO.C,R43*%
X127250000Y-143240000D03*
X127250000Y-144260000D03*
%TD*%
D18*
%TO.C,C60*%
X178500000Y-126270000D03*
X178500000Y-127230000D03*
%TD*%
D38*
%TO.C,R48*%
X69550000Y-138912500D03*
X69550000Y-137087500D03*
%TD*%
D39*
%TO.C,J5*%
X185100000Y-104500000D03*
D40*
X187640000Y-104500000D03*
X185100000Y-107040000D03*
X187640000Y-107040000D03*
X185100000Y-109580000D03*
X187640000Y-109580000D03*
%TD*%
D41*
%TO.C,U13*%
X164510000Y-129600000D03*
X164510000Y-130000000D03*
X164510000Y-130400000D03*
X164510000Y-130800000D03*
X164510000Y-131200000D03*
X164510000Y-131600000D03*
X164510000Y-132000000D03*
X164510000Y-132400000D03*
D42*
X165100000Y-132990000D03*
X165500000Y-132990000D03*
X165900000Y-132990000D03*
X166300000Y-132990000D03*
X166700000Y-132990000D03*
X167100000Y-132990000D03*
X167500000Y-132990000D03*
X167900000Y-132990000D03*
D41*
X168490000Y-132400000D03*
X168490000Y-132000000D03*
X168490000Y-131600000D03*
X168490000Y-131200000D03*
X168490000Y-130800000D03*
X168490000Y-130400000D03*
X168490000Y-130000000D03*
X168490000Y-129600000D03*
D42*
X167900000Y-129010000D03*
X167500000Y-129010000D03*
X167100000Y-129010000D03*
X166700000Y-129010000D03*
X166300000Y-129010000D03*
X165900000Y-129010000D03*
X165500000Y-129010000D03*
X165100000Y-129010000D03*
D43*
X166500000Y-131000000D03*
%TD*%
D21*
%TO.C,C64*%
X174480000Y-124250000D03*
X173520000Y-124250000D03*
%TD*%
D26*
%TO.C,C52*%
X188000000Y-86480000D03*
X188000000Y-85520000D03*
%TD*%
D44*
%TO.C,U9*%
X71350000Y-137350000D03*
X71350000Y-138000000D03*
X71350000Y-138650000D03*
X73250000Y-138650000D03*
X73250000Y-137350000D03*
%TD*%
D25*
%TO.C,R6*%
X140000000Y-66260000D03*
X140000000Y-65240000D03*
%TD*%
D28*
%TO.C,C27*%
X136520000Y-94750000D03*
X137480000Y-94750000D03*
%TD*%
D21*
%TO.C,C14*%
X123230000Y-114750000D03*
X122270000Y-114750000D03*
%TD*%
D18*
%TO.C,C50*%
X175500000Y-54020000D03*
X175500000Y-54980000D03*
%TD*%
D32*
%TO.C,R52*%
X62500000Y-84990000D03*
X62500000Y-86010000D03*
%TD*%
D45*
%TO.C,R80*%
X172425000Y-134500000D03*
X174075000Y-134500000D03*
%TD*%
D25*
%TO.C,R3*%
X123750000Y-116760000D03*
X123750000Y-115740000D03*
%TD*%
D46*
%TO.C,H2*%
X191100000Y-55000000D03*
X191802944Y-53302944D03*
X191802944Y-56697056D03*
X193500000Y-52600000D03*
D47*
X193500000Y-55000000D03*
D46*
X193500000Y-57400000D03*
X195197056Y-53302944D03*
X195197056Y-56697056D03*
X195900000Y-55000000D03*
%TD*%
D25*
%TO.C,R58*%
X126750000Y-132760000D03*
X126750000Y-131740000D03*
%TD*%
D48*
%TO.C,R49*%
X75050000Y-137087500D03*
X75050000Y-138912500D03*
%TD*%
D32*
%TO.C,R35*%
X62000000Y-76970000D03*
X62000000Y-77990000D03*
%TD*%
D49*
%TO.C,FB3*%
X168750000Y-126265000D03*
X168750000Y-127235000D03*
%TD*%
D25*
%TO.C,R55*%
X122750000Y-132760000D03*
X122750000Y-131740000D03*
%TD*%
D29*
%TO.C,R76*%
X167750000Y-123425000D03*
X167750000Y-125075000D03*
%TD*%
D22*
%TO.C,J19*%
X178500000Y-142400000D03*
D23*
X182700000Y-147500000D03*
X182700000Y-142500000D03*
X174300000Y-150100000D03*
X182700000Y-150100000D03*
X174300000Y-143500000D03*
X174300000Y-141500000D03*
%TD*%
D50*
%TO.C,U2*%
X113587500Y-93750000D03*
X113587500Y-94250000D03*
X113587500Y-94750000D03*
X113587500Y-95250000D03*
X113587500Y-95750000D03*
X113587500Y-96250000D03*
X113587500Y-96750000D03*
X113587500Y-97250000D03*
X113587500Y-97750000D03*
X113587500Y-98250000D03*
X113587500Y-98750000D03*
X113587500Y-99250000D03*
X113587500Y-99750000D03*
X113587500Y-100250000D03*
X113587500Y-100750000D03*
X113587500Y-101250000D03*
X113587500Y-101750000D03*
X113587500Y-102250000D03*
X113587500Y-102750000D03*
X113587500Y-103250000D03*
X113587500Y-103750000D03*
X113587500Y-104250000D03*
X113587500Y-104750000D03*
X113587500Y-105250000D03*
X113587500Y-105750000D03*
X113587500Y-106250000D03*
X113587500Y-106750000D03*
X113587500Y-107250000D03*
X113587500Y-107750000D03*
X113587500Y-108250000D03*
X113587500Y-108750000D03*
X113587500Y-109250000D03*
X113587500Y-109750000D03*
X113587500Y-110250000D03*
X113587500Y-110750000D03*
X113587500Y-111250000D03*
D51*
X115500000Y-113162500D03*
X116000000Y-113162500D03*
X116500000Y-113162500D03*
X117000000Y-113162500D03*
X117500000Y-113162500D03*
X118000000Y-113162500D03*
X118500000Y-113162500D03*
X119000000Y-113162500D03*
X119500000Y-113162500D03*
X120000000Y-113162500D03*
X120500000Y-113162500D03*
X121000000Y-113162500D03*
X121500000Y-113162500D03*
X122000000Y-113162500D03*
X122500000Y-113162500D03*
X123000000Y-113162500D03*
X123500000Y-113162500D03*
X124000000Y-113162500D03*
X124500000Y-113162500D03*
X125000000Y-113162500D03*
X125500000Y-113162500D03*
X126000000Y-113162500D03*
X126500000Y-113162500D03*
X127000000Y-113162500D03*
X127500000Y-113162500D03*
X128000000Y-113162500D03*
X128500000Y-113162500D03*
X129000000Y-113162500D03*
X129500000Y-113162500D03*
X130000000Y-113162500D03*
X130500000Y-113162500D03*
X131000000Y-113162500D03*
X131500000Y-113162500D03*
X132000000Y-113162500D03*
X132500000Y-113162500D03*
X133000000Y-113162500D03*
D50*
X134912500Y-111250000D03*
X134912500Y-110750000D03*
X134912500Y-110250000D03*
X134912500Y-109750000D03*
X134912500Y-109250000D03*
X134912500Y-108750000D03*
X134912500Y-108250000D03*
X134912500Y-107750000D03*
X134912500Y-107250000D03*
X134912500Y-106750000D03*
X134912500Y-106250000D03*
X134912500Y-105750000D03*
X134912500Y-105250000D03*
X134912500Y-104750000D03*
X134912500Y-104250000D03*
X134912500Y-103750000D03*
X134912500Y-103250000D03*
X134912500Y-102750000D03*
X134912500Y-102250000D03*
X134912500Y-101750000D03*
X134912500Y-101250000D03*
X134912500Y-100750000D03*
X134912500Y-100250000D03*
X134912500Y-99750000D03*
X134912500Y-99250000D03*
X134912500Y-98750000D03*
X134912500Y-98250000D03*
X134912500Y-97750000D03*
X134912500Y-97250000D03*
X134912500Y-96750000D03*
X134912500Y-96250000D03*
X134912500Y-95750000D03*
X134912500Y-95250000D03*
X134912500Y-94750000D03*
X134912500Y-94250000D03*
X134912500Y-93750000D03*
D51*
X133000000Y-91837500D03*
X132500000Y-91837500D03*
X132000000Y-91837500D03*
X131500000Y-91837500D03*
X131000000Y-91837500D03*
X130500000Y-91837500D03*
X130000000Y-91837500D03*
X129500000Y-91837500D03*
X129000000Y-91837500D03*
X128500000Y-91837500D03*
X128000000Y-91837500D03*
X127500000Y-91837500D03*
X127000000Y-91837500D03*
X126500000Y-91837500D03*
X126000000Y-91837500D03*
X125500000Y-91837500D03*
X125000000Y-91837500D03*
X124500000Y-91837500D03*
X124000000Y-91837500D03*
X123500000Y-91837500D03*
X123000000Y-91837500D03*
X122500000Y-91837500D03*
X122000000Y-91837500D03*
X121500000Y-91837500D03*
X121000000Y-91837500D03*
X120500000Y-91837500D03*
X120000000Y-91837500D03*
X119500000Y-91837500D03*
X119000000Y-91837500D03*
X118500000Y-91837500D03*
X118000000Y-91837500D03*
X117500000Y-91837500D03*
X117000000Y-91837500D03*
X116500000Y-91837500D03*
X116000000Y-91837500D03*
X115500000Y-91837500D03*
%TD*%
D22*
%TO.C,J8*%
X106250000Y-142400000D03*
D23*
X110450000Y-147500000D03*
X110450000Y-142500000D03*
X102050000Y-150100000D03*
X110450000Y-150100000D03*
X102050000Y-143500000D03*
X102050000Y-141500000D03*
%TD*%
D26*
%TO.C,C43*%
X61000000Y-77960000D03*
X61000000Y-77000000D03*
%TD*%
D28*
%TO.C,C77*%
X170270000Y-134250000D03*
X171230000Y-134250000D03*
%TD*%
D37*
%TO.C,SW2*%
X114250000Y-137600000D03*
X114250000Y-133400000D03*
%TD*%
D52*
%TO.C,J6*%
X63400000Y-109500000D03*
D40*
X60860000Y-109500000D03*
X63400000Y-106960000D03*
X60860000Y-106960000D03*
X63400000Y-104420000D03*
X60860000Y-104420000D03*
%TD*%
D21*
%TO.C,C75*%
X162730000Y-131750000D03*
X161770000Y-131750000D03*
%TD*%
D36*
%TO.C,R20*%
X91000000Y-56500000D03*
X91000000Y-58500000D03*
%TD*%
D26*
%TO.C,C42*%
X61500000Y-67480000D03*
X61500000Y-66520000D03*
%TD*%
D53*
%TO.C,R73*%
X177075000Y-127750000D03*
X175425000Y-127750000D03*
%TD*%
D28*
%TO.C,C72*%
X170270000Y-131000000D03*
X171230000Y-131000000D03*
%TD*%
D25*
%TO.C,R59*%
X125750000Y-132750000D03*
X125750000Y-131730000D03*
%TD*%
D54*
%TO.C,SW3*%
X87500000Y-51463000D03*
X82500000Y-51463000D03*
D55*
X90250000Y-51463000D03*
D56*
X88000000Y-53537000D03*
X83500000Y-53537000D03*
X82000000Y-53537000D03*
D55*
X79750000Y-51463000D03*
%TD*%
D57*
%TO.C,J1*%
X159755000Y-66725000D03*
X160855000Y-66725000D03*
X161955000Y-66725000D03*
X163055000Y-66725000D03*
X164155000Y-66725000D03*
X165255000Y-66725000D03*
X166355000Y-66725000D03*
X167455000Y-66725000D03*
X168405000Y-66725000D03*
D58*
X169355000Y-56225000D03*
D59*
X169355000Y-62425000D03*
D60*
X169355000Y-52075000D03*
D59*
X158205000Y-66725000D03*
D61*
X155855000Y-51625000D03*
%TD*%
D45*
%TO.C,R77*%
X175675000Y-126250000D03*
X177325000Y-126250000D03*
%TD*%
D62*
%TO.C,J9*%
X127360000Y-148400000D03*
X133140000Y-148400000D03*
D63*
X127000000Y-146955000D03*
X127800000Y-146955000D03*
D64*
X129000000Y-146955000D03*
X130000000Y-146955000D03*
X130500000Y-146955000D03*
X131500000Y-146955000D03*
D63*
X132700000Y-146955000D03*
X133500000Y-146955000D03*
X133500000Y-146955000D03*
X132700000Y-146955000D03*
D64*
X132000000Y-146955000D03*
X131000000Y-146955000D03*
X129500000Y-146955000D03*
X128500000Y-146955000D03*
D63*
X127800000Y-146955000D03*
X127000000Y-146955000D03*
D65*
X125930000Y-147870000D03*
D66*
X125930000Y-152050000D03*
D65*
X134570000Y-147870000D03*
D66*
X134570000Y-152050000D03*
%TD*%
D67*
%TO.C,U6*%
X106150000Y-133338438D03*
X105500000Y-133338438D03*
X104850000Y-133338438D03*
X104850000Y-135238438D03*
X106150000Y-135238438D03*
%TD*%
D29*
%TO.C,R82*%
X168000000Y-136675000D03*
X168000000Y-138325000D03*
%TD*%
D45*
%TO.C,R74*%
X175675000Y-124500000D03*
X177325000Y-124500000D03*
%TD*%
D53*
%TO.C,R79*%
X172325000Y-126250000D03*
X170675000Y-126250000D03*
%TD*%
D32*
%TO.C,R10*%
X116000000Y-89240000D03*
X116000000Y-90260000D03*
%TD*%
D21*
%TO.C,C15*%
X128230000Y-114750000D03*
X127270000Y-114750000D03*
%TD*%
D32*
%TO.C,R36*%
X63000000Y-76960000D03*
X63000000Y-77980000D03*
%TD*%
D22*
%TO.C,J7*%
X94250000Y-142400000D03*
D23*
X98450000Y-147500000D03*
X98450000Y-142500000D03*
X90050000Y-150100000D03*
X98450000Y-150100000D03*
X90050000Y-143500000D03*
X90050000Y-141500000D03*
%TD*%
D21*
%TO.C,C65*%
X174480000Y-126500000D03*
X173520000Y-126500000D03*
%TD*%
D25*
%TO.C,R57*%
X123750000Y-132760000D03*
X123750000Y-131740000D03*
%TD*%
%TO.C,R25*%
X185400000Y-78010000D03*
X185400000Y-76990000D03*
%TD*%
D26*
%TO.C,C38*%
X187400000Y-78000000D03*
X187400000Y-77040000D03*
%TD*%
D25*
%TO.C,R53*%
X61500000Y-86010000D03*
X61500000Y-84990000D03*
%TD*%
D46*
%TO.C,H1*%
X52600000Y-55000000D03*
X53302944Y-53302944D03*
X53302944Y-56697056D03*
X55000000Y-52600000D03*
D47*
X55000000Y-55000000D03*
D46*
X55000000Y-57400000D03*
X56697056Y-53302944D03*
X56697056Y-56697056D03*
X57400000Y-55000000D03*
%TD*%
D62*
%TO.C,J10*%
X115360000Y-148400000D03*
X121140000Y-148400000D03*
D63*
X115000000Y-146955000D03*
X115800000Y-146955000D03*
D64*
X117000000Y-146955000D03*
X118000000Y-146955000D03*
X118500000Y-146955000D03*
X119500000Y-146955000D03*
D63*
X120700000Y-146955000D03*
X121500000Y-146955000D03*
X121500000Y-146955000D03*
X120700000Y-146955000D03*
D64*
X120000000Y-146955000D03*
X119000000Y-146955000D03*
X117500000Y-146955000D03*
X116500000Y-146955000D03*
D63*
X115800000Y-146955000D03*
X115000000Y-146955000D03*
D65*
X113930000Y-147870000D03*
D66*
X113930000Y-152050000D03*
D65*
X122570000Y-147870000D03*
D66*
X122570000Y-152050000D03*
%TD*%
D46*
%TO.C,H4*%
X191100000Y-150000000D03*
X191802944Y-148302944D03*
X191802944Y-151697056D03*
X193500000Y-147600000D03*
D47*
X193500000Y-150000000D03*
D46*
X193500000Y-152400000D03*
X195197056Y-148302944D03*
X195197056Y-151697056D03*
X195900000Y-150000000D03*
%TD*%
D29*
%TO.C,R75*%
X166250000Y-123425000D03*
X166250000Y-125075000D03*
%TD*%
D32*
%TO.C,R32*%
X59000000Y-76960000D03*
X59000000Y-77980000D03*
%TD*%
D25*
%TO.C,R51*%
X189000000Y-86510000D03*
X189000000Y-85490000D03*
%TD*%
D48*
%TO.C,R40*%
X106500000Y-136825938D03*
X106500000Y-138650938D03*
%TD*%
D32*
%TO.C,R33*%
X59500000Y-66490000D03*
X59500000Y-67510000D03*
%TD*%
D36*
%TO.C,R21*%
X89000000Y-56500000D03*
X89000000Y-58500000D03*
%TD*%
D18*
%TO.C,C19*%
X136500000Y-105520000D03*
X136500000Y-106480000D03*
%TD*%
%TO.C,C78*%
X169250000Y-134520000D03*
X169250000Y-135480000D03*
%TD*%
D68*
%TO.C,D9*%
X182000000Y-107000000D03*
X182000000Y-111000000D03*
%TD*%
D69*
%TO.C,C49*%
X87500000Y-93200000D03*
X87500000Y-96800000D03*
%TD*%
D38*
%TO.C,R41*%
X104500000Y-138650938D03*
X104500000Y-136825938D03*
%TD*%
D70*
%TO.C,C46*%
X129250000Y-142800000D03*
X129250000Y-144700000D03*
%TD*%
D25*
%TO.C,R9*%
X108500000Y-135010000D03*
X108500000Y-133990000D03*
%TD*%
D71*
%TO.C,D13*%
X120750000Y-144750000D03*
D72*
X120750000Y-143050000D03*
X118750000Y-143050000D03*
X118750000Y-144950000D03*
%TD*%
D37*
%TO.C,SW6*%
X134250000Y-137600000D03*
X134250000Y-133400000D03*
%TD*%
D53*
%TO.C,R78*%
X172325000Y-124500000D03*
X170675000Y-124500000D03*
%TD*%
D73*
%TO.C,R38*%
X136490000Y-135475000D03*
X137510000Y-135475000D03*
%TD*%
D53*
%TO.C,R72*%
X177075000Y-123000000D03*
X175425000Y-123000000D03*
%TD*%
D26*
%TO.C,C40*%
X188400000Y-77980000D03*
X188400000Y-77020000D03*
%TD*%
D71*
%TO.C,D12*%
X133000000Y-144500000D03*
D72*
X133000000Y-142800000D03*
X131000000Y-142800000D03*
X131000000Y-144700000D03*
%TD*%
D49*
%TO.C,FB2*%
X165250000Y-126265000D03*
X165250000Y-127235000D03*
%TD*%
D30*
%TO.C,D3*%
X83000000Y-58437500D03*
X83000000Y-56562500D03*
%TD*%
D25*
%TO.C,R34*%
X60500000Y-67510000D03*
X60500000Y-66490000D03*
%TD*%
D30*
%TO.C,D6*%
X87000000Y-58437500D03*
X87000000Y-56562500D03*
%TD*%
D48*
%TO.C,R39*%
X101250000Y-135837500D03*
X101250000Y-137662500D03*
%TD*%
D74*
%TO.C,J14*%
X120440000Y-139450000D03*
X120440000Y-135550000D03*
X121710000Y-139450000D03*
X121710000Y-135550000D03*
X122980000Y-139450000D03*
X122980000Y-135550000D03*
X124250000Y-139450000D03*
X124250000Y-135550000D03*
X125520000Y-139450000D03*
X125520000Y-135550000D03*
X126790000Y-139450000D03*
X126790000Y-135550000D03*
X128060000Y-139450000D03*
X128060000Y-135550000D03*
%TD*%
D32*
%TO.C,R27*%
X187000000Y-66490000D03*
X187000000Y-67510000D03*
%TD*%
D21*
%TO.C,C16*%
X112000000Y-96750000D03*
X111040000Y-96750000D03*
%TD*%
D22*
%TO.C,J17*%
X166500000Y-142400000D03*
D23*
X170700000Y-147500000D03*
X170700000Y-142500000D03*
X162300000Y-150100000D03*
X170700000Y-150100000D03*
X162300000Y-143500000D03*
X162300000Y-141500000D03*
%TD*%
D18*
%TO.C,C20*%
X136500000Y-92770000D03*
X136500000Y-93730000D03*
%TD*%
D22*
%TO.C,J18*%
X154500000Y-142400000D03*
D23*
X158700000Y-147500000D03*
X158700000Y-142500000D03*
X150300000Y-150100000D03*
X158700000Y-150100000D03*
X150300000Y-143500000D03*
X150300000Y-141500000D03*
%TD*%
D40*
%TO.C,J13*%
X103930000Y-63290000D03*
X103930000Y-60750000D03*
X106470000Y-63290000D03*
X106470000Y-60750000D03*
X109010000Y-63290000D03*
X109010000Y-60750000D03*
X111550000Y-63290000D03*
X111550000Y-60750000D03*
X114090000Y-63290000D03*
X114090000Y-60750000D03*
X116630000Y-63290000D03*
X116630000Y-60750000D03*
X119170000Y-63290000D03*
X119170000Y-60750000D03*
X121710000Y-63290000D03*
X121710000Y-60750000D03*
X124250000Y-63290000D03*
X124250000Y-60750000D03*
X126790000Y-63290000D03*
X126790000Y-60750000D03*
X129330000Y-63290000D03*
X129330000Y-60750000D03*
X131870000Y-63290000D03*
X131870000Y-60750000D03*
X134410000Y-63290000D03*
X134410000Y-60750000D03*
X136950000Y-63290000D03*
X136950000Y-60750000D03*
X139490000Y-63290000D03*
X139490000Y-60750000D03*
X142030000Y-63290000D03*
X142030000Y-60750000D03*
X144570000Y-63290000D03*
X144570000Y-60750000D03*
%TD*%
D18*
%TO.C,C58*%
X165000000Y-124270000D03*
X165000000Y-125230000D03*
%TD*%
D75*
%TO.C,R1*%
X179500000Y-55500000D03*
X179500000Y-53500000D03*
%TD*%
D28*
%TO.C,C76*%
X170270000Y-133250000D03*
X171230000Y-133250000D03*
%TD*%
D26*
%TO.C,C6*%
X112000000Y-101980000D03*
X112000000Y-101020000D03*
%TD*%
D18*
%TO.C,C51*%
X176500000Y-54020000D03*
X176500000Y-54980000D03*
%TD*%
D25*
%TO.C,R56*%
X121750000Y-132760000D03*
X121750000Y-131740000D03*
%TD*%
D36*
%TO.C,R2*%
X69000000Y-53500000D03*
X69000000Y-55500000D03*
%TD*%
D32*
%TO.C,R7*%
X112000000Y-105000000D03*
X112000000Y-106020000D03*
%TD*%
D26*
%TO.C,C45*%
X87250000Y-137480000D03*
X87250000Y-136520000D03*
%TD*%
D28*
%TO.C,C74*%
X170270000Y-132250000D03*
X171230000Y-132250000D03*
%TD*%
D26*
%TO.C,C57*%
X178500000Y-124480000D03*
X178500000Y-123520000D03*
%TD*%
D28*
%TO.C,C21*%
X126770000Y-90250000D03*
X127730000Y-90250000D03*
%TD*%
D21*
%TO.C,C11*%
X116730000Y-114750000D03*
X115770000Y-114750000D03*
%TD*%
D76*
%TO.C,Y1*%
X108900000Y-103150000D03*
X108900000Y-105350000D03*
X110600000Y-105350000D03*
X110600000Y-103150000D03*
%TD*%
D28*
%TO.C,C44*%
X136520000Y-136475000D03*
X137480000Y-136475000D03*
%TD*%
D25*
%TO.C,R31*%
X58000000Y-77990000D03*
X58000000Y-76970000D03*
%TD*%
D32*
%TO.C,R26*%
X186400000Y-76990000D03*
X186400000Y-78010000D03*
%TD*%
D21*
%TO.C,C23*%
X114980000Y-89750000D03*
X114020000Y-89750000D03*
%TD*%
D25*
%TO.C,R45*%
X116000000Y-144510000D03*
X116000000Y-143490000D03*
%TD*%
D29*
%TO.C,R81*%
X169500000Y-136675000D03*
X169500000Y-138325000D03*
%TD*%
D22*
%TO.C,J12*%
X70250000Y-142400000D03*
D23*
X74450000Y-147500000D03*
X74450000Y-142500000D03*
X66050000Y-150100000D03*
X74450000Y-150100000D03*
X66050000Y-143500000D03*
X66050000Y-141500000D03*
%TD*%
D25*
%TO.C,R46*%
X117000000Y-144510000D03*
X117000000Y-143490000D03*
%TD*%
%TO.C,R28*%
X188000000Y-67510000D03*
X188000000Y-66490000D03*
%TD*%
D18*
%TO.C,C79*%
X168000000Y-134520000D03*
X168000000Y-135480000D03*
%TD*%
%TO.C,C8*%
X112000000Y-108020000D03*
X112000000Y-108980000D03*
%TD*%
D46*
%TO.C,H3*%
X52600000Y-150000000D03*
X53302944Y-148302944D03*
X53302944Y-151697056D03*
X55000000Y-147600000D03*
D47*
X55000000Y-150000000D03*
D46*
X55000000Y-152400000D03*
X56697056Y-148302944D03*
X56697056Y-151697056D03*
X57400000Y-150000000D03*
%TD*%
D77*
%TO.C,J4*%
X155850000Y-121500000D03*
X148251000Y-124000000D03*
X148250000Y-119000000D03*
%TD*%
D32*
%TO.C,R44*%
X126250000Y-143240000D03*
X126250000Y-144260000D03*
%TD*%
D78*
%TO.C,R37*%
X137510000Y-134475000D03*
X136490000Y-134475000D03*
%TD*%
D32*
%TO.C,R50*%
X190000000Y-85490000D03*
X190000000Y-86510000D03*
%TD*%
D38*
%TO.C,R47*%
X67550000Y-138912500D03*
X67550000Y-137087500D03*
%TD*%
D21*
%TO.C,C9*%
X109980000Y-101500000D03*
X109020000Y-101500000D03*
%TD*%
D28*
%TO.C,C71*%
X170270000Y-130000000D03*
X171230000Y-130000000D03*
%TD*%
D21*
%TO.C,C73*%
X162730000Y-130750000D03*
X161770000Y-130750000D03*
%TD*%
D28*
%TO.C,C22*%
X121770000Y-90250000D03*
X122730000Y-90250000D03*
%TD*%
D18*
%TO.C,C61*%
X166250000Y-126270000D03*
X166250000Y-127230000D03*
%TD*%
D26*
%TO.C,C39*%
X189000000Y-67500000D03*
X189000000Y-66540000D03*
%TD*%
%TO.C,C59*%
X169000000Y-125230000D03*
X169000000Y-124270000D03*
%TD*%
D77*
%TO.C,J3*%
X92650000Y-121500000D03*
X100249000Y-119000000D03*
X100250000Y-124000000D03*
%TD*%
D27*
%TO.C,C63*%
X173600000Y-122500000D03*
X170900000Y-122500000D03*
%TD*%
D18*
%TO.C,C24*%
X132250000Y-114770000D03*
X132250000Y-115730000D03*
%TD*%
D38*
%TO.C,R42*%
X86750000Y-135031660D03*
X86750000Y-133206660D03*
%TD*%
D32*
%TO.C,R30*%
X190400000Y-76990000D03*
X190400000Y-78010000D03*
%TD*%
D25*
%TO.C,R54*%
X124750000Y-132760000D03*
X124750000Y-131740000D03*
%TD*%
D79*
%TO.C,SW5*%
X66200000Y-72250000D03*
X54800000Y-72250000D03*
D80*
X63000000Y-79750000D03*
X58000000Y-79750000D03*
X60500000Y-79750000D03*
X63000000Y-65250000D03*
X58000000Y-65250000D03*
%TD*%
D81*
%TO.C,J15*%
X129330000Y-137500000D03*
X119170000Y-138516000D03*
X119170000Y-136484000D03*
%TD*%
D79*
%TO.C,SW4*%
X193700000Y-72250000D03*
X182300000Y-72250000D03*
D80*
X190500000Y-79750000D03*
X185500000Y-79750000D03*
X188000000Y-79750000D03*
X190500000Y-65250000D03*
X185500000Y-65250000D03*
%TD*%
D82*
%TO.C,SW8*%
X65580000Y-90500000D03*
D83*
X60500000Y-90500000D03*
D82*
X55420000Y-90500000D03*
D84*
X64310000Y-87960000D03*
X57960000Y-85420000D03*
%TD*%
D82*
%TO.C,SW7*%
X193080000Y-90500000D03*
D83*
X188000000Y-90500000D03*
D82*
X182920000Y-90500000D03*
D84*
X191810000Y-87960000D03*
X185460000Y-85420000D03*
%TD*%
%LPD*%
M02*
