%TF.GenerationSoftware,KiCad,Pcbnew,8.0.4*%
%TF.CreationDate,2024-08-25T23:45:09+02:00*%
%TF.ProjectId,KLST_PANDA,4b4c5354-5f50-4414-9e44-412e6b696361,rev?*%
%TF.SameCoordinates,Original*%
%TF.FileFunction,Other,Comment*%
%FSLAX46Y46*%
G04 Gerber Fmt 4.6, Leading zero omitted, Abs format (unit mm)*
G04 Created by KiCad (PCBNEW 8.0.4) date 2024-08-25 23:45:09*
%MOMM*%
%LPD*%
G01*
G04 APERTURE LIST*
%ADD10C,0.150000*%
%ADD11C,0.100000*%
%ADD12C,0.060000*%
%ADD13C,0.090000*%
%ADD14C,0.600000*%
%ADD15C,0.000000*%
%ADD16C,0.200000*%
G04 APERTURE END LIST*
D10*
X202039160Y-64742200D02*
X202182017Y-64789819D01*
X202182017Y-64789819D02*
X202420112Y-64789819D01*
X202420112Y-64789819D02*
X202515350Y-64742200D01*
X202515350Y-64742200D02*
X202562969Y-64694580D01*
X202562969Y-64694580D02*
X202610588Y-64599342D01*
X202610588Y-64599342D02*
X202610588Y-64504104D01*
X202610588Y-64504104D02*
X202562969Y-64408866D01*
X202562969Y-64408866D02*
X202515350Y-64361247D01*
X202515350Y-64361247D02*
X202420112Y-64313628D01*
X202420112Y-64313628D02*
X202229636Y-64266009D01*
X202229636Y-64266009D02*
X202134398Y-64218390D01*
X202134398Y-64218390D02*
X202086779Y-64170771D01*
X202086779Y-64170771D02*
X202039160Y-64075533D01*
X202039160Y-64075533D02*
X202039160Y-63980295D01*
X202039160Y-63980295D02*
X202086779Y-63885057D01*
X202086779Y-63885057D02*
X202134398Y-63837438D01*
X202134398Y-63837438D02*
X202229636Y-63789819D01*
X202229636Y-63789819D02*
X202467731Y-63789819D01*
X202467731Y-63789819D02*
X202610588Y-63837438D01*
X202896303Y-63789819D02*
X203467731Y-63789819D01*
X203182017Y-64789819D02*
X203182017Y-63789819D01*
X203753446Y-64504104D02*
X204229636Y-64504104D01*
X203658208Y-64789819D02*
X203991541Y-63789819D01*
X203991541Y-63789819D02*
X204324874Y-64789819D01*
X205229636Y-64694580D02*
X205182017Y-64742200D01*
X205182017Y-64742200D02*
X205039160Y-64789819D01*
X205039160Y-64789819D02*
X204943922Y-64789819D01*
X204943922Y-64789819D02*
X204801065Y-64742200D01*
X204801065Y-64742200D02*
X204705827Y-64646961D01*
X204705827Y-64646961D02*
X204658208Y-64551723D01*
X204658208Y-64551723D02*
X204610589Y-64361247D01*
X204610589Y-64361247D02*
X204610589Y-64218390D01*
X204610589Y-64218390D02*
X204658208Y-64027914D01*
X204658208Y-64027914D02*
X204705827Y-63932676D01*
X204705827Y-63932676D02*
X204801065Y-63837438D01*
X204801065Y-63837438D02*
X204943922Y-63789819D01*
X204943922Y-63789819D02*
X205039160Y-63789819D01*
X205039160Y-63789819D02*
X205182017Y-63837438D01*
X205182017Y-63837438D02*
X205229636Y-63885057D01*
X205658208Y-64789819D02*
X205658208Y-63789819D01*
X206229636Y-64789819D02*
X205801065Y-64218390D01*
X206229636Y-63789819D02*
X205658208Y-64361247D01*
X206658208Y-64408866D02*
X207420113Y-64408866D01*
X207896303Y-63789819D02*
X207896303Y-64599342D01*
X207896303Y-64599342D02*
X207943922Y-64694580D01*
X207943922Y-64694580D02*
X207991541Y-64742200D01*
X207991541Y-64742200D02*
X208086779Y-64789819D01*
X208086779Y-64789819D02*
X208277255Y-64789819D01*
X208277255Y-64789819D02*
X208372493Y-64742200D01*
X208372493Y-64742200D02*
X208420112Y-64694580D01*
X208420112Y-64694580D02*
X208467731Y-64599342D01*
X208467731Y-64599342D02*
X208467731Y-63789819D01*
X208943922Y-64789819D02*
X208943922Y-63789819D01*
X208943922Y-63789819D02*
X209324874Y-63789819D01*
X209324874Y-63789819D02*
X209420112Y-63837438D01*
X209420112Y-63837438D02*
X209467731Y-63885057D01*
X209467731Y-63885057D02*
X209515350Y-63980295D01*
X209515350Y-63980295D02*
X209515350Y-64123152D01*
X209515350Y-64123152D02*
X209467731Y-64218390D01*
X209467731Y-64218390D02*
X209420112Y-64266009D01*
X209420112Y-64266009D02*
X209324874Y-64313628D01*
X209324874Y-64313628D02*
X208943922Y-64313628D01*
X202610588Y-68009707D02*
X202039160Y-68009707D01*
X202324874Y-68009707D02*
X202324874Y-67009707D01*
X202324874Y-67009707D02*
X202229636Y-67152564D01*
X202229636Y-67152564D02*
X202134398Y-67247802D01*
X202134398Y-67247802D02*
X202039160Y-67295421D01*
X203039160Y-67914468D02*
X203086779Y-67962088D01*
X203086779Y-67962088D02*
X203039160Y-68009707D01*
X203039160Y-68009707D02*
X202991541Y-67962088D01*
X202991541Y-67962088D02*
X203039160Y-67914468D01*
X203039160Y-67914468D02*
X203039160Y-68009707D01*
X204610588Y-67485897D02*
X204277255Y-67485897D01*
X204277255Y-68009707D02*
X204277255Y-67009707D01*
X204277255Y-67009707D02*
X204753445Y-67009707D01*
X205134398Y-67914468D02*
X205182017Y-67962088D01*
X205182017Y-67962088D02*
X205134398Y-68009707D01*
X205134398Y-68009707D02*
X205086779Y-67962088D01*
X205086779Y-67962088D02*
X205134398Y-67914468D01*
X205134398Y-67914468D02*
X205134398Y-68009707D01*
X206182016Y-67914468D02*
X206134397Y-67962088D01*
X206134397Y-67962088D02*
X205991540Y-68009707D01*
X205991540Y-68009707D02*
X205896302Y-68009707D01*
X205896302Y-68009707D02*
X205753445Y-67962088D01*
X205753445Y-67962088D02*
X205658207Y-67866849D01*
X205658207Y-67866849D02*
X205610588Y-67771611D01*
X205610588Y-67771611D02*
X205562969Y-67581135D01*
X205562969Y-67581135D02*
X205562969Y-67438278D01*
X205562969Y-67438278D02*
X205610588Y-67247802D01*
X205610588Y-67247802D02*
X205658207Y-67152564D01*
X205658207Y-67152564D02*
X205753445Y-67057326D01*
X205753445Y-67057326D02*
X205896302Y-67009707D01*
X205896302Y-67009707D02*
X205991540Y-67009707D01*
X205991540Y-67009707D02*
X206134397Y-67057326D01*
X206134397Y-67057326D02*
X206182016Y-67104945D01*
X207039159Y-67343040D02*
X207039159Y-68009707D01*
X206610588Y-67343040D02*
X206610588Y-67866849D01*
X206610588Y-67866849D02*
X206658207Y-67962088D01*
X206658207Y-67962088D02*
X206753445Y-68009707D01*
X206753445Y-68009707D02*
X206896302Y-68009707D01*
X206896302Y-68009707D02*
X206991540Y-67962088D01*
X206991540Y-67962088D02*
X207039159Y-67914468D01*
X209801065Y-67343040D02*
X210562970Y-67628754D01*
X210562970Y-67628754D02*
X209801065Y-67914468D01*
X211753446Y-67962088D02*
X211896303Y-68009707D01*
X211896303Y-68009707D02*
X212134398Y-68009707D01*
X212134398Y-68009707D02*
X212229636Y-67962088D01*
X212229636Y-67962088D02*
X212277255Y-67914468D01*
X212277255Y-67914468D02*
X212324874Y-67819230D01*
X212324874Y-67819230D02*
X212324874Y-67723992D01*
X212324874Y-67723992D02*
X212277255Y-67628754D01*
X212277255Y-67628754D02*
X212229636Y-67581135D01*
X212229636Y-67581135D02*
X212134398Y-67533516D01*
X212134398Y-67533516D02*
X211943922Y-67485897D01*
X211943922Y-67485897D02*
X211848684Y-67438278D01*
X211848684Y-67438278D02*
X211801065Y-67390659D01*
X211801065Y-67390659D02*
X211753446Y-67295421D01*
X211753446Y-67295421D02*
X211753446Y-67200183D01*
X211753446Y-67200183D02*
X211801065Y-67104945D01*
X211801065Y-67104945D02*
X211848684Y-67057326D01*
X211848684Y-67057326D02*
X211943922Y-67009707D01*
X211943922Y-67009707D02*
X212182017Y-67009707D01*
X212182017Y-67009707D02*
X212324874Y-67057326D01*
X212753446Y-68009707D02*
X212753446Y-67009707D01*
X213753445Y-67057326D02*
X213658207Y-67009707D01*
X213658207Y-67009707D02*
X213515350Y-67009707D01*
X213515350Y-67009707D02*
X213372493Y-67057326D01*
X213372493Y-67057326D02*
X213277255Y-67152564D01*
X213277255Y-67152564D02*
X213229636Y-67247802D01*
X213229636Y-67247802D02*
X213182017Y-67438278D01*
X213182017Y-67438278D02*
X213182017Y-67581135D01*
X213182017Y-67581135D02*
X213229636Y-67771611D01*
X213229636Y-67771611D02*
X213277255Y-67866849D01*
X213277255Y-67866849D02*
X213372493Y-67962088D01*
X213372493Y-67962088D02*
X213515350Y-68009707D01*
X213515350Y-68009707D02*
X213610588Y-68009707D01*
X213610588Y-68009707D02*
X213753445Y-67962088D01*
X213753445Y-67962088D02*
X213801064Y-67914468D01*
X213801064Y-67914468D02*
X213801064Y-67581135D01*
X213801064Y-67581135D02*
X213610588Y-67581135D01*
X202039160Y-68714889D02*
X202086779Y-68667270D01*
X202086779Y-68667270D02*
X202182017Y-68619651D01*
X202182017Y-68619651D02*
X202420112Y-68619651D01*
X202420112Y-68619651D02*
X202515350Y-68667270D01*
X202515350Y-68667270D02*
X202562969Y-68714889D01*
X202562969Y-68714889D02*
X202610588Y-68810127D01*
X202610588Y-68810127D02*
X202610588Y-68905365D01*
X202610588Y-68905365D02*
X202562969Y-69048222D01*
X202562969Y-69048222D02*
X201991541Y-69619651D01*
X201991541Y-69619651D02*
X202610588Y-69619651D01*
X203039160Y-69524412D02*
X203086779Y-69572032D01*
X203086779Y-69572032D02*
X203039160Y-69619651D01*
X203039160Y-69619651D02*
X202991541Y-69572032D01*
X202991541Y-69572032D02*
X203039160Y-69524412D01*
X203039160Y-69524412D02*
X203039160Y-69619651D01*
X204277255Y-69619651D02*
X204277255Y-68619651D01*
X204753445Y-68952984D02*
X204753445Y-69619651D01*
X204753445Y-69048222D02*
X204801064Y-69000603D01*
X204801064Y-69000603D02*
X204896302Y-68952984D01*
X204896302Y-68952984D02*
X205039159Y-68952984D01*
X205039159Y-68952984D02*
X205134397Y-69000603D01*
X205134397Y-69000603D02*
X205182016Y-69095841D01*
X205182016Y-69095841D02*
X205182016Y-69619651D01*
X206182016Y-69619651D02*
X205610588Y-69619651D01*
X205896302Y-69619651D02*
X205896302Y-68619651D01*
X205896302Y-68619651D02*
X205801064Y-68762508D01*
X205801064Y-68762508D02*
X205705826Y-68857746D01*
X205705826Y-68857746D02*
X205610588Y-68905365D01*
X206610588Y-69524412D02*
X206658207Y-69572032D01*
X206658207Y-69572032D02*
X206610588Y-69619651D01*
X206610588Y-69619651D02*
X206562969Y-69572032D01*
X206562969Y-69572032D02*
X206610588Y-69524412D01*
X206610588Y-69524412D02*
X206610588Y-69619651D01*
X207658206Y-69524412D02*
X207610587Y-69572032D01*
X207610587Y-69572032D02*
X207467730Y-69619651D01*
X207467730Y-69619651D02*
X207372492Y-69619651D01*
X207372492Y-69619651D02*
X207229635Y-69572032D01*
X207229635Y-69572032D02*
X207134397Y-69476793D01*
X207134397Y-69476793D02*
X207086778Y-69381555D01*
X207086778Y-69381555D02*
X207039159Y-69191079D01*
X207039159Y-69191079D02*
X207039159Y-69048222D01*
X207039159Y-69048222D02*
X207086778Y-68857746D01*
X207086778Y-68857746D02*
X207134397Y-68762508D01*
X207134397Y-68762508D02*
X207229635Y-68667270D01*
X207229635Y-68667270D02*
X207372492Y-68619651D01*
X207372492Y-68619651D02*
X207467730Y-68619651D01*
X207467730Y-68619651D02*
X207610587Y-68667270D01*
X207610587Y-68667270D02*
X207658206Y-68714889D01*
X208515349Y-68952984D02*
X208515349Y-69619651D01*
X208086778Y-68952984D02*
X208086778Y-69476793D01*
X208086778Y-69476793D02*
X208134397Y-69572032D01*
X208134397Y-69572032D02*
X208229635Y-69619651D01*
X208229635Y-69619651D02*
X208372492Y-69619651D01*
X208372492Y-69619651D02*
X208467730Y-69572032D01*
X208467730Y-69572032D02*
X208515349Y-69524412D01*
X209753445Y-68952984D02*
X210515350Y-69238698D01*
X210515350Y-69238698D02*
X209753445Y-69524412D01*
X212277254Y-68667270D02*
X212182016Y-68619651D01*
X212182016Y-68619651D02*
X212039159Y-68619651D01*
X212039159Y-68619651D02*
X211896302Y-68667270D01*
X211896302Y-68667270D02*
X211801064Y-68762508D01*
X211801064Y-68762508D02*
X211753445Y-68857746D01*
X211753445Y-68857746D02*
X211705826Y-69048222D01*
X211705826Y-69048222D02*
X211705826Y-69191079D01*
X211705826Y-69191079D02*
X211753445Y-69381555D01*
X211753445Y-69381555D02*
X211801064Y-69476793D01*
X211801064Y-69476793D02*
X211896302Y-69572032D01*
X211896302Y-69572032D02*
X212039159Y-69619651D01*
X212039159Y-69619651D02*
X212134397Y-69619651D01*
X212134397Y-69619651D02*
X212277254Y-69572032D01*
X212277254Y-69572032D02*
X212324873Y-69524412D01*
X212324873Y-69524412D02*
X212324873Y-69191079D01*
X212324873Y-69191079D02*
X212134397Y-69191079D01*
X212753445Y-69619651D02*
X212753445Y-68619651D01*
X212753445Y-68619651D02*
X213324873Y-69619651D01*
X213324873Y-69619651D02*
X213324873Y-68619651D01*
X213801064Y-69619651D02*
X213801064Y-68619651D01*
X213801064Y-68619651D02*
X214039159Y-68619651D01*
X214039159Y-68619651D02*
X214182016Y-68667270D01*
X214182016Y-68667270D02*
X214277254Y-68762508D01*
X214277254Y-68762508D02*
X214324873Y-68857746D01*
X214324873Y-68857746D02*
X214372492Y-69048222D01*
X214372492Y-69048222D02*
X214372492Y-69191079D01*
X214372492Y-69191079D02*
X214324873Y-69381555D01*
X214324873Y-69381555D02*
X214277254Y-69476793D01*
X214277254Y-69476793D02*
X214182016Y-69572032D01*
X214182016Y-69572032D02*
X214039159Y-69619651D01*
X214039159Y-69619651D02*
X213801064Y-69619651D01*
X201991541Y-70229595D02*
X202610588Y-70229595D01*
X202610588Y-70229595D02*
X202277255Y-70610547D01*
X202277255Y-70610547D02*
X202420112Y-70610547D01*
X202420112Y-70610547D02*
X202515350Y-70658166D01*
X202515350Y-70658166D02*
X202562969Y-70705785D01*
X202562969Y-70705785D02*
X202610588Y-70801023D01*
X202610588Y-70801023D02*
X202610588Y-71039118D01*
X202610588Y-71039118D02*
X202562969Y-71134356D01*
X202562969Y-71134356D02*
X202515350Y-71181976D01*
X202515350Y-71181976D02*
X202420112Y-71229595D01*
X202420112Y-71229595D02*
X202134398Y-71229595D01*
X202134398Y-71229595D02*
X202039160Y-71181976D01*
X202039160Y-71181976D02*
X201991541Y-71134356D01*
X203039160Y-71134356D02*
X203086779Y-71181976D01*
X203086779Y-71181976D02*
X203039160Y-71229595D01*
X203039160Y-71229595D02*
X202991541Y-71181976D01*
X202991541Y-71181976D02*
X203039160Y-71134356D01*
X203039160Y-71134356D02*
X203039160Y-71229595D01*
X204277255Y-71229595D02*
X204277255Y-70229595D01*
X204753445Y-70562928D02*
X204753445Y-71229595D01*
X204753445Y-70658166D02*
X204801064Y-70610547D01*
X204801064Y-70610547D02*
X204896302Y-70562928D01*
X204896302Y-70562928D02*
X205039159Y-70562928D01*
X205039159Y-70562928D02*
X205134397Y-70610547D01*
X205134397Y-70610547D02*
X205182016Y-70705785D01*
X205182016Y-70705785D02*
X205182016Y-71229595D01*
X205610588Y-70324833D02*
X205658207Y-70277214D01*
X205658207Y-70277214D02*
X205753445Y-70229595D01*
X205753445Y-70229595D02*
X205991540Y-70229595D01*
X205991540Y-70229595D02*
X206086778Y-70277214D01*
X206086778Y-70277214D02*
X206134397Y-70324833D01*
X206134397Y-70324833D02*
X206182016Y-70420071D01*
X206182016Y-70420071D02*
X206182016Y-70515309D01*
X206182016Y-70515309D02*
X206134397Y-70658166D01*
X206134397Y-70658166D02*
X205562969Y-71229595D01*
X205562969Y-71229595D02*
X206182016Y-71229595D01*
X206610588Y-71134356D02*
X206658207Y-71181976D01*
X206658207Y-71181976D02*
X206610588Y-71229595D01*
X206610588Y-71229595D02*
X206562969Y-71181976D01*
X206562969Y-71181976D02*
X206610588Y-71134356D01*
X206610588Y-71134356D02*
X206610588Y-71229595D01*
X207658206Y-71134356D02*
X207610587Y-71181976D01*
X207610587Y-71181976D02*
X207467730Y-71229595D01*
X207467730Y-71229595D02*
X207372492Y-71229595D01*
X207372492Y-71229595D02*
X207229635Y-71181976D01*
X207229635Y-71181976D02*
X207134397Y-71086737D01*
X207134397Y-71086737D02*
X207086778Y-70991499D01*
X207086778Y-70991499D02*
X207039159Y-70801023D01*
X207039159Y-70801023D02*
X207039159Y-70658166D01*
X207039159Y-70658166D02*
X207086778Y-70467690D01*
X207086778Y-70467690D02*
X207134397Y-70372452D01*
X207134397Y-70372452D02*
X207229635Y-70277214D01*
X207229635Y-70277214D02*
X207372492Y-70229595D01*
X207372492Y-70229595D02*
X207467730Y-70229595D01*
X207467730Y-70229595D02*
X207610587Y-70277214D01*
X207610587Y-70277214D02*
X207658206Y-70324833D01*
X208515349Y-70562928D02*
X208515349Y-71229595D01*
X208086778Y-70562928D02*
X208086778Y-71086737D01*
X208086778Y-71086737D02*
X208134397Y-71181976D01*
X208134397Y-71181976D02*
X208229635Y-71229595D01*
X208229635Y-71229595D02*
X208372492Y-71229595D01*
X208372492Y-71229595D02*
X208467730Y-71181976D01*
X208467730Y-71181976D02*
X208515349Y-71134356D01*
X209753445Y-70562928D02*
X210515350Y-70848642D01*
X210515350Y-70848642D02*
X209753445Y-71134356D01*
X211705826Y-71181976D02*
X211848683Y-71229595D01*
X211848683Y-71229595D02*
X212086778Y-71229595D01*
X212086778Y-71229595D02*
X212182016Y-71181976D01*
X212182016Y-71181976D02*
X212229635Y-71134356D01*
X212229635Y-71134356D02*
X212277254Y-71039118D01*
X212277254Y-71039118D02*
X212277254Y-70943880D01*
X212277254Y-70943880D02*
X212229635Y-70848642D01*
X212229635Y-70848642D02*
X212182016Y-70801023D01*
X212182016Y-70801023D02*
X212086778Y-70753404D01*
X212086778Y-70753404D02*
X211896302Y-70705785D01*
X211896302Y-70705785D02*
X211801064Y-70658166D01*
X211801064Y-70658166D02*
X211753445Y-70610547D01*
X211753445Y-70610547D02*
X211705826Y-70515309D01*
X211705826Y-70515309D02*
X211705826Y-70420071D01*
X211705826Y-70420071D02*
X211753445Y-70324833D01*
X211753445Y-70324833D02*
X211801064Y-70277214D01*
X211801064Y-70277214D02*
X211896302Y-70229595D01*
X211896302Y-70229595D02*
X212134397Y-70229595D01*
X212134397Y-70229595D02*
X212277254Y-70277214D01*
X212705826Y-71229595D02*
X212705826Y-70229595D01*
X213705825Y-70277214D02*
X213610587Y-70229595D01*
X213610587Y-70229595D02*
X213467730Y-70229595D01*
X213467730Y-70229595D02*
X213324873Y-70277214D01*
X213324873Y-70277214D02*
X213229635Y-70372452D01*
X213229635Y-70372452D02*
X213182016Y-70467690D01*
X213182016Y-70467690D02*
X213134397Y-70658166D01*
X213134397Y-70658166D02*
X213134397Y-70801023D01*
X213134397Y-70801023D02*
X213182016Y-70991499D01*
X213182016Y-70991499D02*
X213229635Y-71086737D01*
X213229635Y-71086737D02*
X213324873Y-71181976D01*
X213324873Y-71181976D02*
X213467730Y-71229595D01*
X213467730Y-71229595D02*
X213562968Y-71229595D01*
X213562968Y-71229595D02*
X213705825Y-71181976D01*
X213705825Y-71181976D02*
X213753444Y-71134356D01*
X213753444Y-71134356D02*
X213753444Y-70801023D01*
X213753444Y-70801023D02*
X213562968Y-70801023D01*
X202515350Y-72172872D02*
X202515350Y-72839539D01*
X202277255Y-71791920D02*
X202039160Y-72506205D01*
X202039160Y-72506205D02*
X202658207Y-72506205D01*
X203039160Y-72744300D02*
X203086779Y-72791920D01*
X203086779Y-72791920D02*
X203039160Y-72839539D01*
X203039160Y-72839539D02*
X202991541Y-72791920D01*
X202991541Y-72791920D02*
X203039160Y-72744300D01*
X203039160Y-72744300D02*
X203039160Y-72839539D01*
X204277255Y-72839539D02*
X204277255Y-71839539D01*
X204753445Y-72172872D02*
X204753445Y-72839539D01*
X204753445Y-72268110D02*
X204801064Y-72220491D01*
X204801064Y-72220491D02*
X204896302Y-72172872D01*
X204896302Y-72172872D02*
X205039159Y-72172872D01*
X205039159Y-72172872D02*
X205134397Y-72220491D01*
X205134397Y-72220491D02*
X205182016Y-72315729D01*
X205182016Y-72315729D02*
X205182016Y-72839539D01*
X205562969Y-71839539D02*
X206182016Y-71839539D01*
X206182016Y-71839539D02*
X205848683Y-72220491D01*
X205848683Y-72220491D02*
X205991540Y-72220491D01*
X205991540Y-72220491D02*
X206086778Y-72268110D01*
X206086778Y-72268110D02*
X206134397Y-72315729D01*
X206134397Y-72315729D02*
X206182016Y-72410967D01*
X206182016Y-72410967D02*
X206182016Y-72649062D01*
X206182016Y-72649062D02*
X206134397Y-72744300D01*
X206134397Y-72744300D02*
X206086778Y-72791920D01*
X206086778Y-72791920D02*
X205991540Y-72839539D01*
X205991540Y-72839539D02*
X205705826Y-72839539D01*
X205705826Y-72839539D02*
X205610588Y-72791920D01*
X205610588Y-72791920D02*
X205562969Y-72744300D01*
X206610588Y-72744300D02*
X206658207Y-72791920D01*
X206658207Y-72791920D02*
X206610588Y-72839539D01*
X206610588Y-72839539D02*
X206562969Y-72791920D01*
X206562969Y-72791920D02*
X206610588Y-72744300D01*
X206610588Y-72744300D02*
X206610588Y-72839539D01*
X207658206Y-72744300D02*
X207610587Y-72791920D01*
X207610587Y-72791920D02*
X207467730Y-72839539D01*
X207467730Y-72839539D02*
X207372492Y-72839539D01*
X207372492Y-72839539D02*
X207229635Y-72791920D01*
X207229635Y-72791920D02*
X207134397Y-72696681D01*
X207134397Y-72696681D02*
X207086778Y-72601443D01*
X207086778Y-72601443D02*
X207039159Y-72410967D01*
X207039159Y-72410967D02*
X207039159Y-72268110D01*
X207039159Y-72268110D02*
X207086778Y-72077634D01*
X207086778Y-72077634D02*
X207134397Y-71982396D01*
X207134397Y-71982396D02*
X207229635Y-71887158D01*
X207229635Y-71887158D02*
X207372492Y-71839539D01*
X207372492Y-71839539D02*
X207467730Y-71839539D01*
X207467730Y-71839539D02*
X207610587Y-71887158D01*
X207610587Y-71887158D02*
X207658206Y-71934777D01*
X208515349Y-72172872D02*
X208515349Y-72839539D01*
X208086778Y-72172872D02*
X208086778Y-72696681D01*
X208086778Y-72696681D02*
X208134397Y-72791920D01*
X208134397Y-72791920D02*
X208229635Y-72839539D01*
X208229635Y-72839539D02*
X208372492Y-72839539D01*
X208372492Y-72839539D02*
X208467730Y-72791920D01*
X208467730Y-72791920D02*
X208515349Y-72744300D01*
X209753445Y-72172872D02*
X210515350Y-72458586D01*
X210515350Y-72458586D02*
X209753445Y-72744300D01*
X211753445Y-72839539D02*
X211753445Y-71839539D01*
X211753445Y-71839539D02*
X212134397Y-71839539D01*
X212134397Y-71839539D02*
X212229635Y-71887158D01*
X212229635Y-71887158D02*
X212277254Y-71934777D01*
X212277254Y-71934777D02*
X212324873Y-72030015D01*
X212324873Y-72030015D02*
X212324873Y-72172872D01*
X212324873Y-72172872D02*
X212277254Y-72268110D01*
X212277254Y-72268110D02*
X212229635Y-72315729D01*
X212229635Y-72315729D02*
X212134397Y-72363348D01*
X212134397Y-72363348D02*
X211753445Y-72363348D01*
X212658207Y-71839539D02*
X212896302Y-72839539D01*
X212896302Y-72839539D02*
X213086778Y-72125253D01*
X213086778Y-72125253D02*
X213277254Y-72839539D01*
X213277254Y-72839539D02*
X213515350Y-71839539D01*
X214467730Y-72839539D02*
X214134397Y-72363348D01*
X213896302Y-72839539D02*
X213896302Y-71839539D01*
X213896302Y-71839539D02*
X214277254Y-71839539D01*
X214277254Y-71839539D02*
X214372492Y-71887158D01*
X214372492Y-71887158D02*
X214420111Y-71934777D01*
X214420111Y-71934777D02*
X214467730Y-72030015D01*
X214467730Y-72030015D02*
X214467730Y-72172872D01*
X214467730Y-72172872D02*
X214420111Y-72268110D01*
X214420111Y-72268110D02*
X214372492Y-72315729D01*
X214372492Y-72315729D02*
X214277254Y-72363348D01*
X214277254Y-72363348D02*
X213896302Y-72363348D01*
X202562969Y-73449483D02*
X202086779Y-73449483D01*
X202086779Y-73449483D02*
X202039160Y-73925673D01*
X202039160Y-73925673D02*
X202086779Y-73878054D01*
X202086779Y-73878054D02*
X202182017Y-73830435D01*
X202182017Y-73830435D02*
X202420112Y-73830435D01*
X202420112Y-73830435D02*
X202515350Y-73878054D01*
X202515350Y-73878054D02*
X202562969Y-73925673D01*
X202562969Y-73925673D02*
X202610588Y-74020911D01*
X202610588Y-74020911D02*
X202610588Y-74259006D01*
X202610588Y-74259006D02*
X202562969Y-74354244D01*
X202562969Y-74354244D02*
X202515350Y-74401864D01*
X202515350Y-74401864D02*
X202420112Y-74449483D01*
X202420112Y-74449483D02*
X202182017Y-74449483D01*
X202182017Y-74449483D02*
X202086779Y-74401864D01*
X202086779Y-74401864D02*
X202039160Y-74354244D01*
X203039160Y-74354244D02*
X203086779Y-74401864D01*
X203086779Y-74401864D02*
X203039160Y-74449483D01*
X203039160Y-74449483D02*
X202991541Y-74401864D01*
X202991541Y-74401864D02*
X203039160Y-74354244D01*
X203039160Y-74354244D02*
X203039160Y-74449483D01*
X204277255Y-74449483D02*
X204277255Y-73449483D01*
X204753445Y-73782816D02*
X204753445Y-74449483D01*
X204753445Y-73878054D02*
X204801064Y-73830435D01*
X204801064Y-73830435D02*
X204896302Y-73782816D01*
X204896302Y-73782816D02*
X205039159Y-73782816D01*
X205039159Y-73782816D02*
X205134397Y-73830435D01*
X205134397Y-73830435D02*
X205182016Y-73925673D01*
X205182016Y-73925673D02*
X205182016Y-74449483D01*
X206086778Y-73782816D02*
X206086778Y-74449483D01*
X205848683Y-73401864D02*
X205610588Y-74116149D01*
X205610588Y-74116149D02*
X206229635Y-74116149D01*
X206610588Y-74354244D02*
X206658207Y-74401864D01*
X206658207Y-74401864D02*
X206610588Y-74449483D01*
X206610588Y-74449483D02*
X206562969Y-74401864D01*
X206562969Y-74401864D02*
X206610588Y-74354244D01*
X206610588Y-74354244D02*
X206610588Y-74449483D01*
X207658206Y-74354244D02*
X207610587Y-74401864D01*
X207610587Y-74401864D02*
X207467730Y-74449483D01*
X207467730Y-74449483D02*
X207372492Y-74449483D01*
X207372492Y-74449483D02*
X207229635Y-74401864D01*
X207229635Y-74401864D02*
X207134397Y-74306625D01*
X207134397Y-74306625D02*
X207086778Y-74211387D01*
X207086778Y-74211387D02*
X207039159Y-74020911D01*
X207039159Y-74020911D02*
X207039159Y-73878054D01*
X207039159Y-73878054D02*
X207086778Y-73687578D01*
X207086778Y-73687578D02*
X207134397Y-73592340D01*
X207134397Y-73592340D02*
X207229635Y-73497102D01*
X207229635Y-73497102D02*
X207372492Y-73449483D01*
X207372492Y-73449483D02*
X207467730Y-73449483D01*
X207467730Y-73449483D02*
X207610587Y-73497102D01*
X207610587Y-73497102D02*
X207658206Y-73544721D01*
X208515349Y-73782816D02*
X208515349Y-74449483D01*
X208086778Y-73782816D02*
X208086778Y-74306625D01*
X208086778Y-74306625D02*
X208134397Y-74401864D01*
X208134397Y-74401864D02*
X208229635Y-74449483D01*
X208229635Y-74449483D02*
X208372492Y-74449483D01*
X208372492Y-74449483D02*
X208467730Y-74401864D01*
X208467730Y-74401864D02*
X208515349Y-74354244D01*
X209753445Y-73782816D02*
X210515350Y-74068530D01*
X210515350Y-74068530D02*
X209753445Y-74354244D01*
X212277254Y-73497102D02*
X212182016Y-73449483D01*
X212182016Y-73449483D02*
X212039159Y-73449483D01*
X212039159Y-73449483D02*
X211896302Y-73497102D01*
X211896302Y-73497102D02*
X211801064Y-73592340D01*
X211801064Y-73592340D02*
X211753445Y-73687578D01*
X211753445Y-73687578D02*
X211705826Y-73878054D01*
X211705826Y-73878054D02*
X211705826Y-74020911D01*
X211705826Y-74020911D02*
X211753445Y-74211387D01*
X211753445Y-74211387D02*
X211801064Y-74306625D01*
X211801064Y-74306625D02*
X211896302Y-74401864D01*
X211896302Y-74401864D02*
X212039159Y-74449483D01*
X212039159Y-74449483D02*
X212134397Y-74449483D01*
X212134397Y-74449483D02*
X212277254Y-74401864D01*
X212277254Y-74401864D02*
X212324873Y-74354244D01*
X212324873Y-74354244D02*
X212324873Y-74020911D01*
X212324873Y-74020911D02*
X212134397Y-74020911D01*
X212753445Y-74449483D02*
X212753445Y-73449483D01*
X212753445Y-73449483D02*
X213324873Y-74449483D01*
X213324873Y-74449483D02*
X213324873Y-73449483D01*
X213801064Y-74449483D02*
X213801064Y-73449483D01*
X213801064Y-73449483D02*
X214039159Y-73449483D01*
X214039159Y-73449483D02*
X214182016Y-73497102D01*
X214182016Y-73497102D02*
X214277254Y-73592340D01*
X214277254Y-73592340D02*
X214324873Y-73687578D01*
X214324873Y-73687578D02*
X214372492Y-73878054D01*
X214372492Y-73878054D02*
X214372492Y-74020911D01*
X214372492Y-74020911D02*
X214324873Y-74211387D01*
X214324873Y-74211387D02*
X214277254Y-74306625D01*
X214277254Y-74306625D02*
X214182016Y-74401864D01*
X214182016Y-74401864D02*
X214039159Y-74449483D01*
X214039159Y-74449483D02*
X213801064Y-74449483D01*
X202515350Y-75059427D02*
X202324874Y-75059427D01*
X202324874Y-75059427D02*
X202229636Y-75107046D01*
X202229636Y-75107046D02*
X202182017Y-75154665D01*
X202182017Y-75154665D02*
X202086779Y-75297522D01*
X202086779Y-75297522D02*
X202039160Y-75487998D01*
X202039160Y-75487998D02*
X202039160Y-75868950D01*
X202039160Y-75868950D02*
X202086779Y-75964188D01*
X202086779Y-75964188D02*
X202134398Y-76011808D01*
X202134398Y-76011808D02*
X202229636Y-76059427D01*
X202229636Y-76059427D02*
X202420112Y-76059427D01*
X202420112Y-76059427D02*
X202515350Y-76011808D01*
X202515350Y-76011808D02*
X202562969Y-75964188D01*
X202562969Y-75964188D02*
X202610588Y-75868950D01*
X202610588Y-75868950D02*
X202610588Y-75630855D01*
X202610588Y-75630855D02*
X202562969Y-75535617D01*
X202562969Y-75535617D02*
X202515350Y-75487998D01*
X202515350Y-75487998D02*
X202420112Y-75440379D01*
X202420112Y-75440379D02*
X202229636Y-75440379D01*
X202229636Y-75440379D02*
X202134398Y-75487998D01*
X202134398Y-75487998D02*
X202086779Y-75535617D01*
X202086779Y-75535617D02*
X202039160Y-75630855D01*
X203039160Y-75964188D02*
X203086779Y-76011808D01*
X203086779Y-76011808D02*
X203039160Y-76059427D01*
X203039160Y-76059427D02*
X202991541Y-76011808D01*
X202991541Y-76011808D02*
X203039160Y-75964188D01*
X203039160Y-75964188D02*
X203039160Y-76059427D01*
X204610588Y-75535617D02*
X204753445Y-75583236D01*
X204753445Y-75583236D02*
X204801064Y-75630855D01*
X204801064Y-75630855D02*
X204848683Y-75726093D01*
X204848683Y-75726093D02*
X204848683Y-75868950D01*
X204848683Y-75868950D02*
X204801064Y-75964188D01*
X204801064Y-75964188D02*
X204753445Y-76011808D01*
X204753445Y-76011808D02*
X204658207Y-76059427D01*
X204658207Y-76059427D02*
X204277255Y-76059427D01*
X204277255Y-76059427D02*
X204277255Y-75059427D01*
X204277255Y-75059427D02*
X204610588Y-75059427D01*
X204610588Y-75059427D02*
X204705826Y-75107046D01*
X204705826Y-75107046D02*
X204753445Y-75154665D01*
X204753445Y-75154665D02*
X204801064Y-75249903D01*
X204801064Y-75249903D02*
X204801064Y-75345141D01*
X204801064Y-75345141D02*
X204753445Y-75440379D01*
X204753445Y-75440379D02*
X204705826Y-75487998D01*
X204705826Y-75487998D02*
X204610588Y-75535617D01*
X204610588Y-75535617D02*
X204277255Y-75535617D01*
X205277255Y-75964188D02*
X205324874Y-76011808D01*
X205324874Y-76011808D02*
X205277255Y-76059427D01*
X205277255Y-76059427D02*
X205229636Y-76011808D01*
X205229636Y-76011808D02*
X205277255Y-75964188D01*
X205277255Y-75964188D02*
X205277255Y-76059427D01*
X206324873Y-75964188D02*
X206277254Y-76011808D01*
X206277254Y-76011808D02*
X206134397Y-76059427D01*
X206134397Y-76059427D02*
X206039159Y-76059427D01*
X206039159Y-76059427D02*
X205896302Y-76011808D01*
X205896302Y-76011808D02*
X205801064Y-75916569D01*
X205801064Y-75916569D02*
X205753445Y-75821331D01*
X205753445Y-75821331D02*
X205705826Y-75630855D01*
X205705826Y-75630855D02*
X205705826Y-75487998D01*
X205705826Y-75487998D02*
X205753445Y-75297522D01*
X205753445Y-75297522D02*
X205801064Y-75202284D01*
X205801064Y-75202284D02*
X205896302Y-75107046D01*
X205896302Y-75107046D02*
X206039159Y-75059427D01*
X206039159Y-75059427D02*
X206134397Y-75059427D01*
X206134397Y-75059427D02*
X206277254Y-75107046D01*
X206277254Y-75107046D02*
X206324873Y-75154665D01*
X207182016Y-75392760D02*
X207182016Y-76059427D01*
X206753445Y-75392760D02*
X206753445Y-75916569D01*
X206753445Y-75916569D02*
X206801064Y-76011808D01*
X206801064Y-76011808D02*
X206896302Y-76059427D01*
X206896302Y-76059427D02*
X207039159Y-76059427D01*
X207039159Y-76059427D02*
X207134397Y-76011808D01*
X207134397Y-76011808D02*
X207182016Y-75964188D01*
X209943922Y-75392760D02*
X210705827Y-75678474D01*
X210705827Y-75678474D02*
X209943922Y-75964188D01*
X211896303Y-76011808D02*
X212039160Y-76059427D01*
X212039160Y-76059427D02*
X212277255Y-76059427D01*
X212277255Y-76059427D02*
X212372493Y-76011808D01*
X212372493Y-76011808D02*
X212420112Y-75964188D01*
X212420112Y-75964188D02*
X212467731Y-75868950D01*
X212467731Y-75868950D02*
X212467731Y-75773712D01*
X212467731Y-75773712D02*
X212420112Y-75678474D01*
X212420112Y-75678474D02*
X212372493Y-75630855D01*
X212372493Y-75630855D02*
X212277255Y-75583236D01*
X212277255Y-75583236D02*
X212086779Y-75535617D01*
X212086779Y-75535617D02*
X211991541Y-75487998D01*
X211991541Y-75487998D02*
X211943922Y-75440379D01*
X211943922Y-75440379D02*
X211896303Y-75345141D01*
X211896303Y-75345141D02*
X211896303Y-75249903D01*
X211896303Y-75249903D02*
X211943922Y-75154665D01*
X211943922Y-75154665D02*
X211991541Y-75107046D01*
X211991541Y-75107046D02*
X212086779Y-75059427D01*
X212086779Y-75059427D02*
X212324874Y-75059427D01*
X212324874Y-75059427D02*
X212467731Y-75107046D01*
X212896303Y-76059427D02*
X212896303Y-75059427D01*
X213896302Y-75107046D02*
X213801064Y-75059427D01*
X213801064Y-75059427D02*
X213658207Y-75059427D01*
X213658207Y-75059427D02*
X213515350Y-75107046D01*
X213515350Y-75107046D02*
X213420112Y-75202284D01*
X213420112Y-75202284D02*
X213372493Y-75297522D01*
X213372493Y-75297522D02*
X213324874Y-75487998D01*
X213324874Y-75487998D02*
X213324874Y-75630855D01*
X213324874Y-75630855D02*
X213372493Y-75821331D01*
X213372493Y-75821331D02*
X213420112Y-75916569D01*
X213420112Y-75916569D02*
X213515350Y-76011808D01*
X213515350Y-76011808D02*
X213658207Y-76059427D01*
X213658207Y-76059427D02*
X213753445Y-76059427D01*
X213753445Y-76059427D02*
X213896302Y-76011808D01*
X213896302Y-76011808D02*
X213943921Y-75964188D01*
X213943921Y-75964188D02*
X213943921Y-75630855D01*
X213943921Y-75630855D02*
X213753445Y-75630855D01*
D11*
X201000000Y-63000000D02*
X218500000Y-63000000D01*
X218500000Y-80500000D01*
X201000000Y-80500000D01*
X201000000Y-63000000D01*
D10*
X170833333Y-38554819D02*
X170357143Y-38554819D01*
X170357143Y-38554819D02*
X170309524Y-39031009D01*
X170309524Y-39031009D02*
X170357143Y-38983390D01*
X170357143Y-38983390D02*
X170452381Y-38935771D01*
X170452381Y-38935771D02*
X170690476Y-38935771D01*
X170690476Y-38935771D02*
X170785714Y-38983390D01*
X170785714Y-38983390D02*
X170833333Y-39031009D01*
X170833333Y-39031009D02*
X170880952Y-39126247D01*
X170880952Y-39126247D02*
X170880952Y-39364342D01*
X170880952Y-39364342D02*
X170833333Y-39459580D01*
X170833333Y-39459580D02*
X170785714Y-39507200D01*
X170785714Y-39507200D02*
X170690476Y-39554819D01*
X170690476Y-39554819D02*
X170452381Y-39554819D01*
X170452381Y-39554819D02*
X170357143Y-39507200D01*
X170357143Y-39507200D02*
X170309524Y-39459580D01*
X171500000Y-38554819D02*
X171595238Y-38554819D01*
X171595238Y-38554819D02*
X171690476Y-38602438D01*
X171690476Y-38602438D02*
X171738095Y-38650057D01*
X171738095Y-38650057D02*
X171785714Y-38745295D01*
X171785714Y-38745295D02*
X171833333Y-38935771D01*
X171833333Y-38935771D02*
X171833333Y-39173866D01*
X171833333Y-39173866D02*
X171785714Y-39364342D01*
X171785714Y-39364342D02*
X171738095Y-39459580D01*
X171738095Y-39459580D02*
X171690476Y-39507200D01*
X171690476Y-39507200D02*
X171595238Y-39554819D01*
X171595238Y-39554819D02*
X171500000Y-39554819D01*
X171500000Y-39554819D02*
X171404762Y-39507200D01*
X171404762Y-39507200D02*
X171357143Y-39459580D01*
X171357143Y-39459580D02*
X171309524Y-39364342D01*
X171309524Y-39364342D02*
X171261905Y-39173866D01*
X171261905Y-39173866D02*
X171261905Y-38935771D01*
X171261905Y-38935771D02*
X171309524Y-38745295D01*
X171309524Y-38745295D02*
X171357143Y-38650057D01*
X171357143Y-38650057D02*
X171404762Y-38602438D01*
X171404762Y-38602438D02*
X171500000Y-38554819D01*
X172261905Y-39459580D02*
X172309524Y-39507200D01*
X172309524Y-39507200D02*
X172261905Y-39554819D01*
X172261905Y-39554819D02*
X172214286Y-39507200D01*
X172214286Y-39507200D02*
X172261905Y-39459580D01*
X172261905Y-39459580D02*
X172261905Y-39554819D01*
X172928571Y-38554819D02*
X173023809Y-38554819D01*
X173023809Y-38554819D02*
X173119047Y-38602438D01*
X173119047Y-38602438D02*
X173166666Y-38650057D01*
X173166666Y-38650057D02*
X173214285Y-38745295D01*
X173214285Y-38745295D02*
X173261904Y-38935771D01*
X173261904Y-38935771D02*
X173261904Y-39173866D01*
X173261904Y-39173866D02*
X173214285Y-39364342D01*
X173214285Y-39364342D02*
X173166666Y-39459580D01*
X173166666Y-39459580D02*
X173119047Y-39507200D01*
X173119047Y-39507200D02*
X173023809Y-39554819D01*
X173023809Y-39554819D02*
X172928571Y-39554819D01*
X172928571Y-39554819D02*
X172833333Y-39507200D01*
X172833333Y-39507200D02*
X172785714Y-39459580D01*
X172785714Y-39459580D02*
X172738095Y-39364342D01*
X172738095Y-39364342D02*
X172690476Y-39173866D01*
X172690476Y-39173866D02*
X172690476Y-38935771D01*
X172690476Y-38935771D02*
X172738095Y-38745295D01*
X172738095Y-38745295D02*
X172785714Y-38650057D01*
X172785714Y-38650057D02*
X172833333Y-38602438D01*
X172833333Y-38602438D02*
X172928571Y-38554819D01*
X174452381Y-39554819D02*
X174452381Y-38888152D01*
X174452381Y-38983390D02*
X174500000Y-38935771D01*
X174500000Y-38935771D02*
X174595238Y-38888152D01*
X174595238Y-38888152D02*
X174738095Y-38888152D01*
X174738095Y-38888152D02*
X174833333Y-38935771D01*
X174833333Y-38935771D02*
X174880952Y-39031009D01*
X174880952Y-39031009D02*
X174880952Y-39554819D01*
X174880952Y-39031009D02*
X174928571Y-38935771D01*
X174928571Y-38935771D02*
X175023809Y-38888152D01*
X175023809Y-38888152D02*
X175166666Y-38888152D01*
X175166666Y-38888152D02*
X175261905Y-38935771D01*
X175261905Y-38935771D02*
X175309524Y-39031009D01*
X175309524Y-39031009D02*
X175309524Y-39554819D01*
X175785714Y-39554819D02*
X175785714Y-38888152D01*
X175785714Y-38983390D02*
X175833333Y-38935771D01*
X175833333Y-38935771D02*
X175928571Y-38888152D01*
X175928571Y-38888152D02*
X176071428Y-38888152D01*
X176071428Y-38888152D02*
X176166666Y-38935771D01*
X176166666Y-38935771D02*
X176214285Y-39031009D01*
X176214285Y-39031009D02*
X176214285Y-39554819D01*
X176214285Y-39031009D02*
X176261904Y-38935771D01*
X176261904Y-38935771D02*
X176357142Y-38888152D01*
X176357142Y-38888152D02*
X176499999Y-38888152D01*
X176499999Y-38888152D02*
X176595238Y-38935771D01*
X176595238Y-38935771D02*
X176642857Y-39031009D01*
X176642857Y-39031009D02*
X176642857Y-39554819D01*
X148500000Y-84500000D02*
X148500000Y-39663580D01*
X198500000Y-84500000D02*
X198500000Y-39663580D01*
X148500000Y-40250000D02*
X198500000Y-40250000D01*
X148500000Y-40250000D02*
X198500000Y-40250000D01*
X148500000Y-40250000D02*
X149626504Y-39663579D01*
X148500000Y-40250000D02*
X149626504Y-40836421D01*
X198500000Y-40250000D02*
X197373496Y-40836421D01*
X198500000Y-40250000D02*
X197373496Y-39663579D01*
X205888152Y-108214285D02*
X206554819Y-108214285D01*
X205507200Y-108452380D02*
X206221485Y-108690475D01*
X206221485Y-108690475D02*
X206221485Y-108071428D01*
X206554819Y-107166666D02*
X206554819Y-107738094D01*
X206554819Y-107452380D02*
X205554819Y-107452380D01*
X205554819Y-107452380D02*
X205697676Y-107547618D01*
X205697676Y-107547618D02*
X205792914Y-107642856D01*
X205792914Y-107642856D02*
X205840533Y-107738094D01*
X206459580Y-106738094D02*
X206507200Y-106690475D01*
X206507200Y-106690475D02*
X206554819Y-106738094D01*
X206554819Y-106738094D02*
X206507200Y-106785713D01*
X206507200Y-106785713D02*
X206459580Y-106738094D01*
X206459580Y-106738094D02*
X206554819Y-106738094D01*
X205554819Y-106071428D02*
X205554819Y-105976190D01*
X205554819Y-105976190D02*
X205602438Y-105880952D01*
X205602438Y-105880952D02*
X205650057Y-105833333D01*
X205650057Y-105833333D02*
X205745295Y-105785714D01*
X205745295Y-105785714D02*
X205935771Y-105738095D01*
X205935771Y-105738095D02*
X206173866Y-105738095D01*
X206173866Y-105738095D02*
X206364342Y-105785714D01*
X206364342Y-105785714D02*
X206459580Y-105833333D01*
X206459580Y-105833333D02*
X206507200Y-105880952D01*
X206507200Y-105880952D02*
X206554819Y-105976190D01*
X206554819Y-105976190D02*
X206554819Y-106071428D01*
X206554819Y-106071428D02*
X206507200Y-106166666D01*
X206507200Y-106166666D02*
X206459580Y-106214285D01*
X206459580Y-106214285D02*
X206364342Y-106261904D01*
X206364342Y-106261904D02*
X206173866Y-106309523D01*
X206173866Y-106309523D02*
X205935771Y-106309523D01*
X205935771Y-106309523D02*
X205745295Y-106261904D01*
X205745295Y-106261904D02*
X205650057Y-106214285D01*
X205650057Y-106214285D02*
X205602438Y-106166666D01*
X205602438Y-106166666D02*
X205554819Y-106071428D01*
X206554819Y-104547618D02*
X205888152Y-104547618D01*
X205983390Y-104547618D02*
X205935771Y-104499999D01*
X205935771Y-104499999D02*
X205888152Y-104404761D01*
X205888152Y-104404761D02*
X205888152Y-104261904D01*
X205888152Y-104261904D02*
X205935771Y-104166666D01*
X205935771Y-104166666D02*
X206031009Y-104119047D01*
X206031009Y-104119047D02*
X206554819Y-104119047D01*
X206031009Y-104119047D02*
X205935771Y-104071428D01*
X205935771Y-104071428D02*
X205888152Y-103976190D01*
X205888152Y-103976190D02*
X205888152Y-103833333D01*
X205888152Y-103833333D02*
X205935771Y-103738094D01*
X205935771Y-103738094D02*
X206031009Y-103690475D01*
X206031009Y-103690475D02*
X206554819Y-103690475D01*
X206554819Y-103214285D02*
X205888152Y-103214285D01*
X205983390Y-103214285D02*
X205935771Y-103166666D01*
X205935771Y-103166666D02*
X205888152Y-103071428D01*
X205888152Y-103071428D02*
X205888152Y-102928571D01*
X205888152Y-102928571D02*
X205935771Y-102833333D01*
X205935771Y-102833333D02*
X206031009Y-102785714D01*
X206031009Y-102785714D02*
X206554819Y-102785714D01*
X206031009Y-102785714D02*
X205935771Y-102738095D01*
X205935771Y-102738095D02*
X205888152Y-102642857D01*
X205888152Y-102642857D02*
X205888152Y-102500000D01*
X205888152Y-102500000D02*
X205935771Y-102404761D01*
X205935771Y-102404761D02*
X206031009Y-102357142D01*
X206031009Y-102357142D02*
X206554819Y-102357142D01*
X149000000Y-85000000D02*
X207836420Y-85000000D01*
X149000000Y-126000000D02*
X207836420Y-126000000D01*
X207250000Y-85000000D02*
X207250000Y-126000000D01*
X207250000Y-85000000D02*
X207250000Y-126000000D01*
X207250000Y-85000000D02*
X207836421Y-86126504D01*
X207250000Y-85000000D02*
X206663579Y-86126504D01*
X207250000Y-126000000D02*
X206663579Y-124873496D01*
X207250000Y-126000000D02*
X207836421Y-124873496D01*
X50309524Y-41804819D02*
X49833334Y-41804819D01*
X49833334Y-41804819D02*
X49785715Y-42281009D01*
X49785715Y-42281009D02*
X49833334Y-42233390D01*
X49833334Y-42233390D02*
X49928572Y-42185771D01*
X49928572Y-42185771D02*
X50166667Y-42185771D01*
X50166667Y-42185771D02*
X50261905Y-42233390D01*
X50261905Y-42233390D02*
X50309524Y-42281009D01*
X50309524Y-42281009D02*
X50357143Y-42376247D01*
X50357143Y-42376247D02*
X50357143Y-42614342D01*
X50357143Y-42614342D02*
X50309524Y-42709580D01*
X50309524Y-42709580D02*
X50261905Y-42757200D01*
X50261905Y-42757200D02*
X50166667Y-42804819D01*
X50166667Y-42804819D02*
X49928572Y-42804819D01*
X49928572Y-42804819D02*
X49833334Y-42757200D01*
X49833334Y-42757200D02*
X49785715Y-42709580D01*
X50785715Y-42709580D02*
X50833334Y-42757200D01*
X50833334Y-42757200D02*
X50785715Y-42804819D01*
X50785715Y-42804819D02*
X50738096Y-42757200D01*
X50738096Y-42757200D02*
X50785715Y-42709580D01*
X50785715Y-42709580D02*
X50785715Y-42804819D01*
X51452381Y-41804819D02*
X51547619Y-41804819D01*
X51547619Y-41804819D02*
X51642857Y-41852438D01*
X51642857Y-41852438D02*
X51690476Y-41900057D01*
X51690476Y-41900057D02*
X51738095Y-41995295D01*
X51738095Y-41995295D02*
X51785714Y-42185771D01*
X51785714Y-42185771D02*
X51785714Y-42423866D01*
X51785714Y-42423866D02*
X51738095Y-42614342D01*
X51738095Y-42614342D02*
X51690476Y-42709580D01*
X51690476Y-42709580D02*
X51642857Y-42757200D01*
X51642857Y-42757200D02*
X51547619Y-42804819D01*
X51547619Y-42804819D02*
X51452381Y-42804819D01*
X51452381Y-42804819D02*
X51357143Y-42757200D01*
X51357143Y-42757200D02*
X51309524Y-42709580D01*
X51309524Y-42709580D02*
X51261905Y-42614342D01*
X51261905Y-42614342D02*
X51214286Y-42423866D01*
X51214286Y-42423866D02*
X51214286Y-42185771D01*
X51214286Y-42185771D02*
X51261905Y-41995295D01*
X51261905Y-41995295D02*
X51309524Y-41900057D01*
X51309524Y-41900057D02*
X51357143Y-41852438D01*
X51357143Y-41852438D02*
X51452381Y-41804819D01*
X52976191Y-42804819D02*
X52976191Y-42138152D01*
X52976191Y-42233390D02*
X53023810Y-42185771D01*
X53023810Y-42185771D02*
X53119048Y-42138152D01*
X53119048Y-42138152D02*
X53261905Y-42138152D01*
X53261905Y-42138152D02*
X53357143Y-42185771D01*
X53357143Y-42185771D02*
X53404762Y-42281009D01*
X53404762Y-42281009D02*
X53404762Y-42804819D01*
X53404762Y-42281009D02*
X53452381Y-42185771D01*
X53452381Y-42185771D02*
X53547619Y-42138152D01*
X53547619Y-42138152D02*
X53690476Y-42138152D01*
X53690476Y-42138152D02*
X53785715Y-42185771D01*
X53785715Y-42185771D02*
X53833334Y-42281009D01*
X53833334Y-42281009D02*
X53833334Y-42804819D01*
X54309524Y-42804819D02*
X54309524Y-42138152D01*
X54309524Y-42233390D02*
X54357143Y-42185771D01*
X54357143Y-42185771D02*
X54452381Y-42138152D01*
X54452381Y-42138152D02*
X54595238Y-42138152D01*
X54595238Y-42138152D02*
X54690476Y-42185771D01*
X54690476Y-42185771D02*
X54738095Y-42281009D01*
X54738095Y-42281009D02*
X54738095Y-42804819D01*
X54738095Y-42281009D02*
X54785714Y-42185771D01*
X54785714Y-42185771D02*
X54880952Y-42138152D01*
X54880952Y-42138152D02*
X55023809Y-42138152D01*
X55023809Y-42138152D02*
X55119048Y-42185771D01*
X55119048Y-42185771D02*
X55166667Y-42281009D01*
X55166667Y-42281009D02*
X55166667Y-42804819D01*
X55000000Y-54500000D02*
X55000000Y-42913580D01*
X50000000Y-54500000D02*
X50000000Y-42913580D01*
X55000000Y-43500000D02*
X50000000Y-43500000D01*
X55000000Y-43500000D02*
X50000000Y-43500000D01*
X55000000Y-43500000D02*
X53873496Y-44086421D01*
X55000000Y-43500000D02*
X53873496Y-42913579D01*
X50000000Y-43500000D02*
X51126504Y-42913579D01*
X50000000Y-43500000D02*
X51126504Y-44086421D01*
X34554819Y-105595237D02*
X34554819Y-106166665D01*
X34554819Y-105880951D02*
X33554819Y-105880951D01*
X33554819Y-105880951D02*
X33697676Y-105976189D01*
X33697676Y-105976189D02*
X33792914Y-106071427D01*
X33792914Y-106071427D02*
X33840533Y-106166665D01*
X33554819Y-104976189D02*
X33554819Y-104880951D01*
X33554819Y-104880951D02*
X33602438Y-104785713D01*
X33602438Y-104785713D02*
X33650057Y-104738094D01*
X33650057Y-104738094D02*
X33745295Y-104690475D01*
X33745295Y-104690475D02*
X33935771Y-104642856D01*
X33935771Y-104642856D02*
X34173866Y-104642856D01*
X34173866Y-104642856D02*
X34364342Y-104690475D01*
X34364342Y-104690475D02*
X34459580Y-104738094D01*
X34459580Y-104738094D02*
X34507200Y-104785713D01*
X34507200Y-104785713D02*
X34554819Y-104880951D01*
X34554819Y-104880951D02*
X34554819Y-104976189D01*
X34554819Y-104976189D02*
X34507200Y-105071427D01*
X34507200Y-105071427D02*
X34459580Y-105119046D01*
X34459580Y-105119046D02*
X34364342Y-105166665D01*
X34364342Y-105166665D02*
X34173866Y-105214284D01*
X34173866Y-105214284D02*
X33935771Y-105214284D01*
X33935771Y-105214284D02*
X33745295Y-105166665D01*
X33745295Y-105166665D02*
X33650057Y-105119046D01*
X33650057Y-105119046D02*
X33602438Y-105071427D01*
X33602438Y-105071427D02*
X33554819Y-104976189D01*
X33554819Y-103738094D02*
X33554819Y-104214284D01*
X33554819Y-104214284D02*
X34031009Y-104261903D01*
X34031009Y-104261903D02*
X33983390Y-104214284D01*
X33983390Y-104214284D02*
X33935771Y-104119046D01*
X33935771Y-104119046D02*
X33935771Y-103880951D01*
X33935771Y-103880951D02*
X33983390Y-103785713D01*
X33983390Y-103785713D02*
X34031009Y-103738094D01*
X34031009Y-103738094D02*
X34126247Y-103690475D01*
X34126247Y-103690475D02*
X34364342Y-103690475D01*
X34364342Y-103690475D02*
X34459580Y-103738094D01*
X34459580Y-103738094D02*
X34507200Y-103785713D01*
X34507200Y-103785713D02*
X34554819Y-103880951D01*
X34554819Y-103880951D02*
X34554819Y-104119046D01*
X34554819Y-104119046D02*
X34507200Y-104214284D01*
X34507200Y-104214284D02*
X34459580Y-104261903D01*
X34459580Y-103261903D02*
X34507200Y-103214284D01*
X34507200Y-103214284D02*
X34554819Y-103261903D01*
X34554819Y-103261903D02*
X34507200Y-103309522D01*
X34507200Y-103309522D02*
X34459580Y-103261903D01*
X34459580Y-103261903D02*
X34554819Y-103261903D01*
X33554819Y-102595237D02*
X33554819Y-102499999D01*
X33554819Y-102499999D02*
X33602438Y-102404761D01*
X33602438Y-102404761D02*
X33650057Y-102357142D01*
X33650057Y-102357142D02*
X33745295Y-102309523D01*
X33745295Y-102309523D02*
X33935771Y-102261904D01*
X33935771Y-102261904D02*
X34173866Y-102261904D01*
X34173866Y-102261904D02*
X34364342Y-102309523D01*
X34364342Y-102309523D02*
X34459580Y-102357142D01*
X34459580Y-102357142D02*
X34507200Y-102404761D01*
X34507200Y-102404761D02*
X34554819Y-102499999D01*
X34554819Y-102499999D02*
X34554819Y-102595237D01*
X34554819Y-102595237D02*
X34507200Y-102690475D01*
X34507200Y-102690475D02*
X34459580Y-102738094D01*
X34459580Y-102738094D02*
X34364342Y-102785713D01*
X34364342Y-102785713D02*
X34173866Y-102833332D01*
X34173866Y-102833332D02*
X33935771Y-102833332D01*
X33935771Y-102833332D02*
X33745295Y-102785713D01*
X33745295Y-102785713D02*
X33650057Y-102738094D01*
X33650057Y-102738094D02*
X33602438Y-102690475D01*
X33602438Y-102690475D02*
X33554819Y-102595237D01*
X34554819Y-101071427D02*
X33888152Y-101071427D01*
X33983390Y-101071427D02*
X33935771Y-101023808D01*
X33935771Y-101023808D02*
X33888152Y-100928570D01*
X33888152Y-100928570D02*
X33888152Y-100785713D01*
X33888152Y-100785713D02*
X33935771Y-100690475D01*
X33935771Y-100690475D02*
X34031009Y-100642856D01*
X34031009Y-100642856D02*
X34554819Y-100642856D01*
X34031009Y-100642856D02*
X33935771Y-100595237D01*
X33935771Y-100595237D02*
X33888152Y-100499999D01*
X33888152Y-100499999D02*
X33888152Y-100357142D01*
X33888152Y-100357142D02*
X33935771Y-100261903D01*
X33935771Y-100261903D02*
X34031009Y-100214284D01*
X34031009Y-100214284D02*
X34554819Y-100214284D01*
X34554819Y-99738094D02*
X33888152Y-99738094D01*
X33983390Y-99738094D02*
X33935771Y-99690475D01*
X33935771Y-99690475D02*
X33888152Y-99595237D01*
X33888152Y-99595237D02*
X33888152Y-99452380D01*
X33888152Y-99452380D02*
X33935771Y-99357142D01*
X33935771Y-99357142D02*
X34031009Y-99309523D01*
X34031009Y-99309523D02*
X34554819Y-99309523D01*
X34031009Y-99309523D02*
X33935771Y-99261904D01*
X33935771Y-99261904D02*
X33888152Y-99166666D01*
X33888152Y-99166666D02*
X33888152Y-99023809D01*
X33888152Y-99023809D02*
X33935771Y-98928570D01*
X33935771Y-98928570D02*
X34031009Y-98880951D01*
X34031009Y-98880951D02*
X34554819Y-98880951D01*
X49500000Y-50000000D02*
X34663580Y-50000000D01*
X49500000Y-155000000D02*
X34663580Y-155000000D01*
X35250000Y-50000000D02*
X35250000Y-155000000D01*
X35250000Y-50000000D02*
X35250000Y-155000000D01*
X35250000Y-50000000D02*
X35836421Y-51126504D01*
X35250000Y-50000000D02*
X34663579Y-51126504D01*
X35250000Y-155000000D02*
X34663579Y-153873496D01*
X35250000Y-155000000D02*
X35836421Y-153873496D01*
X57559524Y-38650057D02*
X57607143Y-38602438D01*
X57607143Y-38602438D02*
X57702381Y-38554819D01*
X57702381Y-38554819D02*
X57940476Y-38554819D01*
X57940476Y-38554819D02*
X58035714Y-38602438D01*
X58035714Y-38602438D02*
X58083333Y-38650057D01*
X58083333Y-38650057D02*
X58130952Y-38745295D01*
X58130952Y-38745295D02*
X58130952Y-38840533D01*
X58130952Y-38840533D02*
X58083333Y-38983390D01*
X58083333Y-38983390D02*
X57511905Y-39554819D01*
X57511905Y-39554819D02*
X58130952Y-39554819D01*
X59083333Y-39554819D02*
X58511905Y-39554819D01*
X58797619Y-39554819D02*
X58797619Y-38554819D01*
X58797619Y-38554819D02*
X58702381Y-38697676D01*
X58702381Y-38697676D02*
X58607143Y-38792914D01*
X58607143Y-38792914D02*
X58511905Y-38840533D01*
X59511905Y-39459580D02*
X59559524Y-39507200D01*
X59559524Y-39507200D02*
X59511905Y-39554819D01*
X59511905Y-39554819D02*
X59464286Y-39507200D01*
X59464286Y-39507200D02*
X59511905Y-39459580D01*
X59511905Y-39459580D02*
X59511905Y-39554819D01*
X60464285Y-38554819D02*
X59988095Y-38554819D01*
X59988095Y-38554819D02*
X59940476Y-39031009D01*
X59940476Y-39031009D02*
X59988095Y-38983390D01*
X59988095Y-38983390D02*
X60083333Y-38935771D01*
X60083333Y-38935771D02*
X60321428Y-38935771D01*
X60321428Y-38935771D02*
X60416666Y-38983390D01*
X60416666Y-38983390D02*
X60464285Y-39031009D01*
X60464285Y-39031009D02*
X60511904Y-39126247D01*
X60511904Y-39126247D02*
X60511904Y-39364342D01*
X60511904Y-39364342D02*
X60464285Y-39459580D01*
X60464285Y-39459580D02*
X60416666Y-39507200D01*
X60416666Y-39507200D02*
X60321428Y-39554819D01*
X60321428Y-39554819D02*
X60083333Y-39554819D01*
X60083333Y-39554819D02*
X59988095Y-39507200D01*
X59988095Y-39507200D02*
X59940476Y-39459580D01*
X61702381Y-39554819D02*
X61702381Y-38888152D01*
X61702381Y-38983390D02*
X61750000Y-38935771D01*
X61750000Y-38935771D02*
X61845238Y-38888152D01*
X61845238Y-38888152D02*
X61988095Y-38888152D01*
X61988095Y-38888152D02*
X62083333Y-38935771D01*
X62083333Y-38935771D02*
X62130952Y-39031009D01*
X62130952Y-39031009D02*
X62130952Y-39554819D01*
X62130952Y-39031009D02*
X62178571Y-38935771D01*
X62178571Y-38935771D02*
X62273809Y-38888152D01*
X62273809Y-38888152D02*
X62416666Y-38888152D01*
X62416666Y-38888152D02*
X62511905Y-38935771D01*
X62511905Y-38935771D02*
X62559524Y-39031009D01*
X62559524Y-39031009D02*
X62559524Y-39554819D01*
X63035714Y-39554819D02*
X63035714Y-38888152D01*
X63035714Y-38983390D02*
X63083333Y-38935771D01*
X63083333Y-38935771D02*
X63178571Y-38888152D01*
X63178571Y-38888152D02*
X63321428Y-38888152D01*
X63321428Y-38888152D02*
X63416666Y-38935771D01*
X63416666Y-38935771D02*
X63464285Y-39031009D01*
X63464285Y-39031009D02*
X63464285Y-39554819D01*
X63464285Y-39031009D02*
X63511904Y-38935771D01*
X63511904Y-38935771D02*
X63607142Y-38888152D01*
X63607142Y-38888152D02*
X63749999Y-38888152D01*
X63749999Y-38888152D02*
X63845238Y-38935771D01*
X63845238Y-38935771D02*
X63892857Y-39031009D01*
X63892857Y-39031009D02*
X63892857Y-39554819D01*
X50000000Y-58500000D02*
X50000000Y-39663580D01*
X71500000Y-58500000D02*
X71500000Y-39663580D01*
X50000000Y-40250000D02*
X71500000Y-40250000D01*
X50000000Y-40250000D02*
X71500000Y-40250000D01*
X50000000Y-40250000D02*
X51126504Y-39663579D01*
X50000000Y-40250000D02*
X51126504Y-40836421D01*
X71500000Y-40250000D02*
X70373496Y-40836421D01*
X71500000Y-40250000D02*
X70373496Y-39663579D01*
X159559524Y-41650057D02*
X159607143Y-41602438D01*
X159607143Y-41602438D02*
X159702381Y-41554819D01*
X159702381Y-41554819D02*
X159940476Y-41554819D01*
X159940476Y-41554819D02*
X160035714Y-41602438D01*
X160035714Y-41602438D02*
X160083333Y-41650057D01*
X160083333Y-41650057D02*
X160130952Y-41745295D01*
X160130952Y-41745295D02*
X160130952Y-41840533D01*
X160130952Y-41840533D02*
X160083333Y-41983390D01*
X160083333Y-41983390D02*
X159511905Y-42554819D01*
X159511905Y-42554819D02*
X160130952Y-42554819D01*
X160702381Y-41983390D02*
X160607143Y-41935771D01*
X160607143Y-41935771D02*
X160559524Y-41888152D01*
X160559524Y-41888152D02*
X160511905Y-41792914D01*
X160511905Y-41792914D02*
X160511905Y-41745295D01*
X160511905Y-41745295D02*
X160559524Y-41650057D01*
X160559524Y-41650057D02*
X160607143Y-41602438D01*
X160607143Y-41602438D02*
X160702381Y-41554819D01*
X160702381Y-41554819D02*
X160892857Y-41554819D01*
X160892857Y-41554819D02*
X160988095Y-41602438D01*
X160988095Y-41602438D02*
X161035714Y-41650057D01*
X161035714Y-41650057D02*
X161083333Y-41745295D01*
X161083333Y-41745295D02*
X161083333Y-41792914D01*
X161083333Y-41792914D02*
X161035714Y-41888152D01*
X161035714Y-41888152D02*
X160988095Y-41935771D01*
X160988095Y-41935771D02*
X160892857Y-41983390D01*
X160892857Y-41983390D02*
X160702381Y-41983390D01*
X160702381Y-41983390D02*
X160607143Y-42031009D01*
X160607143Y-42031009D02*
X160559524Y-42078628D01*
X160559524Y-42078628D02*
X160511905Y-42173866D01*
X160511905Y-42173866D02*
X160511905Y-42364342D01*
X160511905Y-42364342D02*
X160559524Y-42459580D01*
X160559524Y-42459580D02*
X160607143Y-42507200D01*
X160607143Y-42507200D02*
X160702381Y-42554819D01*
X160702381Y-42554819D02*
X160892857Y-42554819D01*
X160892857Y-42554819D02*
X160988095Y-42507200D01*
X160988095Y-42507200D02*
X161035714Y-42459580D01*
X161035714Y-42459580D02*
X161083333Y-42364342D01*
X161083333Y-42364342D02*
X161083333Y-42173866D01*
X161083333Y-42173866D02*
X161035714Y-42078628D01*
X161035714Y-42078628D02*
X160988095Y-42031009D01*
X160988095Y-42031009D02*
X160892857Y-41983390D01*
X161511905Y-42459580D02*
X161559524Y-42507200D01*
X161559524Y-42507200D02*
X161511905Y-42554819D01*
X161511905Y-42554819D02*
X161464286Y-42507200D01*
X161464286Y-42507200D02*
X161511905Y-42459580D01*
X161511905Y-42459580D02*
X161511905Y-42554819D01*
X162464285Y-41554819D02*
X161988095Y-41554819D01*
X161988095Y-41554819D02*
X161940476Y-42031009D01*
X161940476Y-42031009D02*
X161988095Y-41983390D01*
X161988095Y-41983390D02*
X162083333Y-41935771D01*
X162083333Y-41935771D02*
X162321428Y-41935771D01*
X162321428Y-41935771D02*
X162416666Y-41983390D01*
X162416666Y-41983390D02*
X162464285Y-42031009D01*
X162464285Y-42031009D02*
X162511904Y-42126247D01*
X162511904Y-42126247D02*
X162511904Y-42364342D01*
X162511904Y-42364342D02*
X162464285Y-42459580D01*
X162464285Y-42459580D02*
X162416666Y-42507200D01*
X162416666Y-42507200D02*
X162321428Y-42554819D01*
X162321428Y-42554819D02*
X162083333Y-42554819D01*
X162083333Y-42554819D02*
X161988095Y-42507200D01*
X161988095Y-42507200D02*
X161940476Y-42459580D01*
X163702381Y-42554819D02*
X163702381Y-41888152D01*
X163702381Y-41983390D02*
X163750000Y-41935771D01*
X163750000Y-41935771D02*
X163845238Y-41888152D01*
X163845238Y-41888152D02*
X163988095Y-41888152D01*
X163988095Y-41888152D02*
X164083333Y-41935771D01*
X164083333Y-41935771D02*
X164130952Y-42031009D01*
X164130952Y-42031009D02*
X164130952Y-42554819D01*
X164130952Y-42031009D02*
X164178571Y-41935771D01*
X164178571Y-41935771D02*
X164273809Y-41888152D01*
X164273809Y-41888152D02*
X164416666Y-41888152D01*
X164416666Y-41888152D02*
X164511905Y-41935771D01*
X164511905Y-41935771D02*
X164559524Y-42031009D01*
X164559524Y-42031009D02*
X164559524Y-42554819D01*
X165035714Y-42554819D02*
X165035714Y-41888152D01*
X165035714Y-41983390D02*
X165083333Y-41935771D01*
X165083333Y-41935771D02*
X165178571Y-41888152D01*
X165178571Y-41888152D02*
X165321428Y-41888152D01*
X165321428Y-41888152D02*
X165416666Y-41935771D01*
X165416666Y-41935771D02*
X165464285Y-42031009D01*
X165464285Y-42031009D02*
X165464285Y-42554819D01*
X165464285Y-42031009D02*
X165511904Y-41935771D01*
X165511904Y-41935771D02*
X165607142Y-41888152D01*
X165607142Y-41888152D02*
X165749999Y-41888152D01*
X165749999Y-41888152D02*
X165845238Y-41935771D01*
X165845238Y-41935771D02*
X165892857Y-42031009D01*
X165892857Y-42031009D02*
X165892857Y-42554819D01*
X148500000Y-84500000D02*
X148500000Y-42663580D01*
X177000000Y-84500000D02*
X177000000Y-42663580D01*
X148500000Y-43250000D02*
X177000000Y-43250000D01*
X148500000Y-43250000D02*
X177000000Y-43250000D01*
X148500000Y-43250000D02*
X149626504Y-42663579D01*
X148500000Y-43250000D02*
X149626504Y-43836421D01*
X177000000Y-43250000D02*
X175873496Y-43836421D01*
X177000000Y-43250000D02*
X175873496Y-42663579D01*
X38304819Y-57119046D02*
X38304819Y-56928570D01*
X38304819Y-56928570D02*
X38257200Y-56833332D01*
X38257200Y-56833332D02*
X38209580Y-56785713D01*
X38209580Y-56785713D02*
X38066723Y-56690475D01*
X38066723Y-56690475D02*
X37876247Y-56642856D01*
X37876247Y-56642856D02*
X37495295Y-56642856D01*
X37495295Y-56642856D02*
X37400057Y-56690475D01*
X37400057Y-56690475D02*
X37352438Y-56738094D01*
X37352438Y-56738094D02*
X37304819Y-56833332D01*
X37304819Y-56833332D02*
X37304819Y-57023808D01*
X37304819Y-57023808D02*
X37352438Y-57119046D01*
X37352438Y-57119046D02*
X37400057Y-57166665D01*
X37400057Y-57166665D02*
X37495295Y-57214284D01*
X37495295Y-57214284D02*
X37733390Y-57214284D01*
X37733390Y-57214284D02*
X37828628Y-57166665D01*
X37828628Y-57166665D02*
X37876247Y-57119046D01*
X37876247Y-57119046D02*
X37923866Y-57023808D01*
X37923866Y-57023808D02*
X37923866Y-56833332D01*
X37923866Y-56833332D02*
X37876247Y-56738094D01*
X37876247Y-56738094D02*
X37828628Y-56690475D01*
X37828628Y-56690475D02*
X37733390Y-56642856D01*
X38209580Y-56214284D02*
X38257200Y-56166665D01*
X38257200Y-56166665D02*
X38304819Y-56214284D01*
X38304819Y-56214284D02*
X38257200Y-56261903D01*
X38257200Y-56261903D02*
X38209580Y-56214284D01*
X38209580Y-56214284D02*
X38304819Y-56214284D01*
X37304819Y-55547618D02*
X37304819Y-55452380D01*
X37304819Y-55452380D02*
X37352438Y-55357142D01*
X37352438Y-55357142D02*
X37400057Y-55309523D01*
X37400057Y-55309523D02*
X37495295Y-55261904D01*
X37495295Y-55261904D02*
X37685771Y-55214285D01*
X37685771Y-55214285D02*
X37923866Y-55214285D01*
X37923866Y-55214285D02*
X38114342Y-55261904D01*
X38114342Y-55261904D02*
X38209580Y-55309523D01*
X38209580Y-55309523D02*
X38257200Y-55357142D01*
X38257200Y-55357142D02*
X38304819Y-55452380D01*
X38304819Y-55452380D02*
X38304819Y-55547618D01*
X38304819Y-55547618D02*
X38257200Y-55642856D01*
X38257200Y-55642856D02*
X38209580Y-55690475D01*
X38209580Y-55690475D02*
X38114342Y-55738094D01*
X38114342Y-55738094D02*
X37923866Y-55785713D01*
X37923866Y-55785713D02*
X37685771Y-55785713D01*
X37685771Y-55785713D02*
X37495295Y-55738094D01*
X37495295Y-55738094D02*
X37400057Y-55690475D01*
X37400057Y-55690475D02*
X37352438Y-55642856D01*
X37352438Y-55642856D02*
X37304819Y-55547618D01*
X38304819Y-54023808D02*
X37638152Y-54023808D01*
X37733390Y-54023808D02*
X37685771Y-53976189D01*
X37685771Y-53976189D02*
X37638152Y-53880951D01*
X37638152Y-53880951D02*
X37638152Y-53738094D01*
X37638152Y-53738094D02*
X37685771Y-53642856D01*
X37685771Y-53642856D02*
X37781009Y-53595237D01*
X37781009Y-53595237D02*
X38304819Y-53595237D01*
X37781009Y-53595237D02*
X37685771Y-53547618D01*
X37685771Y-53547618D02*
X37638152Y-53452380D01*
X37638152Y-53452380D02*
X37638152Y-53309523D01*
X37638152Y-53309523D02*
X37685771Y-53214284D01*
X37685771Y-53214284D02*
X37781009Y-53166665D01*
X37781009Y-53166665D02*
X38304819Y-53166665D01*
X38304819Y-52690475D02*
X37638152Y-52690475D01*
X37733390Y-52690475D02*
X37685771Y-52642856D01*
X37685771Y-52642856D02*
X37638152Y-52547618D01*
X37638152Y-52547618D02*
X37638152Y-52404761D01*
X37638152Y-52404761D02*
X37685771Y-52309523D01*
X37685771Y-52309523D02*
X37781009Y-52261904D01*
X37781009Y-52261904D02*
X38304819Y-52261904D01*
X37781009Y-52261904D02*
X37685771Y-52214285D01*
X37685771Y-52214285D02*
X37638152Y-52119047D01*
X37638152Y-52119047D02*
X37638152Y-51976190D01*
X37638152Y-51976190D02*
X37685771Y-51880951D01*
X37685771Y-51880951D02*
X37781009Y-51833332D01*
X37781009Y-51833332D02*
X38304819Y-51833332D01*
X71000000Y-50000000D02*
X38413580Y-50000000D01*
X71000000Y-59000000D02*
X38413580Y-59000000D01*
X39000000Y-50000000D02*
X39000000Y-59000000D01*
X39000000Y-50000000D02*
X39000000Y-59000000D01*
X39000000Y-50000000D02*
X39586421Y-51126504D01*
X39000000Y-50000000D02*
X38413579Y-51126504D01*
X39000000Y-59000000D02*
X38413579Y-57873496D01*
X39000000Y-59000000D02*
X39586421Y-57873496D01*
X121154762Y-36804819D02*
X120583334Y-36804819D01*
X120869048Y-36804819D02*
X120869048Y-35804819D01*
X120869048Y-35804819D02*
X120773810Y-35947676D01*
X120773810Y-35947676D02*
X120678572Y-36042914D01*
X120678572Y-36042914D02*
X120583334Y-36090533D01*
X122011905Y-36138152D02*
X122011905Y-36804819D01*
X121773810Y-35757200D02*
X121535715Y-36471485D01*
X121535715Y-36471485D02*
X122154762Y-36471485D01*
X122678572Y-36233390D02*
X122583334Y-36185771D01*
X122583334Y-36185771D02*
X122535715Y-36138152D01*
X122535715Y-36138152D02*
X122488096Y-36042914D01*
X122488096Y-36042914D02*
X122488096Y-35995295D01*
X122488096Y-35995295D02*
X122535715Y-35900057D01*
X122535715Y-35900057D02*
X122583334Y-35852438D01*
X122583334Y-35852438D02*
X122678572Y-35804819D01*
X122678572Y-35804819D02*
X122869048Y-35804819D01*
X122869048Y-35804819D02*
X122964286Y-35852438D01*
X122964286Y-35852438D02*
X123011905Y-35900057D01*
X123011905Y-35900057D02*
X123059524Y-35995295D01*
X123059524Y-35995295D02*
X123059524Y-36042914D01*
X123059524Y-36042914D02*
X123011905Y-36138152D01*
X123011905Y-36138152D02*
X122964286Y-36185771D01*
X122964286Y-36185771D02*
X122869048Y-36233390D01*
X122869048Y-36233390D02*
X122678572Y-36233390D01*
X122678572Y-36233390D02*
X122583334Y-36281009D01*
X122583334Y-36281009D02*
X122535715Y-36328628D01*
X122535715Y-36328628D02*
X122488096Y-36423866D01*
X122488096Y-36423866D02*
X122488096Y-36614342D01*
X122488096Y-36614342D02*
X122535715Y-36709580D01*
X122535715Y-36709580D02*
X122583334Y-36757200D01*
X122583334Y-36757200D02*
X122678572Y-36804819D01*
X122678572Y-36804819D02*
X122869048Y-36804819D01*
X122869048Y-36804819D02*
X122964286Y-36757200D01*
X122964286Y-36757200D02*
X123011905Y-36709580D01*
X123011905Y-36709580D02*
X123059524Y-36614342D01*
X123059524Y-36614342D02*
X123059524Y-36423866D01*
X123059524Y-36423866D02*
X123011905Y-36328628D01*
X123011905Y-36328628D02*
X122964286Y-36281009D01*
X122964286Y-36281009D02*
X122869048Y-36233390D01*
X123488096Y-36709580D02*
X123535715Y-36757200D01*
X123535715Y-36757200D02*
X123488096Y-36804819D01*
X123488096Y-36804819D02*
X123440477Y-36757200D01*
X123440477Y-36757200D02*
X123488096Y-36709580D01*
X123488096Y-36709580D02*
X123488096Y-36804819D01*
X124440476Y-35804819D02*
X123964286Y-35804819D01*
X123964286Y-35804819D02*
X123916667Y-36281009D01*
X123916667Y-36281009D02*
X123964286Y-36233390D01*
X123964286Y-36233390D02*
X124059524Y-36185771D01*
X124059524Y-36185771D02*
X124297619Y-36185771D01*
X124297619Y-36185771D02*
X124392857Y-36233390D01*
X124392857Y-36233390D02*
X124440476Y-36281009D01*
X124440476Y-36281009D02*
X124488095Y-36376247D01*
X124488095Y-36376247D02*
X124488095Y-36614342D01*
X124488095Y-36614342D02*
X124440476Y-36709580D01*
X124440476Y-36709580D02*
X124392857Y-36757200D01*
X124392857Y-36757200D02*
X124297619Y-36804819D01*
X124297619Y-36804819D02*
X124059524Y-36804819D01*
X124059524Y-36804819D02*
X123964286Y-36757200D01*
X123964286Y-36757200D02*
X123916667Y-36709580D01*
X125678572Y-36804819D02*
X125678572Y-36138152D01*
X125678572Y-36233390D02*
X125726191Y-36185771D01*
X125726191Y-36185771D02*
X125821429Y-36138152D01*
X125821429Y-36138152D02*
X125964286Y-36138152D01*
X125964286Y-36138152D02*
X126059524Y-36185771D01*
X126059524Y-36185771D02*
X126107143Y-36281009D01*
X126107143Y-36281009D02*
X126107143Y-36804819D01*
X126107143Y-36281009D02*
X126154762Y-36185771D01*
X126154762Y-36185771D02*
X126250000Y-36138152D01*
X126250000Y-36138152D02*
X126392857Y-36138152D01*
X126392857Y-36138152D02*
X126488096Y-36185771D01*
X126488096Y-36185771D02*
X126535715Y-36281009D01*
X126535715Y-36281009D02*
X126535715Y-36804819D01*
X127011905Y-36804819D02*
X127011905Y-36138152D01*
X127011905Y-36233390D02*
X127059524Y-36185771D01*
X127059524Y-36185771D02*
X127154762Y-36138152D01*
X127154762Y-36138152D02*
X127297619Y-36138152D01*
X127297619Y-36138152D02*
X127392857Y-36185771D01*
X127392857Y-36185771D02*
X127440476Y-36281009D01*
X127440476Y-36281009D02*
X127440476Y-36804819D01*
X127440476Y-36281009D02*
X127488095Y-36185771D01*
X127488095Y-36185771D02*
X127583333Y-36138152D01*
X127583333Y-36138152D02*
X127726190Y-36138152D01*
X127726190Y-36138152D02*
X127821429Y-36185771D01*
X127821429Y-36185771D02*
X127869048Y-36281009D01*
X127869048Y-36281009D02*
X127869048Y-36804819D01*
X50000000Y-49500000D02*
X50000000Y-36913580D01*
X198500000Y-49500000D02*
X198500000Y-36913580D01*
X50000000Y-37500000D02*
X198500000Y-37500000D01*
X50000000Y-37500000D02*
X198500000Y-37500000D01*
X50000000Y-37500000D02*
X51126504Y-36913579D01*
X50000000Y-37500000D02*
X51126504Y-38086421D01*
X198500000Y-37500000D02*
X197373496Y-38086421D01*
X198500000Y-37500000D02*
X197373496Y-36913579D01*
X43554819Y-54690475D02*
X43554819Y-55166665D01*
X43554819Y-55166665D02*
X44031009Y-55214284D01*
X44031009Y-55214284D02*
X43983390Y-55166665D01*
X43983390Y-55166665D02*
X43935771Y-55071427D01*
X43935771Y-55071427D02*
X43935771Y-54833332D01*
X43935771Y-54833332D02*
X43983390Y-54738094D01*
X43983390Y-54738094D02*
X44031009Y-54690475D01*
X44031009Y-54690475D02*
X44126247Y-54642856D01*
X44126247Y-54642856D02*
X44364342Y-54642856D01*
X44364342Y-54642856D02*
X44459580Y-54690475D01*
X44459580Y-54690475D02*
X44507200Y-54738094D01*
X44507200Y-54738094D02*
X44554819Y-54833332D01*
X44554819Y-54833332D02*
X44554819Y-55071427D01*
X44554819Y-55071427D02*
X44507200Y-55166665D01*
X44507200Y-55166665D02*
X44459580Y-55214284D01*
X44459580Y-54214284D02*
X44507200Y-54166665D01*
X44507200Y-54166665D02*
X44554819Y-54214284D01*
X44554819Y-54214284D02*
X44507200Y-54261903D01*
X44507200Y-54261903D02*
X44459580Y-54214284D01*
X44459580Y-54214284D02*
X44554819Y-54214284D01*
X43554819Y-53547618D02*
X43554819Y-53452380D01*
X43554819Y-53452380D02*
X43602438Y-53357142D01*
X43602438Y-53357142D02*
X43650057Y-53309523D01*
X43650057Y-53309523D02*
X43745295Y-53261904D01*
X43745295Y-53261904D02*
X43935771Y-53214285D01*
X43935771Y-53214285D02*
X44173866Y-53214285D01*
X44173866Y-53214285D02*
X44364342Y-53261904D01*
X44364342Y-53261904D02*
X44459580Y-53309523D01*
X44459580Y-53309523D02*
X44507200Y-53357142D01*
X44507200Y-53357142D02*
X44554819Y-53452380D01*
X44554819Y-53452380D02*
X44554819Y-53547618D01*
X44554819Y-53547618D02*
X44507200Y-53642856D01*
X44507200Y-53642856D02*
X44459580Y-53690475D01*
X44459580Y-53690475D02*
X44364342Y-53738094D01*
X44364342Y-53738094D02*
X44173866Y-53785713D01*
X44173866Y-53785713D02*
X43935771Y-53785713D01*
X43935771Y-53785713D02*
X43745295Y-53738094D01*
X43745295Y-53738094D02*
X43650057Y-53690475D01*
X43650057Y-53690475D02*
X43602438Y-53642856D01*
X43602438Y-53642856D02*
X43554819Y-53547618D01*
X44554819Y-52023808D02*
X43888152Y-52023808D01*
X43983390Y-52023808D02*
X43935771Y-51976189D01*
X43935771Y-51976189D02*
X43888152Y-51880951D01*
X43888152Y-51880951D02*
X43888152Y-51738094D01*
X43888152Y-51738094D02*
X43935771Y-51642856D01*
X43935771Y-51642856D02*
X44031009Y-51595237D01*
X44031009Y-51595237D02*
X44554819Y-51595237D01*
X44031009Y-51595237D02*
X43935771Y-51547618D01*
X43935771Y-51547618D02*
X43888152Y-51452380D01*
X43888152Y-51452380D02*
X43888152Y-51309523D01*
X43888152Y-51309523D02*
X43935771Y-51214284D01*
X43935771Y-51214284D02*
X44031009Y-51166665D01*
X44031009Y-51166665D02*
X44554819Y-51166665D01*
X44554819Y-50690475D02*
X43888152Y-50690475D01*
X43983390Y-50690475D02*
X43935771Y-50642856D01*
X43935771Y-50642856D02*
X43888152Y-50547618D01*
X43888152Y-50547618D02*
X43888152Y-50404761D01*
X43888152Y-50404761D02*
X43935771Y-50309523D01*
X43935771Y-50309523D02*
X44031009Y-50261904D01*
X44031009Y-50261904D02*
X44554819Y-50261904D01*
X44031009Y-50261904D02*
X43935771Y-50214285D01*
X43935771Y-50214285D02*
X43888152Y-50119047D01*
X43888152Y-50119047D02*
X43888152Y-49976190D01*
X43888152Y-49976190D02*
X43935771Y-49880951D01*
X43935771Y-49880951D02*
X44031009Y-49833332D01*
X44031009Y-49833332D02*
X44554819Y-49833332D01*
X54500000Y-55000000D02*
X44663580Y-55000000D01*
X54500000Y-50000000D02*
X44663580Y-50000000D01*
X45250000Y-55000000D02*
X45250000Y-50000000D01*
X45250000Y-55000000D02*
X45250000Y-50000000D01*
X45250000Y-55000000D02*
X44663579Y-53873496D01*
X45250000Y-55000000D02*
X45836421Y-53873496D01*
X45250000Y-50000000D02*
X45836421Y-51126504D01*
X45250000Y-50000000D02*
X44663579Y-51126504D01*
X83623253Y-57157200D02*
X83766110Y-57204819D01*
X83766110Y-57204819D02*
X84004205Y-57204819D01*
X84004205Y-57204819D02*
X84099443Y-57157200D01*
X84099443Y-57157200D02*
X84147062Y-57109580D01*
X84147062Y-57109580D02*
X84194681Y-57014342D01*
X84194681Y-57014342D02*
X84194681Y-56919104D01*
X84194681Y-56919104D02*
X84147062Y-56823866D01*
X84147062Y-56823866D02*
X84099443Y-56776247D01*
X84099443Y-56776247D02*
X84004205Y-56728628D01*
X84004205Y-56728628D02*
X83813729Y-56681009D01*
X83813729Y-56681009D02*
X83718491Y-56633390D01*
X83718491Y-56633390D02*
X83670872Y-56585771D01*
X83670872Y-56585771D02*
X83623253Y-56490533D01*
X83623253Y-56490533D02*
X83623253Y-56395295D01*
X83623253Y-56395295D02*
X83670872Y-56300057D01*
X83670872Y-56300057D02*
X83718491Y-56252438D01*
X83718491Y-56252438D02*
X83813729Y-56204819D01*
X83813729Y-56204819D02*
X84051824Y-56204819D01*
X84051824Y-56204819D02*
X84194681Y-56252438D01*
X84528015Y-56204819D02*
X84766110Y-57204819D01*
X84766110Y-57204819D02*
X84956586Y-56490533D01*
X84956586Y-56490533D02*
X85147062Y-57204819D01*
X85147062Y-57204819D02*
X85385158Y-56204819D01*
X85670872Y-56204819D02*
X86289919Y-56204819D01*
X86289919Y-56204819D02*
X85956586Y-56585771D01*
X85956586Y-56585771D02*
X86099443Y-56585771D01*
X86099443Y-56585771D02*
X86194681Y-56633390D01*
X86194681Y-56633390D02*
X86242300Y-56681009D01*
X86242300Y-56681009D02*
X86289919Y-56776247D01*
X86289919Y-56776247D02*
X86289919Y-57014342D01*
X86289919Y-57014342D02*
X86242300Y-57109580D01*
X86242300Y-57109580D02*
X86194681Y-57157200D01*
X86194681Y-57157200D02*
X86099443Y-57204819D01*
X86099443Y-57204819D02*
X85813729Y-57204819D01*
X85813729Y-57204819D02*
X85718491Y-57157200D01*
X85718491Y-57157200D02*
X85670872Y-57109580D01*
D12*
X157091904Y-52531927D02*
X157091904Y-52131927D01*
X157320475Y-52531927D02*
X157149046Y-52303356D01*
X157320475Y-52131927D02*
X157091904Y-52360499D01*
X157491904Y-52322403D02*
X157625237Y-52322403D01*
X157682380Y-52531927D02*
X157491904Y-52531927D01*
X157491904Y-52531927D02*
X157491904Y-52131927D01*
X157491904Y-52131927D02*
X157682380Y-52131927D01*
X157853809Y-52322403D02*
X157987142Y-52322403D01*
X158044285Y-52531927D02*
X157853809Y-52531927D01*
X157853809Y-52531927D02*
X157853809Y-52131927D01*
X157853809Y-52131927D02*
X158044285Y-52131927D01*
X158215714Y-52531927D02*
X158215714Y-52131927D01*
X158215714Y-52131927D02*
X158368095Y-52131927D01*
X158368095Y-52131927D02*
X158406190Y-52150975D01*
X158406190Y-52150975D02*
X158425237Y-52170022D01*
X158425237Y-52170022D02*
X158444285Y-52208118D01*
X158444285Y-52208118D02*
X158444285Y-52265260D01*
X158444285Y-52265260D02*
X158425237Y-52303356D01*
X158425237Y-52303356D02*
X158406190Y-52322403D01*
X158406190Y-52322403D02*
X158368095Y-52341451D01*
X158368095Y-52341451D02*
X158215714Y-52341451D01*
X158691904Y-52131927D02*
X158768095Y-52131927D01*
X158768095Y-52131927D02*
X158806190Y-52150975D01*
X158806190Y-52150975D02*
X158844285Y-52189070D01*
X158844285Y-52189070D02*
X158863333Y-52265260D01*
X158863333Y-52265260D02*
X158863333Y-52398594D01*
X158863333Y-52398594D02*
X158844285Y-52474784D01*
X158844285Y-52474784D02*
X158806190Y-52512880D01*
X158806190Y-52512880D02*
X158768095Y-52531927D01*
X158768095Y-52531927D02*
X158691904Y-52531927D01*
X158691904Y-52531927D02*
X158653809Y-52512880D01*
X158653809Y-52512880D02*
X158615714Y-52474784D01*
X158615714Y-52474784D02*
X158596666Y-52398594D01*
X158596666Y-52398594D02*
X158596666Y-52265260D01*
X158596666Y-52265260D02*
X158615714Y-52189070D01*
X158615714Y-52189070D02*
X158653809Y-52150975D01*
X158653809Y-52150975D02*
X158691904Y-52131927D01*
X159034762Y-52131927D02*
X159034762Y-52455737D01*
X159034762Y-52455737D02*
X159053809Y-52493832D01*
X159053809Y-52493832D02*
X159072857Y-52512880D01*
X159072857Y-52512880D02*
X159110952Y-52531927D01*
X159110952Y-52531927D02*
X159187143Y-52531927D01*
X159187143Y-52531927D02*
X159225238Y-52512880D01*
X159225238Y-52512880D02*
X159244285Y-52493832D01*
X159244285Y-52493832D02*
X159263333Y-52455737D01*
X159263333Y-52455737D02*
X159263333Y-52131927D01*
X159396667Y-52131927D02*
X159625238Y-52131927D01*
X159510952Y-52531927D02*
X159510952Y-52131927D01*
D11*
X160509762Y-62382419D02*
X160509762Y-61382419D01*
X161081190Y-62382419D02*
X160652619Y-61810990D01*
X161081190Y-61382419D02*
X160509762Y-61953847D01*
X161509762Y-61858609D02*
X161843095Y-61858609D01*
X161985952Y-62382419D02*
X161509762Y-62382419D01*
X161509762Y-62382419D02*
X161509762Y-61382419D01*
X161509762Y-61382419D02*
X161985952Y-61382419D01*
X162414524Y-61858609D02*
X162747857Y-61858609D01*
X162890714Y-62382419D02*
X162414524Y-62382419D01*
X162414524Y-62382419D02*
X162414524Y-61382419D01*
X162414524Y-61382419D02*
X162890714Y-61382419D01*
X163319286Y-62382419D02*
X163319286Y-61382419D01*
X163319286Y-61382419D02*
X163700238Y-61382419D01*
X163700238Y-61382419D02*
X163795476Y-61430038D01*
X163795476Y-61430038D02*
X163843095Y-61477657D01*
X163843095Y-61477657D02*
X163890714Y-61572895D01*
X163890714Y-61572895D02*
X163890714Y-61715752D01*
X163890714Y-61715752D02*
X163843095Y-61810990D01*
X163843095Y-61810990D02*
X163795476Y-61858609D01*
X163795476Y-61858609D02*
X163700238Y-61906228D01*
X163700238Y-61906228D02*
X163319286Y-61906228D01*
X164509762Y-61382419D02*
X164700238Y-61382419D01*
X164700238Y-61382419D02*
X164795476Y-61430038D01*
X164795476Y-61430038D02*
X164890714Y-61525276D01*
X164890714Y-61525276D02*
X164938333Y-61715752D01*
X164938333Y-61715752D02*
X164938333Y-62049085D01*
X164938333Y-62049085D02*
X164890714Y-62239561D01*
X164890714Y-62239561D02*
X164795476Y-62334800D01*
X164795476Y-62334800D02*
X164700238Y-62382419D01*
X164700238Y-62382419D02*
X164509762Y-62382419D01*
X164509762Y-62382419D02*
X164414524Y-62334800D01*
X164414524Y-62334800D02*
X164319286Y-62239561D01*
X164319286Y-62239561D02*
X164271667Y-62049085D01*
X164271667Y-62049085D02*
X164271667Y-61715752D01*
X164271667Y-61715752D02*
X164319286Y-61525276D01*
X164319286Y-61525276D02*
X164414524Y-61430038D01*
X164414524Y-61430038D02*
X164509762Y-61382419D01*
X165366905Y-61382419D02*
X165366905Y-62191942D01*
X165366905Y-62191942D02*
X165414524Y-62287180D01*
X165414524Y-62287180D02*
X165462143Y-62334800D01*
X165462143Y-62334800D02*
X165557381Y-62382419D01*
X165557381Y-62382419D02*
X165747857Y-62382419D01*
X165747857Y-62382419D02*
X165843095Y-62334800D01*
X165843095Y-62334800D02*
X165890714Y-62287180D01*
X165890714Y-62287180D02*
X165938333Y-62191942D01*
X165938333Y-62191942D02*
X165938333Y-61382419D01*
X166271667Y-61382419D02*
X166843095Y-61382419D01*
X166557381Y-62382419D02*
X166557381Y-61382419D01*
D13*
X169652891Y-65107141D02*
X169052891Y-65107141D01*
X169652891Y-64764284D02*
X169310034Y-65021427D01*
X169052891Y-64764284D02*
X169395748Y-65107141D01*
X169338605Y-64507141D02*
X169338605Y-64307141D01*
X169652891Y-64221427D02*
X169652891Y-64507141D01*
X169652891Y-64507141D02*
X169052891Y-64507141D01*
X169052891Y-64507141D02*
X169052891Y-64221427D01*
X169338605Y-63964284D02*
X169338605Y-63764284D01*
X169652891Y-63678570D02*
X169652891Y-63964284D01*
X169652891Y-63964284D02*
X169052891Y-63964284D01*
X169052891Y-63964284D02*
X169052891Y-63678570D01*
X169652891Y-63421427D02*
X169052891Y-63421427D01*
X169052891Y-63421427D02*
X169052891Y-63192856D01*
X169052891Y-63192856D02*
X169081462Y-63135713D01*
X169081462Y-63135713D02*
X169110034Y-63107142D01*
X169110034Y-63107142D02*
X169167177Y-63078570D01*
X169167177Y-63078570D02*
X169252891Y-63078570D01*
X169252891Y-63078570D02*
X169310034Y-63107142D01*
X169310034Y-63107142D02*
X169338605Y-63135713D01*
X169338605Y-63135713D02*
X169367177Y-63192856D01*
X169367177Y-63192856D02*
X169367177Y-63421427D01*
X169052891Y-62707142D02*
X169052891Y-62592856D01*
X169052891Y-62592856D02*
X169081462Y-62535713D01*
X169081462Y-62535713D02*
X169138605Y-62478570D01*
X169138605Y-62478570D02*
X169252891Y-62449999D01*
X169252891Y-62449999D02*
X169452891Y-62449999D01*
X169452891Y-62449999D02*
X169567177Y-62478570D01*
X169567177Y-62478570D02*
X169624320Y-62535713D01*
X169624320Y-62535713D02*
X169652891Y-62592856D01*
X169652891Y-62592856D02*
X169652891Y-62707142D01*
X169652891Y-62707142D02*
X169624320Y-62764285D01*
X169624320Y-62764285D02*
X169567177Y-62821427D01*
X169567177Y-62821427D02*
X169452891Y-62849999D01*
X169452891Y-62849999D02*
X169252891Y-62849999D01*
X169252891Y-62849999D02*
X169138605Y-62821427D01*
X169138605Y-62821427D02*
X169081462Y-62764285D01*
X169081462Y-62764285D02*
X169052891Y-62707142D01*
X169052891Y-62192856D02*
X169538605Y-62192856D01*
X169538605Y-62192856D02*
X169595748Y-62164285D01*
X169595748Y-62164285D02*
X169624320Y-62135714D01*
X169624320Y-62135714D02*
X169652891Y-62078571D01*
X169652891Y-62078571D02*
X169652891Y-61964285D01*
X169652891Y-61964285D02*
X169624320Y-61907142D01*
X169624320Y-61907142D02*
X169595748Y-61878571D01*
X169595748Y-61878571D02*
X169538605Y-61849999D01*
X169538605Y-61849999D02*
X169052891Y-61849999D01*
X169052891Y-61650000D02*
X169052891Y-61307143D01*
X169652891Y-61478571D02*
X169052891Y-61478571D01*
X168577891Y-59482141D02*
X167977891Y-59482141D01*
X168577891Y-59139284D02*
X168235034Y-59396427D01*
X167977891Y-59139284D02*
X168320748Y-59482141D01*
X168263605Y-58882141D02*
X168263605Y-58682141D01*
X168577891Y-58596427D02*
X168577891Y-58882141D01*
X168577891Y-58882141D02*
X167977891Y-58882141D01*
X167977891Y-58882141D02*
X167977891Y-58596427D01*
X168263605Y-58339284D02*
X168263605Y-58139284D01*
X168577891Y-58053570D02*
X168577891Y-58339284D01*
X168577891Y-58339284D02*
X167977891Y-58339284D01*
X167977891Y-58339284D02*
X167977891Y-58053570D01*
X168577891Y-57796427D02*
X167977891Y-57796427D01*
X167977891Y-57796427D02*
X167977891Y-57567856D01*
X167977891Y-57567856D02*
X168006462Y-57510713D01*
X168006462Y-57510713D02*
X168035034Y-57482142D01*
X168035034Y-57482142D02*
X168092177Y-57453570D01*
X168092177Y-57453570D02*
X168177891Y-57453570D01*
X168177891Y-57453570D02*
X168235034Y-57482142D01*
X168235034Y-57482142D02*
X168263605Y-57510713D01*
X168263605Y-57510713D02*
X168292177Y-57567856D01*
X168292177Y-57567856D02*
X168292177Y-57796427D01*
X167977891Y-57082142D02*
X167977891Y-56967856D01*
X167977891Y-56967856D02*
X168006462Y-56910713D01*
X168006462Y-56910713D02*
X168063605Y-56853570D01*
X168063605Y-56853570D02*
X168177891Y-56824999D01*
X168177891Y-56824999D02*
X168377891Y-56824999D01*
X168377891Y-56824999D02*
X168492177Y-56853570D01*
X168492177Y-56853570D02*
X168549320Y-56910713D01*
X168549320Y-56910713D02*
X168577891Y-56967856D01*
X168577891Y-56967856D02*
X168577891Y-57082142D01*
X168577891Y-57082142D02*
X168549320Y-57139285D01*
X168549320Y-57139285D02*
X168492177Y-57196427D01*
X168492177Y-57196427D02*
X168377891Y-57224999D01*
X168377891Y-57224999D02*
X168177891Y-57224999D01*
X168177891Y-57224999D02*
X168063605Y-57196427D01*
X168063605Y-57196427D02*
X168006462Y-57139285D01*
X168006462Y-57139285D02*
X167977891Y-57082142D01*
X167977891Y-56567856D02*
X168463605Y-56567856D01*
X168463605Y-56567856D02*
X168520748Y-56539285D01*
X168520748Y-56539285D02*
X168549320Y-56510714D01*
X168549320Y-56510714D02*
X168577891Y-56453571D01*
X168577891Y-56453571D02*
X168577891Y-56339285D01*
X168577891Y-56339285D02*
X168549320Y-56282142D01*
X168549320Y-56282142D02*
X168520748Y-56253571D01*
X168520748Y-56253571D02*
X168463605Y-56224999D01*
X168463605Y-56224999D02*
X167977891Y-56224999D01*
X167977891Y-56025000D02*
X167977891Y-55682143D01*
X168577891Y-55853571D02*
X167977891Y-55853571D01*
D14*
%TO.C,J16*%
X142800000Y-142400000D02*
G75*
G02*
X142200000Y-142400000I-300000J0D01*
G01*
X142200000Y-142400000D02*
G75*
G02*
X142800000Y-142400000I300000J0D01*
G01*
%TO.C,J11*%
X82550000Y-142400000D02*
G75*
G02*
X81950000Y-142400000I-300000J0D01*
G01*
X81950000Y-142400000D02*
G75*
G02*
X82550000Y-142400000I300000J0D01*
G01*
D10*
%TO.C,H2*%
X196700000Y-55000000D02*
G75*
G02*
X190300000Y-55000000I-3200000J0D01*
G01*
X190300000Y-55000000D02*
G75*
G02*
X196700000Y-55000000I3200000J0D01*
G01*
D14*
%TO.C,J19*%
X178800000Y-142400000D02*
G75*
G02*
X178200000Y-142400000I-300000J0D01*
G01*
X178200000Y-142400000D02*
G75*
G02*
X178800000Y-142400000I300000J0D01*
G01*
%TO.C,J8*%
X106550000Y-142400000D02*
G75*
G02*
X105950000Y-142400000I-300000J0D01*
G01*
X105950000Y-142400000D02*
G75*
G02*
X106550000Y-142400000I300000J0D01*
G01*
%TO.C,J7*%
X94550000Y-142400000D02*
G75*
G02*
X93950000Y-142400000I-300000J0D01*
G01*
X93950000Y-142400000D02*
G75*
G02*
X94550000Y-142400000I300000J0D01*
G01*
D10*
%TO.C,H1*%
X58200000Y-55000000D02*
G75*
G02*
X51800000Y-55000000I-3200000J0D01*
G01*
X51800000Y-55000000D02*
G75*
G02*
X58200000Y-55000000I3200000J0D01*
G01*
%TO.C,H4*%
X196700000Y-150000000D02*
G75*
G02*
X190300000Y-150000000I-3200000J0D01*
G01*
X190300000Y-150000000D02*
G75*
G02*
X196700000Y-150000000I3200000J0D01*
G01*
D14*
%TO.C,J17*%
X166800000Y-142400000D02*
G75*
G02*
X166200000Y-142400000I-300000J0D01*
G01*
X166200000Y-142400000D02*
G75*
G02*
X166800000Y-142400000I300000J0D01*
G01*
%TO.C,J18*%
X154800000Y-142400000D02*
G75*
G02*
X154200000Y-142400000I-300000J0D01*
G01*
X154200000Y-142400000D02*
G75*
G02*
X154800000Y-142400000I300000J0D01*
G01*
%TO.C,J12*%
X70550000Y-142400000D02*
G75*
G02*
X69950000Y-142400000I-300000J0D01*
G01*
X69950000Y-142400000D02*
G75*
G02*
X70550000Y-142400000I300000J0D01*
G01*
D10*
%TO.C,H3*%
X58200000Y-150000000D02*
G75*
G02*
X51800000Y-150000000I-3200000J0D01*
G01*
X51800000Y-150000000D02*
G75*
G02*
X58200000Y-150000000I3200000J0D01*
G01*
D15*
%TO.C,J4*%
G36*
X155950000Y-113750000D02*
G01*
X146350000Y-113750000D01*
X146350000Y-113450000D01*
X155950000Y-113450000D01*
X155950000Y-113750000D01*
G37*
D16*
X148251000Y-117900000D02*
G75*
G02*
X148051000Y-117900000I-100000J0D01*
G01*
X148051000Y-117900000D02*
G75*
G02*
X148251000Y-117900000I100000J0D01*
G01*
D15*
%TO.C,J3*%
G36*
X102150000Y-129550000D02*
G01*
X92550000Y-129550000D01*
X92550000Y-129250000D01*
X102150000Y-129250000D01*
X102150000Y-129550000D01*
G37*
D16*
X100449000Y-125100000D02*
G75*
G02*
X100249000Y-125100000I-100000J0D01*
G01*
X100249000Y-125100000D02*
G75*
G02*
X100449000Y-125100000I100000J0D01*
G01*
D15*
%TO.C,SW5*%
G36*
X54500000Y-79000000D02*
G01*
X54200000Y-79000000D01*
X54200000Y-65800000D01*
X54500000Y-65800000D01*
X54500000Y-79000000D01*
G37*
G36*
X66500000Y-79000000D02*
G01*
X54500000Y-79000000D01*
X54500000Y-78700000D01*
X66500000Y-78700000D01*
X66500000Y-79000000D01*
G37*
G36*
X66800000Y-65800000D02*
G01*
X54200000Y-65800000D01*
X54200000Y-65500000D01*
X66800000Y-65500000D01*
X66800000Y-65800000D01*
G37*
G36*
X66800000Y-79000000D02*
G01*
X66500000Y-79000000D01*
X66500000Y-65800000D01*
X66800000Y-65800000D01*
X66800000Y-79000000D01*
G37*
%TO.C,SW4*%
G36*
X182000000Y-79000000D02*
G01*
X181700000Y-79000000D01*
X181700000Y-65800000D01*
X182000000Y-65800000D01*
X182000000Y-79000000D01*
G37*
G36*
X194000000Y-79000000D02*
G01*
X182000000Y-79000000D01*
X182000000Y-78700000D01*
X194000000Y-78700000D01*
X194000000Y-79000000D01*
G37*
G36*
X194300000Y-65800000D02*
G01*
X181700000Y-65800000D01*
X181700000Y-65500000D01*
X194300000Y-65500000D01*
X194300000Y-65800000D01*
G37*
G36*
X194300000Y-79000000D02*
G01*
X194000000Y-79000000D01*
X194000000Y-65800000D01*
X194300000Y-65800000D01*
X194300000Y-79000000D01*
G37*
%TD*%
M02*
