M48
; DRILL file {KiCad 8.0.4} date 2024-08-29T22:34:13+0200
; FORMAT={-:-/ absolute / inch / decimal}
; #@! TF.CreationDate,2024-08-29T22:34:13+02:00
; #@! TF.GenerationSoftware,Kicad,Pcbnew,8.0.4
; #@! TF.FileFunction,Plated,1,6,PTH
FMAT,2
INCH
; #@! TA.AperFunction,Plated,PTH,ViaDrill
T1C0.0079
; #@! TA.AperFunction,Plated,PTH,ViaDrill
T2C0.0118
; #@! TA.AperFunction,Plated,PTH,ViaDrill
T3C0.0157
; #@! TA.AperFunction,Plated,PTH,ComponentDrill
T4C0.0197
; #@! TA.AperFunction,Plated,PTH,ComponentDrill
T5C0.0236
; #@! TA.AperFunction,Plated,PTH,ComponentDrill
T6C0.0394
; #@! TA.AperFunction,Plated,PTH,ComponentDrill
T7C0.0472
; #@! TA.AperFunction,Plated,PTH,ComponentDrill
T8C0.0551
; #@! TA.AperFunction,Plated,PTH,ComponentDrill
T9C0.0591
; #@! TA.AperFunction,Plated,PTH,ComponentDrill
T10C0.0669
; #@! TA.AperFunction,Plated,PTH,ComponentDrill
T11C0.0709
; #@! TA.AperFunction,Plated,PTH,ComponentDrill
T12C0.1260
%
G90
G05
T1
X2.7Y-2.15
X2.7329Y-2.7134
X2.7589Y-2.687
X2.7785Y-2.6612
X2.7854Y-2.2047
X2.7953Y-2.0965
X3.0807Y-2.3917
X3.1594Y-2.622
X3.1594Y-2.7106
X3.2382Y-2.5591
X3.4646Y-2.7598
X3.6417Y-4.2618
X3.6811Y-3.937
X3.6909Y-3.8976
X3.7205Y-4.3012
X3.878Y-3.5384
X3.8878Y-4.2323
X3.8878Y-4.311
X3.9075Y-4.5768
X3.9469Y-4.3996
X3.9572Y-3.5536
X3.9608Y-3.5179
X4.0256Y-2.9724
X4.0421Y-4.3618
X4.0453Y-3.0118
X4.065Y-4.3406
X4.1043Y-4.3799
X4.1339Y-3.8583
X4.1339Y-4.498
X4.1339Y-3.9665
X4.1634Y-3.8878
X4.1831Y-3.0413
X4.1831Y-3.8681
X4.2028Y-2.1654
X4.2028Y-3.7598
X4.2126Y-4.439
X4.2224Y-3.0413
X4.2224Y-3.7303
X4.2323Y-2.1427
X4.2421Y-3.7598
X4.2618Y-3.7303
X4.2618Y-4.3996
X4.2815Y-3.1004
X4.2815Y-3.7598
X4.311Y-4.6457
X4.311Y-4.6752
X4.311Y-4.7047
X4.3209Y-3.1004
X4.3307Y-3.6811
X4.3406Y-3.0413
X4.3504Y-3.7008
X4.3898Y-3.6417
X4.3986Y-3.1004
X4.3996Y-4.4587
X4.4085Y-3.6614
X4.4193Y-4.0846
X4.4193Y-4.0453
X4.438Y-3.1004
X4.4587Y-3.0413
X4.4783Y-3.1004
X4.498Y-2.5787
X4.498Y-3.0413
X4.5079Y-3.8287
X4.5148Y-3.7102
X4.5167Y-4.065
X4.5177Y-4.1634
X4.5177Y-3.1004
X4.5177Y-4.2028
X4.5177Y-4.2421
X4.5177Y-4.3406
X4.5177Y-4.3799
X4.5177Y-3.9665
X4.5256Y-3.8067
X4.5276Y-3.8484
X4.5276Y-4.0256
X4.5276Y-4.1043
X4.5325Y-3.7795
X4.5374Y-2.8543
X4.5374Y-4.2224
X4.5374Y-4.3602
X4.5472Y-4.4094
X4.554Y-4.1679
X4.5571Y-2.6673
X4.6211Y-2.7215
X4.626Y-3.6811
X4.626Y-3.8583
X4.626Y-4.4094
X4.626Y-5.7283
X4.627Y-5.8268
X4.6358Y-3.7992
X4.6457Y-3.6614
X4.6457Y-5.8465
X4.6457Y-4.3898
X4.6555Y-4.3504
X4.6654Y-3.6811
X4.6654Y-4.4094
X4.6664Y-3.5392
X4.685Y-4.3898
X4.6858Y-3.9772
X4.6858Y-4.015
X4.7047Y-4.4094
X4.7104Y-3.864
X4.7244Y-3.5659
X4.7244Y-4.3898
X4.7343Y-3.8386
X4.7381Y-3.7303
X4.7441Y-3.1398
X4.7441Y-4.4094
X4.7441Y-5.7382
X4.7525Y-3.6909
X4.7539Y-3.8189
X4.7634Y-4.3902
X4.766Y-4.037
X4.7741Y-2.5689
X4.7835Y-3.7303
X4.7835Y-5.2756
X4.7933Y-4.1339
X4.7955Y-4.0075
X4.8031Y-4.3901
X4.8031Y-2.5689
X4.8031Y-4.1929
X4.8099Y-3.7435
X4.8228Y-5.2756
X4.8425Y-3.6614
X4.8425Y-4.1929
X4.8612Y-3.6811
X4.8625Y-5.2749
X4.872Y-5.1476
X4.8726Y-3.9952
X4.8758Y-5.8855
X4.8819Y-4.4094
X4.9016Y-4.3898
X4.9019Y-5.8858
X4.9213Y-4.5276
X4.9311Y-3.6811
X4.9409Y-4.5079
X4.9606Y-4.4094
X4.9668Y-3.6841
X4.9705Y-5.7087
X4.9803Y-4.3898
X4.9803Y-5.2756
X5.0Y-4.0354
X5.0Y-4.4094
X5.0098Y-5.7087
X5.0197Y-3.4843
X5.0197Y-5.2756
X5.0394Y-4.3898
X5.0456Y-3.4843
X5.0492Y-2.5689
X5.0492Y-3.7008
X5.0492Y-5.2756
X5.0524Y-3.6656
X5.0784Y-5.7383
X5.0886Y-5.8366
X5.0984Y-4.4094
X5.0988Y-3.5634
X5.1075Y-4.1724
X5.1083Y-4.7047
X5.1083Y-4.1437
X5.1143Y-5.8367
X5.1181Y-3.6614
X5.1181Y-3.9469
X5.1181Y-4.3209
X5.1181Y-4.3898
X5.128Y-5.7283
X5.1329Y-4.7293
X5.1378Y-3.563
X5.1378Y-3.7008
X5.1473Y-4.3107
X5.1476Y-4.6654
X5.1575Y-3.6614
X5.1575Y-4.4094
X5.1673Y-4.6457
X5.1743Y-4.3889
X5.1772Y-3.7894
X5.1772Y-3.8189
X5.1772Y-5.5807
X5.187Y-4.3406
X5.1947Y-5.7458
X5.1988Y-3.563
X5.2067Y-4.4094
X5.2165Y-3.6614
X5.2165Y-4.2224
X5.2165Y-5.561
X5.2461Y-4.3799
X5.2525Y-3.225
X5.2539Y-4.0256
X5.2556Y-4.2024
X5.2657Y-3.8091
X5.2657Y-3.8484
X5.2657Y-3.8878
X5.2657Y-4.124
X5.2657Y-4.3602
X5.2657Y-4.2618
X5.2667Y-3.9279
X5.2671Y-4.0037
X5.3248Y-3.0512
X5.3346Y-5.1772
X5.3441Y-3.1102
X5.3534Y-3.9075
X5.3543Y-4.6457
X5.3563Y-4.0059
X5.3642Y-3.0709
X5.3681Y-3.3117
X5.374Y-3.8681
X5.374Y-4.3406
X5.374Y-4.626
X5.374Y-3.1102
X5.3744Y-3.2009
X5.3839Y-3.2874
X5.4035Y-3.3268
X5.4135Y-3.2667
X5.4233Y-3.2383
X5.4429Y-3.2185
X5.4429Y-4.124
X5.4626Y-3.2677
X5.4626Y-3.3376
X5.4823Y-3.2382
X5.502Y-3.2677
X5.502Y-4.1831
X5.5213Y-3.2285
X5.5807Y-3.2677
X5.5998Y-3.2283
X5.6197Y-3.2673
X5.6594Y-3.2687
X5.6988Y-3.2676
X5.7195Y-3.1102
X5.7382Y-3.0906
X5.7579Y-3.2283
X5.7776Y-3.2677
X5.8169Y-4.2126
X5.8559Y-3.2673
X5.876Y-3.2283
X5.8957Y-3.1102
X5.9154Y-3.2283
X5.935Y-3.2677
X5.9547Y-3.1102
X6.0128Y-3.2677
X6.0531Y-3.1102
X6.0728Y-3.0906
X6.0827Y-2.9921
X6.1319Y-3.1102
X6.2008Y-3.0709
X6.2402Y-4.9311
X6.25Y-2.7165
X6.2894Y-4.9311
X6.2894Y-2.7165
X6.2992Y-2.7953
X6.3253Y-4.9702
X6.3386Y-5.1083
X6.3386Y-2.7165
X6.3386Y-4.9311
X6.3386Y-5.0787
X6.378Y-2.7165
X6.3783Y-4.9708
X6.3878Y-4.9311
X6.4413Y-5.1458
X6.4431Y-5.175
X6.4628Y-2.7264
X6.4628Y-2.7953
X6.4665Y-4.9705
X6.4764Y-5.2362
X6.4959Y-2.7563
X6.5551Y-2.7165
X6.5591Y-5.0472
X6.5827Y-5.2716
X6.5945Y-2.7165
X6.6043Y-4.8228
X6.6339Y-2.5492
X6.6457Y-5.2461
X6.6693Y-5.189
X6.6693Y-5.1358
X6.6831Y-4.9902
X6.7717Y-5.0523
X6.8012Y-3.0315
X6.8508Y-3.0311
X6.9285Y-5.3307
X7.0079Y-5.3622
X7.0157Y-5.0709
X7.0177Y-5.1476
X7.1161Y-2.1063
X7.4016Y-3.435
X7.5Y-2.9921
T2
X2.3228Y-2.9921
X2.3425Y-2.6969
X2.3819Y-2.9921
X2.4409Y-2.9921
X2.4606Y-3.4252
X2.6181Y-2.2441
X2.6181Y-3.9764
X2.6575Y-5.3445
X2.6969Y-2.2441
X2.75Y-2.1
X2.7657Y-5.8563
X2.8238Y-2.1457
X2.8445Y-5.4035
X2.8839Y-5.374
X2.8937Y-2.0374
X2.8941Y-2.2254
X2.9134Y-2.563
X2.9134Y-2.6811
X2.9823Y-2.1063
X2.9823Y-2.1457
X3.0118Y-3.1299
X3.0512Y-3.5433
X3.0522Y-2.438
X3.0807Y-3.435
X3.1299Y-2.9173
X3.2185Y-3.563
X3.2382Y-5.8563
X3.2776Y-3.435
X3.2874Y-2.75
X3.2894Y-3.1673
X3.3563Y-5.315
X3.3661Y-2.7303
X3.3858Y-3.6693
X3.3957Y-3.9764
X3.3957Y-5.4331
X3.4744Y-3.5138
X3.4961Y-3.7874
X3.5728Y-2.8681
X3.5827Y-3.811
X3.596Y-3.2895
X3.6024Y-5.3248
X3.6024Y-5.4232
X3.6713Y-3.6614
X3.7402Y-2.7205
X3.7598Y-2.9528
X3.8189Y-3.6811
X3.8484Y-3.4449
X4.0059Y-3.0217
X4.0783Y-5.2495
X4.1831Y-5.2067
X4.1831Y-5.8563
X4.2175Y-5.3051
X4.2421Y-4.3504
X4.2569Y-4.2165
X4.2717Y-5.2362
X4.2717Y-5.4331
X4.3012Y-4.3504
X4.3307Y-4.252
X4.3406Y-3.7894
X4.3602Y-5.3776
X4.3695Y-4.2969
X4.3701Y-3.9665
X4.3701Y-4.2595
X4.3709Y-4.0047
X4.3871Y-3.733
X4.3945Y-4.0652
X4.3996Y-3.8425
X4.4094Y-4.3406
X4.443Y-5.7042
X4.4882Y-3.4941
X4.498Y-5.2953
X4.5013Y-5.7681
X4.5276Y-3.4941
X4.5669Y-3.4744
X4.5768Y-4.5571
X4.6142Y-4.5571
X4.6949Y-5.502
X4.7046Y-5.561
X4.7917Y-5.5626
X4.7933Y-4.5571
X4.7933Y-5.7283
X4.7937Y-3.4755
X4.8052Y-4.3078
X4.8319Y-3.4744
X4.8327Y-4.5571
X4.8425Y-5.561
X4.8501Y-4.3455
X4.8917Y-5.561
X4.8919Y-4.6406
X4.9114Y-5.6102
X4.9114Y-5.2657
X4.9606Y-5.7579
X4.9881Y-5.6102
X4.9953Y-3.5124
X5.0098Y-4.5571
X5.0169Y-5.5563
X5.035Y-3.5241
X5.0492Y-4.5571
X5.1673Y-5.502
X5.2067Y-4.5965
X5.2205Y-5.2537
X5.2461Y-4.5571
X5.2559Y-5.7283
X5.2756Y-5.6299
X5.2854Y-4.5571
X5.3632Y-3.4439
X5.374Y-5.2559
X5.4035Y-5.4035
X5.4183Y-3.663
X5.4183Y-3.7004
X5.4183Y-3.9397
X5.4183Y-3.9791
X5.4183Y-4.1535
X5.4183Y-4.1929
X5.4232Y-3.8287
X5.5315Y-4.311
X5.5315Y-4.439
X5.5315Y-2.6476
X5.5512Y-3.2185
X5.6102Y-5.8563
X5.6693Y-3.2185
X5.748Y-2.3917
X5.748Y-2.4902
X6.0728Y-2.0768
X6.0827Y-5.8563
X6.1811Y-3.1102
X6.1811Y-3.2087
X6.2303Y-2.6181
X6.3189Y-2.5394
X6.3386Y-5.187
X6.3386Y-5.2264
X6.3386Y-5.2756
X6.3411Y-5.1501
X6.3583Y-2.5394
X6.378Y-3.3858
X6.3976Y-2.5394
X6.4173Y-5.4331
X6.4195Y-2.7242
X6.437Y-2.5394
X6.4469Y-4.9114
X6.4567Y-5.4331
X6.4764Y-2.5394
X6.4961Y-3.8386
X6.4961Y-4.8622
X6.5059Y-2.7264
X6.5059Y-3.435
X6.5157Y-2.5394
X6.5551Y-2.5394
X6.5551Y-5.4921
X6.5551Y-5.8563
X6.5945Y-2.5394
X6.6142Y-5.4921
X6.6339Y-2.6181
X6.6693Y-4.8622
X6.6732Y-5.4921
X6.6831Y-5.0886
X6.6874Y-4.9311
X6.7126Y-2.4902
X6.7224Y-3.3366
X6.7717Y-4.1437
X6.7717Y-5.1565
X6.7717Y-5.2067
X6.7717Y-5.1181
X6.8041Y-2.1398
X6.8307Y-3.3465
X6.8307Y-4.7638
X6.8504Y-5.2461
X6.8871Y-2.2513
X6.8898Y-2.0374
X6.939Y-2.2146
X6.9685Y-4.6161
X6.9685Y-4.7047
X6.9783Y-2.0965
X6.9789Y-2.146
X7.0276Y-4.937
X7.0276Y-5.8563
X7.126Y-2.185
X7.1654Y-4.4488
X7.3413Y-2.9921
X7.3622Y-2.6969
X7.4004Y-2.9921
X7.4527Y-2.9921
X7.4803Y-3.4449
T3
X3.0403Y-2.619
X3.061Y-2.8681
X3.2283Y-2.9468
X3.7402Y-2.6417
X4.4882Y-5.6594
X6.4026Y-3.0167
X6.5551Y-3.1693
T4
X2.0709Y-2.1654
X2.0709Y-5.9055
X2.0985Y-2.0985
X2.0985Y-2.2322
X2.0985Y-5.8387
X2.0985Y-5.9723
X2.1654Y-2.0709
X2.1654Y-2.2598
X2.1654Y-5.811
X2.1654Y-6.0
X2.2322Y-2.0985
X2.2322Y-2.2322
X2.2322Y-5.8387
X2.2322Y-5.9723
X2.2598Y-2.1654
X2.2598Y-5.9055
X7.5236Y-2.1654
X7.5236Y-5.9055
X7.5513Y-2.0985
X7.5513Y-2.2322
X7.5513Y-5.8387
X7.5513Y-5.9723
X7.6181Y-2.0709
X7.6181Y-2.2598
X7.6181Y-5.811
X7.6181Y-6.0
X7.6849Y-2.0985
X7.6849Y-2.2322
X7.6849Y-5.8387
X7.6849Y-5.9723
X7.7126Y-2.1654
X7.7126Y-5.9055
T6
X2.3961Y-4.111
X2.3961Y-4.211
X2.3961Y-4.311
X2.4961Y-4.111
X2.4961Y-4.211
X2.4961Y-4.311
X4.0917Y-2.3917
X4.0917Y-2.4917
X4.1917Y-2.3917
X4.1917Y-2.4917
X4.2917Y-2.3917
X4.2917Y-2.4917
X4.3917Y-2.3917
X4.3917Y-2.4917
X4.4917Y-2.3917
X4.4917Y-2.4917
X4.5917Y-2.3917
X4.5917Y-2.4917
X4.6917Y-2.3917
X4.6917Y-2.4917
X4.7917Y-2.3917
X4.7917Y-2.4917
X4.8917Y-2.3917
X4.8917Y-2.4917
X4.9917Y-2.3917
X4.9917Y-2.4917
X5.0917Y-2.3917
X5.0917Y-2.4917
X5.1917Y-2.3917
X5.1917Y-2.4917
X5.2917Y-2.3917
X5.2917Y-2.4917
X5.3917Y-2.3917
X5.3917Y-2.4917
X5.4917Y-2.3917
X5.4917Y-2.4917
X5.5917Y-2.3917
X5.5917Y-2.4917
X5.6917Y-2.3917
X5.6917Y-2.4917
X7.2874Y-4.1142
X7.2874Y-4.2142
X7.2874Y-4.3142
X7.3874Y-4.1142
X7.3874Y-4.2142
X7.3874Y-4.3142
T7
X2.2835Y-2.5689
X2.2835Y-3.1398
X2.3819Y-3.1398
X2.4803Y-2.5689
X2.4803Y-3.1398
X7.3031Y-2.5689
X7.3031Y-3.1398
X7.4016Y-3.1398
X7.5Y-2.5689
X7.5Y-3.1398
T9
X2.2819Y-3.363
X2.5319Y-3.463
X7.3016Y-3.363
X7.5516Y-3.463
T10
X3.0829Y-2.1457
X3.1558Y-2.5079
X3.3448Y-2.5079
X3.5337Y-2.5079
X3.6066Y-2.1457
T11
X3.6476Y-4.7835
X3.9468Y-4.685
X3.9469Y-4.8819
X5.8366Y-4.685
X5.8367Y-4.8819
X6.1358Y-4.7835
T12
X2.1654Y-2.1654
X2.1654Y-5.9055
X7.6181Y-2.1654
X7.6181Y-5.9055
T5
G00X4.4854Y-5.8
M15
G01X4.4854Y-5.8433
M16
G05
G00X4.4854Y-5.9744
M15
G01X4.4854Y-5.998
M16
G05
G00X4.8256Y-5.8
M15
G01X4.8256Y-5.8433
M16
G05
G00X4.8256Y-5.9744
M15
G01X4.8256Y-5.998
M16
G05
G00X4.9579Y-5.8
M15
G01X4.9579Y-5.8433
M16
G05
G00X4.9579Y-5.9744
M15
G01X4.9579Y-5.998
M16
G05
G00X5.298Y-5.8
M15
G01X5.298Y-5.8433
M16
G05
G00X5.298Y-5.9744
M15
G01X5.298Y-5.998
M16
G05
T8
G00X2.1575Y-2.872
M15
G01X2.1575Y-2.8169
M16
G05
G00X2.6063Y-2.872
M15
G01X2.6063Y-2.8169
M16
G05
G00X7.1772Y-2.872
M15
G01X7.1772Y-2.8169
M16
G05
G00X7.626Y-2.872
M15
G01X7.626Y-2.8169
M16
G05
M30
