%TF.GenerationSoftware,KiCad,Pcbnew,7.0.10*%
%TF.CreationDate,2024-01-12T15:54:47+01:00*%
%TF.ProjectId,KLST_PANDA,4b4c5354-5f50-4414-9e44-412e6b696361,rev?*%
%TF.SameCoordinates,Original*%
%TF.FileFunction,Profile,NP*%
%FSLAX46Y46*%
G04 Gerber Fmt 4.6, Leading zero omitted, Abs format (unit mm)*
G04 Created by KiCad (PCBNEW 7.0.10) date 2024-01-12 15:54:47*
%MOMM*%
%LPD*%
G01*
G04 APERTURE LIST*
%TA.AperFunction,Profile*%
%ADD10C,0.100000*%
%TD*%
G04 APERTURE END LIST*
D10*
X198500000Y-55000000D02*
G75*
G03*
X193500000Y-50000000I-5000000J0D01*
G01*
X65750000Y-152750000D02*
G75*
G03*
X64750000Y-153750000I0J-1000000D01*
G01*
X136396447Y-154000047D02*
G75*
G03*
X136896447Y-153500000I-47J500047D01*
G01*
X113250000Y-154000000D02*
X112000000Y-154000000D01*
X184000000Y-153750000D02*
X184000000Y-154000000D01*
X198500000Y-55000000D02*
X198500000Y-150000000D01*
X55000000Y-50000000D02*
X193500000Y-50000000D01*
X193500000Y-155000000D02*
G75*
G03*
X198500000Y-150000000I0J5000000D01*
G01*
X111500000Y-153500000D02*
G75*
G03*
X112000000Y-154000000I500000J0D01*
G01*
X64750000Y-153750000D02*
X64750000Y-154000000D01*
X137396447Y-152749947D02*
G75*
G03*
X136896447Y-153250000I53J-500053D01*
G01*
X63750000Y-155000000D02*
X55000000Y-155000000D01*
X135250000Y-154000000D02*
X113250000Y-154000000D01*
X50000000Y-150000000D02*
X50000000Y-55000000D01*
X111500000Y-153250000D02*
X111500000Y-153500000D01*
X65750000Y-152750000D02*
X111000000Y-152750000D01*
X111500000Y-153250000D02*
G75*
G03*
X111000000Y-152750000I-500000J0D01*
G01*
X136896447Y-153250000D02*
X136896447Y-153500000D01*
X50000000Y-150000000D02*
G75*
G03*
X55000000Y-155000000I5000000J0D01*
G01*
X193500000Y-155000000D02*
X185000000Y-155000000D01*
X184000000Y-154000000D02*
G75*
G03*
X185000000Y-155000000I1000000J0D01*
G01*
X184000000Y-153750000D02*
G75*
G03*
X183000000Y-152750000I-1000000J0D01*
G01*
X63750000Y-155000000D02*
G75*
G03*
X64750000Y-154000000I0J1000000D01*
G01*
X135250000Y-154000000D02*
X136396447Y-154000000D01*
X55000000Y-50000000D02*
G75*
G03*
X50000000Y-55000000I0J-5000000D01*
G01*
X137396447Y-152750000D02*
X183000000Y-152750000D01*
M02*
