%TF.GenerationSoftware,KiCad,Pcbnew,8.0.5*%
%TF.CreationDate,2024-12-13T13:38:05+01:00*%
%TF.ProjectId,KLST_PANDA,4b4c5354-5f50-4414-9e44-412e6b696361,rev?*%
%TF.SameCoordinates,Original*%
%TF.FileFunction,Other,Comment*%
%FSLAX46Y46*%
G04 Gerber Fmt 4.6, Leading zero omitted, Abs format (unit mm)*
G04 Created by KiCad (PCBNEW 8.0.5) date 2024-12-13 13:38:05*
%MOMM*%
%LPD*%
G01*
G04 APERTURE LIST*
%ADD10C,0.150000*%
%ADD11C,0.100000*%
%ADD12C,0.060000*%
%ADD13C,0.090000*%
%ADD14C,0.600000*%
%ADD15C,0.200000*%
%ADD16C,0.000000*%
G04 APERTURE END LIST*
D10*
X202104636Y-53242200D02*
X202390350Y-53337438D01*
X202390350Y-53337438D02*
X202866541Y-53337438D01*
X202866541Y-53337438D02*
X203057017Y-53242200D01*
X203057017Y-53242200D02*
X203152255Y-53146961D01*
X203152255Y-53146961D02*
X203247493Y-52956485D01*
X203247493Y-52956485D02*
X203247493Y-52766009D01*
X203247493Y-52766009D02*
X203152255Y-52575533D01*
X203152255Y-52575533D02*
X203057017Y-52480295D01*
X203057017Y-52480295D02*
X202866541Y-52385057D01*
X202866541Y-52385057D02*
X202485588Y-52289819D01*
X202485588Y-52289819D02*
X202295112Y-52194580D01*
X202295112Y-52194580D02*
X202199874Y-52099342D01*
X202199874Y-52099342D02*
X202104636Y-51908866D01*
X202104636Y-51908866D02*
X202104636Y-51718390D01*
X202104636Y-51718390D02*
X202199874Y-51527914D01*
X202199874Y-51527914D02*
X202295112Y-51432676D01*
X202295112Y-51432676D02*
X202485588Y-51337438D01*
X202485588Y-51337438D02*
X202961779Y-51337438D01*
X202961779Y-51337438D02*
X203247493Y-51432676D01*
X203818922Y-51337438D02*
X204961779Y-51337438D01*
X204390350Y-53337438D02*
X204390350Y-51337438D01*
X205533208Y-52766009D02*
X206485589Y-52766009D01*
X205342732Y-53337438D02*
X206009398Y-51337438D01*
X206009398Y-51337438D02*
X206676065Y-53337438D01*
X208485589Y-53146961D02*
X208390351Y-53242200D01*
X208390351Y-53242200D02*
X208104637Y-53337438D01*
X208104637Y-53337438D02*
X207914161Y-53337438D01*
X207914161Y-53337438D02*
X207628446Y-53242200D01*
X207628446Y-53242200D02*
X207437970Y-53051723D01*
X207437970Y-53051723D02*
X207342732Y-52861247D01*
X207342732Y-52861247D02*
X207247494Y-52480295D01*
X207247494Y-52480295D02*
X207247494Y-52194580D01*
X207247494Y-52194580D02*
X207342732Y-51813628D01*
X207342732Y-51813628D02*
X207437970Y-51623152D01*
X207437970Y-51623152D02*
X207628446Y-51432676D01*
X207628446Y-51432676D02*
X207914161Y-51337438D01*
X207914161Y-51337438D02*
X208104637Y-51337438D01*
X208104637Y-51337438D02*
X208390351Y-51432676D01*
X208390351Y-51432676D02*
X208485589Y-51527914D01*
X209342732Y-53337438D02*
X209342732Y-51337438D01*
X210485589Y-53337438D02*
X209628446Y-52194580D01*
X210485589Y-51337438D02*
X209342732Y-52480295D01*
X211342732Y-52575533D02*
X212866542Y-52575533D01*
X213818922Y-51337438D02*
X213818922Y-52956485D01*
X213818922Y-52956485D02*
X213914160Y-53146961D01*
X213914160Y-53146961D02*
X214009398Y-53242200D01*
X214009398Y-53242200D02*
X214199874Y-53337438D01*
X214199874Y-53337438D02*
X214580827Y-53337438D01*
X214580827Y-53337438D02*
X214771303Y-53242200D01*
X214771303Y-53242200D02*
X214866541Y-53146961D01*
X214866541Y-53146961D02*
X214961779Y-52956485D01*
X214961779Y-52956485D02*
X214961779Y-51337438D01*
X215914160Y-53337438D02*
X215914160Y-51337438D01*
X215914160Y-51337438D02*
X216676065Y-51337438D01*
X216676065Y-51337438D02*
X216866541Y-51432676D01*
X216866541Y-51432676D02*
X216961779Y-51527914D01*
X216961779Y-51527914D02*
X217057017Y-51718390D01*
X217057017Y-51718390D02*
X217057017Y-52004104D01*
X217057017Y-52004104D02*
X216961779Y-52194580D01*
X216961779Y-52194580D02*
X216866541Y-52289819D01*
X216866541Y-52289819D02*
X216676065Y-52385057D01*
X216676065Y-52385057D02*
X215914160Y-52385057D01*
X203247493Y-59777214D02*
X202104636Y-59777214D01*
X202676064Y-59777214D02*
X202676064Y-57777214D01*
X202676064Y-57777214D02*
X202485588Y-58062928D01*
X202485588Y-58062928D02*
X202295112Y-58253404D01*
X202295112Y-58253404D02*
X202104636Y-58348642D01*
X204104636Y-59586737D02*
X204199874Y-59681976D01*
X204199874Y-59681976D02*
X204104636Y-59777214D01*
X204104636Y-59777214D02*
X204009398Y-59681976D01*
X204009398Y-59681976D02*
X204104636Y-59586737D01*
X204104636Y-59586737D02*
X204104636Y-59777214D01*
X207247494Y-58729595D02*
X206580827Y-58729595D01*
X206580827Y-59777214D02*
X206580827Y-57777214D01*
X206580827Y-57777214D02*
X207533208Y-57777214D01*
X208295113Y-59586737D02*
X208390351Y-59681976D01*
X208390351Y-59681976D02*
X208295113Y-59777214D01*
X208295113Y-59777214D02*
X208199875Y-59681976D01*
X208199875Y-59681976D02*
X208295113Y-59586737D01*
X208295113Y-59586737D02*
X208295113Y-59777214D01*
X210390351Y-59586737D02*
X210295113Y-59681976D01*
X210295113Y-59681976D02*
X210009399Y-59777214D01*
X210009399Y-59777214D02*
X209818923Y-59777214D01*
X209818923Y-59777214D02*
X209533208Y-59681976D01*
X209533208Y-59681976D02*
X209342732Y-59491499D01*
X209342732Y-59491499D02*
X209247494Y-59301023D01*
X209247494Y-59301023D02*
X209152256Y-58920071D01*
X209152256Y-58920071D02*
X209152256Y-58634356D01*
X209152256Y-58634356D02*
X209247494Y-58253404D01*
X209247494Y-58253404D02*
X209342732Y-58062928D01*
X209342732Y-58062928D02*
X209533208Y-57872452D01*
X209533208Y-57872452D02*
X209818923Y-57777214D01*
X209818923Y-57777214D02*
X210009399Y-57777214D01*
X210009399Y-57777214D02*
X210295113Y-57872452D01*
X210295113Y-57872452D02*
X210390351Y-57967690D01*
X212104637Y-58443880D02*
X212104637Y-59777214D01*
X211247494Y-58443880D02*
X211247494Y-59491499D01*
X211247494Y-59491499D02*
X211342732Y-59681976D01*
X211342732Y-59681976D02*
X211533208Y-59777214D01*
X211533208Y-59777214D02*
X211818923Y-59777214D01*
X211818923Y-59777214D02*
X212009399Y-59681976D01*
X212009399Y-59681976D02*
X212104637Y-59586737D01*
X217628448Y-58443880D02*
X219152258Y-59015309D01*
X219152258Y-59015309D02*
X217628448Y-59586737D01*
X221533210Y-59681976D02*
X221818924Y-59777214D01*
X221818924Y-59777214D02*
X222295115Y-59777214D01*
X222295115Y-59777214D02*
X222485591Y-59681976D01*
X222485591Y-59681976D02*
X222580829Y-59586737D01*
X222580829Y-59586737D02*
X222676067Y-59396261D01*
X222676067Y-59396261D02*
X222676067Y-59205785D01*
X222676067Y-59205785D02*
X222580829Y-59015309D01*
X222580829Y-59015309D02*
X222485591Y-58920071D01*
X222485591Y-58920071D02*
X222295115Y-58824833D01*
X222295115Y-58824833D02*
X221914162Y-58729595D01*
X221914162Y-58729595D02*
X221723686Y-58634356D01*
X221723686Y-58634356D02*
X221628448Y-58539118D01*
X221628448Y-58539118D02*
X221533210Y-58348642D01*
X221533210Y-58348642D02*
X221533210Y-58158166D01*
X221533210Y-58158166D02*
X221628448Y-57967690D01*
X221628448Y-57967690D02*
X221723686Y-57872452D01*
X221723686Y-57872452D02*
X221914162Y-57777214D01*
X221914162Y-57777214D02*
X222390353Y-57777214D01*
X222390353Y-57777214D02*
X222676067Y-57872452D01*
X223533210Y-59777214D02*
X223533210Y-57777214D01*
X225533210Y-57872452D02*
X225342734Y-57777214D01*
X225342734Y-57777214D02*
X225057020Y-57777214D01*
X225057020Y-57777214D02*
X224771305Y-57872452D01*
X224771305Y-57872452D02*
X224580829Y-58062928D01*
X224580829Y-58062928D02*
X224485591Y-58253404D01*
X224485591Y-58253404D02*
X224390353Y-58634356D01*
X224390353Y-58634356D02*
X224390353Y-58920071D01*
X224390353Y-58920071D02*
X224485591Y-59301023D01*
X224485591Y-59301023D02*
X224580829Y-59491499D01*
X224580829Y-59491499D02*
X224771305Y-59681976D01*
X224771305Y-59681976D02*
X225057020Y-59777214D01*
X225057020Y-59777214D02*
X225247496Y-59777214D01*
X225247496Y-59777214D02*
X225533210Y-59681976D01*
X225533210Y-59681976D02*
X225628448Y-59586737D01*
X225628448Y-59586737D02*
X225628448Y-58920071D01*
X225628448Y-58920071D02*
X225247496Y-58920071D01*
X202104636Y-61187578D02*
X202199874Y-61092340D01*
X202199874Y-61092340D02*
X202390350Y-60997102D01*
X202390350Y-60997102D02*
X202866541Y-60997102D01*
X202866541Y-60997102D02*
X203057017Y-61092340D01*
X203057017Y-61092340D02*
X203152255Y-61187578D01*
X203152255Y-61187578D02*
X203247493Y-61378054D01*
X203247493Y-61378054D02*
X203247493Y-61568530D01*
X203247493Y-61568530D02*
X203152255Y-61854244D01*
X203152255Y-61854244D02*
X202009398Y-62997102D01*
X202009398Y-62997102D02*
X203247493Y-62997102D01*
X204104636Y-62806625D02*
X204199874Y-62901864D01*
X204199874Y-62901864D02*
X204104636Y-62997102D01*
X204104636Y-62997102D02*
X204009398Y-62901864D01*
X204009398Y-62901864D02*
X204104636Y-62806625D01*
X204104636Y-62806625D02*
X204104636Y-62997102D01*
X206580827Y-62997102D02*
X206580827Y-60997102D01*
X207533208Y-61663768D02*
X207533208Y-62997102D01*
X207533208Y-61854244D02*
X207628446Y-61759006D01*
X207628446Y-61759006D02*
X207818922Y-61663768D01*
X207818922Y-61663768D02*
X208104637Y-61663768D01*
X208104637Y-61663768D02*
X208295113Y-61759006D01*
X208295113Y-61759006D02*
X208390351Y-61949483D01*
X208390351Y-61949483D02*
X208390351Y-62997102D01*
X210390351Y-62997102D02*
X209247494Y-62997102D01*
X209818922Y-62997102D02*
X209818922Y-60997102D01*
X209818922Y-60997102D02*
X209628446Y-61282816D01*
X209628446Y-61282816D02*
X209437970Y-61473292D01*
X209437970Y-61473292D02*
X209247494Y-61568530D01*
X211247494Y-62806625D02*
X211342732Y-62901864D01*
X211342732Y-62901864D02*
X211247494Y-62997102D01*
X211247494Y-62997102D02*
X211152256Y-62901864D01*
X211152256Y-62901864D02*
X211247494Y-62806625D01*
X211247494Y-62806625D02*
X211247494Y-62997102D01*
X213342732Y-62806625D02*
X213247494Y-62901864D01*
X213247494Y-62901864D02*
X212961780Y-62997102D01*
X212961780Y-62997102D02*
X212771304Y-62997102D01*
X212771304Y-62997102D02*
X212485589Y-62901864D01*
X212485589Y-62901864D02*
X212295113Y-62711387D01*
X212295113Y-62711387D02*
X212199875Y-62520911D01*
X212199875Y-62520911D02*
X212104637Y-62139959D01*
X212104637Y-62139959D02*
X212104637Y-61854244D01*
X212104637Y-61854244D02*
X212199875Y-61473292D01*
X212199875Y-61473292D02*
X212295113Y-61282816D01*
X212295113Y-61282816D02*
X212485589Y-61092340D01*
X212485589Y-61092340D02*
X212771304Y-60997102D01*
X212771304Y-60997102D02*
X212961780Y-60997102D01*
X212961780Y-60997102D02*
X213247494Y-61092340D01*
X213247494Y-61092340D02*
X213342732Y-61187578D01*
X215057018Y-61663768D02*
X215057018Y-62997102D01*
X214199875Y-61663768D02*
X214199875Y-62711387D01*
X214199875Y-62711387D02*
X214295113Y-62901864D01*
X214295113Y-62901864D02*
X214485589Y-62997102D01*
X214485589Y-62997102D02*
X214771304Y-62997102D01*
X214771304Y-62997102D02*
X214961780Y-62901864D01*
X214961780Y-62901864D02*
X215057018Y-62806625D01*
X217533209Y-61663768D02*
X219057019Y-62235197D01*
X219057019Y-62235197D02*
X217533209Y-62806625D01*
X222580828Y-61092340D02*
X222390352Y-60997102D01*
X222390352Y-60997102D02*
X222104638Y-60997102D01*
X222104638Y-60997102D02*
X221818923Y-61092340D01*
X221818923Y-61092340D02*
X221628447Y-61282816D01*
X221628447Y-61282816D02*
X221533209Y-61473292D01*
X221533209Y-61473292D02*
X221437971Y-61854244D01*
X221437971Y-61854244D02*
X221437971Y-62139959D01*
X221437971Y-62139959D02*
X221533209Y-62520911D01*
X221533209Y-62520911D02*
X221628447Y-62711387D01*
X221628447Y-62711387D02*
X221818923Y-62901864D01*
X221818923Y-62901864D02*
X222104638Y-62997102D01*
X222104638Y-62997102D02*
X222295114Y-62997102D01*
X222295114Y-62997102D02*
X222580828Y-62901864D01*
X222580828Y-62901864D02*
X222676066Y-62806625D01*
X222676066Y-62806625D02*
X222676066Y-62139959D01*
X222676066Y-62139959D02*
X222295114Y-62139959D01*
X223533209Y-62997102D02*
X223533209Y-60997102D01*
X223533209Y-60997102D02*
X224676066Y-62997102D01*
X224676066Y-62997102D02*
X224676066Y-60997102D01*
X225628447Y-62997102D02*
X225628447Y-60997102D01*
X225628447Y-60997102D02*
X226104637Y-60997102D01*
X226104637Y-60997102D02*
X226390352Y-61092340D01*
X226390352Y-61092340D02*
X226580828Y-61282816D01*
X226580828Y-61282816D02*
X226676066Y-61473292D01*
X226676066Y-61473292D02*
X226771304Y-61854244D01*
X226771304Y-61854244D02*
X226771304Y-62139959D01*
X226771304Y-62139959D02*
X226676066Y-62520911D01*
X226676066Y-62520911D02*
X226580828Y-62711387D01*
X226580828Y-62711387D02*
X226390352Y-62901864D01*
X226390352Y-62901864D02*
X226104637Y-62997102D01*
X226104637Y-62997102D02*
X225628447Y-62997102D01*
X202009398Y-64216990D02*
X203247493Y-64216990D01*
X203247493Y-64216990D02*
X202580826Y-64978894D01*
X202580826Y-64978894D02*
X202866541Y-64978894D01*
X202866541Y-64978894D02*
X203057017Y-65074132D01*
X203057017Y-65074132D02*
X203152255Y-65169371D01*
X203152255Y-65169371D02*
X203247493Y-65359847D01*
X203247493Y-65359847D02*
X203247493Y-65836037D01*
X203247493Y-65836037D02*
X203152255Y-66026513D01*
X203152255Y-66026513D02*
X203057017Y-66121752D01*
X203057017Y-66121752D02*
X202866541Y-66216990D01*
X202866541Y-66216990D02*
X202295112Y-66216990D01*
X202295112Y-66216990D02*
X202104636Y-66121752D01*
X202104636Y-66121752D02*
X202009398Y-66026513D01*
X204104636Y-66026513D02*
X204199874Y-66121752D01*
X204199874Y-66121752D02*
X204104636Y-66216990D01*
X204104636Y-66216990D02*
X204009398Y-66121752D01*
X204009398Y-66121752D02*
X204104636Y-66026513D01*
X204104636Y-66026513D02*
X204104636Y-66216990D01*
X206580827Y-66216990D02*
X206580827Y-64216990D01*
X207533208Y-64883656D02*
X207533208Y-66216990D01*
X207533208Y-65074132D02*
X207628446Y-64978894D01*
X207628446Y-64978894D02*
X207818922Y-64883656D01*
X207818922Y-64883656D02*
X208104637Y-64883656D01*
X208104637Y-64883656D02*
X208295113Y-64978894D01*
X208295113Y-64978894D02*
X208390351Y-65169371D01*
X208390351Y-65169371D02*
X208390351Y-66216990D01*
X209247494Y-64407466D02*
X209342732Y-64312228D01*
X209342732Y-64312228D02*
X209533208Y-64216990D01*
X209533208Y-64216990D02*
X210009399Y-64216990D01*
X210009399Y-64216990D02*
X210199875Y-64312228D01*
X210199875Y-64312228D02*
X210295113Y-64407466D01*
X210295113Y-64407466D02*
X210390351Y-64597942D01*
X210390351Y-64597942D02*
X210390351Y-64788418D01*
X210390351Y-64788418D02*
X210295113Y-65074132D01*
X210295113Y-65074132D02*
X209152256Y-66216990D01*
X209152256Y-66216990D02*
X210390351Y-66216990D01*
X211247494Y-66026513D02*
X211342732Y-66121752D01*
X211342732Y-66121752D02*
X211247494Y-66216990D01*
X211247494Y-66216990D02*
X211152256Y-66121752D01*
X211152256Y-66121752D02*
X211247494Y-66026513D01*
X211247494Y-66026513D02*
X211247494Y-66216990D01*
X213342732Y-66026513D02*
X213247494Y-66121752D01*
X213247494Y-66121752D02*
X212961780Y-66216990D01*
X212961780Y-66216990D02*
X212771304Y-66216990D01*
X212771304Y-66216990D02*
X212485589Y-66121752D01*
X212485589Y-66121752D02*
X212295113Y-65931275D01*
X212295113Y-65931275D02*
X212199875Y-65740799D01*
X212199875Y-65740799D02*
X212104637Y-65359847D01*
X212104637Y-65359847D02*
X212104637Y-65074132D01*
X212104637Y-65074132D02*
X212199875Y-64693180D01*
X212199875Y-64693180D02*
X212295113Y-64502704D01*
X212295113Y-64502704D02*
X212485589Y-64312228D01*
X212485589Y-64312228D02*
X212771304Y-64216990D01*
X212771304Y-64216990D02*
X212961780Y-64216990D01*
X212961780Y-64216990D02*
X213247494Y-64312228D01*
X213247494Y-64312228D02*
X213342732Y-64407466D01*
X215057018Y-64883656D02*
X215057018Y-66216990D01*
X214199875Y-64883656D02*
X214199875Y-65931275D01*
X214199875Y-65931275D02*
X214295113Y-66121752D01*
X214295113Y-66121752D02*
X214485589Y-66216990D01*
X214485589Y-66216990D02*
X214771304Y-66216990D01*
X214771304Y-66216990D02*
X214961780Y-66121752D01*
X214961780Y-66121752D02*
X215057018Y-66026513D01*
X217533209Y-64883656D02*
X219057019Y-65455085D01*
X219057019Y-65455085D02*
X217533209Y-66026513D01*
X221437971Y-66121752D02*
X221723685Y-66216990D01*
X221723685Y-66216990D02*
X222199876Y-66216990D01*
X222199876Y-66216990D02*
X222390352Y-66121752D01*
X222390352Y-66121752D02*
X222485590Y-66026513D01*
X222485590Y-66026513D02*
X222580828Y-65836037D01*
X222580828Y-65836037D02*
X222580828Y-65645561D01*
X222580828Y-65645561D02*
X222485590Y-65455085D01*
X222485590Y-65455085D02*
X222390352Y-65359847D01*
X222390352Y-65359847D02*
X222199876Y-65264609D01*
X222199876Y-65264609D02*
X221818923Y-65169371D01*
X221818923Y-65169371D02*
X221628447Y-65074132D01*
X221628447Y-65074132D02*
X221533209Y-64978894D01*
X221533209Y-64978894D02*
X221437971Y-64788418D01*
X221437971Y-64788418D02*
X221437971Y-64597942D01*
X221437971Y-64597942D02*
X221533209Y-64407466D01*
X221533209Y-64407466D02*
X221628447Y-64312228D01*
X221628447Y-64312228D02*
X221818923Y-64216990D01*
X221818923Y-64216990D02*
X222295114Y-64216990D01*
X222295114Y-64216990D02*
X222580828Y-64312228D01*
X223437971Y-66216990D02*
X223437971Y-64216990D01*
X225437971Y-64312228D02*
X225247495Y-64216990D01*
X225247495Y-64216990D02*
X224961781Y-64216990D01*
X224961781Y-64216990D02*
X224676066Y-64312228D01*
X224676066Y-64312228D02*
X224485590Y-64502704D01*
X224485590Y-64502704D02*
X224390352Y-64693180D01*
X224390352Y-64693180D02*
X224295114Y-65074132D01*
X224295114Y-65074132D02*
X224295114Y-65359847D01*
X224295114Y-65359847D02*
X224390352Y-65740799D01*
X224390352Y-65740799D02*
X224485590Y-65931275D01*
X224485590Y-65931275D02*
X224676066Y-66121752D01*
X224676066Y-66121752D02*
X224961781Y-66216990D01*
X224961781Y-66216990D02*
X225152257Y-66216990D01*
X225152257Y-66216990D02*
X225437971Y-66121752D01*
X225437971Y-66121752D02*
X225533209Y-66026513D01*
X225533209Y-66026513D02*
X225533209Y-65359847D01*
X225533209Y-65359847D02*
X225152257Y-65359847D01*
X203057017Y-68103544D02*
X203057017Y-69436878D01*
X202580826Y-67341640D02*
X202104636Y-68770211D01*
X202104636Y-68770211D02*
X203342731Y-68770211D01*
X204104636Y-69246401D02*
X204199874Y-69341640D01*
X204199874Y-69341640D02*
X204104636Y-69436878D01*
X204104636Y-69436878D02*
X204009398Y-69341640D01*
X204009398Y-69341640D02*
X204104636Y-69246401D01*
X204104636Y-69246401D02*
X204104636Y-69436878D01*
X206580827Y-69436878D02*
X206580827Y-67436878D01*
X207533208Y-68103544D02*
X207533208Y-69436878D01*
X207533208Y-68294020D02*
X207628446Y-68198782D01*
X207628446Y-68198782D02*
X207818922Y-68103544D01*
X207818922Y-68103544D02*
X208104637Y-68103544D01*
X208104637Y-68103544D02*
X208295113Y-68198782D01*
X208295113Y-68198782D02*
X208390351Y-68389259D01*
X208390351Y-68389259D02*
X208390351Y-69436878D01*
X209152256Y-67436878D02*
X210390351Y-67436878D01*
X210390351Y-67436878D02*
X209723684Y-68198782D01*
X209723684Y-68198782D02*
X210009399Y-68198782D01*
X210009399Y-68198782D02*
X210199875Y-68294020D01*
X210199875Y-68294020D02*
X210295113Y-68389259D01*
X210295113Y-68389259D02*
X210390351Y-68579735D01*
X210390351Y-68579735D02*
X210390351Y-69055925D01*
X210390351Y-69055925D02*
X210295113Y-69246401D01*
X210295113Y-69246401D02*
X210199875Y-69341640D01*
X210199875Y-69341640D02*
X210009399Y-69436878D01*
X210009399Y-69436878D02*
X209437970Y-69436878D01*
X209437970Y-69436878D02*
X209247494Y-69341640D01*
X209247494Y-69341640D02*
X209152256Y-69246401D01*
X211247494Y-69246401D02*
X211342732Y-69341640D01*
X211342732Y-69341640D02*
X211247494Y-69436878D01*
X211247494Y-69436878D02*
X211152256Y-69341640D01*
X211152256Y-69341640D02*
X211247494Y-69246401D01*
X211247494Y-69246401D02*
X211247494Y-69436878D01*
X213342732Y-69246401D02*
X213247494Y-69341640D01*
X213247494Y-69341640D02*
X212961780Y-69436878D01*
X212961780Y-69436878D02*
X212771304Y-69436878D01*
X212771304Y-69436878D02*
X212485589Y-69341640D01*
X212485589Y-69341640D02*
X212295113Y-69151163D01*
X212295113Y-69151163D02*
X212199875Y-68960687D01*
X212199875Y-68960687D02*
X212104637Y-68579735D01*
X212104637Y-68579735D02*
X212104637Y-68294020D01*
X212104637Y-68294020D02*
X212199875Y-67913068D01*
X212199875Y-67913068D02*
X212295113Y-67722592D01*
X212295113Y-67722592D02*
X212485589Y-67532116D01*
X212485589Y-67532116D02*
X212771304Y-67436878D01*
X212771304Y-67436878D02*
X212961780Y-67436878D01*
X212961780Y-67436878D02*
X213247494Y-67532116D01*
X213247494Y-67532116D02*
X213342732Y-67627354D01*
X215057018Y-68103544D02*
X215057018Y-69436878D01*
X214199875Y-68103544D02*
X214199875Y-69151163D01*
X214199875Y-69151163D02*
X214295113Y-69341640D01*
X214295113Y-69341640D02*
X214485589Y-69436878D01*
X214485589Y-69436878D02*
X214771304Y-69436878D01*
X214771304Y-69436878D02*
X214961780Y-69341640D01*
X214961780Y-69341640D02*
X215057018Y-69246401D01*
X217533209Y-68103544D02*
X219057019Y-68674973D01*
X219057019Y-68674973D02*
X217533209Y-69246401D01*
X221533209Y-69436878D02*
X221533209Y-67436878D01*
X221533209Y-67436878D02*
X222295114Y-67436878D01*
X222295114Y-67436878D02*
X222485590Y-67532116D01*
X222485590Y-67532116D02*
X222580828Y-67627354D01*
X222580828Y-67627354D02*
X222676066Y-67817830D01*
X222676066Y-67817830D02*
X222676066Y-68103544D01*
X222676066Y-68103544D02*
X222580828Y-68294020D01*
X222580828Y-68294020D02*
X222485590Y-68389259D01*
X222485590Y-68389259D02*
X222295114Y-68484497D01*
X222295114Y-68484497D02*
X221533209Y-68484497D01*
X223342733Y-67436878D02*
X223818923Y-69436878D01*
X223818923Y-69436878D02*
X224199876Y-68008306D01*
X224199876Y-68008306D02*
X224580828Y-69436878D01*
X224580828Y-69436878D02*
X225057019Y-67436878D01*
X226961780Y-69436878D02*
X226295113Y-68484497D01*
X225818923Y-69436878D02*
X225818923Y-67436878D01*
X225818923Y-67436878D02*
X226580828Y-67436878D01*
X226580828Y-67436878D02*
X226771304Y-67532116D01*
X226771304Y-67532116D02*
X226866542Y-67627354D01*
X226866542Y-67627354D02*
X226961780Y-67817830D01*
X226961780Y-67817830D02*
X226961780Y-68103544D01*
X226961780Y-68103544D02*
X226866542Y-68294020D01*
X226866542Y-68294020D02*
X226771304Y-68389259D01*
X226771304Y-68389259D02*
X226580828Y-68484497D01*
X226580828Y-68484497D02*
X225818923Y-68484497D01*
X203152255Y-70656766D02*
X202199874Y-70656766D01*
X202199874Y-70656766D02*
X202104636Y-71609147D01*
X202104636Y-71609147D02*
X202199874Y-71513908D01*
X202199874Y-71513908D02*
X202390350Y-71418670D01*
X202390350Y-71418670D02*
X202866541Y-71418670D01*
X202866541Y-71418670D02*
X203057017Y-71513908D01*
X203057017Y-71513908D02*
X203152255Y-71609147D01*
X203152255Y-71609147D02*
X203247493Y-71799623D01*
X203247493Y-71799623D02*
X203247493Y-72275813D01*
X203247493Y-72275813D02*
X203152255Y-72466289D01*
X203152255Y-72466289D02*
X203057017Y-72561528D01*
X203057017Y-72561528D02*
X202866541Y-72656766D01*
X202866541Y-72656766D02*
X202390350Y-72656766D01*
X202390350Y-72656766D02*
X202199874Y-72561528D01*
X202199874Y-72561528D02*
X202104636Y-72466289D01*
X204104636Y-72466289D02*
X204199874Y-72561528D01*
X204199874Y-72561528D02*
X204104636Y-72656766D01*
X204104636Y-72656766D02*
X204009398Y-72561528D01*
X204009398Y-72561528D02*
X204104636Y-72466289D01*
X204104636Y-72466289D02*
X204104636Y-72656766D01*
X206580827Y-72656766D02*
X206580827Y-70656766D01*
X207533208Y-71323432D02*
X207533208Y-72656766D01*
X207533208Y-71513908D02*
X207628446Y-71418670D01*
X207628446Y-71418670D02*
X207818922Y-71323432D01*
X207818922Y-71323432D02*
X208104637Y-71323432D01*
X208104637Y-71323432D02*
X208295113Y-71418670D01*
X208295113Y-71418670D02*
X208390351Y-71609147D01*
X208390351Y-71609147D02*
X208390351Y-72656766D01*
X210199875Y-71323432D02*
X210199875Y-72656766D01*
X209723684Y-70561528D02*
X209247494Y-71990099D01*
X209247494Y-71990099D02*
X210485589Y-71990099D01*
X211247494Y-72466289D02*
X211342732Y-72561528D01*
X211342732Y-72561528D02*
X211247494Y-72656766D01*
X211247494Y-72656766D02*
X211152256Y-72561528D01*
X211152256Y-72561528D02*
X211247494Y-72466289D01*
X211247494Y-72466289D02*
X211247494Y-72656766D01*
X213342732Y-72466289D02*
X213247494Y-72561528D01*
X213247494Y-72561528D02*
X212961780Y-72656766D01*
X212961780Y-72656766D02*
X212771304Y-72656766D01*
X212771304Y-72656766D02*
X212485589Y-72561528D01*
X212485589Y-72561528D02*
X212295113Y-72371051D01*
X212295113Y-72371051D02*
X212199875Y-72180575D01*
X212199875Y-72180575D02*
X212104637Y-71799623D01*
X212104637Y-71799623D02*
X212104637Y-71513908D01*
X212104637Y-71513908D02*
X212199875Y-71132956D01*
X212199875Y-71132956D02*
X212295113Y-70942480D01*
X212295113Y-70942480D02*
X212485589Y-70752004D01*
X212485589Y-70752004D02*
X212771304Y-70656766D01*
X212771304Y-70656766D02*
X212961780Y-70656766D01*
X212961780Y-70656766D02*
X213247494Y-70752004D01*
X213247494Y-70752004D02*
X213342732Y-70847242D01*
X215057018Y-71323432D02*
X215057018Y-72656766D01*
X214199875Y-71323432D02*
X214199875Y-72371051D01*
X214199875Y-72371051D02*
X214295113Y-72561528D01*
X214295113Y-72561528D02*
X214485589Y-72656766D01*
X214485589Y-72656766D02*
X214771304Y-72656766D01*
X214771304Y-72656766D02*
X214961780Y-72561528D01*
X214961780Y-72561528D02*
X215057018Y-72466289D01*
X217533209Y-71323432D02*
X219057019Y-71894861D01*
X219057019Y-71894861D02*
X217533209Y-72466289D01*
X222580828Y-70752004D02*
X222390352Y-70656766D01*
X222390352Y-70656766D02*
X222104638Y-70656766D01*
X222104638Y-70656766D02*
X221818923Y-70752004D01*
X221818923Y-70752004D02*
X221628447Y-70942480D01*
X221628447Y-70942480D02*
X221533209Y-71132956D01*
X221533209Y-71132956D02*
X221437971Y-71513908D01*
X221437971Y-71513908D02*
X221437971Y-71799623D01*
X221437971Y-71799623D02*
X221533209Y-72180575D01*
X221533209Y-72180575D02*
X221628447Y-72371051D01*
X221628447Y-72371051D02*
X221818923Y-72561528D01*
X221818923Y-72561528D02*
X222104638Y-72656766D01*
X222104638Y-72656766D02*
X222295114Y-72656766D01*
X222295114Y-72656766D02*
X222580828Y-72561528D01*
X222580828Y-72561528D02*
X222676066Y-72466289D01*
X222676066Y-72466289D02*
X222676066Y-71799623D01*
X222676066Y-71799623D02*
X222295114Y-71799623D01*
X223533209Y-72656766D02*
X223533209Y-70656766D01*
X223533209Y-70656766D02*
X224676066Y-72656766D01*
X224676066Y-72656766D02*
X224676066Y-70656766D01*
X225628447Y-72656766D02*
X225628447Y-70656766D01*
X225628447Y-70656766D02*
X226104637Y-70656766D01*
X226104637Y-70656766D02*
X226390352Y-70752004D01*
X226390352Y-70752004D02*
X226580828Y-70942480D01*
X226580828Y-70942480D02*
X226676066Y-71132956D01*
X226676066Y-71132956D02*
X226771304Y-71513908D01*
X226771304Y-71513908D02*
X226771304Y-71799623D01*
X226771304Y-71799623D02*
X226676066Y-72180575D01*
X226676066Y-72180575D02*
X226580828Y-72371051D01*
X226580828Y-72371051D02*
X226390352Y-72561528D01*
X226390352Y-72561528D02*
X226104637Y-72656766D01*
X226104637Y-72656766D02*
X225628447Y-72656766D01*
X203057017Y-73876654D02*
X202676064Y-73876654D01*
X202676064Y-73876654D02*
X202485588Y-73971892D01*
X202485588Y-73971892D02*
X202390350Y-74067130D01*
X202390350Y-74067130D02*
X202199874Y-74352844D01*
X202199874Y-74352844D02*
X202104636Y-74733796D01*
X202104636Y-74733796D02*
X202104636Y-75495701D01*
X202104636Y-75495701D02*
X202199874Y-75686177D01*
X202199874Y-75686177D02*
X202295112Y-75781416D01*
X202295112Y-75781416D02*
X202485588Y-75876654D01*
X202485588Y-75876654D02*
X202866541Y-75876654D01*
X202866541Y-75876654D02*
X203057017Y-75781416D01*
X203057017Y-75781416D02*
X203152255Y-75686177D01*
X203152255Y-75686177D02*
X203247493Y-75495701D01*
X203247493Y-75495701D02*
X203247493Y-75019511D01*
X203247493Y-75019511D02*
X203152255Y-74829035D01*
X203152255Y-74829035D02*
X203057017Y-74733796D01*
X203057017Y-74733796D02*
X202866541Y-74638558D01*
X202866541Y-74638558D02*
X202485588Y-74638558D01*
X202485588Y-74638558D02*
X202295112Y-74733796D01*
X202295112Y-74733796D02*
X202199874Y-74829035D01*
X202199874Y-74829035D02*
X202104636Y-75019511D01*
X204104636Y-75686177D02*
X204199874Y-75781416D01*
X204199874Y-75781416D02*
X204104636Y-75876654D01*
X204104636Y-75876654D02*
X204009398Y-75781416D01*
X204009398Y-75781416D02*
X204104636Y-75686177D01*
X204104636Y-75686177D02*
X204104636Y-75876654D01*
X207247494Y-74829035D02*
X207533208Y-74924273D01*
X207533208Y-74924273D02*
X207628446Y-75019511D01*
X207628446Y-75019511D02*
X207723684Y-75209987D01*
X207723684Y-75209987D02*
X207723684Y-75495701D01*
X207723684Y-75495701D02*
X207628446Y-75686177D01*
X207628446Y-75686177D02*
X207533208Y-75781416D01*
X207533208Y-75781416D02*
X207342732Y-75876654D01*
X207342732Y-75876654D02*
X206580827Y-75876654D01*
X206580827Y-75876654D02*
X206580827Y-73876654D01*
X206580827Y-73876654D02*
X207247494Y-73876654D01*
X207247494Y-73876654D02*
X207437970Y-73971892D01*
X207437970Y-73971892D02*
X207533208Y-74067130D01*
X207533208Y-74067130D02*
X207628446Y-74257606D01*
X207628446Y-74257606D02*
X207628446Y-74448082D01*
X207628446Y-74448082D02*
X207533208Y-74638558D01*
X207533208Y-74638558D02*
X207437970Y-74733796D01*
X207437970Y-74733796D02*
X207247494Y-74829035D01*
X207247494Y-74829035D02*
X206580827Y-74829035D01*
X208580827Y-75686177D02*
X208676065Y-75781416D01*
X208676065Y-75781416D02*
X208580827Y-75876654D01*
X208580827Y-75876654D02*
X208485589Y-75781416D01*
X208485589Y-75781416D02*
X208580827Y-75686177D01*
X208580827Y-75686177D02*
X208580827Y-75876654D01*
X210676065Y-75686177D02*
X210580827Y-75781416D01*
X210580827Y-75781416D02*
X210295113Y-75876654D01*
X210295113Y-75876654D02*
X210104637Y-75876654D01*
X210104637Y-75876654D02*
X209818922Y-75781416D01*
X209818922Y-75781416D02*
X209628446Y-75590939D01*
X209628446Y-75590939D02*
X209533208Y-75400463D01*
X209533208Y-75400463D02*
X209437970Y-75019511D01*
X209437970Y-75019511D02*
X209437970Y-74733796D01*
X209437970Y-74733796D02*
X209533208Y-74352844D01*
X209533208Y-74352844D02*
X209628446Y-74162368D01*
X209628446Y-74162368D02*
X209818922Y-73971892D01*
X209818922Y-73971892D02*
X210104637Y-73876654D01*
X210104637Y-73876654D02*
X210295113Y-73876654D01*
X210295113Y-73876654D02*
X210580827Y-73971892D01*
X210580827Y-73971892D02*
X210676065Y-74067130D01*
X212390351Y-74543320D02*
X212390351Y-75876654D01*
X211533208Y-74543320D02*
X211533208Y-75590939D01*
X211533208Y-75590939D02*
X211628446Y-75781416D01*
X211628446Y-75781416D02*
X211818922Y-75876654D01*
X211818922Y-75876654D02*
X212104637Y-75876654D01*
X212104637Y-75876654D02*
X212295113Y-75781416D01*
X212295113Y-75781416D02*
X212390351Y-75686177D01*
X217914162Y-74543320D02*
X219437972Y-75114749D01*
X219437972Y-75114749D02*
X217914162Y-75686177D01*
X221818924Y-75781416D02*
X222104638Y-75876654D01*
X222104638Y-75876654D02*
X222580829Y-75876654D01*
X222580829Y-75876654D02*
X222771305Y-75781416D01*
X222771305Y-75781416D02*
X222866543Y-75686177D01*
X222866543Y-75686177D02*
X222961781Y-75495701D01*
X222961781Y-75495701D02*
X222961781Y-75305225D01*
X222961781Y-75305225D02*
X222866543Y-75114749D01*
X222866543Y-75114749D02*
X222771305Y-75019511D01*
X222771305Y-75019511D02*
X222580829Y-74924273D01*
X222580829Y-74924273D02*
X222199876Y-74829035D01*
X222199876Y-74829035D02*
X222009400Y-74733796D01*
X222009400Y-74733796D02*
X221914162Y-74638558D01*
X221914162Y-74638558D02*
X221818924Y-74448082D01*
X221818924Y-74448082D02*
X221818924Y-74257606D01*
X221818924Y-74257606D02*
X221914162Y-74067130D01*
X221914162Y-74067130D02*
X222009400Y-73971892D01*
X222009400Y-73971892D02*
X222199876Y-73876654D01*
X222199876Y-73876654D02*
X222676067Y-73876654D01*
X222676067Y-73876654D02*
X222961781Y-73971892D01*
X223818924Y-75876654D02*
X223818924Y-73876654D01*
X225818924Y-73971892D02*
X225628448Y-73876654D01*
X225628448Y-73876654D02*
X225342734Y-73876654D01*
X225342734Y-73876654D02*
X225057019Y-73971892D01*
X225057019Y-73971892D02*
X224866543Y-74162368D01*
X224866543Y-74162368D02*
X224771305Y-74352844D01*
X224771305Y-74352844D02*
X224676067Y-74733796D01*
X224676067Y-74733796D02*
X224676067Y-75019511D01*
X224676067Y-75019511D02*
X224771305Y-75400463D01*
X224771305Y-75400463D02*
X224866543Y-75590939D01*
X224866543Y-75590939D02*
X225057019Y-75781416D01*
X225057019Y-75781416D02*
X225342734Y-75876654D01*
X225342734Y-75876654D02*
X225533210Y-75876654D01*
X225533210Y-75876654D02*
X225818924Y-75781416D01*
X225818924Y-75781416D02*
X225914162Y-75686177D01*
X225914162Y-75686177D02*
X225914162Y-75019511D01*
X225914162Y-75019511D02*
X225533210Y-75019511D01*
D11*
X200125000Y-49750000D02*
X239375000Y-49750000D01*
X239375000Y-79250000D01*
X200125000Y-79250000D01*
X200125000Y-49750000D01*
D10*
X170833333Y-38554819D02*
X170357143Y-38554819D01*
X170357143Y-38554819D02*
X170309524Y-39031009D01*
X170309524Y-39031009D02*
X170357143Y-38983390D01*
X170357143Y-38983390D02*
X170452381Y-38935771D01*
X170452381Y-38935771D02*
X170690476Y-38935771D01*
X170690476Y-38935771D02*
X170785714Y-38983390D01*
X170785714Y-38983390D02*
X170833333Y-39031009D01*
X170833333Y-39031009D02*
X170880952Y-39126247D01*
X170880952Y-39126247D02*
X170880952Y-39364342D01*
X170880952Y-39364342D02*
X170833333Y-39459580D01*
X170833333Y-39459580D02*
X170785714Y-39507200D01*
X170785714Y-39507200D02*
X170690476Y-39554819D01*
X170690476Y-39554819D02*
X170452381Y-39554819D01*
X170452381Y-39554819D02*
X170357143Y-39507200D01*
X170357143Y-39507200D02*
X170309524Y-39459580D01*
X171500000Y-38554819D02*
X171595238Y-38554819D01*
X171595238Y-38554819D02*
X171690476Y-38602438D01*
X171690476Y-38602438D02*
X171738095Y-38650057D01*
X171738095Y-38650057D02*
X171785714Y-38745295D01*
X171785714Y-38745295D02*
X171833333Y-38935771D01*
X171833333Y-38935771D02*
X171833333Y-39173866D01*
X171833333Y-39173866D02*
X171785714Y-39364342D01*
X171785714Y-39364342D02*
X171738095Y-39459580D01*
X171738095Y-39459580D02*
X171690476Y-39507200D01*
X171690476Y-39507200D02*
X171595238Y-39554819D01*
X171595238Y-39554819D02*
X171500000Y-39554819D01*
X171500000Y-39554819D02*
X171404762Y-39507200D01*
X171404762Y-39507200D02*
X171357143Y-39459580D01*
X171357143Y-39459580D02*
X171309524Y-39364342D01*
X171309524Y-39364342D02*
X171261905Y-39173866D01*
X171261905Y-39173866D02*
X171261905Y-38935771D01*
X171261905Y-38935771D02*
X171309524Y-38745295D01*
X171309524Y-38745295D02*
X171357143Y-38650057D01*
X171357143Y-38650057D02*
X171404762Y-38602438D01*
X171404762Y-38602438D02*
X171500000Y-38554819D01*
X172261905Y-39459580D02*
X172309524Y-39507200D01*
X172309524Y-39507200D02*
X172261905Y-39554819D01*
X172261905Y-39554819D02*
X172214286Y-39507200D01*
X172214286Y-39507200D02*
X172261905Y-39459580D01*
X172261905Y-39459580D02*
X172261905Y-39554819D01*
X172928571Y-38554819D02*
X173023809Y-38554819D01*
X173023809Y-38554819D02*
X173119047Y-38602438D01*
X173119047Y-38602438D02*
X173166666Y-38650057D01*
X173166666Y-38650057D02*
X173214285Y-38745295D01*
X173214285Y-38745295D02*
X173261904Y-38935771D01*
X173261904Y-38935771D02*
X173261904Y-39173866D01*
X173261904Y-39173866D02*
X173214285Y-39364342D01*
X173214285Y-39364342D02*
X173166666Y-39459580D01*
X173166666Y-39459580D02*
X173119047Y-39507200D01*
X173119047Y-39507200D02*
X173023809Y-39554819D01*
X173023809Y-39554819D02*
X172928571Y-39554819D01*
X172928571Y-39554819D02*
X172833333Y-39507200D01*
X172833333Y-39507200D02*
X172785714Y-39459580D01*
X172785714Y-39459580D02*
X172738095Y-39364342D01*
X172738095Y-39364342D02*
X172690476Y-39173866D01*
X172690476Y-39173866D02*
X172690476Y-38935771D01*
X172690476Y-38935771D02*
X172738095Y-38745295D01*
X172738095Y-38745295D02*
X172785714Y-38650057D01*
X172785714Y-38650057D02*
X172833333Y-38602438D01*
X172833333Y-38602438D02*
X172928571Y-38554819D01*
X174452381Y-39554819D02*
X174452381Y-38888152D01*
X174452381Y-38983390D02*
X174500000Y-38935771D01*
X174500000Y-38935771D02*
X174595238Y-38888152D01*
X174595238Y-38888152D02*
X174738095Y-38888152D01*
X174738095Y-38888152D02*
X174833333Y-38935771D01*
X174833333Y-38935771D02*
X174880952Y-39031009D01*
X174880952Y-39031009D02*
X174880952Y-39554819D01*
X174880952Y-39031009D02*
X174928571Y-38935771D01*
X174928571Y-38935771D02*
X175023809Y-38888152D01*
X175023809Y-38888152D02*
X175166666Y-38888152D01*
X175166666Y-38888152D02*
X175261905Y-38935771D01*
X175261905Y-38935771D02*
X175309524Y-39031009D01*
X175309524Y-39031009D02*
X175309524Y-39554819D01*
X175785714Y-39554819D02*
X175785714Y-38888152D01*
X175785714Y-38983390D02*
X175833333Y-38935771D01*
X175833333Y-38935771D02*
X175928571Y-38888152D01*
X175928571Y-38888152D02*
X176071428Y-38888152D01*
X176071428Y-38888152D02*
X176166666Y-38935771D01*
X176166666Y-38935771D02*
X176214285Y-39031009D01*
X176214285Y-39031009D02*
X176214285Y-39554819D01*
X176214285Y-39031009D02*
X176261904Y-38935771D01*
X176261904Y-38935771D02*
X176357142Y-38888152D01*
X176357142Y-38888152D02*
X176499999Y-38888152D01*
X176499999Y-38888152D02*
X176595238Y-38935771D01*
X176595238Y-38935771D02*
X176642857Y-39031009D01*
X176642857Y-39031009D02*
X176642857Y-39554819D01*
X148500000Y-84500000D02*
X148500000Y-39663580D01*
X198500000Y-84500000D02*
X198500000Y-39663580D01*
X148500000Y-40250000D02*
X198500000Y-40250000D01*
X148500000Y-40250000D02*
X198500000Y-40250000D01*
X148500000Y-40250000D02*
X149626504Y-39663579D01*
X148500000Y-40250000D02*
X149626504Y-40836421D01*
X198500000Y-40250000D02*
X197373496Y-40836421D01*
X198500000Y-40250000D02*
X197373496Y-39663579D01*
X58880953Y-25400057D02*
X58928572Y-25352438D01*
X58928572Y-25352438D02*
X59023810Y-25304819D01*
X59023810Y-25304819D02*
X59261905Y-25304819D01*
X59261905Y-25304819D02*
X59357143Y-25352438D01*
X59357143Y-25352438D02*
X59404762Y-25400057D01*
X59404762Y-25400057D02*
X59452381Y-25495295D01*
X59452381Y-25495295D02*
X59452381Y-25590533D01*
X59452381Y-25590533D02*
X59404762Y-25733390D01*
X59404762Y-25733390D02*
X58833334Y-26304819D01*
X58833334Y-26304819D02*
X59452381Y-26304819D01*
X59785715Y-25304819D02*
X60452381Y-25304819D01*
X60452381Y-25304819D02*
X60023810Y-26304819D01*
X60833334Y-26209580D02*
X60880953Y-26257200D01*
X60880953Y-26257200D02*
X60833334Y-26304819D01*
X60833334Y-26304819D02*
X60785715Y-26257200D01*
X60785715Y-26257200D02*
X60833334Y-26209580D01*
X60833334Y-26209580D02*
X60833334Y-26304819D01*
X61500000Y-25304819D02*
X61595238Y-25304819D01*
X61595238Y-25304819D02*
X61690476Y-25352438D01*
X61690476Y-25352438D02*
X61738095Y-25400057D01*
X61738095Y-25400057D02*
X61785714Y-25495295D01*
X61785714Y-25495295D02*
X61833333Y-25685771D01*
X61833333Y-25685771D02*
X61833333Y-25923866D01*
X61833333Y-25923866D02*
X61785714Y-26114342D01*
X61785714Y-26114342D02*
X61738095Y-26209580D01*
X61738095Y-26209580D02*
X61690476Y-26257200D01*
X61690476Y-26257200D02*
X61595238Y-26304819D01*
X61595238Y-26304819D02*
X61500000Y-26304819D01*
X61500000Y-26304819D02*
X61404762Y-26257200D01*
X61404762Y-26257200D02*
X61357143Y-26209580D01*
X61357143Y-26209580D02*
X61309524Y-26114342D01*
X61309524Y-26114342D02*
X61261905Y-25923866D01*
X61261905Y-25923866D02*
X61261905Y-25685771D01*
X61261905Y-25685771D02*
X61309524Y-25495295D01*
X61309524Y-25495295D02*
X61357143Y-25400057D01*
X61357143Y-25400057D02*
X61404762Y-25352438D01*
X61404762Y-25352438D02*
X61500000Y-25304819D01*
X62452381Y-25304819D02*
X62547619Y-25304819D01*
X62547619Y-25304819D02*
X62642857Y-25352438D01*
X62642857Y-25352438D02*
X62690476Y-25400057D01*
X62690476Y-25400057D02*
X62738095Y-25495295D01*
X62738095Y-25495295D02*
X62785714Y-25685771D01*
X62785714Y-25685771D02*
X62785714Y-25923866D01*
X62785714Y-25923866D02*
X62738095Y-26114342D01*
X62738095Y-26114342D02*
X62690476Y-26209580D01*
X62690476Y-26209580D02*
X62642857Y-26257200D01*
X62642857Y-26257200D02*
X62547619Y-26304819D01*
X62547619Y-26304819D02*
X62452381Y-26304819D01*
X62452381Y-26304819D02*
X62357143Y-26257200D01*
X62357143Y-26257200D02*
X62309524Y-26209580D01*
X62309524Y-26209580D02*
X62261905Y-26114342D01*
X62261905Y-26114342D02*
X62214286Y-25923866D01*
X62214286Y-25923866D02*
X62214286Y-25685771D01*
X62214286Y-25685771D02*
X62261905Y-25495295D01*
X62261905Y-25495295D02*
X62309524Y-25400057D01*
X62309524Y-25400057D02*
X62357143Y-25352438D01*
X62357143Y-25352438D02*
X62452381Y-25304819D01*
X63404762Y-25304819D02*
X63500000Y-25304819D01*
X63500000Y-25304819D02*
X63595238Y-25352438D01*
X63595238Y-25352438D02*
X63642857Y-25400057D01*
X63642857Y-25400057D02*
X63690476Y-25495295D01*
X63690476Y-25495295D02*
X63738095Y-25685771D01*
X63738095Y-25685771D02*
X63738095Y-25923866D01*
X63738095Y-25923866D02*
X63690476Y-26114342D01*
X63690476Y-26114342D02*
X63642857Y-26209580D01*
X63642857Y-26209580D02*
X63595238Y-26257200D01*
X63595238Y-26257200D02*
X63500000Y-26304819D01*
X63500000Y-26304819D02*
X63404762Y-26304819D01*
X63404762Y-26304819D02*
X63309524Y-26257200D01*
X63309524Y-26257200D02*
X63261905Y-26209580D01*
X63261905Y-26209580D02*
X63214286Y-26114342D01*
X63214286Y-26114342D02*
X63166667Y-25923866D01*
X63166667Y-25923866D02*
X63166667Y-25685771D01*
X63166667Y-25685771D02*
X63214286Y-25495295D01*
X63214286Y-25495295D02*
X63261905Y-25400057D01*
X63261905Y-25400057D02*
X63309524Y-25352438D01*
X63309524Y-25352438D02*
X63404762Y-25304819D01*
X64357143Y-25304819D02*
X64452381Y-25304819D01*
X64452381Y-25304819D02*
X64547619Y-25352438D01*
X64547619Y-25352438D02*
X64595238Y-25400057D01*
X64595238Y-25400057D02*
X64642857Y-25495295D01*
X64642857Y-25495295D02*
X64690476Y-25685771D01*
X64690476Y-25685771D02*
X64690476Y-25923866D01*
X64690476Y-25923866D02*
X64642857Y-26114342D01*
X64642857Y-26114342D02*
X64595238Y-26209580D01*
X64595238Y-26209580D02*
X64547619Y-26257200D01*
X64547619Y-26257200D02*
X64452381Y-26304819D01*
X64452381Y-26304819D02*
X64357143Y-26304819D01*
X64357143Y-26304819D02*
X64261905Y-26257200D01*
X64261905Y-26257200D02*
X64214286Y-26209580D01*
X64214286Y-26209580D02*
X64166667Y-26114342D01*
X64166667Y-26114342D02*
X64119048Y-25923866D01*
X64119048Y-25923866D02*
X64119048Y-25685771D01*
X64119048Y-25685771D02*
X64166667Y-25495295D01*
X64166667Y-25495295D02*
X64214286Y-25400057D01*
X64214286Y-25400057D02*
X64261905Y-25352438D01*
X64261905Y-25352438D02*
X64357143Y-25304819D01*
X65880953Y-26304819D02*
X65880953Y-25638152D01*
X65880953Y-25733390D02*
X65928572Y-25685771D01*
X65928572Y-25685771D02*
X66023810Y-25638152D01*
X66023810Y-25638152D02*
X66166667Y-25638152D01*
X66166667Y-25638152D02*
X66261905Y-25685771D01*
X66261905Y-25685771D02*
X66309524Y-25781009D01*
X66309524Y-25781009D02*
X66309524Y-26304819D01*
X66309524Y-25781009D02*
X66357143Y-25685771D01*
X66357143Y-25685771D02*
X66452381Y-25638152D01*
X66452381Y-25638152D02*
X66595238Y-25638152D01*
X66595238Y-25638152D02*
X66690477Y-25685771D01*
X66690477Y-25685771D02*
X66738096Y-25781009D01*
X66738096Y-25781009D02*
X66738096Y-26304819D01*
X67214286Y-26304819D02*
X67214286Y-25638152D01*
X67214286Y-25733390D02*
X67261905Y-25685771D01*
X67261905Y-25685771D02*
X67357143Y-25638152D01*
X67357143Y-25638152D02*
X67500000Y-25638152D01*
X67500000Y-25638152D02*
X67595238Y-25685771D01*
X67595238Y-25685771D02*
X67642857Y-25781009D01*
X67642857Y-25781009D02*
X67642857Y-26304819D01*
X67642857Y-25781009D02*
X67690476Y-25685771D01*
X67690476Y-25685771D02*
X67785714Y-25638152D01*
X67785714Y-25638152D02*
X67928571Y-25638152D01*
X67928571Y-25638152D02*
X68023810Y-25685771D01*
X68023810Y-25685771D02*
X68071429Y-25781009D01*
X68071429Y-25781009D02*
X68071429Y-26304819D01*
X77000000Y-76000000D02*
X77000000Y-26413580D01*
X50000000Y-76000000D02*
X50000000Y-26413580D01*
X77000000Y-27000000D02*
X50000000Y-27000000D01*
X77000000Y-27000000D02*
X50000000Y-27000000D01*
X77000000Y-27000000D02*
X75873496Y-27586421D01*
X77000000Y-27000000D02*
X75873496Y-26413579D01*
X50000000Y-27000000D02*
X51126504Y-26413579D01*
X50000000Y-27000000D02*
X51126504Y-27586421D01*
X205888152Y-108214285D02*
X206554819Y-108214285D01*
X205507200Y-108452380D02*
X206221485Y-108690475D01*
X206221485Y-108690475D02*
X206221485Y-108071428D01*
X206554819Y-107166666D02*
X206554819Y-107738094D01*
X206554819Y-107452380D02*
X205554819Y-107452380D01*
X205554819Y-107452380D02*
X205697676Y-107547618D01*
X205697676Y-107547618D02*
X205792914Y-107642856D01*
X205792914Y-107642856D02*
X205840533Y-107738094D01*
X206459580Y-106738094D02*
X206507200Y-106690475D01*
X206507200Y-106690475D02*
X206554819Y-106738094D01*
X206554819Y-106738094D02*
X206507200Y-106785713D01*
X206507200Y-106785713D02*
X206459580Y-106738094D01*
X206459580Y-106738094D02*
X206554819Y-106738094D01*
X205554819Y-106071428D02*
X205554819Y-105976190D01*
X205554819Y-105976190D02*
X205602438Y-105880952D01*
X205602438Y-105880952D02*
X205650057Y-105833333D01*
X205650057Y-105833333D02*
X205745295Y-105785714D01*
X205745295Y-105785714D02*
X205935771Y-105738095D01*
X205935771Y-105738095D02*
X206173866Y-105738095D01*
X206173866Y-105738095D02*
X206364342Y-105785714D01*
X206364342Y-105785714D02*
X206459580Y-105833333D01*
X206459580Y-105833333D02*
X206507200Y-105880952D01*
X206507200Y-105880952D02*
X206554819Y-105976190D01*
X206554819Y-105976190D02*
X206554819Y-106071428D01*
X206554819Y-106071428D02*
X206507200Y-106166666D01*
X206507200Y-106166666D02*
X206459580Y-106214285D01*
X206459580Y-106214285D02*
X206364342Y-106261904D01*
X206364342Y-106261904D02*
X206173866Y-106309523D01*
X206173866Y-106309523D02*
X205935771Y-106309523D01*
X205935771Y-106309523D02*
X205745295Y-106261904D01*
X205745295Y-106261904D02*
X205650057Y-106214285D01*
X205650057Y-106214285D02*
X205602438Y-106166666D01*
X205602438Y-106166666D02*
X205554819Y-106071428D01*
X206554819Y-104547618D02*
X205888152Y-104547618D01*
X205983390Y-104547618D02*
X205935771Y-104499999D01*
X205935771Y-104499999D02*
X205888152Y-104404761D01*
X205888152Y-104404761D02*
X205888152Y-104261904D01*
X205888152Y-104261904D02*
X205935771Y-104166666D01*
X205935771Y-104166666D02*
X206031009Y-104119047D01*
X206031009Y-104119047D02*
X206554819Y-104119047D01*
X206031009Y-104119047D02*
X205935771Y-104071428D01*
X205935771Y-104071428D02*
X205888152Y-103976190D01*
X205888152Y-103976190D02*
X205888152Y-103833333D01*
X205888152Y-103833333D02*
X205935771Y-103738094D01*
X205935771Y-103738094D02*
X206031009Y-103690475D01*
X206031009Y-103690475D02*
X206554819Y-103690475D01*
X206554819Y-103214285D02*
X205888152Y-103214285D01*
X205983390Y-103214285D02*
X205935771Y-103166666D01*
X205935771Y-103166666D02*
X205888152Y-103071428D01*
X205888152Y-103071428D02*
X205888152Y-102928571D01*
X205888152Y-102928571D02*
X205935771Y-102833333D01*
X205935771Y-102833333D02*
X206031009Y-102785714D01*
X206031009Y-102785714D02*
X206554819Y-102785714D01*
X206031009Y-102785714D02*
X205935771Y-102738095D01*
X205935771Y-102738095D02*
X205888152Y-102642857D01*
X205888152Y-102642857D02*
X205888152Y-102500000D01*
X205888152Y-102500000D02*
X205935771Y-102404761D01*
X205935771Y-102404761D02*
X206031009Y-102357142D01*
X206031009Y-102357142D02*
X206554819Y-102357142D01*
X149000000Y-85000000D02*
X207836420Y-85000000D01*
X149000000Y-126000000D02*
X207836420Y-126000000D01*
X207250000Y-85000000D02*
X207250000Y-126000000D01*
X207250000Y-85000000D02*
X207250000Y-126000000D01*
X207250000Y-85000000D02*
X207836421Y-86126504D01*
X207250000Y-85000000D02*
X206663579Y-86126504D01*
X207250000Y-126000000D02*
X206663579Y-124873496D01*
X207250000Y-126000000D02*
X207836421Y-124873496D01*
X50309524Y-41804819D02*
X49833334Y-41804819D01*
X49833334Y-41804819D02*
X49785715Y-42281009D01*
X49785715Y-42281009D02*
X49833334Y-42233390D01*
X49833334Y-42233390D02*
X49928572Y-42185771D01*
X49928572Y-42185771D02*
X50166667Y-42185771D01*
X50166667Y-42185771D02*
X50261905Y-42233390D01*
X50261905Y-42233390D02*
X50309524Y-42281009D01*
X50309524Y-42281009D02*
X50357143Y-42376247D01*
X50357143Y-42376247D02*
X50357143Y-42614342D01*
X50357143Y-42614342D02*
X50309524Y-42709580D01*
X50309524Y-42709580D02*
X50261905Y-42757200D01*
X50261905Y-42757200D02*
X50166667Y-42804819D01*
X50166667Y-42804819D02*
X49928572Y-42804819D01*
X49928572Y-42804819D02*
X49833334Y-42757200D01*
X49833334Y-42757200D02*
X49785715Y-42709580D01*
X50785715Y-42709580D02*
X50833334Y-42757200D01*
X50833334Y-42757200D02*
X50785715Y-42804819D01*
X50785715Y-42804819D02*
X50738096Y-42757200D01*
X50738096Y-42757200D02*
X50785715Y-42709580D01*
X50785715Y-42709580D02*
X50785715Y-42804819D01*
X51452381Y-41804819D02*
X51547619Y-41804819D01*
X51547619Y-41804819D02*
X51642857Y-41852438D01*
X51642857Y-41852438D02*
X51690476Y-41900057D01*
X51690476Y-41900057D02*
X51738095Y-41995295D01*
X51738095Y-41995295D02*
X51785714Y-42185771D01*
X51785714Y-42185771D02*
X51785714Y-42423866D01*
X51785714Y-42423866D02*
X51738095Y-42614342D01*
X51738095Y-42614342D02*
X51690476Y-42709580D01*
X51690476Y-42709580D02*
X51642857Y-42757200D01*
X51642857Y-42757200D02*
X51547619Y-42804819D01*
X51547619Y-42804819D02*
X51452381Y-42804819D01*
X51452381Y-42804819D02*
X51357143Y-42757200D01*
X51357143Y-42757200D02*
X51309524Y-42709580D01*
X51309524Y-42709580D02*
X51261905Y-42614342D01*
X51261905Y-42614342D02*
X51214286Y-42423866D01*
X51214286Y-42423866D02*
X51214286Y-42185771D01*
X51214286Y-42185771D02*
X51261905Y-41995295D01*
X51261905Y-41995295D02*
X51309524Y-41900057D01*
X51309524Y-41900057D02*
X51357143Y-41852438D01*
X51357143Y-41852438D02*
X51452381Y-41804819D01*
X52976191Y-42804819D02*
X52976191Y-42138152D01*
X52976191Y-42233390D02*
X53023810Y-42185771D01*
X53023810Y-42185771D02*
X53119048Y-42138152D01*
X53119048Y-42138152D02*
X53261905Y-42138152D01*
X53261905Y-42138152D02*
X53357143Y-42185771D01*
X53357143Y-42185771D02*
X53404762Y-42281009D01*
X53404762Y-42281009D02*
X53404762Y-42804819D01*
X53404762Y-42281009D02*
X53452381Y-42185771D01*
X53452381Y-42185771D02*
X53547619Y-42138152D01*
X53547619Y-42138152D02*
X53690476Y-42138152D01*
X53690476Y-42138152D02*
X53785715Y-42185771D01*
X53785715Y-42185771D02*
X53833334Y-42281009D01*
X53833334Y-42281009D02*
X53833334Y-42804819D01*
X54309524Y-42804819D02*
X54309524Y-42138152D01*
X54309524Y-42233390D02*
X54357143Y-42185771D01*
X54357143Y-42185771D02*
X54452381Y-42138152D01*
X54452381Y-42138152D02*
X54595238Y-42138152D01*
X54595238Y-42138152D02*
X54690476Y-42185771D01*
X54690476Y-42185771D02*
X54738095Y-42281009D01*
X54738095Y-42281009D02*
X54738095Y-42804819D01*
X54738095Y-42281009D02*
X54785714Y-42185771D01*
X54785714Y-42185771D02*
X54880952Y-42138152D01*
X54880952Y-42138152D02*
X55023809Y-42138152D01*
X55023809Y-42138152D02*
X55119048Y-42185771D01*
X55119048Y-42185771D02*
X55166667Y-42281009D01*
X55166667Y-42281009D02*
X55166667Y-42804819D01*
X55000000Y-54500000D02*
X55000000Y-42913580D01*
X50000000Y-54500000D02*
X50000000Y-42913580D01*
X55000000Y-43500000D02*
X50000000Y-43500000D01*
X55000000Y-43500000D02*
X50000000Y-43500000D01*
X55000000Y-43500000D02*
X53873496Y-44086421D01*
X55000000Y-43500000D02*
X53873496Y-42913579D01*
X50000000Y-43500000D02*
X51126504Y-42913579D01*
X50000000Y-43500000D02*
X51126504Y-44086421D01*
X34031009Y-108619047D02*
X34078628Y-108476190D01*
X34078628Y-108476190D02*
X34126247Y-108428571D01*
X34126247Y-108428571D02*
X34221485Y-108380952D01*
X34221485Y-108380952D02*
X34364342Y-108380952D01*
X34364342Y-108380952D02*
X34459580Y-108428571D01*
X34459580Y-108428571D02*
X34507200Y-108476190D01*
X34507200Y-108476190D02*
X34554819Y-108571428D01*
X34554819Y-108571428D02*
X34554819Y-108952380D01*
X34554819Y-108952380D02*
X33554819Y-108952380D01*
X33554819Y-108952380D02*
X33554819Y-108619047D01*
X33554819Y-108619047D02*
X33602438Y-108523809D01*
X33602438Y-108523809D02*
X33650057Y-108476190D01*
X33650057Y-108476190D02*
X33745295Y-108428571D01*
X33745295Y-108428571D02*
X33840533Y-108428571D01*
X33840533Y-108428571D02*
X33935771Y-108476190D01*
X33935771Y-108476190D02*
X33983390Y-108523809D01*
X33983390Y-108523809D02*
X34031009Y-108619047D01*
X34031009Y-108619047D02*
X34031009Y-108952380D01*
X33554819Y-107761904D02*
X33554819Y-107571428D01*
X33554819Y-107571428D02*
X33602438Y-107476190D01*
X33602438Y-107476190D02*
X33697676Y-107380952D01*
X33697676Y-107380952D02*
X33888152Y-107333333D01*
X33888152Y-107333333D02*
X34221485Y-107333333D01*
X34221485Y-107333333D02*
X34411961Y-107380952D01*
X34411961Y-107380952D02*
X34507200Y-107476190D01*
X34507200Y-107476190D02*
X34554819Y-107571428D01*
X34554819Y-107571428D02*
X34554819Y-107761904D01*
X34554819Y-107761904D02*
X34507200Y-107857142D01*
X34507200Y-107857142D02*
X34411961Y-107952380D01*
X34411961Y-107952380D02*
X34221485Y-107999999D01*
X34221485Y-107999999D02*
X33888152Y-107999999D01*
X33888152Y-107999999D02*
X33697676Y-107952380D01*
X33697676Y-107952380D02*
X33602438Y-107857142D01*
X33602438Y-107857142D02*
X33554819Y-107761904D01*
X34269104Y-106952380D02*
X34269104Y-106476190D01*
X34554819Y-107047618D02*
X33554819Y-106714285D01*
X33554819Y-106714285D02*
X34554819Y-106380952D01*
X34554819Y-105476190D02*
X34078628Y-105809523D01*
X34554819Y-106047618D02*
X33554819Y-106047618D01*
X33554819Y-106047618D02*
X33554819Y-105666666D01*
X33554819Y-105666666D02*
X33602438Y-105571428D01*
X33602438Y-105571428D02*
X33650057Y-105523809D01*
X33650057Y-105523809D02*
X33745295Y-105476190D01*
X33745295Y-105476190D02*
X33888152Y-105476190D01*
X33888152Y-105476190D02*
X33983390Y-105523809D01*
X33983390Y-105523809D02*
X34031009Y-105571428D01*
X34031009Y-105571428D02*
X34078628Y-105666666D01*
X34078628Y-105666666D02*
X34078628Y-106047618D01*
X34554819Y-105047618D02*
X33554819Y-105047618D01*
X33554819Y-105047618D02*
X33554819Y-104809523D01*
X33554819Y-104809523D02*
X33602438Y-104666666D01*
X33602438Y-104666666D02*
X33697676Y-104571428D01*
X33697676Y-104571428D02*
X33792914Y-104523809D01*
X33792914Y-104523809D02*
X33983390Y-104476190D01*
X33983390Y-104476190D02*
X34126247Y-104476190D01*
X34126247Y-104476190D02*
X34316723Y-104523809D01*
X34316723Y-104523809D02*
X34411961Y-104571428D01*
X34411961Y-104571428D02*
X34507200Y-104666666D01*
X34507200Y-104666666D02*
X34554819Y-104809523D01*
X34554819Y-104809523D02*
X34554819Y-105047618D01*
X34650057Y-104285714D02*
X34650057Y-103523809D01*
X34554819Y-102761904D02*
X34554819Y-103333332D01*
X34554819Y-103047618D02*
X33554819Y-103047618D01*
X33554819Y-103047618D02*
X33697676Y-103142856D01*
X33697676Y-103142856D02*
X33792914Y-103238094D01*
X33792914Y-103238094D02*
X33840533Y-103333332D01*
X33554819Y-102142856D02*
X33554819Y-102047618D01*
X33554819Y-102047618D02*
X33602438Y-101952380D01*
X33602438Y-101952380D02*
X33650057Y-101904761D01*
X33650057Y-101904761D02*
X33745295Y-101857142D01*
X33745295Y-101857142D02*
X33935771Y-101809523D01*
X33935771Y-101809523D02*
X34173866Y-101809523D01*
X34173866Y-101809523D02*
X34364342Y-101857142D01*
X34364342Y-101857142D02*
X34459580Y-101904761D01*
X34459580Y-101904761D02*
X34507200Y-101952380D01*
X34507200Y-101952380D02*
X34554819Y-102047618D01*
X34554819Y-102047618D02*
X34554819Y-102142856D01*
X34554819Y-102142856D02*
X34507200Y-102238094D01*
X34507200Y-102238094D02*
X34459580Y-102285713D01*
X34459580Y-102285713D02*
X34364342Y-102333332D01*
X34364342Y-102333332D02*
X34173866Y-102380951D01*
X34173866Y-102380951D02*
X33935771Y-102380951D01*
X33935771Y-102380951D02*
X33745295Y-102333332D01*
X33745295Y-102333332D02*
X33650057Y-102285713D01*
X33650057Y-102285713D02*
X33602438Y-102238094D01*
X33602438Y-102238094D02*
X33554819Y-102142856D01*
X33554819Y-100904761D02*
X33554819Y-101380951D01*
X33554819Y-101380951D02*
X34031009Y-101428570D01*
X34031009Y-101428570D02*
X33983390Y-101380951D01*
X33983390Y-101380951D02*
X33935771Y-101285713D01*
X33935771Y-101285713D02*
X33935771Y-101047618D01*
X33935771Y-101047618D02*
X33983390Y-100952380D01*
X33983390Y-100952380D02*
X34031009Y-100904761D01*
X34031009Y-100904761D02*
X34126247Y-100857142D01*
X34126247Y-100857142D02*
X34364342Y-100857142D01*
X34364342Y-100857142D02*
X34459580Y-100904761D01*
X34459580Y-100904761D02*
X34507200Y-100952380D01*
X34507200Y-100952380D02*
X34554819Y-101047618D01*
X34554819Y-101047618D02*
X34554819Y-101285713D01*
X34554819Y-101285713D02*
X34507200Y-101380951D01*
X34507200Y-101380951D02*
X34459580Y-101428570D01*
X34459580Y-100428570D02*
X34507200Y-100380951D01*
X34507200Y-100380951D02*
X34554819Y-100428570D01*
X34554819Y-100428570D02*
X34507200Y-100476189D01*
X34507200Y-100476189D02*
X34459580Y-100428570D01*
X34459580Y-100428570D02*
X34554819Y-100428570D01*
X33554819Y-99761904D02*
X33554819Y-99666666D01*
X33554819Y-99666666D02*
X33602438Y-99571428D01*
X33602438Y-99571428D02*
X33650057Y-99523809D01*
X33650057Y-99523809D02*
X33745295Y-99476190D01*
X33745295Y-99476190D02*
X33935771Y-99428571D01*
X33935771Y-99428571D02*
X34173866Y-99428571D01*
X34173866Y-99428571D02*
X34364342Y-99476190D01*
X34364342Y-99476190D02*
X34459580Y-99523809D01*
X34459580Y-99523809D02*
X34507200Y-99571428D01*
X34507200Y-99571428D02*
X34554819Y-99666666D01*
X34554819Y-99666666D02*
X34554819Y-99761904D01*
X34554819Y-99761904D02*
X34507200Y-99857142D01*
X34507200Y-99857142D02*
X34459580Y-99904761D01*
X34459580Y-99904761D02*
X34364342Y-99952380D01*
X34364342Y-99952380D02*
X34173866Y-99999999D01*
X34173866Y-99999999D02*
X33935771Y-99999999D01*
X33935771Y-99999999D02*
X33745295Y-99952380D01*
X33745295Y-99952380D02*
X33650057Y-99904761D01*
X33650057Y-99904761D02*
X33602438Y-99857142D01*
X33602438Y-99857142D02*
X33554819Y-99761904D01*
X34554819Y-98238094D02*
X33888152Y-98238094D01*
X33983390Y-98238094D02*
X33935771Y-98190475D01*
X33935771Y-98190475D02*
X33888152Y-98095237D01*
X33888152Y-98095237D02*
X33888152Y-97952380D01*
X33888152Y-97952380D02*
X33935771Y-97857142D01*
X33935771Y-97857142D02*
X34031009Y-97809523D01*
X34031009Y-97809523D02*
X34554819Y-97809523D01*
X34031009Y-97809523D02*
X33935771Y-97761904D01*
X33935771Y-97761904D02*
X33888152Y-97666666D01*
X33888152Y-97666666D02*
X33888152Y-97523809D01*
X33888152Y-97523809D02*
X33935771Y-97428570D01*
X33935771Y-97428570D02*
X34031009Y-97380951D01*
X34031009Y-97380951D02*
X34554819Y-97380951D01*
X34554819Y-96904761D02*
X33888152Y-96904761D01*
X33983390Y-96904761D02*
X33935771Y-96857142D01*
X33935771Y-96857142D02*
X33888152Y-96761904D01*
X33888152Y-96761904D02*
X33888152Y-96619047D01*
X33888152Y-96619047D02*
X33935771Y-96523809D01*
X33935771Y-96523809D02*
X34031009Y-96476190D01*
X34031009Y-96476190D02*
X34554819Y-96476190D01*
X34031009Y-96476190D02*
X33935771Y-96428571D01*
X33935771Y-96428571D02*
X33888152Y-96333333D01*
X33888152Y-96333333D02*
X33888152Y-96190476D01*
X33888152Y-96190476D02*
X33935771Y-96095237D01*
X33935771Y-96095237D02*
X34031009Y-96047618D01*
X34031009Y-96047618D02*
X34554819Y-96047618D01*
X49500000Y-50000000D02*
X34663580Y-50000000D01*
X49500000Y-155000000D02*
X34663580Y-155000000D01*
X35250000Y-50000000D02*
X35250000Y-155000000D01*
X35250000Y-50000000D02*
X35250000Y-155000000D01*
X35250000Y-50000000D02*
X35836421Y-51126504D01*
X35250000Y-50000000D02*
X34663579Y-51126504D01*
X35250000Y-155000000D02*
X34663579Y-153873496D01*
X35250000Y-155000000D02*
X35836421Y-153873496D01*
X57559524Y-38650057D02*
X57607143Y-38602438D01*
X57607143Y-38602438D02*
X57702381Y-38554819D01*
X57702381Y-38554819D02*
X57940476Y-38554819D01*
X57940476Y-38554819D02*
X58035714Y-38602438D01*
X58035714Y-38602438D02*
X58083333Y-38650057D01*
X58083333Y-38650057D02*
X58130952Y-38745295D01*
X58130952Y-38745295D02*
X58130952Y-38840533D01*
X58130952Y-38840533D02*
X58083333Y-38983390D01*
X58083333Y-38983390D02*
X57511905Y-39554819D01*
X57511905Y-39554819D02*
X58130952Y-39554819D01*
X59083333Y-39554819D02*
X58511905Y-39554819D01*
X58797619Y-39554819D02*
X58797619Y-38554819D01*
X58797619Y-38554819D02*
X58702381Y-38697676D01*
X58702381Y-38697676D02*
X58607143Y-38792914D01*
X58607143Y-38792914D02*
X58511905Y-38840533D01*
X59511905Y-39459580D02*
X59559524Y-39507200D01*
X59559524Y-39507200D02*
X59511905Y-39554819D01*
X59511905Y-39554819D02*
X59464286Y-39507200D01*
X59464286Y-39507200D02*
X59511905Y-39459580D01*
X59511905Y-39459580D02*
X59511905Y-39554819D01*
X60464285Y-38554819D02*
X59988095Y-38554819D01*
X59988095Y-38554819D02*
X59940476Y-39031009D01*
X59940476Y-39031009D02*
X59988095Y-38983390D01*
X59988095Y-38983390D02*
X60083333Y-38935771D01*
X60083333Y-38935771D02*
X60321428Y-38935771D01*
X60321428Y-38935771D02*
X60416666Y-38983390D01*
X60416666Y-38983390D02*
X60464285Y-39031009D01*
X60464285Y-39031009D02*
X60511904Y-39126247D01*
X60511904Y-39126247D02*
X60511904Y-39364342D01*
X60511904Y-39364342D02*
X60464285Y-39459580D01*
X60464285Y-39459580D02*
X60416666Y-39507200D01*
X60416666Y-39507200D02*
X60321428Y-39554819D01*
X60321428Y-39554819D02*
X60083333Y-39554819D01*
X60083333Y-39554819D02*
X59988095Y-39507200D01*
X59988095Y-39507200D02*
X59940476Y-39459580D01*
X61702381Y-39554819D02*
X61702381Y-38888152D01*
X61702381Y-38983390D02*
X61750000Y-38935771D01*
X61750000Y-38935771D02*
X61845238Y-38888152D01*
X61845238Y-38888152D02*
X61988095Y-38888152D01*
X61988095Y-38888152D02*
X62083333Y-38935771D01*
X62083333Y-38935771D02*
X62130952Y-39031009D01*
X62130952Y-39031009D02*
X62130952Y-39554819D01*
X62130952Y-39031009D02*
X62178571Y-38935771D01*
X62178571Y-38935771D02*
X62273809Y-38888152D01*
X62273809Y-38888152D02*
X62416666Y-38888152D01*
X62416666Y-38888152D02*
X62511905Y-38935771D01*
X62511905Y-38935771D02*
X62559524Y-39031009D01*
X62559524Y-39031009D02*
X62559524Y-39554819D01*
X63035714Y-39554819D02*
X63035714Y-38888152D01*
X63035714Y-38983390D02*
X63083333Y-38935771D01*
X63083333Y-38935771D02*
X63178571Y-38888152D01*
X63178571Y-38888152D02*
X63321428Y-38888152D01*
X63321428Y-38888152D02*
X63416666Y-38935771D01*
X63416666Y-38935771D02*
X63464285Y-39031009D01*
X63464285Y-39031009D02*
X63464285Y-39554819D01*
X63464285Y-39031009D02*
X63511904Y-38935771D01*
X63511904Y-38935771D02*
X63607142Y-38888152D01*
X63607142Y-38888152D02*
X63749999Y-38888152D01*
X63749999Y-38888152D02*
X63845238Y-38935771D01*
X63845238Y-38935771D02*
X63892857Y-39031009D01*
X63892857Y-39031009D02*
X63892857Y-39554819D01*
X50000000Y-58500000D02*
X50000000Y-39663580D01*
X71500000Y-58500000D02*
X71500000Y-39663580D01*
X50000000Y-40250000D02*
X71500000Y-40250000D01*
X50000000Y-40250000D02*
X71500000Y-40250000D01*
X50000000Y-40250000D02*
X51126504Y-39663579D01*
X50000000Y-40250000D02*
X51126504Y-40836421D01*
X71500000Y-40250000D02*
X70373496Y-40836421D01*
X71500000Y-40250000D02*
X70373496Y-39663579D01*
X116321429Y-26304819D02*
X116321429Y-25304819D01*
X116321429Y-25304819D02*
X116559524Y-25304819D01*
X116559524Y-25304819D02*
X116702381Y-25352438D01*
X116702381Y-25352438D02*
X116797619Y-25447676D01*
X116797619Y-25447676D02*
X116845238Y-25542914D01*
X116845238Y-25542914D02*
X116892857Y-25733390D01*
X116892857Y-25733390D02*
X116892857Y-25876247D01*
X116892857Y-25876247D02*
X116845238Y-26066723D01*
X116845238Y-26066723D02*
X116797619Y-26161961D01*
X116797619Y-26161961D02*
X116702381Y-26257200D01*
X116702381Y-26257200D02*
X116559524Y-26304819D01*
X116559524Y-26304819D02*
X116321429Y-26304819D01*
X117321429Y-26304819D02*
X117321429Y-25304819D01*
X117750000Y-26257200D02*
X117892857Y-26304819D01*
X117892857Y-26304819D02*
X118130952Y-26304819D01*
X118130952Y-26304819D02*
X118226190Y-26257200D01*
X118226190Y-26257200D02*
X118273809Y-26209580D01*
X118273809Y-26209580D02*
X118321428Y-26114342D01*
X118321428Y-26114342D02*
X118321428Y-26019104D01*
X118321428Y-26019104D02*
X118273809Y-25923866D01*
X118273809Y-25923866D02*
X118226190Y-25876247D01*
X118226190Y-25876247D02*
X118130952Y-25828628D01*
X118130952Y-25828628D02*
X117940476Y-25781009D01*
X117940476Y-25781009D02*
X117845238Y-25733390D01*
X117845238Y-25733390D02*
X117797619Y-25685771D01*
X117797619Y-25685771D02*
X117750000Y-25590533D01*
X117750000Y-25590533D02*
X117750000Y-25495295D01*
X117750000Y-25495295D02*
X117797619Y-25400057D01*
X117797619Y-25400057D02*
X117845238Y-25352438D01*
X117845238Y-25352438D02*
X117940476Y-25304819D01*
X117940476Y-25304819D02*
X118178571Y-25304819D01*
X118178571Y-25304819D02*
X118321428Y-25352438D01*
X118750000Y-26304819D02*
X118750000Y-25304819D01*
X118750000Y-25304819D02*
X119130952Y-25304819D01*
X119130952Y-25304819D02*
X119226190Y-25352438D01*
X119226190Y-25352438D02*
X119273809Y-25400057D01*
X119273809Y-25400057D02*
X119321428Y-25495295D01*
X119321428Y-25495295D02*
X119321428Y-25638152D01*
X119321428Y-25638152D02*
X119273809Y-25733390D01*
X119273809Y-25733390D02*
X119226190Y-25781009D01*
X119226190Y-25781009D02*
X119130952Y-25828628D01*
X119130952Y-25828628D02*
X118750000Y-25828628D01*
X120226190Y-26304819D02*
X119750000Y-26304819D01*
X119750000Y-26304819D02*
X119750000Y-25304819D01*
X120511905Y-26019104D02*
X120988095Y-26019104D01*
X120416667Y-26304819D02*
X120750000Y-25304819D01*
X120750000Y-25304819D02*
X121083333Y-26304819D01*
X121607143Y-25828628D02*
X121607143Y-26304819D01*
X121273810Y-25304819D02*
X121607143Y-25828628D01*
X121607143Y-25828628D02*
X121940476Y-25304819D01*
X122035715Y-26400057D02*
X122797619Y-26400057D01*
X123083334Y-26304819D02*
X123273810Y-26304819D01*
X123273810Y-26304819D02*
X123369048Y-26257200D01*
X123369048Y-26257200D02*
X123416667Y-26209580D01*
X123416667Y-26209580D02*
X123511905Y-26066723D01*
X123511905Y-26066723D02*
X123559524Y-25876247D01*
X123559524Y-25876247D02*
X123559524Y-25495295D01*
X123559524Y-25495295D02*
X123511905Y-25400057D01*
X123511905Y-25400057D02*
X123464286Y-25352438D01*
X123464286Y-25352438D02*
X123369048Y-25304819D01*
X123369048Y-25304819D02*
X123178572Y-25304819D01*
X123178572Y-25304819D02*
X123083334Y-25352438D01*
X123083334Y-25352438D02*
X123035715Y-25400057D01*
X123035715Y-25400057D02*
X122988096Y-25495295D01*
X122988096Y-25495295D02*
X122988096Y-25733390D01*
X122988096Y-25733390D02*
X123035715Y-25828628D01*
X123035715Y-25828628D02*
X123083334Y-25876247D01*
X123083334Y-25876247D02*
X123178572Y-25923866D01*
X123178572Y-25923866D02*
X123369048Y-25923866D01*
X123369048Y-25923866D02*
X123464286Y-25876247D01*
X123464286Y-25876247D02*
X123511905Y-25828628D01*
X123511905Y-25828628D02*
X123559524Y-25733390D01*
X124416667Y-25638152D02*
X124416667Y-26304819D01*
X124178572Y-25257200D02*
X123940477Y-25971485D01*
X123940477Y-25971485D02*
X124559524Y-25971485D01*
X124940477Y-26209580D02*
X124988096Y-26257200D01*
X124988096Y-26257200D02*
X124940477Y-26304819D01*
X124940477Y-26304819D02*
X124892858Y-26257200D01*
X124892858Y-26257200D02*
X124940477Y-26209580D01*
X124940477Y-26209580D02*
X124940477Y-26304819D01*
X125892857Y-25304819D02*
X125416667Y-25304819D01*
X125416667Y-25304819D02*
X125369048Y-25781009D01*
X125369048Y-25781009D02*
X125416667Y-25733390D01*
X125416667Y-25733390D02*
X125511905Y-25685771D01*
X125511905Y-25685771D02*
X125750000Y-25685771D01*
X125750000Y-25685771D02*
X125845238Y-25733390D01*
X125845238Y-25733390D02*
X125892857Y-25781009D01*
X125892857Y-25781009D02*
X125940476Y-25876247D01*
X125940476Y-25876247D02*
X125940476Y-26114342D01*
X125940476Y-26114342D02*
X125892857Y-26209580D01*
X125892857Y-26209580D02*
X125845238Y-26257200D01*
X125845238Y-26257200D02*
X125750000Y-26304819D01*
X125750000Y-26304819D02*
X125511905Y-26304819D01*
X125511905Y-26304819D02*
X125416667Y-26257200D01*
X125416667Y-26257200D02*
X125369048Y-26209580D01*
X126559524Y-25304819D02*
X126654762Y-25304819D01*
X126654762Y-25304819D02*
X126750000Y-25352438D01*
X126750000Y-25352438D02*
X126797619Y-25400057D01*
X126797619Y-25400057D02*
X126845238Y-25495295D01*
X126845238Y-25495295D02*
X126892857Y-25685771D01*
X126892857Y-25685771D02*
X126892857Y-25923866D01*
X126892857Y-25923866D02*
X126845238Y-26114342D01*
X126845238Y-26114342D02*
X126797619Y-26209580D01*
X126797619Y-26209580D02*
X126750000Y-26257200D01*
X126750000Y-26257200D02*
X126654762Y-26304819D01*
X126654762Y-26304819D02*
X126559524Y-26304819D01*
X126559524Y-26304819D02*
X126464286Y-26257200D01*
X126464286Y-26257200D02*
X126416667Y-26209580D01*
X126416667Y-26209580D02*
X126369048Y-26114342D01*
X126369048Y-26114342D02*
X126321429Y-25923866D01*
X126321429Y-25923866D02*
X126321429Y-25685771D01*
X126321429Y-25685771D02*
X126369048Y-25495295D01*
X126369048Y-25495295D02*
X126416667Y-25400057D01*
X126416667Y-25400057D02*
X126464286Y-25352438D01*
X126464286Y-25352438D02*
X126559524Y-25304819D01*
X127511905Y-25304819D02*
X127607143Y-25304819D01*
X127607143Y-25304819D02*
X127702381Y-25352438D01*
X127702381Y-25352438D02*
X127750000Y-25400057D01*
X127750000Y-25400057D02*
X127797619Y-25495295D01*
X127797619Y-25495295D02*
X127845238Y-25685771D01*
X127845238Y-25685771D02*
X127845238Y-25923866D01*
X127845238Y-25923866D02*
X127797619Y-26114342D01*
X127797619Y-26114342D02*
X127750000Y-26209580D01*
X127750000Y-26209580D02*
X127702381Y-26257200D01*
X127702381Y-26257200D02*
X127607143Y-26304819D01*
X127607143Y-26304819D02*
X127511905Y-26304819D01*
X127511905Y-26304819D02*
X127416667Y-26257200D01*
X127416667Y-26257200D02*
X127369048Y-26209580D01*
X127369048Y-26209580D02*
X127321429Y-26114342D01*
X127321429Y-26114342D02*
X127273810Y-25923866D01*
X127273810Y-25923866D02*
X127273810Y-25685771D01*
X127273810Y-25685771D02*
X127321429Y-25495295D01*
X127321429Y-25495295D02*
X127369048Y-25400057D01*
X127369048Y-25400057D02*
X127416667Y-25352438D01*
X127416667Y-25352438D02*
X127511905Y-25304819D01*
X128464286Y-25304819D02*
X128559524Y-25304819D01*
X128559524Y-25304819D02*
X128654762Y-25352438D01*
X128654762Y-25352438D02*
X128702381Y-25400057D01*
X128702381Y-25400057D02*
X128750000Y-25495295D01*
X128750000Y-25495295D02*
X128797619Y-25685771D01*
X128797619Y-25685771D02*
X128797619Y-25923866D01*
X128797619Y-25923866D02*
X128750000Y-26114342D01*
X128750000Y-26114342D02*
X128702381Y-26209580D01*
X128702381Y-26209580D02*
X128654762Y-26257200D01*
X128654762Y-26257200D02*
X128559524Y-26304819D01*
X128559524Y-26304819D02*
X128464286Y-26304819D01*
X128464286Y-26304819D02*
X128369048Y-26257200D01*
X128369048Y-26257200D02*
X128321429Y-26209580D01*
X128321429Y-26209580D02*
X128273810Y-26114342D01*
X128273810Y-26114342D02*
X128226191Y-25923866D01*
X128226191Y-25923866D02*
X128226191Y-25685771D01*
X128226191Y-25685771D02*
X128273810Y-25495295D01*
X128273810Y-25495295D02*
X128321429Y-25400057D01*
X128321429Y-25400057D02*
X128369048Y-25352438D01*
X128369048Y-25352438D02*
X128464286Y-25304819D01*
X129988096Y-26304819D02*
X129988096Y-25638152D01*
X129988096Y-25733390D02*
X130035715Y-25685771D01*
X130035715Y-25685771D02*
X130130953Y-25638152D01*
X130130953Y-25638152D02*
X130273810Y-25638152D01*
X130273810Y-25638152D02*
X130369048Y-25685771D01*
X130369048Y-25685771D02*
X130416667Y-25781009D01*
X130416667Y-25781009D02*
X130416667Y-26304819D01*
X130416667Y-25781009D02*
X130464286Y-25685771D01*
X130464286Y-25685771D02*
X130559524Y-25638152D01*
X130559524Y-25638152D02*
X130702381Y-25638152D01*
X130702381Y-25638152D02*
X130797620Y-25685771D01*
X130797620Y-25685771D02*
X130845239Y-25781009D01*
X130845239Y-25781009D02*
X130845239Y-26304819D01*
X131321429Y-26304819D02*
X131321429Y-25638152D01*
X131321429Y-25733390D02*
X131369048Y-25685771D01*
X131369048Y-25685771D02*
X131464286Y-25638152D01*
X131464286Y-25638152D02*
X131607143Y-25638152D01*
X131607143Y-25638152D02*
X131702381Y-25685771D01*
X131702381Y-25685771D02*
X131750000Y-25781009D01*
X131750000Y-25781009D02*
X131750000Y-26304819D01*
X131750000Y-25781009D02*
X131797619Y-25685771D01*
X131797619Y-25685771D02*
X131892857Y-25638152D01*
X131892857Y-25638152D02*
X132035714Y-25638152D01*
X132035714Y-25638152D02*
X132130953Y-25685771D01*
X132130953Y-25685771D02*
X132178572Y-25781009D01*
X132178572Y-25781009D02*
X132178572Y-26304819D01*
X171500000Y-76500000D02*
X171500000Y-26413580D01*
X77000000Y-76500000D02*
X77000000Y-26413580D01*
X171500000Y-27000000D02*
X77000000Y-27000000D01*
X171500000Y-27000000D02*
X77000000Y-27000000D01*
X171500000Y-27000000D02*
X170373496Y-27586421D01*
X171500000Y-27000000D02*
X170373496Y-26413579D01*
X77000000Y-27000000D02*
X78126504Y-26413579D01*
X77000000Y-27000000D02*
X78126504Y-27586421D01*
X24054819Y-100928570D02*
X23054819Y-100928570D01*
X23054819Y-100928570D02*
X23054819Y-100690475D01*
X23054819Y-100690475D02*
X23102438Y-100547618D01*
X23102438Y-100547618D02*
X23197676Y-100452380D01*
X23197676Y-100452380D02*
X23292914Y-100404761D01*
X23292914Y-100404761D02*
X23483390Y-100357142D01*
X23483390Y-100357142D02*
X23626247Y-100357142D01*
X23626247Y-100357142D02*
X23816723Y-100404761D01*
X23816723Y-100404761D02*
X23911961Y-100452380D01*
X23911961Y-100452380D02*
X24007200Y-100547618D01*
X24007200Y-100547618D02*
X24054819Y-100690475D01*
X24054819Y-100690475D02*
X24054819Y-100928570D01*
X24054819Y-99928570D02*
X23054819Y-99928570D01*
X24007200Y-99499999D02*
X24054819Y-99357142D01*
X24054819Y-99357142D02*
X24054819Y-99119047D01*
X24054819Y-99119047D02*
X24007200Y-99023809D01*
X24007200Y-99023809D02*
X23959580Y-98976190D01*
X23959580Y-98976190D02*
X23864342Y-98928571D01*
X23864342Y-98928571D02*
X23769104Y-98928571D01*
X23769104Y-98928571D02*
X23673866Y-98976190D01*
X23673866Y-98976190D02*
X23626247Y-99023809D01*
X23626247Y-99023809D02*
X23578628Y-99119047D01*
X23578628Y-99119047D02*
X23531009Y-99309523D01*
X23531009Y-99309523D02*
X23483390Y-99404761D01*
X23483390Y-99404761D02*
X23435771Y-99452380D01*
X23435771Y-99452380D02*
X23340533Y-99499999D01*
X23340533Y-99499999D02*
X23245295Y-99499999D01*
X23245295Y-99499999D02*
X23150057Y-99452380D01*
X23150057Y-99452380D02*
X23102438Y-99404761D01*
X23102438Y-99404761D02*
X23054819Y-99309523D01*
X23054819Y-99309523D02*
X23054819Y-99071428D01*
X23054819Y-99071428D02*
X23102438Y-98928571D01*
X24054819Y-98499999D02*
X23054819Y-98499999D01*
X23054819Y-98499999D02*
X23054819Y-98119047D01*
X23054819Y-98119047D02*
X23102438Y-98023809D01*
X23102438Y-98023809D02*
X23150057Y-97976190D01*
X23150057Y-97976190D02*
X23245295Y-97928571D01*
X23245295Y-97928571D02*
X23388152Y-97928571D01*
X23388152Y-97928571D02*
X23483390Y-97976190D01*
X23483390Y-97976190D02*
X23531009Y-98023809D01*
X23531009Y-98023809D02*
X23578628Y-98119047D01*
X23578628Y-98119047D02*
X23578628Y-98499999D01*
X24054819Y-97023809D02*
X24054819Y-97499999D01*
X24054819Y-97499999D02*
X23054819Y-97499999D01*
X23769104Y-96738094D02*
X23769104Y-96261904D01*
X24054819Y-96833332D02*
X23054819Y-96499999D01*
X23054819Y-96499999D02*
X24054819Y-96166666D01*
X23578628Y-95642856D02*
X24054819Y-95642856D01*
X23054819Y-95976189D02*
X23578628Y-95642856D01*
X23578628Y-95642856D02*
X23054819Y-95309523D01*
X24150057Y-95214285D02*
X24150057Y-94452380D01*
X23054819Y-94309522D02*
X23054819Y-93690475D01*
X23054819Y-93690475D02*
X23435771Y-94023808D01*
X23435771Y-94023808D02*
X23435771Y-93880951D01*
X23435771Y-93880951D02*
X23483390Y-93785713D01*
X23483390Y-93785713D02*
X23531009Y-93738094D01*
X23531009Y-93738094D02*
X23626247Y-93690475D01*
X23626247Y-93690475D02*
X23864342Y-93690475D01*
X23864342Y-93690475D02*
X23959580Y-93738094D01*
X23959580Y-93738094D02*
X24007200Y-93785713D01*
X24007200Y-93785713D02*
X24054819Y-93880951D01*
X24054819Y-93880951D02*
X24054819Y-94166665D01*
X24054819Y-94166665D02*
X24007200Y-94261903D01*
X24007200Y-94261903D02*
X23959580Y-94309522D01*
X23150057Y-93309522D02*
X23102438Y-93261903D01*
X23102438Y-93261903D02*
X23054819Y-93166665D01*
X23054819Y-93166665D02*
X23054819Y-92928570D01*
X23054819Y-92928570D02*
X23102438Y-92833332D01*
X23102438Y-92833332D02*
X23150057Y-92785713D01*
X23150057Y-92785713D02*
X23245295Y-92738094D01*
X23245295Y-92738094D02*
X23340533Y-92738094D01*
X23340533Y-92738094D02*
X23483390Y-92785713D01*
X23483390Y-92785713D02*
X24054819Y-93357141D01*
X24054819Y-93357141D02*
X24054819Y-92738094D01*
X23959580Y-92309522D02*
X24007200Y-92261903D01*
X24007200Y-92261903D02*
X24054819Y-92309522D01*
X24054819Y-92309522D02*
X24007200Y-92357141D01*
X24007200Y-92357141D02*
X23959580Y-92309522D01*
X23959580Y-92309522D02*
X24054819Y-92309522D01*
X23054819Y-91642856D02*
X23054819Y-91547618D01*
X23054819Y-91547618D02*
X23102438Y-91452380D01*
X23102438Y-91452380D02*
X23150057Y-91404761D01*
X23150057Y-91404761D02*
X23245295Y-91357142D01*
X23245295Y-91357142D02*
X23435771Y-91309523D01*
X23435771Y-91309523D02*
X23673866Y-91309523D01*
X23673866Y-91309523D02*
X23864342Y-91357142D01*
X23864342Y-91357142D02*
X23959580Y-91404761D01*
X23959580Y-91404761D02*
X24007200Y-91452380D01*
X24007200Y-91452380D02*
X24054819Y-91547618D01*
X24054819Y-91547618D02*
X24054819Y-91642856D01*
X24054819Y-91642856D02*
X24007200Y-91738094D01*
X24007200Y-91738094D02*
X23959580Y-91785713D01*
X23959580Y-91785713D02*
X23864342Y-91833332D01*
X23864342Y-91833332D02*
X23673866Y-91880951D01*
X23673866Y-91880951D02*
X23435771Y-91880951D01*
X23435771Y-91880951D02*
X23245295Y-91833332D01*
X23245295Y-91833332D02*
X23150057Y-91785713D01*
X23150057Y-91785713D02*
X23102438Y-91738094D01*
X23102438Y-91738094D02*
X23054819Y-91642856D01*
X23054819Y-90690475D02*
X23054819Y-90595237D01*
X23054819Y-90595237D02*
X23102438Y-90499999D01*
X23102438Y-90499999D02*
X23150057Y-90452380D01*
X23150057Y-90452380D02*
X23245295Y-90404761D01*
X23245295Y-90404761D02*
X23435771Y-90357142D01*
X23435771Y-90357142D02*
X23673866Y-90357142D01*
X23673866Y-90357142D02*
X23864342Y-90404761D01*
X23864342Y-90404761D02*
X23959580Y-90452380D01*
X23959580Y-90452380D02*
X24007200Y-90499999D01*
X24007200Y-90499999D02*
X24054819Y-90595237D01*
X24054819Y-90595237D02*
X24054819Y-90690475D01*
X24054819Y-90690475D02*
X24007200Y-90785713D01*
X24007200Y-90785713D02*
X23959580Y-90833332D01*
X23959580Y-90833332D02*
X23864342Y-90880951D01*
X23864342Y-90880951D02*
X23673866Y-90928570D01*
X23673866Y-90928570D02*
X23435771Y-90928570D01*
X23435771Y-90928570D02*
X23245295Y-90880951D01*
X23245295Y-90880951D02*
X23150057Y-90833332D01*
X23150057Y-90833332D02*
X23102438Y-90785713D01*
X23102438Y-90785713D02*
X23054819Y-90690475D01*
X23054819Y-89738094D02*
X23054819Y-89642856D01*
X23054819Y-89642856D02*
X23102438Y-89547618D01*
X23102438Y-89547618D02*
X23150057Y-89499999D01*
X23150057Y-89499999D02*
X23245295Y-89452380D01*
X23245295Y-89452380D02*
X23435771Y-89404761D01*
X23435771Y-89404761D02*
X23673866Y-89404761D01*
X23673866Y-89404761D02*
X23864342Y-89452380D01*
X23864342Y-89452380D02*
X23959580Y-89499999D01*
X23959580Y-89499999D02*
X24007200Y-89547618D01*
X24007200Y-89547618D02*
X24054819Y-89642856D01*
X24054819Y-89642856D02*
X24054819Y-89738094D01*
X24054819Y-89738094D02*
X24007200Y-89833332D01*
X24007200Y-89833332D02*
X23959580Y-89880951D01*
X23959580Y-89880951D02*
X23864342Y-89928570D01*
X23864342Y-89928570D02*
X23673866Y-89976189D01*
X23673866Y-89976189D02*
X23435771Y-89976189D01*
X23435771Y-89976189D02*
X23245295Y-89928570D01*
X23245295Y-89928570D02*
X23150057Y-89880951D01*
X23150057Y-89880951D02*
X23102438Y-89833332D01*
X23102438Y-89833332D02*
X23054819Y-89738094D01*
X23054819Y-88785713D02*
X23054819Y-88690475D01*
X23054819Y-88690475D02*
X23102438Y-88595237D01*
X23102438Y-88595237D02*
X23150057Y-88547618D01*
X23150057Y-88547618D02*
X23245295Y-88499999D01*
X23245295Y-88499999D02*
X23435771Y-88452380D01*
X23435771Y-88452380D02*
X23673866Y-88452380D01*
X23673866Y-88452380D02*
X23864342Y-88499999D01*
X23864342Y-88499999D02*
X23959580Y-88547618D01*
X23959580Y-88547618D02*
X24007200Y-88595237D01*
X24007200Y-88595237D02*
X24054819Y-88690475D01*
X24054819Y-88690475D02*
X24054819Y-88785713D01*
X24054819Y-88785713D02*
X24007200Y-88880951D01*
X24007200Y-88880951D02*
X23959580Y-88928570D01*
X23959580Y-88928570D02*
X23864342Y-88976189D01*
X23864342Y-88976189D02*
X23673866Y-89023808D01*
X23673866Y-89023808D02*
X23435771Y-89023808D01*
X23435771Y-89023808D02*
X23245295Y-88976189D01*
X23245295Y-88976189D02*
X23150057Y-88928570D01*
X23150057Y-88928570D02*
X23102438Y-88880951D01*
X23102438Y-88880951D02*
X23054819Y-88785713D01*
X24054819Y-87261903D02*
X23388152Y-87261903D01*
X23483390Y-87261903D02*
X23435771Y-87214284D01*
X23435771Y-87214284D02*
X23388152Y-87119046D01*
X23388152Y-87119046D02*
X23388152Y-86976189D01*
X23388152Y-86976189D02*
X23435771Y-86880951D01*
X23435771Y-86880951D02*
X23531009Y-86833332D01*
X23531009Y-86833332D02*
X24054819Y-86833332D01*
X23531009Y-86833332D02*
X23435771Y-86785713D01*
X23435771Y-86785713D02*
X23388152Y-86690475D01*
X23388152Y-86690475D02*
X23388152Y-86547618D01*
X23388152Y-86547618D02*
X23435771Y-86452379D01*
X23435771Y-86452379D02*
X23531009Y-86404760D01*
X23531009Y-86404760D02*
X24054819Y-86404760D01*
X24054819Y-85928570D02*
X23388152Y-85928570D01*
X23483390Y-85928570D02*
X23435771Y-85880951D01*
X23435771Y-85880951D02*
X23388152Y-85785713D01*
X23388152Y-85785713D02*
X23388152Y-85642856D01*
X23388152Y-85642856D02*
X23435771Y-85547618D01*
X23435771Y-85547618D02*
X23531009Y-85499999D01*
X23531009Y-85499999D02*
X24054819Y-85499999D01*
X23531009Y-85499999D02*
X23435771Y-85452380D01*
X23435771Y-85452380D02*
X23388152Y-85357142D01*
X23388152Y-85357142D02*
X23388152Y-85214285D01*
X23388152Y-85214285D02*
X23435771Y-85119046D01*
X23435771Y-85119046D02*
X23531009Y-85071427D01*
X23531009Y-85071427D02*
X24054819Y-85071427D01*
X76500000Y-77000000D02*
X24163580Y-77000000D01*
X76500000Y-109000000D02*
X24163580Y-109000000D01*
X24750000Y-77000000D02*
X24750000Y-109000000D01*
X24750000Y-77000000D02*
X24750000Y-109000000D01*
X24750000Y-77000000D02*
X25336421Y-78126504D01*
X24750000Y-77000000D02*
X24163579Y-78126504D01*
X24750000Y-109000000D02*
X24163579Y-107873496D01*
X24750000Y-109000000D02*
X25336421Y-107873496D01*
X159559524Y-41650057D02*
X159607143Y-41602438D01*
X159607143Y-41602438D02*
X159702381Y-41554819D01*
X159702381Y-41554819D02*
X159940476Y-41554819D01*
X159940476Y-41554819D02*
X160035714Y-41602438D01*
X160035714Y-41602438D02*
X160083333Y-41650057D01*
X160083333Y-41650057D02*
X160130952Y-41745295D01*
X160130952Y-41745295D02*
X160130952Y-41840533D01*
X160130952Y-41840533D02*
X160083333Y-41983390D01*
X160083333Y-41983390D02*
X159511905Y-42554819D01*
X159511905Y-42554819D02*
X160130952Y-42554819D01*
X160702381Y-41983390D02*
X160607143Y-41935771D01*
X160607143Y-41935771D02*
X160559524Y-41888152D01*
X160559524Y-41888152D02*
X160511905Y-41792914D01*
X160511905Y-41792914D02*
X160511905Y-41745295D01*
X160511905Y-41745295D02*
X160559524Y-41650057D01*
X160559524Y-41650057D02*
X160607143Y-41602438D01*
X160607143Y-41602438D02*
X160702381Y-41554819D01*
X160702381Y-41554819D02*
X160892857Y-41554819D01*
X160892857Y-41554819D02*
X160988095Y-41602438D01*
X160988095Y-41602438D02*
X161035714Y-41650057D01*
X161035714Y-41650057D02*
X161083333Y-41745295D01*
X161083333Y-41745295D02*
X161083333Y-41792914D01*
X161083333Y-41792914D02*
X161035714Y-41888152D01*
X161035714Y-41888152D02*
X160988095Y-41935771D01*
X160988095Y-41935771D02*
X160892857Y-41983390D01*
X160892857Y-41983390D02*
X160702381Y-41983390D01*
X160702381Y-41983390D02*
X160607143Y-42031009D01*
X160607143Y-42031009D02*
X160559524Y-42078628D01*
X160559524Y-42078628D02*
X160511905Y-42173866D01*
X160511905Y-42173866D02*
X160511905Y-42364342D01*
X160511905Y-42364342D02*
X160559524Y-42459580D01*
X160559524Y-42459580D02*
X160607143Y-42507200D01*
X160607143Y-42507200D02*
X160702381Y-42554819D01*
X160702381Y-42554819D02*
X160892857Y-42554819D01*
X160892857Y-42554819D02*
X160988095Y-42507200D01*
X160988095Y-42507200D02*
X161035714Y-42459580D01*
X161035714Y-42459580D02*
X161083333Y-42364342D01*
X161083333Y-42364342D02*
X161083333Y-42173866D01*
X161083333Y-42173866D02*
X161035714Y-42078628D01*
X161035714Y-42078628D02*
X160988095Y-42031009D01*
X160988095Y-42031009D02*
X160892857Y-41983390D01*
X161511905Y-42459580D02*
X161559524Y-42507200D01*
X161559524Y-42507200D02*
X161511905Y-42554819D01*
X161511905Y-42554819D02*
X161464286Y-42507200D01*
X161464286Y-42507200D02*
X161511905Y-42459580D01*
X161511905Y-42459580D02*
X161511905Y-42554819D01*
X162464285Y-41554819D02*
X161988095Y-41554819D01*
X161988095Y-41554819D02*
X161940476Y-42031009D01*
X161940476Y-42031009D02*
X161988095Y-41983390D01*
X161988095Y-41983390D02*
X162083333Y-41935771D01*
X162083333Y-41935771D02*
X162321428Y-41935771D01*
X162321428Y-41935771D02*
X162416666Y-41983390D01*
X162416666Y-41983390D02*
X162464285Y-42031009D01*
X162464285Y-42031009D02*
X162511904Y-42126247D01*
X162511904Y-42126247D02*
X162511904Y-42364342D01*
X162511904Y-42364342D02*
X162464285Y-42459580D01*
X162464285Y-42459580D02*
X162416666Y-42507200D01*
X162416666Y-42507200D02*
X162321428Y-42554819D01*
X162321428Y-42554819D02*
X162083333Y-42554819D01*
X162083333Y-42554819D02*
X161988095Y-42507200D01*
X161988095Y-42507200D02*
X161940476Y-42459580D01*
X163702381Y-42554819D02*
X163702381Y-41888152D01*
X163702381Y-41983390D02*
X163750000Y-41935771D01*
X163750000Y-41935771D02*
X163845238Y-41888152D01*
X163845238Y-41888152D02*
X163988095Y-41888152D01*
X163988095Y-41888152D02*
X164083333Y-41935771D01*
X164083333Y-41935771D02*
X164130952Y-42031009D01*
X164130952Y-42031009D02*
X164130952Y-42554819D01*
X164130952Y-42031009D02*
X164178571Y-41935771D01*
X164178571Y-41935771D02*
X164273809Y-41888152D01*
X164273809Y-41888152D02*
X164416666Y-41888152D01*
X164416666Y-41888152D02*
X164511905Y-41935771D01*
X164511905Y-41935771D02*
X164559524Y-42031009D01*
X164559524Y-42031009D02*
X164559524Y-42554819D01*
X165035714Y-42554819D02*
X165035714Y-41888152D01*
X165035714Y-41983390D02*
X165083333Y-41935771D01*
X165083333Y-41935771D02*
X165178571Y-41888152D01*
X165178571Y-41888152D02*
X165321428Y-41888152D01*
X165321428Y-41888152D02*
X165416666Y-41935771D01*
X165416666Y-41935771D02*
X165464285Y-42031009D01*
X165464285Y-42031009D02*
X165464285Y-42554819D01*
X165464285Y-42031009D02*
X165511904Y-41935771D01*
X165511904Y-41935771D02*
X165607142Y-41888152D01*
X165607142Y-41888152D02*
X165749999Y-41888152D01*
X165749999Y-41888152D02*
X165845238Y-41935771D01*
X165845238Y-41935771D02*
X165892857Y-42031009D01*
X165892857Y-42031009D02*
X165892857Y-42554819D01*
X148500000Y-84500000D02*
X148500000Y-42663580D01*
X177000000Y-84500000D02*
X177000000Y-42663580D01*
X148500000Y-43250000D02*
X177000000Y-43250000D01*
X148500000Y-43250000D02*
X177000000Y-43250000D01*
X148500000Y-43250000D02*
X149626504Y-42663579D01*
X148500000Y-43250000D02*
X149626504Y-43836421D01*
X177000000Y-43250000D02*
X175873496Y-43836421D01*
X177000000Y-43250000D02*
X175873496Y-42663579D01*
X38304819Y-57119046D02*
X38304819Y-56928570D01*
X38304819Y-56928570D02*
X38257200Y-56833332D01*
X38257200Y-56833332D02*
X38209580Y-56785713D01*
X38209580Y-56785713D02*
X38066723Y-56690475D01*
X38066723Y-56690475D02*
X37876247Y-56642856D01*
X37876247Y-56642856D02*
X37495295Y-56642856D01*
X37495295Y-56642856D02*
X37400057Y-56690475D01*
X37400057Y-56690475D02*
X37352438Y-56738094D01*
X37352438Y-56738094D02*
X37304819Y-56833332D01*
X37304819Y-56833332D02*
X37304819Y-57023808D01*
X37304819Y-57023808D02*
X37352438Y-57119046D01*
X37352438Y-57119046D02*
X37400057Y-57166665D01*
X37400057Y-57166665D02*
X37495295Y-57214284D01*
X37495295Y-57214284D02*
X37733390Y-57214284D01*
X37733390Y-57214284D02*
X37828628Y-57166665D01*
X37828628Y-57166665D02*
X37876247Y-57119046D01*
X37876247Y-57119046D02*
X37923866Y-57023808D01*
X37923866Y-57023808D02*
X37923866Y-56833332D01*
X37923866Y-56833332D02*
X37876247Y-56738094D01*
X37876247Y-56738094D02*
X37828628Y-56690475D01*
X37828628Y-56690475D02*
X37733390Y-56642856D01*
X38209580Y-56214284D02*
X38257200Y-56166665D01*
X38257200Y-56166665D02*
X38304819Y-56214284D01*
X38304819Y-56214284D02*
X38257200Y-56261903D01*
X38257200Y-56261903D02*
X38209580Y-56214284D01*
X38209580Y-56214284D02*
X38304819Y-56214284D01*
X37304819Y-55547618D02*
X37304819Y-55452380D01*
X37304819Y-55452380D02*
X37352438Y-55357142D01*
X37352438Y-55357142D02*
X37400057Y-55309523D01*
X37400057Y-55309523D02*
X37495295Y-55261904D01*
X37495295Y-55261904D02*
X37685771Y-55214285D01*
X37685771Y-55214285D02*
X37923866Y-55214285D01*
X37923866Y-55214285D02*
X38114342Y-55261904D01*
X38114342Y-55261904D02*
X38209580Y-55309523D01*
X38209580Y-55309523D02*
X38257200Y-55357142D01*
X38257200Y-55357142D02*
X38304819Y-55452380D01*
X38304819Y-55452380D02*
X38304819Y-55547618D01*
X38304819Y-55547618D02*
X38257200Y-55642856D01*
X38257200Y-55642856D02*
X38209580Y-55690475D01*
X38209580Y-55690475D02*
X38114342Y-55738094D01*
X38114342Y-55738094D02*
X37923866Y-55785713D01*
X37923866Y-55785713D02*
X37685771Y-55785713D01*
X37685771Y-55785713D02*
X37495295Y-55738094D01*
X37495295Y-55738094D02*
X37400057Y-55690475D01*
X37400057Y-55690475D02*
X37352438Y-55642856D01*
X37352438Y-55642856D02*
X37304819Y-55547618D01*
X38304819Y-54023808D02*
X37638152Y-54023808D01*
X37733390Y-54023808D02*
X37685771Y-53976189D01*
X37685771Y-53976189D02*
X37638152Y-53880951D01*
X37638152Y-53880951D02*
X37638152Y-53738094D01*
X37638152Y-53738094D02*
X37685771Y-53642856D01*
X37685771Y-53642856D02*
X37781009Y-53595237D01*
X37781009Y-53595237D02*
X38304819Y-53595237D01*
X37781009Y-53595237D02*
X37685771Y-53547618D01*
X37685771Y-53547618D02*
X37638152Y-53452380D01*
X37638152Y-53452380D02*
X37638152Y-53309523D01*
X37638152Y-53309523D02*
X37685771Y-53214284D01*
X37685771Y-53214284D02*
X37781009Y-53166665D01*
X37781009Y-53166665D02*
X38304819Y-53166665D01*
X38304819Y-52690475D02*
X37638152Y-52690475D01*
X37733390Y-52690475D02*
X37685771Y-52642856D01*
X37685771Y-52642856D02*
X37638152Y-52547618D01*
X37638152Y-52547618D02*
X37638152Y-52404761D01*
X37638152Y-52404761D02*
X37685771Y-52309523D01*
X37685771Y-52309523D02*
X37781009Y-52261904D01*
X37781009Y-52261904D02*
X38304819Y-52261904D01*
X37781009Y-52261904D02*
X37685771Y-52214285D01*
X37685771Y-52214285D02*
X37638152Y-52119047D01*
X37638152Y-52119047D02*
X37638152Y-51976190D01*
X37638152Y-51976190D02*
X37685771Y-51880951D01*
X37685771Y-51880951D02*
X37781009Y-51833332D01*
X37781009Y-51833332D02*
X38304819Y-51833332D01*
X71000000Y-50000000D02*
X38413580Y-50000000D01*
X71000000Y-59000000D02*
X38413580Y-59000000D01*
X39000000Y-50000000D02*
X39000000Y-59000000D01*
X39000000Y-50000000D02*
X39000000Y-59000000D01*
X39000000Y-50000000D02*
X39586421Y-51126504D01*
X39000000Y-50000000D02*
X38413579Y-51126504D01*
X39000000Y-59000000D02*
X38413579Y-57873496D01*
X39000000Y-59000000D02*
X39586421Y-57873496D01*
X118130952Y-36281009D02*
X118273809Y-36328628D01*
X118273809Y-36328628D02*
X118321428Y-36376247D01*
X118321428Y-36376247D02*
X118369047Y-36471485D01*
X118369047Y-36471485D02*
X118369047Y-36614342D01*
X118369047Y-36614342D02*
X118321428Y-36709580D01*
X118321428Y-36709580D02*
X118273809Y-36757200D01*
X118273809Y-36757200D02*
X118178571Y-36804819D01*
X118178571Y-36804819D02*
X117797619Y-36804819D01*
X117797619Y-36804819D02*
X117797619Y-35804819D01*
X117797619Y-35804819D02*
X118130952Y-35804819D01*
X118130952Y-35804819D02*
X118226190Y-35852438D01*
X118226190Y-35852438D02*
X118273809Y-35900057D01*
X118273809Y-35900057D02*
X118321428Y-35995295D01*
X118321428Y-35995295D02*
X118321428Y-36090533D01*
X118321428Y-36090533D02*
X118273809Y-36185771D01*
X118273809Y-36185771D02*
X118226190Y-36233390D01*
X118226190Y-36233390D02*
X118130952Y-36281009D01*
X118130952Y-36281009D02*
X117797619Y-36281009D01*
X118988095Y-35804819D02*
X119178571Y-35804819D01*
X119178571Y-35804819D02*
X119273809Y-35852438D01*
X119273809Y-35852438D02*
X119369047Y-35947676D01*
X119369047Y-35947676D02*
X119416666Y-36138152D01*
X119416666Y-36138152D02*
X119416666Y-36471485D01*
X119416666Y-36471485D02*
X119369047Y-36661961D01*
X119369047Y-36661961D02*
X119273809Y-36757200D01*
X119273809Y-36757200D02*
X119178571Y-36804819D01*
X119178571Y-36804819D02*
X118988095Y-36804819D01*
X118988095Y-36804819D02*
X118892857Y-36757200D01*
X118892857Y-36757200D02*
X118797619Y-36661961D01*
X118797619Y-36661961D02*
X118750000Y-36471485D01*
X118750000Y-36471485D02*
X118750000Y-36138152D01*
X118750000Y-36138152D02*
X118797619Y-35947676D01*
X118797619Y-35947676D02*
X118892857Y-35852438D01*
X118892857Y-35852438D02*
X118988095Y-35804819D01*
X119797619Y-36519104D02*
X120273809Y-36519104D01*
X119702381Y-36804819D02*
X120035714Y-35804819D01*
X120035714Y-35804819D02*
X120369047Y-36804819D01*
X121273809Y-36804819D02*
X120940476Y-36328628D01*
X120702381Y-36804819D02*
X120702381Y-35804819D01*
X120702381Y-35804819D02*
X121083333Y-35804819D01*
X121083333Y-35804819D02*
X121178571Y-35852438D01*
X121178571Y-35852438D02*
X121226190Y-35900057D01*
X121226190Y-35900057D02*
X121273809Y-35995295D01*
X121273809Y-35995295D02*
X121273809Y-36138152D01*
X121273809Y-36138152D02*
X121226190Y-36233390D01*
X121226190Y-36233390D02*
X121178571Y-36281009D01*
X121178571Y-36281009D02*
X121083333Y-36328628D01*
X121083333Y-36328628D02*
X120702381Y-36328628D01*
X121702381Y-36804819D02*
X121702381Y-35804819D01*
X121702381Y-35804819D02*
X121940476Y-35804819D01*
X121940476Y-35804819D02*
X122083333Y-35852438D01*
X122083333Y-35852438D02*
X122178571Y-35947676D01*
X122178571Y-35947676D02*
X122226190Y-36042914D01*
X122226190Y-36042914D02*
X122273809Y-36233390D01*
X122273809Y-36233390D02*
X122273809Y-36376247D01*
X122273809Y-36376247D02*
X122226190Y-36566723D01*
X122226190Y-36566723D02*
X122178571Y-36661961D01*
X122178571Y-36661961D02*
X122083333Y-36757200D01*
X122083333Y-36757200D02*
X121940476Y-36804819D01*
X121940476Y-36804819D02*
X121702381Y-36804819D01*
X122464286Y-36900057D02*
X123226190Y-36900057D01*
X123988095Y-36804819D02*
X123416667Y-36804819D01*
X123702381Y-36804819D02*
X123702381Y-35804819D01*
X123702381Y-35804819D02*
X123607143Y-35947676D01*
X123607143Y-35947676D02*
X123511905Y-36042914D01*
X123511905Y-36042914D02*
X123416667Y-36090533D01*
X124845238Y-36138152D02*
X124845238Y-36804819D01*
X124607143Y-35757200D02*
X124369048Y-36471485D01*
X124369048Y-36471485D02*
X124988095Y-36471485D01*
X125511905Y-36233390D02*
X125416667Y-36185771D01*
X125416667Y-36185771D02*
X125369048Y-36138152D01*
X125369048Y-36138152D02*
X125321429Y-36042914D01*
X125321429Y-36042914D02*
X125321429Y-35995295D01*
X125321429Y-35995295D02*
X125369048Y-35900057D01*
X125369048Y-35900057D02*
X125416667Y-35852438D01*
X125416667Y-35852438D02*
X125511905Y-35804819D01*
X125511905Y-35804819D02*
X125702381Y-35804819D01*
X125702381Y-35804819D02*
X125797619Y-35852438D01*
X125797619Y-35852438D02*
X125845238Y-35900057D01*
X125845238Y-35900057D02*
X125892857Y-35995295D01*
X125892857Y-35995295D02*
X125892857Y-36042914D01*
X125892857Y-36042914D02*
X125845238Y-36138152D01*
X125845238Y-36138152D02*
X125797619Y-36185771D01*
X125797619Y-36185771D02*
X125702381Y-36233390D01*
X125702381Y-36233390D02*
X125511905Y-36233390D01*
X125511905Y-36233390D02*
X125416667Y-36281009D01*
X125416667Y-36281009D02*
X125369048Y-36328628D01*
X125369048Y-36328628D02*
X125321429Y-36423866D01*
X125321429Y-36423866D02*
X125321429Y-36614342D01*
X125321429Y-36614342D02*
X125369048Y-36709580D01*
X125369048Y-36709580D02*
X125416667Y-36757200D01*
X125416667Y-36757200D02*
X125511905Y-36804819D01*
X125511905Y-36804819D02*
X125702381Y-36804819D01*
X125702381Y-36804819D02*
X125797619Y-36757200D01*
X125797619Y-36757200D02*
X125845238Y-36709580D01*
X125845238Y-36709580D02*
X125892857Y-36614342D01*
X125892857Y-36614342D02*
X125892857Y-36423866D01*
X125892857Y-36423866D02*
X125845238Y-36328628D01*
X125845238Y-36328628D02*
X125797619Y-36281009D01*
X125797619Y-36281009D02*
X125702381Y-36233390D01*
X126321429Y-36709580D02*
X126369048Y-36757200D01*
X126369048Y-36757200D02*
X126321429Y-36804819D01*
X126321429Y-36804819D02*
X126273810Y-36757200D01*
X126273810Y-36757200D02*
X126321429Y-36709580D01*
X126321429Y-36709580D02*
X126321429Y-36804819D01*
X127273809Y-35804819D02*
X126797619Y-35804819D01*
X126797619Y-35804819D02*
X126750000Y-36281009D01*
X126750000Y-36281009D02*
X126797619Y-36233390D01*
X126797619Y-36233390D02*
X126892857Y-36185771D01*
X126892857Y-36185771D02*
X127130952Y-36185771D01*
X127130952Y-36185771D02*
X127226190Y-36233390D01*
X127226190Y-36233390D02*
X127273809Y-36281009D01*
X127273809Y-36281009D02*
X127321428Y-36376247D01*
X127321428Y-36376247D02*
X127321428Y-36614342D01*
X127321428Y-36614342D02*
X127273809Y-36709580D01*
X127273809Y-36709580D02*
X127226190Y-36757200D01*
X127226190Y-36757200D02*
X127130952Y-36804819D01*
X127130952Y-36804819D02*
X126892857Y-36804819D01*
X126892857Y-36804819D02*
X126797619Y-36757200D01*
X126797619Y-36757200D02*
X126750000Y-36709580D01*
X128511905Y-36804819D02*
X128511905Y-36138152D01*
X128511905Y-36233390D02*
X128559524Y-36185771D01*
X128559524Y-36185771D02*
X128654762Y-36138152D01*
X128654762Y-36138152D02*
X128797619Y-36138152D01*
X128797619Y-36138152D02*
X128892857Y-36185771D01*
X128892857Y-36185771D02*
X128940476Y-36281009D01*
X128940476Y-36281009D02*
X128940476Y-36804819D01*
X128940476Y-36281009D02*
X128988095Y-36185771D01*
X128988095Y-36185771D02*
X129083333Y-36138152D01*
X129083333Y-36138152D02*
X129226190Y-36138152D01*
X129226190Y-36138152D02*
X129321429Y-36185771D01*
X129321429Y-36185771D02*
X129369048Y-36281009D01*
X129369048Y-36281009D02*
X129369048Y-36804819D01*
X129845238Y-36804819D02*
X129845238Y-36138152D01*
X129845238Y-36233390D02*
X129892857Y-36185771D01*
X129892857Y-36185771D02*
X129988095Y-36138152D01*
X129988095Y-36138152D02*
X130130952Y-36138152D01*
X130130952Y-36138152D02*
X130226190Y-36185771D01*
X130226190Y-36185771D02*
X130273809Y-36281009D01*
X130273809Y-36281009D02*
X130273809Y-36804819D01*
X130273809Y-36281009D02*
X130321428Y-36185771D01*
X130321428Y-36185771D02*
X130416666Y-36138152D01*
X130416666Y-36138152D02*
X130559523Y-36138152D01*
X130559523Y-36138152D02*
X130654762Y-36185771D01*
X130654762Y-36185771D02*
X130702381Y-36281009D01*
X130702381Y-36281009D02*
X130702381Y-36804819D01*
X50000000Y-49500000D02*
X50000000Y-36913580D01*
X198500000Y-49500000D02*
X198500000Y-36913580D01*
X50000000Y-37500000D02*
X198500000Y-37500000D01*
X50000000Y-37500000D02*
X198500000Y-37500000D01*
X50000000Y-37500000D02*
X51126504Y-36913579D01*
X50000000Y-37500000D02*
X51126504Y-38086421D01*
X198500000Y-37500000D02*
X197373496Y-38086421D01*
X198500000Y-37500000D02*
X197373496Y-36913579D01*
X180380953Y-25400057D02*
X180428572Y-25352438D01*
X180428572Y-25352438D02*
X180523810Y-25304819D01*
X180523810Y-25304819D02*
X180761905Y-25304819D01*
X180761905Y-25304819D02*
X180857143Y-25352438D01*
X180857143Y-25352438D02*
X180904762Y-25400057D01*
X180904762Y-25400057D02*
X180952381Y-25495295D01*
X180952381Y-25495295D02*
X180952381Y-25590533D01*
X180952381Y-25590533D02*
X180904762Y-25733390D01*
X180904762Y-25733390D02*
X180333334Y-26304819D01*
X180333334Y-26304819D02*
X180952381Y-26304819D01*
X181285715Y-25304819D02*
X181952381Y-25304819D01*
X181952381Y-25304819D02*
X181523810Y-26304819D01*
X182333334Y-26209580D02*
X182380953Y-26257200D01*
X182380953Y-26257200D02*
X182333334Y-26304819D01*
X182333334Y-26304819D02*
X182285715Y-26257200D01*
X182285715Y-26257200D02*
X182333334Y-26209580D01*
X182333334Y-26209580D02*
X182333334Y-26304819D01*
X183000000Y-25304819D02*
X183095238Y-25304819D01*
X183095238Y-25304819D02*
X183190476Y-25352438D01*
X183190476Y-25352438D02*
X183238095Y-25400057D01*
X183238095Y-25400057D02*
X183285714Y-25495295D01*
X183285714Y-25495295D02*
X183333333Y-25685771D01*
X183333333Y-25685771D02*
X183333333Y-25923866D01*
X183333333Y-25923866D02*
X183285714Y-26114342D01*
X183285714Y-26114342D02*
X183238095Y-26209580D01*
X183238095Y-26209580D02*
X183190476Y-26257200D01*
X183190476Y-26257200D02*
X183095238Y-26304819D01*
X183095238Y-26304819D02*
X183000000Y-26304819D01*
X183000000Y-26304819D02*
X182904762Y-26257200D01*
X182904762Y-26257200D02*
X182857143Y-26209580D01*
X182857143Y-26209580D02*
X182809524Y-26114342D01*
X182809524Y-26114342D02*
X182761905Y-25923866D01*
X182761905Y-25923866D02*
X182761905Y-25685771D01*
X182761905Y-25685771D02*
X182809524Y-25495295D01*
X182809524Y-25495295D02*
X182857143Y-25400057D01*
X182857143Y-25400057D02*
X182904762Y-25352438D01*
X182904762Y-25352438D02*
X183000000Y-25304819D01*
X183952381Y-25304819D02*
X184047619Y-25304819D01*
X184047619Y-25304819D02*
X184142857Y-25352438D01*
X184142857Y-25352438D02*
X184190476Y-25400057D01*
X184190476Y-25400057D02*
X184238095Y-25495295D01*
X184238095Y-25495295D02*
X184285714Y-25685771D01*
X184285714Y-25685771D02*
X184285714Y-25923866D01*
X184285714Y-25923866D02*
X184238095Y-26114342D01*
X184238095Y-26114342D02*
X184190476Y-26209580D01*
X184190476Y-26209580D02*
X184142857Y-26257200D01*
X184142857Y-26257200D02*
X184047619Y-26304819D01*
X184047619Y-26304819D02*
X183952381Y-26304819D01*
X183952381Y-26304819D02*
X183857143Y-26257200D01*
X183857143Y-26257200D02*
X183809524Y-26209580D01*
X183809524Y-26209580D02*
X183761905Y-26114342D01*
X183761905Y-26114342D02*
X183714286Y-25923866D01*
X183714286Y-25923866D02*
X183714286Y-25685771D01*
X183714286Y-25685771D02*
X183761905Y-25495295D01*
X183761905Y-25495295D02*
X183809524Y-25400057D01*
X183809524Y-25400057D02*
X183857143Y-25352438D01*
X183857143Y-25352438D02*
X183952381Y-25304819D01*
X184904762Y-25304819D02*
X185000000Y-25304819D01*
X185000000Y-25304819D02*
X185095238Y-25352438D01*
X185095238Y-25352438D02*
X185142857Y-25400057D01*
X185142857Y-25400057D02*
X185190476Y-25495295D01*
X185190476Y-25495295D02*
X185238095Y-25685771D01*
X185238095Y-25685771D02*
X185238095Y-25923866D01*
X185238095Y-25923866D02*
X185190476Y-26114342D01*
X185190476Y-26114342D02*
X185142857Y-26209580D01*
X185142857Y-26209580D02*
X185095238Y-26257200D01*
X185095238Y-26257200D02*
X185000000Y-26304819D01*
X185000000Y-26304819D02*
X184904762Y-26304819D01*
X184904762Y-26304819D02*
X184809524Y-26257200D01*
X184809524Y-26257200D02*
X184761905Y-26209580D01*
X184761905Y-26209580D02*
X184714286Y-26114342D01*
X184714286Y-26114342D02*
X184666667Y-25923866D01*
X184666667Y-25923866D02*
X184666667Y-25685771D01*
X184666667Y-25685771D02*
X184714286Y-25495295D01*
X184714286Y-25495295D02*
X184761905Y-25400057D01*
X184761905Y-25400057D02*
X184809524Y-25352438D01*
X184809524Y-25352438D02*
X184904762Y-25304819D01*
X185857143Y-25304819D02*
X185952381Y-25304819D01*
X185952381Y-25304819D02*
X186047619Y-25352438D01*
X186047619Y-25352438D02*
X186095238Y-25400057D01*
X186095238Y-25400057D02*
X186142857Y-25495295D01*
X186142857Y-25495295D02*
X186190476Y-25685771D01*
X186190476Y-25685771D02*
X186190476Y-25923866D01*
X186190476Y-25923866D02*
X186142857Y-26114342D01*
X186142857Y-26114342D02*
X186095238Y-26209580D01*
X186095238Y-26209580D02*
X186047619Y-26257200D01*
X186047619Y-26257200D02*
X185952381Y-26304819D01*
X185952381Y-26304819D02*
X185857143Y-26304819D01*
X185857143Y-26304819D02*
X185761905Y-26257200D01*
X185761905Y-26257200D02*
X185714286Y-26209580D01*
X185714286Y-26209580D02*
X185666667Y-26114342D01*
X185666667Y-26114342D02*
X185619048Y-25923866D01*
X185619048Y-25923866D02*
X185619048Y-25685771D01*
X185619048Y-25685771D02*
X185666667Y-25495295D01*
X185666667Y-25495295D02*
X185714286Y-25400057D01*
X185714286Y-25400057D02*
X185761905Y-25352438D01*
X185761905Y-25352438D02*
X185857143Y-25304819D01*
X187380953Y-26304819D02*
X187380953Y-25638152D01*
X187380953Y-25733390D02*
X187428572Y-25685771D01*
X187428572Y-25685771D02*
X187523810Y-25638152D01*
X187523810Y-25638152D02*
X187666667Y-25638152D01*
X187666667Y-25638152D02*
X187761905Y-25685771D01*
X187761905Y-25685771D02*
X187809524Y-25781009D01*
X187809524Y-25781009D02*
X187809524Y-26304819D01*
X187809524Y-25781009D02*
X187857143Y-25685771D01*
X187857143Y-25685771D02*
X187952381Y-25638152D01*
X187952381Y-25638152D02*
X188095238Y-25638152D01*
X188095238Y-25638152D02*
X188190477Y-25685771D01*
X188190477Y-25685771D02*
X188238096Y-25781009D01*
X188238096Y-25781009D02*
X188238096Y-26304819D01*
X188714286Y-26304819D02*
X188714286Y-25638152D01*
X188714286Y-25733390D02*
X188761905Y-25685771D01*
X188761905Y-25685771D02*
X188857143Y-25638152D01*
X188857143Y-25638152D02*
X189000000Y-25638152D01*
X189000000Y-25638152D02*
X189095238Y-25685771D01*
X189095238Y-25685771D02*
X189142857Y-25781009D01*
X189142857Y-25781009D02*
X189142857Y-26304819D01*
X189142857Y-25781009D02*
X189190476Y-25685771D01*
X189190476Y-25685771D02*
X189285714Y-25638152D01*
X189285714Y-25638152D02*
X189428571Y-25638152D01*
X189428571Y-25638152D02*
X189523810Y-25685771D01*
X189523810Y-25685771D02*
X189571429Y-25781009D01*
X189571429Y-25781009D02*
X189571429Y-26304819D01*
X171500000Y-76000000D02*
X171500000Y-26413580D01*
X198500000Y-76000000D02*
X198500000Y-26413580D01*
X171500000Y-27000000D02*
X198500000Y-27000000D01*
X171500000Y-27000000D02*
X198500000Y-27000000D01*
X171500000Y-27000000D02*
X172626504Y-26413579D01*
X171500000Y-27000000D02*
X172626504Y-27586421D01*
X198500000Y-27000000D02*
X197373496Y-27586421D01*
X198500000Y-27000000D02*
X197373496Y-26413579D01*
X43554819Y-54690475D02*
X43554819Y-55166665D01*
X43554819Y-55166665D02*
X44031009Y-55214284D01*
X44031009Y-55214284D02*
X43983390Y-55166665D01*
X43983390Y-55166665D02*
X43935771Y-55071427D01*
X43935771Y-55071427D02*
X43935771Y-54833332D01*
X43935771Y-54833332D02*
X43983390Y-54738094D01*
X43983390Y-54738094D02*
X44031009Y-54690475D01*
X44031009Y-54690475D02*
X44126247Y-54642856D01*
X44126247Y-54642856D02*
X44364342Y-54642856D01*
X44364342Y-54642856D02*
X44459580Y-54690475D01*
X44459580Y-54690475D02*
X44507200Y-54738094D01*
X44507200Y-54738094D02*
X44554819Y-54833332D01*
X44554819Y-54833332D02*
X44554819Y-55071427D01*
X44554819Y-55071427D02*
X44507200Y-55166665D01*
X44507200Y-55166665D02*
X44459580Y-55214284D01*
X44459580Y-54214284D02*
X44507200Y-54166665D01*
X44507200Y-54166665D02*
X44554819Y-54214284D01*
X44554819Y-54214284D02*
X44507200Y-54261903D01*
X44507200Y-54261903D02*
X44459580Y-54214284D01*
X44459580Y-54214284D02*
X44554819Y-54214284D01*
X43554819Y-53547618D02*
X43554819Y-53452380D01*
X43554819Y-53452380D02*
X43602438Y-53357142D01*
X43602438Y-53357142D02*
X43650057Y-53309523D01*
X43650057Y-53309523D02*
X43745295Y-53261904D01*
X43745295Y-53261904D02*
X43935771Y-53214285D01*
X43935771Y-53214285D02*
X44173866Y-53214285D01*
X44173866Y-53214285D02*
X44364342Y-53261904D01*
X44364342Y-53261904D02*
X44459580Y-53309523D01*
X44459580Y-53309523D02*
X44507200Y-53357142D01*
X44507200Y-53357142D02*
X44554819Y-53452380D01*
X44554819Y-53452380D02*
X44554819Y-53547618D01*
X44554819Y-53547618D02*
X44507200Y-53642856D01*
X44507200Y-53642856D02*
X44459580Y-53690475D01*
X44459580Y-53690475D02*
X44364342Y-53738094D01*
X44364342Y-53738094D02*
X44173866Y-53785713D01*
X44173866Y-53785713D02*
X43935771Y-53785713D01*
X43935771Y-53785713D02*
X43745295Y-53738094D01*
X43745295Y-53738094D02*
X43650057Y-53690475D01*
X43650057Y-53690475D02*
X43602438Y-53642856D01*
X43602438Y-53642856D02*
X43554819Y-53547618D01*
X44554819Y-52023808D02*
X43888152Y-52023808D01*
X43983390Y-52023808D02*
X43935771Y-51976189D01*
X43935771Y-51976189D02*
X43888152Y-51880951D01*
X43888152Y-51880951D02*
X43888152Y-51738094D01*
X43888152Y-51738094D02*
X43935771Y-51642856D01*
X43935771Y-51642856D02*
X44031009Y-51595237D01*
X44031009Y-51595237D02*
X44554819Y-51595237D01*
X44031009Y-51595237D02*
X43935771Y-51547618D01*
X43935771Y-51547618D02*
X43888152Y-51452380D01*
X43888152Y-51452380D02*
X43888152Y-51309523D01*
X43888152Y-51309523D02*
X43935771Y-51214284D01*
X43935771Y-51214284D02*
X44031009Y-51166665D01*
X44031009Y-51166665D02*
X44554819Y-51166665D01*
X44554819Y-50690475D02*
X43888152Y-50690475D01*
X43983390Y-50690475D02*
X43935771Y-50642856D01*
X43935771Y-50642856D02*
X43888152Y-50547618D01*
X43888152Y-50547618D02*
X43888152Y-50404761D01*
X43888152Y-50404761D02*
X43935771Y-50309523D01*
X43935771Y-50309523D02*
X44031009Y-50261904D01*
X44031009Y-50261904D02*
X44554819Y-50261904D01*
X44031009Y-50261904D02*
X43935771Y-50214285D01*
X43935771Y-50214285D02*
X43888152Y-50119047D01*
X43888152Y-50119047D02*
X43888152Y-49976190D01*
X43888152Y-49976190D02*
X43935771Y-49880951D01*
X43935771Y-49880951D02*
X44031009Y-49833332D01*
X44031009Y-49833332D02*
X44554819Y-49833332D01*
X54500000Y-55000000D02*
X44663580Y-55000000D01*
X54500000Y-50000000D02*
X44663580Y-50000000D01*
X45250000Y-55000000D02*
X45250000Y-50000000D01*
X45250000Y-55000000D02*
X45250000Y-50000000D01*
X45250000Y-55000000D02*
X44663579Y-53873496D01*
X45250000Y-55000000D02*
X45836421Y-53873496D01*
X45250000Y-50000000D02*
X45836421Y-51126504D01*
X45250000Y-50000000D02*
X44663579Y-51126504D01*
X83623253Y-57157200D02*
X83766110Y-57204819D01*
X83766110Y-57204819D02*
X84004205Y-57204819D01*
X84004205Y-57204819D02*
X84099443Y-57157200D01*
X84099443Y-57157200D02*
X84147062Y-57109580D01*
X84147062Y-57109580D02*
X84194681Y-57014342D01*
X84194681Y-57014342D02*
X84194681Y-56919104D01*
X84194681Y-56919104D02*
X84147062Y-56823866D01*
X84147062Y-56823866D02*
X84099443Y-56776247D01*
X84099443Y-56776247D02*
X84004205Y-56728628D01*
X84004205Y-56728628D02*
X83813729Y-56681009D01*
X83813729Y-56681009D02*
X83718491Y-56633390D01*
X83718491Y-56633390D02*
X83670872Y-56585771D01*
X83670872Y-56585771D02*
X83623253Y-56490533D01*
X83623253Y-56490533D02*
X83623253Y-56395295D01*
X83623253Y-56395295D02*
X83670872Y-56300057D01*
X83670872Y-56300057D02*
X83718491Y-56252438D01*
X83718491Y-56252438D02*
X83813729Y-56204819D01*
X83813729Y-56204819D02*
X84051824Y-56204819D01*
X84051824Y-56204819D02*
X84194681Y-56252438D01*
X84528015Y-56204819D02*
X84766110Y-57204819D01*
X84766110Y-57204819D02*
X84956586Y-56490533D01*
X84956586Y-56490533D02*
X85147062Y-57204819D01*
X85147062Y-57204819D02*
X85385158Y-56204819D01*
X85670872Y-56204819D02*
X86289919Y-56204819D01*
X86289919Y-56204819D02*
X85956586Y-56585771D01*
X85956586Y-56585771D02*
X86099443Y-56585771D01*
X86099443Y-56585771D02*
X86194681Y-56633390D01*
X86194681Y-56633390D02*
X86242300Y-56681009D01*
X86242300Y-56681009D02*
X86289919Y-56776247D01*
X86289919Y-56776247D02*
X86289919Y-57014342D01*
X86289919Y-57014342D02*
X86242300Y-57109580D01*
X86242300Y-57109580D02*
X86194681Y-57157200D01*
X86194681Y-57157200D02*
X86099443Y-57204819D01*
X86099443Y-57204819D02*
X85813729Y-57204819D01*
X85813729Y-57204819D02*
X85718491Y-57157200D01*
X85718491Y-57157200D02*
X85670872Y-57109580D01*
D12*
X157091904Y-52531927D02*
X157091904Y-52131927D01*
X157320475Y-52531927D02*
X157149046Y-52303356D01*
X157320475Y-52131927D02*
X157091904Y-52360499D01*
X157491904Y-52322403D02*
X157625237Y-52322403D01*
X157682380Y-52531927D02*
X157491904Y-52531927D01*
X157491904Y-52531927D02*
X157491904Y-52131927D01*
X157491904Y-52131927D02*
X157682380Y-52131927D01*
X157853809Y-52322403D02*
X157987142Y-52322403D01*
X158044285Y-52531927D02*
X157853809Y-52531927D01*
X157853809Y-52531927D02*
X157853809Y-52131927D01*
X157853809Y-52131927D02*
X158044285Y-52131927D01*
X158215714Y-52531927D02*
X158215714Y-52131927D01*
X158215714Y-52131927D02*
X158368095Y-52131927D01*
X158368095Y-52131927D02*
X158406190Y-52150975D01*
X158406190Y-52150975D02*
X158425237Y-52170022D01*
X158425237Y-52170022D02*
X158444285Y-52208118D01*
X158444285Y-52208118D02*
X158444285Y-52265260D01*
X158444285Y-52265260D02*
X158425237Y-52303356D01*
X158425237Y-52303356D02*
X158406190Y-52322403D01*
X158406190Y-52322403D02*
X158368095Y-52341451D01*
X158368095Y-52341451D02*
X158215714Y-52341451D01*
X158691904Y-52131927D02*
X158768095Y-52131927D01*
X158768095Y-52131927D02*
X158806190Y-52150975D01*
X158806190Y-52150975D02*
X158844285Y-52189070D01*
X158844285Y-52189070D02*
X158863333Y-52265260D01*
X158863333Y-52265260D02*
X158863333Y-52398594D01*
X158863333Y-52398594D02*
X158844285Y-52474784D01*
X158844285Y-52474784D02*
X158806190Y-52512880D01*
X158806190Y-52512880D02*
X158768095Y-52531927D01*
X158768095Y-52531927D02*
X158691904Y-52531927D01*
X158691904Y-52531927D02*
X158653809Y-52512880D01*
X158653809Y-52512880D02*
X158615714Y-52474784D01*
X158615714Y-52474784D02*
X158596666Y-52398594D01*
X158596666Y-52398594D02*
X158596666Y-52265260D01*
X158596666Y-52265260D02*
X158615714Y-52189070D01*
X158615714Y-52189070D02*
X158653809Y-52150975D01*
X158653809Y-52150975D02*
X158691904Y-52131927D01*
X159034762Y-52131927D02*
X159034762Y-52455737D01*
X159034762Y-52455737D02*
X159053809Y-52493832D01*
X159053809Y-52493832D02*
X159072857Y-52512880D01*
X159072857Y-52512880D02*
X159110952Y-52531927D01*
X159110952Y-52531927D02*
X159187143Y-52531927D01*
X159187143Y-52531927D02*
X159225238Y-52512880D01*
X159225238Y-52512880D02*
X159244285Y-52493832D01*
X159244285Y-52493832D02*
X159263333Y-52455737D01*
X159263333Y-52455737D02*
X159263333Y-52131927D01*
X159396667Y-52131927D02*
X159625238Y-52131927D01*
X159510952Y-52531927D02*
X159510952Y-52131927D01*
D11*
X160509762Y-62382419D02*
X160509762Y-61382419D01*
X161081190Y-62382419D02*
X160652619Y-61810990D01*
X161081190Y-61382419D02*
X160509762Y-61953847D01*
X161509762Y-61858609D02*
X161843095Y-61858609D01*
X161985952Y-62382419D02*
X161509762Y-62382419D01*
X161509762Y-62382419D02*
X161509762Y-61382419D01*
X161509762Y-61382419D02*
X161985952Y-61382419D01*
X162414524Y-61858609D02*
X162747857Y-61858609D01*
X162890714Y-62382419D02*
X162414524Y-62382419D01*
X162414524Y-62382419D02*
X162414524Y-61382419D01*
X162414524Y-61382419D02*
X162890714Y-61382419D01*
X163319286Y-62382419D02*
X163319286Y-61382419D01*
X163319286Y-61382419D02*
X163700238Y-61382419D01*
X163700238Y-61382419D02*
X163795476Y-61430038D01*
X163795476Y-61430038D02*
X163843095Y-61477657D01*
X163843095Y-61477657D02*
X163890714Y-61572895D01*
X163890714Y-61572895D02*
X163890714Y-61715752D01*
X163890714Y-61715752D02*
X163843095Y-61810990D01*
X163843095Y-61810990D02*
X163795476Y-61858609D01*
X163795476Y-61858609D02*
X163700238Y-61906228D01*
X163700238Y-61906228D02*
X163319286Y-61906228D01*
X164509762Y-61382419D02*
X164700238Y-61382419D01*
X164700238Y-61382419D02*
X164795476Y-61430038D01*
X164795476Y-61430038D02*
X164890714Y-61525276D01*
X164890714Y-61525276D02*
X164938333Y-61715752D01*
X164938333Y-61715752D02*
X164938333Y-62049085D01*
X164938333Y-62049085D02*
X164890714Y-62239561D01*
X164890714Y-62239561D02*
X164795476Y-62334800D01*
X164795476Y-62334800D02*
X164700238Y-62382419D01*
X164700238Y-62382419D02*
X164509762Y-62382419D01*
X164509762Y-62382419D02*
X164414524Y-62334800D01*
X164414524Y-62334800D02*
X164319286Y-62239561D01*
X164319286Y-62239561D02*
X164271667Y-62049085D01*
X164271667Y-62049085D02*
X164271667Y-61715752D01*
X164271667Y-61715752D02*
X164319286Y-61525276D01*
X164319286Y-61525276D02*
X164414524Y-61430038D01*
X164414524Y-61430038D02*
X164509762Y-61382419D01*
X165366905Y-61382419D02*
X165366905Y-62191942D01*
X165366905Y-62191942D02*
X165414524Y-62287180D01*
X165414524Y-62287180D02*
X165462143Y-62334800D01*
X165462143Y-62334800D02*
X165557381Y-62382419D01*
X165557381Y-62382419D02*
X165747857Y-62382419D01*
X165747857Y-62382419D02*
X165843095Y-62334800D01*
X165843095Y-62334800D02*
X165890714Y-62287180D01*
X165890714Y-62287180D02*
X165938333Y-62191942D01*
X165938333Y-62191942D02*
X165938333Y-61382419D01*
X166271667Y-61382419D02*
X166843095Y-61382419D01*
X166557381Y-62382419D02*
X166557381Y-61382419D01*
D13*
X169652891Y-65107141D02*
X169052891Y-65107141D01*
X169652891Y-64764284D02*
X169310034Y-65021427D01*
X169052891Y-64764284D02*
X169395748Y-65107141D01*
X169338605Y-64507141D02*
X169338605Y-64307141D01*
X169652891Y-64221427D02*
X169652891Y-64507141D01*
X169652891Y-64507141D02*
X169052891Y-64507141D01*
X169052891Y-64507141D02*
X169052891Y-64221427D01*
X169338605Y-63964284D02*
X169338605Y-63764284D01*
X169652891Y-63678570D02*
X169652891Y-63964284D01*
X169652891Y-63964284D02*
X169052891Y-63964284D01*
X169052891Y-63964284D02*
X169052891Y-63678570D01*
X169652891Y-63421427D02*
X169052891Y-63421427D01*
X169052891Y-63421427D02*
X169052891Y-63192856D01*
X169052891Y-63192856D02*
X169081462Y-63135713D01*
X169081462Y-63135713D02*
X169110034Y-63107142D01*
X169110034Y-63107142D02*
X169167177Y-63078570D01*
X169167177Y-63078570D02*
X169252891Y-63078570D01*
X169252891Y-63078570D02*
X169310034Y-63107142D01*
X169310034Y-63107142D02*
X169338605Y-63135713D01*
X169338605Y-63135713D02*
X169367177Y-63192856D01*
X169367177Y-63192856D02*
X169367177Y-63421427D01*
X169052891Y-62707142D02*
X169052891Y-62592856D01*
X169052891Y-62592856D02*
X169081462Y-62535713D01*
X169081462Y-62535713D02*
X169138605Y-62478570D01*
X169138605Y-62478570D02*
X169252891Y-62449999D01*
X169252891Y-62449999D02*
X169452891Y-62449999D01*
X169452891Y-62449999D02*
X169567177Y-62478570D01*
X169567177Y-62478570D02*
X169624320Y-62535713D01*
X169624320Y-62535713D02*
X169652891Y-62592856D01*
X169652891Y-62592856D02*
X169652891Y-62707142D01*
X169652891Y-62707142D02*
X169624320Y-62764285D01*
X169624320Y-62764285D02*
X169567177Y-62821427D01*
X169567177Y-62821427D02*
X169452891Y-62849999D01*
X169452891Y-62849999D02*
X169252891Y-62849999D01*
X169252891Y-62849999D02*
X169138605Y-62821427D01*
X169138605Y-62821427D02*
X169081462Y-62764285D01*
X169081462Y-62764285D02*
X169052891Y-62707142D01*
X169052891Y-62192856D02*
X169538605Y-62192856D01*
X169538605Y-62192856D02*
X169595748Y-62164285D01*
X169595748Y-62164285D02*
X169624320Y-62135714D01*
X169624320Y-62135714D02*
X169652891Y-62078571D01*
X169652891Y-62078571D02*
X169652891Y-61964285D01*
X169652891Y-61964285D02*
X169624320Y-61907142D01*
X169624320Y-61907142D02*
X169595748Y-61878571D01*
X169595748Y-61878571D02*
X169538605Y-61849999D01*
X169538605Y-61849999D02*
X169052891Y-61849999D01*
X169052891Y-61650000D02*
X169052891Y-61307143D01*
X169652891Y-61478571D02*
X169052891Y-61478571D01*
X168577891Y-59482141D02*
X167977891Y-59482141D01*
X168577891Y-59139284D02*
X168235034Y-59396427D01*
X167977891Y-59139284D02*
X168320748Y-59482141D01*
X168263605Y-58882141D02*
X168263605Y-58682141D01*
X168577891Y-58596427D02*
X168577891Y-58882141D01*
X168577891Y-58882141D02*
X167977891Y-58882141D01*
X167977891Y-58882141D02*
X167977891Y-58596427D01*
X168263605Y-58339284D02*
X168263605Y-58139284D01*
X168577891Y-58053570D02*
X168577891Y-58339284D01*
X168577891Y-58339284D02*
X167977891Y-58339284D01*
X167977891Y-58339284D02*
X167977891Y-58053570D01*
X168577891Y-57796427D02*
X167977891Y-57796427D01*
X167977891Y-57796427D02*
X167977891Y-57567856D01*
X167977891Y-57567856D02*
X168006462Y-57510713D01*
X168006462Y-57510713D02*
X168035034Y-57482142D01*
X168035034Y-57482142D02*
X168092177Y-57453570D01*
X168092177Y-57453570D02*
X168177891Y-57453570D01*
X168177891Y-57453570D02*
X168235034Y-57482142D01*
X168235034Y-57482142D02*
X168263605Y-57510713D01*
X168263605Y-57510713D02*
X168292177Y-57567856D01*
X168292177Y-57567856D02*
X168292177Y-57796427D01*
X167977891Y-57082142D02*
X167977891Y-56967856D01*
X167977891Y-56967856D02*
X168006462Y-56910713D01*
X168006462Y-56910713D02*
X168063605Y-56853570D01*
X168063605Y-56853570D02*
X168177891Y-56824999D01*
X168177891Y-56824999D02*
X168377891Y-56824999D01*
X168377891Y-56824999D02*
X168492177Y-56853570D01*
X168492177Y-56853570D02*
X168549320Y-56910713D01*
X168549320Y-56910713D02*
X168577891Y-56967856D01*
X168577891Y-56967856D02*
X168577891Y-57082142D01*
X168577891Y-57082142D02*
X168549320Y-57139285D01*
X168549320Y-57139285D02*
X168492177Y-57196427D01*
X168492177Y-57196427D02*
X168377891Y-57224999D01*
X168377891Y-57224999D02*
X168177891Y-57224999D01*
X168177891Y-57224999D02*
X168063605Y-57196427D01*
X168063605Y-57196427D02*
X168006462Y-57139285D01*
X168006462Y-57139285D02*
X167977891Y-57082142D01*
X167977891Y-56567856D02*
X168463605Y-56567856D01*
X168463605Y-56567856D02*
X168520748Y-56539285D01*
X168520748Y-56539285D02*
X168549320Y-56510714D01*
X168549320Y-56510714D02*
X168577891Y-56453571D01*
X168577891Y-56453571D02*
X168577891Y-56339285D01*
X168577891Y-56339285D02*
X168549320Y-56282142D01*
X168549320Y-56282142D02*
X168520748Y-56253571D01*
X168520748Y-56253571D02*
X168463605Y-56224999D01*
X168463605Y-56224999D02*
X167977891Y-56224999D01*
X167977891Y-56025000D02*
X167977891Y-55682143D01*
X168577891Y-55853571D02*
X167977891Y-55853571D01*
D14*
%TO.C,J16*%
X142800000Y-142400000D02*
G75*
G02*
X142200000Y-142400000I-300000J0D01*
G01*
X142200000Y-142400000D02*
G75*
G02*
X142800000Y-142400000I300000J0D01*
G01*
%TO.C,J11*%
X82550000Y-142400000D02*
G75*
G02*
X81950000Y-142400000I-300000J0D01*
G01*
X81950000Y-142400000D02*
G75*
G02*
X82550000Y-142400000I300000J0D01*
G01*
D10*
%TO.C,H2*%
X196700000Y-55000000D02*
G75*
G02*
X190300000Y-55000000I-3200000J0D01*
G01*
X190300000Y-55000000D02*
G75*
G02*
X196700000Y-55000000I3200000J0D01*
G01*
D14*
%TO.C,J19*%
X178800000Y-142400000D02*
G75*
G02*
X178200000Y-142400000I-300000J0D01*
G01*
X178200000Y-142400000D02*
G75*
G02*
X178800000Y-142400000I300000J0D01*
G01*
%TO.C,J8*%
X106550000Y-142400000D02*
G75*
G02*
X105950000Y-142400000I-300000J0D01*
G01*
X105950000Y-142400000D02*
G75*
G02*
X106550000Y-142400000I300000J0D01*
G01*
%TO.C,J7*%
X94550000Y-142400000D02*
G75*
G02*
X93950000Y-142400000I-300000J0D01*
G01*
X93950000Y-142400000D02*
G75*
G02*
X94550000Y-142400000I300000J0D01*
G01*
D10*
%TO.C,H1*%
X58200000Y-55000000D02*
G75*
G02*
X51800000Y-55000000I-3200000J0D01*
G01*
X51800000Y-55000000D02*
G75*
G02*
X58200000Y-55000000I3200000J0D01*
G01*
%TO.C,H7*%
X174700000Y-109000000D02*
G75*
G02*
X168300000Y-109000000I-3200000J0D01*
G01*
X168300000Y-109000000D02*
G75*
G02*
X174700000Y-109000000I3200000J0D01*
G01*
%TO.C,H4*%
X196700000Y-150000000D02*
G75*
G02*
X190300000Y-150000000I-3200000J0D01*
G01*
X190300000Y-150000000D02*
G75*
G02*
X196700000Y-150000000I3200000J0D01*
G01*
%TO.C,H8*%
X80200000Y-109000000D02*
G75*
G02*
X73800000Y-109000000I-3200000J0D01*
G01*
X73800000Y-109000000D02*
G75*
G02*
X80200000Y-109000000I3200000J0D01*
G01*
D14*
%TO.C,J17*%
X166800000Y-142400000D02*
G75*
G02*
X166200000Y-142400000I-300000J0D01*
G01*
X166200000Y-142400000D02*
G75*
G02*
X166800000Y-142400000I300000J0D01*
G01*
%TO.C,J18*%
X154800000Y-142400000D02*
G75*
G02*
X154200000Y-142400000I-300000J0D01*
G01*
X154200000Y-142400000D02*
G75*
G02*
X154800000Y-142400000I300000J0D01*
G01*
D10*
%TO.C,H6*%
X174700000Y-77000000D02*
G75*
G02*
X168300000Y-77000000I-3200000J0D01*
G01*
X168300000Y-77000000D02*
G75*
G02*
X174700000Y-77000000I3200000J0D01*
G01*
D14*
%TO.C,J12*%
X70550000Y-142400000D02*
G75*
G02*
X69950000Y-142400000I-300000J0D01*
G01*
X69950000Y-142400000D02*
G75*
G02*
X70550000Y-142400000I300000J0D01*
G01*
D10*
%TO.C,H3*%
X58200000Y-150000000D02*
G75*
G02*
X51800000Y-150000000I-3200000J0D01*
G01*
X51800000Y-150000000D02*
G75*
G02*
X58200000Y-150000000I3200000J0D01*
G01*
%TO.C,H5*%
X80200000Y-77000000D02*
G75*
G02*
X73800000Y-77000000I-3200000J0D01*
G01*
X73800000Y-77000000D02*
G75*
G02*
X80200000Y-77000000I3200000J0D01*
G01*
D15*
%TO.C,J4*%
X148251000Y-117900000D02*
G75*
G02*
X148051000Y-117900000I-100000J0D01*
G01*
X148051000Y-117900000D02*
G75*
G02*
X148251000Y-117900000I100000J0D01*
G01*
D16*
G36*
X155950000Y-113750000D02*
G01*
X146350000Y-113750000D01*
X146350000Y-113450000D01*
X155950000Y-113450000D01*
X155950000Y-113750000D01*
G37*
D15*
%TO.C,J3*%
X100449000Y-125100000D02*
G75*
G02*
X100249000Y-125100000I-100000J0D01*
G01*
X100249000Y-125100000D02*
G75*
G02*
X100449000Y-125100000I100000J0D01*
G01*
D16*
G36*
X102150000Y-129550000D02*
G01*
X92550000Y-129550000D01*
X92550000Y-129250000D01*
X102150000Y-129250000D01*
X102150000Y-129550000D01*
G37*
%TO.C,SW5*%
G36*
X54500000Y-79000000D02*
G01*
X54200000Y-79000000D01*
X54200000Y-65800000D01*
X54500000Y-65800000D01*
X54500000Y-79000000D01*
G37*
G36*
X66500000Y-79000000D02*
G01*
X54500000Y-79000000D01*
X54500000Y-78700000D01*
X66500000Y-78700000D01*
X66500000Y-79000000D01*
G37*
G36*
X66800000Y-65800000D02*
G01*
X54200000Y-65800000D01*
X54200000Y-65500000D01*
X66800000Y-65500000D01*
X66800000Y-65800000D01*
G37*
G36*
X66800000Y-79000000D02*
G01*
X66500000Y-79000000D01*
X66500000Y-65800000D01*
X66800000Y-65800000D01*
X66800000Y-79000000D01*
G37*
%TO.C,SW4*%
G36*
X182000000Y-79000000D02*
G01*
X181700000Y-79000000D01*
X181700000Y-65800000D01*
X182000000Y-65800000D01*
X182000000Y-79000000D01*
G37*
G36*
X194000000Y-79000000D02*
G01*
X182000000Y-79000000D01*
X182000000Y-78700000D01*
X194000000Y-78700000D01*
X194000000Y-79000000D01*
G37*
G36*
X194300000Y-65800000D02*
G01*
X181700000Y-65800000D01*
X181700000Y-65500000D01*
X194300000Y-65500000D01*
X194300000Y-65800000D01*
G37*
G36*
X194300000Y-79000000D02*
G01*
X194000000Y-79000000D01*
X194000000Y-65800000D01*
X194300000Y-65800000D01*
X194300000Y-79000000D01*
G37*
%TD*%
M02*
