%TF.GenerationSoftware,KiCad,Pcbnew,8.0.4*%
%TF.CreationDate,2024-08-25T23:45:08+02:00*%
%TF.ProjectId,KLST_PANDA,4b4c5354-5f50-4414-9e44-412e6b696361,rev?*%
%TF.SameCoordinates,Original*%
%TF.FileFunction,Soldermask,Top*%
%TF.FilePolarity,Negative*%
%FSLAX46Y46*%
G04 Gerber Fmt 4.6, Leading zero omitted, Abs format (unit mm)*
G04 Created by KiCad (PCBNEW 8.0.4) date 2024-08-25 23:45:08*
%MOMM*%
%LPD*%
G01*
G04 APERTURE LIST*
G04 Aperture macros list*
%AMRoundRect*
0 Rectangle with rounded corners*
0 $1 Rounding radius*
0 $2 $3 $4 $5 $6 $7 $8 $9 X,Y pos of 4 corners*
0 Add a 4 corners polygon primitive as box body*
4,1,4,$2,$3,$4,$5,$6,$7,$8,$9,$2,$3,0*
0 Add four circle primitives for the rounded corners*
1,1,$1+$1,$2,$3*
1,1,$1+$1,$4,$5*
1,1,$1+$1,$6,$7*
1,1,$1+$1,$8,$9*
0 Add four rect primitives between the rounded corners*
20,1,$1+$1,$2,$3,$4,$5,0*
20,1,$1+$1,$4,$5,$6,$7,0*
20,1,$1+$1,$6,$7,$8,$9,0*
20,1,$1+$1,$8,$9,$2,$3,0*%
G04 Aperture macros list end*
%ADD10C,2.500000*%
%ADD11RoundRect,0.140000X-0.170000X0.140000X-0.170000X-0.140000X0.170000X-0.140000X0.170000X0.140000X0*%
%ADD12RoundRect,0.140000X0.140000X0.170000X-0.140000X0.170000X-0.140000X-0.170000X0.140000X-0.170000X0*%
%ADD13RoundRect,0.250000X-0.250000X-0.475000X0.250000X-0.475000X0.250000X0.475000X-0.250000X0.475000X0*%
%ADD14RoundRect,0.250000X0.550000X-1.050000X0.550000X1.050000X-0.550000X1.050000X-0.550000X-1.050000X0*%
%ADD15R,3.700000X1.100000*%
%ADD16C,1.600000*%
%ADD17R,2.500000X1.500000*%
%ADD18R,3.400000X1.500000*%
%ADD19RoundRect,0.250000X-1.000000X-0.650000X1.000000X-0.650000X1.000000X0.650000X-1.000000X0.650000X0*%
%ADD20RoundRect,0.135000X0.185000X-0.135000X0.185000X0.135000X-0.185000X0.135000X-0.185000X-0.135000X0*%
%ADD21RoundRect,0.140000X0.170000X-0.140000X0.170000X0.140000X-0.170000X0.140000X-0.170000X-0.140000X0*%
%ADD22RoundRect,0.250000X0.450000X0.425000X-0.450000X0.425000X-0.450000X-0.425000X0.450000X-0.425000X0*%
%ADD23RoundRect,0.140000X-0.140000X-0.170000X0.140000X-0.170000X0.140000X0.170000X-0.140000X0.170000X0*%
%ADD24RoundRect,0.200000X-0.275000X0.200000X-0.275000X-0.200000X0.275000X-0.200000X0.275000X0.200000X0*%
%ADD25RoundRect,0.243750X0.456250X-0.243750X0.456250X0.243750X-0.456250X0.243750X-0.456250X-0.243750X0*%
%ADD26R,0.600000X0.250000*%
%ADD27RoundRect,0.135000X-0.185000X0.135000X-0.185000X-0.135000X0.185000X-0.135000X0.185000X0.135000X0*%
%ADD28RoundRect,0.225000X-0.250000X0.225000X-0.250000X-0.225000X0.250000X-0.225000X0.250000X0.225000X0*%
%ADD29RoundRect,0.250000X0.650000X-1.000000X0.650000X1.000000X-0.650000X1.000000X-0.650000X-1.000000X0*%
%ADD30R,2.000000X1.780000*%
%ADD31RoundRect,0.150000X0.200000X-0.150000X0.200000X0.150000X-0.200000X0.150000X-0.200000X-0.150000X0*%
%ADD32RoundRect,0.250000X-0.450000X0.350000X-0.450000X-0.350000X0.450000X-0.350000X0.450000X0.350000X0*%
%ADD33RoundRect,0.200000X0.800000X-0.200000X0.800000X0.200000X-0.800000X0.200000X-0.800000X-0.200000X0*%
%ADD34RoundRect,0.250000X0.450000X-0.262500X0.450000X0.262500X-0.450000X0.262500X-0.450000X-0.262500X0*%
%ADD35RoundRect,0.250000X-0.600000X-0.600000X0.600000X-0.600000X0.600000X0.600000X-0.600000X0.600000X0*%
%ADD36C,1.700000*%
%ADD37RoundRect,0.006600X-0.358400X-0.103400X0.358400X-0.103400X0.358400X0.103400X-0.358400X0.103400X0*%
%ADD38RoundRect,0.006600X0.103400X-0.358400X0.103400X0.358400X-0.103400X0.358400X-0.103400X-0.358400X0*%
%ADD39R,2.700000X2.700000*%
%ADD40R,0.650000X0.400000*%
%ADD41RoundRect,0.200000X-0.200000X-0.275000X0.200000X-0.275000X0.200000X0.275000X-0.200000X0.275000X0*%
%ADD42C,0.800000*%
%ADD43C,6.400000*%
%ADD44RoundRect,0.250000X-0.450000X0.262500X-0.450000X-0.262500X0.450000X-0.262500X0.450000X0.262500X0*%
%ADD45RoundRect,0.147500X-0.172500X0.147500X-0.172500X-0.147500X0.172500X-0.147500X0.172500X0.147500X0*%
%ADD46RoundRect,0.075000X-0.662500X-0.075000X0.662500X-0.075000X0.662500X0.075000X-0.662500X0.075000X0*%
%ADD47RoundRect,0.075000X-0.075000X-0.662500X0.075000X-0.662500X0.075000X0.662500X-0.075000X0.662500X0*%
%ADD48RoundRect,0.250000X0.600000X0.600000X-0.600000X0.600000X-0.600000X-0.600000X0.600000X-0.600000X0*%
%ADD49RoundRect,0.200000X0.200000X0.275000X-0.200000X0.275000X-0.200000X-0.275000X0.200000X-0.275000X0*%
%ADD50R,0.700000X1.200000*%
%ADD51R,1.000000X0.800000*%
%ADD52R,1.000000X1.200000*%
%ADD53R,1.000000X2.800000*%
%ADD54R,1.300000X1.900000*%
%ADD55C,0.650000*%
%ADD56R,0.600000X1.450000*%
%ADD57R,0.300000X1.450000*%
%ADD58O,1.000000X2.100000*%
%ADD59O,1.000000X1.600000*%
%ADD60R,0.400000X0.650000*%
%ADD61RoundRect,0.147500X0.172500X-0.147500X0.172500X0.147500X-0.172500X0.147500X-0.172500X-0.147500X0*%
%ADD62RoundRect,0.250000X-0.650000X1.000000X-0.650000X-1.000000X0.650000X-1.000000X0.650000X1.000000X0*%
%ADD63RoundRect,0.250000X-0.550000X1.050000X-0.550000X-1.050000X0.550000X-1.050000X0.550000X1.050000X0*%
%ADD64RoundRect,0.250000X-0.475000X0.250000X-0.475000X-0.250000X0.475000X-0.250000X0.475000X0.250000X0*%
%ADD65R,0.700000X1.000000*%
%ADD66R,0.700000X0.600000*%
%ADD67RoundRect,0.135000X-0.135000X-0.185000X0.135000X-0.185000X0.135000X0.185000X-0.135000X0.185000X0*%
%ADD68R,0.740000X2.400000*%
%ADD69RoundRect,0.250000X0.450000X-0.350000X0.450000X0.350000X-0.450000X0.350000X-0.450000X-0.350000X0*%
%ADD70R,1.200000X1.400000*%
%ADD71C,2.800000*%
%ADD72RoundRect,0.135000X0.135000X0.185000X-0.135000X0.185000X-0.135000X-0.185000X0.135000X-0.185000X0*%
%ADD73O,2.400000X3.800000*%
%ADD74C,1.800000*%
%ADD75C,0.990000*%
%ADD76C,1.750000*%
%ADD77C,4.000000*%
G04 APERTURE END LIST*
D10*
%TO.C,SW3*%
X78306688Y-54500000D03*
X91606662Y-54500000D03*
X80156573Y-63699898D03*
X84956675Y-63699898D03*
X89756777Y-63699898D03*
%TD*%
D11*
%TO.C,C80*%
X166750000Y-134520000D03*
X166750000Y-135480000D03*
%TD*%
D12*
%TO.C,C86*%
X162980000Y-132500000D03*
X162020000Y-132500000D03*
%TD*%
D13*
%TO.C,C71*%
X173550000Y-117250000D03*
X175450000Y-117250000D03*
%TD*%
D14*
%TO.C,C37*%
X82000000Y-72699949D03*
X82000000Y-69099949D03*
%TD*%
D11*
%TO.C,C28*%
X136500000Y-100000000D03*
X136500000Y-100960000D03*
%TD*%
D15*
%TO.C,L3*%
X92250000Y-67099949D03*
X92250000Y-70099949D03*
%TD*%
D12*
%TO.C,C13*%
X109980000Y-107000000D03*
X109020000Y-107000000D03*
%TD*%
D16*
%TO.C,J16*%
X142500000Y-142400000D03*
D17*
X146000000Y-147400000D03*
X146000000Y-142300000D03*
D18*
X139000000Y-150100000D03*
D17*
X146000000Y-150100000D03*
X139000000Y-143600000D03*
D18*
X139000000Y-141400000D03*
%TD*%
D19*
%TO.C,D14*%
X79072959Y-138000000D03*
X83072959Y-138000000D03*
%TD*%
D20*
%TO.C,R5*%
X141000000Y-66260000D03*
X141000000Y-65240000D03*
%TD*%
D21*
%TO.C,C53*%
X60500000Y-85960000D03*
X60500000Y-85000000D03*
%TD*%
D11*
%TO.C,C62*%
X167750000Y-126270000D03*
X167750000Y-127230000D03*
%TD*%
D21*
%TO.C,C41*%
X60000000Y-77960000D03*
X60000000Y-77000000D03*
%TD*%
D22*
%TO.C,C66*%
X173600000Y-128250000D03*
X170900000Y-128250000D03*
%TD*%
D20*
%TO.C,R4*%
X124750000Y-116760000D03*
X124750000Y-115740000D03*
%TD*%
D12*
%TO.C,C17*%
X112000000Y-95750000D03*
X111040000Y-95750000D03*
%TD*%
D23*
%TO.C,C26*%
X121770000Y-89250000D03*
X122730000Y-89250000D03*
%TD*%
D24*
%TO.C,R83*%
X166500000Y-136675000D03*
X166500000Y-138325000D03*
%TD*%
D23*
%TO.C,C18*%
X133270000Y-114750000D03*
X134230000Y-114750000D03*
%TD*%
D12*
%TO.C,C12*%
X110980000Y-111000000D03*
X110020000Y-111000000D03*
%TD*%
%TO.C,C25*%
X112000000Y-107000000D03*
X111040000Y-107000000D03*
%TD*%
D25*
%TO.C,D5*%
X70500000Y-60187500D03*
X70500000Y-58312500D03*
%TD*%
D11*
%TO.C,C81*%
X74500000Y-54020000D03*
X74500000Y-54980000D03*
%TD*%
D26*
%TO.C,U7*%
X134350000Y-141250000D03*
X134350000Y-141750000D03*
X134350000Y-142250000D03*
X135650000Y-142250000D03*
X135650000Y-141750000D03*
X135650000Y-141250000D03*
%TD*%
D27*
%TO.C,R29*%
X189400000Y-76980000D03*
X189400000Y-78000000D03*
%TD*%
D28*
%TO.C,C67*%
X164750000Y-134975000D03*
X164750000Y-136525000D03*
%TD*%
D23*
%TO.C,C70*%
X162020000Y-133750000D03*
X162980000Y-133750000D03*
%TD*%
D29*
%TO.C,D10*%
X66500000Y-107000000D03*
X66500000Y-103000000D03*
%TD*%
D30*
%TO.C,U5*%
X98765000Y-137790000D03*
X98765000Y-135250000D03*
X98765000Y-132710000D03*
X89235000Y-132710000D03*
X89235000Y-135250000D03*
X89235000Y-137790000D03*
%TD*%
D20*
%TO.C,R11*%
X108500000Y-137010000D03*
X108500000Y-135990000D03*
%TD*%
D12*
%TO.C,C10*%
X110980000Y-110000000D03*
X110020000Y-110000000D03*
%TD*%
D16*
%TO.C,J11*%
X82250000Y-142400000D03*
D17*
X85750000Y-147400000D03*
X85750000Y-142300000D03*
D18*
X78750000Y-150100000D03*
D17*
X85750000Y-150100000D03*
X78750000Y-143600000D03*
D18*
X78750000Y-141400000D03*
%TD*%
D31*
%TO.C,D11*%
X101000000Y-132975000D03*
X101000000Y-134375000D03*
%TD*%
D28*
%TO.C,C68*%
X163000000Y-134975000D03*
X163000000Y-136525000D03*
%TD*%
D32*
%TO.C,R8*%
X66500000Y-58250000D03*
X66500000Y-60250000D03*
%TD*%
D33*
%TO.C,SW1*%
X110750000Y-137600000D03*
X110750000Y-133400000D03*
%TD*%
D27*
%TO.C,R43*%
X127250000Y-143240000D03*
X127250000Y-144260000D03*
%TD*%
D11*
%TO.C,C60*%
X178500000Y-126270000D03*
X178500000Y-127230000D03*
%TD*%
D34*
%TO.C,R48*%
X69550000Y-138912500D03*
X69550000Y-137087500D03*
%TD*%
D35*
%TO.C,J5*%
X185100000Y-104500000D03*
D36*
X187640000Y-104500000D03*
X185100000Y-107040000D03*
X187640000Y-107040000D03*
X185100000Y-109580000D03*
X187640000Y-109580000D03*
%TD*%
D37*
%TO.C,U13*%
X164510000Y-129600000D03*
X164510000Y-130000000D03*
X164510000Y-130400000D03*
X164510000Y-130800000D03*
X164510000Y-131200000D03*
X164510000Y-131600000D03*
X164510000Y-132000000D03*
X164510000Y-132400000D03*
D38*
X165100000Y-132990000D03*
X165500000Y-132990000D03*
X165900000Y-132990000D03*
X166300000Y-132990000D03*
X166700000Y-132990000D03*
X167100000Y-132990000D03*
X167500000Y-132990000D03*
X167900000Y-132990000D03*
D37*
X168490000Y-132400000D03*
X168490000Y-132000000D03*
X168490000Y-131600000D03*
X168490000Y-131200000D03*
X168490000Y-130800000D03*
X168490000Y-130400000D03*
X168490000Y-130000000D03*
X168490000Y-129600000D03*
D38*
X167900000Y-129010000D03*
X167500000Y-129010000D03*
X167100000Y-129010000D03*
X166700000Y-129010000D03*
X166300000Y-129010000D03*
X165900000Y-129010000D03*
X165500000Y-129010000D03*
X165100000Y-129010000D03*
D39*
X166500000Y-131000000D03*
%TD*%
D12*
%TO.C,C64*%
X174480000Y-124250000D03*
X173520000Y-124250000D03*
%TD*%
D21*
%TO.C,C52*%
X188000000Y-86480000D03*
X188000000Y-85520000D03*
%TD*%
D40*
%TO.C,U9*%
X71350000Y-137350000D03*
X71350000Y-138000000D03*
X71350000Y-138650000D03*
X73250000Y-138650000D03*
X73250000Y-137350000D03*
%TD*%
D20*
%TO.C,R6*%
X140000000Y-66260000D03*
X140000000Y-65240000D03*
%TD*%
D23*
%TO.C,C27*%
X136520000Y-94750000D03*
X137480000Y-94750000D03*
%TD*%
D12*
%TO.C,C14*%
X123230000Y-114750000D03*
X122270000Y-114750000D03*
%TD*%
D11*
%TO.C,C50*%
X175500000Y-54020000D03*
X175500000Y-54980000D03*
%TD*%
D27*
%TO.C,R52*%
X62500000Y-84990000D03*
X62500000Y-86010000D03*
%TD*%
D41*
%TO.C,R80*%
X172425000Y-134500000D03*
X174075000Y-134500000D03*
%TD*%
D20*
%TO.C,R3*%
X123750000Y-116760000D03*
X123750000Y-115740000D03*
%TD*%
D42*
%TO.C,H2*%
X191100000Y-55000000D03*
X191802944Y-53302944D03*
X191802944Y-56697056D03*
X193500000Y-52600000D03*
D43*
X193500000Y-55000000D03*
D42*
X193500000Y-57400000D03*
X195197056Y-53302944D03*
X195197056Y-56697056D03*
X195900000Y-55000000D03*
%TD*%
D20*
%TO.C,R58*%
X126750000Y-132760000D03*
X126750000Y-131740000D03*
%TD*%
D44*
%TO.C,R49*%
X75050000Y-137087500D03*
X75050000Y-138912500D03*
%TD*%
D27*
%TO.C,R35*%
X62000000Y-76970000D03*
X62000000Y-77990000D03*
%TD*%
D45*
%TO.C,FB3*%
X168750000Y-126265000D03*
X168750000Y-127235000D03*
%TD*%
D20*
%TO.C,R55*%
X122750000Y-132760000D03*
X122750000Y-131740000D03*
%TD*%
D24*
%TO.C,R76*%
X167750000Y-123425000D03*
X167750000Y-125075000D03*
%TD*%
D16*
%TO.C,J19*%
X178500000Y-142400000D03*
D17*
X182000000Y-147400000D03*
X182000000Y-142300000D03*
D18*
X175000000Y-150100000D03*
D17*
X182000000Y-150100000D03*
X175000000Y-143600000D03*
D18*
X175000000Y-141400000D03*
%TD*%
D23*
%TO.C,C87*%
X170270000Y-133250000D03*
X171230000Y-133250000D03*
%TD*%
D46*
%TO.C,U2*%
X113587500Y-93750000D03*
X113587500Y-94250000D03*
X113587500Y-94750000D03*
X113587500Y-95250000D03*
X113587500Y-95750000D03*
X113587500Y-96250000D03*
X113587500Y-96750000D03*
X113587500Y-97250000D03*
X113587500Y-97750000D03*
X113587500Y-98250000D03*
X113587500Y-98750000D03*
X113587500Y-99250000D03*
X113587500Y-99750000D03*
X113587500Y-100250000D03*
X113587500Y-100750000D03*
X113587500Y-101250000D03*
X113587500Y-101750000D03*
X113587500Y-102250000D03*
X113587500Y-102750000D03*
X113587500Y-103250000D03*
X113587500Y-103750000D03*
X113587500Y-104250000D03*
X113587500Y-104750000D03*
X113587500Y-105250000D03*
X113587500Y-105750000D03*
X113587500Y-106250000D03*
X113587500Y-106750000D03*
X113587500Y-107250000D03*
X113587500Y-107750000D03*
X113587500Y-108250000D03*
X113587500Y-108750000D03*
X113587500Y-109250000D03*
X113587500Y-109750000D03*
X113587500Y-110250000D03*
X113587500Y-110750000D03*
X113587500Y-111250000D03*
D47*
X115500000Y-113162500D03*
X116000000Y-113162500D03*
X116500000Y-113162500D03*
X117000000Y-113162500D03*
X117500000Y-113162500D03*
X118000000Y-113162500D03*
X118500000Y-113162500D03*
X119000000Y-113162500D03*
X119500000Y-113162500D03*
X120000000Y-113162500D03*
X120500000Y-113162500D03*
X121000000Y-113162500D03*
X121500000Y-113162500D03*
X122000000Y-113162500D03*
X122500000Y-113162500D03*
X123000000Y-113162500D03*
X123500000Y-113162500D03*
X124000000Y-113162500D03*
X124500000Y-113162500D03*
X125000000Y-113162500D03*
X125500000Y-113162500D03*
X126000000Y-113162500D03*
X126500000Y-113162500D03*
X127000000Y-113162500D03*
X127500000Y-113162500D03*
X128000000Y-113162500D03*
X128500000Y-113162500D03*
X129000000Y-113162500D03*
X129500000Y-113162500D03*
X130000000Y-113162500D03*
X130500000Y-113162500D03*
X131000000Y-113162500D03*
X131500000Y-113162500D03*
X132000000Y-113162500D03*
X132500000Y-113162500D03*
X133000000Y-113162500D03*
D46*
X134912500Y-111250000D03*
X134912500Y-110750000D03*
X134912500Y-110250000D03*
X134912500Y-109750000D03*
X134912500Y-109250000D03*
X134912500Y-108750000D03*
X134912500Y-108250000D03*
X134912500Y-107750000D03*
X134912500Y-107250000D03*
X134912500Y-106750000D03*
X134912500Y-106250000D03*
X134912500Y-105750000D03*
X134912500Y-105250000D03*
X134912500Y-104750000D03*
X134912500Y-104250000D03*
X134912500Y-103750000D03*
X134912500Y-103250000D03*
X134912500Y-102750000D03*
X134912500Y-102250000D03*
X134912500Y-101750000D03*
X134912500Y-101250000D03*
X134912500Y-100750000D03*
X134912500Y-100250000D03*
X134912500Y-99750000D03*
X134912500Y-99250000D03*
X134912500Y-98750000D03*
X134912500Y-98250000D03*
X134912500Y-97750000D03*
X134912500Y-97250000D03*
X134912500Y-96750000D03*
X134912500Y-96250000D03*
X134912500Y-95750000D03*
X134912500Y-95250000D03*
X134912500Y-94750000D03*
X134912500Y-94250000D03*
X134912500Y-93750000D03*
D47*
X133000000Y-91837500D03*
X132500000Y-91837500D03*
X132000000Y-91837500D03*
X131500000Y-91837500D03*
X131000000Y-91837500D03*
X130500000Y-91837500D03*
X130000000Y-91837500D03*
X129500000Y-91837500D03*
X129000000Y-91837500D03*
X128500000Y-91837500D03*
X128000000Y-91837500D03*
X127500000Y-91837500D03*
X127000000Y-91837500D03*
X126500000Y-91837500D03*
X126000000Y-91837500D03*
X125500000Y-91837500D03*
X125000000Y-91837500D03*
X124500000Y-91837500D03*
X124000000Y-91837500D03*
X123500000Y-91837500D03*
X123000000Y-91837500D03*
X122500000Y-91837500D03*
X122000000Y-91837500D03*
X121500000Y-91837500D03*
X121000000Y-91837500D03*
X120500000Y-91837500D03*
X120000000Y-91837500D03*
X119500000Y-91837500D03*
X119000000Y-91837500D03*
X118500000Y-91837500D03*
X118000000Y-91837500D03*
X117500000Y-91837500D03*
X117000000Y-91837500D03*
X116500000Y-91837500D03*
X116000000Y-91837500D03*
X115500000Y-91837500D03*
%TD*%
D16*
%TO.C,J8*%
X106250000Y-142400000D03*
D17*
X109750000Y-147400000D03*
X109750000Y-142300000D03*
D18*
X102750000Y-150100000D03*
D17*
X109750000Y-150100000D03*
X102750000Y-143600000D03*
D18*
X102750000Y-141400000D03*
%TD*%
D21*
%TO.C,C43*%
X61000000Y-77960000D03*
X61000000Y-77000000D03*
%TD*%
D23*
%TO.C,C77*%
X170270000Y-134250000D03*
X171230000Y-134250000D03*
%TD*%
D33*
%TO.C,SW2*%
X114250000Y-137600000D03*
X114250000Y-133400000D03*
%TD*%
D48*
%TO.C,J6*%
X63400000Y-109500000D03*
D36*
X60860000Y-109500000D03*
X63400000Y-106960000D03*
X60860000Y-106960000D03*
X63400000Y-104420000D03*
X60860000Y-104420000D03*
%TD*%
D32*
%TO.C,R20*%
X76500000Y-58250000D03*
X76500000Y-60250000D03*
%TD*%
D21*
%TO.C,C42*%
X61500000Y-67480000D03*
X61500000Y-66520000D03*
%TD*%
D49*
%TO.C,R73*%
X177075000Y-127750000D03*
X175425000Y-127750000D03*
%TD*%
D23*
%TO.C,C72*%
X170270000Y-131000000D03*
X171230000Y-131000000D03*
%TD*%
D20*
%TO.C,R59*%
X125750000Y-132750000D03*
X125750000Y-131730000D03*
%TD*%
D50*
%TO.C,J1*%
X159755000Y-67725000D03*
X160855000Y-67725000D03*
X161955000Y-67725000D03*
X163055000Y-67725000D03*
X164155000Y-67725000D03*
X165255000Y-67725000D03*
X166355000Y-67725000D03*
X167455000Y-67725000D03*
X168405000Y-67725000D03*
D51*
X169355000Y-57225000D03*
D52*
X169355000Y-63425000D03*
D53*
X169355000Y-53075000D03*
D52*
X158205000Y-67725000D03*
D54*
X155855000Y-52625000D03*
%TD*%
D41*
%TO.C,R77*%
X175675000Y-126250000D03*
X177325000Y-126250000D03*
%TD*%
D55*
%TO.C,J9*%
X127360000Y-148400000D03*
X133140000Y-148400000D03*
D56*
X127000000Y-146955000D03*
X127800000Y-146955000D03*
D57*
X129000000Y-146955000D03*
X130000000Y-146955000D03*
X130500000Y-146955000D03*
X131500000Y-146955000D03*
D56*
X132700000Y-146955000D03*
X133500000Y-146955000D03*
X133500000Y-146955000D03*
X132700000Y-146955000D03*
D57*
X132000000Y-146955000D03*
X131000000Y-146955000D03*
X129500000Y-146955000D03*
X128500000Y-146955000D03*
D56*
X127800000Y-146955000D03*
X127000000Y-146955000D03*
D58*
X125930000Y-147870000D03*
D59*
X125930000Y-152050000D03*
D58*
X134570000Y-147870000D03*
D59*
X134570000Y-152050000D03*
%TD*%
D60*
%TO.C,U6*%
X106150000Y-133338438D03*
X105500000Y-133338438D03*
X104850000Y-133338438D03*
X104850000Y-135238438D03*
X106150000Y-135238438D03*
%TD*%
D24*
%TO.C,R82*%
X168000000Y-136675000D03*
X168000000Y-138325000D03*
%TD*%
D41*
%TO.C,R74*%
X175675000Y-124500000D03*
X177325000Y-124500000D03*
%TD*%
D49*
%TO.C,R79*%
X172325000Y-126250000D03*
X170675000Y-126250000D03*
%TD*%
D27*
%TO.C,R10*%
X116000000Y-89240000D03*
X116000000Y-90260000D03*
%TD*%
D12*
%TO.C,C15*%
X128230000Y-114750000D03*
X127270000Y-114750000D03*
%TD*%
D27*
%TO.C,R36*%
X63000000Y-76960000D03*
X63000000Y-77980000D03*
%TD*%
D16*
%TO.C,J7*%
X94250000Y-142400000D03*
D17*
X97750000Y-147400000D03*
X97750000Y-142300000D03*
D18*
X90750000Y-150100000D03*
D17*
X97750000Y-150100000D03*
X90750000Y-143600000D03*
D18*
X90750000Y-141400000D03*
%TD*%
D12*
%TO.C,C65*%
X174480000Y-126500000D03*
X173520000Y-126500000D03*
%TD*%
D20*
%TO.C,R57*%
X123750000Y-132760000D03*
X123750000Y-131740000D03*
%TD*%
%TO.C,R25*%
X185400000Y-78010000D03*
X185400000Y-76990000D03*
%TD*%
D21*
%TO.C,C38*%
X187400000Y-78000000D03*
X187400000Y-77040000D03*
%TD*%
D20*
%TO.C,R53*%
X61500000Y-86010000D03*
X61500000Y-84990000D03*
%TD*%
D42*
%TO.C,H1*%
X52600000Y-55000000D03*
X53302944Y-53302944D03*
X53302944Y-56697056D03*
X55000000Y-52600000D03*
D43*
X55000000Y-55000000D03*
D42*
X55000000Y-57400000D03*
X56697056Y-53302944D03*
X56697056Y-56697056D03*
X57400000Y-55000000D03*
%TD*%
D55*
%TO.C,J10*%
X115360000Y-148400000D03*
X121140000Y-148400000D03*
D56*
X115000000Y-146955000D03*
X115800000Y-146955000D03*
D57*
X117000000Y-146955000D03*
X118000000Y-146955000D03*
X118500000Y-146955000D03*
X119500000Y-146955000D03*
D56*
X120700000Y-146955000D03*
X121500000Y-146955000D03*
X121500000Y-146955000D03*
X120700000Y-146955000D03*
D57*
X120000000Y-146955000D03*
X119000000Y-146955000D03*
X117500000Y-146955000D03*
X116500000Y-146955000D03*
D56*
X115800000Y-146955000D03*
X115000000Y-146955000D03*
D58*
X113930000Y-147870000D03*
D59*
X113930000Y-152050000D03*
D58*
X122570000Y-147870000D03*
D59*
X122570000Y-152050000D03*
%TD*%
D12*
%TO.C,C84*%
X162980000Y-131500000D03*
X162020000Y-131500000D03*
%TD*%
D42*
%TO.C,H4*%
X191100000Y-150000000D03*
X191802944Y-148302944D03*
X191802944Y-151697056D03*
X193500000Y-147600000D03*
D43*
X193500000Y-150000000D03*
D42*
X193500000Y-152400000D03*
X195197056Y-148302944D03*
X195197056Y-151697056D03*
X195900000Y-150000000D03*
%TD*%
D24*
%TO.C,R75*%
X166250000Y-123425000D03*
X166250000Y-125075000D03*
%TD*%
D27*
%TO.C,R32*%
X59000000Y-76960000D03*
X59000000Y-77980000D03*
%TD*%
D20*
%TO.C,R51*%
X189000000Y-86510000D03*
X189000000Y-85490000D03*
%TD*%
D44*
%TO.C,R40*%
X106500000Y-136825938D03*
X106500000Y-138650938D03*
%TD*%
D27*
%TO.C,R33*%
X59500000Y-66490000D03*
X59500000Y-67510000D03*
%TD*%
D61*
%TO.C,L4*%
X172000000Y-117720000D03*
X172000000Y-116750000D03*
%TD*%
D32*
%TO.C,R21*%
X74500000Y-58250000D03*
X74500000Y-60250000D03*
%TD*%
D11*
%TO.C,C19*%
X136500000Y-105520000D03*
X136500000Y-106480000D03*
%TD*%
%TO.C,C78*%
X169250000Y-134520000D03*
X169250000Y-135480000D03*
%TD*%
D62*
%TO.C,D9*%
X182000000Y-107000000D03*
X182000000Y-111000000D03*
%TD*%
D63*
%TO.C,C49*%
X87500000Y-93200000D03*
X87500000Y-96800000D03*
%TD*%
D34*
%TO.C,R41*%
X104500000Y-138650938D03*
X104500000Y-136825938D03*
%TD*%
D11*
%TO.C,C82*%
X73500000Y-54020000D03*
X73500000Y-54980000D03*
%TD*%
D64*
%TO.C,C46*%
X129250000Y-142800000D03*
X129250000Y-144700000D03*
%TD*%
D20*
%TO.C,R9*%
X108500000Y-135010000D03*
X108500000Y-133990000D03*
%TD*%
D65*
%TO.C,D13*%
X120750000Y-144750000D03*
D66*
X120750000Y-143050000D03*
X118750000Y-143050000D03*
X118750000Y-144950000D03*
%TD*%
D33*
%TO.C,SW6*%
X134250000Y-137600000D03*
X134250000Y-133400000D03*
%TD*%
D49*
%TO.C,R78*%
X172325000Y-124500000D03*
X170675000Y-124500000D03*
%TD*%
D12*
%TO.C,C83*%
X162980000Y-130520000D03*
X162020000Y-130520000D03*
%TD*%
D23*
%TO.C,C85*%
X170250000Y-130000000D03*
X171210000Y-130000000D03*
%TD*%
D67*
%TO.C,R38*%
X136490000Y-135475000D03*
X137510000Y-135475000D03*
%TD*%
D49*
%TO.C,R72*%
X177075000Y-123000000D03*
X175425000Y-123000000D03*
%TD*%
D21*
%TO.C,C40*%
X188400000Y-77980000D03*
X188400000Y-77020000D03*
%TD*%
D65*
%TO.C,D12*%
X133000000Y-144500000D03*
D66*
X133000000Y-142800000D03*
X131000000Y-142800000D03*
X131000000Y-144700000D03*
%TD*%
D45*
%TO.C,FB2*%
X165250000Y-126265000D03*
X165250000Y-127235000D03*
%TD*%
D25*
%TO.C,D3*%
X68500000Y-60187500D03*
X68500000Y-58312500D03*
%TD*%
D20*
%TO.C,R34*%
X60500000Y-67510000D03*
X60500000Y-66490000D03*
%TD*%
D25*
%TO.C,D6*%
X72500000Y-60187500D03*
X72500000Y-58312500D03*
%TD*%
D44*
%TO.C,R39*%
X101250000Y-135837500D03*
X101250000Y-137662500D03*
%TD*%
D68*
%TO.C,J14*%
X120440000Y-139450000D03*
X120440000Y-135550000D03*
X121710000Y-139450000D03*
X121710000Y-135550000D03*
X122980000Y-139450000D03*
X122980000Y-135550000D03*
X124250000Y-139450000D03*
X124250000Y-135550000D03*
X125520000Y-139450000D03*
X125520000Y-135550000D03*
X126790000Y-139450000D03*
X126790000Y-135550000D03*
X128060000Y-139450000D03*
X128060000Y-135550000D03*
%TD*%
D27*
%TO.C,R27*%
X187000000Y-66490000D03*
X187000000Y-67510000D03*
%TD*%
D12*
%TO.C,C16*%
X112000000Y-96750000D03*
X111040000Y-96750000D03*
%TD*%
D16*
%TO.C,J17*%
X166500000Y-142400000D03*
D17*
X170000000Y-147400000D03*
X170000000Y-142300000D03*
D18*
X163000000Y-150100000D03*
D17*
X170000000Y-150100000D03*
X163000000Y-143600000D03*
D18*
X163000000Y-141400000D03*
%TD*%
D11*
%TO.C,C20*%
X136500000Y-92770000D03*
X136500000Y-93730000D03*
%TD*%
D16*
%TO.C,J18*%
X154500000Y-142400000D03*
D17*
X158000000Y-147400000D03*
X158000000Y-142300000D03*
D18*
X151000000Y-150100000D03*
D17*
X158000000Y-150100000D03*
X151000000Y-143600000D03*
D18*
X151000000Y-141400000D03*
%TD*%
D36*
%TO.C,J13*%
X103930000Y-63290000D03*
X103930000Y-60750000D03*
X106470000Y-63290000D03*
X106470000Y-60750000D03*
X109010000Y-63290000D03*
X109010000Y-60750000D03*
X111550000Y-63290000D03*
X111550000Y-60750000D03*
X114090000Y-63290000D03*
X114090000Y-60750000D03*
X116630000Y-63290000D03*
X116630000Y-60750000D03*
X119170000Y-63290000D03*
X119170000Y-60750000D03*
X121710000Y-63290000D03*
X121710000Y-60750000D03*
X124250000Y-63290000D03*
X124250000Y-60750000D03*
X126790000Y-63290000D03*
X126790000Y-60750000D03*
X129330000Y-63290000D03*
X129330000Y-60750000D03*
X131870000Y-63290000D03*
X131870000Y-60750000D03*
X134410000Y-63290000D03*
X134410000Y-60750000D03*
X136950000Y-63290000D03*
X136950000Y-60750000D03*
X139490000Y-63290000D03*
X139490000Y-60750000D03*
X142030000Y-63290000D03*
X142030000Y-60750000D03*
X144570000Y-63290000D03*
X144570000Y-60750000D03*
%TD*%
D11*
%TO.C,C58*%
X165000000Y-124270000D03*
X165000000Y-125230000D03*
%TD*%
D69*
%TO.C,R1*%
X179500000Y-55500000D03*
X179500000Y-53500000D03*
%TD*%
D13*
%TO.C,C69*%
X173550000Y-119500000D03*
X175450000Y-119500000D03*
%TD*%
D21*
%TO.C,C6*%
X112000000Y-101980000D03*
X112000000Y-101020000D03*
%TD*%
D11*
%TO.C,C51*%
X176500000Y-54020000D03*
X176500000Y-54980000D03*
%TD*%
D20*
%TO.C,R56*%
X121750000Y-132760000D03*
X121750000Y-131740000D03*
%TD*%
D32*
%TO.C,R2*%
X68500000Y-53500000D03*
X68500000Y-55500000D03*
%TD*%
D27*
%TO.C,R7*%
X112000000Y-105000000D03*
X112000000Y-106020000D03*
%TD*%
D21*
%TO.C,C45*%
X87250000Y-137480000D03*
X87250000Y-136520000D03*
%TD*%
D23*
%TO.C,C74*%
X170270000Y-132250000D03*
X171230000Y-132250000D03*
%TD*%
D21*
%TO.C,C57*%
X178500000Y-124480000D03*
X178500000Y-123520000D03*
%TD*%
D23*
%TO.C,C21*%
X126770000Y-90250000D03*
X127730000Y-90250000D03*
%TD*%
D12*
%TO.C,C11*%
X116730000Y-114750000D03*
X115770000Y-114750000D03*
%TD*%
D70*
%TO.C,Y1*%
X108900000Y-103150000D03*
X108900000Y-105350000D03*
X110600000Y-105350000D03*
X110600000Y-103150000D03*
%TD*%
D23*
%TO.C,C44*%
X136520000Y-136475000D03*
X137480000Y-136475000D03*
%TD*%
D20*
%TO.C,R31*%
X58000000Y-77990000D03*
X58000000Y-76970000D03*
%TD*%
D27*
%TO.C,R26*%
X186400000Y-76990000D03*
X186400000Y-78010000D03*
%TD*%
D12*
%TO.C,C23*%
X114980000Y-89750000D03*
X114020000Y-89750000D03*
%TD*%
D20*
%TO.C,R45*%
X116000000Y-144510000D03*
X116000000Y-143490000D03*
%TD*%
D24*
%TO.C,R81*%
X169500000Y-136675000D03*
X169500000Y-138325000D03*
%TD*%
D16*
%TO.C,J12*%
X70250000Y-142400000D03*
D17*
X73750000Y-147400000D03*
X73750000Y-142300000D03*
D18*
X66750000Y-150100000D03*
D17*
X73750000Y-150100000D03*
X66750000Y-143600000D03*
D18*
X66750000Y-141400000D03*
%TD*%
D20*
%TO.C,R46*%
X117000000Y-144510000D03*
X117000000Y-143490000D03*
%TD*%
%TO.C,R28*%
X188000000Y-67510000D03*
X188000000Y-66490000D03*
%TD*%
D11*
%TO.C,C79*%
X168000000Y-134520000D03*
X168000000Y-135480000D03*
%TD*%
%TO.C,C8*%
X112000000Y-108020000D03*
X112000000Y-108980000D03*
%TD*%
D42*
%TO.C,H3*%
X52600000Y-150000000D03*
X53302944Y-148302944D03*
X53302944Y-151697056D03*
X55000000Y-147600000D03*
D43*
X55000000Y-150000000D03*
D42*
X55000000Y-152400000D03*
X56697056Y-148302944D03*
X56697056Y-151697056D03*
X57400000Y-150000000D03*
%TD*%
D71*
%TO.C,J4*%
X148250000Y-119000000D03*
X148251000Y-124000000D03*
X155850000Y-121500000D03*
%TD*%
D27*
%TO.C,R44*%
X126250000Y-143240000D03*
X126250000Y-144260000D03*
%TD*%
D72*
%TO.C,R37*%
X137510000Y-134475000D03*
X136490000Y-134475000D03*
%TD*%
D27*
%TO.C,R50*%
X190000000Y-85490000D03*
X190000000Y-86510000D03*
%TD*%
D34*
%TO.C,R47*%
X67550000Y-138912500D03*
X67550000Y-137087500D03*
%TD*%
D12*
%TO.C,C9*%
X109980000Y-101500000D03*
X109020000Y-101500000D03*
%TD*%
D23*
%TO.C,C22*%
X121770000Y-90250000D03*
X122730000Y-90250000D03*
%TD*%
D11*
%TO.C,C61*%
X166250000Y-126270000D03*
X166250000Y-127230000D03*
%TD*%
D21*
%TO.C,C39*%
X189000000Y-67500000D03*
X189000000Y-66540000D03*
%TD*%
%TO.C,C59*%
X169000000Y-125230000D03*
X169000000Y-124270000D03*
%TD*%
D71*
%TO.C,J3*%
X100250000Y-124000000D03*
X100249000Y-119000000D03*
X92650000Y-121500000D03*
%TD*%
D22*
%TO.C,C63*%
X173600000Y-122500000D03*
X170900000Y-122500000D03*
%TD*%
D11*
%TO.C,C24*%
X132250000Y-114770000D03*
X132250000Y-115730000D03*
%TD*%
D34*
%TO.C,R42*%
X86750000Y-135031660D03*
X86750000Y-133206660D03*
%TD*%
D27*
%TO.C,R30*%
X190400000Y-76990000D03*
X190400000Y-78010000D03*
%TD*%
D20*
%TO.C,R54*%
X124750000Y-132760000D03*
X124750000Y-131740000D03*
%TD*%
D73*
%TO.C,SW5*%
X66200000Y-72250000D03*
X54800000Y-72250000D03*
D74*
X63000000Y-79750000D03*
X58000000Y-79750000D03*
X60500000Y-79750000D03*
X63000000Y-65250000D03*
X58000000Y-65250000D03*
%TD*%
D75*
%TO.C,J15*%
X129330000Y-137500000D03*
X119170000Y-138516000D03*
X119170000Y-136484000D03*
%TD*%
D73*
%TO.C,SW4*%
X193700000Y-72250000D03*
X182300000Y-72250000D03*
D74*
X190500000Y-79750000D03*
X185500000Y-79750000D03*
X188000000Y-79750000D03*
X190500000Y-65250000D03*
X185500000Y-65250000D03*
%TD*%
D76*
%TO.C,SW8*%
X65580000Y-90500000D03*
D77*
X60500000Y-90500000D03*
D76*
X55420000Y-90500000D03*
D10*
X64310000Y-87960000D03*
X57960000Y-85420000D03*
%TD*%
D76*
%TO.C,SW7*%
X193080000Y-90500000D03*
D77*
X188000000Y-90500000D03*
D76*
X182920000Y-90500000D03*
D10*
X191810000Y-87960000D03*
X185460000Y-85420000D03*
%TD*%
M02*
