M48
; DRILL file {KiCad 8.0.4} date 2024-08-25T23:45:09+0200
; FORMAT={-:-/ absolute / inch / decimal}
; #@! TF.CreationDate,2024-08-25T23:45:09+02:00
; #@! TF.GenerationSoftware,Kicad,Pcbnew,8.0.4
; #@! TF.FileFunction,NonPlated,1,6,NPTH
FMAT,2
INCH
; #@! TA.AperFunction,NonPlated,NPTH,ComponentDrill
T1C0.0256
; #@! TA.AperFunction,NonPlated,NPTH,ComponentDrill
T2C0.0390
; #@! TA.AperFunction,NonPlated,NPTH,ComponentDrill
T3C0.0630
; #@! TA.AperFunction,NonPlated,NPTH,ComponentDrill
T4C0.0689
; #@! TA.AperFunction,NonPlated,NPTH,ComponentDrill
T5C0.1575
%
G90
G05
T1
X4.5417Y-5.8425
X4.7693Y-5.8425
X5.0142Y-5.8425
X5.2417Y-5.8425
T2
X4.6917Y-5.3734
X4.6917Y-5.4534
X5.0917Y-5.4134
T3
X2.7657Y-5.6063
X3.2382Y-5.6063
X3.7106Y-5.6063
X4.1831Y-5.6063
X5.6102Y-5.6063
X6.0827Y-5.6063
X6.5551Y-5.6063
X7.0276Y-5.6063
T4
X2.1819Y-3.563
X2.5819Y-3.563
X7.2016Y-3.563
X7.6016Y-3.563
T5
X2.3819Y-3.563
X7.4016Y-3.563
M30
