%TF.GenerationSoftware,KiCad,Pcbnew,8.0.5*%
%TF.CreationDate,2024-09-23T14:15:02+02:00*%
%TF.ProjectId,KLST_PANDA,4b4c5354-5f50-4414-9e44-412e6b696361,rev?*%
%TF.SameCoordinates,Original*%
%TF.FileFunction,Soldermask,Bot*%
%TF.FilePolarity,Negative*%
%FSLAX46Y46*%
G04 Gerber Fmt 4.6, Leading zero omitted, Abs format (unit mm)*
G04 Created by KiCad (PCBNEW 8.0.5) date 2024-09-23 14:15:02*
%MOMM*%
%LPD*%
G01*
G04 APERTURE LIST*
G04 Aperture macros list*
%AMRoundRect*
0 Rectangle with rounded corners*
0 $1 Rounding radius*
0 $2 $3 $4 $5 $6 $7 $8 $9 X,Y pos of 4 corners*
0 Add a 4 corners polygon primitive as box body*
4,1,4,$2,$3,$4,$5,$6,$7,$8,$9,$2,$3,0*
0 Add four circle primitives for the rounded corners*
1,1,$1+$1,$2,$3*
1,1,$1+$1,$4,$5*
1,1,$1+$1,$6,$7*
1,1,$1+$1,$8,$9*
0 Add four rect primitives between the rounded corners*
20,1,$1+$1,$2,$3,$4,$5,0*
20,1,$1+$1,$4,$5,$6,$7,0*
20,1,$1+$1,$6,$7,$8,$9,0*
20,1,$1+$1,$8,$9,$2,$3,0*%
G04 Aperture macros list end*
%ADD10C,1.600000*%
%ADD11RoundRect,0.250000X-0.600000X-0.600000X0.600000X-0.600000X0.600000X0.600000X-0.600000X0.600000X0*%
%ADD12C,1.700000*%
%ADD13C,0.800000*%
%ADD14C,6.400000*%
%ADD15RoundRect,0.250000X0.600000X0.600000X-0.600000X0.600000X-0.600000X-0.600000X0.600000X-0.600000X0*%
%ADD16C,2.500000*%
%ADD17C,0.650000*%
%ADD18O,1.000000X2.100000*%
%ADD19O,1.000000X1.600000*%
%ADD20C,2.800000*%
%ADD21RoundRect,0.250000X-0.475000X0.250000X-0.475000X-0.250000X0.475000X-0.250000X0.475000X0.250000X0*%
%ADD22C,0.370000*%
%ADD23RoundRect,0.250000X0.275000X0.700000X-0.275000X0.700000X-0.275000X-0.700000X0.275000X-0.700000X0*%
%ADD24RoundRect,0.150000X-0.587500X-0.150000X0.587500X-0.150000X0.587500X0.150000X-0.587500X0.150000X0*%
%ADD25RoundRect,0.243750X-0.456250X0.243750X-0.456250X-0.243750X0.456250X-0.243750X0.456250X0.243750X0*%
%ADD26RoundRect,0.243750X0.456250X-0.243750X0.456250X0.243750X-0.456250X0.243750X-0.456250X-0.243750X0*%
%ADD27RoundRect,0.150000X-0.675000X-0.150000X0.675000X-0.150000X0.675000X0.150000X-0.675000X0.150000X0*%
%ADD28RoundRect,0.250000X0.475000X-0.250000X0.475000X0.250000X-0.475000X0.250000X-0.475000X-0.250000X0*%
%ADD29RoundRect,0.250000X0.325000X0.650000X-0.325000X0.650000X-0.325000X-0.650000X0.325000X-0.650000X0*%
%ADD30RoundRect,0.135000X0.135000X0.185000X-0.135000X0.185000X-0.135000X-0.185000X0.135000X-0.185000X0*%
%ADD31R,0.406400X0.939800*%
%ADD32R,0.355600X2.311400*%
%ADD33R,1.295400X0.355600*%
%ADD34RoundRect,0.135000X-0.185000X0.135000X-0.185000X-0.135000X0.185000X-0.135000X0.185000X0.135000X0*%
%ADD35RoundRect,0.250000X-1.000000X-0.650000X1.000000X-0.650000X1.000000X0.650000X-1.000000X0.650000X0*%
%ADD36RoundRect,0.250000X-0.650000X1.000000X-0.650000X-1.000000X0.650000X-1.000000X0.650000X1.000000X0*%
%ADD37R,0.550000X1.050000*%
%ADD38RoundRect,0.135000X-0.135000X-0.185000X0.135000X-0.185000X0.135000X0.185000X-0.135000X0.185000X0*%
%ADD39RoundRect,0.140000X0.170000X-0.140000X0.170000X0.140000X-0.170000X0.140000X-0.170000X-0.140000X0*%
%ADD40RoundRect,0.140000X-0.170000X0.140000X-0.170000X-0.140000X0.170000X-0.140000X0.170000X0.140000X0*%
%ADD41RoundRect,0.250000X0.250000X0.475000X-0.250000X0.475000X-0.250000X-0.475000X0.250000X-0.475000X0*%
%ADD42O,2.400000X3.800000*%
%ADD43C,1.800000*%
%ADD44C,0.990000*%
%ADD45C,0.787000*%
%ADD46R,0.300000X1.300000*%
%ADD47R,1.800000X1.800000*%
%ADD48RoundRect,0.140000X0.140000X0.170000X-0.140000X0.170000X-0.140000X-0.170000X0.140000X-0.170000X0*%
%ADD49RoundRect,0.250000X-0.250000X-0.475000X0.250000X-0.475000X0.250000X0.475000X-0.250000X0.475000X0*%
%ADD50RoundRect,0.147500X-0.172500X0.147500X-0.172500X-0.147500X0.172500X-0.147500X0.172500X0.147500X0*%
%ADD51RoundRect,0.135000X0.185000X-0.135000X0.185000X0.135000X-0.185000X0.135000X-0.185000X-0.135000X0*%
%ADD52C,1.750000*%
%ADD53C,4.000000*%
%ADD54RoundRect,0.150000X0.150000X-0.587500X0.150000X0.587500X-0.150000X0.587500X-0.150000X-0.587500X0*%
%ADD55RoundRect,0.250000X-0.312500X-1.075000X0.312500X-1.075000X0.312500X1.075000X-0.312500X1.075000X0*%
%ADD56RoundRect,0.250000X-1.075000X0.312500X-1.075000X-0.312500X1.075000X-0.312500X1.075000X0.312500X0*%
%ADD57RoundRect,0.250000X0.450000X-0.350000X0.450000X0.350000X-0.450000X0.350000X-0.450000X-0.350000X0*%
%ADD58R,3.700000X1.100000*%
%ADD59R,2.000000X1.500000*%
%ADD60R,2.000000X3.800000*%
%ADD61R,0.400000X0.650000*%
%ADD62RoundRect,0.150000X-0.512500X-0.150000X0.512500X-0.150000X0.512500X0.150000X-0.512500X0.150000X0*%
%ADD63RoundRect,0.375000X-0.375000X0.625000X-0.375000X-0.625000X0.375000X-0.625000X0.375000X0.625000X0*%
%ADD64RoundRect,0.500000X-1.400000X0.500000X-1.400000X-0.500000X1.400000X-0.500000X1.400000X0.500000X0*%
%ADD65RoundRect,0.250000X0.650000X-0.325000X0.650000X0.325000X-0.650000X0.325000X-0.650000X-0.325000X0*%
%ADD66RoundRect,0.150000X-0.150000X0.587500X-0.150000X-0.587500X0.150000X-0.587500X0.150000X0.587500X0*%
%ADD67RoundRect,0.250000X0.700000X-0.275000X0.700000X0.275000X-0.700000X0.275000X-0.700000X-0.275000X0*%
G04 APERTURE END LIST*
D10*
%TO.C,J16*%
X142500000Y-142400000D03*
%TD*%
%TO.C,J11*%
X82250000Y-142400000D03*
%TD*%
D11*
%TO.C,J5*%
X185100000Y-104500000D03*
D12*
X187640000Y-104500000D03*
X185100000Y-107040000D03*
X187640000Y-107040000D03*
X185100000Y-109580000D03*
X187640000Y-109580000D03*
%TD*%
D13*
%TO.C,H2*%
X191100000Y-55000000D03*
X191802944Y-53302944D03*
X191802944Y-56697056D03*
X193500000Y-52600000D03*
D14*
X193500000Y-55000000D03*
D13*
X193500000Y-57400000D03*
X195197056Y-53302944D03*
X195197056Y-56697056D03*
X195900000Y-55000000D03*
%TD*%
D10*
%TO.C,J19*%
X178500000Y-142400000D03*
%TD*%
%TO.C,J8*%
X106250000Y-142400000D03*
%TD*%
D15*
%TO.C,J6*%
X63400000Y-109500000D03*
D12*
X60860000Y-109500000D03*
X63400000Y-106960000D03*
X60860000Y-106960000D03*
X63400000Y-104420000D03*
X60860000Y-104420000D03*
%TD*%
D16*
%TO.C,SW3*%
X78306688Y-54500000D03*
X91606662Y-54500000D03*
X80156573Y-63699898D03*
X84956675Y-63699898D03*
X89756777Y-63699898D03*
%TD*%
D17*
%TO.C,J9*%
X127360000Y-148400000D03*
X133140000Y-148400000D03*
D18*
X125930000Y-147870000D03*
D19*
X125930000Y-152050000D03*
D18*
X134570000Y-147870000D03*
D19*
X134570000Y-152050000D03*
%TD*%
D10*
%TO.C,J7*%
X94250000Y-142400000D03*
%TD*%
D13*
%TO.C,H1*%
X52600000Y-55000000D03*
X53302944Y-53302944D03*
X53302944Y-56697056D03*
X55000000Y-52600000D03*
D14*
X55000000Y-55000000D03*
D13*
X55000000Y-57400000D03*
X56697056Y-53302944D03*
X56697056Y-56697056D03*
X57400000Y-55000000D03*
%TD*%
D17*
%TO.C,J10*%
X115360000Y-148400000D03*
X121140000Y-148400000D03*
D18*
X113930000Y-147870000D03*
D19*
X113930000Y-152050000D03*
D18*
X122570000Y-147870000D03*
D19*
X122570000Y-152050000D03*
%TD*%
D13*
%TO.C,H4*%
X191100000Y-150000000D03*
X191802944Y-148302944D03*
X191802944Y-151697056D03*
X193500000Y-147600000D03*
D14*
X193500000Y-150000000D03*
D13*
X193500000Y-152400000D03*
X195197056Y-148302944D03*
X195197056Y-151697056D03*
X195900000Y-150000000D03*
%TD*%
D10*
%TO.C,J17*%
X166500000Y-142400000D03*
%TD*%
%TO.C,J18*%
X154500000Y-142400000D03*
%TD*%
D12*
%TO.C,J13*%
X103930000Y-63290000D03*
X103930000Y-60750000D03*
X106470000Y-63290000D03*
X106470000Y-60750000D03*
X109010000Y-63290000D03*
X109010000Y-60750000D03*
X111550000Y-63290000D03*
X111550000Y-60750000D03*
X114090000Y-63290000D03*
X114090000Y-60750000D03*
X116630000Y-63290000D03*
X116630000Y-60750000D03*
X119170000Y-63290000D03*
X119170000Y-60750000D03*
X121710000Y-63290000D03*
X121710000Y-60750000D03*
X124250000Y-63290000D03*
X124250000Y-60750000D03*
X126790000Y-63290000D03*
X126790000Y-60750000D03*
X129330000Y-63290000D03*
X129330000Y-60750000D03*
X131870000Y-63290000D03*
X131870000Y-60750000D03*
X134410000Y-63290000D03*
X134410000Y-60750000D03*
X136950000Y-63290000D03*
X136950000Y-60750000D03*
X139490000Y-63290000D03*
X139490000Y-60750000D03*
X142030000Y-63290000D03*
X142030000Y-60750000D03*
X144570000Y-63290000D03*
X144570000Y-60750000D03*
%TD*%
D10*
%TO.C,J12*%
X70250000Y-142400000D03*
%TD*%
D13*
%TO.C,H3*%
X52600000Y-150000000D03*
X53302944Y-148302944D03*
X53302944Y-151697056D03*
X55000000Y-147600000D03*
D14*
X55000000Y-150000000D03*
D13*
X55000000Y-152400000D03*
X56697056Y-148302944D03*
X56697056Y-151697056D03*
X57400000Y-150000000D03*
%TD*%
D20*
%TO.C,J4*%
X155850000Y-121500000D03*
X148251000Y-124000000D03*
X148250000Y-119000000D03*
%TD*%
%TO.C,J3*%
X92650000Y-121500000D03*
X100249000Y-119000000D03*
X100250000Y-124000000D03*
%TD*%
D21*
%TO.C,C1*%
X87555000Y-86050000D03*
X87555000Y-87950000D03*
%TD*%
D22*
%TO.C,U12*%
X125500000Y-102000000D03*
X124500000Y-102000000D03*
X123500000Y-102000000D03*
X122500000Y-102000000D03*
X126500000Y-103000000D03*
X125500000Y-103000000D03*
X124500000Y-103000000D03*
X123500000Y-103000000D03*
X122500000Y-103000000D03*
X126500000Y-104000000D03*
X125500000Y-104000000D03*
X124500000Y-104000000D03*
X123500000Y-104000000D03*
X122500000Y-104000000D03*
X126500000Y-105000000D03*
X125500000Y-105000000D03*
X124500000Y-105000000D03*
X123500000Y-105000000D03*
X122500000Y-105000000D03*
X126500000Y-106000000D03*
X125500000Y-106000000D03*
X124500000Y-106000000D03*
X123500000Y-106000000D03*
X122500000Y-106000000D03*
%TD*%
D23*
%TO.C,FB4*%
X169825000Y-86500000D03*
X166675000Y-86500000D03*
%TD*%
D24*
%TO.C,Q1*%
X90117500Y-83450000D03*
X90117500Y-81550000D03*
X91992500Y-82500000D03*
%TD*%
D25*
%TO.C,D1*%
X179250000Y-53562500D03*
X179250000Y-55437500D03*
%TD*%
D26*
%TO.C,D2*%
X68500000Y-55437500D03*
X68500000Y-53562500D03*
%TD*%
D27*
%TO.C,U4*%
X81625000Y-70504949D03*
X81625000Y-69234949D03*
X81625000Y-67964949D03*
X81625000Y-66694949D03*
X86875000Y-66694949D03*
X86875000Y-67964949D03*
X86875000Y-69234949D03*
X86875000Y-70504949D03*
%TD*%
D28*
%TO.C,C31*%
X97000000Y-76950000D03*
X97000000Y-75050000D03*
%TD*%
D29*
%TO.C,C47*%
X94000000Y-95982483D03*
X91050000Y-95982483D03*
%TD*%
D30*
%TO.C,R60*%
X130010000Y-102000000D03*
X128990000Y-102000000D03*
%TD*%
D31*
%TO.C,U11*%
X73949999Y-53825000D03*
X73949999Y-55175000D03*
X73050001Y-55175000D03*
X73050001Y-53825000D03*
D32*
X74725000Y-54500000D03*
D33*
X73500000Y-56225000D03*
X73500000Y-52775000D03*
D32*
X72275000Y-54500000D03*
%TD*%
D31*
%TO.C,U10*%
X175449999Y-53825000D03*
X175449999Y-55175000D03*
X174550001Y-55175000D03*
X174550001Y-53825000D03*
D32*
X176225000Y-54500000D03*
D33*
X175000000Y-56225000D03*
X175000000Y-52775000D03*
D32*
X173775000Y-54500000D03*
%TD*%
D34*
%TO.C,R68*%
X124750000Y-109490000D03*
X124750000Y-110510000D03*
%TD*%
D35*
%TO.C,D7*%
X82250000Y-73099949D03*
X86250000Y-73099949D03*
%TD*%
D36*
%TO.C,D4*%
X96250000Y-79500000D03*
X96250000Y-83500000D03*
%TD*%
D34*
%TO.C,R17*%
X161500000Y-65490000D03*
X161500000Y-66510000D03*
%TD*%
D37*
%TO.C,U3*%
X96750000Y-86200000D03*
X97700000Y-86200000D03*
X98650000Y-86200000D03*
X98650000Y-88800000D03*
X96750000Y-88800000D03*
%TD*%
D38*
%TO.C,R65*%
X128990000Y-104000000D03*
X130010000Y-104000000D03*
%TD*%
D39*
%TO.C,C56*%
X129000000Y-105980000D03*
X129000000Y-105020000D03*
%TD*%
D38*
%TO.C,R64*%
X128990000Y-103000000D03*
X130010000Y-103000000D03*
%TD*%
D40*
%TO.C,C30*%
X160500000Y-65520000D03*
X160500000Y-66480000D03*
%TD*%
D38*
%TO.C,R63*%
X128990000Y-101000000D03*
X130010000Y-101000000D03*
%TD*%
D41*
%TO.C,C89*%
X167950000Y-97750000D03*
X166050000Y-97750000D03*
%TD*%
D42*
%TO.C,SW5*%
X66200000Y-72250000D03*
X54800000Y-72250000D03*
D43*
X63000000Y-79750000D03*
X58000000Y-79750000D03*
X60500000Y-79750000D03*
X63000000Y-65250000D03*
X58000000Y-65250000D03*
%TD*%
D44*
%TO.C,J15*%
X129330000Y-137500000D03*
X119170000Y-138516000D03*
X119170000Y-136484000D03*
D45*
X128060000Y-138135000D03*
X126790000Y-138135000D03*
X125520000Y-138135000D03*
X124250000Y-138135000D03*
X122980000Y-138135000D03*
X121710000Y-138135000D03*
X120440000Y-138135000D03*
X120440000Y-136865000D03*
X121710000Y-136865000D03*
X122980000Y-136865000D03*
X124250000Y-136865000D03*
X125520000Y-136865000D03*
X126790000Y-136865000D03*
X128060000Y-136865000D03*
%TD*%
D28*
%TO.C,C3*%
X79805000Y-89200000D03*
X79805000Y-87300000D03*
%TD*%
D34*
%TO.C,R69*%
X128750000Y-109490000D03*
X128750000Y-110510000D03*
%TD*%
D46*
%TO.C,J2*%
X158250000Y-80250000D03*
X157750000Y-80250000D03*
X157250000Y-80250000D03*
X156750000Y-80250000D03*
X156250000Y-80250000D03*
X155750000Y-80250000D03*
X155250000Y-80250000D03*
X154750000Y-80250000D03*
X154250000Y-80250000D03*
X153750000Y-80250000D03*
X153250000Y-80250000D03*
X152750000Y-80250000D03*
X152250000Y-80250000D03*
X151750000Y-80250000D03*
X151250000Y-80250000D03*
X150750000Y-80250000D03*
X150250000Y-80250000D03*
X149750000Y-80250000D03*
X149250000Y-80250000D03*
X148750000Y-80250000D03*
X148250000Y-80250000D03*
X147750000Y-80250000D03*
X147250000Y-80250000D03*
X146750000Y-80250000D03*
X146250000Y-80250000D03*
X145750000Y-80250000D03*
X145250000Y-80250000D03*
X144750000Y-80250000D03*
X144250000Y-80250000D03*
X143750000Y-80250000D03*
X143250000Y-80250000D03*
X142750000Y-80250000D03*
X142250000Y-80250000D03*
X141750000Y-80250000D03*
X141250000Y-80250000D03*
X140750000Y-80250000D03*
X140250000Y-80250000D03*
X139750000Y-80250000D03*
X139250000Y-80250000D03*
X138750000Y-80250000D03*
D47*
X160400000Y-86000000D03*
X136600000Y-86000000D03*
%TD*%
D48*
%TO.C,C54*%
X123730000Y-109500000D03*
X122770000Y-109500000D03*
%TD*%
D49*
%TO.C,C88*%
X171550000Y-86500000D03*
X173450000Y-86500000D03*
%TD*%
D34*
%TO.C,R71*%
X126750000Y-109490000D03*
X126750000Y-110510000D03*
%TD*%
D21*
%TO.C,C32*%
X97000000Y-90550000D03*
X97000000Y-92450000D03*
%TD*%
D42*
%TO.C,SW4*%
X193700000Y-72250000D03*
X182300000Y-72250000D03*
D43*
X190500000Y-79750000D03*
X185500000Y-79750000D03*
X188000000Y-79750000D03*
X190500000Y-65250000D03*
X185500000Y-65250000D03*
%TD*%
D39*
%TO.C,C29*%
X164500000Y-66480000D03*
X164500000Y-65520000D03*
%TD*%
D50*
%TO.C,L1*%
X78305000Y-88265000D03*
X78305000Y-89235000D03*
%TD*%
D48*
%TO.C,C7*%
X111230000Y-110000000D03*
X110270000Y-110000000D03*
%TD*%
D51*
%TO.C,R12*%
X167500000Y-66510000D03*
X167500000Y-65490000D03*
%TD*%
D34*
%TO.C,R14*%
X165500000Y-65490000D03*
X165500000Y-66510000D03*
%TD*%
D52*
%TO.C,SW8*%
X65580000Y-90500000D03*
D53*
X60500000Y-90500000D03*
D52*
X55420000Y-90500000D03*
D16*
X64310000Y-87960000D03*
X57960000Y-85420000D03*
%TD*%
D54*
%TO.C,Q4*%
X169200000Y-84125000D03*
X167300000Y-84125000D03*
X168250000Y-82250000D03*
%TD*%
D55*
%TO.C,R23*%
X72787500Y-64849949D03*
X75712500Y-64849949D03*
%TD*%
D48*
%TO.C,C5*%
X111230000Y-111000000D03*
X110270000Y-111000000D03*
%TD*%
D30*
%TO.C,R67*%
X120010000Y-103000000D03*
X118990000Y-103000000D03*
%TD*%
D21*
%TO.C,C35*%
X79500000Y-71149949D03*
X79500000Y-73049949D03*
%TD*%
%TO.C,C33*%
X89250000Y-67149949D03*
X89250000Y-69049949D03*
%TD*%
D56*
%TO.C,R19*%
X100750000Y-81537500D03*
X100750000Y-84462500D03*
%TD*%
D57*
%TO.C,R22*%
X89250000Y-72849949D03*
X89250000Y-70849949D03*
%TD*%
D58*
%TO.C,L2*%
X93500000Y-86000000D03*
X93500000Y-89000000D03*
%TD*%
D34*
%TO.C,R15*%
X163500000Y-65490000D03*
X163500000Y-66510000D03*
%TD*%
%TO.C,R16*%
X162500000Y-65490000D03*
X162500000Y-66510000D03*
%TD*%
D59*
%TO.C,U1*%
X85205000Y-80450000D03*
X85205000Y-82750000D03*
D60*
X78905000Y-82750000D03*
D59*
X85205000Y-85050000D03*
%TD*%
D39*
%TO.C,C55*%
X120000000Y-101980000D03*
X120000000Y-101020000D03*
%TD*%
D61*
%TO.C,Q2*%
X79150000Y-69049949D03*
X78500000Y-69049949D03*
X77850000Y-69049949D03*
X77850000Y-67149949D03*
X78500000Y-67149949D03*
X79150000Y-67149949D03*
%TD*%
D28*
%TO.C,C4*%
X81805000Y-89200000D03*
X81805000Y-87300000D03*
%TD*%
D62*
%TO.C,U8*%
X91862500Y-93882483D03*
X91862500Y-92932483D03*
X91862500Y-91982483D03*
X94137500Y-91982483D03*
X94137500Y-93882483D03*
%TD*%
D52*
%TO.C,SW7*%
X193080000Y-90500000D03*
D53*
X188000000Y-90500000D03*
D52*
X182920000Y-90500000D03*
D16*
X191810000Y-87960000D03*
X185460000Y-85420000D03*
%TD*%
D34*
%TO.C,R70*%
X127750000Y-109490000D03*
X127750000Y-110510000D03*
%TD*%
D63*
%TO.C,U14*%
X165950000Y-89100000D03*
X168250000Y-89100000D03*
D64*
X168250000Y-95400000D03*
D63*
X170550000Y-89100000D03*
%TD*%
D57*
%TO.C,R18*%
X99750000Y-79250000D03*
X99750000Y-77250000D03*
%TD*%
D21*
%TO.C,C36*%
X93250000Y-67149949D03*
X93250000Y-69049949D03*
%TD*%
D38*
%TO.C,R66*%
X128990000Y-107000000D03*
X130010000Y-107000000D03*
%TD*%
D51*
%TO.C,R62*%
X125750000Y-110510000D03*
X125750000Y-109490000D03*
%TD*%
D38*
%TO.C,R61*%
X118990000Y-104000000D03*
X120010000Y-104000000D03*
%TD*%
D65*
%TO.C,C48*%
X89750000Y-91707483D03*
X89750000Y-88757483D03*
%TD*%
D21*
%TO.C,C34*%
X91250000Y-67149949D03*
X91250000Y-69049949D03*
%TD*%
D66*
%TO.C,Q3*%
X75550000Y-71162449D03*
X77450000Y-71162449D03*
X76500000Y-73037449D03*
%TD*%
D34*
%TO.C,R13*%
X166500000Y-65490000D03*
X166500000Y-66510000D03*
%TD*%
D55*
%TO.C,R24*%
X72787500Y-68099949D03*
X75712500Y-68099949D03*
%TD*%
D67*
%TO.C,FB1*%
X87805000Y-84325000D03*
X87805000Y-81175000D03*
%TD*%
D28*
%TO.C,C2*%
X76555000Y-82700000D03*
X76555000Y-80800000D03*
%TD*%
M02*
