%TF.GenerationSoftware,KiCad,Pcbnew,8.0.5*%
%TF.CreationDate,2024-09-23T14:28:32+02:00*%
%TF.ProjectId,KLST_PANDA,4b4c5354-5f50-4414-9e44-412e6b696361,rev?*%
%TF.SameCoordinates,Original*%
%TF.FileFunction,Paste,Bot*%
%TF.FilePolarity,Positive*%
%FSLAX46Y46*%
G04 Gerber Fmt 4.6, Leading zero omitted, Abs format (unit mm)*
G04 Created by KiCad (PCBNEW 8.0.5) date 2024-09-23 14:28:32*
%MOMM*%
%LPD*%
G01*
G04 APERTURE LIST*
G04 Aperture macros list*
%AMRoundRect*
0 Rectangle with rounded corners*
0 $1 Rounding radius*
0 $2 $3 $4 $5 $6 $7 $8 $9 X,Y pos of 4 corners*
0 Add a 4 corners polygon primitive as box body*
4,1,4,$2,$3,$4,$5,$6,$7,$8,$9,$2,$3,0*
0 Add four circle primitives for the rounded corners*
1,1,$1+$1,$2,$3*
1,1,$1+$1,$4,$5*
1,1,$1+$1,$6,$7*
1,1,$1+$1,$8,$9*
0 Add four rect primitives between the rounded corners*
20,1,$1+$1,$2,$3,$4,$5,0*
20,1,$1+$1,$4,$5,$6,$7,0*
20,1,$1+$1,$6,$7,$8,$9,0*
20,1,$1+$1,$8,$9,$2,$3,0*%
G04 Aperture macros list end*
%ADD10C,2.800000*%
%ADD11RoundRect,0.250000X-0.475000X0.250000X-0.475000X-0.250000X0.475000X-0.250000X0.475000X0.250000X0*%
%ADD12C,0.370000*%
%ADD13RoundRect,0.250000X0.275000X0.700000X-0.275000X0.700000X-0.275000X-0.700000X0.275000X-0.700000X0*%
%ADD14RoundRect,0.150000X-0.587500X-0.150000X0.587500X-0.150000X0.587500X0.150000X-0.587500X0.150000X0*%
%ADD15RoundRect,0.243750X-0.456250X0.243750X-0.456250X-0.243750X0.456250X-0.243750X0.456250X0.243750X0*%
%ADD16RoundRect,0.243750X0.456250X-0.243750X0.456250X0.243750X-0.456250X0.243750X-0.456250X-0.243750X0*%
%ADD17RoundRect,0.150000X-0.675000X-0.150000X0.675000X-0.150000X0.675000X0.150000X-0.675000X0.150000X0*%
%ADD18RoundRect,0.250000X0.475000X-0.250000X0.475000X0.250000X-0.475000X0.250000X-0.475000X-0.250000X0*%
%ADD19RoundRect,0.250000X0.325000X0.650000X-0.325000X0.650000X-0.325000X-0.650000X0.325000X-0.650000X0*%
%ADD20RoundRect,0.135000X0.135000X0.185000X-0.135000X0.185000X-0.135000X-0.185000X0.135000X-0.185000X0*%
%ADD21R,0.406400X0.939800*%
%ADD22R,0.355600X2.311400*%
%ADD23R,1.295400X0.355600*%
%ADD24RoundRect,0.135000X-0.185000X0.135000X-0.185000X-0.135000X0.185000X-0.135000X0.185000X0.135000X0*%
%ADD25RoundRect,0.250000X-1.000000X-0.650000X1.000000X-0.650000X1.000000X0.650000X-1.000000X0.650000X0*%
%ADD26RoundRect,0.250000X-0.650000X1.000000X-0.650000X-1.000000X0.650000X-1.000000X0.650000X1.000000X0*%
%ADD27R,0.550000X1.050000*%
%ADD28RoundRect,0.135000X-0.135000X-0.185000X0.135000X-0.185000X0.135000X0.185000X-0.135000X0.185000X0*%
%ADD29RoundRect,0.140000X0.170000X-0.140000X0.170000X0.140000X-0.170000X0.140000X-0.170000X-0.140000X0*%
%ADD30RoundRect,0.140000X-0.170000X0.140000X-0.170000X-0.140000X0.170000X-0.140000X0.170000X0.140000X0*%
%ADD31RoundRect,0.250000X0.250000X0.475000X-0.250000X0.475000X-0.250000X-0.475000X0.250000X-0.475000X0*%
%ADD32O,2.400000X3.800000*%
%ADD33C,1.800000*%
%ADD34C,0.787000*%
%ADD35R,0.300000X1.300000*%
%ADD36R,1.800000X1.800000*%
%ADD37RoundRect,0.140000X0.140000X0.170000X-0.140000X0.170000X-0.140000X-0.170000X0.140000X-0.170000X0*%
%ADD38RoundRect,0.250000X-0.250000X-0.475000X0.250000X-0.475000X0.250000X0.475000X-0.250000X0.475000X0*%
%ADD39RoundRect,0.147500X-0.172500X0.147500X-0.172500X-0.147500X0.172500X-0.147500X0.172500X0.147500X0*%
%ADD40RoundRect,0.135000X0.185000X-0.135000X0.185000X0.135000X-0.185000X0.135000X-0.185000X-0.135000X0*%
%ADD41RoundRect,0.150000X0.150000X-0.587500X0.150000X0.587500X-0.150000X0.587500X-0.150000X-0.587500X0*%
%ADD42RoundRect,0.250000X-0.312500X-1.075000X0.312500X-1.075000X0.312500X1.075000X-0.312500X1.075000X0*%
%ADD43RoundRect,0.250000X-1.075000X0.312500X-1.075000X-0.312500X1.075000X-0.312500X1.075000X0.312500X0*%
%ADD44RoundRect,0.250000X0.450000X-0.350000X0.450000X0.350000X-0.450000X0.350000X-0.450000X-0.350000X0*%
%ADD45R,3.700000X1.100000*%
%ADD46R,2.000000X1.500000*%
%ADD47R,2.000000X3.800000*%
%ADD48R,0.400000X0.650000*%
%ADD49RoundRect,0.150000X-0.512500X-0.150000X0.512500X-0.150000X0.512500X0.150000X-0.512500X0.150000X0*%
%ADD50RoundRect,0.375000X-0.375000X0.625000X-0.375000X-0.625000X0.375000X-0.625000X0.375000X0.625000X0*%
%ADD51RoundRect,0.500000X-1.400000X0.500000X-1.400000X-0.500000X1.400000X-0.500000X1.400000X0.500000X0*%
%ADD52RoundRect,0.250000X0.650000X-0.325000X0.650000X0.325000X-0.650000X0.325000X-0.650000X-0.325000X0*%
%ADD53RoundRect,0.150000X-0.150000X0.587500X-0.150000X-0.587500X0.150000X-0.587500X0.150000X0.587500X0*%
%ADD54RoundRect,0.250000X0.700000X-0.275000X0.700000X0.275000X-0.700000X0.275000X-0.700000X-0.275000X0*%
G04 APERTURE END LIST*
D10*
%TO.C,J4*%
X155850000Y-121500000D03*
X148251000Y-124000000D03*
X148250000Y-119000000D03*
%TD*%
%TO.C,J3*%
X92650000Y-121500000D03*
X100249000Y-119000000D03*
X100250000Y-124000000D03*
%TD*%
D11*
%TO.C,C1*%
X87555000Y-86050000D03*
X87555000Y-87950000D03*
%TD*%
D12*
%TO.C,U12*%
X125500000Y-102000000D03*
X124500000Y-102000000D03*
X123500000Y-102000000D03*
X122500000Y-102000000D03*
X126500000Y-103000000D03*
X125500000Y-103000000D03*
X124500000Y-103000000D03*
X123500000Y-103000000D03*
X122500000Y-103000000D03*
X126500000Y-104000000D03*
X125500000Y-104000000D03*
X124500000Y-104000000D03*
X123500000Y-104000000D03*
X122500000Y-104000000D03*
X126500000Y-105000000D03*
X125500000Y-105000000D03*
X124500000Y-105000000D03*
X123500000Y-105000000D03*
X122500000Y-105000000D03*
X126500000Y-106000000D03*
X125500000Y-106000000D03*
X124500000Y-106000000D03*
X123500000Y-106000000D03*
X122500000Y-106000000D03*
%TD*%
D13*
%TO.C,FB4*%
X169825000Y-86500000D03*
X166675000Y-86500000D03*
%TD*%
D14*
%TO.C,Q1*%
X90117500Y-83450000D03*
X90117500Y-81550000D03*
X91992500Y-82500000D03*
%TD*%
D15*
%TO.C,D1*%
X179250000Y-53562500D03*
X179250000Y-55437500D03*
%TD*%
D16*
%TO.C,D2*%
X68500000Y-55437500D03*
X68500000Y-53562500D03*
%TD*%
D17*
%TO.C,U4*%
X81625000Y-70504949D03*
X81625000Y-69234949D03*
X81625000Y-67964949D03*
X81625000Y-66694949D03*
X86875000Y-66694949D03*
X86875000Y-67964949D03*
X86875000Y-69234949D03*
X86875000Y-70504949D03*
%TD*%
D18*
%TO.C,C31*%
X97000000Y-76950000D03*
X97000000Y-75050000D03*
%TD*%
D19*
%TO.C,C47*%
X94000000Y-95982483D03*
X91050000Y-95982483D03*
%TD*%
D20*
%TO.C,R60*%
X130010000Y-102000000D03*
X128990000Y-102000000D03*
%TD*%
D21*
%TO.C,U11*%
X73949999Y-53825000D03*
X73949999Y-55175000D03*
X73050001Y-55175000D03*
X73050001Y-53825000D03*
D22*
X74725000Y-54500000D03*
D23*
X73500000Y-56225000D03*
X73500000Y-52775000D03*
D22*
X72275000Y-54500000D03*
%TD*%
D21*
%TO.C,U10*%
X175449999Y-53825000D03*
X175449999Y-55175000D03*
X174550001Y-55175000D03*
X174550001Y-53825000D03*
D22*
X176225000Y-54500000D03*
D23*
X175000000Y-56225000D03*
X175000000Y-52775000D03*
D22*
X173775000Y-54500000D03*
%TD*%
D24*
%TO.C,R68*%
X124750000Y-109490000D03*
X124750000Y-110510000D03*
%TD*%
D25*
%TO.C,D7*%
X82250000Y-73099949D03*
X86250000Y-73099949D03*
%TD*%
D26*
%TO.C,D4*%
X96250000Y-79500000D03*
X96250000Y-83500000D03*
%TD*%
D24*
%TO.C,R17*%
X161500000Y-65490000D03*
X161500000Y-66510000D03*
%TD*%
D27*
%TO.C,U3*%
X96750000Y-86200000D03*
X97700000Y-86200000D03*
X98650000Y-86200000D03*
X98650000Y-88800000D03*
X96750000Y-88800000D03*
%TD*%
D28*
%TO.C,R65*%
X128990000Y-104000000D03*
X130010000Y-104000000D03*
%TD*%
D29*
%TO.C,C56*%
X129000000Y-105980000D03*
X129000000Y-105020000D03*
%TD*%
D28*
%TO.C,R64*%
X128990000Y-103000000D03*
X130010000Y-103000000D03*
%TD*%
D30*
%TO.C,C30*%
X160500000Y-65520000D03*
X160500000Y-66480000D03*
%TD*%
D28*
%TO.C,R63*%
X128990000Y-101000000D03*
X130010000Y-101000000D03*
%TD*%
D31*
%TO.C,C89*%
X167950000Y-97750000D03*
X166050000Y-97750000D03*
%TD*%
D32*
%TO.C,SW5*%
X66200000Y-72250000D03*
X54800000Y-72250000D03*
D33*
X63000000Y-79750000D03*
X58000000Y-79750000D03*
X60500000Y-79750000D03*
X63000000Y-65250000D03*
X58000000Y-65250000D03*
%TD*%
D34*
%TO.C,J15*%
X128060000Y-138135000D03*
X126790000Y-138135000D03*
X125520000Y-138135000D03*
X124250000Y-138135000D03*
X122980000Y-138135000D03*
X121710000Y-138135000D03*
X120440000Y-138135000D03*
X120440000Y-136865000D03*
X121710000Y-136865000D03*
X122980000Y-136865000D03*
X124250000Y-136865000D03*
X125520000Y-136865000D03*
X126790000Y-136865000D03*
X128060000Y-136865000D03*
%TD*%
D18*
%TO.C,C3*%
X79805000Y-89200000D03*
X79805000Y-87300000D03*
%TD*%
D24*
%TO.C,R69*%
X128750000Y-109490000D03*
X128750000Y-110510000D03*
%TD*%
D35*
%TO.C,J2*%
X158250000Y-80250000D03*
X157750000Y-80250000D03*
X157250000Y-80250000D03*
X156750000Y-80250000D03*
X156250000Y-80250000D03*
X155750000Y-80250000D03*
X155250000Y-80250000D03*
X154750000Y-80250000D03*
X154250000Y-80250000D03*
X153750000Y-80250000D03*
X153250000Y-80250000D03*
X152750000Y-80250000D03*
X152250000Y-80250000D03*
X151750000Y-80250000D03*
X151250000Y-80250000D03*
X150750000Y-80250000D03*
X150250000Y-80250000D03*
X149750000Y-80250000D03*
X149250000Y-80250000D03*
X148750000Y-80250000D03*
X148250000Y-80250000D03*
X147750000Y-80250000D03*
X147250000Y-80250000D03*
X146750000Y-80250000D03*
X146250000Y-80250000D03*
X145750000Y-80250000D03*
X145250000Y-80250000D03*
X144750000Y-80250000D03*
X144250000Y-80250000D03*
X143750000Y-80250000D03*
X143250000Y-80250000D03*
X142750000Y-80250000D03*
X142250000Y-80250000D03*
X141750000Y-80250000D03*
X141250000Y-80250000D03*
X140750000Y-80250000D03*
X140250000Y-80250000D03*
X139750000Y-80250000D03*
X139250000Y-80250000D03*
X138750000Y-80250000D03*
D36*
X160400000Y-86000000D03*
X136600000Y-86000000D03*
%TD*%
D37*
%TO.C,C54*%
X123730000Y-109500000D03*
X122770000Y-109500000D03*
%TD*%
D38*
%TO.C,C88*%
X171550000Y-86500000D03*
X173450000Y-86500000D03*
%TD*%
D24*
%TO.C,R71*%
X126750000Y-109490000D03*
X126750000Y-110510000D03*
%TD*%
D11*
%TO.C,C32*%
X97000000Y-90550000D03*
X97000000Y-92450000D03*
%TD*%
D32*
%TO.C,SW4*%
X193700000Y-72250000D03*
X182300000Y-72250000D03*
D33*
X190500000Y-79750000D03*
X185500000Y-79750000D03*
X188000000Y-79750000D03*
X190500000Y-65250000D03*
X185500000Y-65250000D03*
%TD*%
D29*
%TO.C,C29*%
X164500000Y-66480000D03*
X164500000Y-65520000D03*
%TD*%
D39*
%TO.C,L1*%
X78305000Y-88265000D03*
X78305000Y-89235000D03*
%TD*%
D37*
%TO.C,C7*%
X111230000Y-110000000D03*
X110270000Y-110000000D03*
%TD*%
D40*
%TO.C,R12*%
X167500000Y-66510000D03*
X167500000Y-65490000D03*
%TD*%
D24*
%TO.C,R14*%
X165500000Y-65490000D03*
X165500000Y-66510000D03*
%TD*%
D41*
%TO.C,Q4*%
X169200000Y-84125000D03*
X167300000Y-84125000D03*
X168250000Y-82250000D03*
%TD*%
D42*
%TO.C,R23*%
X72787500Y-64849949D03*
X75712500Y-64849949D03*
%TD*%
D37*
%TO.C,C5*%
X111230000Y-111000000D03*
X110270000Y-111000000D03*
%TD*%
D20*
%TO.C,R67*%
X120010000Y-103000000D03*
X118990000Y-103000000D03*
%TD*%
D11*
%TO.C,C35*%
X79500000Y-71149949D03*
X79500000Y-73049949D03*
%TD*%
%TO.C,C33*%
X89250000Y-67149949D03*
X89250000Y-69049949D03*
%TD*%
D43*
%TO.C,R19*%
X100750000Y-81537500D03*
X100750000Y-84462500D03*
%TD*%
D44*
%TO.C,R22*%
X89250000Y-72849949D03*
X89250000Y-70849949D03*
%TD*%
D45*
%TO.C,L2*%
X93500000Y-86000000D03*
X93500000Y-89000000D03*
%TD*%
D24*
%TO.C,R15*%
X163500000Y-65490000D03*
X163500000Y-66510000D03*
%TD*%
%TO.C,R16*%
X162500000Y-65490000D03*
X162500000Y-66510000D03*
%TD*%
D46*
%TO.C,U1*%
X85205000Y-80450000D03*
X85205000Y-82750000D03*
D47*
X78905000Y-82750000D03*
D46*
X85205000Y-85050000D03*
%TD*%
D29*
%TO.C,C55*%
X120000000Y-101980000D03*
X120000000Y-101020000D03*
%TD*%
D48*
%TO.C,Q2*%
X79150000Y-69049949D03*
X78500000Y-69049949D03*
X77850000Y-69049949D03*
X77850000Y-67149949D03*
X78500000Y-67149949D03*
X79150000Y-67149949D03*
%TD*%
D18*
%TO.C,C4*%
X81805000Y-89200000D03*
X81805000Y-87300000D03*
%TD*%
D49*
%TO.C,U8*%
X91862500Y-93882483D03*
X91862500Y-92932483D03*
X91862500Y-91982483D03*
X94137500Y-91982483D03*
X94137500Y-93882483D03*
%TD*%
D24*
%TO.C,R70*%
X127750000Y-109490000D03*
X127750000Y-110510000D03*
%TD*%
D50*
%TO.C,U14*%
X165950000Y-89100000D03*
X168250000Y-89100000D03*
D51*
X168250000Y-95400000D03*
D50*
X170550000Y-89100000D03*
%TD*%
D44*
%TO.C,R18*%
X99750000Y-79250000D03*
X99750000Y-77250000D03*
%TD*%
D11*
%TO.C,C36*%
X93250000Y-67149949D03*
X93250000Y-69049949D03*
%TD*%
D28*
%TO.C,R66*%
X128990000Y-107000000D03*
X130010000Y-107000000D03*
%TD*%
D40*
%TO.C,R62*%
X125750000Y-110510000D03*
X125750000Y-109490000D03*
%TD*%
D28*
%TO.C,R61*%
X118990000Y-104000000D03*
X120010000Y-104000000D03*
%TD*%
D52*
%TO.C,C48*%
X89750000Y-91707483D03*
X89750000Y-88757483D03*
%TD*%
D11*
%TO.C,C34*%
X91250000Y-67149949D03*
X91250000Y-69049949D03*
%TD*%
D53*
%TO.C,Q3*%
X75550000Y-71162449D03*
X77450000Y-71162449D03*
X76500000Y-73037449D03*
%TD*%
D24*
%TO.C,R13*%
X166500000Y-65490000D03*
X166500000Y-66510000D03*
%TD*%
D42*
%TO.C,R24*%
X72787500Y-68099949D03*
X75712500Y-68099949D03*
%TD*%
D54*
%TO.C,FB1*%
X87805000Y-84325000D03*
X87805000Y-81175000D03*
%TD*%
D18*
%TO.C,C2*%
X76555000Y-82700000D03*
X76555000Y-80800000D03*
%TD*%
M02*
