M48
; DRILL file {KiCad 7.0.8} date 2023 December 11, Monday 15:04:51
; FORMAT={-:-/ absolute / inch / decimal}
; #@! TF.CreationDate,2023-12-11T15:04:51+01:00
; #@! TF.GenerationSoftware,Kicad,Pcbnew,7.0.8
; #@! TF.FileFunction,NonPlated,1,6,NPTH
FMAT,2
INCH
; #@! TA.AperFunction,NonPlated,NPTH,ComponentDrill
T1C0.0256
; #@! TA.AperFunction,NonPlated,NPTH,ComponentDrill
T2C0.0300
; #@! TA.AperFunction,NonPlated,NPTH,ComponentDrill
T3C0.0390
; #@! TA.AperFunction,NonPlated,NPTH,ComponentDrill
T4C0.0394
; #@! TA.AperFunction,NonPlated,NPTH,ComponentDrill
T5C0.0689
; #@! TA.AperFunction,NonPlated,NPTH,ComponentDrill
T6C0.1575
%
G90
G05
T1
X4.5417Y-5.8425
X4.7693Y-5.8425
X5.0142Y-5.8425
X5.2417Y-5.8425
T2
X2.7657Y-5.6063
X3.2382Y-5.6063
X3.7106Y-5.6063
X4.1831Y-5.6063
X5.6102Y-5.6063
X6.0827Y-5.6063
X6.5551Y-5.6063
X7.0276Y-5.6063
T3
X4.6917Y-5.3734
X4.6917Y-5.4534
X5.0917Y-5.4134
T4
X3.248Y-2.0261
X3.4449Y-2.0261
T5
X2.1819Y-3.563
X2.5819Y-3.563
X7.2016Y-3.563
X7.6016Y-3.563
T6
X2.3819Y-3.563
X7.4016Y-3.563
T0
M30
