%TF.GenerationSoftware,KiCad,Pcbnew,8.0.5*%
%TF.CreationDate,2024-09-23T14:15:01+02:00*%
%TF.ProjectId,KLST_PANDA,4b4c5354-5f50-4414-9e44-412e6b696361,rev?*%
%TF.SameCoordinates,Original*%
%TF.FileFunction,Legend,Top*%
%TF.FilePolarity,Positive*%
%FSLAX46Y46*%
G04 Gerber Fmt 4.6, Leading zero omitted, Abs format (unit mm)*
G04 Created by KiCad (PCBNEW 8.0.5) date 2024-09-23 14:15:01*
%MOMM*%
%LPD*%
G01*
G04 APERTURE LIST*
G04 Aperture macros list*
%AMRoundRect*
0 Rectangle with rounded corners*
0 $1 Rounding radius*
0 $2 $3 $4 $5 $6 $7 $8 $9 X,Y pos of 4 corners*
0 Add a 4 corners polygon primitive as box body*
4,1,4,$2,$3,$4,$5,$6,$7,$8,$9,$2,$3,0*
0 Add four circle primitives for the rounded corners*
1,1,$1+$1,$2,$3*
1,1,$1+$1,$4,$5*
1,1,$1+$1,$6,$7*
1,1,$1+$1,$8,$9*
0 Add four rect primitives between the rounded corners*
20,1,$1+$1,$2,$3,$4,$5,0*
20,1,$1+$1,$4,$5,$6,$7,0*
20,1,$1+$1,$6,$7,$8,$9,0*
20,1,$1+$1,$8,$9,$2,$3,0*%
G04 Aperture macros list end*
%ADD10C,0.300000*%
%ADD11C,1.000000*%
%ADD12C,0.150000*%
%ADD13C,1.250000*%
%ADD14C,0.120000*%
%ADD15C,0.127000*%
%ADD16C,0.200000*%
%ADD17C,0.254000*%
%ADD18C,0.152000*%
%ADD19RoundRect,0.140000X-0.170000X0.140000X-0.170000X-0.140000X0.170000X-0.140000X0.170000X0.140000X0*%
%ADD20RoundRect,0.140000X0.140000X0.170000X-0.140000X0.170000X-0.140000X-0.170000X0.140000X-0.170000X0*%
%ADD21RoundRect,0.250000X-0.250000X-0.475000X0.250000X-0.475000X0.250000X0.475000X-0.250000X0.475000X0*%
%ADD22RoundRect,0.250000X0.550000X-1.050000X0.550000X1.050000X-0.550000X1.050000X-0.550000X-1.050000X0*%
%ADD23R,3.700000X1.100000*%
%ADD24C,1.600000*%
%ADD25R,2.500000X1.500000*%
%ADD26R,3.400000X1.500000*%
%ADD27RoundRect,0.250000X-1.000000X-0.650000X1.000000X-0.650000X1.000000X0.650000X-1.000000X0.650000X0*%
%ADD28RoundRect,0.135000X0.185000X-0.135000X0.185000X0.135000X-0.185000X0.135000X-0.185000X-0.135000X0*%
%ADD29RoundRect,0.140000X0.170000X-0.140000X0.170000X0.140000X-0.170000X0.140000X-0.170000X-0.140000X0*%
%ADD30RoundRect,0.250000X0.450000X0.425000X-0.450000X0.425000X-0.450000X-0.425000X0.450000X-0.425000X0*%
%ADD31RoundRect,0.140000X-0.140000X-0.170000X0.140000X-0.170000X0.140000X0.170000X-0.140000X0.170000X0*%
%ADD32RoundRect,0.200000X-0.275000X0.200000X-0.275000X-0.200000X0.275000X-0.200000X0.275000X0.200000X0*%
%ADD33RoundRect,0.243750X0.456250X-0.243750X0.456250X0.243750X-0.456250X0.243750X-0.456250X-0.243750X0*%
%ADD34R,0.600000X0.250000*%
%ADD35RoundRect,0.135000X-0.185000X0.135000X-0.185000X-0.135000X0.185000X-0.135000X0.185000X0.135000X0*%
%ADD36RoundRect,0.225000X-0.250000X0.225000X-0.250000X-0.225000X0.250000X-0.225000X0.250000X0.225000X0*%
%ADD37RoundRect,0.250000X0.650000X-1.000000X0.650000X1.000000X-0.650000X1.000000X-0.650000X-1.000000X0*%
%ADD38R,2.000000X1.780000*%
%ADD39RoundRect,0.150000X0.200000X-0.150000X0.200000X0.150000X-0.200000X0.150000X-0.200000X-0.150000X0*%
%ADD40RoundRect,0.250000X-0.450000X0.350000X-0.450000X-0.350000X0.450000X-0.350000X0.450000X0.350000X0*%
%ADD41RoundRect,0.200000X0.800000X-0.200000X0.800000X0.200000X-0.800000X0.200000X-0.800000X-0.200000X0*%
%ADD42RoundRect,0.250000X0.450000X-0.262500X0.450000X0.262500X-0.450000X0.262500X-0.450000X-0.262500X0*%
%ADD43RoundRect,0.250000X-0.600000X-0.600000X0.600000X-0.600000X0.600000X0.600000X-0.600000X0.600000X0*%
%ADD44C,1.700000*%
%ADD45RoundRect,0.006600X-0.358400X-0.103400X0.358400X-0.103400X0.358400X0.103400X-0.358400X0.103400X0*%
%ADD46RoundRect,0.006600X0.103400X-0.358400X0.103400X0.358400X-0.103400X0.358400X-0.103400X-0.358400X0*%
%ADD47R,2.700000X2.700000*%
%ADD48R,0.650000X0.400000*%
%ADD49RoundRect,0.200000X-0.200000X-0.275000X0.200000X-0.275000X0.200000X0.275000X-0.200000X0.275000X0*%
%ADD50C,0.800000*%
%ADD51C,6.400000*%
%ADD52RoundRect,0.250000X-0.450000X0.262500X-0.450000X-0.262500X0.450000X-0.262500X0.450000X0.262500X0*%
%ADD53RoundRect,0.147500X-0.172500X0.147500X-0.172500X-0.147500X0.172500X-0.147500X0.172500X0.147500X0*%
%ADD54RoundRect,0.075000X-0.662500X-0.075000X0.662500X-0.075000X0.662500X0.075000X-0.662500X0.075000X0*%
%ADD55RoundRect,0.075000X-0.075000X-0.662500X0.075000X-0.662500X0.075000X0.662500X-0.075000X0.662500X0*%
%ADD56RoundRect,0.250000X0.600000X0.600000X-0.600000X0.600000X-0.600000X-0.600000X0.600000X-0.600000X0*%
%ADD57RoundRect,0.200000X0.200000X0.275000X-0.200000X0.275000X-0.200000X-0.275000X0.200000X-0.275000X0*%
%ADD58C,2.500000*%
%ADD59R,0.700000X1.200000*%
%ADD60R,1.000000X0.800000*%
%ADD61R,1.000000X1.200000*%
%ADD62R,1.000000X2.800000*%
%ADD63R,1.300000X1.900000*%
%ADD64C,0.650000*%
%ADD65R,0.600000X1.450000*%
%ADD66R,0.300000X1.450000*%
%ADD67O,1.000000X2.100000*%
%ADD68O,1.000000X1.600000*%
%ADD69R,0.400000X0.650000*%
%ADD70C,1.500000*%
%ADD71RoundRect,0.147500X0.172500X-0.147500X0.172500X0.147500X-0.172500X0.147500X-0.172500X-0.147500X0*%
%ADD72RoundRect,0.250000X-0.650000X1.000000X-0.650000X-1.000000X0.650000X-1.000000X0.650000X1.000000X0*%
%ADD73RoundRect,0.250000X-0.550000X1.050000X-0.550000X-1.050000X0.550000X-1.050000X0.550000X1.050000X0*%
%ADD74RoundRect,0.250000X-0.475000X0.250000X-0.475000X-0.250000X0.475000X-0.250000X0.475000X0.250000X0*%
%ADD75R,0.700000X1.000000*%
%ADD76R,0.700000X0.600000*%
%ADD77RoundRect,0.135000X-0.135000X-0.185000X0.135000X-0.185000X0.135000X0.185000X-0.135000X0.185000X0*%
%ADD78R,0.740000X2.400000*%
%ADD79RoundRect,0.250000X0.450000X-0.350000X0.450000X0.350000X-0.450000X0.350000X-0.450000X-0.350000X0*%
%ADD80R,1.200000X1.400000*%
%ADD81C,2.800000*%
%ADD82RoundRect,0.135000X0.135000X0.185000X-0.135000X0.185000X-0.135000X-0.185000X0.135000X-0.185000X0*%
%ADD83O,2.400000X3.800000*%
%ADD84C,1.800000*%
%ADD85C,0.990000*%
%ADD86C,1.750000*%
%ADD87C,4.000000*%
G04 APERTURE END LIST*
D10*
G36*
X113965260Y-84488052D02*
G01*
X114007921Y-84517934D01*
X114115654Y-84746507D01*
X114116609Y-84778053D01*
X114034330Y-85013270D01*
X114009142Y-85038171D01*
X113779106Y-85131100D01*
X113725821Y-85133426D01*
X113488676Y-85071349D01*
X113444941Y-85039392D01*
X113336749Y-84818467D01*
X113335032Y-84778053D01*
X113420116Y-84540965D01*
X113446162Y-84517934D01*
X113684585Y-84431380D01*
X113725821Y-84430006D01*
X113965260Y-84488052D01*
G37*
G36*
X113977481Y-82100130D02*
G01*
X114237685Y-82155011D01*
X114471124Y-82250330D01*
X114677799Y-82386087D01*
X114809038Y-82507815D01*
X114964163Y-82706818D01*
X115081187Y-82934105D01*
X115160110Y-83189675D01*
X115197434Y-83431246D01*
X115207153Y-83648429D01*
X115207153Y-85915003D01*
X115193157Y-86173891D01*
X115141449Y-86449663D01*
X115051639Y-86697153D01*
X114923729Y-86916358D01*
X114809038Y-87055617D01*
X114621480Y-87220259D01*
X114407158Y-87344463D01*
X114166072Y-87428228D01*
X113898222Y-87471555D01*
X113733148Y-87478157D01*
X113486195Y-87463302D01*
X113223262Y-87408422D01*
X112987444Y-87313102D01*
X112778740Y-87177345D01*
X112646267Y-87055617D01*
X112489714Y-86856614D01*
X112371613Y-86629327D01*
X112291964Y-86373757D01*
X112254297Y-86132186D01*
X112244488Y-85915003D01*
X112244488Y-83648429D01*
X112674355Y-83648429D01*
X112674355Y-85915003D01*
X112692139Y-86172908D01*
X112754661Y-86428565D01*
X112876925Y-86669803D01*
X112958898Y-86773517D01*
X113156773Y-86939025D01*
X113394719Y-87043233D01*
X113643131Y-87084610D01*
X113733148Y-87087369D01*
X113988547Y-87062542D01*
X114234937Y-86976724D01*
X114441971Y-86829605D01*
X114496407Y-86773517D01*
X114644527Y-86554819D01*
X114730930Y-86319448D01*
X114772897Y-86047562D01*
X114777286Y-85915003D01*
X114777286Y-83648429D01*
X114759731Y-83390524D01*
X114698014Y-83134867D01*
X114577324Y-82893630D01*
X114496407Y-82789916D01*
X114301179Y-82624408D01*
X114066597Y-82520199D01*
X113821823Y-82478822D01*
X113733148Y-82476064D01*
X113473916Y-82500890D01*
X113223949Y-82586709D01*
X113014053Y-82733827D01*
X112958898Y-82789916D01*
X112808846Y-83008613D01*
X112721316Y-83243984D01*
X112678801Y-83515870D01*
X112674355Y-83648429D01*
X112244488Y-83648429D01*
X112258613Y-83389541D01*
X112310797Y-83113769D01*
X112401433Y-82866280D01*
X112530520Y-82647074D01*
X112646267Y-82507815D01*
X112835603Y-82343173D01*
X113052054Y-82218969D01*
X113295619Y-82135204D01*
X113566299Y-82091877D01*
X113733148Y-82085275D01*
X113977481Y-82100130D01*
G37*
G36*
X118176314Y-82101987D02*
G01*
X118438589Y-82159756D01*
X118679397Y-82258789D01*
X118747453Y-82296545D01*
X118955823Y-82443806D01*
X119133662Y-82623029D01*
X119280971Y-82834213D01*
X119306770Y-82880286D01*
X119413030Y-83126007D01*
X119475015Y-83367958D01*
X119505122Y-83629615D01*
X119508270Y-83752233D01*
X119495218Y-84000215D01*
X119456063Y-84249572D01*
X119415458Y-84416573D01*
X119330736Y-84667876D01*
X119226522Y-84898841D01*
X119122366Y-85088241D01*
X117732624Y-87400000D01*
X117231927Y-87400000D01*
X118705981Y-85035838D01*
X118588505Y-85136498D01*
X118420168Y-85229902D01*
X118181024Y-85319250D01*
X117935588Y-85361296D01*
X117781473Y-85367899D01*
X117528739Y-85348221D01*
X117271669Y-85281120D01*
X117036532Y-85166399D01*
X116828670Y-85008963D01*
X116653419Y-84813721D01*
X116522401Y-84603419D01*
X116423869Y-84365926D01*
X116361831Y-84105297D01*
X116337198Y-83850949D01*
X116335555Y-83762002D01*
X116335774Y-83758339D01*
X116765423Y-83758339D01*
X116786374Y-84018343D01*
X116856358Y-84272882D01*
X116914411Y-84398255D01*
X117054797Y-84601942D01*
X117247005Y-84775317D01*
X117325960Y-84825680D01*
X117550981Y-84923725D01*
X117799381Y-84971787D01*
X117921913Y-84977110D01*
X118171346Y-84956197D01*
X118420574Y-84882674D01*
X118636571Y-84756214D01*
X118762108Y-84642498D01*
X118915584Y-84436697D01*
X119020180Y-84195734D01*
X119072120Y-83952025D01*
X119085730Y-83751011D01*
X119072585Y-83495738D01*
X119016772Y-83245895D01*
X118946511Y-83078122D01*
X118807893Y-82867691D01*
X118630174Y-82698778D01*
X118534962Y-82634822D01*
X118305942Y-82532032D01*
X118049510Y-82481645D01*
X117921913Y-82476064D01*
X117662722Y-82502265D01*
X117426911Y-82580869D01*
X117325960Y-82634822D01*
X117131962Y-82785176D01*
X116974646Y-82978259D01*
X116914411Y-83081786D01*
X116823621Y-83311451D01*
X116774735Y-83569966D01*
X116765423Y-83758339D01*
X116335774Y-83758339D01*
X116351784Y-83490213D01*
X116400471Y-83238130D01*
X116481615Y-83005753D01*
X116540719Y-82885170D01*
X116683735Y-82666187D01*
X116856327Y-82479403D01*
X117058495Y-82324819D01*
X117102478Y-82297766D01*
X117336250Y-82185710D01*
X117590296Y-82115157D01*
X117836271Y-82087143D01*
X117921913Y-82085275D01*
X118176314Y-82101987D01*
G37*
G36*
X120952966Y-85211584D02*
G01*
X120952966Y-84820795D01*
X123283043Y-84820795D01*
X123283043Y-85211584D01*
X120952966Y-85211584D01*
G37*
G36*
X124847419Y-87400000D02*
G01*
X124847419Y-87032414D01*
X126708549Y-85052826D01*
X126883320Y-84852875D01*
X127033941Y-84647321D01*
X127160411Y-84436164D01*
X127220238Y-84316434D01*
X127315550Y-84077748D01*
X127379621Y-83820980D01*
X127400978Y-83570272D01*
X127376828Y-83310772D01*
X127293346Y-83056654D01*
X127150235Y-82838553D01*
X127095674Y-82780146D01*
X126886136Y-82619790D01*
X126639150Y-82518825D01*
X126384845Y-82478736D01*
X126293336Y-82476064D01*
X126028330Y-82500407D01*
X125793850Y-82573436D01*
X125569118Y-82711682D01*
X125489777Y-82783810D01*
X125329421Y-82996735D01*
X125235880Y-83224872D01*
X125190446Y-83487592D01*
X125185695Y-83615457D01*
X124755828Y-83615457D01*
X124771284Y-83355807D01*
X124824712Y-83094724D01*
X124916303Y-82862503D01*
X124951222Y-82798464D01*
X125103449Y-82585590D01*
X125291464Y-82407060D01*
X125493441Y-82274563D01*
X125720582Y-82174743D01*
X125968474Y-82111894D01*
X126237117Y-82086015D01*
X126293336Y-82085275D01*
X126539784Y-82099958D01*
X126793902Y-82150715D01*
X127027268Y-82237727D01*
X127093232Y-82270900D01*
X127313780Y-82416266D01*
X127498541Y-82597131D01*
X127635451Y-82792358D01*
X127746696Y-83035103D01*
X127807756Y-83277819D01*
X127830654Y-83541525D01*
X127830845Y-83569050D01*
X127809855Y-83835189D01*
X127755072Y-84080832D01*
X127666286Y-84332271D01*
X127615911Y-84445882D01*
X127497453Y-84671654D01*
X127355793Y-84892236D01*
X127190929Y-85107628D01*
X127027639Y-85291838D01*
X127002862Y-85317829D01*
X125405514Y-87009211D01*
X127900454Y-87009211D01*
X127900454Y-87400000D01*
X124847419Y-87400000D01*
G37*
G36*
X131314969Y-87400000D02*
G01*
X131314969Y-86149476D01*
X128959247Y-86149476D01*
X128959247Y-85413084D01*
X130987684Y-82163433D01*
X131466400Y-82163433D01*
X129389114Y-85529099D01*
X129389114Y-85758688D01*
X131314969Y-85758688D01*
X131314969Y-84351849D01*
X131744837Y-84351849D01*
X131744837Y-87400000D01*
X131314969Y-87400000D01*
G37*
G36*
X133365388Y-88254849D02*
G01*
X133365388Y-87850628D01*
X133640734Y-87763802D01*
X133890663Y-87648040D01*
X134115175Y-87503340D01*
X134314271Y-87329703D01*
X134487951Y-87127130D01*
X134540196Y-87053175D01*
X134678813Y-86815496D01*
X134788751Y-86555835D01*
X134870010Y-86274193D01*
X134915817Y-86022699D01*
X134941708Y-85755940D01*
X134948082Y-85531542D01*
X134948082Y-84124703D01*
X134938123Y-83846084D01*
X134908249Y-83582670D01*
X134858458Y-83334462D01*
X134772420Y-83056683D01*
X134657702Y-82800801D01*
X134540196Y-82604291D01*
X134374989Y-82392072D01*
X134184365Y-82208790D01*
X133968324Y-82054444D01*
X133726867Y-81929036D01*
X133459994Y-81832565D01*
X133365388Y-81806838D01*
X133365388Y-81402616D01*
X133604116Y-81470108D01*
X133881865Y-81575133D01*
X134136656Y-81703116D01*
X134368490Y-81854057D01*
X134577367Y-82027954D01*
X134763286Y-82224810D01*
X134863818Y-82353942D01*
X135011932Y-82584578D01*
X135134942Y-82832267D01*
X135232847Y-83097011D01*
X135305649Y-83378808D01*
X135353347Y-83677660D01*
X135373430Y-83929020D01*
X135377949Y-84124703D01*
X135377949Y-85531542D01*
X135369916Y-85789657D01*
X135345816Y-86037048D01*
X135293097Y-86331207D01*
X135215275Y-86608610D01*
X135112348Y-86869257D01*
X134984317Y-87113148D01*
X134863818Y-87296196D01*
X134691673Y-87507005D01*
X134496571Y-87695214D01*
X134278511Y-87860823D01*
X134037495Y-88003833D01*
X133773520Y-88124243D01*
X133486589Y-88222053D01*
X133365388Y-88254849D01*
G37*
G36*
X115066714Y-83004849D02*
G01*
X114827985Y-82935641D01*
X114550237Y-82828791D01*
X114295445Y-82699341D01*
X114063612Y-82547291D01*
X113854735Y-82372642D01*
X113668816Y-82175393D01*
X113568284Y-82046196D01*
X113420170Y-81815710D01*
X113297160Y-81568468D01*
X113199254Y-81304470D01*
X113126452Y-81023716D01*
X113078755Y-80726206D01*
X113058671Y-80476133D01*
X113054153Y-80281542D01*
X113054153Y-78874703D01*
X113062186Y-78615157D01*
X113086286Y-78366525D01*
X113139004Y-78071084D01*
X113216827Y-77792698D01*
X113319754Y-77531365D01*
X113447784Y-77287086D01*
X113568284Y-77103942D01*
X113740429Y-76893313D01*
X113935531Y-76705640D01*
X114153590Y-76540926D01*
X114394607Y-76399168D01*
X114658581Y-76280368D01*
X114945513Y-76184525D01*
X115066714Y-76152616D01*
X115066714Y-76556838D01*
X114791325Y-76643664D01*
X114541267Y-76759426D01*
X114316540Y-76904126D01*
X114117143Y-77077762D01*
X113943077Y-77280336D01*
X113890684Y-77354291D01*
X113752482Y-77591927D01*
X113642873Y-77851459D01*
X113561858Y-78132887D01*
X113516188Y-78384136D01*
X113490374Y-78650591D01*
X113484020Y-78874703D01*
X113484020Y-80281542D01*
X113493948Y-80560513D01*
X113523733Y-80824219D01*
X113573375Y-81072660D01*
X113659156Y-81350638D01*
X113773530Y-81606635D01*
X113890684Y-81803175D01*
X114056307Y-82015394D01*
X114247260Y-82198676D01*
X114463544Y-82353022D01*
X114705158Y-82478430D01*
X114972103Y-82574901D01*
X115066714Y-82600628D01*
X115066714Y-83004849D01*
G37*
G36*
X116455234Y-82150000D02*
G01*
X116455234Y-81782414D01*
X118316365Y-79802826D01*
X118491136Y-79602875D01*
X118641756Y-79397321D01*
X118768227Y-79186164D01*
X118828054Y-79066434D01*
X118923366Y-78827748D01*
X118987436Y-78570980D01*
X119008793Y-78320272D01*
X118984643Y-78060772D01*
X118901162Y-77806654D01*
X118758051Y-77588553D01*
X118703490Y-77530146D01*
X118493951Y-77369790D01*
X118246966Y-77268825D01*
X117992661Y-77228736D01*
X117901152Y-77226064D01*
X117636146Y-77250407D01*
X117401666Y-77323436D01*
X117176934Y-77461682D01*
X117097593Y-77533810D01*
X116937237Y-77746735D01*
X116843696Y-77974872D01*
X116798262Y-78237592D01*
X116793511Y-78365457D01*
X116363643Y-78365457D01*
X116379099Y-78105807D01*
X116432527Y-77844724D01*
X116524118Y-77612503D01*
X116559038Y-77548464D01*
X116711265Y-77335590D01*
X116899279Y-77157060D01*
X117101257Y-77024563D01*
X117328398Y-76924743D01*
X117576290Y-76861894D01*
X117844933Y-76836015D01*
X117901152Y-76835275D01*
X118147600Y-76849958D01*
X118401717Y-76900715D01*
X118635084Y-76987727D01*
X118701047Y-77020900D01*
X118921596Y-77166266D01*
X119106357Y-77347131D01*
X119243266Y-77542358D01*
X119354511Y-77785103D01*
X119415572Y-78027819D01*
X119438470Y-78291525D01*
X119438661Y-78319050D01*
X119417671Y-78585189D01*
X119362888Y-78830832D01*
X119274102Y-79082271D01*
X119223727Y-79195882D01*
X119105269Y-79421654D01*
X118963608Y-79642236D01*
X118798744Y-79857628D01*
X118635455Y-80041838D01*
X118610677Y-80067829D01*
X117013329Y-81759211D01*
X119508270Y-81759211D01*
X119508270Y-82150000D01*
X116455234Y-82150000D01*
G37*
G36*
X122357444Y-79238052D02*
G01*
X122400105Y-79267934D01*
X122507838Y-79496507D01*
X122508793Y-79528053D01*
X122426514Y-79763270D01*
X122401326Y-79788171D01*
X122171290Y-79881100D01*
X122118005Y-79883426D01*
X121880860Y-79821349D01*
X121837126Y-79789392D01*
X121728934Y-79568467D01*
X121727216Y-79528053D01*
X121812301Y-79290965D01*
X121838347Y-79267934D01*
X122076770Y-79181380D01*
X122118005Y-79180006D01*
X122357444Y-79238052D01*
G37*
G36*
X122369666Y-76850130D02*
G01*
X122629869Y-76905011D01*
X122863308Y-77000330D01*
X123069983Y-77136087D01*
X123201222Y-77257815D01*
X123356347Y-77456818D01*
X123473371Y-77684105D01*
X123552295Y-77939675D01*
X123589618Y-78181246D01*
X123599338Y-78398429D01*
X123599338Y-80665003D01*
X123585341Y-80923891D01*
X123533633Y-81199663D01*
X123443824Y-81447153D01*
X123315913Y-81666358D01*
X123201222Y-81805617D01*
X123013664Y-81970259D01*
X122799342Y-82094463D01*
X122558256Y-82178228D01*
X122290406Y-82221555D01*
X122125332Y-82228157D01*
X121878380Y-82213302D01*
X121615447Y-82158422D01*
X121379628Y-82063102D01*
X121170925Y-81927345D01*
X121038451Y-81805617D01*
X120881899Y-81606614D01*
X120763797Y-81379327D01*
X120684148Y-81123757D01*
X120646481Y-80882186D01*
X120636672Y-80665003D01*
X120636672Y-78398429D01*
X121066539Y-78398429D01*
X121066539Y-80665003D01*
X121084323Y-80922908D01*
X121146845Y-81178565D01*
X121269109Y-81419803D01*
X121351082Y-81523517D01*
X121548957Y-81689025D01*
X121786903Y-81793233D01*
X122035315Y-81834610D01*
X122125332Y-81837369D01*
X122380732Y-81812542D01*
X122627121Y-81726724D01*
X122834155Y-81579605D01*
X122888591Y-81523517D01*
X123036711Y-81304819D01*
X123123114Y-81069448D01*
X123165082Y-80797562D01*
X123169470Y-80665003D01*
X123169470Y-78398429D01*
X123151915Y-78140524D01*
X123090199Y-77884867D01*
X122969508Y-77643630D01*
X122888591Y-77539916D01*
X122693364Y-77374408D01*
X122458781Y-77270199D01*
X122214007Y-77228822D01*
X122125332Y-77226064D01*
X121866101Y-77250890D01*
X121616133Y-77336709D01*
X121406237Y-77483827D01*
X121351082Y-77539916D01*
X121201030Y-77758613D01*
X121113500Y-77993984D01*
X121070985Y-78265870D01*
X121066539Y-78398429D01*
X120636672Y-78398429D01*
X120650797Y-78139541D01*
X120702981Y-77863769D01*
X120793617Y-77616280D01*
X120922704Y-77397074D01*
X121038451Y-77257815D01*
X121227787Y-77093173D01*
X121444238Y-76968969D01*
X121687803Y-76885204D01*
X121958484Y-76841877D01*
X122125332Y-76835275D01*
X122369666Y-76850130D01*
G37*
G36*
X124847419Y-82150000D02*
G01*
X124847419Y-81782414D01*
X126708549Y-79802826D01*
X126883320Y-79602875D01*
X127033941Y-79397321D01*
X127160411Y-79186164D01*
X127220238Y-79066434D01*
X127315550Y-78827748D01*
X127379621Y-78570980D01*
X127400978Y-78320272D01*
X127376828Y-78060772D01*
X127293346Y-77806654D01*
X127150235Y-77588553D01*
X127095674Y-77530146D01*
X126886136Y-77369790D01*
X126639150Y-77268825D01*
X126384845Y-77228736D01*
X126293336Y-77226064D01*
X126028330Y-77250407D01*
X125793850Y-77323436D01*
X125569118Y-77461682D01*
X125489777Y-77533810D01*
X125329421Y-77746735D01*
X125235880Y-77974872D01*
X125190446Y-78237592D01*
X125185695Y-78365457D01*
X124755828Y-78365457D01*
X124771284Y-78105807D01*
X124824712Y-77844724D01*
X124916303Y-77612503D01*
X124951222Y-77548464D01*
X125103449Y-77335590D01*
X125291464Y-77157060D01*
X125493441Y-77024563D01*
X125720582Y-76924743D01*
X125968474Y-76861894D01*
X126237117Y-76836015D01*
X126293336Y-76835275D01*
X126539784Y-76849958D01*
X126793902Y-76900715D01*
X127027268Y-76987727D01*
X127093232Y-77020900D01*
X127313780Y-77166266D01*
X127498541Y-77347131D01*
X127635451Y-77542358D01*
X127746696Y-77785103D01*
X127807756Y-78027819D01*
X127830654Y-78291525D01*
X127830845Y-78319050D01*
X127809855Y-78585189D01*
X127755072Y-78830832D01*
X127666286Y-79082271D01*
X127615911Y-79195882D01*
X127497453Y-79421654D01*
X127355793Y-79642236D01*
X127190929Y-79857628D01*
X127027639Y-80041838D01*
X127002862Y-80067829D01*
X125405514Y-81759211D01*
X127900454Y-81759211D01*
X127900454Y-82150000D01*
X124847419Y-82150000D01*
G37*
G36*
X131314969Y-82150000D02*
G01*
X131314969Y-80899476D01*
X128959247Y-80899476D01*
X128959247Y-80163084D01*
X130987684Y-76913433D01*
X131466400Y-76913433D01*
X129389114Y-80279099D01*
X129389114Y-80508688D01*
X131314969Y-80508688D01*
X131314969Y-79101849D01*
X131744837Y-79101849D01*
X131744837Y-82150000D01*
X131314969Y-82150000D01*
G37*
G36*
X133541243Y-79961584D02*
G01*
X133541243Y-79570795D01*
X135871320Y-79570795D01*
X135871320Y-79961584D01*
X133541243Y-79961584D01*
G37*
G36*
X130263504Y-76900000D02*
G01*
X128907956Y-72913956D01*
X129370796Y-72913956D01*
X130356316Y-75858304D01*
X130432451Y-76103787D01*
X130473553Y-76255198D01*
X130513853Y-76464026D01*
X130556595Y-76255198D01*
X130626318Y-76016891D01*
X130677495Y-75858304D01*
X131649582Y-72913956D01*
X132112422Y-72913956D01*
X130756874Y-76900000D01*
X130263504Y-76900000D01*
G37*
G36*
X133239603Y-76900000D02*
G01*
X133239603Y-76532414D01*
X135100733Y-74552826D01*
X135275504Y-74352875D01*
X135426125Y-74147321D01*
X135552596Y-73936164D01*
X135612422Y-73816434D01*
X135707734Y-73577748D01*
X135771805Y-73320980D01*
X135793162Y-73070272D01*
X135769012Y-72810772D01*
X135685530Y-72556654D01*
X135542419Y-72338553D01*
X135487858Y-72280146D01*
X135278320Y-72119790D01*
X135031334Y-72018825D01*
X134777029Y-71978736D01*
X134685520Y-71976064D01*
X134420515Y-72000407D01*
X134186034Y-72073436D01*
X133961302Y-72211682D01*
X133881962Y-72283810D01*
X133721606Y-72496735D01*
X133628065Y-72724872D01*
X133582630Y-72987592D01*
X133577879Y-73115457D01*
X133148012Y-73115457D01*
X133163468Y-72855807D01*
X133216896Y-72594724D01*
X133308487Y-72362503D01*
X133343406Y-72298464D01*
X133495633Y-72085590D01*
X133683648Y-71907060D01*
X133885625Y-71774563D01*
X134112766Y-71674743D01*
X134360658Y-71611894D01*
X134629302Y-71586015D01*
X134685520Y-71585275D01*
X134931968Y-71599958D01*
X135186086Y-71650715D01*
X135419452Y-71737727D01*
X135485416Y-71770900D01*
X135705964Y-71916266D01*
X135890725Y-72097131D01*
X136027635Y-72292358D01*
X136138880Y-72535103D01*
X136199941Y-72777819D01*
X136222838Y-73041525D01*
X136223029Y-73069050D01*
X136202040Y-73335189D01*
X136147257Y-73580832D01*
X136058471Y-73832271D01*
X136008096Y-73945882D01*
X135889638Y-74171654D01*
X135747977Y-74392236D01*
X135583113Y-74607628D01*
X135419823Y-74791838D01*
X135395046Y-74817829D01*
X133797698Y-76509211D01*
X136292638Y-76509211D01*
X136292638Y-76900000D01*
X133239603Y-76900000D01*
G37*
G36*
X135034711Y-66504413D02*
G01*
X135279947Y-66542882D01*
X135535217Y-66616813D01*
X135718668Y-66696755D01*
X135931553Y-66824320D01*
X136134102Y-66996197D01*
X136300874Y-67199796D01*
X136343929Y-67267062D01*
X136461137Y-67508442D01*
X136529509Y-67746894D01*
X136562718Y-68005438D01*
X136566190Y-68126796D01*
X136548416Y-68391019D01*
X136495093Y-68636887D01*
X136406221Y-68864401D01*
X136341487Y-68982868D01*
X136183755Y-69198035D01*
X135991437Y-69381003D01*
X135788781Y-69518142D01*
X135715004Y-69558060D01*
X135478484Y-69656645D01*
X135219554Y-69722966D01*
X134970579Y-69754832D01*
X134772227Y-69762002D01*
X134076135Y-69762002D01*
X134076135Y-71650000D01*
X133021005Y-71650000D01*
X133021005Y-68836322D01*
X134076135Y-68836322D01*
X134772227Y-68836322D01*
X135024301Y-68803066D01*
X135244826Y-68692871D01*
X135310782Y-68634822D01*
X135454537Y-68422838D01*
X135509301Y-68183347D01*
X135511061Y-68126796D01*
X135472727Y-67878690D01*
X135346574Y-67657476D01*
X135310782Y-67618771D01*
X135092699Y-67474140D01*
X134834441Y-67419042D01*
X134772227Y-67417271D01*
X134076135Y-67417271D01*
X134076135Y-68836322D01*
X133021005Y-68836322D01*
X133021005Y-66491591D01*
X134772227Y-66491591D01*
X135034711Y-66504413D01*
G37*
G36*
X115621145Y-76900000D02*
G01*
X114545255Y-76900000D01*
X114298570Y-75727634D01*
X113074913Y-75727634D01*
X112828228Y-76900000D01*
X111752338Y-76900000D01*
X112248336Y-74867899D01*
X113250768Y-74867899D01*
X114115388Y-74867899D01*
X113869924Y-73634473D01*
X113822447Y-73385692D01*
X113773896Y-73138521D01*
X113767342Y-73105687D01*
X113718441Y-72859114D01*
X113686742Y-72695359D01*
X113641987Y-72937163D01*
X113612248Y-73102023D01*
X113567472Y-73346350D01*
X113517866Y-73593896D01*
X113510887Y-73627145D01*
X113250768Y-74867899D01*
X112248336Y-74867899D01*
X113011410Y-71741591D01*
X114347419Y-71741591D01*
X115621145Y-76900000D01*
G37*
G36*
X116195116Y-76900000D02*
G01*
X116195116Y-71741591D01*
X117426100Y-71741591D01*
X118754781Y-75744731D01*
X118735213Y-75499563D01*
X118714531Y-75244279D01*
X118705932Y-75139009D01*
X118686240Y-74881638D01*
X118669296Y-74624267D01*
X118659526Y-74452686D01*
X118648456Y-74190007D01*
X118642846Y-73945440D01*
X118642429Y-73867725D01*
X118642429Y-71741591D01*
X119570552Y-71741591D01*
X119570552Y-76900000D01*
X118339568Y-76900000D01*
X117024320Y-72940823D01*
X117045997Y-73186592D01*
X117064463Y-73436202D01*
X117067063Y-73474494D01*
X117083326Y-73725746D01*
X117098380Y-73979418D01*
X117104920Y-74097313D01*
X117116781Y-74341822D01*
X117122952Y-74595397D01*
X117123239Y-74657850D01*
X117123239Y-76900000D01*
X116195116Y-76900000D01*
G37*
G36*
X122337747Y-71754413D02*
G01*
X122579318Y-71792882D01*
X122830468Y-71866813D01*
X123010712Y-71946755D01*
X123220646Y-72075297D01*
X123421049Y-72248938D01*
X123586867Y-72455018D01*
X123629868Y-72523168D01*
X123747076Y-72767315D01*
X123815447Y-73009073D01*
X123848656Y-73271696D01*
X123852129Y-73395115D01*
X123852129Y-75239148D01*
X123834548Y-75507889D01*
X123781804Y-75757697D01*
X123693898Y-75988571D01*
X123629868Y-76108653D01*
X123474426Y-76326754D01*
X123284398Y-76512417D01*
X123083803Y-76651778D01*
X123010712Y-76692393D01*
X122776543Y-76792750D01*
X122520543Y-76860262D01*
X122274659Y-76892701D01*
X122078926Y-76900000D01*
X120411968Y-76900000D01*
X120411968Y-75974319D01*
X121467098Y-75974319D01*
X122078926Y-75974319D01*
X122333478Y-75935751D01*
X122556928Y-75808829D01*
X122595500Y-75772819D01*
X122740131Y-75558689D01*
X122795229Y-75313320D01*
X122797000Y-75255024D01*
X122797000Y-73379239D01*
X122758431Y-73125155D01*
X122631510Y-72903243D01*
X122595500Y-72865108D01*
X122382246Y-72723106D01*
X122137211Y-72669010D01*
X122078926Y-72667271D01*
X121467098Y-72667271D01*
X121467098Y-75974319D01*
X120411968Y-75974319D01*
X120411968Y-71741591D01*
X122078926Y-71741591D01*
X122337747Y-71754413D01*
G37*
G36*
X128209421Y-76900000D02*
G01*
X127133532Y-76900000D01*
X126886846Y-75727634D01*
X125663190Y-75727634D01*
X125416504Y-76900000D01*
X124340615Y-76900000D01*
X124836613Y-74867899D01*
X125839045Y-74867899D01*
X126703664Y-74867899D01*
X126458200Y-73634473D01*
X126410723Y-73385692D01*
X126362173Y-73138521D01*
X126355618Y-73105687D01*
X126306717Y-72859114D01*
X126275018Y-72695359D01*
X126230264Y-72937163D01*
X126200524Y-73102023D01*
X126155748Y-73346350D01*
X126106142Y-73593896D01*
X126099163Y-73627145D01*
X125839045Y-74867899D01*
X124836613Y-74867899D01*
X125599687Y-71741591D01*
X126935695Y-71741591D01*
X128209421Y-76900000D01*
G37*
G36*
X112350733Y-71650000D02*
G01*
X112350733Y-66413433D01*
X112780601Y-66413433D01*
X112780601Y-68758164D01*
X113792987Y-68758164D01*
X114932380Y-66413433D01*
X115406211Y-66413433D01*
X114177670Y-68937683D01*
X115475821Y-71650000D01*
X114975123Y-71650000D01*
X113785660Y-69148953D01*
X112780601Y-69148953D01*
X112780601Y-71650000D01*
X112350733Y-71650000D01*
G37*
G36*
X116756874Y-71650000D02*
G01*
X116756874Y-66413433D01*
X117186742Y-66413433D01*
X117186742Y-71259211D01*
X119684125Y-71259211D01*
X119684125Y-71650000D01*
X116756874Y-71650000D01*
G37*
G36*
X122153420Y-71728157D02*
G01*
X121899019Y-71712991D01*
X121636744Y-71660565D01*
X121395936Y-71570691D01*
X121327879Y-71536427D01*
X121120034Y-71401688D01*
X120926116Y-71219038D01*
X120781383Y-71021688D01*
X120768563Y-71000314D01*
X120662303Y-70770477D01*
X120595399Y-70512973D01*
X120568834Y-70257562D01*
X120567063Y-70167445D01*
X120989603Y-70167445D01*
X121009753Y-70423824D01*
X121080593Y-70678494D01*
X121202438Y-70897421D01*
X121312003Y-71023517D01*
X121508906Y-71175232D01*
X121736914Y-71277295D01*
X121996028Y-71329706D01*
X122153420Y-71337369D01*
X122411836Y-71315537D01*
X122665428Y-71240070D01*
X122883720Y-71110697D01*
X122942324Y-71061374D01*
X123102680Y-70872611D01*
X123210475Y-70629157D01*
X123246110Y-70375278D01*
X123246407Y-70348185D01*
X123221442Y-70085618D01*
X123146549Y-69847005D01*
X123035137Y-69650872D01*
X122873123Y-69467685D01*
X122656224Y-69319193D01*
X122466051Y-69242986D01*
X121747977Y-69023168D01*
X121495432Y-68923745D01*
X121273607Y-68788966D01*
X121082500Y-68618832D01*
X120989603Y-68509036D01*
X120853236Y-68292696D01*
X120761498Y-68058580D01*
X120714390Y-67806690D01*
X120707502Y-67659071D01*
X120728859Y-67399430D01*
X120792930Y-67162877D01*
X120888242Y-66967864D01*
X121044806Y-66763502D01*
X121241555Y-66595546D01*
X121395046Y-66503803D01*
X121630904Y-66407854D01*
X121890139Y-66351733D01*
X122146093Y-66335275D01*
X122401928Y-66352806D01*
X122660756Y-66412587D01*
X122895918Y-66514794D01*
X123102915Y-66654401D01*
X123275568Y-66828064D01*
X123402722Y-67015491D01*
X123506319Y-67252753D01*
X123563182Y-67496996D01*
X123584505Y-67768430D01*
X123584683Y-67797069D01*
X123162143Y-67797069D01*
X123139925Y-67530356D01*
X123063122Y-67275475D01*
X122931460Y-67064243D01*
X122881264Y-67009385D01*
X122667353Y-66848080D01*
X122435323Y-66759542D01*
X122167514Y-66726340D01*
X122138765Y-66726064D01*
X121874463Y-66750631D01*
X121622024Y-66834406D01*
X121409701Y-66977634D01*
X121250481Y-67167642D01*
X121157353Y-67393438D01*
X121130042Y-67629762D01*
X121157692Y-67879291D01*
X121250047Y-68123644D01*
X121326658Y-68244033D01*
X121508780Y-68434542D01*
X121716606Y-68564602D01*
X121855444Y-68620167D01*
X122573518Y-68846092D01*
X122812112Y-68940888D01*
X123024756Y-69065300D01*
X123232961Y-69240661D01*
X123372192Y-69402965D01*
X123515643Y-69635578D01*
X123612146Y-69888283D01*
X123658514Y-70129779D01*
X123668947Y-70321318D01*
X123650223Y-70571286D01*
X123586375Y-70824211D01*
X123477216Y-71054047D01*
X123327941Y-71255888D01*
X123143744Y-71424829D01*
X122945988Y-71549860D01*
X122699163Y-71651371D01*
X122451486Y-71707089D01*
X122181626Y-71727983D01*
X122153420Y-71728157D01*
G37*
G36*
X126106490Y-71650000D02*
G01*
X126106490Y-66804221D01*
X124587300Y-66804221D01*
X124587300Y-66413433D01*
X128040894Y-66413433D01*
X128040894Y-66804221D01*
X126536358Y-66804221D01*
X126536358Y-71650000D01*
X126106490Y-71650000D01*
G37*
G36*
X128783392Y-72118946D02*
G01*
X128783392Y-71728157D01*
X132236986Y-71728157D01*
X132236986Y-72118946D01*
X128783392Y-72118946D01*
G37*
D11*
X123000000Y-141250000D02*
X125500000Y-141250000D01*
D12*
X67500000Y-57500000D02*
X69500000Y-57500000D01*
X69500000Y-61000000D01*
X67500000Y-61000000D01*
X67500000Y-57500000D01*
G36*
X67500000Y-57500000D02*
G01*
X69500000Y-57500000D01*
X69500000Y-61000000D01*
X67500000Y-61000000D01*
X67500000Y-57500000D01*
G37*
G36*
X101755147Y-62262639D02*
G01*
X101755147Y-62017786D01*
X101720342Y-61982370D01*
X101125000Y-61982370D01*
X101090195Y-61947566D01*
X101090195Y-61353445D01*
X101055391Y-61318030D01*
X100809927Y-61318030D01*
X100775122Y-61353445D01*
X100775122Y-61947566D01*
X100740318Y-61982370D01*
X100144976Y-61982370D01*
X100110171Y-62017786D01*
X100110171Y-62262639D01*
X100144976Y-62297444D01*
X100740318Y-62297444D01*
X100775122Y-62332248D01*
X100775122Y-62924537D01*
X100809927Y-62959342D01*
X101055391Y-62959342D01*
X101090195Y-62924537D01*
X101090195Y-62332248D01*
X101125000Y-62297444D01*
X101720342Y-62297444D01*
X101755147Y-62262639D01*
G37*
G36*
X148250000Y-62262639D02*
G01*
X148250000Y-62017786D01*
X148214584Y-61982370D01*
X146919487Y-61982370D01*
X146884682Y-62017786D01*
X146884682Y-62262639D01*
X146919487Y-62297444D01*
X148214584Y-62297444D01*
X148250000Y-62262639D01*
G37*
G36*
X113063023Y-138635782D02*
G01*
X113116610Y-138644887D01*
X113164330Y-138660700D01*
X113211682Y-138686986D01*
X113232485Y-138703415D01*
X113267320Y-138741868D01*
X113292202Y-138787130D01*
X113307132Y-138839199D01*
X113312030Y-138890345D01*
X113312108Y-138898077D01*
X113306192Y-138950299D01*
X113288442Y-138998827D01*
X113262038Y-139039738D01*
X113224205Y-139077433D01*
X113179213Y-139103872D01*
X113132101Y-139118140D01*
X113132101Y-139122292D01*
X113182083Y-139134126D01*
X113226455Y-139156806D01*
X113238103Y-139165279D01*
X113274447Y-139200007D01*
X113303125Y-139242215D01*
X113309910Y-139255648D01*
X113326831Y-139301874D01*
X113335125Y-139351647D01*
X113336044Y-139375816D01*
X113332164Y-139431685D01*
X113320523Y-139482178D01*
X113301122Y-139527295D01*
X113269447Y-139572274D01*
X113254955Y-139587330D01*
X113210793Y-139621311D01*
X113166015Y-139643079D01*
X113115511Y-139657415D01*
X113059279Y-139664317D01*
X113033427Y-139665000D01*
X112721285Y-139665000D01*
X112721285Y-139551182D01*
X112845116Y-139551182D01*
X113019505Y-139551182D01*
X113071268Y-139546531D01*
X113119778Y-139530671D01*
X113159456Y-139503555D01*
X113190712Y-139462740D01*
X113207542Y-139412101D01*
X113210747Y-139372885D01*
X113205738Y-139322582D01*
X113188658Y-139274465D01*
X113159456Y-139233911D01*
X113119778Y-139203458D01*
X113071268Y-139185645D01*
X113019505Y-139180422D01*
X112845116Y-139180422D01*
X112845116Y-139551182D01*
X112721285Y-139551182D01*
X112721285Y-139066605D01*
X112845116Y-139066605D01*
X113010957Y-139066605D01*
X113062972Y-139061525D01*
X113110433Y-139044398D01*
X113139673Y-139023618D01*
X113170193Y-138983494D01*
X113185154Y-138933374D01*
X113186812Y-138906870D01*
X113180286Y-138856025D01*
X113158487Y-138810633D01*
X113140405Y-138790366D01*
X113096896Y-138762375D01*
X113046429Y-138749204D01*
X113012422Y-138747135D01*
X112845116Y-138747135D01*
X112845116Y-139066605D01*
X112721285Y-139066605D01*
X112721285Y-138633318D01*
X113012422Y-138633318D01*
X113063023Y-138635782D01*
G37*
G36*
X113901271Y-138620528D02*
G01*
X113954052Y-138631029D01*
X114001316Y-138649266D01*
X114043063Y-138675240D01*
X114069505Y-138698531D01*
X114100816Y-138737066D01*
X114124436Y-138782146D01*
X114140366Y-138833770D01*
X114147899Y-138883230D01*
X114149861Y-138928119D01*
X114149861Y-139368733D01*
X114147036Y-139422623D01*
X114138561Y-139471635D01*
X114121532Y-139522653D01*
X114096814Y-139567031D01*
X114069505Y-139599787D01*
X114031698Y-139631288D01*
X113988375Y-139655051D01*
X113939535Y-139671078D01*
X113885178Y-139679368D01*
X113851641Y-139680631D01*
X113802001Y-139677789D01*
X113749189Y-139667289D01*
X113701870Y-139649051D01*
X113660044Y-139623077D01*
X113633532Y-139599787D01*
X113602316Y-139561098D01*
X113578768Y-139515771D01*
X113562886Y-139463805D01*
X113555376Y-139413980D01*
X113553420Y-139368733D01*
X113553420Y-138929584D01*
X113554197Y-138914685D01*
X113679938Y-138914685D01*
X113679938Y-139383632D01*
X113684327Y-139434651D01*
X113699292Y-139481681D01*
X113724879Y-139519187D01*
X113767597Y-139550023D01*
X113817692Y-139564535D01*
X113851641Y-139566814D01*
X113904143Y-139561186D01*
X113950952Y-139542210D01*
X113978891Y-139519187D01*
X114005979Y-139477799D01*
X114019827Y-139429903D01*
X114023343Y-139383632D01*
X114023343Y-138914685D01*
X114019002Y-138863666D01*
X114004199Y-138816637D01*
X113978891Y-138779131D01*
X113936563Y-138748294D01*
X113886113Y-138733782D01*
X113851641Y-138731503D01*
X113799857Y-138737131D01*
X113753174Y-138756108D01*
X113724879Y-138779131D01*
X113697493Y-138820518D01*
X113683493Y-138868414D01*
X113679938Y-138914685D01*
X113554197Y-138914685D01*
X113556236Y-138875620D01*
X113564686Y-138826567D01*
X113581663Y-138775547D01*
X113606306Y-138731211D01*
X113633532Y-138698531D01*
X113671434Y-138667030D01*
X113714829Y-138643266D01*
X113763718Y-138627239D01*
X113818099Y-138618949D01*
X113851641Y-138617686D01*
X113901271Y-138620528D01*
G37*
G36*
X114740490Y-138620528D02*
G01*
X114793270Y-138631029D01*
X114840534Y-138649266D01*
X114882281Y-138675240D01*
X114908724Y-138698531D01*
X114940034Y-138737066D01*
X114963654Y-138782146D01*
X114979584Y-138833770D01*
X114987118Y-138883230D01*
X114989080Y-138928119D01*
X114989080Y-139368733D01*
X114986254Y-139422623D01*
X114977779Y-139471635D01*
X114960751Y-139522653D01*
X114936032Y-139567031D01*
X114908724Y-139599787D01*
X114870917Y-139631288D01*
X114827593Y-139655051D01*
X114778753Y-139671078D01*
X114724397Y-139679368D01*
X114690859Y-139680631D01*
X114641219Y-139677789D01*
X114588407Y-139667289D01*
X114541089Y-139649051D01*
X114499263Y-139623077D01*
X114472750Y-139599787D01*
X114441535Y-139561098D01*
X114417986Y-139515771D01*
X114402105Y-139463805D01*
X114394594Y-139413980D01*
X114392638Y-139368733D01*
X114392638Y-138929584D01*
X114393416Y-138914685D01*
X114519156Y-138914685D01*
X114519156Y-139383632D01*
X114523545Y-139434651D01*
X114538511Y-139481681D01*
X114564097Y-139519187D01*
X114606816Y-139550023D01*
X114656910Y-139564535D01*
X114690859Y-139566814D01*
X114743362Y-139561186D01*
X114790171Y-139542210D01*
X114818110Y-139519187D01*
X114845198Y-139477799D01*
X114859045Y-139429903D01*
X114862562Y-139383632D01*
X114862562Y-138914685D01*
X114858221Y-138863666D01*
X114843418Y-138816637D01*
X114818110Y-138779131D01*
X114775781Y-138748294D01*
X114725332Y-138733782D01*
X114690859Y-138731503D01*
X114639075Y-138737131D01*
X114592392Y-138756108D01*
X114564097Y-138779131D01*
X114536711Y-138820518D01*
X114522711Y-138868414D01*
X114519156Y-138914685D01*
X114393416Y-138914685D01*
X114395455Y-138875620D01*
X114403904Y-138826567D01*
X114420881Y-138775547D01*
X114445525Y-138731211D01*
X114472750Y-138698531D01*
X114510652Y-138667030D01*
X114554048Y-138643266D01*
X114602936Y-138627239D01*
X114657318Y-138618949D01*
X114690859Y-138617686D01*
X114740490Y-138620528D01*
G37*
G36*
X115466819Y-139665000D02*
G01*
X115466819Y-138747135D01*
X115185451Y-138747135D01*
X115185451Y-138633318D01*
X115874704Y-138633318D01*
X115874704Y-138747135D01*
X115593336Y-138747135D01*
X115593336Y-139665000D01*
X115466819Y-139665000D01*
G37*
D13*
G36*
X105076238Y-122524738D02*
G01*
X105076238Y-121274214D01*
X103817166Y-121274214D01*
X103817166Y-120414480D01*
X105076238Y-120414480D01*
X105076238Y-119163956D01*
X105948185Y-119163956D01*
X105948185Y-120414480D01*
X107207257Y-120414480D01*
X107207257Y-121274214D01*
X105948185Y-121274214D01*
X105948185Y-122524738D01*
X105076238Y-122524738D01*
G37*
D12*
G36*
X110007038Y-138636293D02*
G01*
X110057985Y-138646578D01*
X110104544Y-138664209D01*
X110117656Y-138670931D01*
X110161482Y-138700086D01*
X110197920Y-138736167D01*
X110224634Y-138774979D01*
X110246327Y-138823336D01*
X110258234Y-138871956D01*
X110262699Y-138925012D01*
X110262736Y-138930561D01*
X110259393Y-138980982D01*
X110247640Y-139033290D01*
X110227425Y-139080922D01*
X110209247Y-139110080D01*
X110176377Y-139148683D01*
X110137943Y-139180138D01*
X110093945Y-139204445D01*
X110067097Y-139214860D01*
X110276658Y-139665000D01*
X110137439Y-139665000D01*
X109936183Y-139227316D01*
X109765946Y-139227316D01*
X109765946Y-139665000D01*
X109640894Y-139665000D01*
X109640894Y-139113499D01*
X109765946Y-139113499D01*
X109957432Y-139113499D01*
X110007865Y-139107554D01*
X110054588Y-139087507D01*
X110083950Y-139063185D01*
X110113122Y-139020801D01*
X110128035Y-138974105D01*
X110131822Y-138930317D01*
X110127147Y-138881297D01*
X110111205Y-138835088D01*
X110083950Y-138796960D01*
X110043719Y-138766598D01*
X109994832Y-138750249D01*
X109957432Y-138747135D01*
X109765946Y-138747135D01*
X109765946Y-139113499D01*
X109640894Y-139113499D01*
X109640894Y-138633318D01*
X109957432Y-138633318D01*
X110007038Y-138636293D01*
G37*
G36*
X110776867Y-139680631D02*
G01*
X110723034Y-139677840D01*
X110673461Y-139669468D01*
X110621008Y-139652647D01*
X110574352Y-139628229D01*
X110538975Y-139601252D01*
X110504523Y-139563577D01*
X110478534Y-139520222D01*
X110461006Y-139471186D01*
X110451940Y-139416471D01*
X110450559Y-139382655D01*
X110577076Y-139382655D01*
X110582419Y-139433020D01*
X110600638Y-139479937D01*
X110631787Y-139517965D01*
X110673724Y-139545777D01*
X110723973Y-139562044D01*
X110776867Y-139566814D01*
X110827929Y-139561829D01*
X110876163Y-139544830D01*
X110916086Y-139515767D01*
X110947788Y-139473120D01*
X110963994Y-139426363D01*
X110968109Y-139382655D01*
X110961798Y-139331290D01*
X110942865Y-139286190D01*
X110935137Y-139274455D01*
X110900722Y-139239627D01*
X110855181Y-139215925D01*
X110840126Y-139211196D01*
X110684055Y-139167233D01*
X110638046Y-139150288D01*
X110592489Y-139124584D01*
X110553501Y-139091847D01*
X110531159Y-139066116D01*
X110504358Y-139022970D01*
X110486328Y-138975690D01*
X110477069Y-138924275D01*
X110475716Y-138893925D01*
X110479293Y-138844566D01*
X110491494Y-138794734D01*
X110512352Y-138749577D01*
X110541003Y-138709881D01*
X110580158Y-138674080D01*
X110614934Y-138652369D01*
X110662777Y-138632623D01*
X110715296Y-138621073D01*
X110767097Y-138617686D01*
X110819591Y-138621073D01*
X110868077Y-138631234D01*
X110916783Y-138650235D01*
X110920970Y-138652369D01*
X110963545Y-138679416D01*
X110999251Y-138712871D01*
X111025751Y-138748845D01*
X111047443Y-138793440D01*
X111060132Y-138842595D01*
X111063852Y-138891238D01*
X110937335Y-138891238D01*
X110930603Y-138841974D01*
X110908116Y-138796898D01*
X110889463Y-138776200D01*
X110846174Y-138747261D01*
X110798415Y-138733642D01*
X110767097Y-138731503D01*
X110715028Y-138737789D01*
X110667611Y-138758784D01*
X110645953Y-138776200D01*
X110615907Y-138816671D01*
X110601178Y-138865848D01*
X110599547Y-138891482D01*
X110606202Y-138941063D01*
X110627970Y-138986141D01*
X110629833Y-138988691D01*
X110666286Y-139022824D01*
X110711663Y-139043622D01*
X110715074Y-139044623D01*
X110875297Y-139089808D01*
X110923840Y-139107118D01*
X110966644Y-139130718D01*
X111007937Y-139164786D01*
X111035032Y-139196786D01*
X111062541Y-139243324D01*
X111081048Y-139294459D01*
X111089940Y-139343773D01*
X111091940Y-139383143D01*
X111088927Y-139432219D01*
X111077792Y-139484568D01*
X111058452Y-139531635D01*
X111030909Y-139573419D01*
X111006211Y-139600031D01*
X110965935Y-139631437D01*
X110920118Y-139655129D01*
X110868762Y-139671107D01*
X110820334Y-139678663D01*
X110776867Y-139680631D01*
G37*
G36*
X111547209Y-139665000D02*
G01*
X111547209Y-138747135D01*
X111265841Y-138747135D01*
X111265841Y-138633318D01*
X111955095Y-138633318D01*
X111955095Y-138747135D01*
X111673727Y-138747135D01*
X111673727Y-139665000D01*
X111547209Y-139665000D01*
G37*
D13*
G36*
X141886252Y-121196057D02*
G01*
X141886252Y-120336322D01*
X144138171Y-120336322D01*
X144138171Y-121196057D01*
X141886252Y-121196057D01*
G37*
D12*
G36*
X133503038Y-138636186D02*
G01*
X133558181Y-138646781D01*
X133607737Y-138665184D01*
X133651707Y-138691394D01*
X133679693Y-138714895D01*
X133712907Y-138753108D01*
X133737963Y-138796580D01*
X133754861Y-138845311D01*
X133763602Y-138899302D01*
X133764934Y-138932515D01*
X133761937Y-138981700D01*
X133750866Y-139034219D01*
X133731637Y-139081503D01*
X133704250Y-139123551D01*
X133679693Y-139150380D01*
X133639714Y-139182071D01*
X133594148Y-139205978D01*
X133542996Y-139222102D01*
X133494704Y-139229727D01*
X133451326Y-139231713D01*
X133247139Y-139231713D01*
X133247139Y-139665000D01*
X133120621Y-139665000D01*
X133120621Y-139117896D01*
X133247139Y-139117896D01*
X133451326Y-139117896D01*
X133504354Y-139111950D01*
X133553315Y-139091903D01*
X133583950Y-139067581D01*
X133614461Y-139024889D01*
X133630059Y-138977365D01*
X133634020Y-138932515D01*
X133629130Y-138882441D01*
X133612456Y-138835458D01*
X133583950Y-138796960D01*
X133541944Y-138766598D01*
X133495292Y-138751076D01*
X133451326Y-138747135D01*
X133247139Y-138747135D01*
X133247139Y-139117896D01*
X133120621Y-139117896D01*
X133120621Y-138633318D01*
X133451326Y-138633318D01*
X133503038Y-138636186D01*
G37*
G36*
X134327449Y-138636293D02*
G01*
X134378397Y-138646578D01*
X134424955Y-138664209D01*
X134438067Y-138670931D01*
X134481893Y-138700086D01*
X134518331Y-138736167D01*
X134545045Y-138774979D01*
X134566738Y-138823336D01*
X134578645Y-138871956D01*
X134583110Y-138925012D01*
X134583147Y-138930561D01*
X134579804Y-138980982D01*
X134568051Y-139033290D01*
X134547836Y-139080922D01*
X134529658Y-139110080D01*
X134496788Y-139148683D01*
X134458355Y-139180138D01*
X134414356Y-139204445D01*
X134387509Y-139214860D01*
X134597069Y-139665000D01*
X134457851Y-139665000D01*
X134256595Y-139227316D01*
X134086357Y-139227316D01*
X134086357Y-139665000D01*
X133961305Y-139665000D01*
X133961305Y-139113499D01*
X134086357Y-139113499D01*
X134277844Y-139113499D01*
X134328277Y-139107554D01*
X134375000Y-139087507D01*
X134404362Y-139063185D01*
X134433533Y-139020801D01*
X134448446Y-138974105D01*
X134452233Y-138930317D01*
X134447558Y-138881297D01*
X134431617Y-138835088D01*
X134404362Y-138796960D01*
X134364130Y-138766598D01*
X134315244Y-138750249D01*
X134277844Y-138747135D01*
X134086357Y-138747135D01*
X134086357Y-139113499D01*
X133961305Y-139113499D01*
X133961305Y-138633318D01*
X134277844Y-138633318D01*
X134327449Y-138636293D01*
G37*
G36*
X135097279Y-139680631D02*
G01*
X135046600Y-139677840D01*
X134992728Y-139667530D01*
X134944512Y-139649624D01*
X134901953Y-139624120D01*
X134875018Y-139601252D01*
X134843231Y-139563672D01*
X134819252Y-139520389D01*
X134803080Y-139471402D01*
X134794715Y-139416711D01*
X134793440Y-139382899D01*
X134793440Y-138915418D01*
X134796308Y-138865398D01*
X134806904Y-138812337D01*
X134825307Y-138764980D01*
X134851516Y-138723326D01*
X134875018Y-138697065D01*
X134913536Y-138666135D01*
X134957711Y-138642802D01*
X135007543Y-138627066D01*
X135063031Y-138618926D01*
X135097279Y-138617686D01*
X135147044Y-138620520D01*
X135200090Y-138630988D01*
X135247736Y-138649171D01*
X135289983Y-138675067D01*
X135316853Y-138698286D01*
X135348639Y-138736212D01*
X135372618Y-138779677D01*
X135388791Y-138828683D01*
X135397155Y-138883228D01*
X135398430Y-138916884D01*
X135271668Y-138916884D01*
X135267208Y-138865173D01*
X135251998Y-138817547D01*
X135225995Y-138779619D01*
X135186484Y-138750299D01*
X135136464Y-138734511D01*
X135097279Y-138731503D01*
X135044429Y-138737045D01*
X134996453Y-138755729D01*
X134967097Y-138778398D01*
X134938372Y-138819190D01*
X134923687Y-138866782D01*
X134919958Y-138912976D01*
X134919958Y-139382411D01*
X134924562Y-139433501D01*
X134940259Y-139480775D01*
X134967097Y-139518698D01*
X135007500Y-139548019D01*
X135058001Y-139563807D01*
X135097279Y-139566814D01*
X135149955Y-139561157D01*
X135197347Y-139542083D01*
X135225995Y-139518942D01*
X135253827Y-139477509D01*
X135268055Y-139429812D01*
X135271668Y-139383876D01*
X135271668Y-139242948D01*
X135063573Y-139242948D01*
X135063573Y-139129131D01*
X135398430Y-139129131D01*
X135398430Y-139385097D01*
X135395562Y-139434296D01*
X135384967Y-139486637D01*
X135366564Y-139533532D01*
X135340354Y-139574981D01*
X135316853Y-139601252D01*
X135278463Y-139632182D01*
X135234674Y-139655515D01*
X135185485Y-139671251D01*
X135130896Y-139679391D01*
X135097279Y-139680631D01*
G37*
D14*
%TO.C,C80*%
X166390000Y-134892164D02*
X166390000Y-135107836D01*
X167110000Y-134892164D02*
X167110000Y-135107836D01*
%TO.C,C86*%
X162607836Y-132140000D02*
X162392164Y-132140000D01*
X162607836Y-132860000D02*
X162392164Y-132860000D01*
%TO.C,C71*%
X174238748Y-116515000D02*
X174761252Y-116515000D01*
X174238748Y-117985000D02*
X174761252Y-117985000D01*
%TO.C,C37*%
X79740000Y-68639949D02*
X80940000Y-68639949D01*
X79740000Y-72095512D02*
X79740000Y-68639949D01*
X80190000Y-73649949D02*
X80690000Y-73649949D01*
X80440000Y-73899949D02*
X80440000Y-73399949D01*
X80804437Y-73159949D02*
X79740000Y-72095512D01*
X80804437Y-73159949D02*
X80940000Y-73159949D01*
X83195563Y-73159949D02*
X83060000Y-73159949D01*
X83195563Y-73159949D02*
X84260000Y-72095512D01*
X84260000Y-68639949D02*
X83060000Y-68639949D01*
X84260000Y-72095512D02*
X84260000Y-68639949D01*
%TO.C,C28*%
X136140000Y-100372164D02*
X136140000Y-100587836D01*
X136860000Y-100372164D02*
X136860000Y-100587836D01*
%TO.C,L3*%
X89990000Y-66339949D02*
X89990000Y-70859949D01*
X89990000Y-66339949D02*
X90140000Y-66339949D01*
X89990000Y-70859949D02*
X90140000Y-70859949D01*
X94510000Y-66339949D02*
X94360000Y-66339949D01*
X94510000Y-66339949D02*
X94510000Y-70859949D01*
X94510000Y-70859949D02*
X94360000Y-70859949D01*
%TO.C,C13*%
X109607836Y-106640000D02*
X109392164Y-106640000D01*
X109607836Y-107360000D02*
X109392164Y-107360000D01*
D15*
%TO.C,J16*%
X139250000Y-142619000D02*
X139250000Y-142381000D01*
X139250000Y-149119000D02*
X139250000Y-144581000D01*
X139250000Y-152900000D02*
X139250000Y-151081000D01*
X140000000Y-154900000D02*
X140000000Y-152900000D01*
X140850000Y-152900000D02*
X140850000Y-151700000D01*
X144150000Y-151700000D02*
X140850000Y-151700000D01*
X144150000Y-152900000D02*
X144150000Y-151700000D01*
X144999000Y-154106000D02*
X145000000Y-154900000D01*
X145000000Y-152900000D02*
X144999000Y-154106000D01*
X145000000Y-154900000D02*
X140000000Y-154900000D01*
X145750000Y-140900000D02*
X140931000Y-140900000D01*
X145750000Y-141319000D02*
X145750000Y-140900000D01*
X145750000Y-146419000D02*
X145750000Y-143281000D01*
X145750000Y-149119000D02*
X145750000Y-148381000D01*
X145750000Y-152900000D02*
X139250000Y-152900000D01*
X145750000Y-152900000D02*
X145750000Y-151081000D01*
D14*
%TO.C,D14*%
X77562959Y-136350000D02*
X77562959Y-139650000D01*
X77562959Y-136350000D02*
X83072959Y-136350000D01*
X77562959Y-139650000D02*
X83072959Y-139650000D01*
%TO.C,R5*%
X140620000Y-65903641D02*
X140620000Y-65596359D01*
X141380000Y-65903641D02*
X141380000Y-65596359D01*
%TO.C,C53*%
X60140000Y-85587836D02*
X60140000Y-85372164D01*
X60860000Y-85587836D02*
X60860000Y-85372164D01*
%TO.C,C62*%
X167390000Y-126642164D02*
X167390000Y-126857836D01*
X168110000Y-126642164D02*
X168110000Y-126857836D01*
%TO.C,C41*%
X59640000Y-77587836D02*
X59640000Y-77372164D01*
X60360000Y-77587836D02*
X60360000Y-77372164D01*
%TO.C,C66*%
X170650000Y-129185000D02*
X174560000Y-129185000D01*
X174560000Y-127315000D02*
X170650000Y-127315000D01*
X174560000Y-129185000D02*
X174560000Y-127315000D01*
%TO.C,R4*%
X124370000Y-116403641D02*
X124370000Y-116096359D01*
X125130000Y-116403641D02*
X125130000Y-116096359D01*
%TO.C,C17*%
X111627836Y-95390000D02*
X111412164Y-95390000D01*
X111627836Y-96110000D02*
X111412164Y-96110000D01*
%TO.C,C26*%
X122142164Y-88890000D02*
X122357836Y-88890000D01*
X122142164Y-89610000D02*
X122357836Y-89610000D01*
%TO.C,R83*%
X165977500Y-137262742D02*
X165977500Y-137737258D01*
X167022500Y-137262742D02*
X167022500Y-137737258D01*
%TO.C,C18*%
X133642164Y-114390000D02*
X133857836Y-114390000D01*
X133642164Y-115110000D02*
X133857836Y-115110000D01*
%TO.C,C12*%
X110607836Y-110640000D02*
X110392164Y-110640000D01*
X110607836Y-111360000D02*
X110392164Y-111360000D01*
%TO.C,C25*%
X111627836Y-106640000D02*
X111412164Y-106640000D01*
X111627836Y-107360000D02*
X111412164Y-107360000D01*
%TO.C,D5*%
X69540000Y-58250000D02*
X69540000Y-60935000D01*
X69540000Y-60935000D02*
X71460000Y-60935000D01*
X71460000Y-60935000D02*
X71460000Y-58250000D01*
%TO.C,C81*%
X74140000Y-54392164D02*
X74140000Y-54607836D01*
X74860000Y-54392164D02*
X74860000Y-54607836D01*
%TO.C,U7*%
X135700000Y-140840000D02*
X134110000Y-140840000D01*
X135700000Y-142660000D02*
X134300000Y-142660000D01*
%TO.C,R29*%
X189020000Y-77336359D02*
X189020000Y-77643641D01*
X189780000Y-77336359D02*
X189780000Y-77643641D01*
%TO.C,C67*%
X164240000Y-135609420D02*
X164240000Y-135890580D01*
X165260000Y-135609420D02*
X165260000Y-135890580D01*
%TO.C,C70*%
X162392164Y-133390000D02*
X162607836Y-133390000D01*
X162392164Y-134110000D02*
X162607836Y-134110000D01*
%TO.C,D10*%
X64850000Y-108510000D02*
X64850000Y-103000000D01*
X64850000Y-108510000D02*
X68150000Y-108510000D01*
X68150000Y-108510000D02*
X68150000Y-103000000D01*
%TO.C,U5*%
X90765000Y-131380000D02*
X90765000Y-139120000D01*
X90765000Y-139120000D02*
X93000000Y-139120000D01*
X95000000Y-139120000D02*
X97235000Y-139120000D01*
X97235000Y-131380000D02*
X90765000Y-131380000D01*
X97235000Y-139120000D02*
X97235000Y-131380000D01*
X93000000Y-139120000D02*
G75*
G02*
X95000000Y-139120000I1000000J0D01*
G01*
%TO.C,R11*%
X108120000Y-136653641D02*
X108120000Y-136346359D01*
X108880000Y-136653641D02*
X108880000Y-136346359D01*
%TO.C,C10*%
X110607836Y-109640000D02*
X110392164Y-109640000D01*
X110607836Y-110360000D02*
X110392164Y-110360000D01*
D15*
%TO.C,J11*%
X79000000Y-142619000D02*
X79000000Y-142381000D01*
X79000000Y-149119000D02*
X79000000Y-144581000D01*
X79000000Y-152900000D02*
X79000000Y-151081000D01*
X79750000Y-154900000D02*
X79750000Y-152900000D01*
X80600000Y-152900000D02*
X80600000Y-151700000D01*
X83900000Y-151700000D02*
X80600000Y-151700000D01*
X83900000Y-152900000D02*
X83900000Y-151700000D01*
X84749000Y-154106000D02*
X84750000Y-154900000D01*
X84750000Y-152900000D02*
X84749000Y-154106000D01*
X84750000Y-154900000D02*
X79750000Y-154900000D01*
X85500000Y-140900000D02*
X80681000Y-140900000D01*
X85500000Y-141319000D02*
X85500000Y-140900000D01*
X85500000Y-146419000D02*
X85500000Y-143281000D01*
X85500000Y-149119000D02*
X85500000Y-148381000D01*
X85500000Y-152900000D02*
X79000000Y-152900000D01*
X85500000Y-152900000D02*
X85500000Y-151081000D01*
D14*
%TO.C,D11*%
X100400000Y-134375000D02*
X100400000Y-132415000D01*
X101600000Y-132415000D02*
X100400000Y-132415000D01*
X101600000Y-134375000D02*
X101600000Y-132415000D01*
%TO.C,C68*%
X162490000Y-135609420D02*
X162490000Y-135890580D01*
X163510000Y-135609420D02*
X163510000Y-135890580D01*
%TO.C,R8*%
X65765000Y-59022936D02*
X65765000Y-59477064D01*
X67235000Y-59022936D02*
X67235000Y-59477064D01*
%TO.C,SW1*%
X109180000Y-133430000D02*
X109480000Y-133430000D01*
X109180000Y-137570000D02*
X109180000Y-133430000D01*
X109480000Y-137570000D02*
X109180000Y-137570000D01*
X112020000Y-133430000D02*
X112320000Y-133430000D01*
X112320000Y-133430000D02*
X112320000Y-137570000D01*
X112320000Y-137570000D02*
X112020000Y-137570000D01*
%TO.C,R43*%
X126870000Y-143596359D02*
X126870000Y-143903641D01*
X127630000Y-143596359D02*
X127630000Y-143903641D01*
%TO.C,C60*%
X178140000Y-126642164D02*
X178140000Y-126857836D01*
X178860000Y-126642164D02*
X178860000Y-126857836D01*
%TO.C,R48*%
X68815000Y-138227064D02*
X68815000Y-137772936D01*
X70285000Y-138227064D02*
X70285000Y-137772936D01*
%TO.C,J5*%
X182750000Y-104000000D02*
X182750000Y-105000000D01*
X182750000Y-105000000D02*
X183750000Y-104500000D01*
X183750000Y-104500000D02*
X182750000Y-104000000D01*
X189370000Y-99290000D02*
X198490000Y-99290000D01*
X189370000Y-104990000D02*
X198490000Y-104990000D01*
X189370000Y-109090000D02*
X198490000Y-109090000D01*
X189370000Y-114790000D02*
X189370000Y-99290000D01*
X198490000Y-99290000D02*
X198490000Y-114790000D01*
X198490000Y-114790000D02*
X189370000Y-114790000D01*
D15*
%TO.C,U13*%
X164500000Y-129000000D02*
X164500000Y-129170000D01*
X164500000Y-129000000D02*
X164670000Y-129000000D01*
X164500000Y-133000000D02*
X164500000Y-132830000D01*
X164500000Y-133000000D02*
X164670000Y-133000000D01*
X168500000Y-129000000D02*
X168330000Y-129000000D01*
X168500000Y-129000000D02*
X168500000Y-129170000D01*
X168500000Y-133000000D02*
X168330000Y-133000000D01*
X168500000Y-133000000D02*
X168500000Y-132830000D01*
D16*
X163680000Y-129600000D02*
G75*
G02*
X163480000Y-129600000I-100000J0D01*
G01*
X163480000Y-129600000D02*
G75*
G02*
X163680000Y-129600000I100000J0D01*
G01*
D14*
%TO.C,C64*%
X174107836Y-123890000D02*
X173892164Y-123890000D01*
X174107836Y-124610000D02*
X173892164Y-124610000D01*
%TO.C,C52*%
X187640000Y-86107836D02*
X187640000Y-85892164D01*
X188360000Y-86107836D02*
X188360000Y-85892164D01*
%TO.C,U9*%
X71600000Y-139160000D02*
X73000000Y-139160000D01*
X73000000Y-136840000D02*
X71100000Y-136840000D01*
%TO.C,R6*%
X139620000Y-65903641D02*
X139620000Y-65596359D01*
X140380000Y-65903641D02*
X140380000Y-65596359D01*
%TO.C,C27*%
X136892164Y-94390000D02*
X137107836Y-94390000D01*
X136892164Y-95110000D02*
X137107836Y-95110000D01*
%TO.C,C14*%
X122857836Y-114390000D02*
X122642164Y-114390000D01*
X122857836Y-115110000D02*
X122642164Y-115110000D01*
%TO.C,C50*%
X175140000Y-54392164D02*
X175140000Y-54607836D01*
X175860000Y-54392164D02*
X175860000Y-54607836D01*
%TO.C,R52*%
X62120000Y-85346359D02*
X62120000Y-85653641D01*
X62880000Y-85346359D02*
X62880000Y-85653641D01*
%TO.C,R80*%
X173012742Y-133977500D02*
X173487258Y-133977500D01*
X173012742Y-135022500D02*
X173487258Y-135022500D01*
%TO.C,R3*%
X123370000Y-116403641D02*
X123370000Y-116096359D01*
X124130000Y-116403641D02*
X124130000Y-116096359D01*
%TO.C,R58*%
X126370000Y-132403641D02*
X126370000Y-132096359D01*
X127130000Y-132403641D02*
X127130000Y-132096359D01*
%TO.C,R49*%
X74315000Y-137772936D02*
X74315000Y-138227064D01*
X75785000Y-137772936D02*
X75785000Y-138227064D01*
%TO.C,R35*%
X61620000Y-77326359D02*
X61620000Y-77633641D01*
X62380000Y-77326359D02*
X62380000Y-77633641D01*
%TO.C,R55*%
X122370000Y-132403641D02*
X122370000Y-132096359D01*
X123130000Y-132403641D02*
X123130000Y-132096359D01*
%TO.C,R76*%
X167370000Y-124096359D02*
X167370000Y-124403641D01*
X168130000Y-124096359D02*
X168130000Y-124403641D01*
D15*
%TO.C,J19*%
X175250000Y-142619000D02*
X175250000Y-142381000D01*
X175250000Y-149119000D02*
X175250000Y-144581000D01*
X175250000Y-152900000D02*
X175250000Y-151081000D01*
X176000000Y-154900000D02*
X176000000Y-152900000D01*
X176850000Y-152900000D02*
X176850000Y-151700000D01*
X180150000Y-151700000D02*
X176850000Y-151700000D01*
X180150000Y-152900000D02*
X180150000Y-151700000D01*
X180999000Y-154106000D02*
X181000000Y-154900000D01*
X181000000Y-152900000D02*
X180999000Y-154106000D01*
X181000000Y-154900000D02*
X176000000Y-154900000D01*
X181750000Y-140900000D02*
X176931000Y-140900000D01*
X181750000Y-141319000D02*
X181750000Y-140900000D01*
X181750000Y-146419000D02*
X181750000Y-143281000D01*
X181750000Y-149119000D02*
X181750000Y-148381000D01*
X181750000Y-152900000D02*
X175250000Y-152900000D01*
X181750000Y-152900000D02*
X181750000Y-151081000D01*
D14*
%TO.C,C87*%
X170642164Y-132890000D02*
X170857836Y-132890000D01*
X170642164Y-133610000D02*
X170857836Y-133610000D01*
%TO.C,U2*%
X114140000Y-92390000D02*
X114140000Y-93340000D01*
X114140000Y-93340000D02*
X112850000Y-93340000D01*
X114140000Y-112610000D02*
X114140000Y-111660000D01*
X115090000Y-92390000D02*
X114140000Y-92390000D01*
X115090000Y-112610000D02*
X114140000Y-112610000D01*
X133410000Y-92390000D02*
X134360000Y-92390000D01*
X133410000Y-112610000D02*
X134360000Y-112610000D01*
X134360000Y-92390000D02*
X134360000Y-93340000D01*
X134360000Y-112610000D02*
X134360000Y-111660000D01*
D15*
%TO.C,J8*%
X103000000Y-142619000D02*
X103000000Y-142381000D01*
X103000000Y-149119000D02*
X103000000Y-144581000D01*
X103000000Y-152900000D02*
X103000000Y-151081000D01*
X103750000Y-154900000D02*
X103750000Y-152900000D01*
X104600000Y-152900000D02*
X104600000Y-151700000D01*
X107900000Y-151700000D02*
X104600000Y-151700000D01*
X107900000Y-152900000D02*
X107900000Y-151700000D01*
X108749000Y-154106000D02*
X108750000Y-154900000D01*
X108750000Y-152900000D02*
X108749000Y-154106000D01*
X108750000Y-154900000D02*
X103750000Y-154900000D01*
X109500000Y-140900000D02*
X104681000Y-140900000D01*
X109500000Y-141319000D02*
X109500000Y-140900000D01*
X109500000Y-146419000D02*
X109500000Y-143281000D01*
X109500000Y-149119000D02*
X109500000Y-148381000D01*
X109500000Y-152900000D02*
X103000000Y-152900000D01*
X109500000Y-152900000D02*
X109500000Y-151081000D01*
D14*
%TO.C,C43*%
X60640000Y-77587836D02*
X60640000Y-77372164D01*
X61360000Y-77587836D02*
X61360000Y-77372164D01*
%TO.C,C77*%
X170642164Y-133890000D02*
X170857836Y-133890000D01*
X170642164Y-134610000D02*
X170857836Y-134610000D01*
%TO.C,SW2*%
X112680000Y-133430000D02*
X112980000Y-133430000D01*
X112680000Y-137570000D02*
X112680000Y-133430000D01*
X112980000Y-137570000D02*
X112680000Y-137570000D01*
X115520000Y-133430000D02*
X115820000Y-133430000D01*
X115820000Y-133430000D02*
X115820000Y-137570000D01*
X115820000Y-137570000D02*
X115520000Y-137570000D01*
%TO.C,J6*%
X50010000Y-99210000D02*
X59130000Y-99210000D01*
X50010000Y-114710000D02*
X50010000Y-99210000D01*
X59130000Y-99210000D02*
X59130000Y-114710000D01*
X59130000Y-104910000D02*
X50010000Y-104910000D01*
X59130000Y-109010000D02*
X50010000Y-109010000D01*
X59130000Y-114710000D02*
X50010000Y-114710000D01*
X64750000Y-109500000D02*
X65750000Y-110000000D01*
X65750000Y-109000000D02*
X64750000Y-109500000D01*
X65750000Y-110000000D02*
X65750000Y-109000000D01*
%TO.C,R20*%
X75765000Y-59022936D02*
X75765000Y-59477064D01*
X77235000Y-59022936D02*
X77235000Y-59477064D01*
%TO.C,C42*%
X61140000Y-67107836D02*
X61140000Y-66892164D01*
X61860000Y-67107836D02*
X61860000Y-66892164D01*
%TO.C,R73*%
X176487258Y-127227500D02*
X176012742Y-127227500D01*
X176487258Y-128272500D02*
X176012742Y-128272500D01*
%TO.C,C72*%
X170642164Y-130640000D02*
X170857836Y-130640000D01*
X170642164Y-131360000D02*
X170857836Y-131360000D01*
%TO.C,R59*%
X125370000Y-132393641D02*
X125370000Y-132086359D01*
X126130000Y-132393641D02*
X126130000Y-132086359D01*
D17*
%TO.C,SW3*%
X78206586Y-52919888D02*
X91706586Y-52919888D01*
X78206586Y-53022250D02*
X78206586Y-52919888D01*
X78206586Y-59219888D02*
X78206586Y-55977749D01*
X91706586Y-52919888D02*
X91706586Y-53022250D01*
X91706586Y-55977749D02*
X91706586Y-59219888D01*
X91706586Y-59219888D02*
X78206586Y-59219888D01*
D14*
%TO.C,J1*%
X155535000Y-67885000D02*
X155535000Y-53875000D01*
X157015000Y-51815000D02*
X156755000Y-51815000D01*
X157215000Y-51615000D02*
X157015000Y-51815000D01*
X157215000Y-51615000D02*
X159525000Y-51615000D01*
X157455000Y-67885000D02*
X155535000Y-67885000D01*
X159525000Y-51615000D02*
X160035000Y-51965000D01*
X166405000Y-51965000D02*
X160035000Y-51965000D01*
X166405000Y-51965000D02*
X166405000Y-51815000D01*
X166615000Y-51615000D02*
X166405000Y-51815000D01*
X168475000Y-51615000D02*
X166615000Y-51615000D01*
X168475000Y-51615000D02*
X168675000Y-51815000D01*
X169055000Y-67885000D02*
X169505000Y-67885000D01*
X169505000Y-56575000D02*
X169505000Y-54775000D01*
X169505000Y-62575000D02*
X169505000Y-57875000D01*
X169505000Y-67885000D02*
X169505000Y-64275000D01*
%TO.C,R77*%
X176262742Y-125727500D02*
X176737258Y-125727500D01*
X176262742Y-126772500D02*
X176737258Y-126772500D01*
%TO.C,J9*%
X125550000Y-149100000D02*
X125550000Y-151100000D01*
X125550000Y-153000000D02*
X125550000Y-154900000D01*
X125550000Y-154900000D02*
X134950000Y-154900000D01*
X134950000Y-149100000D02*
X134950000Y-151100000D01*
X134950000Y-153000000D02*
X134950000Y-154900000D01*
%TO.C,U6*%
X104340000Y-133588438D02*
X104340000Y-134988438D01*
X106660000Y-134988438D02*
X106660000Y-133088438D01*
%TO.C,R82*%
X167477500Y-137262742D02*
X167477500Y-137737258D01*
X168522500Y-137262742D02*
X168522500Y-137737258D01*
%TO.C,R74*%
X176262742Y-123977500D02*
X176737258Y-123977500D01*
X176262742Y-125022500D02*
X176737258Y-125022500D01*
%TO.C,R79*%
X171737258Y-125727500D02*
X171262742Y-125727500D01*
X171737258Y-126772500D02*
X171262742Y-126772500D01*
%TO.C,R10*%
X115620000Y-89596359D02*
X115620000Y-89903641D01*
X116380000Y-89596359D02*
X116380000Y-89903641D01*
%TO.C,C15*%
X127857836Y-114390000D02*
X127642164Y-114390000D01*
X127857836Y-115110000D02*
X127642164Y-115110000D01*
%TO.C,R36*%
X62620000Y-77316359D02*
X62620000Y-77623641D01*
X63380000Y-77316359D02*
X63380000Y-77623641D01*
D15*
%TO.C,J7*%
X91000000Y-142619000D02*
X91000000Y-142381000D01*
X91000000Y-149119000D02*
X91000000Y-144581000D01*
X91000000Y-152900000D02*
X91000000Y-151081000D01*
X91750000Y-154900000D02*
X91750000Y-152900000D01*
X92600000Y-152900000D02*
X92600000Y-151700000D01*
X95900000Y-151700000D02*
X92600000Y-151700000D01*
X95900000Y-152900000D02*
X95900000Y-151700000D01*
X96749000Y-154106000D02*
X96750000Y-154900000D01*
X96750000Y-152900000D02*
X96749000Y-154106000D01*
X96750000Y-154900000D02*
X91750000Y-154900000D01*
X97500000Y-140900000D02*
X92681000Y-140900000D01*
X97500000Y-141319000D02*
X97500000Y-140900000D01*
X97500000Y-146419000D02*
X97500000Y-143281000D01*
X97500000Y-149119000D02*
X97500000Y-148381000D01*
X97500000Y-152900000D02*
X91000000Y-152900000D01*
X97500000Y-152900000D02*
X97500000Y-151081000D01*
D14*
%TO.C,C65*%
X174107836Y-126140000D02*
X173892164Y-126140000D01*
X174107836Y-126860000D02*
X173892164Y-126860000D01*
%TO.C,R57*%
X123370000Y-132403641D02*
X123370000Y-132096359D01*
X124130000Y-132403641D02*
X124130000Y-132096359D01*
%TO.C,R25*%
X185020000Y-77653641D02*
X185020000Y-77346359D01*
X185780000Y-77653641D02*
X185780000Y-77346359D01*
%TO.C,C38*%
X187040000Y-77627836D02*
X187040000Y-77412164D01*
X187760000Y-77627836D02*
X187760000Y-77412164D01*
%TO.C,R53*%
X61120000Y-85653641D02*
X61120000Y-85346359D01*
X61880000Y-85653641D02*
X61880000Y-85346359D01*
%TO.C,J10*%
X113550000Y-149100000D02*
X113550000Y-151100000D01*
X113550000Y-153000000D02*
X113550000Y-154900000D01*
X113550000Y-154900000D02*
X122950000Y-154900000D01*
X122950000Y-149100000D02*
X122950000Y-151100000D01*
X122950000Y-153000000D02*
X122950000Y-154900000D01*
%TO.C,C84*%
X162607836Y-131140000D02*
X162392164Y-131140000D01*
X162607836Y-131860000D02*
X162392164Y-131860000D01*
%TO.C,TP1*%
X69200000Y-65000000D02*
G75*
G02*
X67300000Y-65000000I-950000J0D01*
G01*
X67300000Y-65000000D02*
G75*
G02*
X69200000Y-65000000I950000J0D01*
G01*
%TO.C,R75*%
X165870000Y-124096359D02*
X165870000Y-124403641D01*
X166630000Y-124096359D02*
X166630000Y-124403641D01*
%TO.C,R32*%
X58620000Y-77316359D02*
X58620000Y-77623641D01*
X59380000Y-77316359D02*
X59380000Y-77623641D01*
%TO.C,R51*%
X188620000Y-86153641D02*
X188620000Y-85846359D01*
X189380000Y-86153641D02*
X189380000Y-85846359D01*
%TO.C,R40*%
X105765000Y-137511374D02*
X105765000Y-137965502D01*
X107235000Y-137511374D02*
X107235000Y-137965502D01*
%TO.C,R33*%
X59120000Y-66846359D02*
X59120000Y-67153641D01*
X59880000Y-66846359D02*
X59880000Y-67153641D01*
%TO.C,R21*%
X73765000Y-59022936D02*
X73765000Y-59477064D01*
X75235000Y-59022936D02*
X75235000Y-59477064D01*
%TO.C,C19*%
X136140000Y-105892164D02*
X136140000Y-106107836D01*
X136860000Y-105892164D02*
X136860000Y-106107836D01*
%TO.C,C78*%
X168890000Y-134892164D02*
X168890000Y-135107836D01*
X169610000Y-134892164D02*
X169610000Y-135107836D01*
%TO.C,D9*%
X180350000Y-105490000D02*
X180350000Y-111000000D01*
X183650000Y-105490000D02*
X180350000Y-105490000D01*
X183650000Y-105490000D02*
X183650000Y-111000000D01*
%TO.C,C49*%
X85240000Y-93804437D02*
X85240000Y-97260000D01*
X85240000Y-97260000D02*
X86440000Y-97260000D01*
X86304437Y-92740000D02*
X85240000Y-93804437D01*
X86304437Y-92740000D02*
X86440000Y-92740000D01*
X88695563Y-92740000D02*
X88560000Y-92740000D01*
X88695563Y-92740000D02*
X89760000Y-93804437D01*
X89060000Y-92000000D02*
X89060000Y-92500000D01*
X89310000Y-92250000D02*
X88810000Y-92250000D01*
X89760000Y-93804437D02*
X89760000Y-97260000D01*
X89760000Y-97260000D02*
X88560000Y-97260000D01*
%TO.C,R41*%
X103765000Y-137965502D02*
X103765000Y-137511374D01*
X105235000Y-137965502D02*
X105235000Y-137511374D01*
%TO.C,C82*%
X73140000Y-54392164D02*
X73140000Y-54607836D01*
X73860000Y-54392164D02*
X73860000Y-54607836D01*
%TO.C,C46*%
X128515000Y-143488748D02*
X128515000Y-144011252D01*
X129985000Y-143488748D02*
X129985000Y-144011252D01*
%TO.C,R9*%
X108120000Y-134653641D02*
X108120000Y-134346359D01*
X108880000Y-134653641D02*
X108880000Y-134346359D01*
%TO.C,D13*%
X119100000Y-145560000D02*
X121100000Y-145560000D01*
X120400000Y-142440000D02*
X119100000Y-142440000D01*
%TO.C,SW6*%
X132680000Y-133430000D02*
X132980000Y-133430000D01*
X132680000Y-137570000D02*
X132680000Y-133430000D01*
X132980000Y-137570000D02*
X132680000Y-137570000D01*
X135520000Y-133430000D02*
X135820000Y-133430000D01*
X135820000Y-133430000D02*
X135820000Y-137570000D01*
X135820000Y-137570000D02*
X135520000Y-137570000D01*
%TO.C,R78*%
X171737258Y-123977500D02*
X171262742Y-123977500D01*
X171737258Y-125022500D02*
X171262742Y-125022500D01*
%TO.C,C83*%
X162607836Y-130160000D02*
X162392164Y-130160000D01*
X162607836Y-130880000D02*
X162392164Y-130880000D01*
%TO.C,C85*%
X170622164Y-129640000D02*
X170837836Y-129640000D01*
X170622164Y-130360000D02*
X170837836Y-130360000D01*
%TO.C,R38*%
X136846359Y-135095000D02*
X137153641Y-135095000D01*
X136846359Y-135855000D02*
X137153641Y-135855000D01*
%TO.C,R72*%
X176487258Y-122477500D02*
X176012742Y-122477500D01*
X176487258Y-123522500D02*
X176012742Y-123522500D01*
%TO.C,C40*%
X188040000Y-77607836D02*
X188040000Y-77392164D01*
X188760000Y-77607836D02*
X188760000Y-77392164D01*
%TO.C,D12*%
X131350000Y-145310000D02*
X133350000Y-145310000D01*
X132650000Y-142190000D02*
X131350000Y-142190000D01*
%TO.C,D3*%
X67540000Y-58250000D02*
X67540000Y-60935000D01*
X67540000Y-60935000D02*
X69460000Y-60935000D01*
X69460000Y-60935000D02*
X69460000Y-58250000D01*
%TO.C,R34*%
X60120000Y-67153641D02*
X60120000Y-66846359D01*
X60880000Y-67153641D02*
X60880000Y-66846359D01*
%TO.C,D6*%
X71540000Y-58250000D02*
X71540000Y-60935000D01*
X71540000Y-60935000D02*
X73460000Y-60935000D01*
X73460000Y-60935000D02*
X73460000Y-58250000D01*
%TO.C,R39*%
X100515000Y-136522936D02*
X100515000Y-136977064D01*
X101985000Y-136522936D02*
X101985000Y-136977064D01*
%TO.C,J14*%
X119745000Y-135735000D02*
X119810000Y-135735000D01*
X119745000Y-139265000D02*
X119745000Y-135735000D01*
X119745000Y-139265000D02*
X119810000Y-139265000D01*
X119810000Y-140590000D02*
X119810000Y-139265000D01*
X128690000Y-135735000D02*
X128755000Y-135735000D01*
X128690000Y-139265000D02*
X128755000Y-139265000D01*
X128755000Y-139265000D02*
X128755000Y-135735000D01*
%TO.C,R27*%
X186620000Y-66846359D02*
X186620000Y-67153641D01*
X187380000Y-66846359D02*
X187380000Y-67153641D01*
%TO.C,C16*%
X111627836Y-96390000D02*
X111412164Y-96390000D01*
X111627836Y-97110000D02*
X111412164Y-97110000D01*
D15*
%TO.C,J17*%
X163250000Y-142619000D02*
X163250000Y-142381000D01*
X163250000Y-149119000D02*
X163250000Y-144581000D01*
X163250000Y-152900000D02*
X163250000Y-151081000D01*
X164000000Y-154900000D02*
X164000000Y-152900000D01*
X164850000Y-152900000D02*
X164850000Y-151700000D01*
X168150000Y-151700000D02*
X164850000Y-151700000D01*
X168150000Y-152900000D02*
X168150000Y-151700000D01*
X168999000Y-154106000D02*
X169000000Y-154900000D01*
X169000000Y-152900000D02*
X168999000Y-154106000D01*
X169000000Y-154900000D02*
X164000000Y-154900000D01*
X169750000Y-140900000D02*
X164931000Y-140900000D01*
X169750000Y-141319000D02*
X169750000Y-140900000D01*
X169750000Y-146419000D02*
X169750000Y-143281000D01*
X169750000Y-149119000D02*
X169750000Y-148381000D01*
X169750000Y-152900000D02*
X163250000Y-152900000D01*
X169750000Y-152900000D02*
X169750000Y-151081000D01*
D14*
%TO.C,C20*%
X136140000Y-93142164D02*
X136140000Y-93357836D01*
X136860000Y-93142164D02*
X136860000Y-93357836D01*
D15*
%TO.C,J18*%
X151250000Y-142619000D02*
X151250000Y-142381000D01*
X151250000Y-149119000D02*
X151250000Y-144581000D01*
X151250000Y-152900000D02*
X151250000Y-151081000D01*
X152000000Y-154900000D02*
X152000000Y-152900000D01*
X152850000Y-152900000D02*
X152850000Y-151700000D01*
X156150000Y-151700000D02*
X152850000Y-151700000D01*
X156150000Y-152900000D02*
X156150000Y-151700000D01*
X156999000Y-154106000D02*
X157000000Y-154900000D01*
X157000000Y-152900000D02*
X156999000Y-154106000D01*
X157000000Y-154900000D02*
X152000000Y-154900000D01*
X157750000Y-140900000D02*
X152931000Y-140900000D01*
X157750000Y-141319000D02*
X157750000Y-140900000D01*
X157750000Y-146419000D02*
X157750000Y-143281000D01*
X157750000Y-149119000D02*
X157750000Y-148381000D01*
X157750000Y-152900000D02*
X151250000Y-152900000D01*
X157750000Y-152900000D02*
X157750000Y-151081000D01*
D14*
%TO.C,J13*%
X98720000Y-49900000D02*
X149780000Y-49900000D01*
X98720000Y-59020000D02*
X98720000Y-49900000D01*
X122200000Y-59020000D02*
X122200000Y-49900000D01*
X126300000Y-59020000D02*
X126300000Y-49900000D01*
X149780000Y-49900000D02*
X149780000Y-59020000D01*
X149780000Y-59020000D02*
X98720000Y-59020000D01*
%TO.C,C58*%
X164640000Y-124642164D02*
X164640000Y-124857836D01*
X165360000Y-124642164D02*
X165360000Y-124857836D01*
%TO.C,R1*%
X178765000Y-54727064D02*
X178765000Y-54272936D01*
X180235000Y-54727064D02*
X180235000Y-54272936D01*
%TO.C,C69*%
X174238748Y-118765000D02*
X174761252Y-118765000D01*
X174238748Y-120235000D02*
X174761252Y-120235000D01*
%TO.C,C6*%
X111640000Y-101607836D02*
X111640000Y-101392164D01*
X112360000Y-101607836D02*
X112360000Y-101392164D01*
%TO.C,C51*%
X176140000Y-54392164D02*
X176140000Y-54607836D01*
X176860000Y-54392164D02*
X176860000Y-54607836D01*
%TO.C,R56*%
X121370000Y-132403641D02*
X121370000Y-132096359D01*
X122130000Y-132403641D02*
X122130000Y-132096359D01*
%TO.C,R2*%
X67765000Y-54272936D02*
X67765000Y-54727064D01*
X69235000Y-54272936D02*
X69235000Y-54727064D01*
%TO.C,R7*%
X111620000Y-105356359D02*
X111620000Y-105663641D01*
X112380000Y-105356359D02*
X112380000Y-105663641D01*
%TO.C,C45*%
X86890000Y-137107836D02*
X86890000Y-136892164D01*
X87610000Y-137107836D02*
X87610000Y-136892164D01*
%TO.C,C74*%
X170642164Y-131890000D02*
X170857836Y-131890000D01*
X170642164Y-132610000D02*
X170857836Y-132610000D01*
%TO.C,C57*%
X178140000Y-124107836D02*
X178140000Y-123892164D01*
X178860000Y-124107836D02*
X178860000Y-123892164D01*
%TO.C,C21*%
X127142164Y-89890000D02*
X127357836Y-89890000D01*
X127142164Y-90610000D02*
X127357836Y-90610000D01*
%TO.C,C11*%
X116357836Y-114390000D02*
X116142164Y-114390000D01*
X116357836Y-115110000D02*
X116142164Y-115110000D01*
%TO.C,Y1*%
X108100000Y-102250000D02*
X108100000Y-106250000D01*
X111400000Y-102250000D02*
X108100000Y-102250000D01*
%TO.C,C44*%
X136892164Y-136115000D02*
X137107836Y-136115000D01*
X136892164Y-136835000D02*
X137107836Y-136835000D01*
%TO.C,R31*%
X57620000Y-77633641D02*
X57620000Y-77326359D01*
X58380000Y-77633641D02*
X58380000Y-77326359D01*
%TO.C,R26*%
X186020000Y-77346359D02*
X186020000Y-77653641D01*
X186780000Y-77346359D02*
X186780000Y-77653641D01*
%TO.C,C23*%
X114607836Y-89390000D02*
X114392164Y-89390000D01*
X114607836Y-90110000D02*
X114392164Y-90110000D01*
%TO.C,R45*%
X115620000Y-144153641D02*
X115620000Y-143846359D01*
X116380000Y-144153641D02*
X116380000Y-143846359D01*
%TO.C,R81*%
X168977500Y-137262742D02*
X168977500Y-137737258D01*
X170022500Y-137262742D02*
X170022500Y-137737258D01*
%TO.C,TP2*%
X69200000Y-67750000D02*
G75*
G02*
X67300000Y-67750000I-950000J0D01*
G01*
X67300000Y-67750000D02*
G75*
G02*
X69200000Y-67750000I950000J0D01*
G01*
D15*
%TO.C,J12*%
X67000000Y-142619000D02*
X67000000Y-142381000D01*
X67000000Y-149119000D02*
X67000000Y-144581000D01*
X67000000Y-152900000D02*
X67000000Y-151081000D01*
X67750000Y-154900000D02*
X67750000Y-152900000D01*
X68600000Y-152900000D02*
X68600000Y-151700000D01*
X71900000Y-151700000D02*
X68600000Y-151700000D01*
X71900000Y-152900000D02*
X71900000Y-151700000D01*
X72749000Y-154106000D02*
X72750000Y-154900000D01*
X72750000Y-152900000D02*
X72749000Y-154106000D01*
X72750000Y-154900000D02*
X67750000Y-154900000D01*
X73500000Y-140900000D02*
X68681000Y-140900000D01*
X73500000Y-141319000D02*
X73500000Y-140900000D01*
X73500000Y-146419000D02*
X73500000Y-143281000D01*
X73500000Y-149119000D02*
X73500000Y-148381000D01*
X73500000Y-152900000D02*
X67000000Y-152900000D01*
X73500000Y-152900000D02*
X73500000Y-151081000D01*
D14*
%TO.C,R46*%
X116620000Y-144153641D02*
X116620000Y-143846359D01*
X117380000Y-144153641D02*
X117380000Y-143846359D01*
%TO.C,R28*%
X187620000Y-67153641D02*
X187620000Y-66846359D01*
X188380000Y-67153641D02*
X188380000Y-66846359D01*
%TO.C,C79*%
X167640000Y-134892164D02*
X167640000Y-135107836D01*
X168360000Y-134892164D02*
X168360000Y-135107836D01*
%TO.C,C8*%
X111640000Y-108392164D02*
X111640000Y-108607836D01*
X112360000Y-108392164D02*
X112360000Y-108607836D01*
D18*
%TO.C,J4*%
X146400000Y-113500000D02*
X146400000Y-129500000D01*
X146400000Y-115850000D02*
X156000000Y-115850000D01*
X146400000Y-129500000D02*
X156000000Y-129500000D01*
X156000000Y-113500000D02*
X146400000Y-113500000D01*
X156000000Y-116448000D02*
X159449000Y-116448000D01*
X156000000Y-119927000D02*
X156000000Y-113500000D01*
X156000000Y-126549000D02*
X156000000Y-126150000D01*
X156000000Y-127150000D02*
X146400000Y-127150000D01*
X156000000Y-129500000D02*
X156000000Y-123073000D01*
X158700000Y-121169000D02*
X158700000Y-121500000D01*
X159337000Y-123036000D02*
X159350000Y-123050000D01*
X159449000Y-116448000D02*
X159449000Y-126549000D01*
X159449000Y-126549000D02*
X156000000Y-126549000D01*
X158700000Y-121169000D02*
G75*
G02*
X159425643Y-119527706I2219006J-2D01*
G01*
X159437000Y-123130000D02*
G75*
G02*
X158700675Y-121499869I1435999J1629999D01*
G01*
D14*
%TO.C,R44*%
X125870000Y-143596359D02*
X125870000Y-143903641D01*
X126630000Y-143596359D02*
X126630000Y-143903641D01*
%TO.C,R37*%
X137153641Y-134095000D02*
X136846359Y-134095000D01*
X137153641Y-134855000D02*
X136846359Y-134855000D01*
%TO.C,R50*%
X189620000Y-85846359D02*
X189620000Y-86153641D01*
X190380000Y-85846359D02*
X190380000Y-86153641D01*
%TO.C,R47*%
X66815000Y-138227064D02*
X66815000Y-137772936D01*
X68285000Y-138227064D02*
X68285000Y-137772936D01*
%TO.C,C9*%
X109607836Y-101140000D02*
X109392164Y-101140000D01*
X109607836Y-101860000D02*
X109392164Y-101860000D01*
%TO.C,C22*%
X122142164Y-89890000D02*
X122357836Y-89890000D01*
X122142164Y-90610000D02*
X122357836Y-90610000D01*
%TO.C,C61*%
X165890000Y-126642164D02*
X165890000Y-126857836D01*
X166610000Y-126642164D02*
X166610000Y-126857836D01*
%TO.C,C39*%
X188640000Y-67127836D02*
X188640000Y-66912164D01*
X189360000Y-67127836D02*
X189360000Y-66912164D01*
%TO.C,C59*%
X168640000Y-124857836D02*
X168640000Y-124642164D01*
X169360000Y-124857836D02*
X169360000Y-124642164D01*
D18*
%TO.C,J3*%
X89051000Y-116451000D02*
X92500000Y-116451000D01*
X89051000Y-126552000D02*
X89051000Y-116451000D01*
X89163000Y-119964000D02*
X89150000Y-119950000D01*
X89800000Y-121831000D02*
X89800000Y-121500000D01*
X92500000Y-113500000D02*
X92500000Y-119927000D01*
X92500000Y-115850000D02*
X102100000Y-115850000D01*
X92500000Y-116451000D02*
X92500000Y-116850000D01*
X92500000Y-123073000D02*
X92500000Y-129500000D01*
X92500000Y-126552000D02*
X89051000Y-126552000D01*
X92500000Y-129500000D02*
X102100000Y-129500000D01*
X102100000Y-113500000D02*
X92500000Y-113500000D01*
X102100000Y-127150000D02*
X92500000Y-127150000D01*
X102100000Y-129500000D02*
X102100000Y-113500000D01*
X89063000Y-119870000D02*
G75*
G02*
X89799325Y-121500131I-1435999J-1629999D01*
G01*
X89800000Y-121831000D02*
G75*
G02*
X89074357Y-123472294I-2219006J2D01*
G01*
D14*
%TO.C,C63*%
X170650000Y-123435000D02*
X174560000Y-123435000D01*
X174560000Y-121565000D02*
X170650000Y-121565000D01*
X174560000Y-123435000D02*
X174560000Y-121565000D01*
%TO.C,C24*%
X131890000Y-115142164D02*
X131890000Y-115357836D01*
X132610000Y-115142164D02*
X132610000Y-115357836D01*
%TO.C,R42*%
X86015000Y-134346224D02*
X86015000Y-133892096D01*
X87485000Y-134346224D02*
X87485000Y-133892096D01*
%TO.C,R30*%
X190020000Y-77346359D02*
X190020000Y-77653641D01*
X190780000Y-77346359D02*
X190780000Y-77653641D01*
%TO.C,R54*%
X124370000Y-132403641D02*
X124370000Y-132096359D01*
X125130000Y-132403641D02*
X125130000Y-132096359D01*
%TD*%
%LPC*%
D19*
%TO.C,C80*%
X166750000Y-134520000D03*
X166750000Y-135480000D03*
%TD*%
D20*
%TO.C,C86*%
X162980000Y-132500000D03*
X162020000Y-132500000D03*
%TD*%
D21*
%TO.C,C71*%
X173550000Y-117250000D03*
X175450000Y-117250000D03*
%TD*%
D22*
%TO.C,C37*%
X82000000Y-72699949D03*
X82000000Y-69099949D03*
%TD*%
D19*
%TO.C,C28*%
X136500000Y-100000000D03*
X136500000Y-100960000D03*
%TD*%
D23*
%TO.C,L3*%
X92250000Y-67099949D03*
X92250000Y-70099949D03*
%TD*%
D20*
%TO.C,C13*%
X109980000Y-107000000D03*
X109020000Y-107000000D03*
%TD*%
D24*
%TO.C,J16*%
X142500000Y-142400000D03*
D25*
X146000000Y-147400000D03*
X146000000Y-142300000D03*
D26*
X139000000Y-150100000D03*
D25*
X146000000Y-150100000D03*
X139000000Y-143600000D03*
D26*
X139000000Y-141400000D03*
%TD*%
D27*
%TO.C,D14*%
X79072959Y-138000000D03*
X83072959Y-138000000D03*
%TD*%
D28*
%TO.C,R5*%
X141000000Y-66260000D03*
X141000000Y-65240000D03*
%TD*%
D29*
%TO.C,C53*%
X60500000Y-85960000D03*
X60500000Y-85000000D03*
%TD*%
D19*
%TO.C,C62*%
X167750000Y-126270000D03*
X167750000Y-127230000D03*
%TD*%
D29*
%TO.C,C41*%
X60000000Y-77960000D03*
X60000000Y-77000000D03*
%TD*%
D30*
%TO.C,C66*%
X173600000Y-128250000D03*
X170900000Y-128250000D03*
%TD*%
D28*
%TO.C,R4*%
X124750000Y-116760000D03*
X124750000Y-115740000D03*
%TD*%
D20*
%TO.C,C17*%
X112000000Y-95750000D03*
X111040000Y-95750000D03*
%TD*%
D31*
%TO.C,C26*%
X121770000Y-89250000D03*
X122730000Y-89250000D03*
%TD*%
D32*
%TO.C,R83*%
X166500000Y-136675000D03*
X166500000Y-138325000D03*
%TD*%
D31*
%TO.C,C18*%
X133270000Y-114750000D03*
X134230000Y-114750000D03*
%TD*%
D20*
%TO.C,C12*%
X110980000Y-111000000D03*
X110020000Y-111000000D03*
%TD*%
%TO.C,C25*%
X112000000Y-107000000D03*
X111040000Y-107000000D03*
%TD*%
D33*
%TO.C,D5*%
X70500000Y-60187500D03*
X70500000Y-58312500D03*
%TD*%
D19*
%TO.C,C81*%
X74500000Y-54020000D03*
X74500000Y-54980000D03*
%TD*%
D34*
%TO.C,U7*%
X134350000Y-141250000D03*
X134350000Y-141750000D03*
X134350000Y-142250000D03*
X135650000Y-142250000D03*
X135650000Y-141750000D03*
X135650000Y-141250000D03*
%TD*%
D35*
%TO.C,R29*%
X189400000Y-76980000D03*
X189400000Y-78000000D03*
%TD*%
D36*
%TO.C,C67*%
X164750000Y-134975000D03*
X164750000Y-136525000D03*
%TD*%
D31*
%TO.C,C70*%
X162020000Y-133750000D03*
X162980000Y-133750000D03*
%TD*%
D37*
%TO.C,D10*%
X66500000Y-107000000D03*
X66500000Y-103000000D03*
%TD*%
D38*
%TO.C,U5*%
X98765000Y-137790000D03*
X98765000Y-135250000D03*
X98765000Y-132710000D03*
X89235000Y-132710000D03*
X89235000Y-135250000D03*
X89235000Y-137790000D03*
%TD*%
D28*
%TO.C,R11*%
X108500000Y-137010000D03*
X108500000Y-135990000D03*
%TD*%
D20*
%TO.C,C10*%
X110980000Y-110000000D03*
X110020000Y-110000000D03*
%TD*%
D24*
%TO.C,J11*%
X82250000Y-142400000D03*
D25*
X85750000Y-147400000D03*
X85750000Y-142300000D03*
D26*
X78750000Y-150100000D03*
D25*
X85750000Y-150100000D03*
X78750000Y-143600000D03*
D26*
X78750000Y-141400000D03*
%TD*%
D39*
%TO.C,D11*%
X101000000Y-132975000D03*
X101000000Y-134375000D03*
%TD*%
D36*
%TO.C,C68*%
X163000000Y-134975000D03*
X163000000Y-136525000D03*
%TD*%
D40*
%TO.C,R8*%
X66500000Y-58250000D03*
X66500000Y-60250000D03*
%TD*%
D41*
%TO.C,SW1*%
X110750000Y-137600000D03*
X110750000Y-133400000D03*
%TD*%
D35*
%TO.C,R43*%
X127250000Y-143240000D03*
X127250000Y-144260000D03*
%TD*%
D19*
%TO.C,C60*%
X178500000Y-126270000D03*
X178500000Y-127230000D03*
%TD*%
D42*
%TO.C,R48*%
X69550000Y-138912500D03*
X69550000Y-137087500D03*
%TD*%
D43*
%TO.C,J5*%
X185100000Y-104500000D03*
D44*
X187640000Y-104500000D03*
X185100000Y-107040000D03*
X187640000Y-107040000D03*
X185100000Y-109580000D03*
X187640000Y-109580000D03*
%TD*%
D45*
%TO.C,U13*%
X164510000Y-129600000D03*
X164510000Y-130000000D03*
X164510000Y-130400000D03*
X164510000Y-130800000D03*
X164510000Y-131200000D03*
X164510000Y-131600000D03*
X164510000Y-132000000D03*
X164510000Y-132400000D03*
D46*
X165100000Y-132990000D03*
X165500000Y-132990000D03*
X165900000Y-132990000D03*
X166300000Y-132990000D03*
X166700000Y-132990000D03*
X167100000Y-132990000D03*
X167500000Y-132990000D03*
X167900000Y-132990000D03*
D45*
X168490000Y-132400000D03*
X168490000Y-132000000D03*
X168490000Y-131600000D03*
X168490000Y-131200000D03*
X168490000Y-130800000D03*
X168490000Y-130400000D03*
X168490000Y-130000000D03*
X168490000Y-129600000D03*
D46*
X167900000Y-129010000D03*
X167500000Y-129010000D03*
X167100000Y-129010000D03*
X166700000Y-129010000D03*
X166300000Y-129010000D03*
X165900000Y-129010000D03*
X165500000Y-129010000D03*
X165100000Y-129010000D03*
D47*
X166500000Y-131000000D03*
%TD*%
D20*
%TO.C,C64*%
X174480000Y-124250000D03*
X173520000Y-124250000D03*
%TD*%
D29*
%TO.C,C52*%
X188000000Y-86480000D03*
X188000000Y-85520000D03*
%TD*%
D48*
%TO.C,U9*%
X71350000Y-137350000D03*
X71350000Y-138000000D03*
X71350000Y-138650000D03*
X73250000Y-138650000D03*
X73250000Y-137350000D03*
%TD*%
D28*
%TO.C,R6*%
X140000000Y-66260000D03*
X140000000Y-65240000D03*
%TD*%
D31*
%TO.C,C27*%
X136520000Y-94750000D03*
X137480000Y-94750000D03*
%TD*%
D20*
%TO.C,C14*%
X123230000Y-114750000D03*
X122270000Y-114750000D03*
%TD*%
D19*
%TO.C,C50*%
X175500000Y-54020000D03*
X175500000Y-54980000D03*
%TD*%
D35*
%TO.C,R52*%
X62500000Y-84990000D03*
X62500000Y-86010000D03*
%TD*%
D49*
%TO.C,R80*%
X172425000Y-134500000D03*
X174075000Y-134500000D03*
%TD*%
D28*
%TO.C,R3*%
X123750000Y-116760000D03*
X123750000Y-115740000D03*
%TD*%
D50*
%TO.C,H2*%
X191100000Y-55000000D03*
X191802944Y-53302944D03*
X191802944Y-56697056D03*
X193500000Y-52600000D03*
D51*
X193500000Y-55000000D03*
D50*
X193500000Y-57400000D03*
X195197056Y-53302944D03*
X195197056Y-56697056D03*
X195900000Y-55000000D03*
%TD*%
D28*
%TO.C,R58*%
X126750000Y-132760000D03*
X126750000Y-131740000D03*
%TD*%
D52*
%TO.C,R49*%
X75050000Y-137087500D03*
X75050000Y-138912500D03*
%TD*%
D35*
%TO.C,R35*%
X62000000Y-76970000D03*
X62000000Y-77990000D03*
%TD*%
D53*
%TO.C,FB3*%
X168750000Y-126265000D03*
X168750000Y-127235000D03*
%TD*%
D28*
%TO.C,R55*%
X122750000Y-132760000D03*
X122750000Y-131740000D03*
%TD*%
D35*
%TO.C,R76*%
X167750000Y-123740000D03*
X167750000Y-124760000D03*
%TD*%
D24*
%TO.C,J19*%
X178500000Y-142400000D03*
D25*
X182000000Y-147400000D03*
X182000000Y-142300000D03*
D26*
X175000000Y-150100000D03*
D25*
X182000000Y-150100000D03*
X175000000Y-143600000D03*
D26*
X175000000Y-141400000D03*
%TD*%
D31*
%TO.C,C87*%
X170270000Y-133250000D03*
X171230000Y-133250000D03*
%TD*%
D54*
%TO.C,U2*%
X113587500Y-93750000D03*
X113587500Y-94250000D03*
X113587500Y-94750000D03*
X113587500Y-95250000D03*
X113587500Y-95750000D03*
X113587500Y-96250000D03*
X113587500Y-96750000D03*
X113587500Y-97250000D03*
X113587500Y-97750000D03*
X113587500Y-98250000D03*
X113587500Y-98750000D03*
X113587500Y-99250000D03*
X113587500Y-99750000D03*
X113587500Y-100250000D03*
X113587500Y-100750000D03*
X113587500Y-101250000D03*
X113587500Y-101750000D03*
X113587500Y-102250000D03*
X113587500Y-102750000D03*
X113587500Y-103250000D03*
X113587500Y-103750000D03*
X113587500Y-104250000D03*
X113587500Y-104750000D03*
X113587500Y-105250000D03*
X113587500Y-105750000D03*
X113587500Y-106250000D03*
X113587500Y-106750000D03*
X113587500Y-107250000D03*
X113587500Y-107750000D03*
X113587500Y-108250000D03*
X113587500Y-108750000D03*
X113587500Y-109250000D03*
X113587500Y-109750000D03*
X113587500Y-110250000D03*
X113587500Y-110750000D03*
X113587500Y-111250000D03*
D55*
X115500000Y-113162500D03*
X116000000Y-113162500D03*
X116500000Y-113162500D03*
X117000000Y-113162500D03*
X117500000Y-113162500D03*
X118000000Y-113162500D03*
X118500000Y-113162500D03*
X119000000Y-113162500D03*
X119500000Y-113162500D03*
X120000000Y-113162500D03*
X120500000Y-113162500D03*
X121000000Y-113162500D03*
X121500000Y-113162500D03*
X122000000Y-113162500D03*
X122500000Y-113162500D03*
X123000000Y-113162500D03*
X123500000Y-113162500D03*
X124000000Y-113162500D03*
X124500000Y-113162500D03*
X125000000Y-113162500D03*
X125500000Y-113162500D03*
X126000000Y-113162500D03*
X126500000Y-113162500D03*
X127000000Y-113162500D03*
X127500000Y-113162500D03*
X128000000Y-113162500D03*
X128500000Y-113162500D03*
X129000000Y-113162500D03*
X129500000Y-113162500D03*
X130000000Y-113162500D03*
X130500000Y-113162500D03*
X131000000Y-113162500D03*
X131500000Y-113162500D03*
X132000000Y-113162500D03*
X132500000Y-113162500D03*
X133000000Y-113162500D03*
D54*
X134912500Y-111250000D03*
X134912500Y-110750000D03*
X134912500Y-110250000D03*
X134912500Y-109750000D03*
X134912500Y-109250000D03*
X134912500Y-108750000D03*
X134912500Y-108250000D03*
X134912500Y-107750000D03*
X134912500Y-107250000D03*
X134912500Y-106750000D03*
X134912500Y-106250000D03*
X134912500Y-105750000D03*
X134912500Y-105250000D03*
X134912500Y-104750000D03*
X134912500Y-104250000D03*
X134912500Y-103750000D03*
X134912500Y-103250000D03*
X134912500Y-102750000D03*
X134912500Y-102250000D03*
X134912500Y-101750000D03*
X134912500Y-101250000D03*
X134912500Y-100750000D03*
X134912500Y-100250000D03*
X134912500Y-99750000D03*
X134912500Y-99250000D03*
X134912500Y-98750000D03*
X134912500Y-98250000D03*
X134912500Y-97750000D03*
X134912500Y-97250000D03*
X134912500Y-96750000D03*
X134912500Y-96250000D03*
X134912500Y-95750000D03*
X134912500Y-95250000D03*
X134912500Y-94750000D03*
X134912500Y-94250000D03*
X134912500Y-93750000D03*
D55*
X133000000Y-91837500D03*
X132500000Y-91837500D03*
X132000000Y-91837500D03*
X131500000Y-91837500D03*
X131000000Y-91837500D03*
X130500000Y-91837500D03*
X130000000Y-91837500D03*
X129500000Y-91837500D03*
X129000000Y-91837500D03*
X128500000Y-91837500D03*
X128000000Y-91837500D03*
X127500000Y-91837500D03*
X127000000Y-91837500D03*
X126500000Y-91837500D03*
X126000000Y-91837500D03*
X125500000Y-91837500D03*
X125000000Y-91837500D03*
X124500000Y-91837500D03*
X124000000Y-91837500D03*
X123500000Y-91837500D03*
X123000000Y-91837500D03*
X122500000Y-91837500D03*
X122000000Y-91837500D03*
X121500000Y-91837500D03*
X121000000Y-91837500D03*
X120500000Y-91837500D03*
X120000000Y-91837500D03*
X119500000Y-91837500D03*
X119000000Y-91837500D03*
X118500000Y-91837500D03*
X118000000Y-91837500D03*
X117500000Y-91837500D03*
X117000000Y-91837500D03*
X116500000Y-91837500D03*
X116000000Y-91837500D03*
X115500000Y-91837500D03*
%TD*%
D24*
%TO.C,J8*%
X106250000Y-142400000D03*
D25*
X109750000Y-147400000D03*
X109750000Y-142300000D03*
D26*
X102750000Y-150100000D03*
D25*
X109750000Y-150100000D03*
X102750000Y-143600000D03*
D26*
X102750000Y-141400000D03*
%TD*%
D29*
%TO.C,C43*%
X61000000Y-77960000D03*
X61000000Y-77000000D03*
%TD*%
D31*
%TO.C,C77*%
X170270000Y-134250000D03*
X171230000Y-134250000D03*
%TD*%
D41*
%TO.C,SW2*%
X114250000Y-137600000D03*
X114250000Y-133400000D03*
%TD*%
D56*
%TO.C,J6*%
X63400000Y-109500000D03*
D44*
X60860000Y-109500000D03*
X63400000Y-106960000D03*
X60860000Y-106960000D03*
X63400000Y-104420000D03*
X60860000Y-104420000D03*
%TD*%
D40*
%TO.C,R20*%
X76500000Y-58250000D03*
X76500000Y-60250000D03*
%TD*%
D29*
%TO.C,C42*%
X61500000Y-67480000D03*
X61500000Y-66520000D03*
%TD*%
D57*
%TO.C,R73*%
X177075000Y-127750000D03*
X175425000Y-127750000D03*
%TD*%
D31*
%TO.C,C72*%
X170270000Y-131000000D03*
X171230000Y-131000000D03*
%TD*%
D28*
%TO.C,R59*%
X125750000Y-132750000D03*
X125750000Y-131730000D03*
%TD*%
D58*
%TO.C,SW3*%
X78306688Y-54500000D03*
X91606662Y-54500000D03*
X80156573Y-63699898D03*
X84956675Y-63699898D03*
X89756777Y-63699898D03*
%TD*%
D59*
%TO.C,J1*%
X159755000Y-67725000D03*
X160855000Y-67725000D03*
X161955000Y-67725000D03*
X163055000Y-67725000D03*
X164155000Y-67725000D03*
X165255000Y-67725000D03*
X166355000Y-67725000D03*
X167455000Y-67725000D03*
X168405000Y-67725000D03*
D60*
X169355000Y-57225000D03*
D61*
X169355000Y-63425000D03*
D62*
X169355000Y-53075000D03*
D61*
X158205000Y-67725000D03*
D63*
X155855000Y-52625000D03*
%TD*%
D49*
%TO.C,R77*%
X175675000Y-126250000D03*
X177325000Y-126250000D03*
%TD*%
D64*
%TO.C,J9*%
X127360000Y-148400000D03*
X133140000Y-148400000D03*
D65*
X127000000Y-146955000D03*
X127800000Y-146955000D03*
D66*
X129000000Y-146955000D03*
X130000000Y-146955000D03*
X130500000Y-146955000D03*
X131500000Y-146955000D03*
D65*
X132700000Y-146955000D03*
X133500000Y-146955000D03*
X133500000Y-146955000D03*
X132700000Y-146955000D03*
D66*
X132000000Y-146955000D03*
X131000000Y-146955000D03*
X129500000Y-146955000D03*
X128500000Y-146955000D03*
D65*
X127800000Y-146955000D03*
X127000000Y-146955000D03*
D67*
X125930000Y-147870000D03*
D68*
X125930000Y-152050000D03*
D67*
X134570000Y-147870000D03*
D68*
X134570000Y-152050000D03*
%TD*%
D69*
%TO.C,U6*%
X106150000Y-133338438D03*
X105500000Y-133338438D03*
X104850000Y-133338438D03*
X104850000Y-135238438D03*
X106150000Y-135238438D03*
%TD*%
D32*
%TO.C,R82*%
X168000000Y-136675000D03*
X168000000Y-138325000D03*
%TD*%
D49*
%TO.C,R74*%
X175675000Y-124500000D03*
X177325000Y-124500000D03*
%TD*%
D57*
%TO.C,R79*%
X172325000Y-126250000D03*
X170675000Y-126250000D03*
%TD*%
D35*
%TO.C,R10*%
X116000000Y-89240000D03*
X116000000Y-90260000D03*
%TD*%
D20*
%TO.C,C15*%
X128230000Y-114750000D03*
X127270000Y-114750000D03*
%TD*%
D35*
%TO.C,R36*%
X63000000Y-76960000D03*
X63000000Y-77980000D03*
%TD*%
D24*
%TO.C,J7*%
X94250000Y-142400000D03*
D25*
X97750000Y-147400000D03*
X97750000Y-142300000D03*
D26*
X90750000Y-150100000D03*
D25*
X97750000Y-150100000D03*
X90750000Y-143600000D03*
D26*
X90750000Y-141400000D03*
%TD*%
D20*
%TO.C,C65*%
X174480000Y-126500000D03*
X173520000Y-126500000D03*
%TD*%
D28*
%TO.C,R57*%
X123750000Y-132760000D03*
X123750000Y-131740000D03*
%TD*%
%TO.C,R25*%
X185400000Y-78010000D03*
X185400000Y-76990000D03*
%TD*%
D29*
%TO.C,C38*%
X187400000Y-78000000D03*
X187400000Y-77040000D03*
%TD*%
D28*
%TO.C,R53*%
X61500000Y-86010000D03*
X61500000Y-84990000D03*
%TD*%
D50*
%TO.C,H1*%
X52600000Y-55000000D03*
X53302944Y-53302944D03*
X53302944Y-56697056D03*
X55000000Y-52600000D03*
D51*
X55000000Y-55000000D03*
D50*
X55000000Y-57400000D03*
X56697056Y-53302944D03*
X56697056Y-56697056D03*
X57400000Y-55000000D03*
%TD*%
D64*
%TO.C,J10*%
X115360000Y-148400000D03*
X121140000Y-148400000D03*
D65*
X115000000Y-146955000D03*
X115800000Y-146955000D03*
D66*
X117000000Y-146955000D03*
X118000000Y-146955000D03*
X118500000Y-146955000D03*
X119500000Y-146955000D03*
D65*
X120700000Y-146955000D03*
X121500000Y-146955000D03*
X121500000Y-146955000D03*
X120700000Y-146955000D03*
D66*
X120000000Y-146955000D03*
X119000000Y-146955000D03*
X117500000Y-146955000D03*
X116500000Y-146955000D03*
D65*
X115800000Y-146955000D03*
X115000000Y-146955000D03*
D67*
X113930000Y-147870000D03*
D68*
X113930000Y-152050000D03*
D67*
X122570000Y-147870000D03*
D68*
X122570000Y-152050000D03*
%TD*%
D20*
%TO.C,C84*%
X162980000Y-131500000D03*
X162020000Y-131500000D03*
%TD*%
D50*
%TO.C,H4*%
X191100000Y-150000000D03*
X191802944Y-148302944D03*
X191802944Y-151697056D03*
X193500000Y-147600000D03*
D51*
X193500000Y-150000000D03*
D50*
X193500000Y-152400000D03*
X195197056Y-148302944D03*
X195197056Y-151697056D03*
X195900000Y-150000000D03*
%TD*%
D70*
%TO.C,TP1*%
X68250000Y-65000000D03*
%TD*%
D35*
%TO.C,R75*%
X166250000Y-123740000D03*
X166250000Y-124760000D03*
%TD*%
%TO.C,R32*%
X59000000Y-76960000D03*
X59000000Y-77980000D03*
%TD*%
D28*
%TO.C,R51*%
X189000000Y-86510000D03*
X189000000Y-85490000D03*
%TD*%
D52*
%TO.C,R40*%
X106500000Y-136825938D03*
X106500000Y-138650938D03*
%TD*%
D35*
%TO.C,R33*%
X59500000Y-66490000D03*
X59500000Y-67510000D03*
%TD*%
D71*
%TO.C,L4*%
X172000000Y-117720000D03*
X172000000Y-116750000D03*
%TD*%
D40*
%TO.C,R21*%
X74500000Y-58250000D03*
X74500000Y-60250000D03*
%TD*%
D19*
%TO.C,C19*%
X136500000Y-105520000D03*
X136500000Y-106480000D03*
%TD*%
%TO.C,C78*%
X169250000Y-134520000D03*
X169250000Y-135480000D03*
%TD*%
D72*
%TO.C,D9*%
X182000000Y-107000000D03*
X182000000Y-111000000D03*
%TD*%
D73*
%TO.C,C49*%
X87500000Y-93200000D03*
X87500000Y-96800000D03*
%TD*%
D42*
%TO.C,R41*%
X104500000Y-138650938D03*
X104500000Y-136825938D03*
%TD*%
D19*
%TO.C,C82*%
X73500000Y-54020000D03*
X73500000Y-54980000D03*
%TD*%
D74*
%TO.C,C46*%
X129250000Y-142800000D03*
X129250000Y-144700000D03*
%TD*%
D28*
%TO.C,R9*%
X108500000Y-135010000D03*
X108500000Y-133990000D03*
%TD*%
D75*
%TO.C,D13*%
X120750000Y-144750000D03*
D76*
X120750000Y-143050000D03*
X118750000Y-143050000D03*
X118750000Y-144950000D03*
%TD*%
D41*
%TO.C,SW6*%
X134250000Y-137600000D03*
X134250000Y-133400000D03*
%TD*%
D57*
%TO.C,R78*%
X172325000Y-124500000D03*
X170675000Y-124500000D03*
%TD*%
D20*
%TO.C,C83*%
X162980000Y-130520000D03*
X162020000Y-130520000D03*
%TD*%
D31*
%TO.C,C85*%
X170250000Y-130000000D03*
X171210000Y-130000000D03*
%TD*%
D77*
%TO.C,R38*%
X136490000Y-135475000D03*
X137510000Y-135475000D03*
%TD*%
D57*
%TO.C,R72*%
X177075000Y-123000000D03*
X175425000Y-123000000D03*
%TD*%
D29*
%TO.C,C40*%
X188400000Y-77980000D03*
X188400000Y-77020000D03*
%TD*%
D75*
%TO.C,D12*%
X133000000Y-144500000D03*
D76*
X133000000Y-142800000D03*
X131000000Y-142800000D03*
X131000000Y-144700000D03*
%TD*%
D53*
%TO.C,FB2*%
X165250000Y-126265000D03*
X165250000Y-127235000D03*
%TD*%
D33*
%TO.C,D3*%
X68500000Y-60187500D03*
X68500000Y-58312500D03*
%TD*%
D28*
%TO.C,R34*%
X60500000Y-67510000D03*
X60500000Y-66490000D03*
%TD*%
D33*
%TO.C,D6*%
X72500000Y-60187500D03*
X72500000Y-58312500D03*
%TD*%
D52*
%TO.C,R39*%
X101250000Y-135837500D03*
X101250000Y-137662500D03*
%TD*%
D78*
%TO.C,J14*%
X120440000Y-139450000D03*
X120440000Y-135550000D03*
X121710000Y-139450000D03*
X121710000Y-135550000D03*
X122980000Y-139450000D03*
X122980000Y-135550000D03*
X124250000Y-139450000D03*
X124250000Y-135550000D03*
X125520000Y-139450000D03*
X125520000Y-135550000D03*
X126790000Y-139450000D03*
X126790000Y-135550000D03*
X128060000Y-139450000D03*
X128060000Y-135550000D03*
%TD*%
D35*
%TO.C,R27*%
X187000000Y-66490000D03*
X187000000Y-67510000D03*
%TD*%
D20*
%TO.C,C16*%
X112000000Y-96750000D03*
X111040000Y-96750000D03*
%TD*%
D24*
%TO.C,J17*%
X166500000Y-142400000D03*
D25*
X170000000Y-147400000D03*
X170000000Y-142300000D03*
D26*
X163000000Y-150100000D03*
D25*
X170000000Y-150100000D03*
X163000000Y-143600000D03*
D26*
X163000000Y-141400000D03*
%TD*%
D19*
%TO.C,C20*%
X136500000Y-92770000D03*
X136500000Y-93730000D03*
%TD*%
D24*
%TO.C,J18*%
X154500000Y-142400000D03*
D25*
X158000000Y-147400000D03*
X158000000Y-142300000D03*
D26*
X151000000Y-150100000D03*
D25*
X158000000Y-150100000D03*
X151000000Y-143600000D03*
D26*
X151000000Y-141400000D03*
%TD*%
D44*
%TO.C,J13*%
X103930000Y-63290000D03*
X103930000Y-60750000D03*
X106470000Y-63290000D03*
X106470000Y-60750000D03*
X109010000Y-63290000D03*
X109010000Y-60750000D03*
X111550000Y-63290000D03*
X111550000Y-60750000D03*
X114090000Y-63290000D03*
X114090000Y-60750000D03*
X116630000Y-63290000D03*
X116630000Y-60750000D03*
X119170000Y-63290000D03*
X119170000Y-60750000D03*
X121710000Y-63290000D03*
X121710000Y-60750000D03*
X124250000Y-63290000D03*
X124250000Y-60750000D03*
X126790000Y-63290000D03*
X126790000Y-60750000D03*
X129330000Y-63290000D03*
X129330000Y-60750000D03*
X131870000Y-63290000D03*
X131870000Y-60750000D03*
X134410000Y-63290000D03*
X134410000Y-60750000D03*
X136950000Y-63290000D03*
X136950000Y-60750000D03*
X139490000Y-63290000D03*
X139490000Y-60750000D03*
X142030000Y-63290000D03*
X142030000Y-60750000D03*
X144570000Y-63290000D03*
X144570000Y-60750000D03*
%TD*%
D19*
%TO.C,C58*%
X165000000Y-124270000D03*
X165000000Y-125230000D03*
%TD*%
D79*
%TO.C,R1*%
X179500000Y-55500000D03*
X179500000Y-53500000D03*
%TD*%
D21*
%TO.C,C69*%
X173550000Y-119500000D03*
X175450000Y-119500000D03*
%TD*%
D29*
%TO.C,C6*%
X112000000Y-101980000D03*
X112000000Y-101020000D03*
%TD*%
D19*
%TO.C,C51*%
X176500000Y-54020000D03*
X176500000Y-54980000D03*
%TD*%
D28*
%TO.C,R56*%
X121750000Y-132760000D03*
X121750000Y-131740000D03*
%TD*%
D40*
%TO.C,R2*%
X68500000Y-53500000D03*
X68500000Y-55500000D03*
%TD*%
D35*
%TO.C,R7*%
X112000000Y-105000000D03*
X112000000Y-106020000D03*
%TD*%
D29*
%TO.C,C45*%
X87250000Y-137480000D03*
X87250000Y-136520000D03*
%TD*%
D31*
%TO.C,C74*%
X170270000Y-132250000D03*
X171230000Y-132250000D03*
%TD*%
D29*
%TO.C,C57*%
X178500000Y-124480000D03*
X178500000Y-123520000D03*
%TD*%
D31*
%TO.C,C21*%
X126770000Y-90250000D03*
X127730000Y-90250000D03*
%TD*%
D20*
%TO.C,C11*%
X116730000Y-114750000D03*
X115770000Y-114750000D03*
%TD*%
D80*
%TO.C,Y1*%
X108900000Y-103150000D03*
X108900000Y-105350000D03*
X110600000Y-105350000D03*
X110600000Y-103150000D03*
%TD*%
D31*
%TO.C,C44*%
X136520000Y-136475000D03*
X137480000Y-136475000D03*
%TD*%
D28*
%TO.C,R31*%
X58000000Y-77990000D03*
X58000000Y-76970000D03*
%TD*%
D35*
%TO.C,R26*%
X186400000Y-76990000D03*
X186400000Y-78010000D03*
%TD*%
D20*
%TO.C,C23*%
X114980000Y-89750000D03*
X114020000Y-89750000D03*
%TD*%
D28*
%TO.C,R45*%
X116000000Y-144510000D03*
X116000000Y-143490000D03*
%TD*%
D32*
%TO.C,R81*%
X169500000Y-136675000D03*
X169500000Y-138325000D03*
%TD*%
D70*
%TO.C,TP2*%
X68250000Y-67750000D03*
%TD*%
D24*
%TO.C,J12*%
X70250000Y-142400000D03*
D25*
X73750000Y-147400000D03*
X73750000Y-142300000D03*
D26*
X66750000Y-150100000D03*
D25*
X73750000Y-150100000D03*
X66750000Y-143600000D03*
D26*
X66750000Y-141400000D03*
%TD*%
D28*
%TO.C,R46*%
X117000000Y-144510000D03*
X117000000Y-143490000D03*
%TD*%
%TO.C,R28*%
X188000000Y-67510000D03*
X188000000Y-66490000D03*
%TD*%
D19*
%TO.C,C79*%
X168000000Y-134520000D03*
X168000000Y-135480000D03*
%TD*%
%TO.C,C8*%
X112000000Y-108020000D03*
X112000000Y-108980000D03*
%TD*%
D50*
%TO.C,H3*%
X52600000Y-150000000D03*
X53302944Y-148302944D03*
X53302944Y-151697056D03*
X55000000Y-147600000D03*
D51*
X55000000Y-150000000D03*
D50*
X55000000Y-152400000D03*
X56697056Y-148302944D03*
X56697056Y-151697056D03*
X57400000Y-150000000D03*
%TD*%
D81*
%TO.C,J4*%
X155850000Y-121500000D03*
X148251000Y-124000000D03*
X148250000Y-119000000D03*
%TD*%
D35*
%TO.C,R44*%
X126250000Y-143240000D03*
X126250000Y-144260000D03*
%TD*%
D82*
%TO.C,R37*%
X137510000Y-134475000D03*
X136490000Y-134475000D03*
%TD*%
D35*
%TO.C,R50*%
X190000000Y-85490000D03*
X190000000Y-86510000D03*
%TD*%
D42*
%TO.C,R47*%
X67550000Y-138912500D03*
X67550000Y-137087500D03*
%TD*%
D20*
%TO.C,C9*%
X109980000Y-101500000D03*
X109020000Y-101500000D03*
%TD*%
D31*
%TO.C,C22*%
X121770000Y-90250000D03*
X122730000Y-90250000D03*
%TD*%
D19*
%TO.C,C61*%
X166250000Y-126270000D03*
X166250000Y-127230000D03*
%TD*%
D29*
%TO.C,C39*%
X189000000Y-67500000D03*
X189000000Y-66540000D03*
%TD*%
%TO.C,C59*%
X169000000Y-125230000D03*
X169000000Y-124270000D03*
%TD*%
D81*
%TO.C,J3*%
X92650000Y-121500000D03*
X100249000Y-119000000D03*
X100250000Y-124000000D03*
%TD*%
D30*
%TO.C,C63*%
X173600000Y-122500000D03*
X170900000Y-122500000D03*
%TD*%
D19*
%TO.C,C24*%
X132250000Y-114770000D03*
X132250000Y-115730000D03*
%TD*%
D42*
%TO.C,R42*%
X86750000Y-135031660D03*
X86750000Y-133206660D03*
%TD*%
D35*
%TO.C,R30*%
X190400000Y-76990000D03*
X190400000Y-78010000D03*
%TD*%
D28*
%TO.C,R54*%
X124750000Y-132760000D03*
X124750000Y-131740000D03*
%TD*%
D83*
%TO.C,SW5*%
X66200000Y-72250000D03*
X54800000Y-72250000D03*
D84*
X63000000Y-79750000D03*
X58000000Y-79750000D03*
X60500000Y-79750000D03*
X63000000Y-65250000D03*
X58000000Y-65250000D03*
%TD*%
D85*
%TO.C,J15*%
X129330000Y-137500000D03*
X119170000Y-138516000D03*
X119170000Y-136484000D03*
%TD*%
D83*
%TO.C,SW4*%
X193700000Y-72250000D03*
X182300000Y-72250000D03*
D84*
X190500000Y-79750000D03*
X185500000Y-79750000D03*
X188000000Y-79750000D03*
X190500000Y-65250000D03*
X185500000Y-65250000D03*
%TD*%
D86*
%TO.C,SW8*%
X65580000Y-90500000D03*
D87*
X60500000Y-90500000D03*
D86*
X55420000Y-90500000D03*
D58*
X64310000Y-87960000D03*
X57960000Y-85420000D03*
%TD*%
D86*
%TO.C,SW7*%
X193080000Y-90500000D03*
D87*
X188000000Y-90500000D03*
D86*
X182920000Y-90500000D03*
D58*
X191810000Y-87960000D03*
X185460000Y-85420000D03*
%TD*%
%LPD*%
M02*
