%TF.GenerationSoftware,KiCad,Pcbnew,8.0.5*%
%TF.CreationDate,2024-12-13T13:38:04+01:00*%
%TF.ProjectId,KLST_PANDA,4b4c5354-5f50-4414-9e44-412e6b696361,rev?*%
%TF.SameCoordinates,Original*%
%TF.FileFunction,Copper,L3,Inr*%
%TF.FilePolarity,Positive*%
%FSLAX46Y46*%
G04 Gerber Fmt 4.6, Leading zero omitted, Abs format (unit mm)*
G04 Created by KiCad (PCBNEW 8.0.5) date 2024-12-13 13:38:04*
%MOMM*%
%LPD*%
G01*
G04 APERTURE LIST*
G04 Aperture macros list*
%AMRoundRect*
0 Rectangle with rounded corners*
0 $1 Rounding radius*
0 $2 $3 $4 $5 $6 $7 $8 $9 X,Y pos of 4 corners*
0 Add a 4 corners polygon primitive as box body*
4,1,4,$2,$3,$4,$5,$6,$7,$8,$9,$2,$3,0*
0 Add four circle primitives for the rounded corners*
1,1,$1+$1,$2,$3*
1,1,$1+$1,$4,$5*
1,1,$1+$1,$6,$7*
1,1,$1+$1,$8,$9*
0 Add four rect primitives between the rounded corners*
20,1,$1+$1,$2,$3,$4,$5,0*
20,1,$1+$1,$4,$5,$6,$7,0*
20,1,$1+$1,$6,$7,$8,$9,0*
20,1,$1+$1,$8,$9,$2,$3,0*%
G04 Aperture macros list end*
%TA.AperFunction,ComponentPad*%
%ADD10RoundRect,0.250000X-0.600000X-0.600000X0.600000X-0.600000X0.600000X0.600000X-0.600000X0.600000X0*%
%TD*%
%TA.AperFunction,ComponentPad*%
%ADD11C,1.700000*%
%TD*%
%TA.AperFunction,ComponentPad*%
%ADD12C,0.800000*%
%TD*%
%TA.AperFunction,ComponentPad*%
%ADD13C,6.400000*%
%TD*%
%TA.AperFunction,ComponentPad*%
%ADD14RoundRect,0.250000X0.600000X0.600000X-0.600000X0.600000X-0.600000X-0.600000X0.600000X-0.600000X0*%
%TD*%
%TA.AperFunction,ComponentPad*%
%ADD15C,2.500000*%
%TD*%
%TA.AperFunction,ComponentPad*%
%ADD16O,1.000000X2.100000*%
%TD*%
%TA.AperFunction,ComponentPad*%
%ADD17O,1.000000X1.600000*%
%TD*%
%TA.AperFunction,ComponentPad*%
%ADD18C,2.800000*%
%TD*%
%TA.AperFunction,ComponentPad*%
%ADD19O,2.400000X3.800000*%
%TD*%
%TA.AperFunction,ComponentPad*%
%ADD20C,1.800000*%
%TD*%
%TA.AperFunction,ViaPad*%
%ADD21C,0.800000*%
%TD*%
%TA.AperFunction,ViaPad*%
%ADD22C,0.500000*%
%TD*%
%TA.AperFunction,ViaPad*%
%ADD23C,1.000000*%
%TD*%
%TA.AperFunction,Conductor*%
%ADD24C,0.150000*%
%TD*%
%TA.AperFunction,Conductor*%
%ADD25C,0.300000*%
%TD*%
G04 APERTURE END LIST*
D10*
%TO.N,GND*%
%TO.C,J5*%
X185100000Y-104500000D03*
D11*
%TO.N,_IDC_SERIAL_01_TX*%
X187640000Y-104500000D03*
%TO.N,Net-(D9-K)*%
X185100000Y-107040000D03*
X187640000Y-107040000D03*
%TO.N,_IDC_SERIAL_01_RX*%
X185100000Y-109580000D03*
%TO.N,GND*%
X187640000Y-109580000D03*
%TD*%
D12*
%TO.N,GND*%
%TO.C,H2*%
X191100000Y-55000000D03*
X191802944Y-53302944D03*
X191802944Y-56697056D03*
X193500000Y-52600000D03*
D13*
X193500000Y-55000000D03*
D12*
X193500000Y-57400000D03*
X195197056Y-53302944D03*
X195197056Y-56697056D03*
X195900000Y-55000000D03*
%TD*%
D14*
%TO.N,GND*%
%TO.C,J6*%
X63400000Y-109500000D03*
D11*
%TO.N,_IDC_SERIAL_00_TX*%
X60860000Y-109500000D03*
%TO.N,Net-(D10-K)*%
X63400000Y-106960000D03*
X60860000Y-106960000D03*
%TO.N,_IDC_SERIAL_00_RX*%
X63400000Y-104420000D03*
%TO.N,GND*%
X60860000Y-104420000D03*
%TD*%
D15*
%TO.N,*%
%TO.C,SW3*%
X78306688Y-54500000D03*
X91606662Y-54500000D03*
%TO.N,+5V*%
X80156573Y-63699898D03*
%TO.N,/battery/+5V_OUT*%
X84956675Y-63699898D03*
%TO.N,unconnected-(SW3-C-Pad3)*%
X89756777Y-63699898D03*
%TD*%
D16*
%TO.N,GND*%
%TO.C,J9*%
X125930000Y-147870000D03*
D17*
X125930000Y-152050000D03*
D16*
X134570000Y-147870000D03*
D17*
X134570000Y-152050000D03*
%TD*%
D12*
%TO.N,GND*%
%TO.C,H1*%
X52600000Y-55000000D03*
X53302944Y-53302944D03*
X53302944Y-56697056D03*
X55000000Y-52600000D03*
D13*
X55000000Y-55000000D03*
D12*
X55000000Y-57400000D03*
X56697056Y-53302944D03*
X56697056Y-56697056D03*
X57400000Y-55000000D03*
%TD*%
D16*
%TO.N,GND*%
%TO.C,J10*%
X113930000Y-147870000D03*
D17*
X113930000Y-152050000D03*
D16*
X122570000Y-147870000D03*
D17*
X122570000Y-152050000D03*
%TD*%
D12*
%TO.N,GND*%
%TO.C,H4*%
X191100000Y-150000000D03*
X191802944Y-148302944D03*
X191802944Y-151697056D03*
X193500000Y-147600000D03*
D13*
X193500000Y-150000000D03*
D12*
X193500000Y-152400000D03*
X195197056Y-148302944D03*
X195197056Y-151697056D03*
X195900000Y-150000000D03*
%TD*%
D11*
%TO.N,+3.3V*%
%TO.C,J13*%
X103930000Y-63290000D03*
%TO.N,+5V*%
X103930000Y-60750000D03*
%TO.N,GND*%
X106470000Y-63290000D03*
X106470000Y-60750000D03*
%TO.N,GPIO_00_PWM*%
X109010000Y-63290000D03*
%TO.N,GPIO_01_PWM*%
X109010000Y-60750000D03*
%TO.N,GPIO_02_PWM*%
X111550000Y-63290000D03*
%TO.N,GPIO_03_PWM*%
X111550000Y-60750000D03*
%TO.N,GPIO_04_ADC*%
X114090000Y-63290000D03*
%TO.N,GPIO_05_ADC*%
X114090000Y-60750000D03*
%TO.N,GPIO_06*%
X116630000Y-63290000D03*
%TO.N,GPIO_07*%
X116630000Y-60750000D03*
%TO.N,GPIO_08*%
X119170000Y-63290000D03*
%TO.N,GPIO_09*%
X119170000Y-60750000D03*
%TO.N,GPIO_10*%
X121710000Y-63290000D03*
%TO.N,GPIO_11*%
X121710000Y-60750000D03*
%TO.N,GPIO_12*%
X124250000Y-63290000D03*
%TO.N,GPIO_13*%
X124250000Y-60750000D03*
%TO.N,GPIO_14*%
X126790000Y-63290000D03*
%TO.N,GPIO_15*%
X126790000Y-60750000D03*
%TO.N,GPIO_16*%
X129330000Y-63290000D03*
%TO.N,GPIO_17*%
X129330000Y-60750000D03*
%TO.N,GPIO_18*%
X131870000Y-63290000D03*
%TO.N,GND*%
X131870000Y-60750000D03*
%TO.N,SERIAL_USR_RX*%
X134410000Y-63290000D03*
%TO.N,SPI_USR_CS*%
X134410000Y-60750000D03*
%TO.N,SERIAL_USR_TX*%
X136950000Y-63290000D03*
%TO.N,SPI_USR_MISO*%
X136950000Y-60750000D03*
%TO.N,I2C_USR_SDA*%
X139490000Y-63290000D03*
%TO.N,SPI_USR_MOSI*%
X139490000Y-60750000D03*
%TO.N,I2C_USR_SCL*%
X142030000Y-63290000D03*
%TO.N,SPI_USR_SCK*%
X142030000Y-60750000D03*
%TO.N,GND*%
X144570000Y-63290000D03*
X144570000Y-60750000D03*
%TD*%
D12*
%TO.N,GND*%
%TO.C,H3*%
X52600000Y-150000000D03*
X53302944Y-148302944D03*
X53302944Y-151697056D03*
X55000000Y-147600000D03*
D13*
X55000000Y-150000000D03*
D12*
X55000000Y-152400000D03*
X56697056Y-148302944D03*
X56697056Y-151697056D03*
X57400000Y-150000000D03*
%TD*%
D18*
%TO.N,GND*%
%TO.C,J4*%
X155850000Y-121500000D03*
X148251000Y-124000000D03*
X148250000Y-119000000D03*
%TD*%
%TO.N,/battery/(BAT_PLUS)*%
%TO.C,J3*%
X92650000Y-121500000D03*
X100249000Y-119000000D03*
X100250000Y-124000000D03*
%TD*%
D19*
%TO.N,*%
%TO.C,SW5*%
X66200000Y-72250000D03*
X54800000Y-72250000D03*
D20*
%TO.N,Net-(C43-Pad1)*%
X63000000Y-79750000D03*
%TO.N,Net-(C41-Pad1)*%
X58000000Y-79750000D03*
%TO.N,GND*%
X60500000Y-79750000D03*
X63000000Y-65250000D03*
%TO.N,Net-(R33-Pad1)*%
X58000000Y-65250000D03*
%TD*%
D19*
%TO.N,*%
%TO.C,SW4*%
X193700000Y-72250000D03*
X182300000Y-72250000D03*
D20*
%TO.N,Net-(C40-Pad1)*%
X190500000Y-79750000D03*
%TO.N,Net-(C38-Pad1)*%
X185500000Y-79750000D03*
%TO.N,GND*%
X188000000Y-79750000D03*
X190500000Y-65250000D03*
%TO.N,Net-(R27-Pad1)*%
X185500000Y-65250000D03*
%TD*%
D15*
%TO.N,Net-(R52-Pad1)*%
%TO.C,SW8*%
X64310000Y-87960000D03*
%TO.N,GND*%
X57960000Y-85420000D03*
%TD*%
%TO.N,Net-(R50-Pad1)*%
%TO.C,SW7*%
X191810000Y-87960000D03*
%TO.N,GND*%
X185460000Y-85420000D03*
%TD*%
D21*
%TO.N,GND*%
X144000000Y-81749978D03*
X170500000Y-63249994D03*
X146000000Y-60750000D03*
D22*
X129750006Y-105250000D03*
D21*
X151500000Y-77970000D03*
X168500000Y-66500000D03*
D22*
X164500000Y-133000000D03*
D21*
X91000000Y-96800000D03*
X114000000Y-88750000D03*
X110500000Y-70750000D03*
X178250000Y-139250000D03*
X95750000Y-53250000D03*
X119250000Y-139750000D03*
X82250000Y-148749996D03*
X169859500Y-125250000D03*
X98750000Y-112000000D03*
X88800000Y-96200000D03*
X165000000Y-97500000D03*
X121750000Y-115750000D03*
X73500000Y-51750000D03*
X106250000Y-132250000D03*
X119497781Y-141250000D03*
X165000000Y-123500000D03*
X115000000Y-124750000D03*
X63500000Y-124250000D03*
X170750000Y-84750000D03*
X124250000Y-141250000D03*
X147500000Y-66500000D03*
X137625000Y-106500000D03*
X67500000Y-135750000D03*
X177000000Y-119500000D03*
X70250000Y-148750000D03*
X131750000Y-122250000D03*
X177264831Y-54508694D03*
X104000000Y-89250000D03*
X137625000Y-101068775D03*
X60500000Y-76000000D03*
X73510312Y-56525000D03*
X75250000Y-93750000D03*
X122730000Y-88250000D03*
X90750000Y-72849949D03*
X124000000Y-68250000D03*
X83500000Y-69849949D03*
X121750000Y-145500000D03*
D22*
X163654674Y-131444911D03*
D21*
X136225812Y-87475812D03*
X165250000Y-87250000D03*
X169400000Y-123500000D03*
X145500000Y-99250000D03*
X116250000Y-115750000D03*
X76039554Y-104200138D03*
X134250000Y-115750000D03*
X123000000Y-141250000D03*
X110984274Y-109140500D03*
X168000000Y-139500000D03*
X126000000Y-146250000D03*
X132599992Y-133445000D03*
X110999980Y-100750034D03*
X161063407Y-130813407D03*
X166500000Y-139500000D03*
X68500000Y-80750000D03*
X108500000Y-138000000D03*
X169500000Y-139500000D03*
D22*
X168800000Y-133250020D03*
D21*
X165250000Y-69250000D03*
X178500002Y-148750000D03*
X161000000Y-131750000D03*
X103588434Y-133338438D03*
D22*
X122000000Y-106500000D03*
D21*
X172750000Y-146500000D03*
X174933058Y-57183058D03*
X134000000Y-143000000D03*
X75750000Y-54500000D03*
X127250000Y-115750000D03*
X66500000Y-57000000D03*
D22*
X119020000Y-101020000D03*
D21*
X95000000Y-69099949D03*
X110250000Y-96250000D03*
X154250000Y-52750000D03*
X114333295Y-146510209D03*
X63500000Y-114250000D03*
D22*
X130250000Y-145500000D03*
D21*
X178499996Y-125400000D03*
X127888779Y-89512816D03*
X91338329Y-83553567D03*
X108124999Y-107100001D03*
X83000000Y-98000000D03*
X133500000Y-145500000D03*
X109250000Y-110500000D03*
X157750000Y-140000000D03*
X172000008Y-130000000D03*
X171500000Y-120000000D03*
X101750000Y-76750000D03*
X97000000Y-93500000D03*
X135250000Y-64500000D03*
X111620602Y-103256972D03*
X181000000Y-55500000D03*
X95750000Y-120250000D03*
X141000000Y-81750000D03*
X124750000Y-133750000D03*
X122052188Y-109418303D03*
X122250000Y-83000000D03*
X96500000Y-104000000D03*
D22*
X167199500Y-133899647D03*
D21*
X158250000Y-66500000D03*
X127429984Y-141128976D03*
X137625000Y-93990808D03*
X172000000Y-130975000D03*
X83550000Y-80450000D03*
X106250000Y-148750000D03*
X163000000Y-138000000D03*
X85500000Y-69349949D03*
X88250000Y-89250000D03*
X129000000Y-124250000D03*
X76039554Y-114200138D03*
X71724994Y-54500000D03*
X63500000Y-134250000D03*
X143250000Y-144500000D03*
X93250000Y-93000000D03*
X154500000Y-148750000D03*
X166500000Y-148750004D03*
X145750000Y-108750000D03*
X137250000Y-137250000D03*
X95500000Y-75000000D03*
X161999996Y-86000000D03*
X172000000Y-132250000D03*
X97750000Y-87500000D03*
X79500000Y-74099949D03*
X172824171Y-54350762D03*
X76500000Y-79500000D03*
X175000000Y-51750000D03*
X177000000Y-117250000D03*
X160564338Y-114895358D03*
X185000000Y-135000000D03*
D22*
X123765216Y-101479131D03*
D21*
X160500000Y-102000000D03*
X174000000Y-133250000D03*
X110750000Y-136590000D03*
X173500000Y-85000000D03*
X91500000Y-135250000D03*
X74000000Y-65099949D03*
X109750000Y-66000000D03*
X61500000Y-59750000D03*
D22*
X169400000Y-130450003D03*
D21*
X187970622Y-76000000D03*
X146000000Y-63250000D03*
X176250000Y-56250000D03*
X76039554Y-124200138D03*
X72250000Y-137250000D03*
X78250000Y-87250000D03*
X174750000Y-138750000D03*
D22*
X127000000Y-102500000D03*
D21*
X142500004Y-148750000D03*
X137250000Y-68000000D03*
X83250000Y-87250000D03*
X117500000Y-65250000D03*
X160564338Y-94895358D03*
X69850000Y-53340000D03*
X185000000Y-115000000D03*
X103000000Y-114250000D03*
X157750000Y-57000000D03*
X110000000Y-91250000D03*
X164000000Y-138000000D03*
X132250000Y-116750000D03*
X185000000Y-125000000D03*
X123500000Y-95750000D03*
X138250000Y-115500000D03*
X126698738Y-142500000D03*
X74000000Y-68099949D03*
X157000000Y-79000000D03*
X110000000Y-108000000D03*
X161000000Y-132750000D03*
D22*
%TO.N,NRST*%
X108250000Y-111750000D03*
X121805325Y-101790691D03*
X121750000Y-105000012D03*
X114749994Y-105750000D03*
%TO.N,/audio_codec/MIC_BIAS*%
X172000000Y-128328248D03*
X167749996Y-122500002D03*
%TO.N,/audio_codec/LINE_OUT_RIGHT*%
X175985000Y-135400000D03*
X178000000Y-136200000D03*
D21*
%TO.N,+3.3VA*%
X112000002Y-110250002D03*
X107750000Y-110500000D03*
X81750000Y-90500000D03*
X86250000Y-101000000D03*
%TO.N,+3.3V*%
X91500000Y-137750000D03*
X62500000Y-87000000D03*
X161500000Y-64500000D03*
X177250000Y-53250000D03*
X86250000Y-138000000D03*
X182000000Y-113000000D03*
X59500000Y-68500000D03*
X163500000Y-64500000D03*
D22*
X129730000Y-105980000D03*
D21*
X107125000Y-134750000D03*
X164500000Y-64500000D03*
X160500000Y-64500000D03*
X111433058Y-94816942D03*
D22*
X119020000Y-101980000D03*
D21*
X117199503Y-115750000D03*
D22*
X123000000Y-106500000D03*
D21*
X77500000Y-90000000D03*
X162500000Y-64500000D03*
X165500000Y-64500000D03*
X126881876Y-89215070D03*
X73250000Y-136500000D03*
D22*
X121055325Y-102540691D03*
D21*
X190000000Y-87500000D03*
X189299643Y-76000000D03*
D22*
X169399996Y-131800000D03*
D21*
X121759272Y-88278597D03*
X115000000Y-88750000D03*
X111001039Y-108191145D03*
X157000000Y-81500000D03*
X167500000Y-64500000D03*
X137625000Y-93041417D03*
X59000000Y-76000000D03*
D22*
X163609216Y-130703702D03*
D21*
X121710014Y-141289984D03*
X75750000Y-53500000D03*
X136500000Y-133500000D03*
X66500000Y-101000000D03*
X137625000Y-105500000D03*
X116000000Y-88250000D03*
X122750000Y-115750000D03*
X111020214Y-101719751D03*
X128250000Y-115750000D03*
X68500000Y-57000000D03*
X124254442Y-117870558D03*
X85250000Y-135000000D03*
X62000000Y-76000000D03*
X140500052Y-67250000D03*
X187000000Y-68500000D03*
X114250000Y-134500000D03*
X111748981Y-97600541D03*
X133250000Y-115750000D03*
D22*
X130000000Y-100250000D03*
D21*
X108500000Y-133000000D03*
X166500000Y-64500000D03*
X123192042Y-110375000D03*
X186468777Y-76000012D03*
X137625000Y-100068783D03*
X163054992Y-69195008D03*
D22*
%TO.N,_DISPLAY_ON_OFF*%
X139750000Y-83000000D03*
X119000000Y-111500000D03*
%TO.N,_CARD_SDMMC_CK*%
X164155000Y-69250000D03*
X164155000Y-71000000D03*
%TO.N,Net-(D1-K)*%
X180750000Y-53500000D03*
%TO.N,_CARD_SDMMC_CHIP_DETECT*%
X168500000Y-64750000D03*
%TO.N,_ENCODER_00_BUTTON*%
X133750000Y-96750000D03*
X178000000Y-76750000D03*
%TO.N,_ENCODER_01_BUTTON*%
X109500000Y-118000000D03*
X132250000Y-112000000D03*
X131250000Y-118000000D03*
X94500000Y-109250000D03*
%TO.N,_BUTTON_PROGRAMMER*%
X135500000Y-131500000D03*
X121997911Y-111507478D03*
%TO.N,/audio_codec/(MIC_IN_LEFT)*%
X161000000Y-129000000D03*
X164250000Y-126250006D03*
%TO.N,_MECH_BUTTON_00*%
X147750000Y-106999994D03*
X188000000Y-87250000D03*
X138250000Y-104750000D03*
X139750000Y-106250000D03*
%TO.N,_LED_01*%
X130750000Y-118500000D03*
X69414588Y-68920823D03*
X109500000Y-118750000D03*
X131750000Y-110250000D03*
X92500000Y-108250000D03*
%TO.N,_CARD_SDMMC_D0*%
X166500000Y-69000000D03*
%TO.N,_CARD_SDMMC_D1*%
X164997017Y-70008949D03*
X167500000Y-69000000D03*
%TO.N,_CARD_SDMMC_D2*%
X159750000Y-69000000D03*
%TO.N,_CARD_SDMMC_D3*%
X161000000Y-69000000D03*
X158750000Y-69000000D03*
%TO.N,_CARD_SDMMC_CMD*%
X160000004Y-71000000D03*
X162000000Y-69000000D03*
%TO.N,_LED_00*%
X136500000Y-110250000D03*
%TO.N,Net-(D2-K)*%
X68580000Y-54610000D03*
%TO.N,/audio_codec/(MIC_IN_RIGHT)*%
X160999983Y-129750000D03*
X169750002Y-126750000D03*
D23*
%TO.N,/battery/(BAT_PLUS)*%
X95000010Y-67099949D03*
D22*
X98500005Y-89875000D03*
X98750000Y-109500000D03*
X98750000Y-107500000D03*
X100250000Y-111750010D03*
D23*
%TO.N,+5V*%
X113999984Y-143750000D03*
X162625000Y-76625000D03*
X164750000Y-82250000D03*
D21*
%TO.N,/USB/VBUS_HOST_OUT*%
X86000000Y-93200000D03*
X112852064Y-144887360D03*
D22*
%TO.N,/USB/USB_CONNECTOR_MINUS*%
X129250000Y-148250000D03*
X131500012Y-141750000D03*
X117525500Y-148000000D03*
X123845701Y-149490510D03*
%TO.N,_SWD_IO*%
X130000000Y-109750000D03*
X131500000Y-97000000D03*
X129750000Y-119500000D03*
%TO.N,_SWD_CLK*%
X131500000Y-96249998D03*
X130374997Y-120125003D03*
X130741116Y-109491116D03*
%TO.N,_SWD_OUT*%
X123750000Y-130749978D03*
X118250000Y-110500000D03*
X120713417Y-93750000D03*
%TO.N,/USB/USB_CONNECTOR_PLUS*%
X124508824Y-149500000D03*
X118000000Y-148500000D03*
X129902713Y-148250944D03*
X132500000Y-141250000D03*
%TO.N,_AUDIO_CODEC_I2C_SCL*%
X159749987Y-125250013D03*
X124000000Y-112000000D03*
X139250000Y-82250000D03*
%TO.N,_AUDIO_CODEC_I2C_SDA*%
X138750000Y-83000000D03*
X124500000Y-111500000D03*
X158500000Y-125250000D03*
%TO.N,_IDC_SERIAL_00_TX*%
X110000000Y-93500000D03*
X93750003Y-98999994D03*
X111500008Y-92500000D03*
%TO.N,_IDC_SERIAL_00_RX*%
X110500000Y-94000000D03*
X111975000Y-93000000D03*
X93500000Y-100000000D03*
%TO.N,_IDC_SERIAL_01_TX*%
X125500000Y-114500000D03*
%TO.N,_IDC_SERIAL_01_RX*%
X125000000Y-115000000D03*
%TO.N,Net-(J9-CC1)*%
X127250000Y-145000000D03*
X128991051Y-145752983D03*
D21*
%TO.N,_USB_DEVICE_HOST_VBUS*%
X124749970Y-142500030D03*
X131250000Y-139750000D03*
X140500000Y-112750000D03*
X137750000Y-97250000D03*
X77525000Y-61924768D03*
X140500000Y-109500000D03*
D22*
%TO.N,BOOT0*%
X104250000Y-111250000D03*
X105000000Y-98000000D03*
X107000000Y-112750000D03*
X118500000Y-93500000D03*
%TO.N,_EXT_MEMORY_CHIP_SELECT*%
X133449500Y-102250000D03*
%TO.N,_EXT_MEMORY_CLK*%
X115000000Y-104250000D03*
%TO.N,_EXT_MEMORY_DQS*%
X119500000Y-112000000D03*
%TO.N,_EXT_MEMORY_A2*%
X133750002Y-110750000D03*
%TO.N,_EXT_MEMORY_A1*%
X132500000Y-107250000D03*
%TO.N,_EXT_MEMORY_A0*%
X133250000Y-111250000D03*
%TO.N,_EXT_MEMORY_A3*%
X115000000Y-102250000D03*
%TO.N,_EXT_MEMORY_A4*%
X126000000Y-112000000D03*
%TO.N,_EXT_MEMORY_A7*%
X128000000Y-111500000D03*
%TO.N,_EXT_MEMORY_A6*%
X127000000Y-112000000D03*
%TO.N,_EXT_MEMORY_A5*%
X126500000Y-111500000D03*
%TO.N,_ENCODER_00_A*%
X178000000Y-78250000D03*
X133750000Y-97750000D03*
%TO.N,_ENCODER_00_B*%
X190500006Y-76000000D03*
X136500000Y-117500000D03*
%TO.N,_ENCODER_01_A*%
X114750000Y-110250000D03*
X103250000Y-110250000D03*
%TO.N,_ENCODER_01_B*%
X115250000Y-110750000D03*
X102669067Y-110790467D03*
%TO.N,_MIDI_ANALOG_IN*%
X130500000Y-94000008D03*
X105750000Y-98749998D03*
%TO.N,_AUDIO_MIC_CLK*%
X115250000Y-107250000D03*
X70575000Y-67593413D03*
X100605244Y-89355244D03*
X106750000Y-55000000D03*
%TO.N,_AUDIO_CODEC_SAI_SD_OUT*%
X114675000Y-94239508D03*
X160662868Y-126241822D03*
%TO.N,GPIO_11*%
X120500000Y-79750000D03*
%TO.N,GPIO_10*%
X114950000Y-96689644D03*
X110250000Y-77250000D03*
%TO.N,GPIO_09*%
X109750000Y-78750000D03*
X114500000Y-97250000D03*
%TO.N,GPIO_08*%
X115000000Y-97750000D03*
X114250000Y-65500000D03*
X108750000Y-78750000D03*
%TO.N,GPIO_03_PWM*%
X108750000Y-95500000D03*
%TO.N,GPIO_02_PWM*%
X108250000Y-94750000D03*
X107250000Y-77250000D03*
%TO.N,GPIO_01_PWM*%
X107750000Y-95500000D03*
%TO.N,GPIO_00_PWM*%
X107250000Y-94750000D03*
%TO.N,GPIO_07*%
X106250000Y-77250000D03*
X106750000Y-95500000D03*
%TO.N,_ADC_USR*%
X105000008Y-100750000D03*
X114750030Y-100750000D03*
%TO.N,_AUDIO_CODEC_SAI_MCLK*%
X112250000Y-102750000D03*
X166600000Y-128200000D03*
%TO.N,_AUDIO_CODEC_SAI_SCK*%
X114725000Y-103250000D03*
X162249990Y-125250000D03*
%TO.N,_AUDIO_CODEC_SAI_FS*%
X162008876Y-126258884D03*
X112249988Y-103750000D03*
%TO.N,SPI_USR_MISO*%
X128250000Y-65249992D03*
X121500000Y-94750000D03*
X114250000Y-77250000D03*
%TO.N,SPI_USR_MOSI*%
X122170827Y-95085404D03*
X114750000Y-78750000D03*
%TO.N,SERIAL_USR_RX*%
X118525500Y-89894977D03*
X115500000Y-112000000D03*
%TO.N,_DAC_USR*%
X105000000Y-114250000D03*
X111750000Y-113250000D03*
%TO.N,Net-(J9-CC2)*%
X131944473Y-145944473D03*
X126250000Y-145000000D03*
%TO.N,_AUDIO_CODEC_SAI_SD_IN*%
X161000000Y-125250000D03*
X120989860Y-111510140D03*
%TO.N,GPIO_05_ADC*%
X115125000Y-96000000D03*
%TO.N,GPIO_04_ADC*%
X117500000Y-98000000D03*
%TO.N,GPIO_17*%
X111724500Y-78750000D03*
X117750000Y-96500000D03*
%TO.N,_MECH_BUTTON_01*%
X133750000Y-104750000D03*
X99250000Y-116250000D03*
X109500008Y-119500000D03*
X136000000Y-118000000D03*
%TO.N,GPIO_16*%
X112724500Y-78750000D03*
X120250000Y-97500000D03*
%TO.N,GPIO_15*%
X113250000Y-77250000D03*
X120750000Y-97000000D03*
X117980159Y-68980159D03*
X121263213Y-65250000D03*
%TO.N,GPIO_14*%
X125250000Y-93500000D03*
X115250000Y-72500000D03*
%TO.N,GPIO_13*%
X126156587Y-93575000D03*
X115749994Y-67750006D03*
%TO.N,_MIDI_ANALOG_OUT*%
X106250000Y-98250002D03*
X130000000Y-92999954D03*
%TO.N,SPI_USR_SCK*%
X128250000Y-94000000D03*
%TO.N,GPIO_12*%
X122000000Y-65250000D03*
X128331163Y-93105663D03*
%TO.N,SERIAL_USR_TX*%
X128158876Y-88500000D03*
%TO.N,SPI_USR_CS*%
X120346850Y-94749994D03*
X113750000Y-78750000D03*
%TO.N,_AUDIO_MIC_DATA*%
X70749998Y-56000000D03*
X70075000Y-68250000D03*
X100511831Y-90261831D03*
X70999994Y-53249982D03*
X114750000Y-107750000D03*
X107500000Y-54425000D03*
%TO.N,_DISPLAY_BACKLIGHT_PWM*%
X133750000Y-98750000D03*
%TO.N,/display/DISPLAY_CATHODE_MINUS_OUT*%
X102749998Y-76500000D03*
X154500000Y-76000000D03*
%TO.N,/display/DISPLAY_ANODE_PLUS_22V_OUT*%
X157500000Y-78000000D03*
X102250000Y-75500000D03*
%TO.N,_DISPLAY_LTDC_R0*%
X123475000Y-93500000D03*
X133414124Y-81914124D03*
%TO.N,_DISPLAY_LTDC_R1*%
X155750000Y-79000004D03*
X114750000Y-111250012D03*
%TO.N,_DISPLAY_LTDC_R2*%
X132050000Y-90500018D03*
X137250000Y-84500000D03*
%TO.N,_DISPLAY_LTDC_R3*%
X132500000Y-93000004D03*
X138750000Y-84775000D03*
%TO.N,_DISPLAY_LTDC_R4*%
X135250000Y-77500000D03*
X117500000Y-112000000D03*
X154250000Y-78500018D03*
X135741228Y-79000000D03*
%TO.N,_DISPLAY_LTDC_R5*%
X115672129Y-105864752D03*
X153750000Y-79000000D03*
%TO.N,_DISPLAY_LTDC_R6*%
X136349258Y-84118078D03*
X131000000Y-93000000D03*
%TO.N,_DISPLAY_LTDC_R7*%
X131000000Y-112000000D03*
X152725000Y-83000000D03*
%TO.N,_DISPLAY_LTDC_G0*%
X136750000Y-83499500D03*
X120500000Y-112000000D03*
%TO.N,_DISPLAY_LTDC_G1*%
X137502171Y-82975000D03*
X120000000Y-111500000D03*
%TO.N,_DISPLAY_LTDC_G2*%
X118000011Y-111500011D03*
X136500006Y-79000000D03*
X136250000Y-78000000D03*
X151250000Y-79000000D03*
%TO.N,_DISPLAY_LTDC_G3*%
X150750000Y-83000000D03*
X136500000Y-98250000D03*
%TO.N,_DISPLAY_LTDC_G4*%
X150250000Y-82000000D03*
X131427707Y-111479191D03*
%TO.N,_DISPLAY_LTDC_G5*%
X114750000Y-106749988D03*
X149750000Y-79000006D03*
%TO.N,_DISPLAY_LTDC_G6*%
X149250000Y-82000000D03*
X135975716Y-99251335D03*
%TO.N,_DISPLAY_LTDC_G7*%
X148739860Y-82989860D03*
X136049500Y-101750000D03*
%TO.N,_DISPLAY_LTDC_B0*%
X123000000Y-93000000D03*
X136511001Y-81301751D03*
%TO.N,_DISPLAY_LTDC_B1*%
X137752392Y-82252392D03*
X130500000Y-90500000D03*
%TO.N,_DISPLAY_LTDC_B2*%
X138250000Y-81750000D03*
X129510536Y-90509744D03*
%TO.N,_DISPLAY_LTDC_B3*%
X146750000Y-83000000D03*
X133750026Y-108250000D03*
%TO.N,_DISPLAY_LTDC_B4*%
X129500000Y-112000000D03*
X146250000Y-82000000D03*
%TO.N,_DISPLAY_LTDC_B5*%
X120000000Y-90574500D03*
X145750000Y-78500000D03*
%TO.N,_DISPLAY_LTDC_B6*%
X118000000Y-92999994D03*
X145274538Y-79000000D03*
%TO.N,_DISPLAY_LTDC_B7*%
X144750000Y-82997911D03*
X117500000Y-93500000D03*
%TO.N,_DISPLAY_LTDC_CLK*%
X133784075Y-101693302D03*
X143750000Y-83023807D03*
%TO.N,_DISPLAY_LTDC_HSYNC*%
X142739860Y-82989860D03*
X133775000Y-99769786D03*
%TO.N,_DISPLAY_LTDC_VSYNC*%
X142236056Y-82000000D03*
X118500000Y-112000000D03*
%TO.N,_DISPLAY_LTDC_DE*%
X141750000Y-83000000D03*
X130000000Y-111500000D03*
%TO.N,_DISPLAY_TOUCH_INTERRUPT*%
X140241051Y-82002983D03*
X133491129Y-106741129D03*
D21*
%TO.N,+1.8V*%
X161000000Y-134000000D03*
X163750000Y-124750000D03*
X176000000Y-101500000D03*
D22*
%TO.N,/battery/LX*%
X88000000Y-70099949D03*
D23*
%TO.N,/battery/+5V_OUT*%
X82000000Y-74849949D03*
X77750000Y-72849949D03*
X77222415Y-66522364D03*
D22*
%TO.N,Net-(J10-CC2)*%
X117500000Y-145500000D03*
X120500000Y-145750000D03*
%TO.N,GPIO_06*%
X119644917Y-98144917D03*
%TO.N,/programmer/SWD_IO*%
X121500000Y-134000000D03*
%TO.N,/programmer/SWD_CLK*%
X122500000Y-134000000D03*
%TO.N,/programmer/SWD_OUT*%
X123507371Y-133982800D03*
%TO.N,/programmer/SERIAL_RX*%
X127500000Y-134000000D03*
%TO.N,/programmer/SERIAL_TX*%
X128250000Y-134000000D03*
%TO.N,/audio_codec/(LINE_IN_RIGHT)*%
X178250000Y-130750000D03*
X178200000Y-128800000D03*
%TO.N,/battery/(LED_CHRG)*%
X80250000Y-66599949D03*
X80250000Y-68849949D03*
X78250000Y-60750000D03*
%TO.N,/battery/(LED_STDBY)*%
X82250000Y-65000000D03*
%TO.N,/programmer/RST*%
X126500000Y-134000000D03*
%TO.N,GPIO_18*%
X127500000Y-88500000D03*
D21*
%TO.N,+1.8VA*%
X173500000Y-121000000D03*
X169750000Y-129250000D03*
%TD*%
D24*
%TO.N,_DISPLAY_ON_OFF*%
X119980325Y-101019675D02*
X127756163Y-93243837D01*
X127756163Y-92867490D02*
X129035536Y-91588117D01*
X137633768Y-81275000D02*
X139525000Y-81275000D01*
X134848484Y-82125000D02*
X136783768Y-82125000D01*
X139525000Y-81275000D02*
X139750000Y-81500000D01*
X119750000Y-103216296D02*
X119980325Y-102985971D01*
X129800000Y-88037132D02*
X129800000Y-87173484D01*
X139750000Y-81500000D02*
X139750000Y-83000000D01*
X127756163Y-93243837D02*
X127756163Y-92867490D01*
X129035536Y-91588117D02*
X129035536Y-88801596D01*
X119000000Y-111500000D02*
X119000000Y-111250000D01*
X119750000Y-110500000D02*
X119750000Y-103216296D01*
X129035536Y-88801596D02*
X129800000Y-88037132D01*
X136783768Y-82125000D02*
X137633768Y-81275000D01*
X119980325Y-102985971D02*
X119980325Y-101019675D01*
X129800000Y-87173484D02*
X134848484Y-82125000D01*
X119000000Y-111250000D02*
X119750000Y-110500000D01*
%TO.N,/USB/USB_CONNECTOR_MINUS*%
X124000000Y-149336211D02*
X124000000Y-145575736D01*
X123845701Y-149490510D02*
X124000000Y-149336211D01*
X124000000Y-145575736D02*
X125625736Y-143950000D01*
X125625736Y-143950000D02*
X129300012Y-143950000D01*
X129300012Y-143950000D02*
X131500012Y-141750000D01*
%TO.N,_SWD_IO*%
X131500000Y-97000000D02*
X131500000Y-99921752D01*
X130250000Y-101171752D02*
X130250000Y-109500000D01*
X130250000Y-109500000D02*
X130000000Y-109750000D01*
X131500000Y-99921752D02*
X130250000Y-101171752D01*
%TO.N,_SWD_CLK*%
X132000000Y-96749998D02*
X132000000Y-108232232D01*
X131500000Y-96249998D02*
X132000000Y-96749998D01*
X132000000Y-108232232D02*
X130741116Y-109491116D01*
%TO.N,_SWD_OUT*%
X118250000Y-95586483D02*
X120086483Y-93750000D01*
X120086483Y-93750000D02*
X120713417Y-93750000D01*
X118250000Y-110500000D02*
X118250000Y-95586483D01*
%TO.N,/USB/USB_CONNECTOR_PLUS*%
X132500000Y-141417200D02*
X132500000Y-141250000D01*
X124508824Y-149500000D02*
X124295000Y-149286176D01*
X124295000Y-149286176D02*
X124295000Y-145705000D01*
X124295000Y-145705000D02*
X125755000Y-144245000D01*
X129672200Y-144245000D02*
X132500000Y-141417200D01*
X125755000Y-144245000D02*
X129672200Y-144245000D01*
%TO.N,_AUDIO_CODEC_I2C_SCL*%
X126000000Y-114000000D02*
X126000000Y-124500000D01*
X136000000Y-86000000D02*
X136500000Y-86000000D01*
X132700000Y-89300000D02*
X136000000Y-86000000D01*
X124000000Y-112000000D02*
X124000000Y-102500000D01*
X136500000Y-86000000D02*
X138250000Y-84250000D01*
X159249987Y-125250013D02*
X159749987Y-125250013D01*
X126000000Y-124500000D02*
X127750000Y-126250000D01*
X124000000Y-102500000D02*
X132025000Y-94475000D01*
X132025000Y-94475000D02*
X132025000Y-91468490D01*
X132025000Y-91468490D02*
X132700000Y-90793490D01*
X138750000Y-82250000D02*
X139250000Y-82250000D01*
X124000000Y-112000000D02*
X126000000Y-114000000D01*
X158250000Y-126250000D02*
X159249987Y-125250013D01*
X127750000Y-126250000D02*
X158250000Y-126250000D01*
X138250000Y-84250000D02*
X138250000Y-82750000D01*
X132700000Y-90793490D02*
X132700000Y-89300000D01*
X138250000Y-82750000D02*
X138750000Y-82250000D01*
%TO.N,_AUDIO_CODEC_I2C_SDA*%
X139500000Y-85085508D02*
X139500000Y-83750000D01*
X139500000Y-83750000D02*
X138750000Y-83000000D01*
X133000000Y-91585508D02*
X139500000Y-85085508D01*
X158250000Y-125250000D02*
X158500000Y-125250000D01*
X126500000Y-124000000D02*
X128125000Y-125625000D01*
X126500000Y-113500000D02*
X126500000Y-124000000D01*
X157875000Y-125625000D02*
X158250000Y-125250000D01*
X128125000Y-125625000D02*
X157875000Y-125625000D01*
X124500000Y-102578248D02*
X133000000Y-94078248D01*
X133000000Y-94078248D02*
X133000000Y-91585508D01*
X124500000Y-111500000D02*
X126500000Y-113500000D01*
X124500000Y-111500000D02*
X124500000Y-102578248D01*
%TO.N,_AUDIO_CODEC_SAI_SD_OUT*%
X127037868Y-128500000D02*
X113400000Y-114862132D01*
X160662868Y-126289477D02*
X158452345Y-128500000D01*
X113400000Y-114862132D02*
X113400000Y-95514508D01*
X160662868Y-126241822D02*
X160662868Y-126289477D01*
X158452345Y-128500000D02*
X127037868Y-128500000D01*
X113400000Y-95514508D02*
X114675000Y-94239508D01*
%TO.N,_AUDIO_CODEC_SAI_MCLK*%
X113000000Y-103500000D02*
X113000000Y-115524632D01*
X158337132Y-129250000D02*
X161812132Y-125775000D01*
X126725368Y-129250000D02*
X158337132Y-129250000D01*
X166600000Y-127850000D02*
X166600000Y-128200000D01*
X113000000Y-115524632D02*
X126725368Y-129250000D01*
X112250000Y-102750000D02*
X113000000Y-103500000D01*
X164525000Y-125775000D02*
X166600000Y-127850000D01*
X161812132Y-125775000D02*
X164525000Y-125775000D01*
%TO.N,_AUDIO_CODEC_SAI_SCK*%
X162249990Y-125250000D02*
X161710876Y-125250000D01*
X127250000Y-127750000D02*
X113750000Y-114250000D01*
X113750000Y-103500000D02*
X114000000Y-103250000D01*
X158346016Y-127750000D02*
X127250000Y-127750000D01*
X161710876Y-125250000D02*
X161235876Y-125725000D01*
X161235876Y-125725000D02*
X160371016Y-125725000D01*
X114000000Y-103250000D02*
X114725000Y-103250000D01*
X113750000Y-114250000D02*
X113750000Y-103500000D01*
X160371016Y-125725000D02*
X158346016Y-127750000D01*
%TO.N,_AUDIO_CODEC_SAI_FS*%
X126306802Y-130000000D02*
X158267760Y-130000000D01*
X112249988Y-103750000D02*
X112700000Y-104200012D01*
X158267760Y-130000000D02*
X162008876Y-126258884D01*
X112700000Y-116393198D02*
X126306802Y-130000000D01*
X112700000Y-104200012D02*
X112700000Y-116393198D01*
%TO.N,SERIAL_USR_RX*%
X116542129Y-106225118D02*
X116542129Y-105504385D01*
X116300000Y-92120477D02*
X118525500Y-89894977D01*
X116300000Y-111200000D02*
X116300000Y-106467248D01*
X115500000Y-112000000D02*
X116300000Y-111200000D01*
X116300000Y-106467248D02*
X116542129Y-106225118D01*
X116542129Y-105504385D02*
X116300000Y-105262256D01*
X116300000Y-105262256D02*
X116300000Y-92120477D01*
%TO.N,_AUDIO_CODEC_SAI_SD_IN*%
X159610863Y-125725013D02*
X158335876Y-127000000D01*
X159946739Y-125725013D02*
X159610863Y-125725013D01*
X120989860Y-120489860D02*
X120989860Y-111510140D01*
X158335876Y-127000000D02*
X127500000Y-127000000D01*
X161000000Y-125250000D02*
X160421752Y-125250000D01*
X160421752Y-125250000D02*
X159946739Y-125725013D01*
X127500000Y-127000000D02*
X120989860Y-120489860D01*
D25*
%TO.N,/display/DISPLAY_CATHODE_MINUS_OUT*%
X102749998Y-76500000D02*
X103249998Y-76000000D01*
X103249998Y-76000000D02*
X154500000Y-76000000D01*
%TO.N,/display/DISPLAY_ANODE_PLUS_22V_OUT*%
X102250000Y-75500000D02*
X102500000Y-75250000D01*
X154750000Y-75250000D02*
X157500000Y-78000000D01*
X102500000Y-75250000D02*
X154750000Y-75250000D01*
D24*
%TO.N,_DISPLAY_LTDC_R0*%
X123475000Y-91596641D02*
X133157517Y-81914124D01*
X123475000Y-93500000D02*
X123475000Y-91596641D01*
X133157517Y-81914124D02*
X133414124Y-81914124D01*
%TO.N,_DISPLAY_LTDC_R1*%
X114234500Y-110734512D02*
X114234500Y-104187252D01*
X153249996Y-76500000D02*
X155750000Y-79000004D01*
X114946752Y-103725000D02*
X115200000Y-103471752D01*
X114696752Y-103725000D02*
X114946752Y-103725000D01*
X114750000Y-111250012D02*
X114234500Y-110734512D01*
X114025000Y-102103248D02*
X114025000Y-95692463D01*
X114234500Y-104187252D02*
X114696752Y-103725000D01*
X130171752Y-76500000D02*
X153249996Y-76500000D01*
X115400000Y-94317463D02*
X115400000Y-91271752D01*
X114946752Y-102775000D02*
X114696752Y-102775000D01*
X115400000Y-91271752D02*
X130171752Y-76500000D01*
X114696752Y-102775000D02*
X114025000Y-102103248D01*
X115200000Y-103471752D02*
X115200000Y-103028248D01*
X114025000Y-95692463D02*
X115400000Y-94317463D01*
X115200000Y-103028248D02*
X114946752Y-102775000D01*
%TO.N,_DISPLAY_LTDC_R2*%
X137250000Y-84500000D02*
X136750000Y-84500000D01*
X132000000Y-90450018D02*
X132050000Y-90500018D01*
X132000000Y-89250000D02*
X132000000Y-90450018D01*
X136750000Y-84500000D02*
X132000000Y-89250000D01*
%TO.N,_DISPLAY_LTDC_R3*%
X136287500Y-86525000D02*
X137000000Y-86525000D01*
X132500000Y-93000004D02*
X132500000Y-91661244D01*
X133250000Y-90911244D02*
X133250000Y-89562500D01*
X137000000Y-86525000D02*
X138750000Y-84775000D01*
X132500000Y-91661244D02*
X133250000Y-90911244D01*
X133250000Y-89562500D02*
X136287500Y-86525000D01*
%TO.N,_DISPLAY_LTDC_R4*%
X116700000Y-106484440D02*
X116837129Y-106347310D01*
X120000000Y-89153984D02*
X120000000Y-88325736D01*
X152749982Y-77000000D02*
X135750000Y-77000000D01*
X135750000Y-77000000D02*
X135250000Y-77500000D01*
X154250000Y-78500018D02*
X152749982Y-77000000D01*
X129325736Y-79000000D02*
X135741228Y-79000000D01*
X116837129Y-105382191D02*
X116700000Y-105245063D01*
X116700000Y-105245063D02*
X116700000Y-92453984D01*
X116700000Y-111200000D02*
X116700000Y-106484440D01*
X116700000Y-92453984D02*
X120000000Y-89153984D01*
X117500000Y-112000000D02*
X116700000Y-111200000D01*
X120000000Y-88325736D02*
X129325736Y-79000000D01*
X116837129Y-106347310D02*
X116837129Y-105382191D01*
%TO.N,_DISPLAY_LTDC_R5*%
X115700000Y-105836881D02*
X115672129Y-105864752D01*
X136150000Y-77350000D02*
X135500000Y-78000000D01*
X153750000Y-79000000D02*
X152100000Y-77350000D01*
X115700000Y-91550000D02*
X115700000Y-105836881D01*
X129250000Y-78000000D02*
X115700000Y-91550000D01*
X135500000Y-78000000D02*
X129250000Y-78000000D01*
X152100000Y-77350000D02*
X136150000Y-77350000D01*
%TO.N,_DISPLAY_LTDC_R6*%
X131000000Y-92000000D02*
X131575000Y-91425000D01*
X136349258Y-84150742D02*
X136349258Y-84118078D01*
X131575000Y-88925000D02*
X136349258Y-84150742D01*
X131000000Y-93000000D02*
X131000000Y-92000000D01*
X131575000Y-91425000D02*
X131575000Y-88925000D01*
%TO.N,_DISPLAY_LTDC_R7*%
X137000000Y-92719848D02*
X137000000Y-106578248D01*
X137000000Y-106578248D02*
X131578248Y-112000000D01*
X131578248Y-112000000D02*
X131000000Y-112000000D01*
X152725000Y-83025000D02*
X143500000Y-92250000D01*
X143500000Y-92250000D02*
X137469848Y-92250000D01*
X137469848Y-92250000D02*
X137000000Y-92719848D01*
X152725000Y-83000000D02*
X152725000Y-83025000D01*
%TO.N,_DISPLAY_LTDC_G0*%
X120500000Y-112000000D02*
X120500000Y-111250000D01*
X120580325Y-102343939D02*
X121608573Y-101315691D01*
X122184309Y-101315691D02*
X129500000Y-94000000D01*
X136296084Y-83499500D02*
X136750000Y-83499500D01*
X129500000Y-94000000D02*
X129500000Y-92787240D01*
X120750000Y-111000000D02*
X120750000Y-102907118D01*
X120750000Y-102907118D02*
X120580325Y-102737443D01*
X135874258Y-83921326D02*
X136296084Y-83499500D01*
X120580325Y-102737443D02*
X120580325Y-102343939D01*
X121608573Y-101315691D02*
X122184309Y-101315691D01*
X131275000Y-91012240D02*
X131275000Y-88637868D01*
X120500000Y-111250000D02*
X120750000Y-111000000D01*
X131275000Y-88637868D02*
X135874258Y-84038610D01*
X135874258Y-84038610D02*
X135874258Y-83921326D01*
X129500000Y-92787240D02*
X131275000Y-91012240D01*
%TO.N,_DISPLAY_LTDC_G1*%
X122047482Y-101015691D02*
X121484309Y-101015691D01*
X136225000Y-83025000D02*
X130975000Y-88275000D01*
X128950000Y-92856488D02*
X128950000Y-94113173D01*
X120000000Y-111000000D02*
X120000000Y-111500000D01*
X121484309Y-101015691D02*
X120280325Y-102219675D01*
X130975000Y-90831488D02*
X128950000Y-92856488D01*
X120280325Y-110719675D02*
X120000000Y-111000000D01*
X128950000Y-94113173D02*
X122047482Y-101015691D01*
X137502171Y-82975000D02*
X137452171Y-83025000D01*
X120280325Y-102219675D02*
X120280325Y-110719675D01*
X130975000Y-88275000D02*
X130975000Y-90831488D01*
X137452171Y-83025000D02*
X136225000Y-83025000D01*
%TO.N,_DISPLAY_LTDC_G2*%
X129500000Y-79500000D02*
X136000006Y-79500000D01*
X118000011Y-111500011D02*
X117132129Y-110632129D01*
X120650000Y-90100000D02*
X120750000Y-90000000D01*
X119501472Y-90100000D02*
X120650000Y-90100000D01*
X117025000Y-105152869D02*
X117025000Y-92576472D01*
X149900000Y-77650000D02*
X136600000Y-77650000D01*
X151250000Y-79000000D02*
X149900000Y-77650000D01*
X120750000Y-88250000D02*
X129500000Y-79500000D01*
X120750000Y-90000000D02*
X120750000Y-88250000D01*
X117025000Y-92576472D02*
X119501472Y-90100000D01*
X117132129Y-105259997D02*
X117025000Y-105152869D01*
X136000006Y-79500000D02*
X136500006Y-79000000D01*
X136600000Y-77650000D02*
X136250000Y-78000000D01*
X117132129Y-110632129D02*
X117132129Y-105259997D01*
%TO.N,_DISPLAY_LTDC_G3*%
X137545584Y-91750000D02*
X136500000Y-92795584D01*
X136500000Y-92795584D02*
X136500000Y-98250000D01*
X143146783Y-91750000D02*
X137545584Y-91750000D01*
X150750000Y-84146783D02*
X143146783Y-91750000D01*
X150750000Y-83000000D02*
X150750000Y-84146783D01*
%TO.N,_DISPLAY_LTDC_G4*%
X135975000Y-98578867D02*
X136535642Y-99139509D01*
X150250000Y-82000000D02*
X150250000Y-84000000D01*
X150250000Y-84000000D02*
X143000000Y-91250000D01*
X136535642Y-106371256D02*
X131427707Y-111479191D01*
X136535642Y-99139509D02*
X136535642Y-106371256D01*
X137500000Y-91250000D02*
X135975000Y-92775000D01*
X143000000Y-91250000D02*
X137500000Y-91250000D01*
X135975000Y-92775000D02*
X135975000Y-98578867D01*
%TO.N,_DISPLAY_LTDC_G5*%
X136689492Y-78525000D02*
X129225000Y-78525000D01*
X116247129Y-106102925D02*
X115600066Y-106749988D01*
X115600066Y-106749988D02*
X114750000Y-106749988D01*
X116247129Y-105626579D02*
X116247129Y-106102925D01*
X148699994Y-77950000D02*
X137264492Y-77950000D01*
X129225000Y-78525000D02*
X116000000Y-91750000D01*
X116000000Y-105379450D02*
X116247129Y-105626579D01*
X116000000Y-91750000D02*
X116000000Y-105379450D01*
X137264492Y-77950000D02*
X136689492Y-78525000D01*
X149750000Y-79000006D02*
X148699994Y-77950000D01*
%TO.N,_DISPLAY_LTDC_G6*%
X149250000Y-82000000D02*
X149250000Y-84250000D01*
X137500000Y-90750000D02*
X135650000Y-92600000D01*
X135500000Y-95956612D02*
X135500000Y-98775619D01*
X135650000Y-95806612D02*
X135500000Y-95956612D01*
X135650000Y-92600000D02*
X135650000Y-95806612D01*
X135500000Y-98775619D02*
X135975716Y-99251335D01*
X149250000Y-84250000D02*
X142750000Y-90750000D01*
X142750000Y-90750000D02*
X137500000Y-90750000D01*
%TO.N,_DISPLAY_LTDC_G7*%
X135200000Y-100900500D02*
X135200000Y-95832348D01*
X135200000Y-95832348D02*
X135350000Y-95682348D01*
X135350000Y-95682348D02*
X135350000Y-92475736D01*
X135350000Y-92475736D02*
X137575736Y-90250000D01*
X136049500Y-101750000D02*
X135200000Y-100900500D01*
X148739860Y-84010140D02*
X148739860Y-82989860D01*
X142500000Y-90250000D02*
X148739860Y-84010140D01*
X137575736Y-90250000D02*
X142500000Y-90250000D01*
%TO.N,_DISPLAY_LTDC_B0*%
X132948249Y-81301751D02*
X136511001Y-81301751D01*
X123000000Y-91250000D02*
X132948249Y-81301751D01*
X123000000Y-93000000D02*
X123000000Y-91250000D01*
%TO.N,_DISPLAY_LTDC_B1*%
X130500000Y-88000000D02*
X135775000Y-82725000D01*
X135775000Y-82725000D02*
X137080419Y-82725000D01*
X137553027Y-82252392D02*
X137752392Y-82252392D01*
X137080419Y-82725000D02*
X137553027Y-82252392D01*
X130500000Y-90500000D02*
X130500000Y-88000000D01*
%TO.N,_DISPLAY_LTDC_B2*%
X137583032Y-81750000D02*
X136908032Y-82425000D01*
X130200000Y-87487500D02*
X130200000Y-88300000D01*
X130200000Y-88300000D02*
X129510536Y-88989464D01*
X136908032Y-82425000D02*
X135262500Y-82425000D01*
X138250000Y-81750000D02*
X137583032Y-81750000D01*
X135262500Y-82425000D02*
X130200000Y-87487500D01*
X129510536Y-88989464D02*
X129510536Y-90509744D01*
%TO.N,_DISPLAY_LTDC_B3*%
X134900000Y-95708084D02*
X134900000Y-107100026D01*
X135050000Y-92351472D02*
X135050000Y-95558084D01*
X146750000Y-85250000D02*
X142250000Y-89750000D01*
X135050000Y-95558084D02*
X134900000Y-95708084D01*
X134900000Y-107100026D02*
X133750026Y-108250000D01*
X142250000Y-89750000D02*
X137651472Y-89750000D01*
X137651472Y-89750000D02*
X135050000Y-92351472D01*
X146750000Y-83000000D02*
X146750000Y-85250000D01*
%TO.N,_DISPLAY_LTDC_B4*%
X142000000Y-89250000D02*
X146250000Y-85000000D01*
X129500000Y-112000000D02*
X130171752Y-112000000D01*
X131275000Y-110896752D02*
X131275000Y-110053274D01*
X134600000Y-106728274D02*
X134600000Y-92362132D01*
X134600000Y-92362132D02*
X137712132Y-89250000D01*
X131275000Y-110053274D02*
X134600000Y-106728274D01*
X130171752Y-112000000D02*
X131275000Y-110896752D01*
X146250000Y-85000000D02*
X146250000Y-82000000D01*
X137712132Y-89250000D02*
X142000000Y-89250000D01*
%TO.N,_DISPLAY_LTDC_B5*%
X121425500Y-90574500D02*
X123500000Y-88500000D01*
X120000000Y-90574500D02*
X121425500Y-90574500D01*
X136292472Y-80000000D02*
X137792472Y-78500000D01*
X137792472Y-78500000D02*
X145750000Y-78500000D01*
X123500000Y-88500000D02*
X123500000Y-87750000D01*
X123500000Y-87750000D02*
X131250000Y-80000000D01*
X131250000Y-80000000D02*
X136292472Y-80000000D01*
%TO.N,_DISPLAY_LTDC_B6*%
X124250000Y-88000000D02*
X131750000Y-80500000D01*
X138108368Y-79000000D02*
X145274538Y-79000000D01*
X131750000Y-80500000D02*
X136608368Y-80500000D01*
X119750006Y-92999994D02*
X124250000Y-88500000D01*
X136608368Y-80500000D02*
X138108368Y-79000000D01*
X118000000Y-92999994D02*
X119750006Y-92999994D01*
X124250000Y-88500000D02*
X124250000Y-88000000D01*
%TO.N,_DISPLAY_LTDC_B7*%
X132517500Y-80795000D02*
X119312500Y-94000000D01*
X144252089Y-82500000D02*
X143578248Y-82500000D01*
X118000000Y-94000000D02*
X117500000Y-93500000D01*
X137387780Y-80500000D02*
X137092780Y-80795000D01*
X144750000Y-82997911D02*
X144252089Y-82500000D01*
X119312500Y-94000000D02*
X118000000Y-94000000D01*
X141578248Y-80500000D02*
X137387780Y-80500000D01*
X137092780Y-80795000D02*
X132517500Y-80795000D01*
X143578248Y-82500000D02*
X141578248Y-80500000D01*
%TO.N,_DISPLAY_LTDC_CLK*%
X141750000Y-88750000D02*
X143750000Y-86750000D01*
X137750000Y-88750000D02*
X141750000Y-88750000D01*
X134300000Y-92200000D02*
X137750000Y-88750000D01*
X143750000Y-86750000D02*
X143750000Y-83023807D01*
X134300000Y-101177377D02*
X134300000Y-92200000D01*
X133784075Y-101693302D02*
X134300000Y-101177377D01*
%TO.N,_DISPLAY_LTDC_HSYNC*%
X142739860Y-87010140D02*
X142739860Y-82989860D01*
X134000000Y-92000000D02*
X137750000Y-88250000D01*
X133275000Y-96060292D02*
X134000000Y-95335292D01*
X133275000Y-99269786D02*
X133275000Y-96060292D01*
X134000000Y-95335292D02*
X134000000Y-92000000D01*
X133775000Y-99769786D02*
X133275000Y-99269786D01*
X141500000Y-88250000D02*
X142739860Y-87010140D01*
X137750000Y-88250000D02*
X141500000Y-88250000D01*
%TO.N,_DISPLAY_LTDC_VSYNC*%
X119250000Y-110375000D02*
X119250000Y-102421752D01*
X118500000Y-111125000D02*
X119250000Y-110375000D01*
X137509504Y-80975000D02*
X141211056Y-80975000D01*
X141211056Y-80975000D02*
X142236056Y-82000000D01*
X128733876Y-88516124D02*
X129500000Y-87750000D01*
X134473249Y-81776751D02*
X136707753Y-81776751D01*
X136707753Y-81776751D02*
X137509504Y-80975000D01*
X128733876Y-91472583D02*
X128733876Y-88516124D01*
X127461163Y-93083597D02*
X127461163Y-92745296D01*
X119495000Y-102176752D02*
X119495000Y-101049760D01*
X119495000Y-101049760D02*
X127461163Y-93083597D01*
X119250000Y-102421752D02*
X119495000Y-102176752D01*
X127461163Y-92745296D02*
X128733876Y-91472583D01*
X129500000Y-86750000D02*
X134473249Y-81776751D01*
X118500000Y-112000000D02*
X118500000Y-111125000D01*
X129500000Y-87750000D02*
X129500000Y-86750000D01*
%TO.N,_DISPLAY_LTDC_DE*%
X130000000Y-111500000D02*
X130000000Y-110904010D01*
X132975000Y-105475000D02*
X132975000Y-95936028D01*
X133600000Y-95311028D02*
X133600000Y-91967386D01*
X130000000Y-110904010D02*
X133966129Y-106937881D01*
X133966129Y-106937881D02*
X133966129Y-106466129D01*
X141750000Y-83817386D02*
X141750000Y-83000000D01*
X132975000Y-95936028D02*
X133600000Y-95311028D01*
X133966129Y-106466129D02*
X132975000Y-105475000D01*
X133600000Y-91967386D02*
X141750000Y-83817386D01*
%TO.N,_DISPLAY_TOUCH_INTERRUPT*%
X133491129Y-106741129D02*
X133241129Y-106741129D01*
X133241129Y-106741129D02*
X132500000Y-106000000D01*
X140241051Y-84806589D02*
X140241051Y-82002983D01*
X133300000Y-95186764D02*
X133300000Y-91747640D01*
X132500000Y-95986764D02*
X133300000Y-95186764D01*
X133300000Y-91747640D02*
X140241051Y-84806589D01*
X132500000Y-106000000D02*
X132500000Y-95986764D01*
%TD*%
M02*
