%TF.GenerationSoftware,KiCad,Pcbnew,7.0.8*%
%TF.CreationDate,2023-12-11T15:04:51+01:00*%
%TF.ProjectId,KLST_PANDA,4b4c5354-5f50-4414-9e44-412e6b696361,rev?*%
%TF.SameCoordinates,Original*%
%TF.FileFunction,Legend,Top*%
%TF.FilePolarity,Positive*%
%FSLAX46Y46*%
G04 Gerber Fmt 4.6, Leading zero omitted, Abs format (unit mm)*
G04 Created by KiCad (PCBNEW 7.0.8) date 2023-12-11 15:04:51*
%MOMM*%
%LPD*%
G01*
G04 APERTURE LIST*
G04 Aperture macros list*
%AMRoundRect*
0 Rectangle with rounded corners*
0 $1 Rounding radius*
0 $2 $3 $4 $5 $6 $7 $8 $9 X,Y pos of 4 corners*
0 Add a 4 corners polygon primitive as box body*
4,1,4,$2,$3,$4,$5,$6,$7,$8,$9,$2,$3,0*
0 Add four circle primitives for the rounded corners*
1,1,$1+$1,$2,$3*
1,1,$1+$1,$4,$5*
1,1,$1+$1,$6,$7*
1,1,$1+$1,$8,$9*
0 Add four rect primitives between the rounded corners*
20,1,$1+$1,$2,$3,$4,$5,0*
20,1,$1+$1,$4,$5,$6,$7,0*
20,1,$1+$1,$6,$7,$8,$9,0*
20,1,$1+$1,$8,$9,$2,$3,0*%
G04 Aperture macros list end*
%ADD10C,0.150000*%
%ADD11C,1.250000*%
%ADD12C,0.120000*%
%ADD13C,0.200000*%
%ADD14C,0.127000*%
%ADD15C,0.254000*%
%ADD16C,0.152000*%
%ADD17RoundRect,0.140000X-0.170000X0.140000X-0.170000X-0.140000X0.170000X-0.140000X0.170000X0.140000X0*%
%ADD18RoundRect,0.250000X0.550000X-1.050000X0.550000X1.050000X-0.550000X1.050000X-0.550000X-1.050000X0*%
%ADD19R,3.700000X1.100000*%
%ADD20RoundRect,0.140000X0.140000X0.170000X-0.140000X0.170000X-0.140000X-0.170000X0.140000X-0.170000X0*%
%ADD21C,1.400000*%
%ADD22R,2.500000X1.600000*%
%ADD23RoundRect,0.250000X-1.000000X-0.650000X1.000000X-0.650000X1.000000X0.650000X-1.000000X0.650000X0*%
%ADD24RoundRect,0.135000X0.185000X-0.135000X0.185000X0.135000X-0.185000X0.135000X-0.185000X-0.135000X0*%
%ADD25RoundRect,0.140000X0.170000X-0.140000X0.170000X0.140000X-0.170000X0.140000X-0.170000X-0.140000X0*%
%ADD26RoundRect,0.250000X0.450000X0.425000X-0.450000X0.425000X-0.450000X-0.425000X0.450000X-0.425000X0*%
%ADD27RoundRect,0.140000X-0.140000X-0.170000X0.140000X-0.170000X0.140000X0.170000X-0.140000X0.170000X0*%
%ADD28RoundRect,0.200000X-0.275000X0.200000X-0.275000X-0.200000X0.275000X-0.200000X0.275000X0.200000X0*%
%ADD29RoundRect,0.243750X0.456250X-0.243750X0.456250X0.243750X-0.456250X0.243750X-0.456250X-0.243750X0*%
%ADD30R,0.600000X0.250000*%
%ADD31RoundRect,0.135000X-0.185000X0.135000X-0.185000X-0.135000X0.185000X-0.135000X0.185000X0.135000X0*%
%ADD32RoundRect,0.250000X0.650000X-1.000000X0.650000X1.000000X-0.650000X1.000000X-0.650000X-1.000000X0*%
%ADD33R,2.000000X1.780000*%
%ADD34RoundRect,0.150000X0.200000X-0.150000X0.200000X0.150000X-0.200000X0.150000X-0.200000X-0.150000X0*%
%ADD35RoundRect,0.250000X-0.450000X0.350000X-0.450000X-0.350000X0.450000X-0.350000X0.450000X0.350000X0*%
%ADD36RoundRect,0.200000X0.800000X-0.200000X0.800000X0.200000X-0.800000X0.200000X-0.800000X-0.200000X0*%
%ADD37RoundRect,0.250000X0.450000X-0.262500X0.450000X0.262500X-0.450000X0.262500X-0.450000X-0.262500X0*%
%ADD38RoundRect,0.250000X-0.600000X-0.600000X0.600000X-0.600000X0.600000X0.600000X-0.600000X0.600000X0*%
%ADD39C,1.700000*%
%ADD40RoundRect,0.006600X-0.358400X-0.103400X0.358400X-0.103400X0.358400X0.103400X-0.358400X0.103400X0*%
%ADD41RoundRect,0.006600X0.103400X-0.358400X0.103400X0.358400X-0.103400X0.358400X-0.103400X-0.358400X0*%
%ADD42R,2.700000X2.700000*%
%ADD43R,0.650000X0.400000*%
%ADD44RoundRect,0.200000X-0.200000X-0.275000X0.200000X-0.275000X0.200000X0.275000X-0.200000X0.275000X0*%
%ADD45C,0.800000*%
%ADD46C,6.400000*%
%ADD47RoundRect,0.250000X-0.450000X0.262500X-0.450000X-0.262500X0.450000X-0.262500X0.450000X0.262500X0*%
%ADD48RoundRect,0.147500X-0.172500X0.147500X-0.172500X-0.147500X0.172500X-0.147500X0.172500X0.147500X0*%
%ADD49RoundRect,0.075000X-0.662500X-0.075000X0.662500X-0.075000X0.662500X0.075000X-0.662500X0.075000X0*%
%ADD50RoundRect,0.075000X-0.075000X-0.662500X0.075000X-0.662500X0.075000X0.662500X-0.075000X0.662500X0*%
%ADD51RoundRect,0.250000X0.600000X0.600000X-0.600000X0.600000X-0.600000X-0.600000X0.600000X-0.600000X0*%
%ADD52RoundRect,0.200000X0.200000X0.275000X-0.200000X0.275000X-0.200000X-0.275000X0.200000X-0.275000X0*%
%ADD53C,1.000000*%
%ADD54R,1.100000X1.000000*%
%ADD55R,0.900000X1.250000*%
%ADD56R,0.700000X1.200000*%
%ADD57R,1.000000X0.800000*%
%ADD58R,1.000000X1.200000*%
%ADD59R,1.000000X2.800000*%
%ADD60R,1.300000X1.900000*%
%ADD61C,0.650000*%
%ADD62R,0.600000X1.450000*%
%ADD63R,0.300000X1.450000*%
%ADD64O,1.000000X2.100000*%
%ADD65O,1.000000X1.600000*%
%ADD66R,0.400000X0.650000*%
%ADD67RoundRect,0.250000X-0.650000X1.000000X-0.650000X-1.000000X0.650000X-1.000000X0.650000X1.000000X0*%
%ADD68RoundRect,0.250000X-0.550000X1.050000X-0.550000X-1.050000X0.550000X-1.050000X0.550000X1.050000X0*%
%ADD69RoundRect,0.250000X-0.475000X0.250000X-0.475000X-0.250000X0.475000X-0.250000X0.475000X0.250000X0*%
%ADD70R,0.700000X1.000000*%
%ADD71R,0.700000X0.600000*%
%ADD72RoundRect,0.135000X-0.135000X-0.185000X0.135000X-0.185000X0.135000X0.185000X-0.135000X0.185000X0*%
%ADD73R,0.740000X2.400000*%
%ADD74RoundRect,0.250000X0.450000X-0.350000X0.450000X0.350000X-0.450000X0.350000X-0.450000X-0.350000X0*%
%ADD75R,1.200000X1.400000*%
%ADD76C,2.800000*%
%ADD77RoundRect,0.135000X0.135000X0.185000X-0.135000X0.185000X-0.135000X-0.185000X0.135000X-0.185000X0*%
%ADD78O,2.400000X3.800000*%
%ADD79C,1.800000*%
%ADD80C,0.990000*%
%ADD81C,1.750000*%
%ADD82C,4.000000*%
%ADD83C,2.500000*%
G04 APERTURE END LIST*
D10*
X82000000Y-55750000D02*
X84000000Y-55750000D01*
X84000000Y-59250000D01*
X82000000Y-59250000D01*
X82000000Y-55750000D01*
G36*
X82000000Y-55750000D02*
G01*
X84000000Y-55750000D01*
X84000000Y-59250000D01*
X82000000Y-59250000D01*
X82000000Y-55750000D01*
G37*
G36*
X101755147Y-62262639D02*
G01*
X101755147Y-62017786D01*
X101720342Y-61982370D01*
X101125000Y-61982370D01*
X101090195Y-61947566D01*
X101090195Y-61353445D01*
X101055391Y-61318030D01*
X100809927Y-61318030D01*
X100775122Y-61353445D01*
X100775122Y-61947566D01*
X100740318Y-61982370D01*
X100144976Y-61982370D01*
X100110171Y-62017786D01*
X100110171Y-62262639D01*
X100144976Y-62297444D01*
X100740318Y-62297444D01*
X100775122Y-62332248D01*
X100775122Y-62924537D01*
X100809927Y-62959342D01*
X101055391Y-62959342D01*
X101090195Y-62924537D01*
X101090195Y-62332248D01*
X101125000Y-62297444D01*
X101720342Y-62297444D01*
X101755147Y-62262639D01*
G37*
G36*
X148250000Y-62262639D02*
G01*
X148250000Y-62017786D01*
X148214584Y-61982370D01*
X146919487Y-61982370D01*
X146884682Y-62017786D01*
X146884682Y-62262639D01*
X146919487Y-62297444D01*
X148214584Y-62297444D01*
X148250000Y-62262639D01*
G37*
G36*
X113032665Y-131430419D02*
G01*
X113046941Y-131431047D01*
X113061090Y-131432107D01*
X113075087Y-131433607D01*
X113088911Y-131435560D01*
X113102538Y-131437974D01*
X113115945Y-131440861D01*
X113129109Y-131444230D01*
X113142007Y-131448091D01*
X113154615Y-131452456D01*
X113166911Y-131457333D01*
X113178872Y-131462734D01*
X113190474Y-131468669D01*
X113201694Y-131475147D01*
X113212510Y-131482180D01*
X113222898Y-131489777D01*
X113232836Y-131497949D01*
X113242299Y-131506705D01*
X113251266Y-131516056D01*
X113259712Y-131526013D01*
X113267616Y-131536586D01*
X113274953Y-131547784D01*
X113281701Y-131559618D01*
X113287836Y-131572098D01*
X113293337Y-131585235D01*
X113298178Y-131599039D01*
X113302338Y-131613520D01*
X113305794Y-131628688D01*
X113308522Y-131644553D01*
X113310499Y-131661126D01*
X113311702Y-131678418D01*
X113312108Y-131696437D01*
X113311463Y-131714514D01*
X113309568Y-131731913D01*
X113306484Y-131748612D01*
X113302273Y-131764592D01*
X113296996Y-131779832D01*
X113290714Y-131794312D01*
X113283488Y-131808011D01*
X113275380Y-131820909D01*
X113266450Y-131832986D01*
X113256760Y-131844221D01*
X113246370Y-131854593D01*
X113235343Y-131864083D01*
X113223739Y-131872670D01*
X113211620Y-131880333D01*
X113199046Y-131887053D01*
X113186079Y-131892808D01*
X113186079Y-131906730D01*
X113201655Y-131912498D01*
X113216824Y-131919284D01*
X113231501Y-131927108D01*
X113245605Y-131935993D01*
X113259054Y-131945960D01*
X113271765Y-131957031D01*
X113283656Y-131969226D01*
X113294645Y-131982568D01*
X113304649Y-131997077D01*
X113313586Y-132012775D01*
X113321374Y-132029685D01*
X113327930Y-132047826D01*
X113330721Y-132057366D01*
X113333173Y-132067221D01*
X113335276Y-132077396D01*
X113337020Y-132087892D01*
X113338394Y-132098712D01*
X113339388Y-132109858D01*
X113339992Y-132121335D01*
X113340196Y-132133143D01*
X113339790Y-132152604D01*
X113338587Y-132171246D01*
X113336609Y-132189081D01*
X113333881Y-132206122D01*
X113330425Y-132222384D01*
X113326265Y-132237879D01*
X113321422Y-132252621D01*
X113315920Y-132266622D01*
X113309783Y-132279896D01*
X113303033Y-132292457D01*
X113295694Y-132304317D01*
X113287787Y-132315490D01*
X113279337Y-132325988D01*
X113270367Y-132335826D01*
X113260898Y-132345016D01*
X113250956Y-132353572D01*
X113240561Y-132361507D01*
X113229739Y-132368834D01*
X113218510Y-132375567D01*
X113206900Y-132381718D01*
X113194930Y-132387300D01*
X113182624Y-132392328D01*
X113170004Y-132396815D01*
X113157094Y-132400772D01*
X113143917Y-132404215D01*
X113130495Y-132407156D01*
X113116853Y-132409607D01*
X113103012Y-132411584D01*
X113088996Y-132413098D01*
X113074828Y-132414163D01*
X113060531Y-132414793D01*
X113046127Y-132415000D01*
X112654118Y-132415000D01*
X112640196Y-132401078D01*
X112640196Y-132274804D01*
X112780147Y-132274804D01*
X112794069Y-132289214D01*
X113032206Y-132289214D01*
X113042530Y-132289088D01*
X113052527Y-132288707D01*
X113071543Y-132287156D01*
X113089252Y-132284523D01*
X113105654Y-132280765D01*
X113120748Y-132275842D01*
X113134533Y-132269714D01*
X113147008Y-132262339D01*
X113158174Y-132253677D01*
X113168028Y-132243687D01*
X113176571Y-132232328D01*
X113183802Y-132219559D01*
X113189719Y-132205340D01*
X113194323Y-132189630D01*
X113197612Y-132172387D01*
X113199587Y-132153572D01*
X113200080Y-132143562D01*
X113200245Y-132133143D01*
X113200079Y-132121415D01*
X113199580Y-132110178D01*
X113198741Y-132099423D01*
X113197558Y-132089143D01*
X113194138Y-132069976D01*
X113189281Y-132052616D01*
X113182945Y-132037000D01*
X113175090Y-132023067D01*
X113165676Y-132010754D01*
X113154663Y-132000000D01*
X113142009Y-131990744D01*
X113127676Y-131982922D01*
X113111621Y-131976473D01*
X113093804Y-131971336D01*
X113084223Y-131969240D01*
X113074187Y-131967448D01*
X113063689Y-131965953D01*
X113052726Y-131964748D01*
X113041293Y-131963824D01*
X113029384Y-131963173D01*
X113016994Y-131962788D01*
X113004118Y-131962662D01*
X112794069Y-131962662D01*
X112780147Y-131976828D01*
X112780147Y-132274804D01*
X112640196Y-132274804D01*
X112640196Y-131822711D01*
X112780147Y-131822711D01*
X112794069Y-131836632D01*
X113004118Y-131836632D01*
X113014463Y-131836549D01*
X113024480Y-131836292D01*
X113043525Y-131835217D01*
X113061255Y-131833322D01*
X113077669Y-131830526D01*
X113092768Y-131826746D01*
X113106552Y-131821898D01*
X113119022Y-131815899D01*
X113130178Y-131808667D01*
X113140019Y-131800118D01*
X113148548Y-131790169D01*
X113155763Y-131778738D01*
X113161666Y-131765741D01*
X113166256Y-131751095D01*
X113169535Y-131734718D01*
X113171501Y-131716526D01*
X113171993Y-131706724D01*
X113172157Y-131696437D01*
X113171993Y-131686171D01*
X113170670Y-131667076D01*
X113168006Y-131649827D01*
X113163979Y-131634342D01*
X113158569Y-131620540D01*
X113151754Y-131608339D01*
X113143514Y-131597656D01*
X113133829Y-131588409D01*
X113122677Y-131580517D01*
X113110037Y-131573899D01*
X113095890Y-131568470D01*
X113080214Y-131564151D01*
X113062988Y-131560859D01*
X113044192Y-131558512D01*
X113034199Y-131557668D01*
X113023805Y-131557028D01*
X113013008Y-131556584D01*
X113001806Y-131556326D01*
X112990196Y-131556242D01*
X112794069Y-131556242D01*
X112780147Y-131570408D01*
X112780147Y-131822711D01*
X112640196Y-131822711D01*
X112640196Y-131444378D01*
X112654118Y-131430212D01*
X113018284Y-131430212D01*
X113032665Y-131430419D01*
G37*
G36*
X113852121Y-131430701D02*
G01*
X113873438Y-131432165D01*
X113894093Y-131434604D01*
X113914085Y-131438017D01*
X113933412Y-131442401D01*
X113952070Y-131447755D01*
X113970057Y-131454078D01*
X113987371Y-131461369D01*
X114004008Y-131469625D01*
X114019967Y-131478846D01*
X114035244Y-131489031D01*
X114049837Y-131500176D01*
X114063743Y-131512283D01*
X114076961Y-131525348D01*
X114089486Y-131539370D01*
X114101318Y-131554349D01*
X114112452Y-131570282D01*
X114122887Y-131587168D01*
X114132619Y-131605006D01*
X114141647Y-131623794D01*
X114149968Y-131643531D01*
X114157579Y-131664215D01*
X114164477Y-131685845D01*
X114170660Y-131708420D01*
X114176125Y-131731938D01*
X114180870Y-131756398D01*
X114184892Y-131781798D01*
X114188189Y-131808136D01*
X114190758Y-131835412D01*
X114192595Y-131863624D01*
X114193700Y-131892771D01*
X114194069Y-131922850D01*
X114193700Y-131952907D01*
X114192595Y-131982030D01*
X114190758Y-132010220D01*
X114188189Y-132037473D01*
X114184892Y-132063789D01*
X114180870Y-132089167D01*
X114176125Y-132113604D01*
X114170660Y-132137101D01*
X114164477Y-132159654D01*
X114157579Y-132181264D01*
X114149968Y-132201928D01*
X114141647Y-132221645D01*
X114132619Y-132240413D01*
X114122887Y-132258232D01*
X114112452Y-132275100D01*
X114101318Y-132291016D01*
X114089486Y-132305977D01*
X114076961Y-132319984D01*
X114063743Y-132333034D01*
X114049837Y-132345126D01*
X114035244Y-132356258D01*
X114019967Y-132366430D01*
X114004008Y-132375639D01*
X113987371Y-132383885D01*
X113970057Y-132391166D01*
X113952070Y-132397481D01*
X113933412Y-132402828D01*
X113914085Y-132407206D01*
X113894093Y-132410614D01*
X113873438Y-132413049D01*
X113852121Y-132414512D01*
X113830147Y-132415000D01*
X113815981Y-132415000D01*
X113794007Y-132414512D01*
X113772690Y-132413049D01*
X113752035Y-132410614D01*
X113732043Y-132407206D01*
X113712716Y-132402828D01*
X113694058Y-132397481D01*
X113676071Y-132391166D01*
X113658757Y-132383885D01*
X113642120Y-132375639D01*
X113626161Y-132366430D01*
X113610884Y-132356258D01*
X113596291Y-132345126D01*
X113582385Y-132333034D01*
X113569167Y-132319984D01*
X113556642Y-132305977D01*
X113544810Y-132291016D01*
X113533676Y-132275100D01*
X113523241Y-132258232D01*
X113513509Y-132240413D01*
X113504481Y-132221645D01*
X113496160Y-132201928D01*
X113488549Y-132181264D01*
X113481651Y-132159654D01*
X113475468Y-132137101D01*
X113470003Y-132113604D01*
X113465258Y-132089167D01*
X113461236Y-132063789D01*
X113457939Y-132037473D01*
X113455370Y-132010220D01*
X113453533Y-131982030D01*
X113452428Y-131952907D01*
X113452059Y-131922850D01*
X113592010Y-131922850D01*
X113592216Y-131945390D01*
X113592835Y-131967215D01*
X113593870Y-131988323D01*
X113595323Y-132008717D01*
X113597197Y-132028395D01*
X113599494Y-132047357D01*
X113602216Y-132065603D01*
X113605367Y-132083135D01*
X113608949Y-132099950D01*
X113612964Y-132116050D01*
X113617415Y-132131435D01*
X113622304Y-132146103D01*
X113627634Y-132160057D01*
X113633407Y-132173294D01*
X113639626Y-132185817D01*
X113646293Y-132197623D01*
X113653411Y-132208714D01*
X113660983Y-132219090D01*
X113669010Y-132228750D01*
X113677495Y-132237694D01*
X113686442Y-132245923D01*
X113695851Y-132253437D01*
X113705727Y-132260234D01*
X113716070Y-132266317D01*
X113726885Y-132271683D01*
X113738173Y-132276334D01*
X113749937Y-132280270D01*
X113762179Y-132283490D01*
X113774902Y-132285994D01*
X113788108Y-132287783D01*
X113801800Y-132288857D01*
X113815981Y-132289214D01*
X113830147Y-132289214D01*
X113844328Y-132288857D01*
X113858020Y-132287783D01*
X113871226Y-132285994D01*
X113883949Y-132283490D01*
X113896191Y-132280270D01*
X113907955Y-132276334D01*
X113919243Y-132271683D01*
X113930058Y-132266317D01*
X113940401Y-132260234D01*
X113950277Y-132253437D01*
X113959686Y-132245923D01*
X113968633Y-132237694D01*
X113977118Y-132228750D01*
X113985145Y-132219090D01*
X113992717Y-132208714D01*
X113999835Y-132197623D01*
X114006502Y-132185817D01*
X114012721Y-132173294D01*
X114018494Y-132160057D01*
X114023824Y-132146103D01*
X114028713Y-132131435D01*
X114033164Y-132116050D01*
X114037179Y-132099950D01*
X114040761Y-132083135D01*
X114043912Y-132065603D01*
X114046634Y-132047357D01*
X114048931Y-132028395D01*
X114050805Y-132008717D01*
X114052258Y-131988323D01*
X114053293Y-131967215D01*
X114053912Y-131945390D01*
X114054118Y-131922850D01*
X114053912Y-131900309D01*
X114053293Y-131878483D01*
X114052258Y-131857371D01*
X114050805Y-131836973D01*
X114048931Y-131817290D01*
X114046634Y-131798321D01*
X114043912Y-131780067D01*
X114040761Y-131762528D01*
X114037179Y-131745703D01*
X114033164Y-131729594D01*
X114028713Y-131714199D01*
X114023824Y-131699520D01*
X114018494Y-131685555D01*
X114012721Y-131672306D01*
X114006502Y-131659773D01*
X113999835Y-131647955D01*
X113992717Y-131636852D01*
X113985145Y-131626465D01*
X113977118Y-131616794D01*
X113968633Y-131607839D01*
X113959686Y-131599599D01*
X113950277Y-131592076D01*
X113940401Y-131585269D01*
X113930058Y-131579178D01*
X113919243Y-131573803D01*
X113907955Y-131569144D01*
X113896191Y-131565202D01*
X113883949Y-131561977D01*
X113871226Y-131559468D01*
X113858020Y-131557676D01*
X113844328Y-131556600D01*
X113830147Y-131556242D01*
X113815981Y-131556242D01*
X113801800Y-131556600D01*
X113788108Y-131557676D01*
X113774902Y-131559468D01*
X113762179Y-131561977D01*
X113749937Y-131565202D01*
X113738173Y-131569144D01*
X113726885Y-131573803D01*
X113716070Y-131579178D01*
X113705727Y-131585269D01*
X113695851Y-131592076D01*
X113686442Y-131599599D01*
X113677495Y-131607839D01*
X113669010Y-131616794D01*
X113660983Y-131626465D01*
X113653411Y-131636852D01*
X113646293Y-131647955D01*
X113639626Y-131659773D01*
X113633407Y-131672306D01*
X113627634Y-131685555D01*
X113622304Y-131699520D01*
X113617415Y-131714199D01*
X113612964Y-131729594D01*
X113608949Y-131745703D01*
X113605367Y-131762528D01*
X113602216Y-131780067D01*
X113599494Y-131798321D01*
X113597197Y-131817290D01*
X113595323Y-131836973D01*
X113593870Y-131857371D01*
X113592835Y-131878483D01*
X113592216Y-131900309D01*
X113592010Y-131922850D01*
X113452059Y-131922850D01*
X113452428Y-131892771D01*
X113453533Y-131863624D01*
X113455370Y-131835412D01*
X113457939Y-131808136D01*
X113461236Y-131781798D01*
X113465258Y-131756398D01*
X113470003Y-131731938D01*
X113475468Y-131708420D01*
X113481651Y-131685845D01*
X113488549Y-131664215D01*
X113496160Y-131643531D01*
X113504481Y-131623794D01*
X113513509Y-131605006D01*
X113523241Y-131587168D01*
X113533676Y-131570282D01*
X113544810Y-131554349D01*
X113556642Y-131539370D01*
X113569167Y-131525348D01*
X113582385Y-131512283D01*
X113596291Y-131500176D01*
X113610884Y-131489031D01*
X113626161Y-131478846D01*
X113642120Y-131469625D01*
X113658757Y-131461369D01*
X113676071Y-131454078D01*
X113694058Y-131447755D01*
X113712716Y-131442401D01*
X113732043Y-131438017D01*
X113752035Y-131434604D01*
X113772690Y-131432165D01*
X113794007Y-131430701D01*
X113815981Y-131430212D01*
X113830147Y-131430212D01*
X113852121Y-131430701D01*
G37*
G36*
X114705994Y-131430701D02*
G01*
X114727311Y-131432165D01*
X114747966Y-131434604D01*
X114767958Y-131438017D01*
X114787285Y-131442401D01*
X114805943Y-131447755D01*
X114823930Y-131454078D01*
X114841244Y-131461369D01*
X114857881Y-131469625D01*
X114873840Y-131478846D01*
X114889117Y-131489031D01*
X114903710Y-131500176D01*
X114917616Y-131512283D01*
X114930834Y-131525348D01*
X114943359Y-131539370D01*
X114955191Y-131554349D01*
X114966325Y-131570282D01*
X114976760Y-131587168D01*
X114986492Y-131605006D01*
X114995520Y-131623794D01*
X115003841Y-131643531D01*
X115011452Y-131664215D01*
X115018350Y-131685845D01*
X115024533Y-131708420D01*
X115029998Y-131731938D01*
X115034743Y-131756398D01*
X115038765Y-131781798D01*
X115042062Y-131808136D01*
X115044631Y-131835412D01*
X115046468Y-131863624D01*
X115047573Y-131892771D01*
X115047942Y-131922850D01*
X115047573Y-131952907D01*
X115046468Y-131982030D01*
X115044631Y-132010220D01*
X115042062Y-132037473D01*
X115038765Y-132063789D01*
X115034743Y-132089167D01*
X115029998Y-132113604D01*
X115024533Y-132137101D01*
X115018350Y-132159654D01*
X115011452Y-132181264D01*
X115003841Y-132201928D01*
X114995520Y-132221645D01*
X114986492Y-132240413D01*
X114976760Y-132258232D01*
X114966325Y-132275100D01*
X114955191Y-132291016D01*
X114943359Y-132305977D01*
X114930834Y-132319984D01*
X114917616Y-132333034D01*
X114903710Y-132345126D01*
X114889117Y-132356258D01*
X114873840Y-132366430D01*
X114857881Y-132375639D01*
X114841244Y-132383885D01*
X114823930Y-132391166D01*
X114805943Y-132397481D01*
X114787285Y-132402828D01*
X114767958Y-132407206D01*
X114747966Y-132410614D01*
X114727311Y-132413049D01*
X114705994Y-132414512D01*
X114684020Y-132415000D01*
X114669854Y-132415000D01*
X114647880Y-132414512D01*
X114626563Y-132413049D01*
X114605908Y-132410614D01*
X114585915Y-132407206D01*
X114566589Y-132402828D01*
X114547931Y-132397481D01*
X114529944Y-132391166D01*
X114512630Y-132383885D01*
X114495993Y-132375639D01*
X114480034Y-132366430D01*
X114464757Y-132356258D01*
X114450164Y-132345126D01*
X114436258Y-132333034D01*
X114423040Y-132319984D01*
X114410515Y-132305977D01*
X114398683Y-132291016D01*
X114387549Y-132275100D01*
X114377114Y-132258232D01*
X114367382Y-132240413D01*
X114358354Y-132221645D01*
X114350033Y-132201928D01*
X114342422Y-132181264D01*
X114335524Y-132159654D01*
X114329341Y-132137101D01*
X114323876Y-132113604D01*
X114319131Y-132089167D01*
X114315109Y-132063789D01*
X114311812Y-132037473D01*
X114309243Y-132010220D01*
X114307406Y-131982030D01*
X114306301Y-131952907D01*
X114305932Y-131922850D01*
X114445883Y-131922850D01*
X114446089Y-131945390D01*
X114446708Y-131967215D01*
X114447743Y-131988323D01*
X114449196Y-132008717D01*
X114451070Y-132028395D01*
X114453367Y-132047357D01*
X114456089Y-132065603D01*
X114459240Y-132083135D01*
X114462822Y-132099950D01*
X114466837Y-132116050D01*
X114471288Y-132131435D01*
X114476177Y-132146103D01*
X114481507Y-132160057D01*
X114487280Y-132173294D01*
X114493499Y-132185817D01*
X114500166Y-132197623D01*
X114507284Y-132208714D01*
X114514856Y-132219090D01*
X114522883Y-132228750D01*
X114531368Y-132237694D01*
X114540315Y-132245923D01*
X114549724Y-132253437D01*
X114559600Y-132260234D01*
X114569943Y-132266317D01*
X114580758Y-132271683D01*
X114592046Y-132276334D01*
X114603810Y-132280270D01*
X114616052Y-132283490D01*
X114628775Y-132285994D01*
X114641981Y-132287783D01*
X114655673Y-132288857D01*
X114669854Y-132289214D01*
X114684020Y-132289214D01*
X114698201Y-132288857D01*
X114711893Y-132287783D01*
X114725099Y-132285994D01*
X114737822Y-132283490D01*
X114750064Y-132280270D01*
X114761828Y-132276334D01*
X114773116Y-132271683D01*
X114783931Y-132266317D01*
X114794274Y-132260234D01*
X114804150Y-132253437D01*
X114813559Y-132245923D01*
X114822506Y-132237694D01*
X114830991Y-132228750D01*
X114839018Y-132219090D01*
X114846590Y-132208714D01*
X114853708Y-132197623D01*
X114860375Y-132185817D01*
X114866594Y-132173294D01*
X114872367Y-132160057D01*
X114877697Y-132146103D01*
X114882586Y-132131435D01*
X114887037Y-132116050D01*
X114891052Y-132099950D01*
X114894634Y-132083135D01*
X114897785Y-132065603D01*
X114900507Y-132047357D01*
X114902804Y-132028395D01*
X114904678Y-132008717D01*
X114906131Y-131988323D01*
X114907166Y-131967215D01*
X114907785Y-131945390D01*
X114907991Y-131922850D01*
X114907785Y-131900309D01*
X114907166Y-131878483D01*
X114906131Y-131857371D01*
X114904678Y-131836973D01*
X114902804Y-131817290D01*
X114900507Y-131798321D01*
X114897785Y-131780067D01*
X114894634Y-131762528D01*
X114891052Y-131745703D01*
X114887037Y-131729594D01*
X114882586Y-131714199D01*
X114877697Y-131699520D01*
X114872367Y-131685555D01*
X114866594Y-131672306D01*
X114860375Y-131659773D01*
X114853708Y-131647955D01*
X114846590Y-131636852D01*
X114839018Y-131626465D01*
X114830991Y-131616794D01*
X114822506Y-131607839D01*
X114813559Y-131599599D01*
X114804150Y-131592076D01*
X114794274Y-131585269D01*
X114783931Y-131579178D01*
X114773116Y-131573803D01*
X114761828Y-131569144D01*
X114750064Y-131565202D01*
X114737822Y-131561977D01*
X114725099Y-131559468D01*
X114711893Y-131557676D01*
X114698201Y-131556600D01*
X114684020Y-131556242D01*
X114669854Y-131556242D01*
X114655673Y-131556600D01*
X114641981Y-131557676D01*
X114628775Y-131559468D01*
X114616052Y-131561977D01*
X114603810Y-131565202D01*
X114592046Y-131569144D01*
X114580758Y-131573803D01*
X114569943Y-131579178D01*
X114559600Y-131585269D01*
X114549724Y-131592076D01*
X114540315Y-131599599D01*
X114531368Y-131607839D01*
X114522883Y-131616794D01*
X114514856Y-131626465D01*
X114507284Y-131636852D01*
X114500166Y-131647955D01*
X114493499Y-131659773D01*
X114487280Y-131672306D01*
X114481507Y-131685555D01*
X114476177Y-131699520D01*
X114471288Y-131714199D01*
X114466837Y-131729594D01*
X114462822Y-131745703D01*
X114459240Y-131762528D01*
X114456089Y-131780067D01*
X114453367Y-131798321D01*
X114451070Y-131817290D01*
X114449196Y-131836973D01*
X114447743Y-131857371D01*
X114446708Y-131878483D01*
X114446089Y-131900309D01*
X114445883Y-131922850D01*
X114305932Y-131922850D01*
X114306301Y-131892771D01*
X114307406Y-131863624D01*
X114309243Y-131835412D01*
X114311812Y-131808136D01*
X114315109Y-131781798D01*
X114319131Y-131756398D01*
X114323876Y-131731938D01*
X114329341Y-131708420D01*
X114335524Y-131685845D01*
X114342422Y-131664215D01*
X114350033Y-131643531D01*
X114358354Y-131623794D01*
X114367382Y-131605006D01*
X114377114Y-131587168D01*
X114387549Y-131570282D01*
X114398683Y-131554349D01*
X114410515Y-131539370D01*
X114423040Y-131525348D01*
X114436258Y-131512283D01*
X114450164Y-131500176D01*
X114464757Y-131489031D01*
X114480034Y-131478846D01*
X114495993Y-131469625D01*
X114512630Y-131461369D01*
X114529944Y-131454078D01*
X114547931Y-131447755D01*
X114566589Y-131442401D01*
X114585915Y-131438017D01*
X114605908Y-131434604D01*
X114626563Y-131432165D01*
X114647880Y-131430701D01*
X114669854Y-131430212D01*
X114684020Y-131430212D01*
X114705994Y-131430701D01*
G37*
G36*
X115901815Y-131542320D02*
G01*
X115901815Y-131444378D01*
X115887893Y-131430212D01*
X115159805Y-131430212D01*
X115145639Y-131444378D01*
X115145639Y-131542320D01*
X115159805Y-131556242D01*
X115439707Y-131556242D01*
X115453873Y-131570408D01*
X115453873Y-132401078D01*
X115467795Y-132415000D01*
X115579903Y-132415000D01*
X115593825Y-132401078D01*
X115593825Y-131570408D01*
X115607746Y-131556242D01*
X115887893Y-131556242D01*
X115901815Y-131542320D01*
G37*
D11*
G36*
X107223133Y-121577076D02*
G01*
X107223133Y-121055617D01*
X107130321Y-120961584D01*
X105939637Y-120961584D01*
X105893231Y-120915177D01*
X105893231Y-119726936D01*
X105800419Y-119632903D01*
X105277739Y-119632903D01*
X105184927Y-119726936D01*
X105184927Y-120915177D01*
X105138521Y-120961584D01*
X103947837Y-120961584D01*
X103855024Y-121055617D01*
X103855024Y-121577076D01*
X103947837Y-121669888D01*
X105138521Y-121669888D01*
X105184927Y-121716294D01*
X105184927Y-122900872D01*
X105277739Y-122993684D01*
X105800419Y-122993684D01*
X105893231Y-122900872D01*
X105893231Y-121716294D01*
X105939637Y-121669888D01*
X107130321Y-121669888D01*
X107223133Y-121577076D01*
G37*
D10*
G36*
X109963377Y-131430459D02*
G01*
X109981116Y-131431204D01*
X109998424Y-131432452D01*
X110015292Y-131434208D01*
X110031709Y-131436479D01*
X110047666Y-131439269D01*
X110063152Y-131442583D01*
X110078157Y-131446428D01*
X110092670Y-131450808D01*
X110106681Y-131455729D01*
X110120180Y-131461197D01*
X110133156Y-131467217D01*
X110145600Y-131473793D01*
X110157501Y-131480933D01*
X110168848Y-131488640D01*
X110179632Y-131496921D01*
X110189842Y-131505781D01*
X110199468Y-131515225D01*
X110208499Y-131525259D01*
X110216926Y-131535888D01*
X110224737Y-131547117D01*
X110231924Y-131558953D01*
X110238474Y-131571400D01*
X110244379Y-131584463D01*
X110249628Y-131598149D01*
X110254210Y-131612462D01*
X110258116Y-131627408D01*
X110261334Y-131642993D01*
X110263855Y-131659222D01*
X110265669Y-131676099D01*
X110266764Y-131693632D01*
X110267132Y-131711824D01*
X110266887Y-131726179D01*
X110266158Y-131740118D01*
X110264951Y-131753645D01*
X110263276Y-131766763D01*
X110261138Y-131779473D01*
X110258547Y-131791780D01*
X110255510Y-131803686D01*
X110252035Y-131815192D01*
X110248128Y-131826304D01*
X110243799Y-131837022D01*
X110239054Y-131847350D01*
X110233901Y-131857291D01*
X110228349Y-131866847D01*
X110222404Y-131876021D01*
X110216075Y-131884817D01*
X110209368Y-131893236D01*
X110202293Y-131901281D01*
X110194856Y-131908956D01*
X110187065Y-131916263D01*
X110178928Y-131923204D01*
X110170452Y-131929783D01*
X110161646Y-131936003D01*
X110152517Y-131941865D01*
X110143072Y-131947374D01*
X110133319Y-131952531D01*
X110123267Y-131957339D01*
X110112922Y-131961802D01*
X110102293Y-131965922D01*
X110091386Y-131969701D01*
X110080211Y-131973143D01*
X110068774Y-131976251D01*
X110057083Y-131979026D01*
X110057083Y-131992948D01*
X110253210Y-132302648D01*
X110253210Y-132401078D01*
X110239044Y-132415000D01*
X110183112Y-132415000D01*
X110155024Y-132401078D01*
X109903210Y-132007114D01*
X109875122Y-131992948D01*
X109721005Y-131992948D01*
X109707083Y-132007114D01*
X109707083Y-132401078D01*
X109693161Y-132415000D01*
X109581054Y-132415000D01*
X109567132Y-132401078D01*
X109567132Y-131852997D01*
X109707083Y-131852997D01*
X109721005Y-131867163D01*
X109945220Y-131867163D01*
X109956809Y-131867037D01*
X109967992Y-131866658D01*
X109978773Y-131866019D01*
X109989153Y-131865116D01*
X110008721Y-131862497D01*
X110026717Y-131858759D01*
X110043160Y-131853862D01*
X110058070Y-131847766D01*
X110071467Y-131840428D01*
X110083370Y-131831809D01*
X110093799Y-131821867D01*
X110102773Y-131810562D01*
X110110313Y-131797854D01*
X110116438Y-131783700D01*
X110121167Y-131768062D01*
X110124521Y-131750897D01*
X110126519Y-131732164D01*
X110127016Y-131722198D01*
X110127181Y-131711824D01*
X110127016Y-131701429D01*
X110125688Y-131681857D01*
X110123015Y-131663879D01*
X110118976Y-131647452D01*
X110113551Y-131632535D01*
X110106721Y-131619087D01*
X110098466Y-131607068D01*
X110088767Y-131596435D01*
X110077604Y-131587149D01*
X110064956Y-131579166D01*
X110050805Y-131572448D01*
X110035131Y-131566952D01*
X110017914Y-131562636D01*
X109999134Y-131559461D01*
X109989153Y-131558289D01*
X109978773Y-131557385D01*
X109967992Y-131556747D01*
X109956809Y-131556367D01*
X109945220Y-131556242D01*
X109721005Y-131556242D01*
X109707083Y-131570408D01*
X109707083Y-131852997D01*
X109567132Y-131852997D01*
X109567132Y-131444378D01*
X109581054Y-131430212D01*
X109945220Y-131430212D01*
X109963377Y-131430459D01*
G37*
G36*
X111134927Y-132139738D02*
G01*
X111134519Y-132122301D01*
X111133307Y-132105563D01*
X111131306Y-132089510D01*
X111128531Y-132074126D01*
X111124997Y-132059397D01*
X111120720Y-132045308D01*
X111115716Y-132031844D01*
X111109999Y-132018990D01*
X111103585Y-132006732D01*
X111096489Y-131995054D01*
X111088728Y-131983941D01*
X111080316Y-131973380D01*
X111071268Y-131963354D01*
X111061600Y-131953850D01*
X111051328Y-131944851D01*
X111040466Y-131936345D01*
X111029030Y-131928314D01*
X111017036Y-131920746D01*
X111004499Y-131913624D01*
X110991434Y-131906934D01*
X110977857Y-131900662D01*
X110963783Y-131894792D01*
X110949227Y-131889309D01*
X110934205Y-131884199D01*
X110918732Y-131879446D01*
X110902824Y-131875037D01*
X110886496Y-131870956D01*
X110869763Y-131867188D01*
X110852641Y-131863718D01*
X110835145Y-131860532D01*
X110817290Y-131857614D01*
X110799093Y-131854951D01*
X110781073Y-131852407D01*
X110763782Y-131849847D01*
X110747209Y-131847258D01*
X110731344Y-131844625D01*
X110716176Y-131841931D01*
X110701695Y-131839163D01*
X110687891Y-131836305D01*
X110674754Y-131833343D01*
X110662274Y-131830261D01*
X110650439Y-131827045D01*
X110639241Y-131823679D01*
X110628669Y-131820149D01*
X110618712Y-131816440D01*
X110609361Y-131812536D01*
X110592433Y-131804087D01*
X110577803Y-131794682D01*
X110565390Y-131784201D01*
X110555111Y-131772526D01*
X110546885Y-131759536D01*
X110540630Y-131745112D01*
X110536263Y-131729134D01*
X110533703Y-131711484D01*
X110532868Y-131692041D01*
X110533686Y-131677112D01*
X110536126Y-131662854D01*
X110540168Y-131649306D01*
X110545790Y-131636510D01*
X110552972Y-131624504D01*
X110561694Y-131613331D01*
X110571933Y-131603030D01*
X110583671Y-131593641D01*
X110596885Y-131585206D01*
X110611555Y-131577764D01*
X110627661Y-131571356D01*
X110645182Y-131566023D01*
X110664096Y-131561804D01*
X110674069Y-131560126D01*
X110684384Y-131558741D01*
X110695036Y-131557655D01*
X110706024Y-131556873D01*
X110717344Y-131556400D01*
X110728995Y-131556242D01*
X110745687Y-131556401D01*
X110761653Y-131556880D01*
X110776906Y-131557677D01*
X110791460Y-131558794D01*
X110805326Y-131560229D01*
X110818518Y-131561983D01*
X110831049Y-131564055D01*
X110842931Y-131566446D01*
X110854177Y-131569156D01*
X110864800Y-131572184D01*
X110874813Y-131575530D01*
X110884229Y-131579194D01*
X110901320Y-131587476D01*
X110916177Y-131597030D01*
X110928901Y-131607855D01*
X110939595Y-131619950D01*
X110948362Y-131633314D01*
X110955305Y-131647947D01*
X110960527Y-131663848D01*
X110964129Y-131681016D01*
X110966215Y-131699451D01*
X110966888Y-131719152D01*
X110981054Y-131732829D01*
X111092917Y-131732829D01*
X111107083Y-131719152D01*
X111106635Y-131700293D01*
X111105301Y-131682137D01*
X111103100Y-131664675D01*
X111100051Y-131647902D01*
X111096170Y-131631810D01*
X111091476Y-131616392D01*
X111085987Y-131601643D01*
X111079720Y-131587554D01*
X111072695Y-131574120D01*
X111064928Y-131561334D01*
X111056438Y-131549188D01*
X111047243Y-131537677D01*
X111037360Y-131526793D01*
X111026808Y-131516529D01*
X111015605Y-131506880D01*
X111003768Y-131497837D01*
X110991316Y-131489395D01*
X110978267Y-131481546D01*
X110964638Y-131474285D01*
X110950448Y-131467603D01*
X110935714Y-131461495D01*
X110920455Y-131455953D01*
X110904688Y-131450971D01*
X110888432Y-131446542D01*
X110871704Y-131442660D01*
X110854523Y-131439317D01*
X110836906Y-131436507D01*
X110818872Y-131434223D01*
X110800438Y-131432458D01*
X110781622Y-131431206D01*
X110762442Y-131430460D01*
X110742917Y-131430212D01*
X110719736Y-131430617D01*
X110697448Y-131431811D01*
X110676043Y-131433766D01*
X110655509Y-131436454D01*
X110635838Y-131439845D01*
X110617018Y-131443910D01*
X110599040Y-131448621D01*
X110581892Y-131453950D01*
X110565565Y-131459866D01*
X110550049Y-131466342D01*
X110535333Y-131473348D01*
X110521407Y-131480856D01*
X110508260Y-131488838D01*
X110495883Y-131497263D01*
X110484265Y-131506104D01*
X110473395Y-131515331D01*
X110463264Y-131524916D01*
X110453861Y-131534830D01*
X110445176Y-131545044D01*
X110437198Y-131555530D01*
X110429918Y-131566258D01*
X110423325Y-131577200D01*
X110417409Y-131588327D01*
X110412159Y-131599610D01*
X110407565Y-131611020D01*
X110403617Y-131622529D01*
X110400305Y-131634108D01*
X110397618Y-131645728D01*
X110395546Y-131657360D01*
X110394078Y-131668975D01*
X110393206Y-131680545D01*
X110392917Y-131692041D01*
X110393284Y-131707075D01*
X110394380Y-131721637D01*
X110396194Y-131735731D01*
X110398715Y-131749361D01*
X110401934Y-131762534D01*
X110405840Y-131775254D01*
X110410424Y-131787526D01*
X110415674Y-131799355D01*
X110421580Y-131810746D01*
X110428133Y-131821704D01*
X110435321Y-131832234D01*
X110443136Y-131842342D01*
X110451566Y-131852031D01*
X110460602Y-131861308D01*
X110470232Y-131870176D01*
X110480447Y-131878642D01*
X110491237Y-131886710D01*
X110502592Y-131894385D01*
X110514500Y-131901673D01*
X110526952Y-131908577D01*
X110539938Y-131915104D01*
X110553448Y-131921258D01*
X110567470Y-131927044D01*
X110581995Y-131932467D01*
X110597013Y-131937533D01*
X110612514Y-131942246D01*
X110628486Y-131946611D01*
X110644921Y-131950633D01*
X110661807Y-131954317D01*
X110679135Y-131957669D01*
X110696893Y-131960693D01*
X110715073Y-131963394D01*
X110733110Y-131965939D01*
X110750497Y-131968501D01*
X110767239Y-131971098D01*
X110783340Y-131973747D01*
X110798806Y-131976465D01*
X110813643Y-131979271D01*
X110827854Y-131982181D01*
X110841446Y-131985212D01*
X110854423Y-131988383D01*
X110866791Y-131991710D01*
X110878554Y-131995212D01*
X110889717Y-131998905D01*
X110900287Y-132002806D01*
X110910267Y-132006934D01*
X110919663Y-132011305D01*
X110928480Y-132015937D01*
X110944398Y-132026054D01*
X110958062Y-132037423D01*
X110969511Y-132050185D01*
X110978787Y-132064477D01*
X110985931Y-132080439D01*
X110990983Y-132098210D01*
X110993984Y-132117930D01*
X110994729Y-132128564D01*
X110994976Y-132139738D01*
X110994691Y-132149729D01*
X110992451Y-132168538D01*
X110988069Y-132185816D01*
X110981647Y-132201601D01*
X110973288Y-132215934D01*
X110963093Y-132228854D01*
X110951167Y-132240401D01*
X110937609Y-132250615D01*
X110922524Y-132259535D01*
X110906013Y-132267202D01*
X110888178Y-132273654D01*
X110878797Y-132276437D01*
X110869123Y-132278932D01*
X110859169Y-132281143D01*
X110848948Y-132283075D01*
X110838474Y-132284734D01*
X110827757Y-132286124D01*
X110816813Y-132287250D01*
X110805652Y-132288117D01*
X110794289Y-132288730D01*
X110782736Y-132289094D01*
X110771005Y-132289214D01*
X110755457Y-132289054D01*
X110740326Y-132288570D01*
X110725615Y-132287756D01*
X110711330Y-132286609D01*
X110697477Y-132285124D01*
X110684060Y-132283294D01*
X110671084Y-132281117D01*
X110658554Y-132278586D01*
X110646476Y-132275697D01*
X110634854Y-132272445D01*
X110623695Y-132268825D01*
X110613002Y-132264833D01*
X110602781Y-132260462D01*
X110593037Y-132255710D01*
X110583775Y-132250569D01*
X110575000Y-132245037D01*
X110566718Y-132239107D01*
X110558933Y-132232776D01*
X110551650Y-132226037D01*
X110544875Y-132218887D01*
X110538613Y-132211320D01*
X110532868Y-132203332D01*
X110527647Y-132194917D01*
X110522953Y-132186071D01*
X110518793Y-132176789D01*
X110515171Y-132167066D01*
X110512092Y-132156897D01*
X110509561Y-132146278D01*
X110507584Y-132135202D01*
X110506165Y-132123666D01*
X110505311Y-132111665D01*
X110505024Y-132099193D01*
X110490858Y-132085516D01*
X110378995Y-132085516D01*
X110364829Y-132099193D01*
X110365278Y-132118043D01*
X110366618Y-132136349D01*
X110368835Y-132154108D01*
X110371916Y-132171317D01*
X110375850Y-132187972D01*
X110380622Y-132204069D01*
X110386220Y-132219605D01*
X110392631Y-132234577D01*
X110399842Y-132248979D01*
X110407841Y-132262810D01*
X110416615Y-132276064D01*
X110426151Y-132288740D01*
X110436435Y-132300832D01*
X110447456Y-132312338D01*
X110459200Y-132323253D01*
X110471655Y-132333575D01*
X110484807Y-132343299D01*
X110498644Y-132352422D01*
X110513153Y-132360941D01*
X110528321Y-132368850D01*
X110544136Y-132376148D01*
X110560584Y-132382831D01*
X110577653Y-132388894D01*
X110595329Y-132394334D01*
X110613601Y-132399148D01*
X110632455Y-132403332D01*
X110651878Y-132406882D01*
X110671857Y-132409795D01*
X110692380Y-132412066D01*
X110713434Y-132413693D01*
X110735006Y-132414672D01*
X110757083Y-132415000D01*
X110781568Y-132414634D01*
X110805159Y-132413550D01*
X110827861Y-132411767D01*
X110849684Y-132409303D01*
X110870635Y-132406176D01*
X110890721Y-132402406D01*
X110909951Y-132398011D01*
X110928332Y-132393010D01*
X110945871Y-132387421D01*
X110962578Y-132381264D01*
X110978458Y-132374557D01*
X110993521Y-132367318D01*
X111007774Y-132359566D01*
X111021224Y-132351321D01*
X111033879Y-132342600D01*
X111045748Y-132333422D01*
X111056837Y-132323807D01*
X111067154Y-132313772D01*
X111076708Y-132303337D01*
X111085506Y-132292520D01*
X111093556Y-132281340D01*
X111100865Y-132269816D01*
X111107441Y-132257965D01*
X111113292Y-132245808D01*
X111118426Y-132233362D01*
X111122850Y-132220647D01*
X111126572Y-132207680D01*
X111129601Y-132194482D01*
X111131942Y-132181069D01*
X111133606Y-132167462D01*
X111134598Y-132153679D01*
X111134927Y-132139738D01*
G37*
G36*
X111974878Y-131542320D02*
G01*
X111974878Y-131444378D01*
X111960956Y-131430212D01*
X111232868Y-131430212D01*
X111218702Y-131444378D01*
X111218702Y-131542320D01*
X111232868Y-131556242D01*
X111512770Y-131556242D01*
X111526936Y-131570408D01*
X111526936Y-132401078D01*
X111540858Y-132415000D01*
X111652966Y-132415000D01*
X111666888Y-132401078D01*
X111666888Y-131570408D01*
X111680809Y-131556242D01*
X111960956Y-131556242D01*
X111974878Y-131542320D01*
G37*
D11*
G36*
X144443475Y-121577076D02*
G01*
X144443475Y-121055617D01*
X144349442Y-120961584D01*
X141727495Y-120961584D01*
X141634682Y-121055617D01*
X141634682Y-121577076D01*
X141727495Y-121669888D01*
X144349442Y-121669888D01*
X144443475Y-121577076D01*
G37*
D10*
G36*
X133458492Y-131430459D02*
G01*
X133476230Y-131431204D01*
X133493539Y-131432452D01*
X133510407Y-131434208D01*
X133526824Y-131436479D01*
X133542781Y-131439269D01*
X133558267Y-131442583D01*
X133573271Y-131446428D01*
X133587784Y-131450808D01*
X133601796Y-131455729D01*
X133615294Y-131461197D01*
X133628271Y-131467217D01*
X133640715Y-131473793D01*
X133652615Y-131480933D01*
X133663963Y-131488640D01*
X133674747Y-131496921D01*
X133684957Y-131505781D01*
X133694583Y-131515225D01*
X133703614Y-131525259D01*
X133712041Y-131535888D01*
X133719852Y-131547117D01*
X133727038Y-131558953D01*
X133733589Y-131571400D01*
X133739494Y-131584463D01*
X133744743Y-131598149D01*
X133749325Y-131612462D01*
X133753230Y-131627408D01*
X133756449Y-131642993D01*
X133758970Y-131659222D01*
X133760784Y-131676099D01*
X133761879Y-131693632D01*
X133762247Y-131711824D01*
X133761840Y-131729994D01*
X133760631Y-131747503D01*
X133758637Y-131764358D01*
X133755878Y-131780564D01*
X133752370Y-131796127D01*
X133748132Y-131811051D01*
X133743181Y-131825342D01*
X133737536Y-131839006D01*
X133731215Y-131852048D01*
X133724234Y-131864474D01*
X133716613Y-131876289D01*
X133708370Y-131887499D01*
X133699521Y-131898108D01*
X133690086Y-131908123D01*
X133680081Y-131917549D01*
X133669526Y-131926392D01*
X133658438Y-131934656D01*
X133646834Y-131942347D01*
X133634733Y-131949471D01*
X133622153Y-131956034D01*
X133609111Y-131962040D01*
X133595627Y-131967495D01*
X133581716Y-131972405D01*
X133567398Y-131976774D01*
X133552691Y-131980610D01*
X133537611Y-131983916D01*
X133522178Y-131986698D01*
X133506409Y-131988963D01*
X133490323Y-131990714D01*
X133473936Y-131991959D01*
X133457267Y-131992702D01*
X133440335Y-131992948D01*
X133202198Y-131992948D01*
X133188276Y-132007114D01*
X133188276Y-132401078D01*
X133174354Y-132415000D01*
X133062247Y-132415000D01*
X133048325Y-132401078D01*
X133048325Y-131852997D01*
X133188276Y-131852997D01*
X133202198Y-131867163D01*
X133440335Y-131867163D01*
X133451945Y-131867037D01*
X133463147Y-131866658D01*
X133473944Y-131866019D01*
X133484337Y-131865116D01*
X133503926Y-131862497D01*
X133521935Y-131858759D01*
X133538383Y-131853862D01*
X133553292Y-131847766D01*
X133566683Y-131840428D01*
X133578576Y-131831809D01*
X133588992Y-131821867D01*
X133597952Y-131810562D01*
X133605477Y-131797854D01*
X133611587Y-131783700D01*
X133616303Y-131768062D01*
X133619646Y-131750897D01*
X133621637Y-131732164D01*
X133622131Y-131722198D01*
X133622296Y-131711824D01*
X133622131Y-131701429D01*
X133620809Y-131681857D01*
X133618145Y-131663879D01*
X133614118Y-131647452D01*
X133608708Y-131632535D01*
X133601893Y-131619087D01*
X133593653Y-131607068D01*
X133583968Y-131596435D01*
X133572815Y-131587149D01*
X133560176Y-131579166D01*
X133546029Y-131572448D01*
X133530353Y-131566952D01*
X133513127Y-131562636D01*
X133494331Y-131559461D01*
X133484337Y-131558289D01*
X133473944Y-131557385D01*
X133463147Y-131556747D01*
X133451945Y-131556367D01*
X133440335Y-131556242D01*
X133202198Y-131556242D01*
X133188276Y-131570408D01*
X133188276Y-131852997D01*
X133048325Y-131852997D01*
X133048325Y-131444378D01*
X133062247Y-131430212D01*
X133440335Y-131430212D01*
X133458492Y-131430459D01*
G37*
G36*
X134298443Y-131430459D02*
G01*
X134316182Y-131431204D01*
X134333490Y-131432452D01*
X134350358Y-131434208D01*
X134366775Y-131436479D01*
X134382732Y-131439269D01*
X134398218Y-131442583D01*
X134413223Y-131446428D01*
X134427736Y-131450808D01*
X134441747Y-131455729D01*
X134455246Y-131461197D01*
X134468222Y-131467217D01*
X134480666Y-131473793D01*
X134492567Y-131480933D01*
X134503914Y-131488640D01*
X134514698Y-131496921D01*
X134524908Y-131505781D01*
X134534534Y-131515225D01*
X134543565Y-131525259D01*
X134551992Y-131535888D01*
X134559803Y-131547117D01*
X134566990Y-131558953D01*
X134573540Y-131571400D01*
X134579445Y-131584463D01*
X134584694Y-131598149D01*
X134589276Y-131612462D01*
X134593182Y-131627408D01*
X134596400Y-131642993D01*
X134598921Y-131659222D01*
X134600735Y-131676099D01*
X134601830Y-131693632D01*
X134602198Y-131711824D01*
X134601953Y-131726179D01*
X134601224Y-131740118D01*
X134600017Y-131753645D01*
X134598342Y-131766763D01*
X134596204Y-131779473D01*
X134593613Y-131791780D01*
X134590576Y-131803686D01*
X134587101Y-131815192D01*
X134583194Y-131826304D01*
X134578865Y-131837022D01*
X134574120Y-131847350D01*
X134568967Y-131857291D01*
X134563415Y-131866847D01*
X134557470Y-131876021D01*
X134551141Y-131884817D01*
X134544434Y-131893236D01*
X134537359Y-131901281D01*
X134529922Y-131908956D01*
X134522131Y-131916263D01*
X134513994Y-131923204D01*
X134505518Y-131929783D01*
X134496712Y-131936003D01*
X134487583Y-131941865D01*
X134478138Y-131947374D01*
X134468385Y-131952531D01*
X134458333Y-131957339D01*
X134447988Y-131961802D01*
X134437359Y-131965922D01*
X134426452Y-131969701D01*
X134415277Y-131973143D01*
X134403840Y-131976251D01*
X134392149Y-131979026D01*
X134392149Y-131992948D01*
X134588276Y-132302648D01*
X134588276Y-132401078D01*
X134574110Y-132415000D01*
X134518178Y-132415000D01*
X134490090Y-132401078D01*
X134238276Y-132007114D01*
X134210188Y-131992948D01*
X134056071Y-131992948D01*
X134042149Y-132007114D01*
X134042149Y-132401078D01*
X134028227Y-132415000D01*
X133916120Y-132415000D01*
X133902198Y-132401078D01*
X133902198Y-131852997D01*
X134042149Y-131852997D01*
X134056071Y-131867163D01*
X134280286Y-131867163D01*
X134291875Y-131867037D01*
X134303058Y-131866658D01*
X134313839Y-131866019D01*
X134324219Y-131865116D01*
X134343787Y-131862497D01*
X134361783Y-131858759D01*
X134378226Y-131853862D01*
X134393136Y-131847766D01*
X134406533Y-131840428D01*
X134418436Y-131831809D01*
X134428865Y-131821867D01*
X134437839Y-131810562D01*
X134445379Y-131797854D01*
X134451504Y-131783700D01*
X134456233Y-131768062D01*
X134459587Y-131750897D01*
X134461585Y-131732164D01*
X134462082Y-131722198D01*
X134462247Y-131711824D01*
X134462082Y-131701429D01*
X134460754Y-131681857D01*
X134458081Y-131663879D01*
X134454042Y-131647452D01*
X134448617Y-131632535D01*
X134441787Y-131619087D01*
X134433532Y-131607068D01*
X134423833Y-131596435D01*
X134412670Y-131587149D01*
X134400022Y-131579166D01*
X134385871Y-131572448D01*
X134370197Y-131566952D01*
X134352980Y-131562636D01*
X134334200Y-131559461D01*
X134324219Y-131558289D01*
X134313839Y-131557385D01*
X134303058Y-131556747D01*
X134291875Y-131556367D01*
X134280286Y-131556242D01*
X134056071Y-131556242D01*
X134042149Y-131570408D01*
X134042149Y-131852997D01*
X133902198Y-131852997D01*
X133902198Y-131444378D01*
X133916120Y-131430212D01*
X134280286Y-131430212D01*
X134298443Y-131430459D01*
G37*
G36*
X135301954Y-132077212D02*
G01*
X135301709Y-132089467D01*
X135300979Y-132101408D01*
X135299773Y-132113030D01*
X135298098Y-132124329D01*
X135295961Y-132135298D01*
X135293371Y-132145934D01*
X135290335Y-132156231D01*
X135286860Y-132166185D01*
X135282955Y-132175790D01*
X135278628Y-132185042D01*
X135273886Y-132193935D01*
X135268736Y-132202465D01*
X135263187Y-132210627D01*
X135257246Y-132218416D01*
X135244221Y-132232855D01*
X135229721Y-132245743D01*
X135213809Y-132257040D01*
X135205343Y-132262080D01*
X135196547Y-132266707D01*
X135187429Y-132270917D01*
X135177997Y-132274705D01*
X135168258Y-132278065D01*
X135158220Y-132280994D01*
X135147891Y-132283485D01*
X135137278Y-132285535D01*
X135126390Y-132287137D01*
X135115234Y-132288288D01*
X135103818Y-132288982D01*
X135092149Y-132289214D01*
X135077906Y-132288903D01*
X135064077Y-132287961D01*
X135050663Y-132286382D01*
X135037668Y-132284158D01*
X135025094Y-132281279D01*
X135012943Y-132277738D01*
X135001218Y-132273527D01*
X134989922Y-132268637D01*
X134979057Y-132263060D01*
X134968625Y-132256788D01*
X134958630Y-132249812D01*
X134949074Y-132242125D01*
X134939959Y-132233718D01*
X134931287Y-132224583D01*
X134923063Y-132214712D01*
X134915287Y-132204096D01*
X134907962Y-132192727D01*
X134901092Y-132180597D01*
X134894678Y-132167699D01*
X134888724Y-132154022D01*
X134883231Y-132139560D01*
X134878202Y-132124304D01*
X134873641Y-132108246D01*
X134869548Y-132091378D01*
X134865928Y-132073691D01*
X134862782Y-132055177D01*
X134860113Y-132035828D01*
X134857923Y-132015636D01*
X134856216Y-131994592D01*
X134854993Y-131972689D01*
X134854258Y-131949917D01*
X134854012Y-131926270D01*
X134854219Y-131902279D01*
X134854844Y-131879167D01*
X134855895Y-131856926D01*
X134857380Y-131835547D01*
X134859306Y-131815024D01*
X134861681Y-131795348D01*
X134864512Y-131776512D01*
X134867808Y-131758509D01*
X134871576Y-131741330D01*
X134875823Y-131724969D01*
X134880558Y-131709416D01*
X134885787Y-131694666D01*
X134891519Y-131680709D01*
X134897761Y-131667539D01*
X134904521Y-131655148D01*
X134911806Y-131643528D01*
X134919625Y-131632671D01*
X134927984Y-131622571D01*
X134936891Y-131613218D01*
X134946355Y-131604606D01*
X134956382Y-131596727D01*
X134966980Y-131589573D01*
X134978158Y-131583137D01*
X134989922Y-131577411D01*
X135002280Y-131572387D01*
X135015241Y-131568057D01*
X135028810Y-131564415D01*
X135042998Y-131561452D01*
X135057809Y-131559161D01*
X135073254Y-131557534D01*
X135089338Y-131556563D01*
X135106071Y-131556242D01*
X135118906Y-131556441D01*
X135131181Y-131557033D01*
X135142907Y-131558011D01*
X135154098Y-131559368D01*
X135164766Y-131561095D01*
X135174924Y-131563186D01*
X135184585Y-131565632D01*
X135202467Y-131571563D01*
X135218513Y-131578828D01*
X135232827Y-131587367D01*
X135245511Y-131597121D01*
X135256666Y-131608029D01*
X135266396Y-131620032D01*
X135274802Y-131633071D01*
X135281988Y-131647085D01*
X135288054Y-131662014D01*
X135293104Y-131677800D01*
X135297240Y-131694382D01*
X135300564Y-131711700D01*
X135301954Y-131720617D01*
X135316120Y-131734295D01*
X135427983Y-131734295D01*
X135442149Y-131720617D01*
X135440654Y-131707729D01*
X135438809Y-131694775D01*
X135436592Y-131681789D01*
X135433979Y-131668799D01*
X135430947Y-131655838D01*
X135427473Y-131642936D01*
X135423534Y-131630125D01*
X135419106Y-131617436D01*
X135414167Y-131604899D01*
X135408693Y-131592547D01*
X135402661Y-131580409D01*
X135396047Y-131568517D01*
X135388830Y-131556903D01*
X135380985Y-131545596D01*
X135372489Y-131534629D01*
X135363320Y-131524032D01*
X135353453Y-131513837D01*
X135342867Y-131504074D01*
X135331537Y-131494774D01*
X135319441Y-131485970D01*
X135306555Y-131477691D01*
X135292856Y-131469969D01*
X135278322Y-131462835D01*
X135262928Y-131456320D01*
X135246652Y-131450455D01*
X135229471Y-131445271D01*
X135211361Y-131440799D01*
X135192299Y-131437071D01*
X135172262Y-131434117D01*
X135151228Y-131431968D01*
X135129171Y-131430657D01*
X135106071Y-131430212D01*
X135082770Y-131430663D01*
X135060130Y-131432019D01*
X135038158Y-131434286D01*
X135016858Y-131437472D01*
X134996236Y-131441584D01*
X134976295Y-131446626D01*
X134957042Y-131452607D01*
X134938482Y-131459533D01*
X134920619Y-131467410D01*
X134903460Y-131476245D01*
X134887008Y-131486044D01*
X134871269Y-131496815D01*
X134856248Y-131508563D01*
X134841950Y-131521295D01*
X134828380Y-131535018D01*
X134815544Y-131549739D01*
X134803446Y-131565463D01*
X134792092Y-131582198D01*
X134781486Y-131599950D01*
X134771635Y-131618725D01*
X134762542Y-131638531D01*
X134754213Y-131659374D01*
X134746653Y-131681260D01*
X134739867Y-131704196D01*
X134733860Y-131728188D01*
X134728638Y-131753243D01*
X134724205Y-131779369D01*
X134720567Y-131806570D01*
X134717728Y-131834854D01*
X134715694Y-131864228D01*
X134714470Y-131894697D01*
X134714061Y-131926270D01*
X134714470Y-131957262D01*
X134715691Y-131987182D01*
X134717717Y-132016037D01*
X134720540Y-132043831D01*
X134724152Y-132070571D01*
X134728546Y-132096261D01*
X134733715Y-132120909D01*
X134739649Y-132144520D01*
X134746343Y-132167099D01*
X134753788Y-132188652D01*
X134761976Y-132209185D01*
X134770901Y-132228705D01*
X134780553Y-132247216D01*
X134790926Y-132264724D01*
X134802012Y-132281235D01*
X134813804Y-132296755D01*
X134826293Y-132311290D01*
X134839472Y-132324846D01*
X134853333Y-132337427D01*
X134867870Y-132349041D01*
X134883073Y-132359692D01*
X134898936Y-132369387D01*
X134915450Y-132378132D01*
X134932609Y-132385931D01*
X134950404Y-132392791D01*
X134968828Y-132398718D01*
X134987873Y-132403717D01*
X135007532Y-132407794D01*
X135027796Y-132410955D01*
X135048659Y-132413206D01*
X135070113Y-132414552D01*
X135092149Y-132415000D01*
X135102514Y-132414837D01*
X135112634Y-132414358D01*
X135122509Y-132413571D01*
X135141524Y-132411116D01*
X135159559Y-132407556D01*
X135176612Y-132402971D01*
X135192683Y-132397444D01*
X135207771Y-132391057D01*
X135221875Y-132383891D01*
X135234996Y-132376029D01*
X135247131Y-132367553D01*
X135258281Y-132358544D01*
X135268444Y-132349084D01*
X135277621Y-132339256D01*
X135285809Y-132329141D01*
X135293009Y-132318821D01*
X135299220Y-132308378D01*
X135301954Y-132303136D01*
X135316120Y-132303136D01*
X135330042Y-132387156D01*
X135343963Y-132415000D01*
X135427983Y-132415000D01*
X135442149Y-132401078D01*
X135442149Y-131912348D01*
X135427983Y-131898426D01*
X135064061Y-131898426D01*
X135050139Y-131912348D01*
X135050139Y-132010289D01*
X135064061Y-132024211D01*
X135288032Y-132024211D01*
X135301954Y-132038377D01*
X135301954Y-132077212D01*
G37*
D12*
%TO.C,C76*%
X167110000Y-134892164D02*
X167110000Y-135107836D01*
X166390000Y-134892164D02*
X166390000Y-135107836D01*
%TO.C,C36*%
X80440000Y-71800000D02*
X80440000Y-71300000D01*
X80190000Y-71550000D02*
X80690000Y-71550000D01*
X80804437Y-71060000D02*
X80940000Y-71060000D01*
X80804437Y-71060000D02*
X79740000Y-69995563D01*
X83195563Y-71060000D02*
X83060000Y-71060000D01*
X83195563Y-71060000D02*
X84260000Y-69995563D01*
X79740000Y-69995563D02*
X79740000Y-66540000D01*
X84260000Y-69995563D02*
X84260000Y-66540000D01*
X79740000Y-66540000D02*
X80940000Y-66540000D01*
X84260000Y-66540000D02*
X83060000Y-66540000D01*
%TO.C,C28*%
X136860000Y-100372164D02*
X136860000Y-100587836D01*
X136140000Y-100372164D02*
X136140000Y-100587836D01*
%TO.C,L3*%
X94510000Y-64240000D02*
X94360000Y-64240000D01*
X94510000Y-64240000D02*
X94510000Y-68760000D01*
X89990000Y-64240000D02*
X90140000Y-64240000D01*
X89990000Y-64240000D02*
X89990000Y-68760000D01*
X94510000Y-68760000D02*
X94360000Y-68760000D01*
X89990000Y-68760000D02*
X90140000Y-68760000D01*
%TO.C,C13*%
X109607836Y-107360000D02*
X109392164Y-107360000D01*
X109607836Y-106640000D02*
X109392164Y-106640000D01*
%TO.C,J16*%
X145700000Y-153000000D02*
X145700000Y-151200000D01*
X145700000Y-153000000D02*
X139300000Y-153000000D01*
X145700000Y-140900000D02*
X145700000Y-141400000D01*
X145000000Y-155000000D02*
X145000000Y-153000000D01*
X145000000Y-155000000D02*
X142500000Y-155000000D01*
X144100000Y-151900000D02*
X144100000Y-153000000D01*
X144100000Y-151900000D02*
X140900000Y-151900000D01*
X142500000Y-155000000D02*
X140000000Y-155000000D01*
X140900000Y-151900000D02*
X140900000Y-153000000D01*
X140000000Y-155000000D02*
X140000000Y-153000000D01*
X139800000Y-140900000D02*
X145700000Y-140900000D01*
X139300000Y-153000000D02*
X139300000Y-151200000D01*
%TO.C,D14*%
X77562959Y-136350000D02*
X77562959Y-139650000D01*
X77562959Y-136350000D02*
X83072959Y-136350000D01*
X77562959Y-139650000D02*
X83072959Y-139650000D01*
%TO.C,R5*%
X140620000Y-65903641D02*
X140620000Y-65596359D01*
X141380000Y-65903641D02*
X141380000Y-65596359D01*
%TO.C,C49*%
X60140000Y-85587836D02*
X60140000Y-85372164D01*
X60860000Y-85587836D02*
X60860000Y-85372164D01*
%TO.C,C58*%
X168110000Y-126642164D02*
X168110000Y-126857836D01*
X167390000Y-126642164D02*
X167390000Y-126857836D01*
%TO.C,C40*%
X59640000Y-77587836D02*
X59640000Y-77372164D01*
X60360000Y-77587836D02*
X60360000Y-77372164D01*
%TO.C,C62*%
X174560000Y-129185000D02*
X174560000Y-127315000D01*
X174560000Y-127315000D02*
X170650000Y-127315000D01*
X170650000Y-129185000D02*
X174560000Y-129185000D01*
%TO.C,R4*%
X124370000Y-116403641D02*
X124370000Y-116096359D01*
X125130000Y-116403641D02*
X125130000Y-116096359D01*
%TO.C,C17*%
X111627836Y-96110000D02*
X111412164Y-96110000D01*
X111627836Y-95390000D02*
X111412164Y-95390000D01*
%TO.C,C26*%
X122142164Y-88890000D02*
X122357836Y-88890000D01*
X122142164Y-89610000D02*
X122357836Y-89610000D01*
%TO.C,R82*%
X167022500Y-137262742D02*
X167022500Y-137737258D01*
X165977500Y-137262742D02*
X165977500Y-137737258D01*
%TO.C,C18*%
X133642164Y-114390000D02*
X133857836Y-114390000D01*
X133642164Y-115110000D02*
X133857836Y-115110000D01*
%TO.C,C12*%
X110607836Y-111360000D02*
X110392164Y-111360000D01*
X110607836Y-110640000D02*
X110392164Y-110640000D01*
%TO.C,C25*%
X111627836Y-107360000D02*
X111412164Y-107360000D01*
X111627836Y-106640000D02*
X111412164Y-106640000D01*
%TO.C,D5*%
X84040000Y-59185000D02*
X85960000Y-59185000D01*
X85960000Y-59185000D02*
X85960000Y-56500000D01*
X84040000Y-56500000D02*
X84040000Y-59185000D01*
%TO.C,U7*%
X135700000Y-140840000D02*
X134110000Y-140840000D01*
X135700000Y-142660000D02*
X134300000Y-142660000D01*
%TO.C,R28*%
X189780000Y-77336359D02*
X189780000Y-77643641D01*
X189020000Y-77336359D02*
X189020000Y-77643641D01*
%TO.C,C63*%
X165860000Y-134892164D02*
X165860000Y-135107836D01*
X165140000Y-134892164D02*
X165140000Y-135107836D01*
%TO.C,C64*%
X164860000Y-134892164D02*
X164860000Y-135107836D01*
X164140000Y-134892164D02*
X164140000Y-135107836D01*
%TO.C,C66*%
X163610000Y-134642164D02*
X163610000Y-134857836D01*
X162890000Y-134642164D02*
X162890000Y-134857836D01*
%TO.C,D10*%
X64850000Y-108510000D02*
X68150000Y-108510000D01*
X64850000Y-108510000D02*
X64850000Y-103000000D01*
X68150000Y-108510000D02*
X68150000Y-103000000D01*
%TO.C,U5*%
X97235000Y-139120000D02*
X97235000Y-131380000D01*
X97235000Y-131380000D02*
X90765000Y-131380000D01*
X95000000Y-139120000D02*
X97235000Y-139120000D01*
X90765000Y-139120000D02*
X93000000Y-139120000D01*
X90765000Y-131380000D02*
X90765000Y-139120000D01*
X95000000Y-139120000D02*
G75*
G03*
X93000000Y-139120000I-1000000J0D01*
G01*
%TO.C,R11*%
X108120000Y-136653641D02*
X108120000Y-136346359D01*
X108880000Y-136653641D02*
X108880000Y-136346359D01*
%TO.C,C10*%
X110607836Y-110360000D02*
X110392164Y-110360000D01*
X110607836Y-109640000D02*
X110392164Y-109640000D01*
%TO.C,C65*%
X162357836Y-133110000D02*
X162142164Y-133110000D01*
X162357836Y-132390000D02*
X162142164Y-132390000D01*
%TO.C,J11*%
X85450000Y-153000000D02*
X85450000Y-151200000D01*
X85450000Y-153000000D02*
X79050000Y-153000000D01*
X85450000Y-140900000D02*
X85450000Y-141400000D01*
X84750000Y-155000000D02*
X84750000Y-153000000D01*
X84750000Y-155000000D02*
X82250000Y-155000000D01*
X83850000Y-151900000D02*
X83850000Y-153000000D01*
X83850000Y-151900000D02*
X80650000Y-151900000D01*
X82250000Y-155000000D02*
X79750000Y-155000000D01*
X80650000Y-151900000D02*
X80650000Y-153000000D01*
X79750000Y-155000000D02*
X79750000Y-153000000D01*
X79550000Y-140900000D02*
X85450000Y-140900000D01*
X79050000Y-153000000D02*
X79050000Y-151200000D01*
%TO.C,D11*%
X101600000Y-132415000D02*
X100400000Y-132415000D01*
X101600000Y-134375000D02*
X101600000Y-132415000D01*
X100400000Y-134375000D02*
X100400000Y-132415000D01*
D13*
%TO.C,*%
X83100000Y-59750000D02*
G75*
G03*
X83100000Y-59750000I-100000J0D01*
G01*
D12*
%TO.C,R8*%
X81735000Y-57272936D02*
X81735000Y-57727064D01*
X80265000Y-57272936D02*
X80265000Y-57727064D01*
%TO.C,SW1*%
X109180000Y-137570000D02*
X109180000Y-133430000D01*
X109480000Y-137570000D02*
X109180000Y-137570000D01*
X112320000Y-137570000D02*
X112020000Y-137570000D01*
X109180000Y-133430000D02*
X109480000Y-133430000D01*
X112020000Y-133430000D02*
X112320000Y-133430000D01*
X112320000Y-133430000D02*
X112320000Y-137570000D01*
%TO.C,R42*%
X127630000Y-143596359D02*
X127630000Y-143903641D01*
X126870000Y-143596359D02*
X126870000Y-143903641D01*
%TO.C,C56*%
X178860000Y-126642164D02*
X178860000Y-126857836D01*
X178140000Y-126642164D02*
X178140000Y-126857836D01*
%TO.C,R47*%
X68815000Y-138227064D02*
X68815000Y-137772936D01*
X70285000Y-138227064D02*
X70285000Y-137772936D01*
%TO.C,J5*%
X182750000Y-104000000D02*
X182750000Y-105000000D01*
X182750000Y-105000000D02*
X183750000Y-104500000D01*
X183750000Y-104500000D02*
X182750000Y-104000000D01*
X189370000Y-99290000D02*
X198490000Y-99290000D01*
X189370000Y-104990000D02*
X198490000Y-104990000D01*
X189370000Y-109090000D02*
X198490000Y-109090000D01*
X189370000Y-114790000D02*
X189370000Y-99290000D01*
X198490000Y-99290000D02*
X198490000Y-114790000D01*
X198490000Y-114790000D02*
X189370000Y-114790000D01*
D14*
%TO.C,U12*%
X164500000Y-129000000D02*
X164500000Y-129170000D01*
X164500000Y-129000000D02*
X164670000Y-129000000D01*
X164500000Y-133000000D02*
X164500000Y-132830000D01*
X164500000Y-133000000D02*
X164670000Y-133000000D01*
X168500000Y-129000000D02*
X168330000Y-129000000D01*
X168500000Y-129000000D02*
X168500000Y-129170000D01*
X168500000Y-133000000D02*
X168330000Y-133000000D01*
X168500000Y-133000000D02*
X168500000Y-132830000D01*
D13*
X163680000Y-129600000D02*
G75*
G03*
X163680000Y-129600000I-100000J0D01*
G01*
D12*
%TO.C,C60*%
X174107836Y-124610000D02*
X173892164Y-124610000D01*
X174107836Y-123890000D02*
X173892164Y-123890000D01*
%TO.C,C48*%
X187640000Y-86107836D02*
X187640000Y-85892164D01*
X188360000Y-86107836D02*
X188360000Y-85892164D01*
%TO.C,U8*%
X71600000Y-139160000D02*
X73000000Y-139160000D01*
X73000000Y-136840000D02*
X71100000Y-136840000D01*
%TO.C,R6*%
X139620000Y-65903641D02*
X139620000Y-65596359D01*
X140380000Y-65903641D02*
X140380000Y-65596359D01*
%TO.C,C27*%
X136892164Y-94390000D02*
X137107836Y-94390000D01*
X136892164Y-95110000D02*
X137107836Y-95110000D01*
%TO.C,C14*%
X122857836Y-115110000D02*
X122642164Y-115110000D01*
X122857836Y-114390000D02*
X122642164Y-114390000D01*
%TO.C,C46*%
X175860000Y-54392164D02*
X175860000Y-54607836D01*
X175140000Y-54392164D02*
X175140000Y-54607836D01*
%TO.C,R51*%
X62880000Y-85346359D02*
X62880000Y-85653641D01*
X62120000Y-85346359D02*
X62120000Y-85653641D01*
%TO.C,R79*%
X173012742Y-133977500D02*
X173487258Y-133977500D01*
X173012742Y-135022500D02*
X173487258Y-135022500D01*
%TO.C,R3*%
X123370000Y-116403641D02*
X123370000Y-116096359D01*
X124130000Y-116403641D02*
X124130000Y-116096359D01*
%TO.C,R57*%
X126370000Y-132403641D02*
X126370000Y-132096359D01*
X127130000Y-132403641D02*
X127130000Y-132096359D01*
%TO.C,R48*%
X75785000Y-137772936D02*
X75785000Y-138227064D01*
X74315000Y-137772936D02*
X74315000Y-138227064D01*
%TO.C,R34*%
X62380000Y-77326359D02*
X62380000Y-77633641D01*
X61620000Y-77326359D02*
X61620000Y-77633641D01*
%TO.C,R54*%
X122370000Y-132403641D02*
X122370000Y-132096359D01*
X123130000Y-132403641D02*
X123130000Y-132096359D01*
%TO.C,R75*%
X168272500Y-124012742D02*
X168272500Y-124487258D01*
X167227500Y-124012742D02*
X167227500Y-124487258D01*
%TO.C,J19*%
X181700000Y-153000000D02*
X181700000Y-151200000D01*
X181700000Y-153000000D02*
X175300000Y-153000000D01*
X181700000Y-140900000D02*
X181700000Y-141400000D01*
X181000000Y-155000000D02*
X181000000Y-153000000D01*
X181000000Y-155000000D02*
X178500000Y-155000000D01*
X180100000Y-151900000D02*
X180100000Y-153000000D01*
X180100000Y-151900000D02*
X176900000Y-151900000D01*
X178500000Y-155000000D02*
X176000000Y-155000000D01*
X176900000Y-151900000D02*
X176900000Y-153000000D01*
X176000000Y-155000000D02*
X176000000Y-153000000D01*
X175800000Y-140900000D02*
X181700000Y-140900000D01*
X175300000Y-153000000D02*
X175300000Y-151200000D01*
%TO.C,U2*%
X114140000Y-92390000D02*
X114140000Y-93340000D01*
X114140000Y-93340000D02*
X112850000Y-93340000D01*
X114140000Y-112610000D02*
X114140000Y-111660000D01*
X115090000Y-92390000D02*
X114140000Y-92390000D01*
X115090000Y-112610000D02*
X114140000Y-112610000D01*
X133410000Y-92390000D02*
X134360000Y-92390000D01*
X133410000Y-112610000D02*
X134360000Y-112610000D01*
X134360000Y-92390000D02*
X134360000Y-93340000D01*
X134360000Y-112610000D02*
X134360000Y-111660000D01*
%TO.C,J8*%
X109450000Y-153000000D02*
X109450000Y-151200000D01*
X109450000Y-153000000D02*
X103050000Y-153000000D01*
X109450000Y-140900000D02*
X109450000Y-141400000D01*
X108750000Y-155000000D02*
X108750000Y-153000000D01*
X108750000Y-155000000D02*
X106250000Y-155000000D01*
X107850000Y-151900000D02*
X107850000Y-153000000D01*
X107850000Y-151900000D02*
X104650000Y-151900000D01*
X106250000Y-155000000D02*
X103750000Y-155000000D01*
X104650000Y-151900000D02*
X104650000Y-153000000D01*
X103750000Y-155000000D02*
X103750000Y-153000000D01*
X103550000Y-140900000D02*
X109450000Y-140900000D01*
X103050000Y-153000000D02*
X103050000Y-151200000D01*
%TO.C,C42*%
X60640000Y-77587836D02*
X60640000Y-77372164D01*
X61360000Y-77587836D02*
X61360000Y-77372164D01*
%TO.C,C73*%
X170642164Y-133890000D02*
X170857836Y-133890000D01*
X170642164Y-134610000D02*
X170857836Y-134610000D01*
%TO.C,SW2*%
X112680000Y-137570000D02*
X112680000Y-133430000D01*
X112980000Y-137570000D02*
X112680000Y-137570000D01*
X115820000Y-137570000D02*
X115520000Y-137570000D01*
X112680000Y-133430000D02*
X112980000Y-133430000D01*
X115520000Y-133430000D02*
X115820000Y-133430000D01*
X115820000Y-133430000D02*
X115820000Y-137570000D01*
%TO.C,J6*%
X65750000Y-110000000D02*
X65750000Y-109000000D01*
X65750000Y-109000000D02*
X64750000Y-109500000D01*
X64750000Y-109500000D02*
X65750000Y-110000000D01*
X59130000Y-114710000D02*
X50010000Y-114710000D01*
X59130000Y-109010000D02*
X50010000Y-109010000D01*
X59130000Y-104910000D02*
X50010000Y-104910000D01*
X59130000Y-99210000D02*
X59130000Y-114710000D01*
X50010000Y-114710000D02*
X50010000Y-99210000D01*
X50010000Y-99210000D02*
X59130000Y-99210000D01*
%TO.C,C71*%
X162357836Y-132110000D02*
X162142164Y-132110000D01*
X162357836Y-131390000D02*
X162142164Y-131390000D01*
%TO.C,C41*%
X61140000Y-67107836D02*
X61140000Y-66892164D01*
X61860000Y-67107836D02*
X61860000Y-66892164D01*
%TO.C,R72*%
X176487258Y-128272500D02*
X176012742Y-128272500D01*
X176487258Y-127227500D02*
X176012742Y-127227500D01*
D13*
%TO.C,*%
X87100000Y-59750000D02*
G75*
G03*
X87100000Y-59750000I-100000J0D01*
G01*
D12*
%TO.C,C68*%
X170642164Y-130640000D02*
X170857836Y-130640000D01*
X170642164Y-131360000D02*
X170857836Y-131360000D01*
%TO.C,R58*%
X125370000Y-132393641D02*
X125370000Y-132086359D01*
X126130000Y-132393641D02*
X126130000Y-132086359D01*
D15*
%TO.C,SW9*%
X90000000Y-52863000D02*
X88676000Y-52863000D01*
X90000000Y-52194000D02*
X90000000Y-52863000D01*
X90000000Y-50063000D02*
X90000000Y-50731000D01*
X90000000Y-50063000D02*
X80000000Y-50063000D01*
X87324000Y-52863000D02*
X84176000Y-52863000D01*
X86300000Y-50063000D02*
X86300000Y-48563000D01*
X86300000Y-48563000D02*
X85000000Y-48563000D01*
X85000000Y-48563000D02*
X85000000Y-50063000D01*
X82824000Y-52863000D02*
X82676000Y-52863000D01*
X81324000Y-52863000D02*
X80000000Y-52863000D01*
X80000000Y-52194000D02*
X80000000Y-52863000D01*
X80000000Y-50063000D02*
X80000000Y-50731000D01*
D12*
%TO.C,J1*%
X169505000Y-66885000D02*
X169505000Y-63275000D01*
X169505000Y-61575000D02*
X169505000Y-56875000D01*
X169505000Y-55575000D02*
X169505000Y-53775000D01*
X169055000Y-66885000D02*
X169505000Y-66885000D01*
X168475000Y-50615000D02*
X168675000Y-50815000D01*
X168475000Y-50615000D02*
X166615000Y-50615000D01*
X166615000Y-50615000D02*
X166405000Y-50815000D01*
X166405000Y-50965000D02*
X166405000Y-50815000D01*
X166405000Y-50965000D02*
X160035000Y-50965000D01*
X159525000Y-50615000D02*
X160035000Y-50965000D01*
X157455000Y-66885000D02*
X155535000Y-66885000D01*
X157215000Y-50615000D02*
X159525000Y-50615000D01*
X157215000Y-50615000D02*
X157015000Y-50815000D01*
X157015000Y-50815000D02*
X156755000Y-50815000D01*
X155535000Y-66885000D02*
X155535000Y-52875000D01*
%TO.C,R76*%
X176262742Y-125727500D02*
X176737258Y-125727500D01*
X176262742Y-126772500D02*
X176737258Y-126772500D01*
%TO.C,J9*%
X125550000Y-149100000D02*
X125550000Y-151100000D01*
X125550000Y-153000000D02*
X125550000Y-154900000D01*
X125550000Y-154900000D02*
X134950000Y-154900000D01*
X134950000Y-149100000D02*
X134950000Y-151100000D01*
X134950000Y-153000000D02*
X134950000Y-154900000D01*
%TO.C,U6*%
X104340000Y-133588438D02*
X104340000Y-134988438D01*
X106660000Y-134988438D02*
X106660000Y-133088438D01*
%TO.C,R81*%
X168522500Y-137262742D02*
X168522500Y-137737258D01*
X167477500Y-137262742D02*
X167477500Y-137737258D01*
%TO.C,R73*%
X176262742Y-123977500D02*
X176737258Y-123977500D01*
X176262742Y-125022500D02*
X176737258Y-125022500D01*
%TO.C,R78*%
X171737258Y-126772500D02*
X171262742Y-126772500D01*
X171737258Y-125727500D02*
X171262742Y-125727500D01*
%TO.C,R10*%
X116380000Y-89596359D02*
X116380000Y-89903641D01*
X115620000Y-89596359D02*
X115620000Y-89903641D01*
%TO.C,C15*%
X127857836Y-115110000D02*
X127642164Y-115110000D01*
X127857836Y-114390000D02*
X127642164Y-114390000D01*
%TO.C,R35*%
X63380000Y-77316359D02*
X63380000Y-77623641D01*
X62620000Y-77316359D02*
X62620000Y-77623641D01*
%TO.C,J7*%
X97450000Y-153000000D02*
X97450000Y-151200000D01*
X97450000Y-153000000D02*
X91050000Y-153000000D01*
X97450000Y-140900000D02*
X97450000Y-141400000D01*
X96750000Y-155000000D02*
X96750000Y-153000000D01*
X96750000Y-155000000D02*
X94250000Y-155000000D01*
X95850000Y-151900000D02*
X95850000Y-153000000D01*
X95850000Y-151900000D02*
X92650000Y-151900000D01*
X94250000Y-155000000D02*
X91750000Y-155000000D01*
X92650000Y-151900000D02*
X92650000Y-153000000D01*
X91750000Y-155000000D02*
X91750000Y-153000000D01*
X91550000Y-140900000D02*
X97450000Y-140900000D01*
X91050000Y-153000000D02*
X91050000Y-151200000D01*
%TO.C,C61*%
X174107836Y-126860000D02*
X173892164Y-126860000D01*
X174107836Y-126140000D02*
X173892164Y-126140000D01*
%TO.C,R56*%
X123370000Y-132403641D02*
X123370000Y-132096359D01*
X124130000Y-132403641D02*
X124130000Y-132096359D01*
%TO.C,R24*%
X185020000Y-77653641D02*
X185020000Y-77346359D01*
X185780000Y-77653641D02*
X185780000Y-77346359D01*
%TO.C,C37*%
X187040000Y-77627836D02*
X187040000Y-77412164D01*
X187760000Y-77627836D02*
X187760000Y-77412164D01*
%TO.C,R52*%
X61120000Y-85653641D02*
X61120000Y-85346359D01*
X61880000Y-85653641D02*
X61880000Y-85346359D01*
%TO.C,J10*%
X113550000Y-149100000D02*
X113550000Y-151100000D01*
X113550000Y-153000000D02*
X113550000Y-154900000D01*
X113550000Y-154900000D02*
X122950000Y-154900000D01*
X122950000Y-149100000D02*
X122950000Y-151100000D01*
X122950000Y-153000000D02*
X122950000Y-154900000D01*
%TO.C,R74*%
X166772500Y-124012742D02*
X166772500Y-124487258D01*
X165727500Y-124012742D02*
X165727500Y-124487258D01*
%TO.C,R31*%
X59380000Y-77316359D02*
X59380000Y-77623641D01*
X58620000Y-77316359D02*
X58620000Y-77623641D01*
%TO.C,R50*%
X188620000Y-86153641D02*
X188620000Y-85846359D01*
X189380000Y-86153641D02*
X189380000Y-85846359D01*
%TO.C,R39*%
X107235000Y-137511374D02*
X107235000Y-137965502D01*
X105765000Y-137511374D02*
X105765000Y-137965502D01*
%TO.C,R32*%
X59880000Y-66846359D02*
X59880000Y-67153641D01*
X59120000Y-66846359D02*
X59120000Y-67153641D01*
%TO.C,R20*%
X89735000Y-57272936D02*
X89735000Y-57727064D01*
X88265000Y-57272936D02*
X88265000Y-57727064D01*
%TO.C,C19*%
X136860000Y-105892164D02*
X136860000Y-106107836D01*
X136140000Y-105892164D02*
X136140000Y-106107836D01*
%TO.C,C74*%
X169610000Y-134892164D02*
X169610000Y-135107836D01*
X168890000Y-134892164D02*
X168890000Y-135107836D01*
%TO.C,D9*%
X183650000Y-105490000D02*
X180350000Y-105490000D01*
X183650000Y-105490000D02*
X183650000Y-111000000D01*
X180350000Y-105490000D02*
X180350000Y-111000000D01*
%TO.C,C79*%
X89060000Y-92000000D02*
X89060000Y-92500000D01*
X89310000Y-92250000D02*
X88810000Y-92250000D01*
X88695563Y-92740000D02*
X88560000Y-92740000D01*
X88695563Y-92740000D02*
X89760000Y-93804437D01*
X86304437Y-92740000D02*
X86440000Y-92740000D01*
X86304437Y-92740000D02*
X85240000Y-93804437D01*
X89760000Y-93804437D02*
X89760000Y-97260000D01*
X85240000Y-93804437D02*
X85240000Y-97260000D01*
X89760000Y-97260000D02*
X88560000Y-97260000D01*
X85240000Y-97260000D02*
X86440000Y-97260000D01*
%TO.C,R40*%
X103765000Y-137965502D02*
X103765000Y-137511374D01*
X105235000Y-137965502D02*
X105235000Y-137511374D01*
%TO.C,C45*%
X129985000Y-143488748D02*
X129985000Y-144011252D01*
X128515000Y-143488748D02*
X128515000Y-144011252D01*
%TO.C,R9*%
X108120000Y-134653641D02*
X108120000Y-134346359D01*
X108880000Y-134653641D02*
X108880000Y-134346359D01*
%TO.C,D13*%
X120400000Y-142440000D02*
X119100000Y-142440000D01*
X119100000Y-145560000D02*
X121100000Y-145560000D01*
%TO.C,SW6*%
X132680000Y-137570000D02*
X132680000Y-133430000D01*
X132980000Y-137570000D02*
X132680000Y-137570000D01*
X135820000Y-137570000D02*
X135520000Y-137570000D01*
X132680000Y-133430000D02*
X132980000Y-133430000D01*
X135520000Y-133430000D02*
X135820000Y-133430000D01*
X135820000Y-133430000D02*
X135820000Y-137570000D01*
%TO.C,R77*%
X171737258Y-125022500D02*
X171262742Y-125022500D01*
X171737258Y-123977500D02*
X171262742Y-123977500D01*
%TO.C,R37*%
X136846359Y-135095000D02*
X137153641Y-135095000D01*
X136846359Y-135855000D02*
X137153641Y-135855000D01*
%TO.C,R71*%
X176487258Y-123522500D02*
X176012742Y-123522500D01*
X176487258Y-122477500D02*
X176012742Y-122477500D01*
%TO.C,C39*%
X188040000Y-77607836D02*
X188040000Y-77392164D01*
X188760000Y-77607836D02*
X188760000Y-77392164D01*
%TO.C,D12*%
X132650000Y-142190000D02*
X131350000Y-142190000D01*
X131350000Y-145310000D02*
X133350000Y-145310000D01*
%TO.C,D3*%
X82040000Y-59185000D02*
X83960000Y-59185000D01*
X83960000Y-59185000D02*
X83960000Y-56500000D01*
X82040000Y-56500000D02*
X82040000Y-59185000D01*
%TO.C,R33*%
X60120000Y-67153641D02*
X60120000Y-66846359D01*
X60880000Y-67153641D02*
X60880000Y-66846359D01*
%TO.C,D6*%
X86040000Y-59185000D02*
X87960000Y-59185000D01*
X87960000Y-59185000D02*
X87960000Y-56500000D01*
X86040000Y-56500000D02*
X86040000Y-59185000D01*
%TO.C,R38*%
X101985000Y-136522936D02*
X101985000Y-136977064D01*
X100515000Y-136522936D02*
X100515000Y-136977064D01*
%TO.C,J14*%
X119810000Y-140590000D02*
X119810000Y-139265000D01*
X119745000Y-139265000D02*
X119810000Y-139265000D01*
X119745000Y-139265000D02*
X119745000Y-135735000D01*
X128690000Y-139265000D02*
X128755000Y-139265000D01*
X128755000Y-139265000D02*
X128755000Y-135735000D01*
X119745000Y-135735000D02*
X119810000Y-135735000D01*
X128690000Y-135735000D02*
X128755000Y-135735000D01*
%TO.C,R26*%
X187380000Y-66846359D02*
X187380000Y-67153641D01*
X186620000Y-66846359D02*
X186620000Y-67153641D01*
%TO.C,C16*%
X111627836Y-97110000D02*
X111412164Y-97110000D01*
X111627836Y-96390000D02*
X111412164Y-96390000D01*
%TO.C,J17*%
X169700000Y-153000000D02*
X169700000Y-151200000D01*
X169700000Y-153000000D02*
X163300000Y-153000000D01*
X169700000Y-140900000D02*
X169700000Y-141400000D01*
X169000000Y-155000000D02*
X169000000Y-153000000D01*
X169000000Y-155000000D02*
X166500000Y-155000000D01*
X168100000Y-151900000D02*
X168100000Y-153000000D01*
X168100000Y-151900000D02*
X164900000Y-151900000D01*
X166500000Y-155000000D02*
X164000000Y-155000000D01*
X164900000Y-151900000D02*
X164900000Y-153000000D01*
X164000000Y-155000000D02*
X164000000Y-153000000D01*
X163800000Y-140900000D02*
X169700000Y-140900000D01*
X163300000Y-153000000D02*
X163300000Y-151200000D01*
%TO.C,C20*%
X136860000Y-93142164D02*
X136860000Y-93357836D01*
X136140000Y-93142164D02*
X136140000Y-93357836D01*
%TO.C,J18*%
X157700000Y-153000000D02*
X157700000Y-151200000D01*
X157700000Y-153000000D02*
X151300000Y-153000000D01*
X157700000Y-140900000D02*
X157700000Y-141400000D01*
X157000000Y-155000000D02*
X157000000Y-153000000D01*
X157000000Y-155000000D02*
X154500000Y-155000000D01*
X156100000Y-151900000D02*
X156100000Y-153000000D01*
X156100000Y-151900000D02*
X152900000Y-151900000D01*
X154500000Y-155000000D02*
X152000000Y-155000000D01*
X152900000Y-151900000D02*
X152900000Y-153000000D01*
X152000000Y-155000000D02*
X152000000Y-153000000D01*
X151800000Y-140900000D02*
X157700000Y-140900000D01*
X151300000Y-153000000D02*
X151300000Y-151200000D01*
%TO.C,J13*%
X98720000Y-59020000D02*
X98720000Y-49900000D01*
X122200000Y-59020000D02*
X122200000Y-49900000D01*
X126300000Y-59020000D02*
X126300000Y-49900000D01*
X149780000Y-59020000D02*
X98720000Y-59020000D01*
X98720000Y-49900000D02*
X149780000Y-49900000D01*
X149780000Y-49900000D02*
X149780000Y-59020000D01*
%TO.C,C54*%
X165360000Y-124642164D02*
X165360000Y-124857836D01*
X164640000Y-124642164D02*
X164640000Y-124857836D01*
%TO.C,R1*%
X178765000Y-54727064D02*
X178765000Y-54272936D01*
X180235000Y-54727064D02*
X180235000Y-54272936D01*
%TO.C,C72*%
X170642164Y-132890000D02*
X170857836Y-132890000D01*
X170642164Y-133610000D02*
X170857836Y-133610000D01*
%TO.C,C6*%
X111640000Y-101607836D02*
X111640000Y-101392164D01*
X112360000Y-101607836D02*
X112360000Y-101392164D01*
%TO.C,C47*%
X176860000Y-54392164D02*
X176860000Y-54607836D01*
X176140000Y-54392164D02*
X176140000Y-54607836D01*
%TO.C,R55*%
X121370000Y-132403641D02*
X121370000Y-132096359D01*
X122130000Y-132403641D02*
X122130000Y-132096359D01*
%TO.C,R2*%
X69735000Y-54272936D02*
X69735000Y-54727064D01*
X68265000Y-54272936D02*
X68265000Y-54727064D01*
%TO.C,R7*%
X112380000Y-105356359D02*
X112380000Y-105663641D01*
X111620000Y-105356359D02*
X111620000Y-105663641D01*
%TO.C,C44*%
X86890000Y-137107836D02*
X86890000Y-136892164D01*
X87610000Y-137107836D02*
X87610000Y-136892164D01*
%TO.C,C70*%
X170642164Y-131890000D02*
X170857836Y-131890000D01*
X170642164Y-132610000D02*
X170857836Y-132610000D01*
%TO.C,C53*%
X178140000Y-124107836D02*
X178140000Y-123892164D01*
X178860000Y-124107836D02*
X178860000Y-123892164D01*
%TO.C,C21*%
X127142164Y-89890000D02*
X127357836Y-89890000D01*
X127142164Y-90610000D02*
X127357836Y-90610000D01*
%TO.C,C11*%
X116357836Y-115110000D02*
X116142164Y-115110000D01*
X116357836Y-114390000D02*
X116142164Y-114390000D01*
%TO.C,Y1*%
X111400000Y-102250000D02*
X108100000Y-102250000D01*
X108100000Y-102250000D02*
X108100000Y-106250000D01*
%TO.C,C43*%
X136892164Y-136115000D02*
X137107836Y-136115000D01*
X136892164Y-136835000D02*
X137107836Y-136835000D01*
%TO.C,R30*%
X57620000Y-77633641D02*
X57620000Y-77326359D01*
X58380000Y-77633641D02*
X58380000Y-77326359D01*
%TO.C,R25*%
X186780000Y-77346359D02*
X186780000Y-77653641D01*
X186020000Y-77346359D02*
X186020000Y-77653641D01*
%TO.C,C23*%
X114607836Y-90110000D02*
X114392164Y-90110000D01*
X114607836Y-89390000D02*
X114392164Y-89390000D01*
%TO.C,R44*%
X115620000Y-144153641D02*
X115620000Y-143846359D01*
X116380000Y-144153641D02*
X116380000Y-143846359D01*
%TO.C,R80*%
X170022500Y-137262742D02*
X170022500Y-137737258D01*
X168977500Y-137262742D02*
X168977500Y-137737258D01*
%TO.C,J12*%
X73450000Y-153000000D02*
X73450000Y-151200000D01*
X73450000Y-153000000D02*
X67050000Y-153000000D01*
X73450000Y-140900000D02*
X73450000Y-141400000D01*
X72750000Y-155000000D02*
X72750000Y-153000000D01*
X72750000Y-155000000D02*
X70250000Y-155000000D01*
X71850000Y-151900000D02*
X71850000Y-153000000D01*
X71850000Y-151900000D02*
X68650000Y-151900000D01*
X70250000Y-155000000D02*
X67750000Y-155000000D01*
X68650000Y-151900000D02*
X68650000Y-153000000D01*
X67750000Y-155000000D02*
X67750000Y-153000000D01*
X67550000Y-140900000D02*
X73450000Y-140900000D01*
X67050000Y-153000000D02*
X67050000Y-151200000D01*
%TO.C,R45*%
X116620000Y-144153641D02*
X116620000Y-143846359D01*
X117380000Y-144153641D02*
X117380000Y-143846359D01*
%TO.C,R27*%
X187620000Y-67153641D02*
X187620000Y-66846359D01*
X188380000Y-67153641D02*
X188380000Y-66846359D01*
%TO.C,C75*%
X168360000Y-134892164D02*
X168360000Y-135107836D01*
X167640000Y-134892164D02*
X167640000Y-135107836D01*
%TO.C,C8*%
X112360000Y-108392164D02*
X112360000Y-108607836D01*
X111640000Y-108392164D02*
X111640000Y-108607836D01*
D16*
%TO.C,J4*%
X159449000Y-126549000D02*
X156000000Y-126549000D01*
X159449000Y-116448000D02*
X159449000Y-126549000D01*
X159337000Y-123036000D02*
X159350000Y-123050000D01*
X158700000Y-121169000D02*
X158700000Y-121500000D01*
X156000000Y-129500000D02*
X156000000Y-123073000D01*
X156000000Y-127150000D02*
X146400000Y-127150000D01*
X156000000Y-126549000D02*
X156000000Y-126150000D01*
X156000000Y-119927000D02*
X156000000Y-113500000D01*
X156000000Y-116448000D02*
X159449000Y-116448000D01*
X156000000Y-113500000D02*
X146400000Y-113500000D01*
X146400000Y-129500000D02*
X156000000Y-129500000D01*
X146400000Y-115850000D02*
X156000000Y-115850000D01*
X146400000Y-113500000D02*
X146400000Y-129500000D01*
X158700676Y-121499869D02*
G75*
G03*
X159437000Y-123130000I2172323J-132D01*
G01*
X159425643Y-119527706D02*
G75*
G03*
X158700000Y-121169000I1493363J-1641296D01*
G01*
D12*
%TO.C,R43*%
X126630000Y-143596359D02*
X126630000Y-143903641D01*
X125870000Y-143596359D02*
X125870000Y-143903641D01*
%TO.C,R36*%
X137153641Y-134855000D02*
X136846359Y-134855000D01*
X137153641Y-134095000D02*
X136846359Y-134095000D01*
%TO.C,R49*%
X190380000Y-85846359D02*
X190380000Y-86153641D01*
X189620000Y-85846359D02*
X189620000Y-86153641D01*
%TO.C,R46*%
X66815000Y-138227064D02*
X66815000Y-137772936D01*
X68285000Y-138227064D02*
X68285000Y-137772936D01*
%TO.C,C9*%
X109607836Y-101860000D02*
X109392164Y-101860000D01*
X109607836Y-101140000D02*
X109392164Y-101140000D01*
%TO.C,C67*%
X170642164Y-129640000D02*
X170857836Y-129640000D01*
X170642164Y-130360000D02*
X170857836Y-130360000D01*
%TO.C,C69*%
X162357836Y-131110000D02*
X162142164Y-131110000D01*
X162357836Y-130390000D02*
X162142164Y-130390000D01*
%TO.C,C22*%
X122142164Y-89890000D02*
X122357836Y-89890000D01*
X122142164Y-90610000D02*
X122357836Y-90610000D01*
%TO.C,C57*%
X166610000Y-126642164D02*
X166610000Y-126857836D01*
X165890000Y-126642164D02*
X165890000Y-126857836D01*
%TO.C,C38*%
X188640000Y-67127836D02*
X188640000Y-66912164D01*
X189360000Y-67127836D02*
X189360000Y-66912164D01*
%TO.C,C55*%
X168640000Y-124857836D02*
X168640000Y-124642164D01*
X169360000Y-124857836D02*
X169360000Y-124642164D01*
D16*
%TO.C,J3*%
X89051000Y-116451000D02*
X92500000Y-116451000D01*
X89051000Y-126552000D02*
X89051000Y-116451000D01*
X89163000Y-119964000D02*
X89150000Y-119950000D01*
X89800000Y-121831000D02*
X89800000Y-121500000D01*
X92500000Y-113500000D02*
X92500000Y-119927000D01*
X92500000Y-115850000D02*
X102100000Y-115850000D01*
X92500000Y-116451000D02*
X92500000Y-116850000D01*
X92500000Y-123073000D02*
X92500000Y-129500000D01*
X92500000Y-126552000D02*
X89051000Y-126552000D01*
X92500000Y-129500000D02*
X102100000Y-129500000D01*
X102100000Y-113500000D02*
X92500000Y-113500000D01*
X102100000Y-127150000D02*
X92500000Y-127150000D01*
X102100000Y-129500000D02*
X102100000Y-113500000D01*
X89799324Y-121500131D02*
G75*
G03*
X89063000Y-119870000I-2172323J132D01*
G01*
X89074357Y-123472294D02*
G75*
G03*
X89800000Y-121831000I-1493363J1641296D01*
G01*
D12*
%TO.C,C59*%
X174560000Y-123435000D02*
X174560000Y-121565000D01*
X174560000Y-121565000D02*
X170650000Y-121565000D01*
X170650000Y-123435000D02*
X174560000Y-123435000D01*
%TO.C,C24*%
X132610000Y-115142164D02*
X132610000Y-115357836D01*
X131890000Y-115142164D02*
X131890000Y-115357836D01*
%TO.C,R41*%
X86015000Y-134346224D02*
X86015000Y-133892096D01*
X87485000Y-134346224D02*
X87485000Y-133892096D01*
D13*
%TO.C,*%
X85100000Y-59750000D02*
G75*
G03*
X85100000Y-59750000I-100000J0D01*
G01*
D12*
%TO.C,R29*%
X190780000Y-77346359D02*
X190780000Y-77653641D01*
X190020000Y-77346359D02*
X190020000Y-77653641D01*
%TO.C,R53*%
X124370000Y-132403641D02*
X124370000Y-132096359D01*
X125130000Y-132403641D02*
X125130000Y-132096359D01*
%TD*%
%LPC*%
D17*
%TO.C,C76*%
X166750000Y-134520000D03*
X166750000Y-135480000D03*
%TD*%
D18*
%TO.C,C36*%
X82000000Y-70600000D03*
X82000000Y-67000000D03*
%TD*%
D17*
%TO.C,C28*%
X136500000Y-100000000D03*
X136500000Y-100960000D03*
%TD*%
D19*
%TO.C,L3*%
X92250000Y-65000000D03*
X92250000Y-68000000D03*
%TD*%
D20*
%TO.C,C13*%
X109980000Y-107000000D03*
X109020000Y-107000000D03*
%TD*%
D21*
%TO.C,J16*%
X142500000Y-142400000D03*
D22*
X146700000Y-147500000D03*
X146700000Y-142500000D03*
X138300000Y-150100000D03*
X146700000Y-150100000D03*
X138300000Y-143500000D03*
X138300000Y-141500000D03*
%TD*%
D23*
%TO.C,D14*%
X79072959Y-138000000D03*
X83072959Y-138000000D03*
%TD*%
D24*
%TO.C,R5*%
X141000000Y-66260000D03*
X141000000Y-65240000D03*
%TD*%
D25*
%TO.C,C49*%
X60500000Y-85960000D03*
X60500000Y-85000000D03*
%TD*%
D17*
%TO.C,C58*%
X167750000Y-126270000D03*
X167750000Y-127230000D03*
%TD*%
D25*
%TO.C,C40*%
X60000000Y-77960000D03*
X60000000Y-77000000D03*
%TD*%
D26*
%TO.C,C62*%
X173600000Y-128250000D03*
X170900000Y-128250000D03*
%TD*%
D24*
%TO.C,R4*%
X124750000Y-116760000D03*
X124750000Y-115740000D03*
%TD*%
D20*
%TO.C,C17*%
X112000000Y-95750000D03*
X111040000Y-95750000D03*
%TD*%
D27*
%TO.C,C26*%
X121770000Y-89250000D03*
X122730000Y-89250000D03*
%TD*%
D28*
%TO.C,R82*%
X166500000Y-136675000D03*
X166500000Y-138325000D03*
%TD*%
D27*
%TO.C,C18*%
X133270000Y-114750000D03*
X134230000Y-114750000D03*
%TD*%
D20*
%TO.C,C12*%
X110980000Y-111000000D03*
X110020000Y-111000000D03*
%TD*%
%TO.C,C25*%
X112000000Y-107000000D03*
X111040000Y-107000000D03*
%TD*%
D29*
%TO.C,D5*%
X85000000Y-58437500D03*
X85000000Y-56562500D03*
%TD*%
D30*
%TO.C,U7*%
X134350000Y-141250000D03*
X134350000Y-141750000D03*
X134350000Y-142250000D03*
X135650000Y-142250000D03*
X135650000Y-141750000D03*
X135650000Y-141250000D03*
%TD*%
D31*
%TO.C,R28*%
X189400000Y-76980000D03*
X189400000Y-78000000D03*
%TD*%
D17*
%TO.C,C63*%
X165500000Y-134520000D03*
X165500000Y-135480000D03*
%TD*%
%TO.C,C64*%
X164500000Y-134520000D03*
X164500000Y-135480000D03*
%TD*%
%TO.C,C66*%
X163250000Y-134270000D03*
X163250000Y-135230000D03*
%TD*%
D32*
%TO.C,D10*%
X66500000Y-107000000D03*
X66500000Y-103000000D03*
%TD*%
D33*
%TO.C,U5*%
X98765000Y-137790000D03*
X98765000Y-135250000D03*
X98765000Y-132710000D03*
X89235000Y-132710000D03*
X89235000Y-135250000D03*
X89235000Y-137790000D03*
%TD*%
D24*
%TO.C,R11*%
X108500000Y-137010000D03*
X108500000Y-135990000D03*
%TD*%
D20*
%TO.C,C10*%
X110980000Y-110000000D03*
X110020000Y-110000000D03*
%TD*%
%TO.C,C65*%
X162730000Y-132750000D03*
X161770000Y-132750000D03*
%TD*%
D21*
%TO.C,J11*%
X82250000Y-142400000D03*
D22*
X86450000Y-147500000D03*
X86450000Y-142500000D03*
X78050000Y-150100000D03*
X86450000Y-150100000D03*
X78050000Y-143500000D03*
X78050000Y-141500000D03*
%TD*%
D34*
%TO.C,D11*%
X101000000Y-132975000D03*
X101000000Y-134375000D03*
%TD*%
D35*
%TO.C,R8*%
X81000000Y-56500000D03*
X81000000Y-58500000D03*
%TD*%
D36*
%TO.C,SW1*%
X110750000Y-137600000D03*
X110750000Y-133400000D03*
%TD*%
D31*
%TO.C,R42*%
X127250000Y-143240000D03*
X127250000Y-144260000D03*
%TD*%
D17*
%TO.C,C56*%
X178500000Y-126270000D03*
X178500000Y-127230000D03*
%TD*%
D37*
%TO.C,R47*%
X69550000Y-138912500D03*
X69550000Y-137087500D03*
%TD*%
D38*
%TO.C,J5*%
X185100000Y-104500000D03*
D39*
X187640000Y-104500000D03*
X185100000Y-107040000D03*
X187640000Y-107040000D03*
X185100000Y-109580000D03*
X187640000Y-109580000D03*
%TD*%
D40*
%TO.C,U12*%
X164510000Y-129600000D03*
X164510000Y-130000000D03*
X164510000Y-130400000D03*
X164510000Y-130800000D03*
X164510000Y-131200000D03*
X164510000Y-131600000D03*
X164510000Y-132000000D03*
X164510000Y-132400000D03*
D41*
X165100000Y-132990000D03*
X165500000Y-132990000D03*
X165900000Y-132990000D03*
X166300000Y-132990000D03*
X166700000Y-132990000D03*
X167100000Y-132990000D03*
X167500000Y-132990000D03*
X167900000Y-132990000D03*
D40*
X168490000Y-132400000D03*
X168490000Y-132000000D03*
X168490000Y-131600000D03*
X168490000Y-131200000D03*
X168490000Y-130800000D03*
X168490000Y-130400000D03*
X168490000Y-130000000D03*
X168490000Y-129600000D03*
D41*
X167900000Y-129010000D03*
X167500000Y-129010000D03*
X167100000Y-129010000D03*
X166700000Y-129010000D03*
X166300000Y-129010000D03*
X165900000Y-129010000D03*
X165500000Y-129010000D03*
X165100000Y-129010000D03*
D42*
X166500000Y-131000000D03*
%TD*%
D20*
%TO.C,C60*%
X174480000Y-124250000D03*
X173520000Y-124250000D03*
%TD*%
D25*
%TO.C,C48*%
X188000000Y-86480000D03*
X188000000Y-85520000D03*
%TD*%
D43*
%TO.C,U8*%
X71350000Y-137350000D03*
X71350000Y-138000000D03*
X71350000Y-138650000D03*
X73250000Y-138650000D03*
X73250000Y-137350000D03*
%TD*%
D24*
%TO.C,R6*%
X140000000Y-66260000D03*
X140000000Y-65240000D03*
%TD*%
D27*
%TO.C,C27*%
X136520000Y-94750000D03*
X137480000Y-94750000D03*
%TD*%
D20*
%TO.C,C14*%
X123230000Y-114750000D03*
X122270000Y-114750000D03*
%TD*%
D17*
%TO.C,C46*%
X175500000Y-54020000D03*
X175500000Y-54980000D03*
%TD*%
D31*
%TO.C,R51*%
X62500000Y-84990000D03*
X62500000Y-86010000D03*
%TD*%
D44*
%TO.C,R79*%
X172425000Y-134500000D03*
X174075000Y-134500000D03*
%TD*%
D24*
%TO.C,R3*%
X123750000Y-116760000D03*
X123750000Y-115740000D03*
%TD*%
D45*
%TO.C,H2*%
X191100000Y-55000000D03*
X191802944Y-53302944D03*
X191802944Y-56697056D03*
X193500000Y-52600000D03*
D46*
X193500000Y-55000000D03*
D45*
X193500000Y-57400000D03*
X195197056Y-53302944D03*
X195197056Y-56697056D03*
X195900000Y-55000000D03*
%TD*%
D24*
%TO.C,R57*%
X126750000Y-132760000D03*
X126750000Y-131740000D03*
%TD*%
D47*
%TO.C,R48*%
X75050000Y-137087500D03*
X75050000Y-138912500D03*
%TD*%
D31*
%TO.C,R34*%
X62000000Y-76970000D03*
X62000000Y-77990000D03*
%TD*%
D48*
%TO.C,FB3*%
X168750000Y-126265000D03*
X168750000Y-127235000D03*
%TD*%
D24*
%TO.C,R54*%
X122750000Y-132760000D03*
X122750000Y-131740000D03*
%TD*%
D28*
%TO.C,R75*%
X167750000Y-123425000D03*
X167750000Y-125075000D03*
%TD*%
D21*
%TO.C,J19*%
X178500000Y-142400000D03*
D22*
X182700000Y-147500000D03*
X182700000Y-142500000D03*
X174300000Y-150100000D03*
X182700000Y-150100000D03*
X174300000Y-143500000D03*
X174300000Y-141500000D03*
%TD*%
D49*
%TO.C,U2*%
X113587500Y-93750000D03*
X113587500Y-94250000D03*
X113587500Y-94750000D03*
X113587500Y-95250000D03*
X113587500Y-95750000D03*
X113587500Y-96250000D03*
X113587500Y-96750000D03*
X113587500Y-97250000D03*
X113587500Y-97750000D03*
X113587500Y-98250000D03*
X113587500Y-98750000D03*
X113587500Y-99250000D03*
X113587500Y-99750000D03*
X113587500Y-100250000D03*
X113587500Y-100750000D03*
X113587500Y-101250000D03*
X113587500Y-101750000D03*
X113587500Y-102250000D03*
X113587500Y-102750000D03*
X113587500Y-103250000D03*
X113587500Y-103750000D03*
X113587500Y-104250000D03*
X113587500Y-104750000D03*
X113587500Y-105250000D03*
X113587500Y-105750000D03*
X113587500Y-106250000D03*
X113587500Y-106750000D03*
X113587500Y-107250000D03*
X113587500Y-107750000D03*
X113587500Y-108250000D03*
X113587500Y-108750000D03*
X113587500Y-109250000D03*
X113587500Y-109750000D03*
X113587500Y-110250000D03*
X113587500Y-110750000D03*
X113587500Y-111250000D03*
D50*
X115500000Y-113162500D03*
X116000000Y-113162500D03*
X116500000Y-113162500D03*
X117000000Y-113162500D03*
X117500000Y-113162500D03*
X118000000Y-113162500D03*
X118500000Y-113162500D03*
X119000000Y-113162500D03*
X119500000Y-113162500D03*
X120000000Y-113162500D03*
X120500000Y-113162500D03*
X121000000Y-113162500D03*
X121500000Y-113162500D03*
X122000000Y-113162500D03*
X122500000Y-113162500D03*
X123000000Y-113162500D03*
X123500000Y-113162500D03*
X124000000Y-113162500D03*
X124500000Y-113162500D03*
X125000000Y-113162500D03*
X125500000Y-113162500D03*
X126000000Y-113162500D03*
X126500000Y-113162500D03*
X127000000Y-113162500D03*
X127500000Y-113162500D03*
X128000000Y-113162500D03*
X128500000Y-113162500D03*
X129000000Y-113162500D03*
X129500000Y-113162500D03*
X130000000Y-113162500D03*
X130500000Y-113162500D03*
X131000000Y-113162500D03*
X131500000Y-113162500D03*
X132000000Y-113162500D03*
X132500000Y-113162500D03*
X133000000Y-113162500D03*
D49*
X134912500Y-111250000D03*
X134912500Y-110750000D03*
X134912500Y-110250000D03*
X134912500Y-109750000D03*
X134912500Y-109250000D03*
X134912500Y-108750000D03*
X134912500Y-108250000D03*
X134912500Y-107750000D03*
X134912500Y-107250000D03*
X134912500Y-106750000D03*
X134912500Y-106250000D03*
X134912500Y-105750000D03*
X134912500Y-105250000D03*
X134912500Y-104750000D03*
X134912500Y-104250000D03*
X134912500Y-103750000D03*
X134912500Y-103250000D03*
X134912500Y-102750000D03*
X134912500Y-102250000D03*
X134912500Y-101750000D03*
X134912500Y-101250000D03*
X134912500Y-100750000D03*
X134912500Y-100250000D03*
X134912500Y-99750000D03*
X134912500Y-99250000D03*
X134912500Y-98750000D03*
X134912500Y-98250000D03*
X134912500Y-97750000D03*
X134912500Y-97250000D03*
X134912500Y-96750000D03*
X134912500Y-96250000D03*
X134912500Y-95750000D03*
X134912500Y-95250000D03*
X134912500Y-94750000D03*
X134912500Y-94250000D03*
X134912500Y-93750000D03*
D50*
X133000000Y-91837500D03*
X132500000Y-91837500D03*
X132000000Y-91837500D03*
X131500000Y-91837500D03*
X131000000Y-91837500D03*
X130500000Y-91837500D03*
X130000000Y-91837500D03*
X129500000Y-91837500D03*
X129000000Y-91837500D03*
X128500000Y-91837500D03*
X128000000Y-91837500D03*
X127500000Y-91837500D03*
X127000000Y-91837500D03*
X126500000Y-91837500D03*
X126000000Y-91837500D03*
X125500000Y-91837500D03*
X125000000Y-91837500D03*
X124500000Y-91837500D03*
X124000000Y-91837500D03*
X123500000Y-91837500D03*
X123000000Y-91837500D03*
X122500000Y-91837500D03*
X122000000Y-91837500D03*
X121500000Y-91837500D03*
X121000000Y-91837500D03*
X120500000Y-91837500D03*
X120000000Y-91837500D03*
X119500000Y-91837500D03*
X119000000Y-91837500D03*
X118500000Y-91837500D03*
X118000000Y-91837500D03*
X117500000Y-91837500D03*
X117000000Y-91837500D03*
X116500000Y-91837500D03*
X116000000Y-91837500D03*
X115500000Y-91837500D03*
%TD*%
D21*
%TO.C,J8*%
X106250000Y-142400000D03*
D22*
X110450000Y-147500000D03*
X110450000Y-142500000D03*
X102050000Y-150100000D03*
X110450000Y-150100000D03*
X102050000Y-143500000D03*
X102050000Y-141500000D03*
%TD*%
D25*
%TO.C,C42*%
X61000000Y-77960000D03*
X61000000Y-77000000D03*
%TD*%
D27*
%TO.C,C73*%
X170270000Y-134250000D03*
X171230000Y-134250000D03*
%TD*%
D36*
%TO.C,SW2*%
X114250000Y-137600000D03*
X114250000Y-133400000D03*
%TD*%
D51*
%TO.C,J6*%
X63400000Y-109500000D03*
D39*
X60860000Y-109500000D03*
X63400000Y-106960000D03*
X60860000Y-106960000D03*
X63400000Y-104420000D03*
X60860000Y-104420000D03*
%TD*%
D20*
%TO.C,C71*%
X162730000Y-131750000D03*
X161770000Y-131750000D03*
%TD*%
D25*
%TO.C,C41*%
X61500000Y-67480000D03*
X61500000Y-66520000D03*
%TD*%
D52*
%TO.C,R72*%
X177075000Y-127750000D03*
X175425000Y-127750000D03*
%TD*%
D27*
%TO.C,C68*%
X170270000Y-131000000D03*
X171230000Y-131000000D03*
%TD*%
D24*
%TO.C,R58*%
X125750000Y-132750000D03*
X125750000Y-131730000D03*
%TD*%
D53*
%TO.C,SW9*%
X87500000Y-51463000D03*
X82500000Y-51463000D03*
D54*
X90250000Y-51463000D03*
D55*
X88000000Y-53537000D03*
X83500000Y-53537000D03*
X82000000Y-53537000D03*
D54*
X79750000Y-51463000D03*
%TD*%
D56*
%TO.C,J1*%
X159755000Y-66725000D03*
X160855000Y-66725000D03*
X161955000Y-66725000D03*
X163055000Y-66725000D03*
X164155000Y-66725000D03*
X165255000Y-66725000D03*
X166355000Y-66725000D03*
X167455000Y-66725000D03*
X168405000Y-66725000D03*
D57*
X169355000Y-56225000D03*
D58*
X169355000Y-62425000D03*
D59*
X169355000Y-52075000D03*
D58*
X158205000Y-66725000D03*
D60*
X155855000Y-51625000D03*
%TD*%
D44*
%TO.C,R76*%
X175675000Y-126250000D03*
X177325000Y-126250000D03*
%TD*%
D61*
%TO.C,J9*%
X127360000Y-148400000D03*
X133140000Y-148400000D03*
D62*
X127000000Y-146955000D03*
X127800000Y-146955000D03*
D63*
X129000000Y-146955000D03*
X130000000Y-146955000D03*
X130500000Y-146955000D03*
X131500000Y-146955000D03*
D62*
X132700000Y-146955000D03*
X133500000Y-146955000D03*
X133500000Y-146955000D03*
X132700000Y-146955000D03*
D63*
X132000000Y-146955000D03*
X131000000Y-146955000D03*
X129500000Y-146955000D03*
X128500000Y-146955000D03*
D62*
X127800000Y-146955000D03*
X127000000Y-146955000D03*
D64*
X125930000Y-147870000D03*
D65*
X125930000Y-152050000D03*
D64*
X134570000Y-147870000D03*
D65*
X134570000Y-152050000D03*
%TD*%
D66*
%TO.C,U6*%
X106150000Y-133338438D03*
X105500000Y-133338438D03*
X104850000Y-133338438D03*
X104850000Y-135238438D03*
X106150000Y-135238438D03*
%TD*%
D28*
%TO.C,R81*%
X168000000Y-136675000D03*
X168000000Y-138325000D03*
%TD*%
D44*
%TO.C,R73*%
X175675000Y-124500000D03*
X177325000Y-124500000D03*
%TD*%
D52*
%TO.C,R78*%
X172325000Y-126250000D03*
X170675000Y-126250000D03*
%TD*%
D31*
%TO.C,R10*%
X116000000Y-89240000D03*
X116000000Y-90260000D03*
%TD*%
D20*
%TO.C,C15*%
X128230000Y-114750000D03*
X127270000Y-114750000D03*
%TD*%
D31*
%TO.C,R35*%
X63000000Y-76960000D03*
X63000000Y-77980000D03*
%TD*%
D21*
%TO.C,J7*%
X94250000Y-142400000D03*
D22*
X98450000Y-147500000D03*
X98450000Y-142500000D03*
X90050000Y-150100000D03*
X98450000Y-150100000D03*
X90050000Y-143500000D03*
X90050000Y-141500000D03*
%TD*%
D20*
%TO.C,C61*%
X174480000Y-126500000D03*
X173520000Y-126500000D03*
%TD*%
D24*
%TO.C,R56*%
X123750000Y-132760000D03*
X123750000Y-131740000D03*
%TD*%
%TO.C,R24*%
X185400000Y-78010000D03*
X185400000Y-76990000D03*
%TD*%
D25*
%TO.C,C37*%
X187400000Y-78000000D03*
X187400000Y-77040000D03*
%TD*%
D24*
%TO.C,R52*%
X61500000Y-86010000D03*
X61500000Y-84990000D03*
%TD*%
D45*
%TO.C,H1*%
X52600000Y-55000000D03*
X53302944Y-53302944D03*
X53302944Y-56697056D03*
X55000000Y-52600000D03*
D46*
X55000000Y-55000000D03*
D45*
X55000000Y-57400000D03*
X56697056Y-53302944D03*
X56697056Y-56697056D03*
X57400000Y-55000000D03*
%TD*%
D61*
%TO.C,J10*%
X115360000Y-148400000D03*
X121140000Y-148400000D03*
D62*
X115000000Y-146955000D03*
X115800000Y-146955000D03*
D63*
X117000000Y-146955000D03*
X118000000Y-146955000D03*
X118500000Y-146955000D03*
X119500000Y-146955000D03*
D62*
X120700000Y-146955000D03*
X121500000Y-146955000D03*
X121500000Y-146955000D03*
X120700000Y-146955000D03*
D63*
X120000000Y-146955000D03*
X119000000Y-146955000D03*
X117500000Y-146955000D03*
X116500000Y-146955000D03*
D62*
X115800000Y-146955000D03*
X115000000Y-146955000D03*
D64*
X113930000Y-147870000D03*
D65*
X113930000Y-152050000D03*
D64*
X122570000Y-147870000D03*
D65*
X122570000Y-152050000D03*
%TD*%
D45*
%TO.C,H4*%
X191100000Y-150000000D03*
X191802944Y-148302944D03*
X191802944Y-151697056D03*
X193500000Y-147600000D03*
D46*
X193500000Y-150000000D03*
D45*
X193500000Y-152400000D03*
X195197056Y-148302944D03*
X195197056Y-151697056D03*
X195900000Y-150000000D03*
%TD*%
D28*
%TO.C,R74*%
X166250000Y-123425000D03*
X166250000Y-125075000D03*
%TD*%
D31*
%TO.C,R31*%
X59000000Y-76960000D03*
X59000000Y-77980000D03*
%TD*%
D24*
%TO.C,R50*%
X189000000Y-86510000D03*
X189000000Y-85490000D03*
%TD*%
D47*
%TO.C,R39*%
X106500000Y-136825938D03*
X106500000Y-138650938D03*
%TD*%
D31*
%TO.C,R32*%
X59500000Y-66490000D03*
X59500000Y-67510000D03*
%TD*%
D35*
%TO.C,R20*%
X89000000Y-56500000D03*
X89000000Y-58500000D03*
%TD*%
D17*
%TO.C,C19*%
X136500000Y-105520000D03*
X136500000Y-106480000D03*
%TD*%
%TO.C,C74*%
X169250000Y-134520000D03*
X169250000Y-135480000D03*
%TD*%
D67*
%TO.C,D9*%
X182000000Y-107000000D03*
X182000000Y-111000000D03*
%TD*%
D68*
%TO.C,C79*%
X87500000Y-93200000D03*
X87500000Y-96800000D03*
%TD*%
D37*
%TO.C,R40*%
X104500000Y-138650938D03*
X104500000Y-136825938D03*
%TD*%
D69*
%TO.C,C45*%
X129250000Y-142800000D03*
X129250000Y-144700000D03*
%TD*%
D24*
%TO.C,R9*%
X108500000Y-135010000D03*
X108500000Y-133990000D03*
%TD*%
D70*
%TO.C,D13*%
X120750000Y-144750000D03*
D71*
X120750000Y-143050000D03*
X118750000Y-143050000D03*
X118750000Y-144950000D03*
%TD*%
D36*
%TO.C,SW6*%
X134250000Y-137600000D03*
X134250000Y-133400000D03*
%TD*%
D52*
%TO.C,R77*%
X172325000Y-124500000D03*
X170675000Y-124500000D03*
%TD*%
D72*
%TO.C,R37*%
X136490000Y-135475000D03*
X137510000Y-135475000D03*
%TD*%
D52*
%TO.C,R71*%
X177075000Y-123000000D03*
X175425000Y-123000000D03*
%TD*%
D25*
%TO.C,C39*%
X188400000Y-77980000D03*
X188400000Y-77020000D03*
%TD*%
D70*
%TO.C,D12*%
X133000000Y-144500000D03*
D71*
X133000000Y-142800000D03*
X131000000Y-142800000D03*
X131000000Y-144700000D03*
%TD*%
D48*
%TO.C,FB2*%
X165250000Y-126265000D03*
X165250000Y-127235000D03*
%TD*%
D29*
%TO.C,D3*%
X83000000Y-58437500D03*
X83000000Y-56562500D03*
%TD*%
D24*
%TO.C,R33*%
X60500000Y-67510000D03*
X60500000Y-66490000D03*
%TD*%
D29*
%TO.C,D6*%
X87000000Y-58437500D03*
X87000000Y-56562500D03*
%TD*%
D47*
%TO.C,R38*%
X101250000Y-135837500D03*
X101250000Y-137662500D03*
%TD*%
D73*
%TO.C,J14*%
X120440000Y-139450000D03*
X120440000Y-135550000D03*
X121710000Y-139450000D03*
X121710000Y-135550000D03*
X122980000Y-139450000D03*
X122980000Y-135550000D03*
X124250000Y-139450000D03*
X124250000Y-135550000D03*
X125520000Y-139450000D03*
X125520000Y-135550000D03*
X126790000Y-139450000D03*
X126790000Y-135550000D03*
X128060000Y-139450000D03*
X128060000Y-135550000D03*
%TD*%
D31*
%TO.C,R26*%
X187000000Y-66490000D03*
X187000000Y-67510000D03*
%TD*%
D20*
%TO.C,C16*%
X112000000Y-96750000D03*
X111040000Y-96750000D03*
%TD*%
D21*
%TO.C,J17*%
X166500000Y-142400000D03*
D22*
X170700000Y-147500000D03*
X170700000Y-142500000D03*
X162300000Y-150100000D03*
X170700000Y-150100000D03*
X162300000Y-143500000D03*
X162300000Y-141500000D03*
%TD*%
D17*
%TO.C,C20*%
X136500000Y-92770000D03*
X136500000Y-93730000D03*
%TD*%
D21*
%TO.C,J18*%
X154500000Y-142400000D03*
D22*
X158700000Y-147500000D03*
X158700000Y-142500000D03*
X150300000Y-150100000D03*
X158700000Y-150100000D03*
X150300000Y-143500000D03*
X150300000Y-141500000D03*
%TD*%
D39*
%TO.C,J13*%
X103930000Y-63290000D03*
X103930000Y-60750000D03*
X106470000Y-63290000D03*
X106470000Y-60750000D03*
X109010000Y-63290000D03*
X109010000Y-60750000D03*
X111550000Y-63290000D03*
X111550000Y-60750000D03*
X114090000Y-63290000D03*
X114090000Y-60750000D03*
X116630000Y-63290000D03*
X116630000Y-60750000D03*
X119170000Y-63290000D03*
X119170000Y-60750000D03*
X121710000Y-63290000D03*
X121710000Y-60750000D03*
X124250000Y-63290000D03*
X124250000Y-60750000D03*
X126790000Y-63290000D03*
X126790000Y-60750000D03*
X129330000Y-63290000D03*
X129330000Y-60750000D03*
X131870000Y-63290000D03*
X131870000Y-60750000D03*
X134410000Y-63290000D03*
X134410000Y-60750000D03*
X136950000Y-63290000D03*
X136950000Y-60750000D03*
X139490000Y-63290000D03*
X139490000Y-60750000D03*
X142030000Y-63290000D03*
X142030000Y-60750000D03*
X144570000Y-63290000D03*
X144570000Y-60750000D03*
%TD*%
D17*
%TO.C,C54*%
X165000000Y-124270000D03*
X165000000Y-125230000D03*
%TD*%
D74*
%TO.C,R1*%
X179500000Y-55500000D03*
X179500000Y-53500000D03*
%TD*%
D27*
%TO.C,C72*%
X170270000Y-133250000D03*
X171230000Y-133250000D03*
%TD*%
D25*
%TO.C,C6*%
X112000000Y-101980000D03*
X112000000Y-101020000D03*
%TD*%
D17*
%TO.C,C47*%
X176500000Y-54020000D03*
X176500000Y-54980000D03*
%TD*%
D24*
%TO.C,R55*%
X121750000Y-132760000D03*
X121750000Y-131740000D03*
%TD*%
D35*
%TO.C,R2*%
X69000000Y-53500000D03*
X69000000Y-55500000D03*
%TD*%
D31*
%TO.C,R7*%
X112000000Y-105000000D03*
X112000000Y-106020000D03*
%TD*%
D25*
%TO.C,C44*%
X87250000Y-137480000D03*
X87250000Y-136520000D03*
%TD*%
D27*
%TO.C,C70*%
X170270000Y-132250000D03*
X171230000Y-132250000D03*
%TD*%
D25*
%TO.C,C53*%
X178500000Y-124480000D03*
X178500000Y-123520000D03*
%TD*%
D27*
%TO.C,C21*%
X126770000Y-90250000D03*
X127730000Y-90250000D03*
%TD*%
D20*
%TO.C,C11*%
X116730000Y-114750000D03*
X115770000Y-114750000D03*
%TD*%
D75*
%TO.C,Y1*%
X108900000Y-103150000D03*
X108900000Y-105350000D03*
X110600000Y-105350000D03*
X110600000Y-103150000D03*
%TD*%
D27*
%TO.C,C43*%
X136520000Y-136475000D03*
X137480000Y-136475000D03*
%TD*%
D24*
%TO.C,R30*%
X58000000Y-77990000D03*
X58000000Y-76970000D03*
%TD*%
D31*
%TO.C,R25*%
X186400000Y-76990000D03*
X186400000Y-78010000D03*
%TD*%
D20*
%TO.C,C23*%
X114980000Y-89750000D03*
X114020000Y-89750000D03*
%TD*%
D24*
%TO.C,R44*%
X116000000Y-144510000D03*
X116000000Y-143490000D03*
%TD*%
D28*
%TO.C,R80*%
X169500000Y-136675000D03*
X169500000Y-138325000D03*
%TD*%
D21*
%TO.C,J12*%
X70250000Y-142400000D03*
D22*
X74450000Y-147500000D03*
X74450000Y-142500000D03*
X66050000Y-150100000D03*
X74450000Y-150100000D03*
X66050000Y-143500000D03*
X66050000Y-141500000D03*
%TD*%
D24*
%TO.C,R45*%
X117000000Y-144510000D03*
X117000000Y-143490000D03*
%TD*%
%TO.C,R27*%
X188000000Y-67510000D03*
X188000000Y-66490000D03*
%TD*%
D17*
%TO.C,C75*%
X168000000Y-134520000D03*
X168000000Y-135480000D03*
%TD*%
%TO.C,C8*%
X112000000Y-108020000D03*
X112000000Y-108980000D03*
%TD*%
D45*
%TO.C,H3*%
X52600000Y-150000000D03*
X53302944Y-148302944D03*
X53302944Y-151697056D03*
X55000000Y-147600000D03*
D46*
X55000000Y-150000000D03*
D45*
X55000000Y-152400000D03*
X56697056Y-148302944D03*
X56697056Y-151697056D03*
X57400000Y-150000000D03*
%TD*%
D76*
%TO.C,J4*%
X155850000Y-121500000D03*
X148251000Y-124000000D03*
X148250000Y-119000000D03*
%TD*%
D31*
%TO.C,R43*%
X126250000Y-143240000D03*
X126250000Y-144260000D03*
%TD*%
D77*
%TO.C,R36*%
X137510000Y-134475000D03*
X136490000Y-134475000D03*
%TD*%
D31*
%TO.C,R49*%
X190000000Y-85490000D03*
X190000000Y-86510000D03*
%TD*%
D37*
%TO.C,R46*%
X67550000Y-138912500D03*
X67550000Y-137087500D03*
%TD*%
D20*
%TO.C,C9*%
X109980000Y-101500000D03*
X109020000Y-101500000D03*
%TD*%
D27*
%TO.C,C67*%
X170270000Y-130000000D03*
X171230000Y-130000000D03*
%TD*%
D20*
%TO.C,C69*%
X162730000Y-130750000D03*
X161770000Y-130750000D03*
%TD*%
D27*
%TO.C,C22*%
X121770000Y-90250000D03*
X122730000Y-90250000D03*
%TD*%
D17*
%TO.C,C57*%
X166250000Y-126270000D03*
X166250000Y-127230000D03*
%TD*%
D25*
%TO.C,C38*%
X189000000Y-67500000D03*
X189000000Y-66540000D03*
%TD*%
%TO.C,C55*%
X169000000Y-125230000D03*
X169000000Y-124270000D03*
%TD*%
D76*
%TO.C,J3*%
X92650000Y-121500000D03*
X100249000Y-119000000D03*
X100250000Y-124000000D03*
%TD*%
D26*
%TO.C,C59*%
X173600000Y-122500000D03*
X170900000Y-122500000D03*
%TD*%
D17*
%TO.C,C24*%
X132250000Y-114770000D03*
X132250000Y-115730000D03*
%TD*%
D37*
%TO.C,R41*%
X86750000Y-135031660D03*
X86750000Y-133206660D03*
%TD*%
D31*
%TO.C,R29*%
X190400000Y-76990000D03*
X190400000Y-78010000D03*
%TD*%
D24*
%TO.C,R53*%
X124750000Y-132760000D03*
X124750000Y-131740000D03*
%TD*%
D78*
%TO.C,SW5*%
X66200000Y-72250000D03*
X54800000Y-72250000D03*
D79*
X63000000Y-79750000D03*
X58000000Y-79750000D03*
X60500000Y-79750000D03*
X63000000Y-65250000D03*
X58000000Y-65250000D03*
%TD*%
D80*
%TO.C,J15*%
X129330000Y-137500000D03*
X119170000Y-138516000D03*
X119170000Y-136484000D03*
%TD*%
D78*
%TO.C,SW4*%
X193700000Y-72250000D03*
X182300000Y-72250000D03*
D79*
X190500000Y-79750000D03*
X185500000Y-79750000D03*
X188000000Y-79750000D03*
X190500000Y-65250000D03*
X185500000Y-65250000D03*
%TD*%
D81*
%TO.C,SW8*%
X65580000Y-90500000D03*
D82*
X60500000Y-90500000D03*
D81*
X55420000Y-90500000D03*
D83*
X64310000Y-87960000D03*
X57960000Y-85420000D03*
%TD*%
D81*
%TO.C,SW7*%
X193080000Y-90500000D03*
D82*
X188000000Y-90500000D03*
D81*
X182920000Y-90500000D03*
D83*
X191810000Y-87960000D03*
X185460000Y-85420000D03*
%TD*%
%LPD*%
M02*
