%TF.GenerationSoftware,KiCad,Pcbnew,7.0.8*%
%TF.CreationDate,2023-12-20T15:22:34+01:00*%
%TF.ProjectId,KLST_PANDA,4b4c5354-5f50-4414-9e44-412e6b696361,rev?*%
%TF.SameCoordinates,Original*%
%TF.FileFunction,Legend,Bot*%
%TF.FilePolarity,Positive*%
%FSLAX46Y46*%
G04 Gerber Fmt 4.6, Leading zero omitted, Abs format (unit mm)*
G04 Created by KiCad (PCBNEW 7.0.8) date 2023-12-20 15:22:34*
%MOMM*%
%LPD*%
G01*
G04 APERTURE LIST*
G04 Aperture macros list*
%AMRoundRect*
0 Rectangle with rounded corners*
0 $1 Rounding radius*
0 $2 $3 $4 $5 $6 $7 $8 $9 X,Y pos of 4 corners*
0 Add a 4 corners polygon primitive as box body*
4,1,4,$2,$3,$4,$5,$6,$7,$8,$9,$2,$3,0*
0 Add four circle primitives for the rounded corners*
1,1,$1+$1,$2,$3*
1,1,$1+$1,$4,$5*
1,1,$1+$1,$6,$7*
1,1,$1+$1,$8,$9*
0 Add four rect primitives between the rounded corners*
20,1,$1+$1,$2,$3,$4,$5,0*
20,1,$1+$1,$4,$5,$6,$7,0*
20,1,$1+$1,$6,$7,$8,$9,0*
20,1,$1+$1,$8,$9,$2,$3,0*%
G04 Aperture macros list end*
%ADD10C,0.500000*%
%ADD11C,0.150000*%
%ADD12C,0.120000*%
%ADD13C,0.200000*%
%ADD14C,0.152400*%
%ADD15C,0.254000*%
%ADD16C,1.400000*%
%ADD17RoundRect,0.250000X-0.600000X-0.600000X0.600000X-0.600000X0.600000X0.600000X-0.600000X0.600000X0*%
%ADD18C,1.700000*%
%ADD19C,0.800000*%
%ADD20C,6.400000*%
%ADD21RoundRect,0.250000X0.600000X0.600000X-0.600000X0.600000X-0.600000X-0.600000X0.600000X-0.600000X0*%
%ADD22C,1.000000*%
%ADD23C,0.650000*%
%ADD24O,1.000000X2.100000*%
%ADD25O,1.000000X1.600000*%
%ADD26C,2.800000*%
%ADD27RoundRect,0.250000X-0.475000X0.250000X-0.475000X-0.250000X0.475000X-0.250000X0.475000X0.250000X0*%
%ADD28C,0.370000*%
%ADD29RoundRect,0.150000X-0.587500X-0.150000X0.587500X-0.150000X0.587500X0.150000X-0.587500X0.150000X0*%
%ADD30RoundRect,0.243750X-0.456250X0.243750X-0.456250X-0.243750X0.456250X-0.243750X0.456250X0.243750X0*%
%ADD31RoundRect,0.243750X0.456250X-0.243750X0.456250X0.243750X-0.456250X0.243750X-0.456250X-0.243750X0*%
%ADD32RoundRect,0.150000X-0.675000X-0.150000X0.675000X-0.150000X0.675000X0.150000X-0.675000X0.150000X0*%
%ADD33RoundRect,0.250000X0.475000X-0.250000X0.475000X0.250000X-0.475000X0.250000X-0.475000X-0.250000X0*%
%ADD34RoundRect,0.250000X0.325000X0.650000X-0.325000X0.650000X-0.325000X-0.650000X0.325000X-0.650000X0*%
%ADD35RoundRect,0.135000X0.135000X0.185000X-0.135000X0.185000X-0.135000X-0.185000X0.135000X-0.185000X0*%
%ADD36R,0.406400X0.939800*%
%ADD37R,0.355600X2.311400*%
%ADD38R,1.295400X0.355600*%
%ADD39RoundRect,0.135000X-0.185000X0.135000X-0.185000X-0.135000X0.185000X-0.135000X0.185000X0.135000X0*%
%ADD40RoundRect,0.250000X-1.000000X-0.650000X1.000000X-0.650000X1.000000X0.650000X-1.000000X0.650000X0*%
%ADD41RoundRect,0.250000X-0.650000X1.000000X-0.650000X-1.000000X0.650000X-1.000000X0.650000X1.000000X0*%
%ADD42R,0.550000X1.050000*%
%ADD43RoundRect,0.135000X-0.135000X-0.185000X0.135000X-0.185000X0.135000X0.185000X-0.135000X0.185000X0*%
%ADD44RoundRect,0.140000X0.170000X-0.140000X0.170000X0.140000X-0.170000X0.140000X-0.170000X-0.140000X0*%
%ADD45RoundRect,0.140000X-0.170000X0.140000X-0.170000X-0.140000X0.170000X-0.140000X0.170000X0.140000X0*%
%ADD46O,2.400000X3.800000*%
%ADD47C,1.800000*%
%ADD48C,0.990000*%
%ADD49C,0.787000*%
%ADD50R,0.300000X1.300000*%
%ADD51R,1.800000X1.800000*%
%ADD52RoundRect,0.140000X0.140000X0.170000X-0.140000X0.170000X-0.140000X-0.170000X0.140000X-0.170000X0*%
%ADD53RoundRect,0.147500X-0.172500X0.147500X-0.172500X-0.147500X0.172500X-0.147500X0.172500X0.147500X0*%
%ADD54RoundRect,0.135000X0.185000X-0.135000X0.185000X0.135000X-0.185000X0.135000X-0.185000X-0.135000X0*%
%ADD55C,1.750000*%
%ADD56C,4.000000*%
%ADD57C,2.500000*%
%ADD58RoundRect,0.250000X-0.312500X-1.075000X0.312500X-1.075000X0.312500X1.075000X-0.312500X1.075000X0*%
%ADD59RoundRect,0.250000X-1.075000X0.312500X-1.075000X-0.312500X1.075000X-0.312500X1.075000X0.312500X0*%
%ADD60RoundRect,0.250000X0.450000X-0.350000X0.450000X0.350000X-0.450000X0.350000X-0.450000X-0.350000X0*%
%ADD61R,3.700000X1.100000*%
%ADD62R,2.000000X1.500000*%
%ADD63R,2.000000X3.800000*%
%ADD64R,0.400000X0.650000*%
%ADD65RoundRect,0.150000X-0.512500X-0.150000X0.512500X-0.150000X0.512500X0.150000X-0.512500X0.150000X0*%
%ADD66RoundRect,0.250000X0.650000X-0.325000X0.650000X0.325000X-0.650000X0.325000X-0.650000X-0.325000X0*%
%ADD67RoundRect,0.150000X-0.150000X0.587500X-0.150000X-0.587500X0.150000X-0.587500X0.150000X0.587500X0*%
%ADD68RoundRect,0.250000X0.700000X-0.275000X0.700000X0.275000X-0.700000X0.275000X-0.700000X-0.275000X0*%
G04 APERTURE END LIST*
D10*
X71550000Y-58950000D02*
X176950000Y-58950000D01*
X176950000Y-126050000D01*
X71550000Y-126050000D01*
X71550000Y-58950000D01*
D11*
G36*
X135702232Y-149694378D02*
G01*
X135702232Y-150651078D01*
X135688310Y-150665000D01*
X135450174Y-150665000D01*
X135418135Y-150664427D01*
X135387621Y-150662722D01*
X135358599Y-150659902D01*
X135331036Y-150655984D01*
X135304898Y-150650987D01*
X135280152Y-150644928D01*
X135256764Y-150637824D01*
X135234702Y-150629695D01*
X135213931Y-150620557D01*
X135194419Y-150610428D01*
X135176133Y-150599326D01*
X135159038Y-150587269D01*
X135143103Y-150574274D01*
X135128292Y-150560359D01*
X135114574Y-150545543D01*
X135101914Y-150529842D01*
X135090279Y-150513274D01*
X135079637Y-150495858D01*
X135069953Y-150477610D01*
X135061195Y-150458550D01*
X135053329Y-150438694D01*
X135046322Y-150418060D01*
X135040140Y-150396666D01*
X135034751Y-150374530D01*
X135030120Y-150351669D01*
X135026215Y-150328102D01*
X135023002Y-150303845D01*
X135020448Y-150278918D01*
X135018519Y-150253337D01*
X135017183Y-150227120D01*
X135016406Y-150200285D01*
X135016154Y-150172850D01*
X135156349Y-150172850D01*
X135156478Y-150194960D01*
X135156886Y-150216410D01*
X135157607Y-150237195D01*
X135158674Y-150257314D01*
X135160120Y-150276764D01*
X135161980Y-150295543D01*
X135164285Y-150313647D01*
X135167069Y-150331074D01*
X135170367Y-150347821D01*
X135174210Y-150363886D01*
X135178633Y-150379265D01*
X135183668Y-150393957D01*
X135189349Y-150407958D01*
X135195710Y-150421266D01*
X135202783Y-150433878D01*
X135210602Y-150445792D01*
X135219200Y-150457004D01*
X135228611Y-150467512D01*
X135238868Y-150477314D01*
X135250004Y-150486406D01*
X135262052Y-150494787D01*
X135275046Y-150502453D01*
X135289020Y-150509401D01*
X135304006Y-150515630D01*
X135320037Y-150521135D01*
X135337148Y-150525916D01*
X135355371Y-150529968D01*
X135374740Y-150533290D01*
X135395288Y-150535878D01*
X135417048Y-150537730D01*
X135440055Y-150538843D01*
X135464340Y-150539214D01*
X135548359Y-150539214D01*
X135562281Y-150525048D01*
X135562281Y-149820408D01*
X135548359Y-149806242D01*
X135464340Y-149806242D01*
X135440055Y-149806613D01*
X135417048Y-149807726D01*
X135395288Y-149809579D01*
X135374740Y-149812167D01*
X135355371Y-149815489D01*
X135337148Y-149819542D01*
X135320037Y-149824323D01*
X135304006Y-149829830D01*
X135289020Y-149836060D01*
X135275046Y-149843011D01*
X135262052Y-149850679D01*
X135250004Y-149859063D01*
X135238868Y-149868158D01*
X135228611Y-149877964D01*
X135219200Y-149888477D01*
X135210602Y-149899695D01*
X135202783Y-149911615D01*
X135195710Y-149924234D01*
X135189349Y-149937549D01*
X135183668Y-149951559D01*
X135178633Y-149966260D01*
X135174210Y-149981650D01*
X135170367Y-149997726D01*
X135167069Y-150014485D01*
X135164285Y-150031926D01*
X135161980Y-150050044D01*
X135160120Y-150068838D01*
X135158674Y-150088305D01*
X135157607Y-150108443D01*
X135156886Y-150129248D01*
X135156478Y-150150718D01*
X135156349Y-150172850D01*
X135016154Y-150172850D01*
X135016406Y-150145392D01*
X135017183Y-150118535D01*
X135018519Y-150092295D01*
X135020448Y-150066691D01*
X135023002Y-150041741D01*
X135026215Y-150017463D01*
X135030120Y-149993873D01*
X135034751Y-149970991D01*
X135040140Y-149948834D01*
X135046322Y-149927419D01*
X135053329Y-149906765D01*
X135061195Y-149886889D01*
X135069953Y-149867809D01*
X135079637Y-149849542D01*
X135090279Y-149832108D01*
X135101914Y-149815523D01*
X135114574Y-149799805D01*
X135128292Y-149784972D01*
X135143103Y-149771042D01*
X135159038Y-149758033D01*
X135176133Y-149745962D01*
X135194419Y-149734848D01*
X135213931Y-149724707D01*
X135234702Y-149715559D01*
X135256764Y-149707420D01*
X135280152Y-149700308D01*
X135304898Y-149694242D01*
X135331036Y-149689239D01*
X135358599Y-149685316D01*
X135387621Y-149682493D01*
X135418135Y-149680785D01*
X135450174Y-149680212D01*
X135688310Y-149680212D01*
X135702232Y-149694378D01*
G37*
G36*
X134190369Y-150651078D02*
G01*
X134190369Y-150553136D01*
X134204291Y-150539214D01*
X134694486Y-150539214D01*
X134708408Y-150525048D01*
X134708408Y-150242459D01*
X134694486Y-150228293D01*
X134232379Y-150228293D01*
X134218457Y-150214371D01*
X134218457Y-150116430D01*
X134232379Y-150102264D01*
X134694486Y-150102264D01*
X134708408Y-150088342D01*
X134708408Y-149820408D01*
X134694486Y-149806242D01*
X134204291Y-149806242D01*
X134190369Y-149792320D01*
X134190369Y-149694378D01*
X134204291Y-149680212D01*
X134834437Y-149680212D01*
X134848359Y-149694378D01*
X134848359Y-150651078D01*
X134834437Y-150665000D01*
X134204291Y-150665000D01*
X134190369Y-150651078D01*
G37*
G36*
X133280564Y-149792808D02*
G01*
X133280564Y-149694378D01*
X133294486Y-149680212D01*
X133378506Y-149680212D01*
X133392428Y-149694378D01*
X133658408Y-150468140D01*
X133672574Y-150468140D01*
X133938555Y-149694378D01*
X133952476Y-149680212D01*
X134036496Y-149680212D01*
X134050662Y-149694378D01*
X134050662Y-149792808D01*
X133742428Y-150651078D01*
X133728506Y-150665000D01*
X133602476Y-150665000D01*
X133588555Y-150651078D01*
X133280564Y-149792808D01*
G37*
G36*
X132524633Y-150651078D02*
G01*
X132524633Y-150553136D01*
X132538555Y-150539214D01*
X132734682Y-150539214D01*
X132748603Y-150525048D01*
X132748603Y-149820408D01*
X132734682Y-149806242D01*
X132552721Y-149806242D01*
X132538555Y-149792320D01*
X132538555Y-149694378D01*
X132552721Y-149680212D01*
X133084682Y-149680212D01*
X133098603Y-149694378D01*
X133098603Y-149792320D01*
X133084682Y-149806242D01*
X132902721Y-149806242D01*
X132888555Y-149820408D01*
X132888555Y-150525048D01*
X132902721Y-150539214D01*
X133098603Y-150539214D01*
X133112769Y-150553136D01*
X133112769Y-150651078D01*
X133098603Y-150665000D01*
X132538555Y-150665000D01*
X132524633Y-150651078D01*
G37*
G36*
X131936740Y-150665000D02*
G01*
X131916070Y-150664633D01*
X131896053Y-150663544D01*
X131876687Y-150661745D01*
X131857968Y-150659250D01*
X131839895Y-150656073D01*
X131822465Y-150652227D01*
X131805675Y-150647727D01*
X131789523Y-150642586D01*
X131774006Y-150636818D01*
X131759123Y-150630437D01*
X131744869Y-150623455D01*
X131731244Y-150615888D01*
X131718244Y-150607749D01*
X131705867Y-150599050D01*
X131694111Y-150589808D01*
X131682972Y-150580034D01*
X131672448Y-150569742D01*
X131662538Y-150558947D01*
X131653238Y-150547662D01*
X131644546Y-150535901D01*
X131636459Y-150523678D01*
X131628975Y-150511006D01*
X131622091Y-150497899D01*
X131615805Y-150484370D01*
X131610115Y-150470435D01*
X131605017Y-150456105D01*
X131600510Y-150441395D01*
X131596590Y-150426319D01*
X131593256Y-150410891D01*
X131590504Y-150395123D01*
X131588333Y-150379031D01*
X131586740Y-150362627D01*
X131600662Y-150349193D01*
X131712769Y-150349193D01*
X131726691Y-150362627D01*
X131729694Y-150380267D01*
X131733473Y-150397493D01*
X131738150Y-150414204D01*
X131743849Y-150430301D01*
X131750693Y-150445684D01*
X131758805Y-150460253D01*
X131768308Y-150473908D01*
X131779326Y-150486550D01*
X131791980Y-150498078D01*
X131806395Y-150508393D01*
X131822693Y-150517394D01*
X131840997Y-150524983D01*
X131850940Y-150528217D01*
X131861431Y-150531060D01*
X131872485Y-150533499D01*
X131884117Y-150535524D01*
X131896344Y-150537120D01*
X131909179Y-150538275D01*
X131922640Y-150538978D01*
X131936740Y-150539214D01*
X131952248Y-150538857D01*
X131967263Y-150537783D01*
X131981786Y-150535994D01*
X131995816Y-150533490D01*
X132009355Y-150530270D01*
X132022401Y-150526334D01*
X132034954Y-150521683D01*
X132047016Y-150516317D01*
X132058585Y-150510234D01*
X132069662Y-150503437D01*
X132080246Y-150495923D01*
X132090338Y-150487694D01*
X132099938Y-150478750D01*
X132109046Y-150469090D01*
X132117661Y-150458714D01*
X132125784Y-150447623D01*
X132133415Y-150435817D01*
X132140553Y-150423294D01*
X132147199Y-150410057D01*
X132153353Y-150396103D01*
X132159014Y-150381435D01*
X132164184Y-150366050D01*
X132168861Y-150349950D01*
X132173045Y-150333135D01*
X132176737Y-150315603D01*
X132179937Y-150297357D01*
X132182645Y-150278395D01*
X132184860Y-150258717D01*
X132186583Y-150238323D01*
X132187814Y-150217215D01*
X132188553Y-150195390D01*
X132188799Y-150172850D01*
X132188553Y-150150309D01*
X132187814Y-150128483D01*
X132186583Y-150107371D01*
X132184860Y-150086973D01*
X132182645Y-150067290D01*
X132179937Y-150048321D01*
X132176737Y-150030067D01*
X132173045Y-150012528D01*
X132168861Y-149995703D01*
X132164184Y-149979594D01*
X132159014Y-149964199D01*
X132153353Y-149949520D01*
X132147199Y-149935555D01*
X132140553Y-149922306D01*
X132133415Y-149909773D01*
X132125784Y-149897955D01*
X132117661Y-149886852D01*
X132109046Y-149876465D01*
X132099938Y-149866794D01*
X132090338Y-149857839D01*
X132080246Y-149849599D01*
X132069662Y-149842076D01*
X132058585Y-149835269D01*
X132047016Y-149829178D01*
X132034954Y-149823803D01*
X132022401Y-149819144D01*
X132009355Y-149815202D01*
X131995816Y-149811977D01*
X131981786Y-149809468D01*
X131967263Y-149807676D01*
X131952248Y-149806600D01*
X131936740Y-149806242D01*
X131923865Y-149806439D01*
X131911474Y-149807027D01*
X131899559Y-149807998D01*
X131888114Y-149809345D01*
X131877131Y-149811059D01*
X131866601Y-149813134D01*
X131856516Y-149815562D01*
X131846870Y-149818335D01*
X131828862Y-149824889D01*
X131812513Y-149832736D01*
X131797761Y-149841815D01*
X131784546Y-149852068D01*
X131772805Y-149863434D01*
X131762476Y-149875853D01*
X131753497Y-149889267D01*
X131745807Y-149903614D01*
X131739343Y-149918836D01*
X131734044Y-149934873D01*
X131729847Y-149951665D01*
X131726691Y-149969152D01*
X131712769Y-149982829D01*
X131600662Y-149982829D01*
X131586740Y-149969152D01*
X131588373Y-149952765D01*
X131590657Y-149936766D01*
X131593588Y-149921163D01*
X131597161Y-149905966D01*
X131601370Y-149891183D01*
X131606210Y-149876822D01*
X131611676Y-149862893D01*
X131617763Y-149849404D01*
X131624465Y-149836363D01*
X131631779Y-149823780D01*
X131639697Y-149811663D01*
X131648216Y-149800020D01*
X131657331Y-149788861D01*
X131667035Y-149778194D01*
X131677324Y-149768027D01*
X131688193Y-149758370D01*
X131699636Y-149749231D01*
X131711649Y-149740619D01*
X131724226Y-149732542D01*
X131737362Y-149725009D01*
X131751052Y-149718029D01*
X131765292Y-149711610D01*
X131780075Y-149705762D01*
X131795396Y-149700492D01*
X131811251Y-149695810D01*
X131827634Y-149691724D01*
X131844541Y-149688243D01*
X131861965Y-149685375D01*
X131879902Y-149683129D01*
X131898347Y-149681515D01*
X131917295Y-149680539D01*
X131936740Y-149680212D01*
X131960041Y-149680701D01*
X131982681Y-149682165D01*
X132004653Y-149684604D01*
X132025953Y-149688017D01*
X132046575Y-149692401D01*
X132066516Y-149697755D01*
X132085769Y-149704078D01*
X132104329Y-149711369D01*
X132122192Y-149719625D01*
X132139351Y-149728846D01*
X132155803Y-149739031D01*
X132171542Y-149750176D01*
X132186563Y-149762283D01*
X132200861Y-149775348D01*
X132214431Y-149789370D01*
X132227267Y-149804349D01*
X132239365Y-149820282D01*
X132250719Y-149837168D01*
X132261325Y-149855006D01*
X132271176Y-149873794D01*
X132280269Y-149893531D01*
X132288598Y-149914215D01*
X132296158Y-149935845D01*
X132302944Y-149958420D01*
X132308951Y-149981938D01*
X132314173Y-150006398D01*
X132318606Y-150031798D01*
X132322244Y-150058136D01*
X132325083Y-150085412D01*
X132327117Y-150113624D01*
X132328341Y-150142771D01*
X132328750Y-150172850D01*
X132328341Y-150202907D01*
X132327117Y-150232030D01*
X132325083Y-150260220D01*
X132322244Y-150287473D01*
X132318606Y-150313789D01*
X132314173Y-150339167D01*
X132308951Y-150363604D01*
X132302944Y-150387101D01*
X132296158Y-150409654D01*
X132288598Y-150431264D01*
X132280269Y-150451928D01*
X132271176Y-150471645D01*
X132261325Y-150490413D01*
X132250719Y-150508232D01*
X132239365Y-150525100D01*
X132227267Y-150541016D01*
X132214431Y-150555977D01*
X132200861Y-150569984D01*
X132186563Y-150583034D01*
X132171542Y-150595126D01*
X132155803Y-150606258D01*
X132139351Y-150616430D01*
X132122192Y-150625639D01*
X132104329Y-150633885D01*
X132085769Y-150641166D01*
X132066516Y-150647481D01*
X132046575Y-150652828D01*
X132025953Y-150657206D01*
X132004653Y-150660614D01*
X131982681Y-150663049D01*
X131960041Y-150664512D01*
X131936740Y-150665000D01*
G37*
G36*
X130774877Y-150651078D02*
G01*
X130774877Y-150553136D01*
X130788799Y-150539214D01*
X131278994Y-150539214D01*
X131292916Y-150525048D01*
X131292916Y-150242459D01*
X131278994Y-150228293D01*
X130816887Y-150228293D01*
X130802965Y-150214371D01*
X130802965Y-150116430D01*
X130816887Y-150102264D01*
X131278994Y-150102264D01*
X131292916Y-150088342D01*
X131292916Y-149820408D01*
X131278994Y-149806242D01*
X130788799Y-149806242D01*
X130774877Y-149792320D01*
X130774877Y-149694378D01*
X130788799Y-149680212D01*
X131418945Y-149680212D01*
X131432867Y-149694378D01*
X131432867Y-150651078D01*
X131418945Y-150665000D01*
X130788799Y-150665000D01*
X130774877Y-150651078D01*
G37*
G36*
X129921004Y-150355055D02*
G01*
X129921004Y-150257114D01*
X129934926Y-150242948D01*
X130173063Y-150242948D01*
X130186984Y-150229026D01*
X130186984Y-149991378D01*
X130200906Y-149977212D01*
X130299092Y-149977212D01*
X130313014Y-149991378D01*
X130313014Y-150229026D01*
X130326936Y-150242948D01*
X130565072Y-150242948D01*
X130578994Y-150257114D01*
X130578994Y-150355055D01*
X130565072Y-150368977D01*
X130326936Y-150368977D01*
X130313014Y-150382899D01*
X130313014Y-150619815D01*
X130299092Y-150633736D01*
X130200906Y-150633736D01*
X130186984Y-150619815D01*
X130186984Y-150382899D01*
X130173063Y-150368977D01*
X129934926Y-150368977D01*
X129921004Y-150355055D01*
G37*
G36*
X129375121Y-150665000D02*
G01*
X129354451Y-150664633D01*
X129334434Y-150663544D01*
X129315068Y-150661745D01*
X129296349Y-150659250D01*
X129278276Y-150656073D01*
X129260846Y-150652227D01*
X129244056Y-150647727D01*
X129227904Y-150642586D01*
X129212387Y-150636818D01*
X129197504Y-150630437D01*
X129183250Y-150623455D01*
X129169625Y-150615888D01*
X129156625Y-150607749D01*
X129144248Y-150599050D01*
X129132492Y-150589808D01*
X129121353Y-150580034D01*
X129110829Y-150569742D01*
X129100919Y-150558947D01*
X129091619Y-150547662D01*
X129082927Y-150535901D01*
X129074840Y-150523678D01*
X129067356Y-150511006D01*
X129060472Y-150497899D01*
X129054186Y-150484370D01*
X129048496Y-150470435D01*
X129043398Y-150456105D01*
X129038891Y-150441395D01*
X129034971Y-150426319D01*
X129031637Y-150410891D01*
X129028885Y-150395123D01*
X129026714Y-150379031D01*
X129025121Y-150362627D01*
X129039043Y-150349193D01*
X129151150Y-150349193D01*
X129165072Y-150362627D01*
X129168075Y-150380267D01*
X129171854Y-150397493D01*
X129176531Y-150414204D01*
X129182230Y-150430301D01*
X129189074Y-150445684D01*
X129197186Y-150460253D01*
X129206689Y-150473908D01*
X129217707Y-150486550D01*
X129230361Y-150498078D01*
X129244776Y-150508393D01*
X129261074Y-150517394D01*
X129279378Y-150524983D01*
X129289321Y-150528217D01*
X129299812Y-150531060D01*
X129310866Y-150533499D01*
X129322498Y-150535524D01*
X129334725Y-150537120D01*
X129347560Y-150538275D01*
X129361021Y-150538978D01*
X129375121Y-150539214D01*
X129390629Y-150538857D01*
X129405644Y-150537783D01*
X129420167Y-150535994D01*
X129434197Y-150533490D01*
X129447736Y-150530270D01*
X129460782Y-150526334D01*
X129473335Y-150521683D01*
X129485397Y-150516317D01*
X129496966Y-150510234D01*
X129508043Y-150503437D01*
X129518627Y-150495923D01*
X129528719Y-150487694D01*
X129538319Y-150478750D01*
X129547427Y-150469090D01*
X129556042Y-150458714D01*
X129564165Y-150447623D01*
X129571796Y-150435817D01*
X129578934Y-150423294D01*
X129585580Y-150410057D01*
X129591734Y-150396103D01*
X129597396Y-150381435D01*
X129602565Y-150366050D01*
X129607242Y-150349950D01*
X129611426Y-150333135D01*
X129615118Y-150315603D01*
X129618318Y-150297357D01*
X129621026Y-150278395D01*
X129623241Y-150258717D01*
X129624964Y-150238323D01*
X129626195Y-150217215D01*
X129626934Y-150195390D01*
X129627180Y-150172850D01*
X129626934Y-150150309D01*
X129626195Y-150128483D01*
X129624964Y-150107371D01*
X129623241Y-150086973D01*
X129621026Y-150067290D01*
X129618318Y-150048321D01*
X129615118Y-150030067D01*
X129611426Y-150012528D01*
X129607242Y-149995703D01*
X129602565Y-149979594D01*
X129597396Y-149964199D01*
X129591734Y-149949520D01*
X129585580Y-149935555D01*
X129578934Y-149922306D01*
X129571796Y-149909773D01*
X129564165Y-149897955D01*
X129556042Y-149886852D01*
X129547427Y-149876465D01*
X129538319Y-149866794D01*
X129528719Y-149857839D01*
X129518627Y-149849599D01*
X129508043Y-149842076D01*
X129496966Y-149835269D01*
X129485397Y-149829178D01*
X129473335Y-149823803D01*
X129460782Y-149819144D01*
X129447736Y-149815202D01*
X129434197Y-149811977D01*
X129420167Y-149809468D01*
X129405644Y-149807676D01*
X129390629Y-149806600D01*
X129375121Y-149806242D01*
X129362246Y-149806439D01*
X129349855Y-149807027D01*
X129337940Y-149807998D01*
X129326495Y-149809345D01*
X129315512Y-149811059D01*
X129304982Y-149813134D01*
X129294897Y-149815562D01*
X129285251Y-149818335D01*
X129267243Y-149824889D01*
X129250894Y-149832736D01*
X129236143Y-149841815D01*
X129222927Y-149852068D01*
X129211186Y-149863434D01*
X129200857Y-149875853D01*
X129191879Y-149889267D01*
X129184188Y-149903614D01*
X129177724Y-149918836D01*
X129172425Y-149934873D01*
X129168228Y-149951665D01*
X129165072Y-149969152D01*
X129151150Y-149982829D01*
X129039043Y-149982829D01*
X129025121Y-149969152D01*
X129026754Y-149952765D01*
X129029038Y-149936766D01*
X129031969Y-149921163D01*
X129035542Y-149905966D01*
X129039751Y-149891183D01*
X129044591Y-149876822D01*
X129050057Y-149862893D01*
X129056144Y-149849404D01*
X129062846Y-149836363D01*
X129070160Y-149823780D01*
X129078078Y-149811663D01*
X129086597Y-149800020D01*
X129095712Y-149788861D01*
X129105416Y-149778194D01*
X129115705Y-149768027D01*
X129126574Y-149758370D01*
X129138017Y-149749231D01*
X129150030Y-149740619D01*
X129162607Y-149732542D01*
X129175743Y-149725009D01*
X129189433Y-149718029D01*
X129203673Y-149711610D01*
X129218456Y-149705762D01*
X129233777Y-149700492D01*
X129249632Y-149695810D01*
X129266015Y-149691724D01*
X129282922Y-149688243D01*
X129300346Y-149685375D01*
X129318283Y-149683129D01*
X129336728Y-149681515D01*
X129355676Y-149680539D01*
X129375121Y-149680212D01*
X129398422Y-149680701D01*
X129421062Y-149682165D01*
X129443034Y-149684604D01*
X129464334Y-149688017D01*
X129484956Y-149692401D01*
X129504897Y-149697755D01*
X129524150Y-149704078D01*
X129542710Y-149711369D01*
X129560573Y-149719625D01*
X129577732Y-149728846D01*
X129594184Y-149739031D01*
X129609923Y-149750176D01*
X129624944Y-149762283D01*
X129639242Y-149775348D01*
X129652812Y-149789370D01*
X129665648Y-149804349D01*
X129677746Y-149820282D01*
X129689100Y-149837168D01*
X129699706Y-149855006D01*
X129709557Y-149873794D01*
X129718650Y-149893531D01*
X129726979Y-149914215D01*
X129734539Y-149935845D01*
X129741325Y-149958420D01*
X129747332Y-149981938D01*
X129752554Y-150006398D01*
X129756987Y-150031798D01*
X129760625Y-150058136D01*
X129763464Y-150085412D01*
X129765498Y-150113624D01*
X129766722Y-150142771D01*
X129767131Y-150172850D01*
X129766722Y-150202907D01*
X129765498Y-150232030D01*
X129763464Y-150260220D01*
X129760625Y-150287473D01*
X129756987Y-150313789D01*
X129752554Y-150339167D01*
X129747332Y-150363604D01*
X129741325Y-150387101D01*
X129734539Y-150409654D01*
X129726979Y-150431264D01*
X129718650Y-150451928D01*
X129709557Y-150471645D01*
X129699706Y-150490413D01*
X129689100Y-150508232D01*
X129677746Y-150525100D01*
X129665648Y-150541016D01*
X129652812Y-150555977D01*
X129639242Y-150569984D01*
X129624944Y-150583034D01*
X129609923Y-150595126D01*
X129594184Y-150606258D01*
X129577732Y-150616430D01*
X129560573Y-150625639D01*
X129542710Y-150633885D01*
X129524150Y-150641166D01*
X129504897Y-150647481D01*
X129484956Y-150652828D01*
X129464334Y-150657206D01*
X129443034Y-150660614D01*
X129421062Y-150663049D01*
X129398422Y-150664512D01*
X129375121Y-150665000D01*
G37*
G36*
X128213258Y-150651078D02*
G01*
X128213258Y-149694378D01*
X128227180Y-149680212D01*
X128339287Y-149680212D01*
X128353209Y-149694378D01*
X128353209Y-150088342D01*
X128367375Y-150102264D01*
X128717375Y-150102264D01*
X128731297Y-150088342D01*
X128731297Y-149694378D01*
X128745219Y-149680212D01*
X128857326Y-149680212D01*
X128871248Y-149694378D01*
X128871248Y-150651078D01*
X128857326Y-150665000D01*
X128745219Y-150665000D01*
X128731297Y-150651078D01*
X128731297Y-150242459D01*
X128717375Y-150228293D01*
X128367375Y-150228293D01*
X128353209Y-150242459D01*
X128353209Y-150651078D01*
X128339287Y-150665000D01*
X128227180Y-150665000D01*
X128213258Y-150651078D01*
G37*
G36*
X127765317Y-149694378D02*
G01*
X128073551Y-150549473D01*
X128073551Y-150650589D01*
X128059385Y-150665000D01*
X127975365Y-150665000D01*
X127961444Y-150650589D01*
X127905512Y-150477421D01*
X127877424Y-150462766D01*
X127499336Y-150462766D01*
X127471492Y-150477421D01*
X127415317Y-150650589D01*
X127401395Y-150665000D01*
X127317375Y-150665000D01*
X127303453Y-150650589D01*
X127303453Y-150549473D01*
X127385091Y-150322815D01*
X127527424Y-150322815D01*
X127541346Y-150336737D01*
X127835414Y-150336737D01*
X127849336Y-150322815D01*
X127695463Y-149889773D01*
X127681297Y-149889773D01*
X127527424Y-150322815D01*
X127385091Y-150322815D01*
X127611444Y-149694378D01*
X127625365Y-149680212D01*
X127751395Y-149680212D01*
X127765317Y-149694378D01*
G37*
G36*
X127163502Y-149694378D02*
G01*
X127163502Y-150651078D01*
X127149580Y-150665000D01*
X127037473Y-150665000D01*
X127023551Y-150651078D01*
X127023551Y-150257114D01*
X127009629Y-150242948D01*
X126855512Y-150242948D01*
X126827424Y-150257114D01*
X126575610Y-150651078D01*
X126547522Y-150665000D01*
X126491590Y-150665000D01*
X126477424Y-150651078D01*
X126477424Y-150552648D01*
X126673551Y-150242948D01*
X126673551Y-150229026D01*
X126661860Y-150226251D01*
X126650423Y-150223143D01*
X126639248Y-150219701D01*
X126628341Y-150215922D01*
X126617712Y-150211802D01*
X126607367Y-150207339D01*
X126597315Y-150202531D01*
X126587562Y-150197374D01*
X126578118Y-150191865D01*
X126568988Y-150186003D01*
X126560182Y-150179783D01*
X126551706Y-150173204D01*
X126543569Y-150166263D01*
X126535778Y-150158956D01*
X126528341Y-150151281D01*
X126521266Y-150143236D01*
X126514559Y-150134817D01*
X126508230Y-150126021D01*
X126502285Y-150116847D01*
X126496733Y-150107291D01*
X126491580Y-150097350D01*
X126486835Y-150087022D01*
X126482506Y-150076304D01*
X126478599Y-150065192D01*
X126475124Y-150053686D01*
X126472087Y-150041780D01*
X126469496Y-150029473D01*
X126467359Y-150016763D01*
X126465683Y-150003645D01*
X126464477Y-149990118D01*
X126463747Y-149976179D01*
X126463502Y-149961824D01*
X126603453Y-149961824D01*
X126603618Y-149972198D01*
X126604115Y-149982164D01*
X126606113Y-150000897D01*
X126609467Y-150018062D01*
X126614196Y-150033700D01*
X126620321Y-150047854D01*
X126627861Y-150060562D01*
X126636835Y-150071867D01*
X126647264Y-150081809D01*
X126659167Y-150090428D01*
X126672564Y-150097766D01*
X126687474Y-150103862D01*
X126703917Y-150108759D01*
X126721913Y-150112497D01*
X126741482Y-150115116D01*
X126751862Y-150116019D01*
X126762642Y-150116658D01*
X126773825Y-150117037D01*
X126785414Y-150117163D01*
X127009629Y-150117163D01*
X127023551Y-150102997D01*
X127023551Y-149820408D01*
X127009629Y-149806242D01*
X126785414Y-149806242D01*
X126773825Y-149806367D01*
X126762642Y-149806747D01*
X126751862Y-149807385D01*
X126741482Y-149808289D01*
X126731500Y-149809461D01*
X126712720Y-149812636D01*
X126695503Y-149816952D01*
X126679829Y-149822448D01*
X126665678Y-149829166D01*
X126653030Y-149837149D01*
X126641867Y-149846435D01*
X126632168Y-149857068D01*
X126623913Y-149869087D01*
X126617083Y-149882535D01*
X126611658Y-149897452D01*
X126607619Y-149913879D01*
X126604946Y-149931857D01*
X126603618Y-149951429D01*
X126603453Y-149961824D01*
X126463502Y-149961824D01*
X126463870Y-149943632D01*
X126464965Y-149926099D01*
X126466779Y-149909222D01*
X126469300Y-149892993D01*
X126472519Y-149877408D01*
X126476424Y-149862462D01*
X126481006Y-149848149D01*
X126486255Y-149834463D01*
X126492160Y-149821400D01*
X126498710Y-149808953D01*
X126505897Y-149797117D01*
X126513708Y-149785888D01*
X126522135Y-149775259D01*
X126531166Y-149765225D01*
X126540792Y-149755781D01*
X126551002Y-149746921D01*
X126561786Y-149738640D01*
X126573133Y-149730933D01*
X126585034Y-149723793D01*
X126597478Y-149717217D01*
X126610454Y-149711197D01*
X126623953Y-149705729D01*
X126637964Y-149700808D01*
X126652477Y-149696428D01*
X126667482Y-149692583D01*
X126682968Y-149689269D01*
X126698925Y-149686479D01*
X126715342Y-149684208D01*
X126732210Y-149682452D01*
X126749519Y-149681204D01*
X126767257Y-149680459D01*
X126785414Y-149680212D01*
X127149580Y-149680212D01*
X127163502Y-149694378D01*
G37*
G36*
X125763746Y-150327212D02*
G01*
X125763991Y-150339467D01*
X125764721Y-150351408D01*
X125765927Y-150363030D01*
X125767602Y-150374329D01*
X125769739Y-150385298D01*
X125772329Y-150395934D01*
X125775366Y-150406231D01*
X125778840Y-150416185D01*
X125782745Y-150425790D01*
X125787072Y-150435042D01*
X125791814Y-150443935D01*
X125796964Y-150452465D01*
X125802513Y-150460627D01*
X125808454Y-150468416D01*
X125821479Y-150482855D01*
X125835979Y-150495743D01*
X125851891Y-150507040D01*
X125860357Y-150512080D01*
X125869153Y-150516707D01*
X125878271Y-150520917D01*
X125887703Y-150524705D01*
X125897443Y-150528065D01*
X125907480Y-150530994D01*
X125917809Y-150533485D01*
X125928422Y-150535535D01*
X125939310Y-150537137D01*
X125950466Y-150538288D01*
X125961882Y-150538982D01*
X125973551Y-150539214D01*
X125987794Y-150538903D01*
X126001623Y-150537961D01*
X126015037Y-150536382D01*
X126028032Y-150534158D01*
X126040606Y-150531279D01*
X126052757Y-150527738D01*
X126064482Y-150523527D01*
X126075778Y-150518637D01*
X126086643Y-150513060D01*
X126097075Y-150506788D01*
X126107070Y-150499812D01*
X126116626Y-150492125D01*
X126125741Y-150483718D01*
X126134413Y-150474583D01*
X126142638Y-150464712D01*
X126150413Y-150454096D01*
X126157738Y-150442727D01*
X126164608Y-150430597D01*
X126171022Y-150417699D01*
X126176976Y-150404022D01*
X126182469Y-150389560D01*
X126187498Y-150374304D01*
X126192059Y-150358246D01*
X126196152Y-150341378D01*
X126199772Y-150323691D01*
X126202918Y-150305177D01*
X126205587Y-150285828D01*
X126207777Y-150265636D01*
X126209484Y-150244592D01*
X126210707Y-150222689D01*
X126211442Y-150199917D01*
X126211688Y-150176270D01*
X126211481Y-150152279D01*
X126210856Y-150129167D01*
X126209805Y-150106926D01*
X126208320Y-150085547D01*
X126206394Y-150065024D01*
X126204019Y-150045348D01*
X126201188Y-150026512D01*
X126197892Y-150008509D01*
X126194124Y-149991330D01*
X126189877Y-149974969D01*
X126185142Y-149959416D01*
X126179913Y-149944666D01*
X126174181Y-149930709D01*
X126167939Y-149917539D01*
X126161179Y-149905148D01*
X126153894Y-149893528D01*
X126146075Y-149882671D01*
X126137716Y-149872571D01*
X126128809Y-149863218D01*
X126119345Y-149854606D01*
X126109318Y-149846727D01*
X126098720Y-149839573D01*
X126087542Y-149833137D01*
X126075778Y-149827411D01*
X126063420Y-149822387D01*
X126050459Y-149818057D01*
X126036890Y-149814415D01*
X126022703Y-149811452D01*
X126007891Y-149809161D01*
X125992446Y-149807534D01*
X125976362Y-149806563D01*
X125959629Y-149806242D01*
X125946794Y-149806441D01*
X125934519Y-149807033D01*
X125922793Y-149808011D01*
X125911602Y-149809368D01*
X125900934Y-149811095D01*
X125890776Y-149813186D01*
X125881115Y-149815632D01*
X125863233Y-149821563D01*
X125847187Y-149828828D01*
X125832873Y-149837367D01*
X125820189Y-149847121D01*
X125809034Y-149858029D01*
X125799304Y-149870032D01*
X125790898Y-149883071D01*
X125783712Y-149897085D01*
X125777646Y-149912014D01*
X125772596Y-149927800D01*
X125768460Y-149944382D01*
X125765136Y-149961700D01*
X125763746Y-149970617D01*
X125749580Y-149984295D01*
X125637717Y-149984295D01*
X125623551Y-149970617D01*
X125625046Y-149957729D01*
X125626891Y-149944775D01*
X125629108Y-149931789D01*
X125631721Y-149918799D01*
X125634753Y-149905838D01*
X125638227Y-149892936D01*
X125642166Y-149880125D01*
X125646594Y-149867436D01*
X125651533Y-149854899D01*
X125657007Y-149842547D01*
X125663040Y-149830409D01*
X125669653Y-149818517D01*
X125676870Y-149806903D01*
X125684715Y-149795596D01*
X125693211Y-149784629D01*
X125702380Y-149774032D01*
X125712247Y-149763837D01*
X125722833Y-149754074D01*
X125734163Y-149744774D01*
X125746259Y-149735970D01*
X125759145Y-149727691D01*
X125772844Y-149719969D01*
X125787378Y-149712835D01*
X125802772Y-149706320D01*
X125819048Y-149700455D01*
X125836229Y-149695271D01*
X125854339Y-149690799D01*
X125873401Y-149687071D01*
X125893438Y-149684117D01*
X125914473Y-149681968D01*
X125936529Y-149680657D01*
X125959629Y-149680212D01*
X125982930Y-149680663D01*
X126005570Y-149682019D01*
X126027542Y-149684286D01*
X126048842Y-149687472D01*
X126069464Y-149691584D01*
X126089405Y-149696626D01*
X126108658Y-149702607D01*
X126127218Y-149709533D01*
X126145081Y-149717410D01*
X126162240Y-149726245D01*
X126178692Y-149736044D01*
X126194431Y-149746815D01*
X126209452Y-149758563D01*
X126223750Y-149771295D01*
X126237320Y-149785018D01*
X126250156Y-149799739D01*
X126262254Y-149815463D01*
X126273608Y-149832198D01*
X126284214Y-149849950D01*
X126294065Y-149868725D01*
X126303158Y-149888531D01*
X126311487Y-149909374D01*
X126319047Y-149931260D01*
X126325833Y-149954196D01*
X126331840Y-149978188D01*
X126337062Y-150003243D01*
X126341495Y-150029369D01*
X126345133Y-150056570D01*
X126347972Y-150084854D01*
X126350006Y-150114228D01*
X126351230Y-150144697D01*
X126351639Y-150176270D01*
X126351230Y-150207262D01*
X126350009Y-150237182D01*
X126347983Y-150266037D01*
X126345160Y-150293831D01*
X126341548Y-150320571D01*
X126337154Y-150346261D01*
X126331985Y-150370909D01*
X126326051Y-150394520D01*
X126319357Y-150417099D01*
X126311912Y-150438652D01*
X126303724Y-150459185D01*
X126294800Y-150478705D01*
X126285147Y-150497216D01*
X126274774Y-150514724D01*
X126263688Y-150531235D01*
X126251896Y-150546755D01*
X126239407Y-150561290D01*
X126226228Y-150574846D01*
X126212367Y-150587427D01*
X126197830Y-150599041D01*
X126182627Y-150609692D01*
X126166764Y-150619387D01*
X126150250Y-150628132D01*
X126133091Y-150635931D01*
X126115296Y-150642791D01*
X126096872Y-150648718D01*
X126077827Y-150653717D01*
X126058168Y-150657794D01*
X126037904Y-150660955D01*
X126017041Y-150663206D01*
X125995587Y-150664552D01*
X125973551Y-150665000D01*
X125963186Y-150664837D01*
X125953066Y-150664358D01*
X125943191Y-150663571D01*
X125924176Y-150661116D01*
X125906142Y-150657556D01*
X125889088Y-150652971D01*
X125873017Y-150647444D01*
X125857929Y-150641057D01*
X125843825Y-150633891D01*
X125830704Y-150626029D01*
X125818569Y-150617553D01*
X125807419Y-150608544D01*
X125797256Y-150599084D01*
X125788079Y-150589256D01*
X125779891Y-150579141D01*
X125772691Y-150568821D01*
X125766481Y-150558378D01*
X125763746Y-150553136D01*
X125749580Y-150553136D01*
X125735658Y-150637156D01*
X125721737Y-150665000D01*
X125637717Y-150665000D01*
X125623551Y-150651078D01*
X125623551Y-150162348D01*
X125637717Y-150148426D01*
X126001639Y-150148426D01*
X126015561Y-150162348D01*
X126015561Y-150260289D01*
X126001639Y-150274211D01*
X125777668Y-150274211D01*
X125763746Y-150288377D01*
X125763746Y-150327212D01*
G37*
G36*
X124797766Y-150651078D02*
G01*
X124797766Y-150553136D01*
X124811688Y-150539214D01*
X125301883Y-150539214D01*
X125315805Y-150525048D01*
X125315805Y-150242459D01*
X125301883Y-150228293D01*
X124839776Y-150228293D01*
X124825854Y-150214371D01*
X124825854Y-150116430D01*
X124839776Y-150102264D01*
X125301883Y-150102264D01*
X125315805Y-150088342D01*
X125315805Y-149820408D01*
X125301883Y-149806242D01*
X124811688Y-149806242D01*
X124797766Y-149792320D01*
X124797766Y-149694378D01*
X124811688Y-149680212D01*
X125441834Y-149680212D01*
X125455756Y-149694378D01*
X125455756Y-150651078D01*
X125441834Y-150665000D01*
X124811688Y-150665000D01*
X124797766Y-150651078D01*
G37*
G36*
X119201813Y-150651078D02*
G01*
X119201813Y-149694378D01*
X119215735Y-149680212D01*
X119327842Y-149680212D01*
X119341764Y-149694378D01*
X119341764Y-150088342D01*
X119355930Y-150102264D01*
X119705930Y-150102264D01*
X119719852Y-150088342D01*
X119719852Y-149694378D01*
X119733774Y-149680212D01*
X119845881Y-149680212D01*
X119859803Y-149694378D01*
X119859803Y-150651078D01*
X119845881Y-150665000D01*
X119733774Y-150665000D01*
X119719852Y-150651078D01*
X119719852Y-150242459D01*
X119705930Y-150228293D01*
X119355930Y-150228293D01*
X119341764Y-150242459D01*
X119341764Y-150651078D01*
X119327842Y-150665000D01*
X119215735Y-150665000D01*
X119201813Y-150651078D01*
G37*
G36*
X118705992Y-149680701D02*
G01*
X118727309Y-149682165D01*
X118747964Y-149684604D01*
X118767956Y-149688017D01*
X118787283Y-149692401D01*
X118805941Y-149697755D01*
X118823928Y-149704078D01*
X118841242Y-149711369D01*
X118857879Y-149719625D01*
X118873838Y-149728846D01*
X118889115Y-149739031D01*
X118903708Y-149750176D01*
X118917614Y-149762283D01*
X118930832Y-149775348D01*
X118943357Y-149789370D01*
X118955189Y-149804349D01*
X118966323Y-149820282D01*
X118976758Y-149837168D01*
X118986490Y-149855006D01*
X118995518Y-149873794D01*
X119003839Y-149893531D01*
X119011450Y-149914215D01*
X119018348Y-149935845D01*
X119024531Y-149958420D01*
X119029996Y-149981938D01*
X119034741Y-150006398D01*
X119038763Y-150031798D01*
X119042060Y-150058136D01*
X119044629Y-150085412D01*
X119046466Y-150113624D01*
X119047571Y-150142771D01*
X119047940Y-150172850D01*
X119047571Y-150202907D01*
X119046466Y-150232030D01*
X119044629Y-150260220D01*
X119042060Y-150287473D01*
X119038763Y-150313789D01*
X119034741Y-150339167D01*
X119029996Y-150363604D01*
X119024531Y-150387101D01*
X119018348Y-150409654D01*
X119011450Y-150431264D01*
X119003839Y-150451928D01*
X118995518Y-150471645D01*
X118986490Y-150490413D01*
X118976758Y-150508232D01*
X118966323Y-150525100D01*
X118955189Y-150541016D01*
X118943357Y-150555977D01*
X118930832Y-150569984D01*
X118917614Y-150583034D01*
X118903708Y-150595126D01*
X118889115Y-150606258D01*
X118873838Y-150616430D01*
X118857879Y-150625639D01*
X118841242Y-150633885D01*
X118823928Y-150641166D01*
X118805941Y-150647481D01*
X118787283Y-150652828D01*
X118767956Y-150657206D01*
X118747964Y-150660614D01*
X118727309Y-150663049D01*
X118705992Y-150664512D01*
X118684018Y-150665000D01*
X118669852Y-150665000D01*
X118647878Y-150664512D01*
X118626561Y-150663049D01*
X118605906Y-150660614D01*
X118585914Y-150657206D01*
X118566587Y-150652828D01*
X118547929Y-150647481D01*
X118529942Y-150641166D01*
X118512628Y-150633885D01*
X118495991Y-150625639D01*
X118480032Y-150616430D01*
X118464755Y-150606258D01*
X118450162Y-150595126D01*
X118436256Y-150583034D01*
X118423038Y-150569984D01*
X118410513Y-150555977D01*
X118398681Y-150541016D01*
X118387547Y-150525100D01*
X118377112Y-150508232D01*
X118367380Y-150490413D01*
X118358352Y-150471645D01*
X118350031Y-150451928D01*
X118342420Y-150431264D01*
X118335522Y-150409654D01*
X118329339Y-150387101D01*
X118323874Y-150363604D01*
X118319129Y-150339167D01*
X118315107Y-150313789D01*
X118311810Y-150287473D01*
X118309241Y-150260220D01*
X118307404Y-150232030D01*
X118306299Y-150202907D01*
X118305930Y-150172850D01*
X118445881Y-150172850D01*
X118446087Y-150195390D01*
X118446706Y-150217215D01*
X118447741Y-150238323D01*
X118449194Y-150258717D01*
X118451068Y-150278395D01*
X118453365Y-150297357D01*
X118456087Y-150315603D01*
X118459238Y-150333135D01*
X118462820Y-150349950D01*
X118466835Y-150366050D01*
X118471286Y-150381435D01*
X118476175Y-150396103D01*
X118481505Y-150410057D01*
X118487278Y-150423294D01*
X118493497Y-150435817D01*
X118500164Y-150447623D01*
X118507282Y-150458714D01*
X118514854Y-150469090D01*
X118522881Y-150478750D01*
X118531366Y-150487694D01*
X118540313Y-150495923D01*
X118549722Y-150503437D01*
X118559598Y-150510234D01*
X118569941Y-150516317D01*
X118580756Y-150521683D01*
X118592044Y-150526334D01*
X118603808Y-150530270D01*
X118616050Y-150533490D01*
X118628773Y-150535994D01*
X118641979Y-150537783D01*
X118655671Y-150538857D01*
X118669852Y-150539214D01*
X118684018Y-150539214D01*
X118698199Y-150538857D01*
X118711891Y-150537783D01*
X118725097Y-150535994D01*
X118737820Y-150533490D01*
X118750062Y-150530270D01*
X118761826Y-150526334D01*
X118773114Y-150521683D01*
X118783929Y-150516317D01*
X118794272Y-150510234D01*
X118804148Y-150503437D01*
X118813557Y-150495923D01*
X118822504Y-150487694D01*
X118830989Y-150478750D01*
X118839016Y-150469090D01*
X118846588Y-150458714D01*
X118853706Y-150447623D01*
X118860373Y-150435817D01*
X118866592Y-150423294D01*
X118872365Y-150410057D01*
X118877695Y-150396103D01*
X118882584Y-150381435D01*
X118887035Y-150366050D01*
X118891050Y-150349950D01*
X118894632Y-150333135D01*
X118897783Y-150315603D01*
X118900505Y-150297357D01*
X118902802Y-150278395D01*
X118904676Y-150258717D01*
X118906129Y-150238323D01*
X118907164Y-150217215D01*
X118907783Y-150195390D01*
X118907989Y-150172850D01*
X118907783Y-150150309D01*
X118907164Y-150128483D01*
X118906129Y-150107371D01*
X118904676Y-150086973D01*
X118902802Y-150067290D01*
X118900505Y-150048321D01*
X118897783Y-150030067D01*
X118894632Y-150012528D01*
X118891050Y-149995703D01*
X118887035Y-149979594D01*
X118882584Y-149964199D01*
X118877695Y-149949520D01*
X118872365Y-149935555D01*
X118866592Y-149922306D01*
X118860373Y-149909773D01*
X118853706Y-149897955D01*
X118846588Y-149886852D01*
X118839016Y-149876465D01*
X118830989Y-149866794D01*
X118822504Y-149857839D01*
X118813557Y-149849599D01*
X118804148Y-149842076D01*
X118794272Y-149835269D01*
X118783929Y-149829178D01*
X118773114Y-149823803D01*
X118761826Y-149819144D01*
X118750062Y-149815202D01*
X118737820Y-149811977D01*
X118725097Y-149809468D01*
X118711891Y-149807676D01*
X118698199Y-149806600D01*
X118684018Y-149806242D01*
X118669852Y-149806242D01*
X118655671Y-149806600D01*
X118641979Y-149807676D01*
X118628773Y-149809468D01*
X118616050Y-149811977D01*
X118603808Y-149815202D01*
X118592044Y-149819144D01*
X118580756Y-149823803D01*
X118569941Y-149829178D01*
X118559598Y-149835269D01*
X118549722Y-149842076D01*
X118540313Y-149849599D01*
X118531366Y-149857839D01*
X118522881Y-149866794D01*
X118514854Y-149876465D01*
X118507282Y-149886852D01*
X118500164Y-149897955D01*
X118493497Y-149909773D01*
X118487278Y-149922306D01*
X118481505Y-149935555D01*
X118476175Y-149949520D01*
X118471286Y-149964199D01*
X118466835Y-149979594D01*
X118462820Y-149995703D01*
X118459238Y-150012528D01*
X118456087Y-150030067D01*
X118453365Y-150048321D01*
X118451068Y-150067290D01*
X118449194Y-150086973D01*
X118447741Y-150107371D01*
X118446706Y-150128483D01*
X118446087Y-150150309D01*
X118445881Y-150172850D01*
X118305930Y-150172850D01*
X118306299Y-150142771D01*
X118307404Y-150113624D01*
X118309241Y-150085412D01*
X118311810Y-150058136D01*
X118315107Y-150031798D01*
X118319129Y-150006398D01*
X118323874Y-149981938D01*
X118329339Y-149958420D01*
X118335522Y-149935845D01*
X118342420Y-149914215D01*
X118350031Y-149893531D01*
X118358352Y-149873794D01*
X118367380Y-149855006D01*
X118377112Y-149837168D01*
X118387547Y-149820282D01*
X118398681Y-149804349D01*
X118410513Y-149789370D01*
X118423038Y-149775348D01*
X118436256Y-149762283D01*
X118450162Y-149750176D01*
X118464755Y-149739031D01*
X118480032Y-149728846D01*
X118495991Y-149719625D01*
X118512628Y-149711369D01*
X118529942Y-149704078D01*
X118547929Y-149697755D01*
X118566587Y-149692401D01*
X118585914Y-149688017D01*
X118605906Y-149684604D01*
X118626561Y-149682165D01*
X118647878Y-149680701D01*
X118669852Y-149680212D01*
X118684018Y-149680212D01*
X118705992Y-149680701D01*
G37*
G36*
X117438135Y-150389738D02*
G01*
X117438543Y-150372301D01*
X117439755Y-150355563D01*
X117441756Y-150339510D01*
X117444531Y-150324126D01*
X117448065Y-150309397D01*
X117452342Y-150295308D01*
X117457346Y-150281844D01*
X117463063Y-150268990D01*
X117469477Y-150256732D01*
X117476573Y-150245054D01*
X117484334Y-150233941D01*
X117492746Y-150223380D01*
X117501794Y-150213354D01*
X117511462Y-150203850D01*
X117521734Y-150194851D01*
X117532596Y-150186345D01*
X117544032Y-150178314D01*
X117556026Y-150170746D01*
X117568563Y-150163624D01*
X117581628Y-150156934D01*
X117595205Y-150150662D01*
X117609279Y-150144792D01*
X117623835Y-150139309D01*
X117638857Y-150134199D01*
X117654330Y-150129446D01*
X117670238Y-150125037D01*
X117686566Y-150120956D01*
X117703299Y-150117188D01*
X117720421Y-150113718D01*
X117737917Y-150110532D01*
X117755772Y-150107614D01*
X117773969Y-150104951D01*
X117791989Y-150102407D01*
X117809280Y-150099847D01*
X117825853Y-150097258D01*
X117841718Y-150094625D01*
X117856886Y-150091931D01*
X117871367Y-150089163D01*
X117885171Y-150086305D01*
X117898308Y-150083343D01*
X117910788Y-150080261D01*
X117922623Y-150077045D01*
X117933821Y-150073679D01*
X117944393Y-150070149D01*
X117954350Y-150066440D01*
X117963701Y-150062536D01*
X117980629Y-150054087D01*
X117995259Y-150044682D01*
X118007672Y-150034201D01*
X118017951Y-150022526D01*
X118026177Y-150009536D01*
X118032432Y-149995112D01*
X118036799Y-149979134D01*
X118039359Y-149961484D01*
X118040194Y-149942041D01*
X118039376Y-149927112D01*
X118036936Y-149912854D01*
X118032894Y-149899306D01*
X118027272Y-149886510D01*
X118020090Y-149874504D01*
X118011368Y-149863331D01*
X118001129Y-149853030D01*
X117989391Y-149843641D01*
X117976177Y-149835206D01*
X117961507Y-149827764D01*
X117945401Y-149821356D01*
X117927880Y-149816023D01*
X117908966Y-149811804D01*
X117898993Y-149810126D01*
X117888678Y-149808741D01*
X117878026Y-149807655D01*
X117867038Y-149806873D01*
X117855718Y-149806400D01*
X117844067Y-149806242D01*
X117827375Y-149806401D01*
X117811409Y-149806880D01*
X117796156Y-149807677D01*
X117781602Y-149808794D01*
X117767736Y-149810229D01*
X117754544Y-149811983D01*
X117742013Y-149814055D01*
X117730131Y-149816446D01*
X117718885Y-149819156D01*
X117708262Y-149822184D01*
X117698249Y-149825530D01*
X117688833Y-149829194D01*
X117671742Y-149837476D01*
X117656885Y-149847030D01*
X117644161Y-149857855D01*
X117633467Y-149869950D01*
X117624700Y-149883314D01*
X117617757Y-149897947D01*
X117612535Y-149913848D01*
X117608933Y-149931016D01*
X117606847Y-149949451D01*
X117606174Y-149969152D01*
X117592008Y-149982829D01*
X117480145Y-149982829D01*
X117465979Y-149969152D01*
X117466427Y-149950293D01*
X117467761Y-149932137D01*
X117469962Y-149914675D01*
X117473011Y-149897902D01*
X117476892Y-149881810D01*
X117481586Y-149866392D01*
X117487075Y-149851643D01*
X117493342Y-149837554D01*
X117500367Y-149824120D01*
X117508134Y-149811334D01*
X117516624Y-149799188D01*
X117525819Y-149787677D01*
X117535702Y-149776793D01*
X117546254Y-149766529D01*
X117557457Y-149756880D01*
X117569294Y-149747837D01*
X117581746Y-149739395D01*
X117594795Y-149731546D01*
X117608424Y-149724285D01*
X117622614Y-149717603D01*
X117637348Y-149711495D01*
X117652607Y-149705953D01*
X117668374Y-149700971D01*
X117684630Y-149696542D01*
X117701358Y-149692660D01*
X117718539Y-149689317D01*
X117736156Y-149686507D01*
X117754190Y-149684223D01*
X117772624Y-149682458D01*
X117791440Y-149681206D01*
X117810620Y-149680460D01*
X117830145Y-149680212D01*
X117853326Y-149680617D01*
X117875614Y-149681811D01*
X117897019Y-149683766D01*
X117917553Y-149686454D01*
X117937224Y-149689845D01*
X117956044Y-149693910D01*
X117974022Y-149698621D01*
X117991170Y-149703950D01*
X118007497Y-149709866D01*
X118023013Y-149716342D01*
X118037729Y-149723348D01*
X118051655Y-149730856D01*
X118064802Y-149738838D01*
X118077179Y-149747263D01*
X118088797Y-149756104D01*
X118099667Y-149765331D01*
X118109798Y-149774916D01*
X118119201Y-149784830D01*
X118127886Y-149795044D01*
X118135864Y-149805530D01*
X118143144Y-149816258D01*
X118149737Y-149827200D01*
X118155653Y-149838327D01*
X118160903Y-149849610D01*
X118165497Y-149861020D01*
X118169445Y-149872529D01*
X118172757Y-149884108D01*
X118175444Y-149895728D01*
X118177516Y-149907360D01*
X118178984Y-149918975D01*
X118179856Y-149930545D01*
X118180145Y-149942041D01*
X118179778Y-149957075D01*
X118178682Y-149971637D01*
X118176868Y-149985731D01*
X118174347Y-149999361D01*
X118171128Y-150012534D01*
X118167222Y-150025254D01*
X118162638Y-150037526D01*
X118157388Y-150049355D01*
X118151482Y-150060746D01*
X118144929Y-150071704D01*
X118137741Y-150082234D01*
X118129926Y-150092342D01*
X118121496Y-150102031D01*
X118112460Y-150111308D01*
X118102830Y-150120176D01*
X118092615Y-150128642D01*
X118081825Y-150136710D01*
X118070470Y-150144385D01*
X118058562Y-150151673D01*
X118046110Y-150158577D01*
X118033124Y-150165104D01*
X118019614Y-150171258D01*
X118005592Y-150177044D01*
X117991067Y-150182467D01*
X117976049Y-150187533D01*
X117960548Y-150192246D01*
X117944576Y-150196611D01*
X117928141Y-150200633D01*
X117911255Y-150204317D01*
X117893927Y-150207669D01*
X117876169Y-150210693D01*
X117857989Y-150213394D01*
X117839952Y-150215939D01*
X117822565Y-150218501D01*
X117805823Y-150221098D01*
X117789722Y-150223747D01*
X117774256Y-150226465D01*
X117759419Y-150229271D01*
X117745208Y-150232181D01*
X117731616Y-150235212D01*
X117718639Y-150238383D01*
X117706271Y-150241710D01*
X117694508Y-150245212D01*
X117683345Y-150248905D01*
X117672775Y-150252806D01*
X117662795Y-150256934D01*
X117653399Y-150261305D01*
X117644582Y-150265937D01*
X117628664Y-150276054D01*
X117615001Y-150287423D01*
X117603551Y-150300185D01*
X117594275Y-150314477D01*
X117587131Y-150330439D01*
X117582079Y-150348210D01*
X117579078Y-150367930D01*
X117578333Y-150378564D01*
X117578086Y-150389738D01*
X117578371Y-150399729D01*
X117580611Y-150418538D01*
X117584993Y-150435816D01*
X117591415Y-150451601D01*
X117599774Y-150465934D01*
X117609969Y-150478854D01*
X117621895Y-150490401D01*
X117635453Y-150500615D01*
X117650538Y-150509535D01*
X117667049Y-150517202D01*
X117684884Y-150523654D01*
X117694265Y-150526437D01*
X117703939Y-150528932D01*
X117713893Y-150531143D01*
X117724114Y-150533075D01*
X117734589Y-150534734D01*
X117745305Y-150536124D01*
X117756249Y-150537250D01*
X117767410Y-150538117D01*
X117778773Y-150538730D01*
X117790326Y-150539094D01*
X117802057Y-150539214D01*
X117817605Y-150539054D01*
X117832736Y-150538570D01*
X117847447Y-150537756D01*
X117861732Y-150536609D01*
X117875585Y-150535124D01*
X117889002Y-150533294D01*
X117901978Y-150531117D01*
X117914508Y-150528586D01*
X117926586Y-150525697D01*
X117938208Y-150522445D01*
X117949367Y-150518825D01*
X117960060Y-150514833D01*
X117970281Y-150510462D01*
X117980025Y-150505710D01*
X117989287Y-150500569D01*
X117998062Y-150495037D01*
X118006344Y-150489107D01*
X118014129Y-150482776D01*
X118021412Y-150476037D01*
X118028187Y-150468887D01*
X118034449Y-150461320D01*
X118040194Y-150453332D01*
X118045415Y-150444917D01*
X118050109Y-150436071D01*
X118054269Y-150426789D01*
X118057891Y-150417066D01*
X118060970Y-150406897D01*
X118063501Y-150396278D01*
X118065478Y-150385202D01*
X118066897Y-150373666D01*
X118067752Y-150361665D01*
X118068038Y-150349193D01*
X118082204Y-150335516D01*
X118194067Y-150335516D01*
X118208233Y-150349193D01*
X118207784Y-150368043D01*
X118206444Y-150386349D01*
X118204227Y-150404108D01*
X118201146Y-150421317D01*
X118197213Y-150437972D01*
X118192441Y-150454069D01*
X118186842Y-150469605D01*
X118180431Y-150484577D01*
X118173220Y-150498979D01*
X118165221Y-150512810D01*
X118156447Y-150526064D01*
X118146911Y-150538740D01*
X118136627Y-150550832D01*
X118125606Y-150562338D01*
X118113862Y-150573253D01*
X118101407Y-150583575D01*
X118088255Y-150593299D01*
X118074418Y-150602422D01*
X118059909Y-150610941D01*
X118044741Y-150618850D01*
X118028926Y-150626148D01*
X118012478Y-150632831D01*
X117995409Y-150638894D01*
X117977733Y-150644334D01*
X117959461Y-150649148D01*
X117940607Y-150653332D01*
X117921184Y-150656882D01*
X117901205Y-150659795D01*
X117880682Y-150662066D01*
X117859628Y-150663693D01*
X117838056Y-150664672D01*
X117815979Y-150665000D01*
X117791494Y-150664634D01*
X117767903Y-150663550D01*
X117745201Y-150661767D01*
X117723378Y-150659303D01*
X117702427Y-150656176D01*
X117682341Y-150652406D01*
X117663111Y-150648011D01*
X117644730Y-150643010D01*
X117627191Y-150637421D01*
X117610484Y-150631264D01*
X117594604Y-150624557D01*
X117579541Y-150617318D01*
X117565288Y-150609566D01*
X117551838Y-150601321D01*
X117539183Y-150592600D01*
X117527314Y-150583422D01*
X117516225Y-150573807D01*
X117505908Y-150563772D01*
X117496354Y-150553337D01*
X117487556Y-150542520D01*
X117479506Y-150531340D01*
X117472197Y-150519816D01*
X117465621Y-150507965D01*
X117459770Y-150495808D01*
X117454636Y-150483362D01*
X117450212Y-150470647D01*
X117446490Y-150457680D01*
X117443461Y-150444482D01*
X117441120Y-150431069D01*
X117439457Y-150417462D01*
X117438464Y-150403679D01*
X117438135Y-150389738D01*
G37*
G36*
X116598184Y-149792320D02*
G01*
X116598184Y-149694378D01*
X116612106Y-149680212D01*
X117340194Y-149680212D01*
X117354360Y-149694378D01*
X117354360Y-149792320D01*
X117340194Y-149806242D01*
X117060292Y-149806242D01*
X117046126Y-149820408D01*
X117046126Y-150651078D01*
X117032204Y-150665000D01*
X116920096Y-150665000D01*
X116906174Y-150651078D01*
X116906174Y-149820408D01*
X116892253Y-149806242D01*
X116612106Y-149806242D01*
X116598184Y-149792320D01*
G37*
G36*
X144291764Y-150651078D02*
G01*
X144291764Y-149694378D01*
X144305686Y-149680212D01*
X144459803Y-149680212D01*
X144473725Y-149694378D01*
X144627598Y-150425886D01*
X144641764Y-150425886D01*
X144795637Y-149694378D01*
X144809803Y-149680212D01*
X144963676Y-149680212D01*
X144977842Y-149694378D01*
X144977842Y-150651078D01*
X144963676Y-150665000D01*
X144851813Y-150665000D01*
X144837647Y-150651078D01*
X144837647Y-150046088D01*
X144823725Y-150046088D01*
X144697696Y-150651078D01*
X144683774Y-150665000D01*
X144585588Y-150665000D01*
X144571666Y-150651078D01*
X144445637Y-150046088D01*
X144431715Y-150046088D01*
X144431715Y-150651078D01*
X144417793Y-150665000D01*
X144305686Y-150665000D01*
X144291764Y-150651078D01*
G37*
G36*
X143493823Y-150651078D02*
G01*
X143493823Y-150553136D01*
X143507745Y-150539214D01*
X143703872Y-150539214D01*
X143717793Y-150525048D01*
X143717793Y-149820408D01*
X143703872Y-149806242D01*
X143521911Y-149806242D01*
X143507745Y-149792320D01*
X143507745Y-149694378D01*
X143521911Y-149680212D01*
X144053872Y-149680212D01*
X144067793Y-149694378D01*
X144067793Y-149792320D01*
X144053872Y-149806242D01*
X143871911Y-149806242D01*
X143857745Y-149820408D01*
X143857745Y-150525048D01*
X143871911Y-150539214D01*
X144067793Y-150539214D01*
X144081959Y-150553136D01*
X144081959Y-150651078D01*
X144067793Y-150665000D01*
X143507745Y-150665000D01*
X143493823Y-150651078D01*
G37*
G36*
X142905930Y-150665000D02*
G01*
X142885260Y-150664633D01*
X142865243Y-150663544D01*
X142845877Y-150661745D01*
X142827158Y-150659250D01*
X142809085Y-150656073D01*
X142791655Y-150652227D01*
X142774865Y-150647727D01*
X142758713Y-150642586D01*
X142743196Y-150636818D01*
X142728313Y-150630437D01*
X142714059Y-150623455D01*
X142700434Y-150615888D01*
X142687434Y-150607749D01*
X142675057Y-150599050D01*
X142663301Y-150589808D01*
X142652162Y-150580034D01*
X142641638Y-150569742D01*
X142631728Y-150558947D01*
X142622428Y-150547662D01*
X142613736Y-150535901D01*
X142605649Y-150523678D01*
X142598165Y-150511006D01*
X142591281Y-150497899D01*
X142584995Y-150484370D01*
X142579305Y-150470435D01*
X142574207Y-150456105D01*
X142569700Y-150441395D01*
X142565780Y-150426319D01*
X142562446Y-150410891D01*
X142559694Y-150395123D01*
X142557523Y-150379031D01*
X142555930Y-150362627D01*
X142569852Y-150349193D01*
X142681959Y-150349193D01*
X142695881Y-150362627D01*
X142698884Y-150380267D01*
X142702663Y-150397493D01*
X142707340Y-150414204D01*
X142713039Y-150430301D01*
X142719883Y-150445684D01*
X142727995Y-150460253D01*
X142737498Y-150473908D01*
X142748516Y-150486550D01*
X142761170Y-150498078D01*
X142775585Y-150508393D01*
X142791883Y-150517394D01*
X142810187Y-150524983D01*
X142820130Y-150528217D01*
X142830621Y-150531060D01*
X142841675Y-150533499D01*
X142853307Y-150535524D01*
X142865534Y-150537120D01*
X142878369Y-150538275D01*
X142891830Y-150538978D01*
X142905930Y-150539214D01*
X142921438Y-150538857D01*
X142936453Y-150537783D01*
X142950976Y-150535994D01*
X142965006Y-150533490D01*
X142978545Y-150530270D01*
X142991591Y-150526334D01*
X143004144Y-150521683D01*
X143016206Y-150516317D01*
X143027775Y-150510234D01*
X143038852Y-150503437D01*
X143049436Y-150495923D01*
X143059528Y-150487694D01*
X143069128Y-150478750D01*
X143078236Y-150469090D01*
X143086851Y-150458714D01*
X143094974Y-150447623D01*
X143102605Y-150435817D01*
X143109743Y-150423294D01*
X143116389Y-150410057D01*
X143122543Y-150396103D01*
X143128204Y-150381435D01*
X143133374Y-150366050D01*
X143138051Y-150349950D01*
X143142235Y-150333135D01*
X143145927Y-150315603D01*
X143149127Y-150297357D01*
X143151835Y-150278395D01*
X143154050Y-150258717D01*
X143155773Y-150238323D01*
X143157004Y-150217215D01*
X143157743Y-150195390D01*
X143157989Y-150172850D01*
X143157743Y-150150309D01*
X143157004Y-150128483D01*
X143155773Y-150107371D01*
X143154050Y-150086973D01*
X143151835Y-150067290D01*
X143149127Y-150048321D01*
X143145927Y-150030067D01*
X143142235Y-150012528D01*
X143138051Y-149995703D01*
X143133374Y-149979594D01*
X143128204Y-149964199D01*
X143122543Y-149949520D01*
X143116389Y-149935555D01*
X143109743Y-149922306D01*
X143102605Y-149909773D01*
X143094974Y-149897955D01*
X143086851Y-149886852D01*
X143078236Y-149876465D01*
X143069128Y-149866794D01*
X143059528Y-149857839D01*
X143049436Y-149849599D01*
X143038852Y-149842076D01*
X143027775Y-149835269D01*
X143016206Y-149829178D01*
X143004144Y-149823803D01*
X142991591Y-149819144D01*
X142978545Y-149815202D01*
X142965006Y-149811977D01*
X142950976Y-149809468D01*
X142936453Y-149807676D01*
X142921438Y-149806600D01*
X142905930Y-149806242D01*
X142893055Y-149806439D01*
X142880664Y-149807027D01*
X142868749Y-149807998D01*
X142857304Y-149809345D01*
X142846321Y-149811059D01*
X142835791Y-149813134D01*
X142825706Y-149815562D01*
X142816060Y-149818335D01*
X142798052Y-149824889D01*
X142781703Y-149832736D01*
X142766951Y-149841815D01*
X142753736Y-149852068D01*
X142741995Y-149863434D01*
X142731666Y-149875853D01*
X142722687Y-149889267D01*
X142714997Y-149903614D01*
X142708533Y-149918836D01*
X142703234Y-149934873D01*
X142699037Y-149951665D01*
X142695881Y-149969152D01*
X142681959Y-149982829D01*
X142569852Y-149982829D01*
X142555930Y-149969152D01*
X142557563Y-149952765D01*
X142559847Y-149936766D01*
X142562778Y-149921163D01*
X142566351Y-149905966D01*
X142570560Y-149891183D01*
X142575400Y-149876822D01*
X142580866Y-149862893D01*
X142586953Y-149849404D01*
X142593655Y-149836363D01*
X142600969Y-149823780D01*
X142608887Y-149811663D01*
X142617406Y-149800020D01*
X142626520Y-149788861D01*
X142636225Y-149778194D01*
X142646514Y-149768027D01*
X142657383Y-149758370D01*
X142668826Y-149749231D01*
X142680839Y-149740619D01*
X142693416Y-149732542D01*
X142706552Y-149725009D01*
X142720242Y-149718029D01*
X142734482Y-149711610D01*
X142749265Y-149705762D01*
X142764586Y-149700492D01*
X142780441Y-149695810D01*
X142796824Y-149691724D01*
X142813731Y-149688243D01*
X142831155Y-149685375D01*
X142849092Y-149683129D01*
X142867537Y-149681515D01*
X142886485Y-149680539D01*
X142905930Y-149680212D01*
X142929231Y-149680701D01*
X142951871Y-149682165D01*
X142973843Y-149684604D01*
X142995143Y-149688017D01*
X143015765Y-149692401D01*
X143035706Y-149697755D01*
X143054959Y-149704078D01*
X143073519Y-149711369D01*
X143091382Y-149719625D01*
X143108541Y-149728846D01*
X143124993Y-149739031D01*
X143140732Y-149750176D01*
X143155753Y-149762283D01*
X143170051Y-149775348D01*
X143183621Y-149789370D01*
X143196457Y-149804349D01*
X143208555Y-149820282D01*
X143219909Y-149837168D01*
X143230515Y-149855006D01*
X143240366Y-149873794D01*
X143249459Y-149893531D01*
X143257788Y-149914215D01*
X143265348Y-149935845D01*
X143272134Y-149958420D01*
X143278141Y-149981938D01*
X143283363Y-150006398D01*
X143287796Y-150031798D01*
X143291434Y-150058136D01*
X143294273Y-150085412D01*
X143296307Y-150113624D01*
X143297531Y-150142771D01*
X143297940Y-150172850D01*
X143297531Y-150202907D01*
X143296307Y-150232030D01*
X143294273Y-150260220D01*
X143291434Y-150287473D01*
X143287796Y-150313789D01*
X143283363Y-150339167D01*
X143278141Y-150363604D01*
X143272134Y-150387101D01*
X143265348Y-150409654D01*
X143257788Y-150431264D01*
X143249459Y-150451928D01*
X143240366Y-150471645D01*
X143230515Y-150490413D01*
X143219909Y-150508232D01*
X143208555Y-150525100D01*
X143196457Y-150541016D01*
X143183621Y-150555977D01*
X143170051Y-150569984D01*
X143155753Y-150583034D01*
X143140732Y-150595126D01*
X143124993Y-150606258D01*
X143108541Y-150616430D01*
X143091382Y-150625639D01*
X143073519Y-150633885D01*
X143054959Y-150641166D01*
X143035706Y-150647481D01*
X143015765Y-150652828D01*
X142995143Y-150657206D01*
X142973843Y-150660614D01*
X142951871Y-150663049D01*
X142929231Y-150664512D01*
X142905930Y-150665000D01*
G37*
G36*
X141715979Y-150777107D02*
G01*
X141715979Y-150679166D01*
X141730145Y-150665000D01*
X142416223Y-150665000D01*
X142430145Y-150679166D01*
X142430145Y-150777107D01*
X142416223Y-150791029D01*
X141730145Y-150791029D01*
X141715979Y-150777107D01*
G37*
G36*
X140932204Y-150651078D02*
G01*
X140932204Y-150553136D01*
X140946126Y-150539214D01*
X141142253Y-150539214D01*
X141156174Y-150525048D01*
X141156174Y-149820408D01*
X141142253Y-149806242D01*
X140960292Y-149806242D01*
X140946126Y-149792320D01*
X140946126Y-149694378D01*
X140960292Y-149680212D01*
X141492253Y-149680212D01*
X141506174Y-149694378D01*
X141506174Y-149792320D01*
X141492253Y-149806242D01*
X141310292Y-149806242D01*
X141296126Y-149820408D01*
X141296126Y-150525048D01*
X141310292Y-150539214D01*
X141506174Y-150539214D01*
X141520340Y-150553136D01*
X141520340Y-150651078D01*
X141506174Y-150665000D01*
X140946126Y-150665000D01*
X140932204Y-150651078D01*
G37*
G36*
X140036321Y-150651078D02*
G01*
X140036321Y-149694378D01*
X140050243Y-149680212D01*
X140162350Y-149680212D01*
X140176272Y-149694378D01*
X140176272Y-150383876D01*
X140190438Y-150383876D01*
X140526272Y-149694378D01*
X140554360Y-149680212D01*
X140680389Y-149680212D01*
X140694311Y-149694378D01*
X140694311Y-150651078D01*
X140680389Y-150665000D01*
X140568282Y-150665000D01*
X140554360Y-150651078D01*
X140554360Y-149961580D01*
X140540438Y-149961580D01*
X140204360Y-150651078D01*
X140176272Y-150665000D01*
X140050243Y-150665000D01*
X140036321Y-150651078D01*
G37*
G36*
X83432867Y-149694378D02*
G01*
X83432867Y-150651078D01*
X83418945Y-150665000D01*
X83180809Y-150665000D01*
X83148770Y-150664427D01*
X83118256Y-150662722D01*
X83089234Y-150659902D01*
X83061671Y-150655984D01*
X83035533Y-150650987D01*
X83010787Y-150644928D01*
X82987399Y-150637824D01*
X82965337Y-150629695D01*
X82944566Y-150620557D01*
X82925054Y-150610428D01*
X82906768Y-150599326D01*
X82889673Y-150587269D01*
X82873738Y-150574274D01*
X82858927Y-150560359D01*
X82845209Y-150545543D01*
X82832549Y-150529842D01*
X82820914Y-150513274D01*
X82810272Y-150495858D01*
X82800588Y-150477610D01*
X82791830Y-150458550D01*
X82783964Y-150438694D01*
X82776957Y-150418060D01*
X82770775Y-150396666D01*
X82765386Y-150374530D01*
X82760755Y-150351669D01*
X82756850Y-150328102D01*
X82753637Y-150303845D01*
X82751083Y-150278918D01*
X82749154Y-150253337D01*
X82747818Y-150227120D01*
X82747041Y-150200285D01*
X82746789Y-150172850D01*
X82886984Y-150172850D01*
X82887113Y-150194960D01*
X82887521Y-150216410D01*
X82888242Y-150237195D01*
X82889309Y-150257314D01*
X82890755Y-150276764D01*
X82892615Y-150295543D01*
X82894920Y-150313647D01*
X82897704Y-150331074D01*
X82901002Y-150347821D01*
X82904845Y-150363886D01*
X82909268Y-150379265D01*
X82914303Y-150393957D01*
X82919984Y-150407958D01*
X82926345Y-150421266D01*
X82933418Y-150433878D01*
X82941237Y-150445792D01*
X82949835Y-150457004D01*
X82959246Y-150467512D01*
X82969503Y-150477314D01*
X82980639Y-150486406D01*
X82992687Y-150494787D01*
X83005681Y-150502453D01*
X83019655Y-150509401D01*
X83034641Y-150515630D01*
X83050672Y-150521135D01*
X83067783Y-150525916D01*
X83086006Y-150529968D01*
X83105375Y-150533290D01*
X83125923Y-150535878D01*
X83147683Y-150537730D01*
X83170690Y-150538843D01*
X83194975Y-150539214D01*
X83278994Y-150539214D01*
X83292916Y-150525048D01*
X83292916Y-149820408D01*
X83278994Y-149806242D01*
X83194975Y-149806242D01*
X83170690Y-149806613D01*
X83147683Y-149807726D01*
X83125923Y-149809579D01*
X83105375Y-149812167D01*
X83086006Y-149815489D01*
X83067783Y-149819542D01*
X83050672Y-149824323D01*
X83034641Y-149829830D01*
X83019655Y-149836060D01*
X83005681Y-149843011D01*
X82992687Y-149850679D01*
X82980639Y-149859063D01*
X82969503Y-149868158D01*
X82959246Y-149877964D01*
X82949835Y-149888477D01*
X82941237Y-149899695D01*
X82933418Y-149911615D01*
X82926345Y-149924234D01*
X82919984Y-149937549D01*
X82914303Y-149951559D01*
X82909268Y-149966260D01*
X82904845Y-149981650D01*
X82901002Y-149997726D01*
X82897704Y-150014485D01*
X82894920Y-150031926D01*
X82892615Y-150050044D01*
X82890755Y-150068838D01*
X82889309Y-150088305D01*
X82888242Y-150108443D01*
X82887521Y-150129248D01*
X82887113Y-150150718D01*
X82886984Y-150172850D01*
X82746789Y-150172850D01*
X82747041Y-150145392D01*
X82747818Y-150118535D01*
X82749154Y-150092295D01*
X82751083Y-150066691D01*
X82753637Y-150041741D01*
X82756850Y-150017463D01*
X82760755Y-149993873D01*
X82765386Y-149970991D01*
X82770775Y-149948834D01*
X82776957Y-149927419D01*
X82783964Y-149906765D01*
X82791830Y-149886889D01*
X82800588Y-149867809D01*
X82810272Y-149849542D01*
X82820914Y-149832108D01*
X82832549Y-149815523D01*
X82845209Y-149799805D01*
X82858927Y-149784972D01*
X82873738Y-149771042D01*
X82889673Y-149758033D01*
X82906768Y-149745962D01*
X82925054Y-149734848D01*
X82944566Y-149724707D01*
X82965337Y-149715559D01*
X82987399Y-149707420D01*
X83010787Y-149700308D01*
X83035533Y-149694242D01*
X83061671Y-149689239D01*
X83089234Y-149685316D01*
X83118256Y-149682493D01*
X83148770Y-149680785D01*
X83180809Y-149680212D01*
X83418945Y-149680212D01*
X83432867Y-149694378D01*
G37*
G36*
X82326936Y-149694378D02*
G01*
X82635170Y-150549473D01*
X82635170Y-150650589D01*
X82621004Y-150665000D01*
X82536984Y-150665000D01*
X82523063Y-150650589D01*
X82467131Y-150477421D01*
X82439043Y-150462766D01*
X82060955Y-150462766D01*
X82033111Y-150477421D01*
X81976936Y-150650589D01*
X81963014Y-150665000D01*
X81878994Y-150665000D01*
X81865072Y-150650589D01*
X81865072Y-150549473D01*
X81946710Y-150322815D01*
X82089043Y-150322815D01*
X82102965Y-150336737D01*
X82397033Y-150336737D01*
X82410955Y-150322815D01*
X82257082Y-149889773D01*
X82242916Y-149889773D01*
X82089043Y-150322815D01*
X81946710Y-150322815D01*
X82173063Y-149694378D01*
X82186984Y-149680212D01*
X82313014Y-149680212D01*
X82326936Y-149694378D01*
G37*
G36*
X81375121Y-150665000D02*
G01*
X81354451Y-150664633D01*
X81334434Y-150663544D01*
X81315068Y-150661745D01*
X81296349Y-150659250D01*
X81278276Y-150656073D01*
X81260846Y-150652227D01*
X81244056Y-150647727D01*
X81227904Y-150642586D01*
X81212387Y-150636818D01*
X81197504Y-150630437D01*
X81183250Y-150623455D01*
X81169625Y-150615888D01*
X81156625Y-150607749D01*
X81144248Y-150599050D01*
X81132492Y-150589808D01*
X81121353Y-150580034D01*
X81110829Y-150569742D01*
X81100919Y-150558947D01*
X81091619Y-150547662D01*
X81082927Y-150535901D01*
X81074840Y-150523678D01*
X81067356Y-150511006D01*
X81060472Y-150497899D01*
X81054186Y-150484370D01*
X81048496Y-150470435D01*
X81043398Y-150456105D01*
X81038891Y-150441395D01*
X81034971Y-150426319D01*
X81031637Y-150410891D01*
X81028885Y-150395123D01*
X81026714Y-150379031D01*
X81025121Y-150362627D01*
X81039043Y-150349193D01*
X81151150Y-150349193D01*
X81165072Y-150362627D01*
X81168075Y-150380267D01*
X81171854Y-150397493D01*
X81176531Y-150414204D01*
X81182230Y-150430301D01*
X81189074Y-150445684D01*
X81197186Y-150460253D01*
X81206689Y-150473908D01*
X81217707Y-150486550D01*
X81230361Y-150498078D01*
X81244776Y-150508393D01*
X81261074Y-150517394D01*
X81279378Y-150524983D01*
X81289321Y-150528217D01*
X81299812Y-150531060D01*
X81310866Y-150533499D01*
X81322498Y-150535524D01*
X81334725Y-150537120D01*
X81347560Y-150538275D01*
X81361021Y-150538978D01*
X81375121Y-150539214D01*
X81390629Y-150538857D01*
X81405644Y-150537783D01*
X81420167Y-150535994D01*
X81434197Y-150533490D01*
X81447736Y-150530270D01*
X81460782Y-150526334D01*
X81473335Y-150521683D01*
X81485397Y-150516317D01*
X81496966Y-150510234D01*
X81508043Y-150503437D01*
X81518627Y-150495923D01*
X81528719Y-150487694D01*
X81538319Y-150478750D01*
X81547427Y-150469090D01*
X81556042Y-150458714D01*
X81564165Y-150447623D01*
X81571796Y-150435817D01*
X81578934Y-150423294D01*
X81585580Y-150410057D01*
X81591734Y-150396103D01*
X81597395Y-150381435D01*
X81602565Y-150366050D01*
X81607242Y-150349950D01*
X81611426Y-150333135D01*
X81615118Y-150315603D01*
X81618318Y-150297357D01*
X81621026Y-150278395D01*
X81623241Y-150258717D01*
X81624964Y-150238323D01*
X81626195Y-150217215D01*
X81626934Y-150195390D01*
X81627180Y-150172850D01*
X81626934Y-150150309D01*
X81626195Y-150128483D01*
X81624964Y-150107371D01*
X81623241Y-150086973D01*
X81621026Y-150067290D01*
X81618318Y-150048321D01*
X81615118Y-150030067D01*
X81611426Y-150012528D01*
X81607242Y-149995703D01*
X81602565Y-149979594D01*
X81597395Y-149964199D01*
X81591734Y-149949520D01*
X81585580Y-149935555D01*
X81578934Y-149922306D01*
X81571796Y-149909773D01*
X81564165Y-149897955D01*
X81556042Y-149886852D01*
X81547427Y-149876465D01*
X81538319Y-149866794D01*
X81528719Y-149857839D01*
X81518627Y-149849599D01*
X81508043Y-149842076D01*
X81496966Y-149835269D01*
X81485397Y-149829178D01*
X81473335Y-149823803D01*
X81460782Y-149819144D01*
X81447736Y-149815202D01*
X81434197Y-149811977D01*
X81420167Y-149809468D01*
X81405644Y-149807676D01*
X81390629Y-149806600D01*
X81375121Y-149806242D01*
X81362246Y-149806439D01*
X81349855Y-149807027D01*
X81337940Y-149807998D01*
X81326495Y-149809345D01*
X81315512Y-149811059D01*
X81304982Y-149813134D01*
X81294897Y-149815562D01*
X81285251Y-149818335D01*
X81267243Y-149824889D01*
X81250894Y-149832736D01*
X81236142Y-149841815D01*
X81222927Y-149852068D01*
X81211186Y-149863434D01*
X81200857Y-149875853D01*
X81191878Y-149889267D01*
X81184188Y-149903614D01*
X81177724Y-149918836D01*
X81172425Y-149934873D01*
X81168228Y-149951665D01*
X81165072Y-149969152D01*
X81151150Y-149982829D01*
X81039043Y-149982829D01*
X81025121Y-149969152D01*
X81026754Y-149952765D01*
X81029038Y-149936766D01*
X81031969Y-149921163D01*
X81035542Y-149905966D01*
X81039751Y-149891183D01*
X81044591Y-149876822D01*
X81050057Y-149862893D01*
X81056144Y-149849404D01*
X81062846Y-149836363D01*
X81070160Y-149823780D01*
X81078078Y-149811663D01*
X81086597Y-149800020D01*
X81095711Y-149788861D01*
X81105416Y-149778194D01*
X81115705Y-149768027D01*
X81126574Y-149758370D01*
X81138017Y-149749231D01*
X81150030Y-149740619D01*
X81162607Y-149732542D01*
X81175743Y-149725009D01*
X81189433Y-149718029D01*
X81203673Y-149711610D01*
X81218456Y-149705762D01*
X81233777Y-149700492D01*
X81249632Y-149695810D01*
X81266015Y-149691724D01*
X81282922Y-149688243D01*
X81300346Y-149685375D01*
X81318283Y-149683129D01*
X81336728Y-149681515D01*
X81355676Y-149680539D01*
X81375121Y-149680212D01*
X81398422Y-149680701D01*
X81421062Y-149682165D01*
X81443034Y-149684604D01*
X81464334Y-149688017D01*
X81484956Y-149692401D01*
X81504897Y-149697755D01*
X81524150Y-149704078D01*
X81542710Y-149711369D01*
X81560573Y-149719625D01*
X81577732Y-149728846D01*
X81594184Y-149739031D01*
X81609923Y-149750176D01*
X81624944Y-149762283D01*
X81639242Y-149775348D01*
X81652812Y-149789370D01*
X81665648Y-149804349D01*
X81677746Y-149820282D01*
X81689100Y-149837168D01*
X81699706Y-149855006D01*
X81709557Y-149873794D01*
X81718650Y-149893531D01*
X81726979Y-149914215D01*
X81734539Y-149935845D01*
X81741325Y-149958420D01*
X81747332Y-149981938D01*
X81752554Y-150006398D01*
X81756987Y-150031798D01*
X81760625Y-150058136D01*
X81763464Y-150085412D01*
X81765498Y-150113624D01*
X81766722Y-150142771D01*
X81767131Y-150172850D01*
X81766722Y-150202907D01*
X81765498Y-150232030D01*
X81763464Y-150260220D01*
X81760625Y-150287473D01*
X81756987Y-150313789D01*
X81752554Y-150339167D01*
X81747332Y-150363604D01*
X81741325Y-150387101D01*
X81734539Y-150409654D01*
X81726979Y-150431264D01*
X81718650Y-150451928D01*
X81709557Y-150471645D01*
X81699706Y-150490413D01*
X81689100Y-150508232D01*
X81677746Y-150525100D01*
X81665648Y-150541016D01*
X81652812Y-150555977D01*
X81639242Y-150569984D01*
X81624944Y-150583034D01*
X81609923Y-150595126D01*
X81594184Y-150606258D01*
X81577732Y-150616430D01*
X81560573Y-150625639D01*
X81542710Y-150633885D01*
X81524150Y-150641166D01*
X81504897Y-150647481D01*
X81484956Y-150652828D01*
X81464334Y-150657206D01*
X81443034Y-150660614D01*
X81421062Y-150663049D01*
X81398422Y-150664512D01*
X81375121Y-150665000D01*
G37*
G36*
X181117549Y-150651078D02*
G01*
X181117549Y-150553136D01*
X181131471Y-150539214D01*
X181635588Y-150539214D01*
X181649510Y-150525048D01*
X181649510Y-149694378D01*
X181663676Y-149680212D01*
X181775539Y-149680212D01*
X181789705Y-149694378D01*
X181789705Y-150651078D01*
X181775539Y-150665000D01*
X181131471Y-150665000D01*
X181117549Y-150651078D01*
G37*
G36*
X180347696Y-150651078D02*
G01*
X180347696Y-150553136D01*
X180361618Y-150539214D01*
X180557745Y-150539214D01*
X180571666Y-150525048D01*
X180571666Y-149820408D01*
X180557745Y-149806242D01*
X180375784Y-149806242D01*
X180361618Y-149792320D01*
X180361618Y-149694378D01*
X180375784Y-149680212D01*
X180907745Y-149680212D01*
X180921666Y-149694378D01*
X180921666Y-149792320D01*
X180907745Y-149806242D01*
X180725784Y-149806242D01*
X180711618Y-149820408D01*
X180711618Y-150525048D01*
X180725784Y-150539214D01*
X180921666Y-150539214D01*
X180935832Y-150553136D01*
X180935832Y-150651078D01*
X180921666Y-150665000D01*
X180361618Y-150665000D01*
X180347696Y-150651078D01*
G37*
G36*
X179451813Y-150651078D02*
G01*
X179451813Y-149694378D01*
X179465735Y-149680212D01*
X179577842Y-149680212D01*
X179591764Y-149694378D01*
X179591764Y-150383876D01*
X179605930Y-150383876D01*
X179941764Y-149694378D01*
X179969852Y-149680212D01*
X180095881Y-149680212D01*
X180109803Y-149694378D01*
X180109803Y-150651078D01*
X180095881Y-150665000D01*
X179983774Y-150665000D01*
X179969852Y-150651078D01*
X179969852Y-149961580D01*
X179955930Y-149961580D01*
X179619852Y-150651078D01*
X179591764Y-150665000D01*
X179465735Y-150665000D01*
X179451813Y-150651078D01*
G37*
G36*
X178597940Y-150651078D02*
G01*
X178597940Y-150553136D01*
X178611862Y-150539214D01*
X179102057Y-150539214D01*
X179115979Y-150525048D01*
X179115979Y-150242459D01*
X179102057Y-150228293D01*
X178639950Y-150228293D01*
X178626028Y-150214371D01*
X178626028Y-150116430D01*
X178639950Y-150102264D01*
X179102057Y-150102264D01*
X179115979Y-150088342D01*
X179115979Y-149820408D01*
X179102057Y-149806242D01*
X178611862Y-149806242D01*
X178597940Y-149792320D01*
X178597940Y-149694378D01*
X178611862Y-149680212D01*
X179242008Y-149680212D01*
X179255930Y-149694378D01*
X179255930Y-150651078D01*
X179242008Y-150665000D01*
X178611862Y-150665000D01*
X178597940Y-150651078D01*
G37*
G36*
X177715979Y-150777107D02*
G01*
X177715979Y-150679166D01*
X177730145Y-150665000D01*
X178416223Y-150665000D01*
X178430145Y-150679166D01*
X178430145Y-150777107D01*
X178416223Y-150791029D01*
X177730145Y-150791029D01*
X177715979Y-150777107D01*
G37*
G36*
X177248246Y-149680701D02*
G01*
X177269563Y-149682165D01*
X177290218Y-149684604D01*
X177310211Y-149688017D01*
X177329537Y-149692401D01*
X177348195Y-149697755D01*
X177366182Y-149704078D01*
X177383496Y-149711369D01*
X177400133Y-149719625D01*
X177416092Y-149728846D01*
X177431369Y-149739031D01*
X177445962Y-149750176D01*
X177459868Y-149762283D01*
X177473086Y-149775348D01*
X177485611Y-149789370D01*
X177497443Y-149804349D01*
X177508577Y-149820282D01*
X177519012Y-149837168D01*
X177528744Y-149855006D01*
X177537772Y-149873794D01*
X177546093Y-149893531D01*
X177553704Y-149914215D01*
X177560602Y-149935845D01*
X177566785Y-149958420D01*
X177572250Y-149981938D01*
X177576995Y-150006398D01*
X177581017Y-150031798D01*
X177584314Y-150058136D01*
X177586883Y-150085412D01*
X177588720Y-150113624D01*
X177589825Y-150142771D01*
X177590194Y-150172850D01*
X177589825Y-150202907D01*
X177588720Y-150232030D01*
X177586883Y-150260220D01*
X177584314Y-150287473D01*
X177581017Y-150313789D01*
X177576995Y-150339167D01*
X177572250Y-150363604D01*
X177566785Y-150387101D01*
X177560602Y-150409654D01*
X177553704Y-150431264D01*
X177546093Y-150451928D01*
X177537772Y-150471645D01*
X177528744Y-150490413D01*
X177519012Y-150508232D01*
X177508577Y-150525100D01*
X177497443Y-150541016D01*
X177485611Y-150555977D01*
X177473086Y-150569984D01*
X177459868Y-150583034D01*
X177445962Y-150595126D01*
X177431369Y-150606258D01*
X177416092Y-150616430D01*
X177400133Y-150625639D01*
X177383496Y-150633885D01*
X177366182Y-150641166D01*
X177348195Y-150647481D01*
X177329537Y-150652828D01*
X177310211Y-150657206D01*
X177290218Y-150660614D01*
X177269563Y-150663049D01*
X177248246Y-150664512D01*
X177226272Y-150665000D01*
X177212106Y-150665000D01*
X177190132Y-150664512D01*
X177168815Y-150663049D01*
X177148160Y-150660614D01*
X177128168Y-150657206D01*
X177108841Y-150652828D01*
X177090183Y-150647481D01*
X177072196Y-150641166D01*
X177054882Y-150633885D01*
X177038245Y-150625639D01*
X177022286Y-150616430D01*
X177007009Y-150606258D01*
X176992416Y-150595126D01*
X176978510Y-150583034D01*
X176965292Y-150569984D01*
X176952767Y-150555977D01*
X176940935Y-150541016D01*
X176929801Y-150525100D01*
X176919366Y-150508232D01*
X176909634Y-150490413D01*
X176900606Y-150471645D01*
X176892285Y-150451928D01*
X176884674Y-150431264D01*
X176877776Y-150409654D01*
X176871593Y-150387101D01*
X176866128Y-150363604D01*
X176861383Y-150339167D01*
X176857361Y-150313789D01*
X176854064Y-150287473D01*
X176851496Y-150260220D01*
X176849658Y-150232030D01*
X176848553Y-150202907D01*
X176848184Y-150172850D01*
X176988135Y-150172850D01*
X176988341Y-150195390D01*
X176988960Y-150217215D01*
X176989995Y-150238323D01*
X176991448Y-150258717D01*
X176993322Y-150278395D01*
X176995619Y-150297357D01*
X176998341Y-150315603D01*
X177001492Y-150333135D01*
X177005074Y-150349950D01*
X177009089Y-150366050D01*
X177013540Y-150381435D01*
X177018429Y-150396103D01*
X177023759Y-150410057D01*
X177029532Y-150423294D01*
X177035751Y-150435817D01*
X177042418Y-150447623D01*
X177049536Y-150458714D01*
X177057108Y-150469090D01*
X177065135Y-150478750D01*
X177073620Y-150487694D01*
X177082567Y-150495923D01*
X177091976Y-150503437D01*
X177101852Y-150510234D01*
X177112195Y-150516317D01*
X177123010Y-150521683D01*
X177134298Y-150526334D01*
X177146062Y-150530270D01*
X177158304Y-150533490D01*
X177171027Y-150535994D01*
X177184233Y-150537783D01*
X177197925Y-150538857D01*
X177212106Y-150539214D01*
X177226272Y-150539214D01*
X177240453Y-150538857D01*
X177254145Y-150537783D01*
X177267351Y-150535994D01*
X177280074Y-150533490D01*
X177292316Y-150530270D01*
X177304080Y-150526334D01*
X177315368Y-150521683D01*
X177326183Y-150516317D01*
X177336526Y-150510234D01*
X177346402Y-150503437D01*
X177355811Y-150495923D01*
X177364758Y-150487694D01*
X177373243Y-150478750D01*
X177381270Y-150469090D01*
X177388842Y-150458714D01*
X177395960Y-150447623D01*
X177402627Y-150435817D01*
X177408846Y-150423294D01*
X177414619Y-150410057D01*
X177419949Y-150396103D01*
X177424838Y-150381435D01*
X177429289Y-150366050D01*
X177433304Y-150349950D01*
X177436886Y-150333135D01*
X177440037Y-150315603D01*
X177442759Y-150297357D01*
X177445056Y-150278395D01*
X177446930Y-150258717D01*
X177448383Y-150238323D01*
X177449418Y-150217215D01*
X177450037Y-150195390D01*
X177450243Y-150172850D01*
X177450037Y-150150309D01*
X177449418Y-150128483D01*
X177448383Y-150107371D01*
X177446930Y-150086973D01*
X177445056Y-150067290D01*
X177442759Y-150048321D01*
X177440037Y-150030067D01*
X177436886Y-150012528D01*
X177433304Y-149995703D01*
X177429289Y-149979594D01*
X177424838Y-149964199D01*
X177419949Y-149949520D01*
X177414619Y-149935555D01*
X177408846Y-149922306D01*
X177402627Y-149909773D01*
X177395960Y-149897955D01*
X177388842Y-149886852D01*
X177381270Y-149876465D01*
X177373243Y-149866794D01*
X177364758Y-149857839D01*
X177355811Y-149849599D01*
X177346402Y-149842076D01*
X177336526Y-149835269D01*
X177326183Y-149829178D01*
X177315368Y-149823803D01*
X177304080Y-149819144D01*
X177292316Y-149815202D01*
X177280074Y-149811977D01*
X177267351Y-149809468D01*
X177254145Y-149807676D01*
X177240453Y-149806600D01*
X177226272Y-149806242D01*
X177212106Y-149806242D01*
X177197925Y-149806600D01*
X177184233Y-149807676D01*
X177171027Y-149809468D01*
X177158304Y-149811977D01*
X177146062Y-149815202D01*
X177134298Y-149819144D01*
X177123010Y-149823803D01*
X177112195Y-149829178D01*
X177101852Y-149835269D01*
X177091976Y-149842076D01*
X177082567Y-149849599D01*
X177073620Y-149857839D01*
X177065135Y-149866794D01*
X177057108Y-149876465D01*
X177049536Y-149886852D01*
X177042418Y-149897955D01*
X177035751Y-149909773D01*
X177029532Y-149922306D01*
X177023759Y-149935555D01*
X177018429Y-149949520D01*
X177013540Y-149964199D01*
X177009089Y-149979594D01*
X177005074Y-149995703D01*
X177001492Y-150012528D01*
X176998341Y-150030067D01*
X176995619Y-150048321D01*
X176993322Y-150067290D01*
X176991448Y-150086973D01*
X176989995Y-150107371D01*
X176988960Y-150128483D01*
X176988341Y-150150309D01*
X176988135Y-150172850D01*
X176848184Y-150172850D01*
X176848553Y-150142771D01*
X176849658Y-150113624D01*
X176851496Y-150085412D01*
X176854064Y-150058136D01*
X176857361Y-150031798D01*
X176861383Y-150006398D01*
X176866128Y-149981938D01*
X176871593Y-149958420D01*
X176877776Y-149935845D01*
X176884674Y-149914215D01*
X176892285Y-149893531D01*
X176900606Y-149873794D01*
X176909634Y-149855006D01*
X176919366Y-149837168D01*
X176929801Y-149820282D01*
X176940935Y-149804349D01*
X176952767Y-149789370D01*
X176965292Y-149775348D01*
X176978510Y-149762283D01*
X176992416Y-149750176D01*
X177007009Y-149739031D01*
X177022286Y-149728846D01*
X177038245Y-149719625D01*
X177054882Y-149711369D01*
X177072196Y-149704078D01*
X177090183Y-149697755D01*
X177108841Y-149692401D01*
X177128168Y-149688017D01*
X177148160Y-149684604D01*
X177168815Y-149682165D01*
X177190132Y-149680701D01*
X177212106Y-149680212D01*
X177226272Y-149680212D01*
X177248246Y-149680701D01*
G37*
G36*
X176358233Y-150665000D02*
G01*
X176336339Y-150664592D01*
X176315258Y-150663376D01*
X176294981Y-150661364D01*
X176275501Y-150658564D01*
X176256811Y-150654988D01*
X176238902Y-150650646D01*
X176221767Y-150645550D01*
X176205398Y-150639709D01*
X176189788Y-150633134D01*
X176174928Y-150625836D01*
X176160812Y-150617826D01*
X176147430Y-150609113D01*
X176134777Y-150599709D01*
X176122844Y-150589625D01*
X176111623Y-150578870D01*
X176101106Y-150567455D01*
X176091287Y-150555391D01*
X176082157Y-150542689D01*
X176073708Y-150529360D01*
X176065933Y-150515413D01*
X176058825Y-150500859D01*
X176052375Y-150485709D01*
X176046576Y-150469974D01*
X176041419Y-150453665D01*
X176036899Y-150436790D01*
X176033006Y-150419363D01*
X176029733Y-150401392D01*
X176027072Y-150382889D01*
X176025016Y-150363864D01*
X176023557Y-150344328D01*
X176022687Y-150324291D01*
X176022399Y-150303764D01*
X176022399Y-149694134D01*
X176036321Y-149680212D01*
X176148428Y-149680212D01*
X176162350Y-149694134D01*
X176162350Y-150303764D01*
X176162475Y-150316624D01*
X176162860Y-150329230D01*
X176163515Y-150341573D01*
X176164456Y-150353642D01*
X176165694Y-150365427D01*
X176167241Y-150376918D01*
X176169112Y-150388105D01*
X176171319Y-150398977D01*
X176173873Y-150409525D01*
X176176790Y-150419738D01*
X176180080Y-150429607D01*
X176183757Y-150439120D01*
X176187833Y-150448269D01*
X176192323Y-150457042D01*
X176202589Y-150473422D01*
X176214659Y-150488178D01*
X176228634Y-150501231D01*
X176244618Y-150512499D01*
X176253394Y-150517438D01*
X176262711Y-150521900D01*
X176272581Y-150525875D01*
X176283017Y-150529353D01*
X176294032Y-150532324D01*
X176305638Y-150534778D01*
X176317848Y-150536703D01*
X176330676Y-150538092D01*
X176344133Y-150538932D01*
X176358233Y-150539214D01*
X176372399Y-150539214D01*
X176386499Y-150538932D01*
X176399956Y-150538092D01*
X176412784Y-150536703D01*
X176424994Y-150534778D01*
X176436600Y-150532324D01*
X176447615Y-150529353D01*
X176458051Y-150525875D01*
X176467921Y-150521900D01*
X176477238Y-150517438D01*
X176486014Y-150512499D01*
X176494263Y-150507093D01*
X176509230Y-150494923D01*
X176522240Y-150481008D01*
X176533395Y-150465429D01*
X176542799Y-150448269D01*
X176546875Y-150439120D01*
X176550552Y-150429607D01*
X176553843Y-150419738D01*
X176556759Y-150409525D01*
X176559314Y-150398977D01*
X176561520Y-150388105D01*
X176563391Y-150376918D01*
X176564938Y-150365427D01*
X176566176Y-150353642D01*
X176567117Y-150341573D01*
X176567772Y-150329230D01*
X176568157Y-150316624D01*
X176568282Y-150303764D01*
X176568282Y-149694134D01*
X176582448Y-149680212D01*
X176694311Y-149680212D01*
X176708477Y-149694134D01*
X176708477Y-150303764D01*
X176708188Y-150324291D01*
X176707316Y-150344328D01*
X176705854Y-150363864D01*
X176703794Y-150382889D01*
X176701128Y-150401392D01*
X176697848Y-150419363D01*
X176693948Y-150436790D01*
X176689419Y-150453665D01*
X176684254Y-150469974D01*
X176678445Y-150485709D01*
X176671985Y-150500859D01*
X176664866Y-150515413D01*
X176657080Y-150529360D01*
X176648620Y-150542689D01*
X176639479Y-150555391D01*
X176629648Y-150567455D01*
X176619120Y-150578870D01*
X176607888Y-150589625D01*
X176595943Y-150599709D01*
X176583279Y-150609113D01*
X176569887Y-150617826D01*
X176555761Y-150625836D01*
X176540892Y-150633134D01*
X176525272Y-150639709D01*
X176508895Y-150645550D01*
X176491753Y-150650646D01*
X176473837Y-150654988D01*
X176455141Y-150658564D01*
X176435657Y-150661364D01*
X176415377Y-150663376D01*
X176394293Y-150664592D01*
X176372399Y-150665000D01*
X176358233Y-150665000D01*
G37*
G36*
X175140438Y-149792320D02*
G01*
X175140438Y-149694378D01*
X175154360Y-149680212D01*
X175882448Y-149680212D01*
X175896614Y-149694378D01*
X175896614Y-149792320D01*
X175882448Y-149806242D01*
X175602546Y-149806242D01*
X175588380Y-149820408D01*
X175588380Y-150651078D01*
X175574458Y-150665000D01*
X175462350Y-150665000D01*
X175448428Y-150651078D01*
X175448428Y-149820408D01*
X175434507Y-149806242D01*
X175154360Y-149806242D01*
X175140438Y-149792320D01*
G37*
G36*
X108895637Y-150651078D02*
G01*
X108895637Y-149694378D01*
X108909559Y-149680212D01*
X109063676Y-149680212D01*
X109077598Y-149694378D01*
X109231471Y-150425886D01*
X109245637Y-150425886D01*
X109399510Y-149694378D01*
X109413676Y-149680212D01*
X109567549Y-149680212D01*
X109581715Y-149694378D01*
X109581715Y-150651078D01*
X109567549Y-150665000D01*
X109455686Y-150665000D01*
X109441520Y-150651078D01*
X109441520Y-150046088D01*
X109427598Y-150046088D01*
X109301569Y-150651078D01*
X109287647Y-150665000D01*
X109189461Y-150665000D01*
X109175539Y-150651078D01*
X109049510Y-150046088D01*
X109035588Y-150046088D01*
X109035588Y-150651078D01*
X109021666Y-150665000D01*
X108909559Y-150665000D01*
X108895637Y-150651078D01*
G37*
G36*
X108097696Y-150651078D02*
G01*
X108097696Y-150553136D01*
X108111618Y-150539214D01*
X108307745Y-150539214D01*
X108321666Y-150525048D01*
X108321666Y-149820408D01*
X108307745Y-149806242D01*
X108125784Y-149806242D01*
X108111618Y-149792320D01*
X108111618Y-149694378D01*
X108125784Y-149680212D01*
X108657745Y-149680212D01*
X108671666Y-149694378D01*
X108671666Y-149792320D01*
X108657745Y-149806242D01*
X108475784Y-149806242D01*
X108461618Y-149820408D01*
X108461618Y-150525048D01*
X108475784Y-150539214D01*
X108671666Y-150539214D01*
X108685832Y-150553136D01*
X108685832Y-150651078D01*
X108671666Y-150665000D01*
X108111618Y-150665000D01*
X108097696Y-150651078D01*
G37*
G36*
X107859803Y-149694378D02*
G01*
X107859803Y-150651078D01*
X107845881Y-150665000D01*
X107607745Y-150665000D01*
X107575706Y-150664427D01*
X107545192Y-150662722D01*
X107516170Y-150659902D01*
X107488607Y-150655984D01*
X107462469Y-150650987D01*
X107437723Y-150644928D01*
X107414335Y-150637824D01*
X107392273Y-150629695D01*
X107371502Y-150620557D01*
X107351990Y-150610428D01*
X107333704Y-150599326D01*
X107316609Y-150587269D01*
X107300674Y-150574274D01*
X107285863Y-150560359D01*
X107272145Y-150545543D01*
X107259485Y-150529842D01*
X107247850Y-150513274D01*
X107237208Y-150495858D01*
X107227524Y-150477610D01*
X107218766Y-150458550D01*
X107210900Y-150438694D01*
X107203893Y-150418060D01*
X107197711Y-150396666D01*
X107192322Y-150374530D01*
X107187691Y-150351669D01*
X107183786Y-150328102D01*
X107180573Y-150303845D01*
X107178019Y-150278918D01*
X107176090Y-150253337D01*
X107174754Y-150227120D01*
X107173977Y-150200285D01*
X107173725Y-150172850D01*
X107313920Y-150172850D01*
X107314049Y-150194960D01*
X107314457Y-150216410D01*
X107315178Y-150237195D01*
X107316245Y-150257314D01*
X107317691Y-150276764D01*
X107319551Y-150295543D01*
X107321856Y-150313647D01*
X107324640Y-150331074D01*
X107327938Y-150347821D01*
X107331781Y-150363886D01*
X107336204Y-150379265D01*
X107341239Y-150393957D01*
X107346920Y-150407958D01*
X107353281Y-150421266D01*
X107360354Y-150433878D01*
X107368173Y-150445792D01*
X107376771Y-150457004D01*
X107386182Y-150467512D01*
X107396439Y-150477314D01*
X107407575Y-150486406D01*
X107419623Y-150494787D01*
X107432617Y-150502453D01*
X107446591Y-150509401D01*
X107461577Y-150515630D01*
X107477608Y-150521135D01*
X107494719Y-150525916D01*
X107512942Y-150529968D01*
X107532311Y-150533290D01*
X107552859Y-150535878D01*
X107574619Y-150537730D01*
X107597626Y-150538843D01*
X107621911Y-150539214D01*
X107705930Y-150539214D01*
X107719852Y-150525048D01*
X107719852Y-149820408D01*
X107705930Y-149806242D01*
X107621911Y-149806242D01*
X107597626Y-149806613D01*
X107574619Y-149807726D01*
X107552859Y-149809579D01*
X107532311Y-149812167D01*
X107512942Y-149815489D01*
X107494719Y-149819542D01*
X107477608Y-149824323D01*
X107461577Y-149829830D01*
X107446591Y-149836060D01*
X107432617Y-149843011D01*
X107419623Y-149850679D01*
X107407575Y-149859063D01*
X107396439Y-149868158D01*
X107386182Y-149877964D01*
X107376771Y-149888477D01*
X107368173Y-149899695D01*
X107360354Y-149911615D01*
X107353281Y-149924234D01*
X107346920Y-149937549D01*
X107341239Y-149951559D01*
X107336204Y-149966260D01*
X107331781Y-149981650D01*
X107327938Y-149997726D01*
X107324640Y-150014485D01*
X107321856Y-150031926D01*
X107319551Y-150050044D01*
X107317691Y-150068838D01*
X107316245Y-150088305D01*
X107315178Y-150108443D01*
X107314457Y-150129248D01*
X107314049Y-150150718D01*
X107313920Y-150172850D01*
X107173725Y-150172850D01*
X107173977Y-150145392D01*
X107174754Y-150118535D01*
X107176090Y-150092295D01*
X107178019Y-150066691D01*
X107180573Y-150041741D01*
X107183786Y-150017463D01*
X107187691Y-149993873D01*
X107192322Y-149970991D01*
X107197711Y-149948834D01*
X107203893Y-149927419D01*
X107210900Y-149906765D01*
X107218766Y-149886889D01*
X107227524Y-149867809D01*
X107237208Y-149849542D01*
X107247850Y-149832108D01*
X107259485Y-149815523D01*
X107272145Y-149799805D01*
X107285863Y-149784972D01*
X107300674Y-149771042D01*
X107316609Y-149758033D01*
X107333704Y-149745962D01*
X107351990Y-149734848D01*
X107371502Y-149724707D01*
X107392273Y-149715559D01*
X107414335Y-149707420D01*
X107437723Y-149700308D01*
X107462469Y-149694242D01*
X107488607Y-149689239D01*
X107516170Y-149685316D01*
X107545192Y-149682493D01*
X107575706Y-149680785D01*
X107607745Y-149680212D01*
X107845881Y-149680212D01*
X107859803Y-149694378D01*
G37*
G36*
X106389950Y-150651078D02*
G01*
X106389950Y-150553136D01*
X106403872Y-150539214D01*
X106599999Y-150539214D01*
X106613920Y-150525048D01*
X106613920Y-149820408D01*
X106599999Y-149806242D01*
X106418038Y-149806242D01*
X106403872Y-149792320D01*
X106403872Y-149694378D01*
X106418038Y-149680212D01*
X106949999Y-149680212D01*
X106963920Y-149694378D01*
X106963920Y-149792320D01*
X106949999Y-149806242D01*
X106768038Y-149806242D01*
X106753872Y-149820408D01*
X106753872Y-150525048D01*
X106768038Y-150539214D01*
X106963920Y-150539214D01*
X106978086Y-150553136D01*
X106978086Y-150651078D01*
X106963920Y-150665000D01*
X106403872Y-150665000D01*
X106389950Y-150651078D01*
G37*
G36*
X105465979Y-150777107D02*
G01*
X105465979Y-150679166D01*
X105480145Y-150665000D01*
X106166223Y-150665000D01*
X106180145Y-150679166D01*
X106180145Y-150777107D01*
X106166223Y-150791029D01*
X105480145Y-150791029D01*
X105465979Y-150777107D01*
G37*
G36*
X104998246Y-149680701D02*
G01*
X105019563Y-149682165D01*
X105040218Y-149684604D01*
X105060211Y-149688017D01*
X105079537Y-149692401D01*
X105098195Y-149697755D01*
X105116182Y-149704078D01*
X105133496Y-149711369D01*
X105150133Y-149719625D01*
X105166092Y-149728846D01*
X105181369Y-149739031D01*
X105195962Y-149750176D01*
X105209868Y-149762283D01*
X105223086Y-149775348D01*
X105235611Y-149789370D01*
X105247443Y-149804349D01*
X105258577Y-149820282D01*
X105269012Y-149837168D01*
X105278744Y-149855006D01*
X105287772Y-149873794D01*
X105296093Y-149893531D01*
X105303704Y-149914215D01*
X105310602Y-149935845D01*
X105316785Y-149958420D01*
X105322250Y-149981938D01*
X105326995Y-150006398D01*
X105331017Y-150031798D01*
X105334314Y-150058136D01*
X105336883Y-150085412D01*
X105338720Y-150113624D01*
X105339825Y-150142771D01*
X105340194Y-150172850D01*
X105339825Y-150202907D01*
X105338720Y-150232030D01*
X105336883Y-150260220D01*
X105334314Y-150287473D01*
X105331017Y-150313789D01*
X105326995Y-150339167D01*
X105322250Y-150363604D01*
X105316785Y-150387101D01*
X105310602Y-150409654D01*
X105303704Y-150431264D01*
X105296093Y-150451928D01*
X105287772Y-150471645D01*
X105278744Y-150490413D01*
X105269012Y-150508232D01*
X105258577Y-150525100D01*
X105247443Y-150541016D01*
X105235611Y-150555977D01*
X105223086Y-150569984D01*
X105209868Y-150583034D01*
X105195962Y-150595126D01*
X105181369Y-150606258D01*
X105166092Y-150616430D01*
X105150133Y-150625639D01*
X105133496Y-150633885D01*
X105116182Y-150641166D01*
X105098195Y-150647481D01*
X105079537Y-150652828D01*
X105060211Y-150657206D01*
X105040218Y-150660614D01*
X105019563Y-150663049D01*
X104998246Y-150664512D01*
X104976272Y-150665000D01*
X104962106Y-150665000D01*
X104940132Y-150664512D01*
X104918815Y-150663049D01*
X104898160Y-150660614D01*
X104878168Y-150657206D01*
X104858841Y-150652828D01*
X104840183Y-150647481D01*
X104822196Y-150641166D01*
X104804882Y-150633885D01*
X104788245Y-150625639D01*
X104772286Y-150616430D01*
X104757009Y-150606258D01*
X104742416Y-150595126D01*
X104728510Y-150583034D01*
X104715292Y-150569984D01*
X104702767Y-150555977D01*
X104690935Y-150541016D01*
X104679801Y-150525100D01*
X104669366Y-150508232D01*
X104659634Y-150490413D01*
X104650606Y-150471645D01*
X104642285Y-150451928D01*
X104634674Y-150431264D01*
X104627776Y-150409654D01*
X104621593Y-150387101D01*
X104616128Y-150363604D01*
X104611383Y-150339167D01*
X104607361Y-150313789D01*
X104604064Y-150287473D01*
X104601496Y-150260220D01*
X104599658Y-150232030D01*
X104598553Y-150202907D01*
X104598184Y-150172850D01*
X104738135Y-150172850D01*
X104738341Y-150195390D01*
X104738960Y-150217215D01*
X104739995Y-150238323D01*
X104741448Y-150258717D01*
X104743322Y-150278395D01*
X104745619Y-150297357D01*
X104748341Y-150315603D01*
X104751492Y-150333135D01*
X104755074Y-150349950D01*
X104759089Y-150366050D01*
X104763540Y-150381435D01*
X104768429Y-150396103D01*
X104773759Y-150410057D01*
X104779532Y-150423294D01*
X104785751Y-150435817D01*
X104792418Y-150447623D01*
X104799536Y-150458714D01*
X104807108Y-150469090D01*
X104815135Y-150478750D01*
X104823620Y-150487694D01*
X104832567Y-150495923D01*
X104841976Y-150503437D01*
X104851852Y-150510234D01*
X104862195Y-150516317D01*
X104873010Y-150521683D01*
X104884298Y-150526334D01*
X104896062Y-150530270D01*
X104908304Y-150533490D01*
X104921027Y-150535994D01*
X104934233Y-150537783D01*
X104947925Y-150538857D01*
X104962106Y-150539214D01*
X104976272Y-150539214D01*
X104990453Y-150538857D01*
X105004145Y-150537783D01*
X105017351Y-150535994D01*
X105030074Y-150533490D01*
X105042316Y-150530270D01*
X105054080Y-150526334D01*
X105065368Y-150521683D01*
X105076183Y-150516317D01*
X105086526Y-150510234D01*
X105096402Y-150503437D01*
X105105811Y-150495923D01*
X105114758Y-150487694D01*
X105123243Y-150478750D01*
X105131270Y-150469090D01*
X105138842Y-150458714D01*
X105145960Y-150447623D01*
X105152627Y-150435817D01*
X105158846Y-150423294D01*
X105164619Y-150410057D01*
X105169949Y-150396103D01*
X105174838Y-150381435D01*
X105179289Y-150366050D01*
X105183304Y-150349950D01*
X105186886Y-150333135D01*
X105190037Y-150315603D01*
X105192759Y-150297357D01*
X105195056Y-150278395D01*
X105196930Y-150258717D01*
X105198383Y-150238323D01*
X105199418Y-150217215D01*
X105200037Y-150195390D01*
X105200243Y-150172850D01*
X105200037Y-150150309D01*
X105199418Y-150128483D01*
X105198383Y-150107371D01*
X105196930Y-150086973D01*
X105195056Y-150067290D01*
X105192759Y-150048321D01*
X105190037Y-150030067D01*
X105186886Y-150012528D01*
X105183304Y-149995703D01*
X105179289Y-149979594D01*
X105174838Y-149964199D01*
X105169949Y-149949520D01*
X105164619Y-149935555D01*
X105158846Y-149922306D01*
X105152627Y-149909773D01*
X105145960Y-149897955D01*
X105138842Y-149886852D01*
X105131270Y-149876465D01*
X105123243Y-149866794D01*
X105114758Y-149857839D01*
X105105811Y-149849599D01*
X105096402Y-149842076D01*
X105086526Y-149835269D01*
X105076183Y-149829178D01*
X105065368Y-149823803D01*
X105054080Y-149819144D01*
X105042316Y-149815202D01*
X105030074Y-149811977D01*
X105017351Y-149809468D01*
X105004145Y-149807676D01*
X104990453Y-149806600D01*
X104976272Y-149806242D01*
X104962106Y-149806242D01*
X104947925Y-149806600D01*
X104934233Y-149807676D01*
X104921027Y-149809468D01*
X104908304Y-149811977D01*
X104896062Y-149815202D01*
X104884298Y-149819144D01*
X104873010Y-149823803D01*
X104862195Y-149829178D01*
X104851852Y-149835269D01*
X104841976Y-149842076D01*
X104832567Y-149849599D01*
X104823620Y-149857839D01*
X104815135Y-149866794D01*
X104807108Y-149876465D01*
X104799536Y-149886852D01*
X104792418Y-149897955D01*
X104785751Y-149909773D01*
X104779532Y-149922306D01*
X104773759Y-149935555D01*
X104768429Y-149949520D01*
X104763540Y-149964199D01*
X104759089Y-149979594D01*
X104755074Y-149995703D01*
X104751492Y-150012528D01*
X104748341Y-150030067D01*
X104745619Y-150048321D01*
X104743322Y-150067290D01*
X104741448Y-150086973D01*
X104739995Y-150107371D01*
X104738960Y-150128483D01*
X104738341Y-150150309D01*
X104738135Y-150172850D01*
X104598184Y-150172850D01*
X104598553Y-150142771D01*
X104599658Y-150113624D01*
X104601496Y-150085412D01*
X104604064Y-150058136D01*
X104607361Y-150031798D01*
X104611383Y-150006398D01*
X104616128Y-149981938D01*
X104621593Y-149958420D01*
X104627776Y-149935845D01*
X104634674Y-149914215D01*
X104642285Y-149893531D01*
X104650606Y-149873794D01*
X104659634Y-149855006D01*
X104669366Y-149837168D01*
X104679801Y-149820282D01*
X104690935Y-149804349D01*
X104702767Y-149789370D01*
X104715292Y-149775348D01*
X104728510Y-149762283D01*
X104742416Y-149750176D01*
X104757009Y-149739031D01*
X104772286Y-149728846D01*
X104788245Y-149719625D01*
X104804882Y-149711369D01*
X104822196Y-149704078D01*
X104840183Y-149697755D01*
X104858841Y-149692401D01*
X104878168Y-149688017D01*
X104898160Y-149684604D01*
X104918815Y-149682165D01*
X104940132Y-149680701D01*
X104962106Y-149680212D01*
X104976272Y-149680212D01*
X104998246Y-149680701D01*
G37*
G36*
X104108233Y-150665000D02*
G01*
X104086339Y-150664592D01*
X104065258Y-150663376D01*
X104044981Y-150661364D01*
X104025501Y-150658564D01*
X104006811Y-150654988D01*
X103988902Y-150650646D01*
X103971767Y-150645550D01*
X103955398Y-150639709D01*
X103939788Y-150633134D01*
X103924928Y-150625836D01*
X103910812Y-150617826D01*
X103897430Y-150609113D01*
X103884777Y-150599709D01*
X103872844Y-150589625D01*
X103861623Y-150578870D01*
X103851106Y-150567455D01*
X103841287Y-150555391D01*
X103832157Y-150542689D01*
X103823708Y-150529360D01*
X103815933Y-150515413D01*
X103808825Y-150500859D01*
X103802375Y-150485709D01*
X103796576Y-150469974D01*
X103791419Y-150453665D01*
X103786899Y-150436790D01*
X103783006Y-150419363D01*
X103779733Y-150401392D01*
X103777072Y-150382889D01*
X103775016Y-150363864D01*
X103773557Y-150344328D01*
X103772687Y-150324291D01*
X103772399Y-150303764D01*
X103772399Y-149694134D01*
X103786321Y-149680212D01*
X103898428Y-149680212D01*
X103912350Y-149694134D01*
X103912350Y-150303764D01*
X103912475Y-150316624D01*
X103912860Y-150329230D01*
X103913515Y-150341573D01*
X103914456Y-150353642D01*
X103915694Y-150365427D01*
X103917241Y-150376918D01*
X103919112Y-150388105D01*
X103921319Y-150398977D01*
X103923873Y-150409525D01*
X103926790Y-150419738D01*
X103930080Y-150429607D01*
X103933757Y-150439120D01*
X103937833Y-150448269D01*
X103942323Y-150457042D01*
X103952589Y-150473422D01*
X103964659Y-150488178D01*
X103978634Y-150501231D01*
X103994618Y-150512499D01*
X104003394Y-150517438D01*
X104012711Y-150521900D01*
X104022581Y-150525875D01*
X104033017Y-150529353D01*
X104044032Y-150532324D01*
X104055638Y-150534778D01*
X104067848Y-150536703D01*
X104080676Y-150538092D01*
X104094133Y-150538932D01*
X104108233Y-150539214D01*
X104122399Y-150539214D01*
X104136499Y-150538932D01*
X104149956Y-150538092D01*
X104162784Y-150536703D01*
X104174994Y-150534778D01*
X104186600Y-150532324D01*
X104197615Y-150529353D01*
X104208051Y-150525875D01*
X104217921Y-150521900D01*
X104227238Y-150517438D01*
X104236014Y-150512499D01*
X104244263Y-150507093D01*
X104259230Y-150494923D01*
X104272240Y-150481008D01*
X104283395Y-150465429D01*
X104292799Y-150448269D01*
X104296875Y-150439120D01*
X104300552Y-150429607D01*
X104303843Y-150419738D01*
X104306759Y-150409525D01*
X104309314Y-150398977D01*
X104311520Y-150388105D01*
X104313391Y-150376918D01*
X104314938Y-150365427D01*
X104316176Y-150353642D01*
X104317117Y-150341573D01*
X104317772Y-150329230D01*
X104318157Y-150316624D01*
X104318282Y-150303764D01*
X104318282Y-149694134D01*
X104332448Y-149680212D01*
X104444311Y-149680212D01*
X104458477Y-149694134D01*
X104458477Y-150303764D01*
X104458188Y-150324291D01*
X104457316Y-150344328D01*
X104455854Y-150363864D01*
X104453794Y-150382889D01*
X104451128Y-150401392D01*
X104447848Y-150419363D01*
X104443948Y-150436790D01*
X104439419Y-150453665D01*
X104434254Y-150469974D01*
X104428445Y-150485709D01*
X104421985Y-150500859D01*
X104414866Y-150515413D01*
X104407080Y-150529360D01*
X104398620Y-150542689D01*
X104389479Y-150555391D01*
X104379648Y-150567455D01*
X104369120Y-150578870D01*
X104357888Y-150589625D01*
X104345943Y-150599709D01*
X104333279Y-150609113D01*
X104319887Y-150617826D01*
X104305761Y-150625836D01*
X104290892Y-150633134D01*
X104275272Y-150639709D01*
X104258895Y-150645550D01*
X104241753Y-150650646D01*
X104223837Y-150654988D01*
X104205141Y-150658564D01*
X104185657Y-150661364D01*
X104165377Y-150663376D01*
X104144293Y-150664592D01*
X104122399Y-150665000D01*
X104108233Y-150665000D01*
G37*
G36*
X102890438Y-149792320D02*
G01*
X102890438Y-149694378D01*
X102904360Y-149680212D01*
X103632448Y-149680212D01*
X103646614Y-149694378D01*
X103646614Y-149792320D01*
X103632448Y-149806242D01*
X103352546Y-149806242D01*
X103338380Y-149820408D01*
X103338380Y-150651078D01*
X103324458Y-150665000D01*
X103212350Y-150665000D01*
X103198428Y-150651078D01*
X103198428Y-149820408D01*
X103184507Y-149806242D01*
X102904360Y-149806242D01*
X102890438Y-149792320D01*
G37*
G36*
X96468701Y-150651078D02*
G01*
X96468701Y-149694378D01*
X96482623Y-149680212D01*
X96636740Y-149680212D01*
X96650662Y-149694378D01*
X96804535Y-150425886D01*
X96818701Y-150425886D01*
X96972574Y-149694378D01*
X96986740Y-149680212D01*
X97140613Y-149680212D01*
X97154779Y-149694378D01*
X97154779Y-150651078D01*
X97140613Y-150665000D01*
X97028750Y-150665000D01*
X97014584Y-150651078D01*
X97014584Y-150046088D01*
X97000662Y-150046088D01*
X96874633Y-150651078D01*
X96860711Y-150665000D01*
X96762525Y-150665000D01*
X96748603Y-150651078D01*
X96622574Y-150046088D01*
X96608652Y-150046088D01*
X96608652Y-150651078D01*
X96594730Y-150665000D01*
X96482623Y-150665000D01*
X96468701Y-150651078D01*
G37*
G36*
X95670760Y-150651078D02*
G01*
X95670760Y-150553136D01*
X95684682Y-150539214D01*
X95880809Y-150539214D01*
X95894730Y-150525048D01*
X95894730Y-149820408D01*
X95880809Y-149806242D01*
X95698848Y-149806242D01*
X95684682Y-149792320D01*
X95684682Y-149694378D01*
X95698848Y-149680212D01*
X96230809Y-149680212D01*
X96244730Y-149694378D01*
X96244730Y-149792320D01*
X96230809Y-149806242D01*
X96048848Y-149806242D01*
X96034682Y-149820408D01*
X96034682Y-150525048D01*
X96048848Y-150539214D01*
X96244730Y-150539214D01*
X96258896Y-150553136D01*
X96258896Y-150651078D01*
X96244730Y-150665000D01*
X95684682Y-150665000D01*
X95670760Y-150651078D01*
G37*
G36*
X95432867Y-149694378D02*
G01*
X95432867Y-150651078D01*
X95418945Y-150665000D01*
X95180809Y-150665000D01*
X95148770Y-150664427D01*
X95118256Y-150662722D01*
X95089234Y-150659902D01*
X95061671Y-150655984D01*
X95035533Y-150650987D01*
X95010787Y-150644928D01*
X94987399Y-150637824D01*
X94965337Y-150629695D01*
X94944566Y-150620557D01*
X94925054Y-150610428D01*
X94906768Y-150599326D01*
X94889673Y-150587269D01*
X94873738Y-150574274D01*
X94858927Y-150560359D01*
X94845209Y-150545543D01*
X94832549Y-150529842D01*
X94820914Y-150513274D01*
X94810272Y-150495858D01*
X94800588Y-150477610D01*
X94791830Y-150458550D01*
X94783964Y-150438694D01*
X94776957Y-150418060D01*
X94770775Y-150396666D01*
X94765386Y-150374530D01*
X94760755Y-150351669D01*
X94756850Y-150328102D01*
X94753637Y-150303845D01*
X94751083Y-150278918D01*
X94749154Y-150253337D01*
X94747818Y-150227120D01*
X94747041Y-150200285D01*
X94746789Y-150172850D01*
X94886984Y-150172850D01*
X94887113Y-150194960D01*
X94887521Y-150216410D01*
X94888242Y-150237195D01*
X94889309Y-150257314D01*
X94890755Y-150276764D01*
X94892615Y-150295543D01*
X94894920Y-150313647D01*
X94897704Y-150331074D01*
X94901002Y-150347821D01*
X94904845Y-150363886D01*
X94909268Y-150379265D01*
X94914303Y-150393957D01*
X94919984Y-150407958D01*
X94926345Y-150421266D01*
X94933418Y-150433878D01*
X94941237Y-150445792D01*
X94949835Y-150457004D01*
X94959246Y-150467512D01*
X94969503Y-150477314D01*
X94980639Y-150486406D01*
X94992687Y-150494787D01*
X95005681Y-150502453D01*
X95019655Y-150509401D01*
X95034641Y-150515630D01*
X95050672Y-150521135D01*
X95067783Y-150525916D01*
X95086006Y-150529968D01*
X95105375Y-150533290D01*
X95125923Y-150535878D01*
X95147683Y-150537730D01*
X95170690Y-150538843D01*
X95194975Y-150539214D01*
X95278994Y-150539214D01*
X95292916Y-150525048D01*
X95292916Y-149820408D01*
X95278994Y-149806242D01*
X95194975Y-149806242D01*
X95170690Y-149806613D01*
X95147683Y-149807726D01*
X95125923Y-149809579D01*
X95105375Y-149812167D01*
X95086006Y-149815489D01*
X95067783Y-149819542D01*
X95050672Y-149824323D01*
X95034641Y-149829830D01*
X95019655Y-149836060D01*
X95005681Y-149843011D01*
X94992687Y-149850679D01*
X94980639Y-149859063D01*
X94969503Y-149868158D01*
X94959246Y-149877964D01*
X94949835Y-149888477D01*
X94941237Y-149899695D01*
X94933418Y-149911615D01*
X94926345Y-149924234D01*
X94919984Y-149937549D01*
X94914303Y-149951559D01*
X94909268Y-149966260D01*
X94904845Y-149981650D01*
X94901002Y-149997726D01*
X94897704Y-150014485D01*
X94894920Y-150031926D01*
X94892615Y-150050044D01*
X94890755Y-150068838D01*
X94889309Y-150088305D01*
X94888242Y-150108443D01*
X94887521Y-150129248D01*
X94887113Y-150150718D01*
X94886984Y-150172850D01*
X94746789Y-150172850D01*
X94747041Y-150145392D01*
X94747818Y-150118535D01*
X94749154Y-150092295D01*
X94751083Y-150066691D01*
X94753637Y-150041741D01*
X94756850Y-150017463D01*
X94760755Y-149993873D01*
X94765386Y-149970991D01*
X94770775Y-149948834D01*
X94776957Y-149927419D01*
X94783964Y-149906765D01*
X94791830Y-149886889D01*
X94800588Y-149867809D01*
X94810272Y-149849542D01*
X94820914Y-149832108D01*
X94832549Y-149815523D01*
X94845209Y-149799805D01*
X94858927Y-149784972D01*
X94873738Y-149771042D01*
X94889673Y-149758033D01*
X94906768Y-149745962D01*
X94925054Y-149734848D01*
X94944566Y-149724707D01*
X94965337Y-149715559D01*
X94987399Y-149707420D01*
X95010787Y-149700308D01*
X95035533Y-149694242D01*
X95061671Y-149689239D01*
X95089234Y-149685316D01*
X95118256Y-149682493D01*
X95148770Y-149680785D01*
X95180809Y-149680212D01*
X95418945Y-149680212D01*
X95432867Y-149694378D01*
G37*
G36*
X93963014Y-150651078D02*
G01*
X93963014Y-150553136D01*
X93976936Y-150539214D01*
X94173063Y-150539214D01*
X94186984Y-150525048D01*
X94186984Y-149820408D01*
X94173063Y-149806242D01*
X93991102Y-149806242D01*
X93976936Y-149792320D01*
X93976936Y-149694378D01*
X93991102Y-149680212D01*
X94523063Y-149680212D01*
X94536984Y-149694378D01*
X94536984Y-149792320D01*
X94523063Y-149806242D01*
X94341102Y-149806242D01*
X94326936Y-149820408D01*
X94326936Y-150525048D01*
X94341102Y-150539214D01*
X94536984Y-150539214D01*
X94551150Y-150553136D01*
X94551150Y-150651078D01*
X94536984Y-150665000D01*
X93976936Y-150665000D01*
X93963014Y-150651078D01*
G37*
G36*
X93039043Y-150777107D02*
G01*
X93039043Y-150679166D01*
X93053209Y-150665000D01*
X93739287Y-150665000D01*
X93753209Y-150679166D01*
X93753209Y-150777107D01*
X93739287Y-150791029D01*
X93053209Y-150791029D01*
X93039043Y-150777107D01*
G37*
G36*
X92255268Y-150651078D02*
G01*
X92255268Y-150553136D01*
X92269190Y-150539214D01*
X92465317Y-150539214D01*
X92479238Y-150525048D01*
X92479238Y-149820408D01*
X92465317Y-149806242D01*
X92283356Y-149806242D01*
X92269190Y-149792320D01*
X92269190Y-149694378D01*
X92283356Y-149680212D01*
X92815317Y-149680212D01*
X92829238Y-149694378D01*
X92829238Y-149792320D01*
X92815317Y-149806242D01*
X92633356Y-149806242D01*
X92619190Y-149820408D01*
X92619190Y-150525048D01*
X92633356Y-150539214D01*
X92829238Y-150539214D01*
X92843404Y-150553136D01*
X92843404Y-150651078D01*
X92829238Y-150665000D01*
X92269190Y-150665000D01*
X92255268Y-150651078D01*
G37*
G36*
X91359385Y-150651078D02*
G01*
X91359385Y-149694378D01*
X91373307Y-149680212D01*
X91485414Y-149680212D01*
X91499336Y-149694378D01*
X91499336Y-150383876D01*
X91513502Y-150383876D01*
X91849336Y-149694378D01*
X91877424Y-149680212D01*
X92003453Y-149680212D01*
X92017375Y-149694378D01*
X92017375Y-150651078D01*
X92003453Y-150665000D01*
X91891346Y-150665000D01*
X91877424Y-150651078D01*
X91877424Y-149961580D01*
X91863502Y-149961580D01*
X91527424Y-150651078D01*
X91499336Y-150665000D01*
X91373307Y-150665000D01*
X91359385Y-150651078D01*
G37*
G36*
X168690613Y-150651078D02*
G01*
X168690613Y-150553136D01*
X168704535Y-150539214D01*
X169208652Y-150539214D01*
X169222574Y-150525048D01*
X169222574Y-149694378D01*
X169236740Y-149680212D01*
X169348603Y-149680212D01*
X169362769Y-149694378D01*
X169362769Y-150651078D01*
X169348603Y-150665000D01*
X168704535Y-150665000D01*
X168690613Y-150651078D01*
G37*
G36*
X167920760Y-150651078D02*
G01*
X167920760Y-150553136D01*
X167934682Y-150539214D01*
X168130809Y-150539214D01*
X168144730Y-150525048D01*
X168144730Y-149820408D01*
X168130809Y-149806242D01*
X167948848Y-149806242D01*
X167934682Y-149792320D01*
X167934682Y-149694378D01*
X167948848Y-149680212D01*
X168480809Y-149680212D01*
X168494730Y-149694378D01*
X168494730Y-149792320D01*
X168480809Y-149806242D01*
X168298848Y-149806242D01*
X168284682Y-149820408D01*
X168284682Y-150525048D01*
X168298848Y-150539214D01*
X168494730Y-150539214D01*
X168508896Y-150553136D01*
X168508896Y-150651078D01*
X168494730Y-150665000D01*
X167934682Y-150665000D01*
X167920760Y-150651078D01*
G37*
G36*
X167024877Y-150651078D02*
G01*
X167024877Y-149694378D01*
X167038799Y-149680212D01*
X167150906Y-149680212D01*
X167164828Y-149694378D01*
X167164828Y-150383876D01*
X167178994Y-150383876D01*
X167514828Y-149694378D01*
X167542916Y-149680212D01*
X167668945Y-149680212D01*
X167682867Y-149694378D01*
X167682867Y-150651078D01*
X167668945Y-150665000D01*
X167556838Y-150665000D01*
X167542916Y-150651078D01*
X167542916Y-149961580D01*
X167528994Y-149961580D01*
X167192916Y-150651078D01*
X167164828Y-150665000D01*
X167038799Y-150665000D01*
X167024877Y-150651078D01*
G37*
G36*
X166171004Y-150651078D02*
G01*
X166171004Y-150553136D01*
X166184926Y-150539214D01*
X166675121Y-150539214D01*
X166689043Y-150525048D01*
X166689043Y-150242459D01*
X166675121Y-150228293D01*
X166213014Y-150228293D01*
X166199092Y-150214371D01*
X166199092Y-150116430D01*
X166213014Y-150102264D01*
X166675121Y-150102264D01*
X166689043Y-150088342D01*
X166689043Y-149820408D01*
X166675121Y-149806242D01*
X166184926Y-149806242D01*
X166171004Y-149792320D01*
X166171004Y-149694378D01*
X166184926Y-149680212D01*
X166815072Y-149680212D01*
X166828994Y-149694378D01*
X166828994Y-150651078D01*
X166815072Y-150665000D01*
X166184926Y-150665000D01*
X166171004Y-150651078D01*
G37*
G36*
X165289043Y-150777107D02*
G01*
X165289043Y-150679166D01*
X165303209Y-150665000D01*
X165989287Y-150665000D01*
X166003209Y-150679166D01*
X166003209Y-150777107D01*
X165989287Y-150791029D01*
X165303209Y-150791029D01*
X165289043Y-150777107D01*
G37*
G36*
X164505268Y-150651078D02*
G01*
X164505268Y-150553136D01*
X164519190Y-150539214D01*
X164715317Y-150539214D01*
X164729238Y-150525048D01*
X164729238Y-149820408D01*
X164715317Y-149806242D01*
X164533356Y-149806242D01*
X164519190Y-149792320D01*
X164519190Y-149694378D01*
X164533356Y-149680212D01*
X165065317Y-149680212D01*
X165079238Y-149694378D01*
X165079238Y-149792320D01*
X165065317Y-149806242D01*
X164883356Y-149806242D01*
X164869190Y-149820408D01*
X164869190Y-150525048D01*
X164883356Y-150539214D01*
X165079238Y-150539214D01*
X165093404Y-150553136D01*
X165093404Y-150651078D01*
X165079238Y-150665000D01*
X164519190Y-150665000D01*
X164505268Y-150651078D01*
G37*
G36*
X163609385Y-150651078D02*
G01*
X163609385Y-149694378D01*
X163623307Y-149680212D01*
X163735414Y-149680212D01*
X163749336Y-149694378D01*
X163749336Y-150383876D01*
X163763502Y-150383876D01*
X164099336Y-149694378D01*
X164127424Y-149680212D01*
X164253453Y-149680212D01*
X164267375Y-149694378D01*
X164267375Y-150651078D01*
X164253453Y-150665000D01*
X164141346Y-150665000D01*
X164127424Y-150651078D01*
X164127424Y-149961580D01*
X164113502Y-149961580D01*
X163777424Y-150651078D01*
X163749336Y-150665000D01*
X163623307Y-150665000D01*
X163609385Y-150651078D01*
G37*
G36*
X161001988Y-150651078D02*
G01*
X161001988Y-149694378D01*
X161015910Y-149680212D01*
X161128017Y-149680212D01*
X161141939Y-149694378D01*
X161141939Y-150088342D01*
X161156105Y-150102264D01*
X161506105Y-150102264D01*
X161520027Y-150088342D01*
X161520027Y-149694378D01*
X161533949Y-149680212D01*
X161646056Y-149680212D01*
X161659978Y-149694378D01*
X161659978Y-150651078D01*
X161646056Y-150665000D01*
X161533949Y-150665000D01*
X161520027Y-150651078D01*
X161520027Y-150242459D01*
X161506105Y-150228293D01*
X161156105Y-150228293D01*
X161141939Y-150242459D01*
X161141939Y-150651078D01*
X161128017Y-150665000D01*
X161015910Y-150665000D01*
X161001988Y-150651078D01*
G37*
G36*
X160148115Y-150651078D02*
G01*
X160148115Y-150553136D01*
X160162037Y-150539214D01*
X160652232Y-150539214D01*
X160666154Y-150525048D01*
X160666154Y-150242459D01*
X160652232Y-150228293D01*
X160190125Y-150228293D01*
X160176203Y-150214371D01*
X160176203Y-150116430D01*
X160190125Y-150102264D01*
X160652232Y-150102264D01*
X160666154Y-150088342D01*
X160666154Y-149820408D01*
X160652232Y-149806242D01*
X160162037Y-149806242D01*
X160148115Y-149792320D01*
X160148115Y-149694378D01*
X160162037Y-149680212D01*
X160792183Y-149680212D01*
X160806105Y-149694378D01*
X160806105Y-150651078D01*
X160792183Y-150665000D01*
X160162037Y-150665000D01*
X160148115Y-150651078D01*
G37*
G36*
X159700174Y-149694378D02*
G01*
X160008408Y-150549473D01*
X160008408Y-150650589D01*
X159994242Y-150665000D01*
X159910222Y-150665000D01*
X159896301Y-150650589D01*
X159840369Y-150477421D01*
X159812281Y-150462766D01*
X159434193Y-150462766D01*
X159406349Y-150477421D01*
X159350174Y-150650589D01*
X159336252Y-150665000D01*
X159252232Y-150665000D01*
X159238310Y-150650589D01*
X159238310Y-150549473D01*
X159319948Y-150322815D01*
X159462281Y-150322815D01*
X159476203Y-150336737D01*
X159770271Y-150336737D01*
X159784193Y-150322815D01*
X159630320Y-149889773D01*
X159616154Y-149889773D01*
X159462281Y-150322815D01*
X159319948Y-150322815D01*
X159546301Y-149694378D01*
X159560222Y-149680212D01*
X159686252Y-149680212D01*
X159700174Y-149694378D01*
G37*
G36*
X159098359Y-149694378D02*
G01*
X159098359Y-150651078D01*
X159084437Y-150665000D01*
X158846301Y-150665000D01*
X158814262Y-150664427D01*
X158783748Y-150662722D01*
X158754726Y-150659902D01*
X158727163Y-150655984D01*
X158701025Y-150650987D01*
X158676279Y-150644928D01*
X158652891Y-150637824D01*
X158630829Y-150629695D01*
X158610058Y-150620557D01*
X158590546Y-150610428D01*
X158572260Y-150599326D01*
X158555165Y-150587269D01*
X158539230Y-150574274D01*
X158524419Y-150560359D01*
X158510701Y-150545543D01*
X158498041Y-150529842D01*
X158486406Y-150513274D01*
X158475764Y-150495858D01*
X158466080Y-150477610D01*
X158457322Y-150458550D01*
X158449456Y-150438694D01*
X158442449Y-150418060D01*
X158436267Y-150396666D01*
X158430878Y-150374530D01*
X158426247Y-150351669D01*
X158422342Y-150328102D01*
X158419129Y-150303845D01*
X158416575Y-150278918D01*
X158414646Y-150253337D01*
X158413310Y-150227120D01*
X158412533Y-150200285D01*
X158412281Y-150172850D01*
X158552476Y-150172850D01*
X158552605Y-150194960D01*
X158553013Y-150216410D01*
X158553734Y-150237195D01*
X158554801Y-150257314D01*
X158556247Y-150276764D01*
X158558107Y-150295543D01*
X158560412Y-150313647D01*
X158563196Y-150331074D01*
X158566494Y-150347821D01*
X158570337Y-150363886D01*
X158574760Y-150379265D01*
X158579795Y-150393957D01*
X158585476Y-150407958D01*
X158591837Y-150421266D01*
X158598910Y-150433878D01*
X158606729Y-150445792D01*
X158615327Y-150457004D01*
X158624738Y-150467512D01*
X158634995Y-150477314D01*
X158646131Y-150486406D01*
X158658179Y-150494787D01*
X158671173Y-150502453D01*
X158685147Y-150509401D01*
X158700133Y-150515630D01*
X158716164Y-150521135D01*
X158733275Y-150525916D01*
X158751498Y-150529968D01*
X158770867Y-150533290D01*
X158791415Y-150535878D01*
X158813176Y-150537730D01*
X158836182Y-150538843D01*
X158860467Y-150539214D01*
X158944486Y-150539214D01*
X158958408Y-150525048D01*
X158958408Y-149820408D01*
X158944486Y-149806242D01*
X158860467Y-149806242D01*
X158836182Y-149806613D01*
X158813176Y-149807726D01*
X158791415Y-149809579D01*
X158770867Y-149812167D01*
X158751498Y-149815489D01*
X158733275Y-149819542D01*
X158716164Y-149824323D01*
X158700133Y-149829830D01*
X158685147Y-149836060D01*
X158671173Y-149843011D01*
X158658179Y-149850679D01*
X158646131Y-149859063D01*
X158634995Y-149868158D01*
X158624738Y-149877964D01*
X158615327Y-149888477D01*
X158606729Y-149899695D01*
X158598910Y-149911615D01*
X158591837Y-149924234D01*
X158585476Y-149937549D01*
X158579795Y-149951559D01*
X158574760Y-149966260D01*
X158570337Y-149981650D01*
X158566494Y-149997726D01*
X158563196Y-150014485D01*
X158560412Y-150031926D01*
X158558107Y-150050044D01*
X158556247Y-150068838D01*
X158554801Y-150088305D01*
X158553734Y-150108443D01*
X158553013Y-150129248D01*
X158552605Y-150150718D01*
X158552476Y-150172850D01*
X158412281Y-150172850D01*
X158412533Y-150145392D01*
X158413310Y-150118535D01*
X158414646Y-150092295D01*
X158416575Y-150066691D01*
X158419129Y-150041741D01*
X158422342Y-150017463D01*
X158426247Y-149993873D01*
X158430878Y-149970991D01*
X158436267Y-149948834D01*
X158442449Y-149927419D01*
X158449456Y-149906765D01*
X158457322Y-149886889D01*
X158466080Y-149867809D01*
X158475764Y-149849542D01*
X158486406Y-149832108D01*
X158498041Y-149815523D01*
X158510701Y-149799805D01*
X158524419Y-149784972D01*
X158539230Y-149771042D01*
X158555165Y-149758033D01*
X158572260Y-149745962D01*
X158590546Y-149734848D01*
X158610058Y-149724707D01*
X158630829Y-149715559D01*
X158652891Y-149707420D01*
X158676279Y-149700308D01*
X158701025Y-149694242D01*
X158727163Y-149689239D01*
X158754726Y-149685316D01*
X158783748Y-149682493D01*
X158814262Y-149680785D01*
X158846301Y-149680212D01*
X159084437Y-149680212D01*
X159098359Y-149694378D01*
G37*
G36*
X158244486Y-149694378D02*
G01*
X158244486Y-150651078D01*
X158230564Y-150665000D01*
X158118457Y-150665000D01*
X158104535Y-150651078D01*
X158104535Y-150257114D01*
X158090613Y-150242948D01*
X157852476Y-150242948D01*
X157835544Y-150242702D01*
X157818875Y-150241959D01*
X157802488Y-150240714D01*
X157786402Y-150238963D01*
X157770633Y-150236698D01*
X157755200Y-150233916D01*
X157740120Y-150230610D01*
X157725413Y-150226774D01*
X157711095Y-150222405D01*
X157697184Y-150217495D01*
X157683700Y-150212040D01*
X157670658Y-150206034D01*
X157658078Y-150199471D01*
X157645977Y-150192347D01*
X157634373Y-150184656D01*
X157623285Y-150176392D01*
X157612730Y-150167549D01*
X157602725Y-150158123D01*
X157593290Y-150148108D01*
X157584441Y-150137499D01*
X157576198Y-150126289D01*
X157568577Y-150114474D01*
X157561596Y-150102048D01*
X157555275Y-150089006D01*
X157549630Y-150075342D01*
X157544679Y-150061051D01*
X157540441Y-150046127D01*
X157536933Y-150030564D01*
X157534174Y-150014358D01*
X157532180Y-149997503D01*
X157530971Y-149979994D01*
X157530564Y-149961824D01*
X157670515Y-149961824D01*
X157670680Y-149972198D01*
X157671174Y-149982164D01*
X157673165Y-150000897D01*
X157676508Y-150018062D01*
X157681224Y-150033700D01*
X157687334Y-150047854D01*
X157694859Y-150060562D01*
X157703819Y-150071867D01*
X157714235Y-150081809D01*
X157726128Y-150090428D01*
X157739519Y-150097766D01*
X157754428Y-150103862D01*
X157770876Y-150108759D01*
X157788885Y-150112497D01*
X157808474Y-150115116D01*
X157818867Y-150116019D01*
X157829664Y-150116658D01*
X157840866Y-150117037D01*
X157852476Y-150117163D01*
X158090613Y-150117163D01*
X158104535Y-150102997D01*
X158104535Y-149820408D01*
X158090613Y-149806242D01*
X157852476Y-149806242D01*
X157840866Y-149806367D01*
X157829664Y-149806747D01*
X157818867Y-149807385D01*
X157808474Y-149808289D01*
X157798480Y-149809461D01*
X157779684Y-149812636D01*
X157762458Y-149816952D01*
X157746782Y-149822448D01*
X157732635Y-149829166D01*
X157719996Y-149837149D01*
X157708843Y-149846435D01*
X157699158Y-149857068D01*
X157690918Y-149869087D01*
X157684103Y-149882535D01*
X157678693Y-149897452D01*
X157674666Y-149913879D01*
X157672002Y-149931857D01*
X157670680Y-149951429D01*
X157670515Y-149961824D01*
X157530564Y-149961824D01*
X157530932Y-149943632D01*
X157532027Y-149926099D01*
X157533841Y-149909222D01*
X157536362Y-149892993D01*
X157539581Y-149877408D01*
X157543486Y-149862462D01*
X157548068Y-149848149D01*
X157553317Y-149834463D01*
X157559222Y-149821400D01*
X157565773Y-149808953D01*
X157572959Y-149797117D01*
X157580771Y-149785888D01*
X157589197Y-149775259D01*
X157598229Y-149765225D01*
X157607854Y-149755781D01*
X157618064Y-149746921D01*
X157628848Y-149738640D01*
X157640196Y-149730933D01*
X157652096Y-149723793D01*
X157664540Y-149717217D01*
X157677517Y-149711197D01*
X157691016Y-149705729D01*
X157705027Y-149700808D01*
X157719540Y-149696428D01*
X157734544Y-149692583D01*
X157750030Y-149689269D01*
X157765987Y-149686479D01*
X157782404Y-149684208D01*
X157799272Y-149682452D01*
X157816581Y-149681204D01*
X157834319Y-149680459D01*
X157852476Y-149680212D01*
X158230564Y-149680212D01*
X158244486Y-149694378D01*
G37*
G36*
X156732623Y-150651078D02*
G01*
X156732623Y-149694378D01*
X156746545Y-149680212D01*
X156858652Y-149680212D01*
X156872574Y-149694378D01*
X156872574Y-150088342D01*
X156886740Y-150102264D01*
X157236740Y-150102264D01*
X157250662Y-150088342D01*
X157250662Y-149694378D01*
X157264584Y-149680212D01*
X157376691Y-149680212D01*
X157390613Y-149694378D01*
X157390613Y-150651078D01*
X157376691Y-150665000D01*
X157264584Y-150665000D01*
X157250662Y-150651078D01*
X157250662Y-150242459D01*
X157236740Y-150228293D01*
X156886740Y-150228293D01*
X156872574Y-150242459D01*
X156872574Y-150651078D01*
X156858652Y-150665000D01*
X156746545Y-150665000D01*
X156732623Y-150651078D01*
G37*
G36*
X156236802Y-149680701D02*
G01*
X156258119Y-149682165D01*
X156278774Y-149684604D01*
X156298767Y-149688017D01*
X156318093Y-149692401D01*
X156336751Y-149697755D01*
X156354738Y-149704078D01*
X156372052Y-149711369D01*
X156388689Y-149719625D01*
X156404648Y-149728846D01*
X156419925Y-149739031D01*
X156434518Y-149750176D01*
X156448424Y-149762283D01*
X156461642Y-149775348D01*
X156474167Y-149789370D01*
X156485999Y-149804349D01*
X156497133Y-149820282D01*
X156507568Y-149837168D01*
X156517300Y-149855006D01*
X156526328Y-149873794D01*
X156534649Y-149893531D01*
X156542260Y-149914215D01*
X156549158Y-149935845D01*
X156555341Y-149958420D01*
X156560806Y-149981938D01*
X156565551Y-150006398D01*
X156569573Y-150031798D01*
X156572870Y-150058136D01*
X156575439Y-150085412D01*
X156577276Y-150113624D01*
X156578381Y-150142771D01*
X156578750Y-150172850D01*
X156578381Y-150202907D01*
X156577276Y-150232030D01*
X156575439Y-150260220D01*
X156572870Y-150287473D01*
X156569573Y-150313789D01*
X156565551Y-150339167D01*
X156560806Y-150363604D01*
X156555341Y-150387101D01*
X156549158Y-150409654D01*
X156542260Y-150431264D01*
X156534649Y-150451928D01*
X156526328Y-150471645D01*
X156517300Y-150490413D01*
X156507568Y-150508232D01*
X156497133Y-150525100D01*
X156485999Y-150541016D01*
X156474167Y-150555977D01*
X156461642Y-150569984D01*
X156448424Y-150583034D01*
X156434518Y-150595126D01*
X156419925Y-150606258D01*
X156404648Y-150616430D01*
X156388689Y-150625639D01*
X156372052Y-150633885D01*
X156354738Y-150641166D01*
X156336751Y-150647481D01*
X156318093Y-150652828D01*
X156298767Y-150657206D01*
X156278774Y-150660614D01*
X156258119Y-150663049D01*
X156236802Y-150664512D01*
X156214828Y-150665000D01*
X156200662Y-150665000D01*
X156178688Y-150664512D01*
X156157372Y-150663049D01*
X156136716Y-150660614D01*
X156116724Y-150657206D01*
X156097397Y-150652828D01*
X156078739Y-150647481D01*
X156060752Y-150641166D01*
X156043438Y-150633885D01*
X156026801Y-150625639D01*
X156010842Y-150616430D01*
X155995565Y-150606258D01*
X155980972Y-150595126D01*
X155967066Y-150583034D01*
X155953848Y-150569984D01*
X155941323Y-150555977D01*
X155929491Y-150541016D01*
X155918357Y-150525100D01*
X155907922Y-150508232D01*
X155898190Y-150490413D01*
X155889162Y-150471645D01*
X155880841Y-150451928D01*
X155873230Y-150431264D01*
X155866332Y-150409654D01*
X155860149Y-150387101D01*
X155854684Y-150363604D01*
X155849939Y-150339167D01*
X155845917Y-150313789D01*
X155842620Y-150287473D01*
X155840052Y-150260220D01*
X155838214Y-150232030D01*
X155837109Y-150202907D01*
X155836740Y-150172850D01*
X155976691Y-150172850D01*
X155976897Y-150195390D01*
X155977516Y-150217215D01*
X155978551Y-150238323D01*
X155980004Y-150258717D01*
X155981878Y-150278395D01*
X155984175Y-150297357D01*
X155986897Y-150315603D01*
X155990048Y-150333135D01*
X155993630Y-150349950D01*
X155997645Y-150366050D01*
X156002096Y-150381435D01*
X156006985Y-150396103D01*
X156012315Y-150410057D01*
X156018088Y-150423294D01*
X156024307Y-150435817D01*
X156030974Y-150447623D01*
X156038092Y-150458714D01*
X156045664Y-150469090D01*
X156053691Y-150478750D01*
X156062176Y-150487694D01*
X156071123Y-150495923D01*
X156080532Y-150503437D01*
X156090408Y-150510234D01*
X156100751Y-150516317D01*
X156111566Y-150521683D01*
X156122854Y-150526334D01*
X156134618Y-150530270D01*
X156146860Y-150533490D01*
X156159583Y-150535994D01*
X156172789Y-150537783D01*
X156186481Y-150538857D01*
X156200662Y-150539214D01*
X156214828Y-150539214D01*
X156229009Y-150538857D01*
X156242701Y-150537783D01*
X156255907Y-150535994D01*
X156268630Y-150533490D01*
X156280872Y-150530270D01*
X156292636Y-150526334D01*
X156303924Y-150521683D01*
X156314739Y-150516317D01*
X156325082Y-150510234D01*
X156334958Y-150503437D01*
X156344367Y-150495923D01*
X156353314Y-150487694D01*
X156361799Y-150478750D01*
X156369826Y-150469090D01*
X156377398Y-150458714D01*
X156384516Y-150447623D01*
X156391183Y-150435817D01*
X156397402Y-150423294D01*
X156403175Y-150410057D01*
X156408505Y-150396103D01*
X156413394Y-150381435D01*
X156417845Y-150366050D01*
X156421860Y-150349950D01*
X156425442Y-150333135D01*
X156428593Y-150315603D01*
X156431315Y-150297357D01*
X156433612Y-150278395D01*
X156435486Y-150258717D01*
X156436939Y-150238323D01*
X156437974Y-150217215D01*
X156438593Y-150195390D01*
X156438799Y-150172850D01*
X156438593Y-150150309D01*
X156437974Y-150128483D01*
X156436939Y-150107371D01*
X156435486Y-150086973D01*
X156433612Y-150067290D01*
X156431315Y-150048321D01*
X156428593Y-150030067D01*
X156425442Y-150012528D01*
X156421860Y-149995703D01*
X156417845Y-149979594D01*
X156413394Y-149964199D01*
X156408505Y-149949520D01*
X156403175Y-149935555D01*
X156397402Y-149922306D01*
X156391183Y-149909773D01*
X156384516Y-149897955D01*
X156377398Y-149886852D01*
X156369826Y-149876465D01*
X156361799Y-149866794D01*
X156353314Y-149857839D01*
X156344367Y-149849599D01*
X156334958Y-149842076D01*
X156325082Y-149835269D01*
X156314739Y-149829178D01*
X156303924Y-149823803D01*
X156292636Y-149819144D01*
X156280872Y-149815202D01*
X156268630Y-149811977D01*
X156255907Y-149809468D01*
X156242701Y-149807676D01*
X156229009Y-149806600D01*
X156214828Y-149806242D01*
X156200662Y-149806242D01*
X156186481Y-149806600D01*
X156172789Y-149807676D01*
X156159583Y-149809468D01*
X156146860Y-149811977D01*
X156134618Y-149815202D01*
X156122854Y-149819144D01*
X156111566Y-149823803D01*
X156100751Y-149829178D01*
X156090408Y-149835269D01*
X156080532Y-149842076D01*
X156071123Y-149849599D01*
X156062176Y-149857839D01*
X156053691Y-149866794D01*
X156045664Y-149876465D01*
X156038092Y-149886852D01*
X156030974Y-149897955D01*
X156024307Y-149909773D01*
X156018088Y-149922306D01*
X156012315Y-149935555D01*
X156006985Y-149949520D01*
X156002096Y-149964199D01*
X155997645Y-149979594D01*
X155993630Y-149995703D01*
X155990048Y-150012528D01*
X155986897Y-150030067D01*
X155984175Y-150048321D01*
X155981878Y-150067290D01*
X155980004Y-150086973D01*
X155978551Y-150107371D01*
X155977516Y-150128483D01*
X155976897Y-150150309D01*
X155976691Y-150172850D01*
X155836740Y-150172850D01*
X155837109Y-150142771D01*
X155838214Y-150113624D01*
X155840052Y-150085412D01*
X155842620Y-150058136D01*
X155845917Y-150031798D01*
X155849939Y-150006398D01*
X155854684Y-149981938D01*
X155860149Y-149958420D01*
X155866332Y-149935845D01*
X155873230Y-149914215D01*
X155880841Y-149893531D01*
X155889162Y-149873794D01*
X155898190Y-149855006D01*
X155907922Y-149837168D01*
X155918357Y-149820282D01*
X155929491Y-149804349D01*
X155941323Y-149789370D01*
X155953848Y-149775348D01*
X155967066Y-149762283D01*
X155980972Y-149750176D01*
X155995565Y-149739031D01*
X156010842Y-149728846D01*
X156026801Y-149719625D01*
X156043438Y-149711369D01*
X156060752Y-149704078D01*
X156078739Y-149697755D01*
X156097397Y-149692401D01*
X156116724Y-149688017D01*
X156136716Y-149684604D01*
X156157372Y-149682165D01*
X156178688Y-149680701D01*
X156200662Y-149680212D01*
X156214828Y-149680212D01*
X156236802Y-149680701D01*
G37*
G36*
X155024877Y-150651078D02*
G01*
X155024877Y-149694378D01*
X155038799Y-149680212D01*
X155150906Y-149680212D01*
X155164828Y-149694378D01*
X155164828Y-150383876D01*
X155178994Y-150383876D01*
X155514828Y-149694378D01*
X155542916Y-149680212D01*
X155668945Y-149680212D01*
X155682867Y-149694378D01*
X155682867Y-150651078D01*
X155668945Y-150665000D01*
X155556838Y-150665000D01*
X155542916Y-150651078D01*
X155542916Y-149961580D01*
X155528994Y-149961580D01*
X155192916Y-150651078D01*
X155164828Y-150665000D01*
X155038799Y-150665000D01*
X155024877Y-150651078D01*
G37*
G36*
X154171004Y-150651078D02*
G01*
X154171004Y-150553136D01*
X154184926Y-150539214D01*
X154675121Y-150539214D01*
X154689043Y-150525048D01*
X154689043Y-150242459D01*
X154675121Y-150228293D01*
X154213014Y-150228293D01*
X154199092Y-150214371D01*
X154199092Y-150116430D01*
X154213014Y-150102264D01*
X154675121Y-150102264D01*
X154689043Y-150088342D01*
X154689043Y-149820408D01*
X154675121Y-149806242D01*
X154184926Y-149806242D01*
X154171004Y-149792320D01*
X154171004Y-149694378D01*
X154184926Y-149680212D01*
X154815072Y-149680212D01*
X154828994Y-149694378D01*
X154828994Y-150651078D01*
X154815072Y-150665000D01*
X154184926Y-150665000D01*
X154171004Y-150651078D01*
G37*
G36*
X153289043Y-150777107D02*
G01*
X153289043Y-150679166D01*
X153303209Y-150665000D01*
X153989287Y-150665000D01*
X154003209Y-150679166D01*
X154003209Y-150777107D01*
X153989287Y-150791029D01*
X153303209Y-150791029D01*
X153289043Y-150777107D01*
G37*
G36*
X152821310Y-149680701D02*
G01*
X152842627Y-149682165D01*
X152863282Y-149684604D01*
X152883275Y-149688017D01*
X152902601Y-149692401D01*
X152921259Y-149697755D01*
X152939246Y-149704078D01*
X152956560Y-149711369D01*
X152973197Y-149719625D01*
X152989156Y-149728846D01*
X153004433Y-149739031D01*
X153019026Y-149750176D01*
X153032932Y-149762283D01*
X153046150Y-149775348D01*
X153058675Y-149789370D01*
X153070507Y-149804349D01*
X153081641Y-149820282D01*
X153092076Y-149837168D01*
X153101808Y-149855006D01*
X153110836Y-149873794D01*
X153119157Y-149893531D01*
X153126768Y-149914215D01*
X153133666Y-149935845D01*
X153139849Y-149958420D01*
X153145314Y-149981938D01*
X153150059Y-150006398D01*
X153154081Y-150031798D01*
X153157378Y-150058136D01*
X153159947Y-150085412D01*
X153161785Y-150113624D01*
X153162889Y-150142771D01*
X153163258Y-150172850D01*
X153162889Y-150202907D01*
X153161785Y-150232030D01*
X153159947Y-150260220D01*
X153157378Y-150287473D01*
X153154081Y-150313789D01*
X153150059Y-150339167D01*
X153145314Y-150363604D01*
X153139849Y-150387101D01*
X153133666Y-150409654D01*
X153126768Y-150431264D01*
X153119157Y-150451928D01*
X153110836Y-150471645D01*
X153101808Y-150490413D01*
X153092076Y-150508232D01*
X153081641Y-150525100D01*
X153070507Y-150541016D01*
X153058675Y-150555977D01*
X153046150Y-150569984D01*
X153032932Y-150583034D01*
X153019026Y-150595126D01*
X153004433Y-150606258D01*
X152989156Y-150616430D01*
X152973197Y-150625639D01*
X152956560Y-150633885D01*
X152939246Y-150641166D01*
X152921259Y-150647481D01*
X152902601Y-150652828D01*
X152883275Y-150657206D01*
X152863282Y-150660614D01*
X152842627Y-150663049D01*
X152821310Y-150664512D01*
X152799336Y-150665000D01*
X152785170Y-150665000D01*
X152763196Y-150664512D01*
X152741880Y-150663049D01*
X152721224Y-150660614D01*
X152701232Y-150657206D01*
X152681905Y-150652828D01*
X152663247Y-150647481D01*
X152645260Y-150641166D01*
X152627946Y-150633885D01*
X152611309Y-150625639D01*
X152595351Y-150616430D01*
X152580073Y-150606258D01*
X152565480Y-150595126D01*
X152551574Y-150583034D01*
X152538356Y-150569984D01*
X152525831Y-150555977D01*
X152513999Y-150541016D01*
X152502865Y-150525100D01*
X152492430Y-150508232D01*
X152482698Y-150490413D01*
X152473670Y-150471645D01*
X152465349Y-150451928D01*
X152457739Y-150431264D01*
X152450840Y-150409654D01*
X152444657Y-150387101D01*
X152439192Y-150363604D01*
X152434447Y-150339167D01*
X152430425Y-150313789D01*
X152427128Y-150287473D01*
X152424560Y-150260220D01*
X152422722Y-150232030D01*
X152421617Y-150202907D01*
X152421248Y-150172850D01*
X152561199Y-150172850D01*
X152561405Y-150195390D01*
X152562024Y-150217215D01*
X152563059Y-150238323D01*
X152564512Y-150258717D01*
X152566386Y-150278395D01*
X152568683Y-150297357D01*
X152571405Y-150315603D01*
X152574556Y-150333135D01*
X152578138Y-150349950D01*
X152582153Y-150366050D01*
X152586604Y-150381435D01*
X152591493Y-150396103D01*
X152596823Y-150410057D01*
X152602596Y-150423294D01*
X152608815Y-150435817D01*
X152615482Y-150447623D01*
X152622600Y-150458714D01*
X152630172Y-150469090D01*
X152638199Y-150478750D01*
X152646684Y-150487694D01*
X152655631Y-150495923D01*
X152665040Y-150503437D01*
X152674916Y-150510234D01*
X152685259Y-150516317D01*
X152696074Y-150521683D01*
X152707362Y-150526334D01*
X152719126Y-150530270D01*
X152731368Y-150533490D01*
X152744091Y-150535994D01*
X152757297Y-150537783D01*
X152770989Y-150538857D01*
X152785170Y-150539214D01*
X152799336Y-150539214D01*
X152813517Y-150538857D01*
X152827209Y-150537783D01*
X152840415Y-150535994D01*
X152853138Y-150533490D01*
X152865380Y-150530270D01*
X152877144Y-150526334D01*
X152888432Y-150521683D01*
X152899247Y-150516317D01*
X152909590Y-150510234D01*
X152919466Y-150503437D01*
X152928876Y-150495923D01*
X152937822Y-150487694D01*
X152946307Y-150478750D01*
X152954334Y-150469090D01*
X152961906Y-150458714D01*
X152969024Y-150447623D01*
X152975691Y-150435817D01*
X152981910Y-150423294D01*
X152987683Y-150410057D01*
X152993013Y-150396103D01*
X152997902Y-150381435D01*
X153002353Y-150366050D01*
X153006368Y-150349950D01*
X153009950Y-150333135D01*
X153013101Y-150315603D01*
X153015824Y-150297357D01*
X153018121Y-150278395D01*
X153019994Y-150258717D01*
X153021447Y-150238323D01*
X153022482Y-150217215D01*
X153023101Y-150195390D01*
X153023307Y-150172850D01*
X153023101Y-150150309D01*
X153022482Y-150128483D01*
X153021447Y-150107371D01*
X153019994Y-150086973D01*
X153018121Y-150067290D01*
X153015824Y-150048321D01*
X153013101Y-150030067D01*
X153009950Y-150012528D01*
X153006368Y-149995703D01*
X153002353Y-149979594D01*
X152997902Y-149964199D01*
X152993013Y-149949520D01*
X152987683Y-149935555D01*
X152981910Y-149922306D01*
X152975691Y-149909773D01*
X152969024Y-149897955D01*
X152961906Y-149886852D01*
X152954334Y-149876465D01*
X152946307Y-149866794D01*
X152937822Y-149857839D01*
X152928876Y-149849599D01*
X152919466Y-149842076D01*
X152909590Y-149835269D01*
X152899247Y-149829178D01*
X152888432Y-149823803D01*
X152877144Y-149819144D01*
X152865380Y-149815202D01*
X152853138Y-149811977D01*
X152840415Y-149809468D01*
X152827209Y-149807676D01*
X152813517Y-149806600D01*
X152799336Y-149806242D01*
X152785170Y-149806242D01*
X152770989Y-149806600D01*
X152757297Y-149807676D01*
X152744091Y-149809468D01*
X152731368Y-149811977D01*
X152719126Y-149815202D01*
X152707362Y-149819144D01*
X152696074Y-149823803D01*
X152685259Y-149829178D01*
X152674916Y-149835269D01*
X152665040Y-149842076D01*
X152655631Y-149849599D01*
X152646684Y-149857839D01*
X152638199Y-149866794D01*
X152630172Y-149876465D01*
X152622600Y-149886852D01*
X152615482Y-149897955D01*
X152608815Y-149909773D01*
X152602596Y-149922306D01*
X152596823Y-149935555D01*
X152591493Y-149949520D01*
X152586604Y-149964199D01*
X152582153Y-149979594D01*
X152578138Y-149995703D01*
X152574556Y-150012528D01*
X152571405Y-150030067D01*
X152568683Y-150048321D01*
X152566386Y-150067290D01*
X152564512Y-150086973D01*
X152563059Y-150107371D01*
X152562024Y-150128483D01*
X152561405Y-150150309D01*
X152561199Y-150172850D01*
X152421248Y-150172850D01*
X152421617Y-150142771D01*
X152422722Y-150113624D01*
X152424560Y-150085412D01*
X152427128Y-150058136D01*
X152430425Y-150031798D01*
X152434447Y-150006398D01*
X152439192Y-149981938D01*
X152444657Y-149958420D01*
X152450840Y-149935845D01*
X152457739Y-149914215D01*
X152465349Y-149893531D01*
X152473670Y-149873794D01*
X152482698Y-149855006D01*
X152492430Y-149837168D01*
X152502865Y-149820282D01*
X152513999Y-149804349D01*
X152525831Y-149789370D01*
X152538356Y-149775348D01*
X152551574Y-149762283D01*
X152565480Y-149750176D01*
X152580073Y-149739031D01*
X152595351Y-149728846D01*
X152611309Y-149719625D01*
X152627946Y-149711369D01*
X152645260Y-149704078D01*
X152663247Y-149697755D01*
X152681905Y-149692401D01*
X152701232Y-149688017D01*
X152721224Y-149684604D01*
X152741880Y-149682165D01*
X152763196Y-149680701D01*
X152785170Y-149680212D01*
X152799336Y-149680212D01*
X152821310Y-149680701D01*
G37*
G36*
X151931297Y-150665000D02*
G01*
X151909403Y-150664592D01*
X151888322Y-150663376D01*
X151868045Y-150661364D01*
X151848565Y-150658564D01*
X151829875Y-150654988D01*
X151811966Y-150650646D01*
X151794831Y-150645550D01*
X151778462Y-150639709D01*
X151762852Y-150633134D01*
X151747992Y-150625836D01*
X151733876Y-150617826D01*
X151720494Y-150609113D01*
X151707841Y-150599709D01*
X151695908Y-150589625D01*
X151684687Y-150578870D01*
X151674170Y-150567455D01*
X151664351Y-150555391D01*
X151655221Y-150542689D01*
X151646772Y-150529360D01*
X151638997Y-150515413D01*
X151631889Y-150500859D01*
X151625439Y-150485709D01*
X151619640Y-150469974D01*
X151614484Y-150453665D01*
X151609963Y-150436790D01*
X151606070Y-150419363D01*
X151602797Y-150401392D01*
X151600136Y-150382889D01*
X151598080Y-150363864D01*
X151596621Y-150344328D01*
X151595751Y-150324291D01*
X151595463Y-150303764D01*
X151595463Y-149694134D01*
X151609385Y-149680212D01*
X151721492Y-149680212D01*
X151735414Y-149694134D01*
X151735414Y-150303764D01*
X151735539Y-150316624D01*
X151735924Y-150329230D01*
X151736580Y-150341573D01*
X151737520Y-150353642D01*
X151738758Y-150365427D01*
X151740305Y-150376918D01*
X151742176Y-150388105D01*
X151744383Y-150398977D01*
X151746937Y-150409525D01*
X151749854Y-150419738D01*
X151753144Y-150429607D01*
X151756821Y-150439120D01*
X151760897Y-150448269D01*
X151765387Y-150457042D01*
X151775653Y-150473422D01*
X151787723Y-150488178D01*
X151801699Y-150501231D01*
X151817682Y-150512499D01*
X151826458Y-150517438D01*
X151835775Y-150521900D01*
X151845645Y-150525875D01*
X151856081Y-150529353D01*
X151867096Y-150532324D01*
X151878702Y-150534778D01*
X151890912Y-150536703D01*
X151903740Y-150538092D01*
X151917197Y-150538932D01*
X151931297Y-150539214D01*
X151945463Y-150539214D01*
X151959563Y-150538932D01*
X151973020Y-150538092D01*
X151985848Y-150536703D01*
X151998058Y-150534778D01*
X152009664Y-150532324D01*
X152020679Y-150529353D01*
X152031115Y-150525875D01*
X152040985Y-150521900D01*
X152050302Y-150517438D01*
X152059078Y-150512499D01*
X152067327Y-150507093D01*
X152082294Y-150494923D01*
X152095304Y-150481008D01*
X152106459Y-150465429D01*
X152115863Y-150448269D01*
X152119939Y-150439120D01*
X152123616Y-150429607D01*
X152126907Y-150419738D01*
X152129823Y-150409525D01*
X152132378Y-150398977D01*
X152134584Y-150388105D01*
X152136455Y-150376918D01*
X152138003Y-150365427D01*
X152139240Y-150353642D01*
X152140181Y-150341573D01*
X152140837Y-150329230D01*
X152141221Y-150316624D01*
X152141346Y-150303764D01*
X152141346Y-149694134D01*
X152155512Y-149680212D01*
X152267375Y-149680212D01*
X152281541Y-149694134D01*
X152281541Y-150303764D01*
X152281252Y-150324291D01*
X152280381Y-150344328D01*
X152278918Y-150363864D01*
X152276858Y-150382889D01*
X152274192Y-150401392D01*
X152270912Y-150419363D01*
X152267012Y-150436790D01*
X152262483Y-150453665D01*
X152257318Y-150469974D01*
X152251509Y-150485709D01*
X152245049Y-150500859D01*
X152237930Y-150515413D01*
X152230144Y-150529360D01*
X152221684Y-150542689D01*
X152212543Y-150555391D01*
X152202712Y-150567455D01*
X152192184Y-150578870D01*
X152180952Y-150589625D01*
X152169007Y-150599709D01*
X152156343Y-150609113D01*
X152142951Y-150617826D01*
X152128825Y-150625836D01*
X152113956Y-150633134D01*
X152098336Y-150639709D01*
X152081959Y-150645550D01*
X152064817Y-150650646D01*
X152046901Y-150654988D01*
X152028205Y-150658564D01*
X152008721Y-150661364D01*
X151988441Y-150663376D01*
X151967358Y-150664592D01*
X151945463Y-150665000D01*
X151931297Y-150665000D01*
G37*
G36*
X150713502Y-149792320D02*
G01*
X150713502Y-149694378D01*
X150727424Y-149680212D01*
X151455512Y-149680212D01*
X151469678Y-149694378D01*
X151469678Y-149792320D01*
X151455512Y-149806242D01*
X151175610Y-149806242D01*
X151161444Y-149820408D01*
X151161444Y-150651078D01*
X151147522Y-150665000D01*
X151035414Y-150665000D01*
X151021492Y-150651078D01*
X151021492Y-149820408D01*
X151007571Y-149806242D01*
X150727424Y-149806242D01*
X150713502Y-149792320D01*
G37*
G36*
X149901639Y-150355055D02*
G01*
X149901639Y-150257114D01*
X149915561Y-150242948D01*
X150153698Y-150242948D01*
X150167619Y-150229026D01*
X150167619Y-149991378D01*
X150181541Y-149977212D01*
X150279727Y-149977212D01*
X150293649Y-149991378D01*
X150293649Y-150229026D01*
X150307571Y-150242948D01*
X150545707Y-150242948D01*
X150559629Y-150257114D01*
X150559629Y-150355055D01*
X150545707Y-150368977D01*
X150307571Y-150368977D01*
X150293649Y-150382899D01*
X150293649Y-150619815D01*
X150279727Y-150633736D01*
X150181541Y-150633736D01*
X150167619Y-150619815D01*
X150167619Y-150382899D01*
X150153698Y-150368977D01*
X149915561Y-150368977D01*
X149901639Y-150355055D01*
G37*
G36*
X149033844Y-150651078D02*
G01*
X149033844Y-149694378D01*
X149047766Y-149680212D01*
X149201883Y-149680212D01*
X149215805Y-149694378D01*
X149369678Y-150425886D01*
X149383844Y-150425886D01*
X149537717Y-149694378D01*
X149551883Y-149680212D01*
X149705756Y-149680212D01*
X149719922Y-149694378D01*
X149719922Y-150651078D01*
X149705756Y-150665000D01*
X149593893Y-150665000D01*
X149579727Y-150651078D01*
X149579727Y-150046088D01*
X149565805Y-150046088D01*
X149439776Y-150651078D01*
X149425854Y-150665000D01*
X149327668Y-150665000D01*
X149313746Y-150651078D01*
X149187717Y-150046088D01*
X149173795Y-150046088D01*
X149173795Y-150651078D01*
X149159873Y-150665000D01*
X149047766Y-150665000D01*
X149033844Y-150651078D01*
G37*
G36*
X148235903Y-150651078D02*
G01*
X148235903Y-150553136D01*
X148249825Y-150539214D01*
X148445952Y-150539214D01*
X148459873Y-150525048D01*
X148459873Y-149820408D01*
X148445952Y-149806242D01*
X148263991Y-149806242D01*
X148249825Y-149792320D01*
X148249825Y-149694378D01*
X148263991Y-149680212D01*
X148795952Y-149680212D01*
X148809873Y-149694378D01*
X148809873Y-149792320D01*
X148795952Y-149806242D01*
X148613991Y-149806242D01*
X148599825Y-149820408D01*
X148599825Y-150525048D01*
X148613991Y-150539214D01*
X148809873Y-150539214D01*
X148824040Y-150553136D01*
X148824040Y-150651078D01*
X148809873Y-150665000D01*
X148249825Y-150665000D01*
X148235903Y-150651078D01*
G37*
G36*
X147648010Y-150665000D02*
G01*
X147627340Y-150664633D01*
X147607323Y-150663544D01*
X147587957Y-150661745D01*
X147569238Y-150659250D01*
X147551165Y-150656073D01*
X147533735Y-150652227D01*
X147516945Y-150647727D01*
X147500793Y-150642586D01*
X147485276Y-150636818D01*
X147470393Y-150630437D01*
X147456140Y-150623455D01*
X147442514Y-150615888D01*
X147429514Y-150607749D01*
X147417137Y-150599050D01*
X147405381Y-150589808D01*
X147394242Y-150580034D01*
X147383719Y-150569742D01*
X147373808Y-150558947D01*
X147364508Y-150547662D01*
X147355816Y-150535901D01*
X147347729Y-150523678D01*
X147340245Y-150511006D01*
X147333361Y-150497899D01*
X147327075Y-150484370D01*
X147321385Y-150470435D01*
X147316287Y-150456105D01*
X147311780Y-150441395D01*
X147307860Y-150426319D01*
X147304526Y-150410891D01*
X147301775Y-150395123D01*
X147299603Y-150379031D01*
X147298010Y-150362627D01*
X147311932Y-150349193D01*
X147424040Y-150349193D01*
X147437961Y-150362627D01*
X147440964Y-150380267D01*
X147444743Y-150397493D01*
X147449420Y-150414204D01*
X147455119Y-150430301D01*
X147461963Y-150445684D01*
X147470075Y-150460253D01*
X147479579Y-150473908D01*
X147490596Y-150486550D01*
X147503250Y-150498078D01*
X147517665Y-150508393D01*
X147533963Y-150517394D01*
X147552267Y-150524983D01*
X147562210Y-150528217D01*
X147572701Y-150531060D01*
X147583755Y-150533499D01*
X147595387Y-150535524D01*
X147607614Y-150537120D01*
X147620449Y-150538275D01*
X147633910Y-150538978D01*
X147648010Y-150539214D01*
X147663518Y-150538857D01*
X147678533Y-150537783D01*
X147693056Y-150535994D01*
X147707086Y-150533490D01*
X147720625Y-150530270D01*
X147733671Y-150526334D01*
X147746224Y-150521683D01*
X147758286Y-150516317D01*
X147769855Y-150510234D01*
X147780932Y-150503437D01*
X147791516Y-150495923D01*
X147801608Y-150487694D01*
X147811208Y-150478750D01*
X147820316Y-150469090D01*
X147828931Y-150458714D01*
X147837054Y-150447623D01*
X147844685Y-150435817D01*
X147851823Y-150423294D01*
X147858469Y-150410057D01*
X147864623Y-150396103D01*
X147870285Y-150381435D01*
X147875454Y-150366050D01*
X147880131Y-150349950D01*
X147884315Y-150333135D01*
X147888007Y-150315603D01*
X147891207Y-150297357D01*
X147893915Y-150278395D01*
X147896130Y-150258717D01*
X147897853Y-150238323D01*
X147899084Y-150217215D01*
X147899823Y-150195390D01*
X147900069Y-150172850D01*
X147899823Y-150150309D01*
X147899084Y-150128483D01*
X147897853Y-150107371D01*
X147896130Y-150086973D01*
X147893915Y-150067290D01*
X147891207Y-150048321D01*
X147888007Y-150030067D01*
X147884315Y-150012528D01*
X147880131Y-149995703D01*
X147875454Y-149979594D01*
X147870285Y-149964199D01*
X147864623Y-149949520D01*
X147858469Y-149935555D01*
X147851823Y-149922306D01*
X147844685Y-149909773D01*
X147837054Y-149897955D01*
X147828931Y-149886852D01*
X147820316Y-149876465D01*
X147811208Y-149866794D01*
X147801608Y-149857839D01*
X147791516Y-149849599D01*
X147780932Y-149842076D01*
X147769855Y-149835269D01*
X147758286Y-149829178D01*
X147746224Y-149823803D01*
X147733671Y-149819144D01*
X147720625Y-149815202D01*
X147707086Y-149811977D01*
X147693056Y-149809468D01*
X147678533Y-149807676D01*
X147663518Y-149806600D01*
X147648010Y-149806242D01*
X147635135Y-149806439D01*
X147622744Y-149807027D01*
X147610830Y-149807998D01*
X147599384Y-149809345D01*
X147588401Y-149811059D01*
X147577871Y-149813134D01*
X147567786Y-149815562D01*
X147558140Y-149818335D01*
X147540132Y-149824889D01*
X147523783Y-149832736D01*
X147509032Y-149841815D01*
X147495816Y-149852068D01*
X147484075Y-149863434D01*
X147473746Y-149875853D01*
X147464768Y-149889267D01*
X147457077Y-149903614D01*
X147450613Y-149918836D01*
X147445314Y-149934873D01*
X147441117Y-149951665D01*
X147437961Y-149969152D01*
X147424040Y-149982829D01*
X147311932Y-149982829D01*
X147298010Y-149969152D01*
X147299643Y-149952765D01*
X147301927Y-149936766D01*
X147304859Y-149921163D01*
X147308431Y-149905966D01*
X147312640Y-149891183D01*
X147317480Y-149876822D01*
X147322946Y-149862893D01*
X147329033Y-149849404D01*
X147335736Y-149836363D01*
X147343049Y-149823780D01*
X147350967Y-149811663D01*
X147359486Y-149800020D01*
X147368601Y-149788861D01*
X147378305Y-149778194D01*
X147388594Y-149768027D01*
X147399463Y-149758370D01*
X147410906Y-149749231D01*
X147422919Y-149740619D01*
X147435496Y-149732542D01*
X147448632Y-149725009D01*
X147462323Y-149718029D01*
X147476562Y-149711610D01*
X147491345Y-149705762D01*
X147506666Y-149700492D01*
X147522521Y-149695810D01*
X147538904Y-149691724D01*
X147555811Y-149688243D01*
X147573235Y-149685375D01*
X147591172Y-149683129D01*
X147609618Y-149681515D01*
X147628565Y-149680539D01*
X147648010Y-149680212D01*
X147671311Y-149680701D01*
X147693951Y-149682165D01*
X147715923Y-149684604D01*
X147737223Y-149688017D01*
X147757845Y-149692401D01*
X147777786Y-149697755D01*
X147797039Y-149704078D01*
X147815599Y-149711369D01*
X147833462Y-149719625D01*
X147850621Y-149728846D01*
X147867073Y-149739031D01*
X147882813Y-149750176D01*
X147897833Y-149762283D01*
X147912131Y-149775348D01*
X147925701Y-149789370D01*
X147938537Y-149804349D01*
X147950635Y-149820282D01*
X147961989Y-149837168D01*
X147972595Y-149855006D01*
X147982446Y-149873794D01*
X147991539Y-149893531D01*
X147999868Y-149914215D01*
X148007428Y-149935845D01*
X148014214Y-149958420D01*
X148020221Y-149981938D01*
X148025443Y-150006398D01*
X148029876Y-150031798D01*
X148033514Y-150058136D01*
X148036353Y-150085412D01*
X148038387Y-150113624D01*
X148039611Y-150142771D01*
X148040020Y-150172850D01*
X148039611Y-150202907D01*
X148038387Y-150232030D01*
X148036353Y-150260220D01*
X148033514Y-150287473D01*
X148029876Y-150313789D01*
X148025443Y-150339167D01*
X148020221Y-150363604D01*
X148014214Y-150387101D01*
X148007428Y-150409654D01*
X147999868Y-150431264D01*
X147991539Y-150451928D01*
X147982446Y-150471645D01*
X147972595Y-150490413D01*
X147961989Y-150508232D01*
X147950635Y-150525100D01*
X147938537Y-150541016D01*
X147925701Y-150555977D01*
X147912131Y-150569984D01*
X147897833Y-150583034D01*
X147882813Y-150595126D01*
X147867073Y-150606258D01*
X147850621Y-150616430D01*
X147833462Y-150625639D01*
X147815599Y-150633885D01*
X147797039Y-150641166D01*
X147777786Y-150647481D01*
X147757845Y-150652828D01*
X147737223Y-150657206D01*
X147715923Y-150660614D01*
X147693951Y-150663049D01*
X147671311Y-150664512D01*
X147648010Y-150665000D01*
G37*
G36*
X71180809Y-149694378D02*
G01*
X71489043Y-150549473D01*
X71489043Y-150650589D01*
X71474877Y-150665000D01*
X71390857Y-150665000D01*
X71376936Y-150650589D01*
X71321004Y-150477421D01*
X71292916Y-150462766D01*
X70914828Y-150462766D01*
X70886984Y-150477421D01*
X70830809Y-150650589D01*
X70816887Y-150665000D01*
X70732867Y-150665000D01*
X70718945Y-150650589D01*
X70718945Y-150549473D01*
X70800583Y-150322815D01*
X70942916Y-150322815D01*
X70956838Y-150336737D01*
X71250906Y-150336737D01*
X71264828Y-150322815D01*
X71110955Y-149889773D01*
X71096789Y-149889773D01*
X70942916Y-150322815D01*
X70800583Y-150322815D01*
X71026936Y-149694378D01*
X71040857Y-149680212D01*
X71166887Y-149680212D01*
X71180809Y-149694378D01*
G37*
G36*
X70578994Y-149694378D02*
G01*
X70578994Y-150651078D01*
X70565072Y-150665000D01*
X70326936Y-150665000D01*
X70294897Y-150664427D01*
X70264383Y-150662722D01*
X70235361Y-150659902D01*
X70207798Y-150655984D01*
X70181660Y-150650987D01*
X70156914Y-150644928D01*
X70133526Y-150637824D01*
X70111464Y-150629695D01*
X70090693Y-150620557D01*
X70071181Y-150610428D01*
X70052895Y-150599326D01*
X70035800Y-150587269D01*
X70019865Y-150574274D01*
X70005054Y-150560359D01*
X69991336Y-150545543D01*
X69978676Y-150529842D01*
X69967041Y-150513274D01*
X69956399Y-150495858D01*
X69946715Y-150477610D01*
X69937957Y-150458550D01*
X69930091Y-150438694D01*
X69923084Y-150418060D01*
X69916902Y-150396666D01*
X69911513Y-150374530D01*
X69906882Y-150351669D01*
X69902977Y-150328102D01*
X69899764Y-150303845D01*
X69897210Y-150278918D01*
X69895281Y-150253337D01*
X69893945Y-150227120D01*
X69893168Y-150200285D01*
X69892916Y-150172850D01*
X70033111Y-150172850D01*
X70033240Y-150194960D01*
X70033648Y-150216410D01*
X70034369Y-150237195D01*
X70035436Y-150257314D01*
X70036882Y-150276764D01*
X70038742Y-150295543D01*
X70041047Y-150313647D01*
X70043831Y-150331074D01*
X70047129Y-150347821D01*
X70050972Y-150363886D01*
X70055395Y-150379265D01*
X70060430Y-150393957D01*
X70066111Y-150407958D01*
X70072472Y-150421266D01*
X70079545Y-150433878D01*
X70087364Y-150445792D01*
X70095962Y-150457004D01*
X70105373Y-150467512D01*
X70115630Y-150477314D01*
X70126766Y-150486406D01*
X70138814Y-150494787D01*
X70151808Y-150502453D01*
X70165782Y-150509401D01*
X70180768Y-150515630D01*
X70196799Y-150521135D01*
X70213910Y-150525916D01*
X70232133Y-150529968D01*
X70251502Y-150533290D01*
X70272050Y-150535878D01*
X70293810Y-150537730D01*
X70316817Y-150538843D01*
X70341102Y-150539214D01*
X70425121Y-150539214D01*
X70439043Y-150525048D01*
X70439043Y-149820408D01*
X70425121Y-149806242D01*
X70341102Y-149806242D01*
X70316817Y-149806613D01*
X70293810Y-149807726D01*
X70272050Y-149809579D01*
X70251502Y-149812167D01*
X70232133Y-149815489D01*
X70213910Y-149819542D01*
X70196799Y-149824323D01*
X70180768Y-149829830D01*
X70165782Y-149836060D01*
X70151808Y-149843011D01*
X70138814Y-149850679D01*
X70126766Y-149859063D01*
X70115630Y-149868158D01*
X70105373Y-149877964D01*
X70095962Y-149888477D01*
X70087364Y-149899695D01*
X70079545Y-149911615D01*
X70072472Y-149924234D01*
X70066111Y-149937549D01*
X70060430Y-149951559D01*
X70055395Y-149966260D01*
X70050972Y-149981650D01*
X70047129Y-149997726D01*
X70043831Y-150014485D01*
X70041047Y-150031926D01*
X70038742Y-150050044D01*
X70036882Y-150068838D01*
X70035436Y-150088305D01*
X70034369Y-150108443D01*
X70033648Y-150129248D01*
X70033240Y-150150718D01*
X70033111Y-150172850D01*
X69892916Y-150172850D01*
X69893168Y-150145392D01*
X69893945Y-150118535D01*
X69895281Y-150092295D01*
X69897210Y-150066691D01*
X69899764Y-150041741D01*
X69902977Y-150017463D01*
X69906882Y-149993873D01*
X69911513Y-149970991D01*
X69916902Y-149948834D01*
X69923084Y-149927419D01*
X69930091Y-149906765D01*
X69937957Y-149886889D01*
X69946715Y-149867809D01*
X69956399Y-149849542D01*
X69967041Y-149832108D01*
X69978676Y-149815523D01*
X69991336Y-149799805D01*
X70005054Y-149784972D01*
X70019865Y-149771042D01*
X70035800Y-149758033D01*
X70052895Y-149745962D01*
X70071181Y-149734848D01*
X70090693Y-149724707D01*
X70111464Y-149715559D01*
X70133526Y-149707420D01*
X70156914Y-149700308D01*
X70181660Y-149694242D01*
X70207798Y-149689239D01*
X70235361Y-149685316D01*
X70264383Y-149682493D01*
X70294897Y-149680785D01*
X70326936Y-149680212D01*
X70565072Y-149680212D01*
X70578994Y-149694378D01*
G37*
G36*
X69375121Y-150665000D02*
G01*
X69354451Y-150664633D01*
X69334434Y-150663544D01*
X69315068Y-150661745D01*
X69296349Y-150659250D01*
X69278276Y-150656073D01*
X69260846Y-150652227D01*
X69244056Y-150647727D01*
X69227904Y-150642586D01*
X69212387Y-150636818D01*
X69197504Y-150630437D01*
X69183250Y-150623455D01*
X69169625Y-150615888D01*
X69156625Y-150607749D01*
X69144248Y-150599050D01*
X69132492Y-150589808D01*
X69121353Y-150580034D01*
X69110829Y-150569742D01*
X69100919Y-150558947D01*
X69091619Y-150547662D01*
X69082927Y-150535901D01*
X69074840Y-150523678D01*
X69067356Y-150511006D01*
X69060472Y-150497899D01*
X69054186Y-150484370D01*
X69048496Y-150470435D01*
X69043398Y-150456105D01*
X69038891Y-150441395D01*
X69034971Y-150426319D01*
X69031637Y-150410891D01*
X69028885Y-150395123D01*
X69026714Y-150379031D01*
X69025121Y-150362627D01*
X69039043Y-150349193D01*
X69151150Y-150349193D01*
X69165072Y-150362627D01*
X69168075Y-150380267D01*
X69171854Y-150397493D01*
X69176531Y-150414204D01*
X69182230Y-150430301D01*
X69189074Y-150445684D01*
X69197186Y-150460253D01*
X69206689Y-150473908D01*
X69217707Y-150486550D01*
X69230361Y-150498078D01*
X69244776Y-150508393D01*
X69261074Y-150517394D01*
X69279378Y-150524983D01*
X69289321Y-150528217D01*
X69299812Y-150531060D01*
X69310866Y-150533499D01*
X69322498Y-150535524D01*
X69334725Y-150537120D01*
X69347560Y-150538275D01*
X69361021Y-150538978D01*
X69375121Y-150539214D01*
X69390629Y-150538857D01*
X69405644Y-150537783D01*
X69420167Y-150535994D01*
X69434197Y-150533490D01*
X69447736Y-150530270D01*
X69460782Y-150526334D01*
X69473335Y-150521683D01*
X69485397Y-150516317D01*
X69496966Y-150510234D01*
X69508043Y-150503437D01*
X69518627Y-150495923D01*
X69528719Y-150487694D01*
X69538319Y-150478750D01*
X69547427Y-150469090D01*
X69556042Y-150458714D01*
X69564165Y-150447623D01*
X69571796Y-150435817D01*
X69578934Y-150423294D01*
X69585580Y-150410057D01*
X69591734Y-150396103D01*
X69597395Y-150381435D01*
X69602565Y-150366050D01*
X69607242Y-150349950D01*
X69611426Y-150333135D01*
X69615118Y-150315603D01*
X69618318Y-150297357D01*
X69621026Y-150278395D01*
X69623241Y-150258717D01*
X69624964Y-150238323D01*
X69626195Y-150217215D01*
X69626934Y-150195390D01*
X69627180Y-150172850D01*
X69626934Y-150150309D01*
X69626195Y-150128483D01*
X69624964Y-150107371D01*
X69623241Y-150086973D01*
X69621026Y-150067290D01*
X69618318Y-150048321D01*
X69615118Y-150030067D01*
X69611426Y-150012528D01*
X69607242Y-149995703D01*
X69602565Y-149979594D01*
X69597395Y-149964199D01*
X69591734Y-149949520D01*
X69585580Y-149935555D01*
X69578934Y-149922306D01*
X69571796Y-149909773D01*
X69564165Y-149897955D01*
X69556042Y-149886852D01*
X69547427Y-149876465D01*
X69538319Y-149866794D01*
X69528719Y-149857839D01*
X69518627Y-149849599D01*
X69508043Y-149842076D01*
X69496966Y-149835269D01*
X69485397Y-149829178D01*
X69473335Y-149823803D01*
X69460782Y-149819144D01*
X69447736Y-149815202D01*
X69434197Y-149811977D01*
X69420167Y-149809468D01*
X69405644Y-149807676D01*
X69390629Y-149806600D01*
X69375121Y-149806242D01*
X69362246Y-149806439D01*
X69349855Y-149807027D01*
X69337940Y-149807998D01*
X69326495Y-149809345D01*
X69315512Y-149811059D01*
X69304982Y-149813134D01*
X69294897Y-149815562D01*
X69285251Y-149818335D01*
X69267243Y-149824889D01*
X69250894Y-149832736D01*
X69236142Y-149841815D01*
X69222927Y-149852068D01*
X69211186Y-149863434D01*
X69200857Y-149875853D01*
X69191878Y-149889267D01*
X69184188Y-149903614D01*
X69177724Y-149918836D01*
X69172425Y-149934873D01*
X69168228Y-149951665D01*
X69165072Y-149969152D01*
X69151150Y-149982829D01*
X69039043Y-149982829D01*
X69025121Y-149969152D01*
X69026754Y-149952765D01*
X69029038Y-149936766D01*
X69031969Y-149921163D01*
X69035542Y-149905966D01*
X69039751Y-149891183D01*
X69044591Y-149876822D01*
X69050057Y-149862893D01*
X69056144Y-149849404D01*
X69062846Y-149836363D01*
X69070160Y-149823780D01*
X69078078Y-149811663D01*
X69086597Y-149800020D01*
X69095711Y-149788861D01*
X69105416Y-149778194D01*
X69115705Y-149768027D01*
X69126574Y-149758370D01*
X69138017Y-149749231D01*
X69150030Y-149740619D01*
X69162607Y-149732542D01*
X69175743Y-149725009D01*
X69189433Y-149718029D01*
X69203673Y-149711610D01*
X69218456Y-149705762D01*
X69233777Y-149700492D01*
X69249632Y-149695810D01*
X69266015Y-149691724D01*
X69282922Y-149688243D01*
X69300346Y-149685375D01*
X69318283Y-149683129D01*
X69336728Y-149681515D01*
X69355676Y-149680539D01*
X69375121Y-149680212D01*
X69398422Y-149680701D01*
X69421062Y-149682165D01*
X69443034Y-149684604D01*
X69464334Y-149688017D01*
X69484956Y-149692401D01*
X69504897Y-149697755D01*
X69524150Y-149704078D01*
X69542710Y-149711369D01*
X69560573Y-149719625D01*
X69577732Y-149728846D01*
X69594184Y-149739031D01*
X69609923Y-149750176D01*
X69624944Y-149762283D01*
X69639242Y-149775348D01*
X69652812Y-149789370D01*
X69665648Y-149804349D01*
X69677746Y-149820282D01*
X69689100Y-149837168D01*
X69699706Y-149855006D01*
X69709557Y-149873794D01*
X69718650Y-149893531D01*
X69726979Y-149914215D01*
X69734539Y-149935845D01*
X69741325Y-149958420D01*
X69747332Y-149981938D01*
X69752554Y-150006398D01*
X69756987Y-150031798D01*
X69760625Y-150058136D01*
X69763464Y-150085412D01*
X69765498Y-150113624D01*
X69766722Y-150142771D01*
X69767131Y-150172850D01*
X69766722Y-150202907D01*
X69765498Y-150232030D01*
X69763464Y-150260220D01*
X69760625Y-150287473D01*
X69756987Y-150313789D01*
X69752554Y-150339167D01*
X69747332Y-150363604D01*
X69741325Y-150387101D01*
X69734539Y-150409654D01*
X69726979Y-150431264D01*
X69718650Y-150451928D01*
X69709557Y-150471645D01*
X69699706Y-150490413D01*
X69689100Y-150508232D01*
X69677746Y-150525100D01*
X69665648Y-150541016D01*
X69652812Y-150555977D01*
X69639242Y-150569984D01*
X69624944Y-150583034D01*
X69609923Y-150595126D01*
X69594184Y-150606258D01*
X69577732Y-150616430D01*
X69560573Y-150625639D01*
X69542710Y-150633885D01*
X69524150Y-150641166D01*
X69504897Y-150647481D01*
X69484956Y-150652828D01*
X69464334Y-150657206D01*
X69443034Y-150660614D01*
X69421062Y-150663049D01*
X69398422Y-150664512D01*
X69375121Y-150665000D01*
G37*
D12*
%TO.C,C1*%
X88290000Y-86738748D02*
X88290000Y-87261252D01*
X86820000Y-86738748D02*
X86820000Y-87261252D01*
D13*
%TO.C,U12*%
X127500000Y-108000000D02*
X127500000Y-102000000D01*
X127500000Y-102000000D02*
X125500000Y-100000000D01*
X125500000Y-100000000D02*
X121500000Y-100000000D01*
X121500000Y-108000000D02*
X127500000Y-108000000D01*
X121500000Y-100000000D02*
X121500000Y-108000000D01*
X127600000Y-100000000D02*
G75*
G03*
X127600000Y-100000000I-100000J0D01*
G01*
D12*
%TO.C,Q1*%
X91055000Y-80940000D02*
X90405000Y-80940000D01*
X91055000Y-80940000D02*
X91705000Y-80940000D01*
X91055000Y-84060000D02*
X89380000Y-84060000D01*
X91055000Y-84060000D02*
X91705000Y-84060000D01*
%TO.C,D1*%
X180210000Y-52815000D02*
X180210000Y-55500000D01*
X178290000Y-52815000D02*
X180210000Y-52815000D01*
X178290000Y-55500000D02*
X178290000Y-52815000D01*
%TO.C,D2*%
X68290000Y-56185000D02*
X68290000Y-53500000D01*
X70210000Y-56185000D02*
X68290000Y-56185000D01*
X70210000Y-53500000D02*
X70210000Y-56185000D01*
%TO.C,U4*%
X84250000Y-63940000D02*
X82300000Y-63940000D01*
X84250000Y-63940000D02*
X86200000Y-63940000D01*
X84250000Y-69060000D02*
X80800000Y-69060000D01*
X84250000Y-69060000D02*
X86200000Y-69060000D01*
%TO.C,C31*%
X96265000Y-76261252D02*
X96265000Y-75738748D01*
X97735000Y-76261252D02*
X97735000Y-75738748D01*
%TO.C,C47*%
X93236252Y-96892483D02*
X91813748Y-96892483D01*
X93236252Y-95072483D02*
X91813748Y-95072483D01*
%TO.C,R60*%
X129653641Y-102380000D02*
X129346359Y-102380000D01*
X129653641Y-101620000D02*
X129346359Y-101620000D01*
D14*
%TO.C,U11*%
X75176400Y-56671700D02*
X74343681Y-56671700D01*
X75176400Y-55845065D02*
X75176400Y-56671700D01*
X75176400Y-52328300D02*
X75176400Y-53154935D01*
X74343681Y-52328300D02*
X75176400Y-52328300D01*
X72656319Y-56671700D02*
X71823600Y-56671700D01*
X71823600Y-56671700D02*
X71823600Y-55845065D01*
X71823600Y-53154935D02*
X71823600Y-52328300D01*
X71823600Y-52328300D02*
X72656319Y-52328300D01*
%TO.C,U10*%
X176676400Y-56671700D02*
X175843681Y-56671700D01*
X176676400Y-55845065D02*
X176676400Y-56671700D01*
X176676400Y-52328300D02*
X176676400Y-53154935D01*
X175843681Y-52328300D02*
X176676400Y-52328300D01*
X174156319Y-56671700D02*
X173323600Y-56671700D01*
X173323600Y-56671700D02*
X173323600Y-55845065D01*
X173323600Y-53154935D02*
X173323600Y-52328300D01*
X173323600Y-52328300D02*
X174156319Y-52328300D01*
D12*
%TO.C,R68*%
X125130000Y-109846359D02*
X125130000Y-110153641D01*
X124370000Y-109846359D02*
X124370000Y-110153641D01*
%TO.C,D7*%
X80740000Y-69350000D02*
X86250000Y-69350000D01*
X80740000Y-72650000D02*
X80740000Y-69350000D01*
X80740000Y-72650000D02*
X86250000Y-72650000D01*
%TO.C,D4*%
X97900000Y-77990000D02*
X97900000Y-83500000D01*
X94600000Y-77990000D02*
X97900000Y-77990000D01*
X94600000Y-77990000D02*
X94600000Y-83500000D01*
%TO.C,R17*%
X161880000Y-64846359D02*
X161880000Y-65153641D01*
X161120000Y-64846359D02*
X161120000Y-65153641D01*
D13*
%TO.C,U3*%
X96225000Y-85675000D02*
X96225000Y-86725000D01*
X99150000Y-87075000D02*
X96250000Y-87075000D01*
X96250000Y-87075000D02*
X96250000Y-87925000D01*
X99150000Y-87925000D02*
X99150000Y-87075000D01*
X96250000Y-87925000D02*
X99150000Y-87925000D01*
D12*
%TO.C,R65*%
X129346359Y-103620000D02*
X129653641Y-103620000D01*
X129346359Y-104380000D02*
X129653641Y-104380000D01*
%TO.C,C56*%
X128640000Y-105607836D02*
X128640000Y-105392164D01*
X129360000Y-105607836D02*
X129360000Y-105392164D01*
%TO.C,R64*%
X129346359Y-102620000D02*
X129653641Y-102620000D01*
X129346359Y-103380000D02*
X129653641Y-103380000D01*
%TO.C,C30*%
X160860000Y-64892164D02*
X160860000Y-65107836D01*
X160140000Y-64892164D02*
X160140000Y-65107836D01*
%TO.C,R63*%
X129346359Y-100620000D02*
X129653641Y-100620000D01*
X129346359Y-101380000D02*
X129653641Y-101380000D01*
D15*
%TO.C,SW5*%
X66750000Y-78950000D02*
X66750000Y-74400000D01*
X66750000Y-78950000D02*
X63900000Y-78950000D01*
X66750000Y-70100000D02*
X66750000Y-65550000D01*
X66750000Y-65550000D02*
X64200000Y-65550000D01*
X62100000Y-78950000D02*
X61400000Y-78950000D01*
X61775000Y-65550000D02*
X59225000Y-65550000D01*
X59580000Y-78950000D02*
X58880000Y-78950000D01*
X59230000Y-73520000D02*
X61770000Y-73520000D01*
X57100000Y-78950000D02*
X54250000Y-78950000D01*
X56800000Y-65550000D02*
X54250000Y-65550000D01*
X54250000Y-78950000D02*
X54250000Y-74400000D01*
X54250000Y-70100000D02*
X54250000Y-65550000D01*
X61770000Y-73520000D02*
G75*
G03*
X59230022Y-73520022I-1270000J1270000D01*
G01*
X63500000Y-72250000D02*
G75*
G03*
X63500000Y-72250000I-3000000J0D01*
G01*
D12*
%TO.C,C3*%
X79070000Y-88511252D02*
X79070000Y-87988748D01*
X80540000Y-88511252D02*
X80540000Y-87988748D01*
%TO.C,R69*%
X129130000Y-109846359D02*
X129130000Y-110153641D01*
X128370000Y-109846359D02*
X128370000Y-110153641D01*
D15*
%TO.C,J2*%
X161000000Y-81125000D02*
X161000000Y-84625000D01*
X160960000Y-87126000D02*
X136040000Y-87126000D01*
X160960000Y-81124000D02*
X136040000Y-81124000D01*
X136040000Y-81124000D02*
X136040000Y-84624000D01*
D12*
%TO.C,C54*%
X123357836Y-109860000D02*
X123142164Y-109860000D01*
X123357836Y-109140000D02*
X123142164Y-109140000D01*
%TO.C,R71*%
X127130000Y-109846359D02*
X127130000Y-110153641D01*
X126370000Y-109846359D02*
X126370000Y-110153641D01*
%TO.C,C32*%
X97735000Y-91238748D02*
X97735000Y-91761252D01*
X96265000Y-91238748D02*
X96265000Y-91761252D01*
D15*
%TO.C,SW4*%
X194250000Y-78950000D02*
X194250000Y-74400000D01*
X194250000Y-78950000D02*
X191400000Y-78950000D01*
X194250000Y-70100000D02*
X194250000Y-65550000D01*
X194250000Y-65550000D02*
X191700000Y-65550000D01*
X189600000Y-78950000D02*
X188900000Y-78950000D01*
X189275000Y-65550000D02*
X186725000Y-65550000D01*
X187080000Y-78950000D02*
X186380000Y-78950000D01*
X186730000Y-73520000D02*
X189270000Y-73520000D01*
X184600000Y-78950000D02*
X181750000Y-78950000D01*
X184300000Y-65550000D02*
X181750000Y-65550000D01*
X181750000Y-78950000D02*
X181750000Y-74400000D01*
X181750000Y-70100000D02*
X181750000Y-65550000D01*
X189270000Y-73520000D02*
G75*
G03*
X186730022Y-73520022I-1270000J1270000D01*
G01*
X191000000Y-72250000D02*
G75*
G03*
X191000000Y-72250000I-3000000J0D01*
G01*
D12*
%TO.C,C29*%
X164140000Y-65107836D02*
X164140000Y-64892164D01*
X164860000Y-65107836D02*
X164860000Y-64892164D01*
%TO.C,C7*%
X110857836Y-110360000D02*
X110642164Y-110360000D01*
X110857836Y-109640000D02*
X110642164Y-109640000D01*
%TO.C,R12*%
X167120000Y-65153641D02*
X167120000Y-64846359D01*
X167880000Y-65153641D02*
X167880000Y-64846359D01*
%TO.C,R14*%
X165880000Y-64846359D02*
X165880000Y-65153641D01*
X165120000Y-64846359D02*
X165120000Y-65153641D01*
%TO.C,SW8*%
X67600000Y-97600000D02*
X53400000Y-97600000D01*
X67600000Y-83400000D02*
X67600000Y-97600000D01*
X53400000Y-97600000D02*
X53400000Y-83400000D01*
X53400000Y-83400000D02*
X67600000Y-83400000D01*
%TO.C,R23*%
X73526263Y-61395000D02*
X74973737Y-61395000D01*
X73526263Y-64105000D02*
X74973737Y-64105000D01*
%TO.C,C5*%
X110857836Y-111360000D02*
X110642164Y-111360000D01*
X110857836Y-110640000D02*
X110642164Y-110640000D01*
%TO.C,R67*%
X119653641Y-103380000D02*
X119346359Y-103380000D01*
X119653641Y-102620000D02*
X119346359Y-102620000D01*
%TO.C,C35*%
X80235000Y-69738748D02*
X80235000Y-70261252D01*
X78765000Y-69738748D02*
X78765000Y-70261252D01*
%TO.C,C33*%
X89985000Y-65738748D02*
X89985000Y-66261252D01*
X88515000Y-65738748D02*
X88515000Y-66261252D01*
%TO.C,R19*%
X102105000Y-82276263D02*
X102105000Y-83723737D01*
X99395000Y-82276263D02*
X99395000Y-83723737D01*
%TO.C,R22*%
X88515000Y-69977064D02*
X88515000Y-69522936D01*
X89985000Y-69977064D02*
X89985000Y-69522936D01*
%TO.C,L2*%
X95760000Y-85240000D02*
X95610000Y-85240000D01*
X95760000Y-85240000D02*
X95760000Y-89760000D01*
X91240000Y-85240000D02*
X91390000Y-85240000D01*
X91240000Y-85240000D02*
X91240000Y-89760000D01*
X95760000Y-89760000D02*
X95610000Y-89760000D01*
X91240000Y-89760000D02*
X91390000Y-89760000D01*
%TO.C,R15*%
X163880000Y-64846359D02*
X163880000Y-65153641D01*
X163120000Y-64846359D02*
X163120000Y-65153641D01*
%TO.C,D8*%
X88240000Y-60850000D02*
X93750000Y-60850000D01*
X88240000Y-64150000D02*
X88240000Y-60850000D01*
X88240000Y-64150000D02*
X93750000Y-64150000D01*
%TO.C,R16*%
X162880000Y-64846359D02*
X162880000Y-65153641D01*
X162120000Y-64846359D02*
X162120000Y-65153641D01*
%TO.C,U1*%
X86155000Y-79340000D02*
X80145000Y-79340000D01*
X83905000Y-86160000D02*
X80145000Y-86160000D01*
X80145000Y-86160000D02*
X80145000Y-84900000D01*
X80145000Y-79340000D02*
X80145000Y-80600000D01*
%TO.C,C55*%
X119640000Y-101607836D02*
X119640000Y-101392164D01*
X120360000Y-101607836D02*
X120360000Y-101392164D01*
%TO.C,Q2*%
X77340000Y-66700000D02*
X77340000Y-65300000D01*
X79660000Y-65300000D02*
X79660000Y-67200000D01*
%TO.C,C4*%
X81070000Y-88511252D02*
X81070000Y-87988748D01*
X82540000Y-88511252D02*
X82540000Y-87988748D01*
%TO.C,U8*%
X93000000Y-91372483D02*
X92200000Y-91372483D01*
X93000000Y-91372483D02*
X93800000Y-91372483D01*
X93000000Y-94492483D02*
X91200000Y-94492483D01*
X93000000Y-94492483D02*
X93800000Y-94492483D01*
%TO.C,SW7*%
X195100000Y-97600000D02*
X180900000Y-97600000D01*
X195100000Y-83400000D02*
X195100000Y-97600000D01*
X180900000Y-97600000D02*
X180900000Y-83400000D01*
X180900000Y-83400000D02*
X195100000Y-83400000D01*
%TO.C,R70*%
X128130000Y-109846359D02*
X128130000Y-110153641D01*
X127370000Y-109846359D02*
X127370000Y-110153641D01*
%TO.C,R18*%
X99015000Y-78477064D02*
X99015000Y-78022936D01*
X100485000Y-78477064D02*
X100485000Y-78022936D01*
%TO.C,C36*%
X93985000Y-65738748D02*
X93985000Y-66261252D01*
X92515000Y-65738748D02*
X92515000Y-66261252D01*
%TO.C,R66*%
X129346359Y-106620000D02*
X129653641Y-106620000D01*
X129346359Y-107380000D02*
X129653641Y-107380000D01*
%TO.C,R62*%
X125370000Y-110153641D02*
X125370000Y-109846359D01*
X126130000Y-110153641D02*
X126130000Y-109846359D01*
%TO.C,R61*%
X119346359Y-103620000D02*
X119653641Y-103620000D01*
X119346359Y-104380000D02*
X119653641Y-104380000D01*
%TO.C,C48*%
X88840000Y-90943735D02*
X88840000Y-89521231D01*
X90660000Y-90943735D02*
X90660000Y-89521231D01*
%TO.C,C34*%
X91985000Y-65738748D02*
X91985000Y-66261252D01*
X90515000Y-65738748D02*
X90515000Y-66261252D01*
%TO.C,Q3*%
X78060000Y-70000000D02*
X78060000Y-69350000D01*
X78060000Y-70000000D02*
X78060000Y-70650000D01*
X74940000Y-70000000D02*
X74940000Y-68325000D01*
X74940000Y-70000000D02*
X74940000Y-70650000D01*
%TO.C,R13*%
X166880000Y-64846359D02*
X166880000Y-65153641D01*
X166120000Y-64846359D02*
X166120000Y-65153641D01*
%TO.C,R24*%
X73526263Y-64645000D02*
X74973737Y-64645000D01*
X73526263Y-67355000D02*
X74973737Y-67355000D01*
%TO.C,FB1*%
X86895000Y-83585242D02*
X86895000Y-81914758D01*
X88715000Y-83585242D02*
X88715000Y-81914758D01*
%TO.C,C2*%
X75820000Y-82011252D02*
X75820000Y-81488748D01*
X77290000Y-82011252D02*
X77290000Y-81488748D01*
%TD*%
%LPC*%
D16*
%TO.C,J16*%
X142500000Y-142400000D03*
%TD*%
%TO.C,J11*%
X82250000Y-142400000D03*
%TD*%
D17*
%TO.C,J5*%
X185100000Y-104500000D03*
D18*
X187640000Y-104500000D03*
X185100000Y-107040000D03*
X187640000Y-107040000D03*
X185100000Y-109580000D03*
X187640000Y-109580000D03*
%TD*%
D19*
%TO.C,H2*%
X191100000Y-55000000D03*
X191802944Y-53302944D03*
X191802944Y-56697056D03*
X193500000Y-52600000D03*
D20*
X193500000Y-55000000D03*
D19*
X193500000Y-57400000D03*
X195197056Y-53302944D03*
X195197056Y-56697056D03*
X195900000Y-55000000D03*
%TD*%
D16*
%TO.C,J19*%
X178500000Y-142400000D03*
%TD*%
%TO.C,J8*%
X106250000Y-142400000D03*
%TD*%
D21*
%TO.C,J6*%
X63400000Y-109500000D03*
D18*
X60860000Y-109500000D03*
X63400000Y-106960000D03*
X60860000Y-106960000D03*
X63400000Y-104420000D03*
X60860000Y-104420000D03*
%TD*%
D22*
%TO.C,SW3*%
X87500000Y-51463000D03*
X82500000Y-51463000D03*
%TD*%
D23*
%TO.C,J9*%
X127360000Y-148400000D03*
X133140000Y-148400000D03*
D24*
X125930000Y-147870000D03*
D25*
X125930000Y-152050000D03*
D24*
X134570000Y-147870000D03*
D25*
X134570000Y-152050000D03*
%TD*%
D16*
%TO.C,J7*%
X94250000Y-142400000D03*
%TD*%
D19*
%TO.C,H1*%
X52600000Y-55000000D03*
X53302944Y-53302944D03*
X53302944Y-56697056D03*
X55000000Y-52600000D03*
D20*
X55000000Y-55000000D03*
D19*
X55000000Y-57400000D03*
X56697056Y-53302944D03*
X56697056Y-56697056D03*
X57400000Y-55000000D03*
%TD*%
D23*
%TO.C,J10*%
X115360000Y-148400000D03*
X121140000Y-148400000D03*
D24*
X113930000Y-147870000D03*
D25*
X113930000Y-152050000D03*
D24*
X122570000Y-147870000D03*
D25*
X122570000Y-152050000D03*
%TD*%
D19*
%TO.C,H4*%
X191100000Y-150000000D03*
X191802944Y-148302944D03*
X191802944Y-151697056D03*
X193500000Y-147600000D03*
D20*
X193500000Y-150000000D03*
D19*
X193500000Y-152400000D03*
X195197056Y-148302944D03*
X195197056Y-151697056D03*
X195900000Y-150000000D03*
%TD*%
D16*
%TO.C,J17*%
X166500000Y-142400000D03*
%TD*%
%TO.C,J18*%
X154500000Y-142400000D03*
%TD*%
D18*
%TO.C,J13*%
X103930000Y-63290000D03*
X103930000Y-60750000D03*
X106470000Y-63290000D03*
X106470000Y-60750000D03*
X109010000Y-63290000D03*
X109010000Y-60750000D03*
X111550000Y-63290000D03*
X111550000Y-60750000D03*
X114090000Y-63290000D03*
X114090000Y-60750000D03*
X116630000Y-63290000D03*
X116630000Y-60750000D03*
X119170000Y-63290000D03*
X119170000Y-60750000D03*
X121710000Y-63290000D03*
X121710000Y-60750000D03*
X124250000Y-63290000D03*
X124250000Y-60750000D03*
X126790000Y-63290000D03*
X126790000Y-60750000D03*
X129330000Y-63290000D03*
X129330000Y-60750000D03*
X131870000Y-63290000D03*
X131870000Y-60750000D03*
X134410000Y-63290000D03*
X134410000Y-60750000D03*
X136950000Y-63290000D03*
X136950000Y-60750000D03*
X139490000Y-63290000D03*
X139490000Y-60750000D03*
X142030000Y-63290000D03*
X142030000Y-60750000D03*
X144570000Y-63290000D03*
X144570000Y-60750000D03*
%TD*%
D16*
%TO.C,J12*%
X70250000Y-142400000D03*
%TD*%
D19*
%TO.C,H3*%
X52600000Y-150000000D03*
X53302944Y-148302944D03*
X53302944Y-151697056D03*
X55000000Y-147600000D03*
D20*
X55000000Y-150000000D03*
D19*
X55000000Y-152400000D03*
X56697056Y-148302944D03*
X56697056Y-151697056D03*
X57400000Y-150000000D03*
%TD*%
D26*
%TO.C,J4*%
X155850000Y-121500000D03*
X148251000Y-124000000D03*
X148250000Y-119000000D03*
%TD*%
%TO.C,J3*%
X92650000Y-121500000D03*
X100249000Y-119000000D03*
X100250000Y-124000000D03*
%TD*%
D27*
%TO.C,C1*%
X87555000Y-86050000D03*
X87555000Y-87950000D03*
%TD*%
D28*
%TO.C,U12*%
X125500000Y-102000000D03*
X124500000Y-102000000D03*
X123500000Y-102000000D03*
X122500000Y-102000000D03*
X126500000Y-103000000D03*
X125500000Y-103000000D03*
X124500000Y-103000000D03*
X123500000Y-103000000D03*
X122500000Y-103000000D03*
X126500000Y-104000000D03*
X125500000Y-104000000D03*
X124500000Y-104000000D03*
X123500000Y-104000000D03*
X122500000Y-104000000D03*
X126500000Y-105000000D03*
X125500000Y-105000000D03*
X124500000Y-105000000D03*
X123500000Y-105000000D03*
X122500000Y-105000000D03*
X126500000Y-106000000D03*
X125500000Y-106000000D03*
X124500000Y-106000000D03*
X123500000Y-106000000D03*
X122500000Y-106000000D03*
%TD*%
D29*
%TO.C,Q1*%
X90117500Y-83450000D03*
X90117500Y-81550000D03*
X91992500Y-82500000D03*
%TD*%
D30*
%TO.C,D1*%
X179250000Y-53562500D03*
X179250000Y-55437500D03*
%TD*%
D31*
%TO.C,D2*%
X69250000Y-55437500D03*
X69250000Y-53562500D03*
%TD*%
D32*
%TO.C,U4*%
X81625000Y-68405000D03*
X81625000Y-67135000D03*
X81625000Y-65865000D03*
X81625000Y-64595000D03*
X86875000Y-64595000D03*
X86875000Y-65865000D03*
X86875000Y-67135000D03*
X86875000Y-68405000D03*
%TD*%
D33*
%TO.C,C31*%
X97000000Y-76950000D03*
X97000000Y-75050000D03*
%TD*%
D34*
%TO.C,C47*%
X94000000Y-95982483D03*
X91050000Y-95982483D03*
%TD*%
D35*
%TO.C,R60*%
X130010000Y-102000000D03*
X128990000Y-102000000D03*
%TD*%
D36*
%TO.C,U11*%
X73949999Y-53825000D03*
X73949999Y-55175000D03*
X73050001Y-55175000D03*
X73050001Y-53825000D03*
D37*
X74725000Y-54500000D03*
D38*
X73500000Y-56225000D03*
X73500000Y-52775000D03*
D37*
X72275000Y-54500000D03*
%TD*%
D36*
%TO.C,U10*%
X175449999Y-53825000D03*
X175449999Y-55175000D03*
X174550001Y-55175000D03*
X174550001Y-53825000D03*
D37*
X176225000Y-54500000D03*
D38*
X175000000Y-56225000D03*
X175000000Y-52775000D03*
D37*
X173775000Y-54500000D03*
%TD*%
D39*
%TO.C,R68*%
X124750000Y-109490000D03*
X124750000Y-110510000D03*
%TD*%
D40*
%TO.C,D7*%
X82250000Y-71000000D03*
X86250000Y-71000000D03*
%TD*%
D41*
%TO.C,D4*%
X96250000Y-79500000D03*
X96250000Y-83500000D03*
%TD*%
D39*
%TO.C,R17*%
X161500000Y-64490000D03*
X161500000Y-65510000D03*
%TD*%
D42*
%TO.C,U3*%
X96750000Y-86200000D03*
X97700000Y-86200000D03*
X98650000Y-86200000D03*
X98650000Y-88800000D03*
X96750000Y-88800000D03*
%TD*%
D43*
%TO.C,R65*%
X128990000Y-104000000D03*
X130010000Y-104000000D03*
%TD*%
D44*
%TO.C,C56*%
X129000000Y-105980000D03*
X129000000Y-105020000D03*
%TD*%
D43*
%TO.C,R64*%
X128990000Y-103000000D03*
X130010000Y-103000000D03*
%TD*%
D45*
%TO.C,C30*%
X160500000Y-64520000D03*
X160500000Y-65480000D03*
%TD*%
D43*
%TO.C,R63*%
X128990000Y-101000000D03*
X130010000Y-101000000D03*
%TD*%
D46*
%TO.C,SW5*%
X66200000Y-72250000D03*
X54800000Y-72250000D03*
D47*
X63000000Y-79750000D03*
X58000000Y-79750000D03*
X60500000Y-79750000D03*
X63000000Y-65250000D03*
X58000000Y-65250000D03*
%TD*%
D48*
%TO.C,J15*%
X129330000Y-137500000D03*
X119170000Y-138516000D03*
X119170000Y-136484000D03*
D49*
X128060000Y-138135000D03*
X126790000Y-138135000D03*
X125520000Y-138135000D03*
X124250000Y-138135000D03*
X122980000Y-138135000D03*
X121710000Y-138135000D03*
X120440000Y-138135000D03*
X120440000Y-136865000D03*
X121710000Y-136865000D03*
X122980000Y-136865000D03*
X124250000Y-136865000D03*
X125520000Y-136865000D03*
X126790000Y-136865000D03*
X128060000Y-136865000D03*
%TD*%
D33*
%TO.C,C3*%
X79805000Y-89200000D03*
X79805000Y-87300000D03*
%TD*%
D39*
%TO.C,R69*%
X128750000Y-109490000D03*
X128750000Y-110510000D03*
%TD*%
D50*
%TO.C,J2*%
X158250000Y-80250000D03*
X157750000Y-80250000D03*
X157250000Y-80250000D03*
X156750000Y-80250000D03*
X156250000Y-80250000D03*
X155750000Y-80250000D03*
X155250000Y-80250000D03*
X154750000Y-80250000D03*
X154250000Y-80250000D03*
X153750000Y-80250000D03*
X153250000Y-80250000D03*
X152750000Y-80250000D03*
X152250000Y-80250000D03*
X151750000Y-80250000D03*
X151250000Y-80250000D03*
X150750000Y-80250000D03*
X150250000Y-80250000D03*
X149750000Y-80250000D03*
X149250000Y-80250000D03*
X148750000Y-80250000D03*
X148250000Y-80250000D03*
X147750000Y-80250000D03*
X147250000Y-80250000D03*
X146750000Y-80250000D03*
X146250000Y-80250000D03*
X145750000Y-80250000D03*
X145250000Y-80250000D03*
X144750000Y-80250000D03*
X144250000Y-80250000D03*
X143750000Y-80250000D03*
X143250000Y-80250000D03*
X142750000Y-80250000D03*
X142250000Y-80250000D03*
X141750000Y-80250000D03*
X141250000Y-80250000D03*
X140750000Y-80250000D03*
X140250000Y-80250000D03*
X139750000Y-80250000D03*
X139250000Y-80250000D03*
X138750000Y-80250000D03*
D51*
X160400000Y-86000000D03*
X136600000Y-86000000D03*
%TD*%
D52*
%TO.C,C54*%
X123730000Y-109500000D03*
X122770000Y-109500000D03*
%TD*%
D39*
%TO.C,R71*%
X126750000Y-109490000D03*
X126750000Y-110510000D03*
%TD*%
D27*
%TO.C,C32*%
X97000000Y-90550000D03*
X97000000Y-92450000D03*
%TD*%
D46*
%TO.C,SW4*%
X193700000Y-72250000D03*
X182300000Y-72250000D03*
D47*
X190500000Y-79750000D03*
X185500000Y-79750000D03*
X188000000Y-79750000D03*
X190500000Y-65250000D03*
X185500000Y-65250000D03*
%TD*%
D44*
%TO.C,C29*%
X164500000Y-65480000D03*
X164500000Y-64520000D03*
%TD*%
D53*
%TO.C,L1*%
X78305000Y-88265000D03*
X78305000Y-89235000D03*
%TD*%
D52*
%TO.C,C7*%
X111230000Y-110000000D03*
X110270000Y-110000000D03*
%TD*%
D54*
%TO.C,R12*%
X167500000Y-65510000D03*
X167500000Y-64490000D03*
%TD*%
D39*
%TO.C,R14*%
X165500000Y-64490000D03*
X165500000Y-65510000D03*
%TD*%
D55*
%TO.C,SW8*%
X65580000Y-90500000D03*
D56*
X60500000Y-90500000D03*
D55*
X55420000Y-90500000D03*
D57*
X64310000Y-87960000D03*
X57960000Y-85420000D03*
%TD*%
D58*
%TO.C,R23*%
X72787500Y-62750000D03*
X75712500Y-62750000D03*
%TD*%
D52*
%TO.C,C5*%
X111230000Y-111000000D03*
X110270000Y-111000000D03*
%TD*%
D35*
%TO.C,R67*%
X120010000Y-103000000D03*
X118990000Y-103000000D03*
%TD*%
D27*
%TO.C,C35*%
X79500000Y-69050000D03*
X79500000Y-70950000D03*
%TD*%
%TO.C,C33*%
X89250000Y-65050000D03*
X89250000Y-66950000D03*
%TD*%
D59*
%TO.C,R19*%
X100750000Y-81537500D03*
X100750000Y-84462500D03*
%TD*%
D60*
%TO.C,R22*%
X89250000Y-70750000D03*
X89250000Y-68750000D03*
%TD*%
D61*
%TO.C,L2*%
X93500000Y-86000000D03*
X93500000Y-89000000D03*
%TD*%
D39*
%TO.C,R15*%
X163500000Y-64490000D03*
X163500000Y-65510000D03*
%TD*%
D40*
%TO.C,D8*%
X89750000Y-62500000D03*
X93750000Y-62500000D03*
%TD*%
D39*
%TO.C,R16*%
X162500000Y-64490000D03*
X162500000Y-65510000D03*
%TD*%
D62*
%TO.C,U1*%
X85205000Y-80450000D03*
X85205000Y-82750000D03*
D63*
X78905000Y-82750000D03*
D62*
X85205000Y-85050000D03*
%TD*%
D44*
%TO.C,C55*%
X120000000Y-101980000D03*
X120000000Y-101020000D03*
%TD*%
D64*
%TO.C,Q2*%
X79150000Y-66950000D03*
X78500000Y-66950000D03*
X77850000Y-66950000D03*
X77850000Y-65050000D03*
X78500000Y-65050000D03*
X79150000Y-65050000D03*
%TD*%
D33*
%TO.C,C4*%
X81805000Y-89200000D03*
X81805000Y-87300000D03*
%TD*%
D65*
%TO.C,U8*%
X91862500Y-93882483D03*
X91862500Y-92932483D03*
X91862500Y-91982483D03*
X94137500Y-91982483D03*
X94137500Y-93882483D03*
%TD*%
D55*
%TO.C,SW7*%
X193080000Y-90500000D03*
D56*
X188000000Y-90500000D03*
D55*
X182920000Y-90500000D03*
D57*
X191810000Y-87960000D03*
X185460000Y-85420000D03*
%TD*%
D39*
%TO.C,R70*%
X127750000Y-109490000D03*
X127750000Y-110510000D03*
%TD*%
D60*
%TO.C,R18*%
X99750000Y-79250000D03*
X99750000Y-77250000D03*
%TD*%
D27*
%TO.C,C36*%
X93250000Y-65050000D03*
X93250000Y-66950000D03*
%TD*%
D43*
%TO.C,R66*%
X128990000Y-107000000D03*
X130010000Y-107000000D03*
%TD*%
D54*
%TO.C,R62*%
X125750000Y-110510000D03*
X125750000Y-109490000D03*
%TD*%
D43*
%TO.C,R61*%
X118990000Y-104000000D03*
X120010000Y-104000000D03*
%TD*%
D66*
%TO.C,C48*%
X89750000Y-91707483D03*
X89750000Y-88757483D03*
%TD*%
D27*
%TO.C,C34*%
X91250000Y-65050000D03*
X91250000Y-66950000D03*
%TD*%
D67*
%TO.C,Q3*%
X75550000Y-69062500D03*
X77450000Y-69062500D03*
X76500000Y-70937500D03*
%TD*%
D39*
%TO.C,R13*%
X166500000Y-64490000D03*
X166500000Y-65510000D03*
%TD*%
D58*
%TO.C,R24*%
X72787500Y-66000000D03*
X75712500Y-66000000D03*
%TD*%
D68*
%TO.C,FB1*%
X87805000Y-84325000D03*
X87805000Y-81175000D03*
%TD*%
D33*
%TO.C,C2*%
X76555000Y-82700000D03*
X76555000Y-80800000D03*
%TD*%
%LPD*%
M02*
